G04*
G04 #@! TF.GenerationSoftware,Altium Limited,Altium Designer,20.1.11 (218)*
G04*
G04 Layer_Color=16711935*
%FSAX42Y42*%
%MOMM*%
G71*
G04*
G04 #@! TF.SameCoordinates,7775C1EB-3A37-4DB6-902C-5BA206B129F1*
G04*
G04*
G04 #@! TF.FilePolarity,Negative*
G04*
G01*
G75*
%ADD17C,0.86*%
G04:AMPARAMS|DCode=19|XSize=1mm|YSize=1.5mm|CornerRadius=0.3mm|HoleSize=0mm|Usage=FLASHONLY|Rotation=180.000|XOffset=0mm|YOffset=0mm|HoleType=Round|Shape=RoundedRectangle|*
%AMROUNDEDRECTD19*
21,1,1.00,0.90,0,0,180.0*
21,1,0.40,1.50,0,0,180.0*
1,1,0.60,-0.20,0.45*
1,1,0.60,0.20,0.45*
1,1,0.60,0.20,-0.45*
1,1,0.60,-0.20,-0.45*
%
%ADD19ROUNDEDRECTD19*%
G04:AMPARAMS|DCode=24|XSize=1mm|YSize=1.5mm|CornerRadius=0.3mm|HoleSize=0mm|Usage=FLASHONLY|Rotation=270.000|XOffset=0mm|YOffset=0mm|HoleType=Round|Shape=RoundedRectangle|*
%AMROUNDEDRECTD24*
21,1,1.00,0.90,0,0,270.0*
21,1,0.40,1.50,0,0,270.0*
1,1,0.60,-0.45,-0.20*
1,1,0.60,-0.45,0.20*
1,1,0.60,0.45,0.20*
1,1,0.60,0.45,-0.20*
%
%ADD24ROUNDEDRECTD24*%
G04:AMPARAMS|DCode=25|XSize=1mm|YSize=1.2mm|CornerRadius=0.3mm|HoleSize=0mm|Usage=FLASHONLY|Rotation=0.000|XOffset=0mm|YOffset=0mm|HoleType=Round|Shape=RoundedRectangle|*
%AMROUNDEDRECTD25*
21,1,1.00,0.60,0,0,0.0*
21,1,0.40,1.20,0,0,0.0*
1,1,0.60,0.20,-0.30*
1,1,0.60,-0.20,-0.30*
1,1,0.60,-0.20,0.30*
1,1,0.60,0.20,0.30*
%
%ADD25ROUNDEDRECTD25*%
G04:AMPARAMS|DCode=26|XSize=1mm|YSize=1.2mm|CornerRadius=0.3mm|HoleSize=0mm|Usage=FLASHONLY|Rotation=270.000|XOffset=0mm|YOffset=0mm|HoleType=Round|Shape=RoundedRectangle|*
%AMROUNDEDRECTD26*
21,1,1.00,0.60,0,0,270.0*
21,1,0.40,1.20,0,0,270.0*
1,1,0.60,-0.30,-0.20*
1,1,0.60,-0.30,0.20*
1,1,0.60,0.30,0.20*
1,1,0.60,0.30,-0.20*
%
%ADD26ROUNDEDRECTD26*%
G04:AMPARAMS|DCode=36|XSize=2.74mm|YSize=1.12mm|CornerRadius=0mm|HoleSize=0mm|Usage=FLASHONLY|Rotation=90.000|XOffset=0mm|YOffset=0mm|HoleType=Round|Shape=Octagon|*
%AMOCTAGOND36*
4,1,8,0.28,1.37,-0.28,1.37,-0.56,1.09,-0.56,-1.09,-0.28,-1.37,0.28,-1.37,0.56,-1.09,0.56,1.09,0.28,1.37,0.0*
%
%ADD36OCTAGOND36*%

G04:AMPARAMS|DCode=40|XSize=1.98mm|YSize=1.98mm|CornerRadius=0.55mm|HoleSize=0mm|Usage=FLASHONLY|Rotation=180.000|XOffset=0mm|YOffset=0mm|HoleType=Round|Shape=RoundedRectangle|*
%AMROUNDEDRECTD40*
21,1,1.98,0.89,0,0,180.0*
21,1,0.89,1.98,0,0,180.0*
1,1,1.09,-0.44,0.44*
1,1,1.09,0.44,0.44*
1,1,1.09,0.44,-0.44*
1,1,1.09,-0.44,-0.44*
%
%ADD40ROUNDEDRECTD40*%
G04:AMPARAMS|DCode=41|XSize=1.98mm|YSize=1.98mm|CornerRadius=0.55mm|HoleSize=0mm|Usage=FLASHONLY|Rotation=270.000|XOffset=0mm|YOffset=0mm|HoleType=Round|Shape=RoundedRectangle|*
%AMROUNDEDRECTD41*
21,1,1.98,0.89,0,0,270.0*
21,1,0.89,1.98,0,0,270.0*
1,1,1.09,-0.44,-0.44*
1,1,1.09,-0.44,0.44*
1,1,1.09,0.44,0.44*
1,1,1.09,0.44,-0.44*
%
%ADD41ROUNDEDRECTD41*%
%ADD42C,0.20*%
%ADD43C,2.20*%
%ADD44C,1.57*%
%ADD45R,1.57X1.57*%
%ADD46C,0.80*%
%ADD47C,1.70*%
%ADD48C,1.40*%
%ADD49C,0.70*%
%ADD50C,1.30*%
%ADD111R,1.00X1.50*%
%ADD112R,1.40X2.20*%
%ADD113R,1.80X1.60*%
%ADD114R,1.40X1.60*%
%ADD115R,0.90X1.80*%
%ADD116R,0.80X1.10*%
G04:AMPARAMS|DCode=117|XSize=1.1mm|YSize=0.8mm|CornerRadius=0.25mm|HoleSize=0mm|Usage=FLASHONLY|Rotation=90.000|XOffset=0mm|YOffset=0mm|HoleType=Round|Shape=RoundedRectangle|*
%AMROUNDEDRECTD117*
21,1,1.10,0.30,0,0,90.0*
21,1,0.60,0.80,0,0,90.0*
1,1,0.50,0.15,0.30*
1,1,0.50,0.15,-0.30*
1,1,0.50,-0.15,-0.30*
1,1,0.50,-0.15,0.30*
%
%ADD117ROUNDEDRECTD117*%
%ADD118R,2.20X3.00*%
%ADD119R,1.15X0.80*%
%ADD120R,2.20X2.20*%
G04:AMPARAMS|DCode=121|XSize=2.2mm|YSize=2.2mm|CornerRadius=0.6mm|HoleSize=0mm|Usage=FLASHONLY|Rotation=270.000|XOffset=0mm|YOffset=0mm|HoleType=Round|Shape=RoundedRectangle|*
%AMROUNDEDRECTD121*
21,1,2.20,1.00,0,0,270.0*
21,1,1.00,2.20,0,0,270.0*
1,1,1.20,-0.50,-0.50*
1,1,1.20,-0.50,0.50*
1,1,1.20,0.50,0.50*
1,1,1.20,0.50,-0.50*
%
%ADD121ROUNDEDRECTD121*%
G36*
X019322Y003283D02*
X019347D01*
Y003263D01*
X019326D01*
X019331Y003238D01*
X019347D01*
Y003219D01*
X019335D01*
X019342Y003185D01*
X019322D01*
X019316Y003219D01*
X019296D01*
X019303Y003185D01*
X019283D01*
X019277Y003219D01*
X019251D01*
Y003238D01*
X019273D01*
X019267Y003263D01*
X019251D01*
Y003283D01*
X019263D01*
X019257Y003317D01*
X019277D01*
X019283Y003283D01*
X019302D01*
X019296Y003317D01*
X019315D01*
X019322Y003283D01*
D02*
G37*
G36*
X019975Y003281D02*
X019978Y003281D01*
X019980Y003280D01*
X019983Y003279D01*
X019986Y003278D01*
X019988Y003277D01*
X019990Y003276D01*
X019992Y003274D01*
X019994Y003273D01*
X019996Y003271D01*
X019997Y003270D01*
X019998Y003269D01*
X019999Y003268D01*
X020000Y003267D01*
X020000Y003267D01*
X020000Y003267D01*
Y003279D01*
X020023D01*
Y003187D01*
X019998D01*
Y003232D01*
Y003234D01*
X019998Y003236D01*
X019998Y003238D01*
X019998Y003240D01*
X019998Y003242D01*
X019998Y003244D01*
X019998Y003245D01*
X019997Y003246D01*
X019997Y003247D01*
X019997Y003248D01*
X019997Y003249D01*
X019997Y003250D01*
X019997Y003250D01*
X019997Y003251D01*
X019996Y003251D01*
Y003251D01*
X019996Y003253D01*
X019995Y003255D01*
X019994Y003256D01*
X019992Y003257D01*
X019992Y003258D01*
X019991Y003259D01*
X019990Y003259D01*
X019990Y003260D01*
X019990D01*
X019988Y003261D01*
X019986Y003261D01*
X019985Y003262D01*
X019983Y003262D01*
X019982Y003263D01*
X019981Y003263D01*
X019981Y003263D01*
X019980D01*
X019978Y003263D01*
X019977Y003262D01*
X019975Y003262D01*
X019974Y003262D01*
X019973Y003261D01*
X019973Y003261D01*
X019972Y003261D01*
X019972Y003261D01*
X019971Y003260D01*
X019970Y003259D01*
X019970Y003258D01*
X019969Y003257D01*
X019969Y003256D01*
X019969Y003256D01*
X019968Y003255D01*
X019968Y003255D01*
Y003255D01*
X019968Y003254D01*
X019968Y003253D01*
X019968Y003252D01*
X019967Y003251D01*
X019967Y003248D01*
X019967Y003245D01*
X019967Y003243D01*
Y003242D01*
X019967Y003241D01*
Y003240D01*
Y003239D01*
Y003238D01*
Y003238D01*
Y003238D01*
Y003187D01*
X019942D01*
Y003231D01*
Y003234D01*
X019942Y003236D01*
X019942Y003238D01*
X019942Y003240D01*
X019942Y003241D01*
X019942Y003243D01*
X019942Y003244D01*
X019941Y003246D01*
X019941Y003247D01*
X019941Y003248D01*
X019941Y003249D01*
X019941Y003249D01*
X019941Y003250D01*
X019941Y003250D01*
X019940Y003250D01*
Y003250D01*
X019940Y003252D01*
X019939Y003254D01*
X019937Y003256D01*
X019936Y003257D01*
X019935Y003258D01*
X019935Y003259D01*
X019934Y003259D01*
X019934Y003260D01*
X019934D01*
X019932Y003261D01*
X019930Y003261D01*
X019929Y003262D01*
X019927Y003262D01*
X019926Y003263D01*
X019925Y003263D01*
X019924D01*
X019923Y003263D01*
X019922Y003263D01*
X019921Y003262D01*
X019920Y003262D01*
X019918Y003261D01*
X019916Y003260D01*
X019915Y003259D01*
X019914Y003258D01*
X019914Y003258D01*
X019914Y003258D01*
X019914Y003258D01*
Y003257D01*
X019913Y003257D01*
X019913Y003256D01*
X019913Y003254D01*
X019912Y003253D01*
X019912Y003250D01*
X019911Y003247D01*
X019911Y003246D01*
X019911Y003244D01*
Y003243D01*
X019911Y003242D01*
Y003241D01*
Y003240D01*
Y003240D01*
Y003240D01*
Y003187D01*
X019887D01*
Y003246D01*
Y003248D01*
X019887Y003251D01*
X019887Y003253D01*
X019887Y003255D01*
X019887Y003256D01*
X019887Y003258D01*
X019888Y003259D01*
X019888Y003261D01*
X019888Y003262D01*
X019888Y003263D01*
X019889Y003263D01*
X019889Y003264D01*
X019889Y003265D01*
X019889Y003265D01*
X019889Y003265D01*
Y003265D01*
X019891Y003268D01*
X019892Y003269D01*
X019892Y003270D01*
X019893Y003272D01*
X019894Y003273D01*
X019895Y003273D01*
X019896Y003274D01*
X019897Y003275D01*
X019897Y003276D01*
X019898Y003276D01*
X019899Y003277D01*
X019899Y003277D01*
X019899Y003277D01*
X019900Y003277D01*
X019900D01*
X019901Y003278D01*
X019903Y003279D01*
X019905Y003280D01*
X019908Y003281D01*
X019911Y003281D01*
X019912Y003281D01*
X019913Y003281D01*
X019914Y003281D01*
X019915D01*
X019916Y003282D01*
X019917D01*
X019920Y003281D01*
X019923Y003281D01*
X019925Y003280D01*
X019927Y003280D01*
X019928Y003280D01*
X019929Y003279D01*
X019930Y003279D01*
X019930Y003279D01*
X019931Y003278D01*
X019931Y003278D01*
X019932Y003278D01*
X019932Y003278D01*
X019932D01*
X019935Y003276D01*
X019937Y003274D01*
X019939Y003273D01*
X019941Y003271D01*
X019942Y003270D01*
X019943Y003269D01*
X019944Y003269D01*
X019944Y003268D01*
X019945Y003267D01*
X019945Y003267D01*
X019945Y003267D01*
X019945Y003267D01*
X019947Y003269D01*
X019949Y003272D01*
X019951Y003273D01*
X019952Y003275D01*
X019954Y003276D01*
X019954Y003277D01*
X019955Y003277D01*
X019955Y003277D01*
X019956Y003278D01*
X019956Y003278D01*
X019956D01*
X019959Y003279D01*
X019961Y003280D01*
X019964Y003281D01*
X019966Y003281D01*
X019967Y003281D01*
X019968Y003281D01*
X019969Y003281D01*
X019970D01*
X019971Y003282D01*
X019971D01*
X019975Y003281D01*
D02*
G37*
G36*
X019200Y003313D02*
X019201Y003311D01*
X019202Y003309D01*
X019203Y003307D01*
X019204Y003305D01*
X019206Y003304D01*
X019207Y003302D01*
X019208Y003300D01*
X019209Y003299D01*
X019211Y003298D01*
X019212Y003297D01*
X019213Y003296D01*
X019213Y003296D01*
X019214Y003295D01*
X019214Y003295D01*
X019214Y003295D01*
X019216Y003293D01*
X019219Y003292D01*
X019220Y003290D01*
X019222Y003289D01*
X019224Y003288D01*
X019226Y003287D01*
X019227Y003286D01*
X019229Y003285D01*
X019230Y003285D01*
X019232Y003284D01*
X019233Y003284D01*
X019234Y003283D01*
X019234Y003283D01*
X019235Y003283D01*
X019235Y003283D01*
X019235D01*
Y003261D01*
X019232Y003262D01*
X019229Y003263D01*
X019225Y003265D01*
X019223Y003266D01*
X019220Y003267D01*
X019217Y003269D01*
X019215Y003271D01*
X019213Y003272D01*
X019210Y003273D01*
X019209Y003275D01*
X019207Y003276D01*
X019206Y003277D01*
X019205Y003278D01*
X019204Y003279D01*
X019204Y003279D01*
X019203Y003279D01*
Y003187D01*
X019179D01*
Y003315D01*
X019199D01*
X019200Y003313D01*
D02*
G37*
G36*
X020497Y003187D02*
X020471D01*
Y003225D01*
X020451Y003247D01*
X020415Y003187D01*
X020382D01*
X020433Y003265D01*
X020384Y003315D01*
X020419D01*
X020471Y003258D01*
Y003315D01*
X020497D01*
Y003187D01*
D02*
G37*
G36*
X019644Y003221D02*
Y003218D01*
X019644Y003216D01*
X019644Y003214D01*
X019644Y003212D01*
X019644Y003210D01*
X019643Y003208D01*
X019643Y003207D01*
X019643Y003206D01*
X019642Y003204D01*
X019642Y003203D01*
X019642Y003202D01*
X019642Y003202D01*
X019641Y003201D01*
X019641Y003201D01*
X019641Y003200D01*
Y003200D01*
X019640Y003199D01*
X019640Y003198D01*
X019638Y003195D01*
X019636Y003193D01*
X019634Y003192D01*
X019633Y003190D01*
X019632Y003190D01*
X019632Y003189D01*
X019631Y003189D01*
X019631Y003189D01*
X019630Y003189D01*
X019630Y003189D01*
X019629Y003188D01*
X019627Y003187D01*
X019625Y003186D01*
X019622Y003186D01*
X019619Y003185D01*
X019618Y003185D01*
X019617Y003185D01*
X019616Y003185D01*
X019615D01*
X019614Y003185D01*
X019614D01*
X019612Y003185D01*
X019610Y003185D01*
X019607Y003185D01*
X019604Y003186D01*
X019603Y003186D01*
X019601Y003187D01*
X019600Y003187D01*
X019599Y003187D01*
X019598Y003188D01*
X019598Y003188D01*
X019597Y003189D01*
X019596Y003189D01*
X019596Y003189D01*
X019596D01*
X019593Y003191D01*
X019590Y003192D01*
X019588Y003194D01*
X019587Y003195D01*
X019586Y003196D01*
X019585Y003197D01*
X019585Y003198D01*
X019584Y003199D01*
X019584Y003199D01*
X019583Y003200D01*
X019583Y003200D01*
X019583Y003201D01*
X019583Y003201D01*
Y003187D01*
X019560D01*
Y003279D01*
X019584D01*
Y003240D01*
Y003237D01*
X019585Y003234D01*
X019585Y003231D01*
X019585Y003228D01*
X019585Y003226D01*
X019585Y003224D01*
X019585Y003222D01*
X019585Y003220D01*
X019586Y003219D01*
X019586Y003218D01*
X019586Y003217D01*
X019586Y003216D01*
X019586Y003216D01*
X019586Y003216D01*
X019586Y003215D01*
Y003215D01*
X019587Y003213D01*
X019588Y003212D01*
X019589Y003210D01*
X019590Y003209D01*
X019591Y003208D01*
X019592Y003207D01*
X019593Y003207D01*
X019593Y003207D01*
X019593Y003207D01*
X019593D01*
X019595Y003206D01*
X019597Y003205D01*
X019599Y003204D01*
X019601Y003204D01*
X019602Y003204D01*
X019603Y003203D01*
X019603D01*
X019604Y003203D01*
X019604D01*
X019606Y003203D01*
X019608Y003204D01*
X019610Y003204D01*
X019611Y003205D01*
X019612Y003205D01*
X019613Y003206D01*
X019613Y003206D01*
X019614Y003206D01*
X019615Y003207D01*
X019616Y003208D01*
X019617Y003209D01*
X019617Y003210D01*
X019618Y003211D01*
X019618Y003212D01*
X019618Y003213D01*
X019618Y003213D01*
Y003213D01*
X019619Y003214D01*
X019619Y003215D01*
X019619Y003217D01*
X019619Y003219D01*
X019619Y003220D01*
X019620Y003222D01*
X019620Y003227D01*
X019620Y003229D01*
Y003230D01*
X019620Y003232D01*
Y003234D01*
Y003235D01*
Y003236D01*
Y003236D01*
Y003237D01*
Y003237D01*
Y003237D01*
Y003279D01*
X019644D01*
Y003221D01*
D02*
G37*
G36*
X019453Y003281D02*
X019456Y003281D01*
X019459Y003280D01*
X019462Y003279D01*
X019465Y003278D01*
X019467Y003277D01*
X019470Y003276D01*
X019472Y003275D01*
X019474Y003274D01*
X019475Y003273D01*
X019477Y003271D01*
X019478Y003270D01*
X019479Y003270D01*
X019480Y003269D01*
X019480Y003269D01*
X019480Y003268D01*
X019482Y003266D01*
X019484Y003263D01*
X019486Y003260D01*
X019487Y003257D01*
X019488Y003254D01*
X019489Y003251D01*
X019490Y003248D01*
X019491Y003245D01*
X019491Y003243D01*
X019491Y003240D01*
X019492Y003238D01*
X019492Y003236D01*
X019492Y003235D01*
Y003235D01*
Y003234D01*
X019492Y003233D01*
Y003233D01*
Y003233D01*
Y003232D01*
Y003232D01*
X019492Y003229D01*
X019492Y003225D01*
X019491Y003222D01*
X019491Y003219D01*
X019490Y003216D01*
X019489Y003214D01*
X019488Y003211D01*
X019487Y003209D01*
X019487Y003207D01*
X019486Y003205D01*
X019485Y003204D01*
X019484Y003203D01*
X019484Y003202D01*
X019483Y003201D01*
X019483Y003201D01*
X019483Y003200D01*
X019481Y003198D01*
X019478Y003195D01*
X019475Y003193D01*
X019473Y003191D01*
X019470Y003190D01*
X019467Y003189D01*
X019464Y003187D01*
X019461Y003187D01*
X019458Y003186D01*
X019455Y003185D01*
X019453Y003185D01*
X019451Y003185D01*
X019450Y003185D01*
X019449Y003185D01*
X019449D01*
X019448Y003185D01*
X019447D01*
X019444Y003185D01*
X019442Y003185D01*
X019439Y003185D01*
X019437Y003186D01*
X019435Y003186D01*
X019432Y003187D01*
X019431Y003187D01*
X019429Y003188D01*
X019427Y003189D01*
X019426Y003189D01*
X019425Y003190D01*
X019424Y003190D01*
X019423Y003191D01*
X019422Y003191D01*
X019422Y003191D01*
X019422Y003192D01*
X019420Y003193D01*
X019418Y003194D01*
X019417Y003196D01*
X019415Y003198D01*
X019414Y003199D01*
X019413Y003201D01*
X019411Y003203D01*
X019410Y003205D01*
X019410Y003206D01*
X019409Y003207D01*
X019408Y003209D01*
X019408Y003210D01*
X019407Y003211D01*
X019407Y003212D01*
X019407Y003212D01*
X019407Y003212D01*
X019431Y003216D01*
X019432Y003214D01*
X019433Y003212D01*
X019434Y003210D01*
X019435Y003208D01*
X019436Y003207D01*
X019437Y003207D01*
X019437Y003206D01*
X019437Y003206D01*
X019437D01*
X019439Y003205D01*
X019440Y003204D01*
X019442Y003204D01*
X019443Y003203D01*
X019445Y003203D01*
X019446Y003203D01*
X019446Y003203D01*
X019447D01*
X019448Y003203D01*
X019450Y003203D01*
X019451Y003203D01*
X019453Y003204D01*
X019455Y003205D01*
X019456Y003205D01*
X019457Y003206D01*
X019458Y003207D01*
X019459Y003207D01*
X019460Y003208D01*
X019460Y003208D01*
X019461Y003208D01*
X019461Y003209D01*
X019461Y003209D01*
X019461Y003209D01*
X019462Y003210D01*
X019463Y003211D01*
X019464Y003213D01*
X019464Y003214D01*
X019465Y003216D01*
X019465Y003217D01*
X019466Y003220D01*
X019466Y003221D01*
X019467Y003222D01*
X019467Y003223D01*
X019467Y003224D01*
Y003225D01*
X019467Y003225D01*
Y003226D01*
Y003226D01*
X019405D01*
X019406Y003231D01*
X019406Y003236D01*
X019406Y003240D01*
X019407Y003244D01*
X019408Y003248D01*
X019409Y003252D01*
X019410Y003255D01*
X019411Y003257D01*
X019412Y003260D01*
X019413Y003262D01*
X019414Y003264D01*
X019415Y003265D01*
X019416Y003266D01*
X019416Y003267D01*
X019417Y003268D01*
X019417Y003268D01*
X019419Y003270D01*
X019422Y003272D01*
X019424Y003274D01*
X019427Y003276D01*
X019430Y003277D01*
X019433Y003278D01*
X019435Y003279D01*
X019438Y003280D01*
X019440Y003280D01*
X019442Y003281D01*
X019444Y003281D01*
X019446Y003281D01*
X019448Y003281D01*
X019448D01*
X019449Y003282D01*
X019450D01*
X019453Y003281D01*
D02*
G37*
G36*
X020789Y003187D02*
X020761D01*
X020751Y003216D01*
X020700D01*
X020688Y003187D01*
X020660D01*
X020712Y003315D01*
X020739D01*
X020789Y003187D01*
D02*
G37*
G36*
X020647D02*
X020622D01*
Y003315D01*
X020647D01*
Y003187D01*
D02*
G37*
G36*
X020368D02*
X020343D01*
Y003235D01*
X020323D01*
X020320Y003235D01*
X020317Y003235D01*
X020314Y003235D01*
X020312Y003235D01*
X020310Y003236D01*
X020308Y003236D01*
X020306Y003236D01*
X020304Y003236D01*
X020303Y003236D01*
X020302Y003236D01*
X020301Y003236D01*
X020300Y003237D01*
X020300Y003237D01*
X020299Y003237D01*
X020299D01*
X020297Y003237D01*
X020294Y003238D01*
X020292Y003239D01*
X020290Y003240D01*
X020289Y003241D01*
X020288Y003241D01*
X020288Y003242D01*
X020287Y003242D01*
X020286Y003242D01*
X020286Y003243D01*
X020286Y003243D01*
X020286Y003243D01*
X020283Y003245D01*
X020281Y003247D01*
X020279Y003249D01*
X020278Y003251D01*
X020277Y003253D01*
X020276Y003254D01*
X020276Y003254D01*
X020275Y003255D01*
X020275Y003255D01*
X020275Y003255D01*
X020275Y003255D01*
X020274Y003257D01*
X020273Y003259D01*
X020272Y003262D01*
X020272Y003265D01*
X020271Y003267D01*
X020271Y003268D01*
X020271Y003270D01*
X020271Y003271D01*
X020271Y003272D01*
Y003273D01*
X020271Y003274D01*
Y003275D01*
Y003275D01*
Y003275D01*
X020271Y003278D01*
X020271Y003281D01*
X020271Y003283D01*
X020272Y003286D01*
X020272Y003288D01*
X020273Y003290D01*
X020274Y003292D01*
X020274Y003293D01*
X020275Y003295D01*
X020276Y003296D01*
X020276Y003298D01*
X020277Y003298D01*
X020277Y003299D01*
X020278Y003300D01*
X020278Y003300D01*
X020278Y003300D01*
X020279Y003302D01*
X020281Y003304D01*
X020283Y003305D01*
X020284Y003306D01*
X020286Y003307D01*
X020287Y003308D01*
X020289Y003309D01*
X020290Y003310D01*
X020291Y003311D01*
X020293Y003311D01*
X020294Y003312D01*
X020295Y003312D01*
X020295Y003312D01*
X020296Y003313D01*
X020296Y003313D01*
X020296D01*
X020297Y003313D01*
X020298Y003313D01*
X020300Y003313D01*
X020302Y003314D01*
X020304Y003314D01*
X020307Y003314D01*
X020309Y003314D01*
X020315Y003314D01*
X020317Y003315D01*
X020319Y003315D01*
X020321D01*
X020323Y003315D01*
X020368D01*
Y003187D01*
D02*
G37*
G36*
X020262D02*
X020235D01*
X020224Y003216D01*
X020173Y003216D01*
X020162Y003187D01*
X020134D01*
X020185Y003315D01*
X020213Y003315D01*
X020262Y003187D01*
D02*
G37*
G36*
X019535Y003187D02*
X019510D01*
Y003315D01*
X019535D01*
Y003187D01*
D02*
G37*
G36*
X019823Y003281D02*
X019825Y003281D01*
X019827Y003281D01*
X019830Y003281D01*
X019832Y003280D01*
X019834Y003280D01*
X019836Y003279D01*
X019838Y003278D01*
X019839Y003278D01*
X019841Y003277D01*
X019842Y003277D01*
X019843Y003276D01*
X019844Y003276D01*
X019844Y003276D01*
X019845Y003276D01*
X019845Y003275D01*
X019847Y003274D01*
X019849Y003273D01*
X019850Y003272D01*
X019852Y003270D01*
X019854Y003269D01*
X019855Y003267D01*
X019856Y003266D01*
X019857Y003264D01*
X019859Y003263D01*
X019859Y003262D01*
X019860Y003261D01*
X019861Y003260D01*
X019861Y003259D01*
X019862Y003258D01*
X019862Y003258D01*
X019862Y003258D01*
X019863Y003256D01*
X019864Y003254D01*
X019865Y003252D01*
X019865Y003249D01*
X019866Y003247D01*
X019866Y003245D01*
X019867Y003244D01*
X019867Y003242D01*
X019867Y003240D01*
X019868Y003239D01*
X019868Y003238D01*
X019868Y003236D01*
X019868Y003236D01*
Y003235D01*
Y003235D01*
Y003234D01*
X019868Y003231D01*
X019868Y003229D01*
X019867Y003226D01*
X019867Y003223D01*
X019866Y003221D01*
X019866Y003219D01*
X019865Y003217D01*
X019865Y003215D01*
X019864Y003213D01*
X019864Y003212D01*
X019863Y003210D01*
X019863Y003209D01*
X019862Y003208D01*
X019862Y003208D01*
X019862Y003207D01*
X019862Y003207D01*
X019861Y003205D01*
X019859Y003203D01*
X019858Y003202D01*
X019857Y003200D01*
X019855Y003198D01*
X019854Y003197D01*
X019852Y003196D01*
X019851Y003195D01*
X019849Y003194D01*
X019848Y003193D01*
X019847Y003192D01*
X019846Y003191D01*
X019845Y003191D01*
X019845Y003191D01*
X019844Y003190D01*
X019844Y003190D01*
X019842Y003189D01*
X019840Y003189D01*
X019838Y003188D01*
X019836Y003187D01*
X019834Y003186D01*
X019832Y003186D01*
X019830Y003186D01*
X019828Y003185D01*
X019826Y003185D01*
X019825Y003185D01*
X019823Y003185D01*
X019822Y003185D01*
X019821Y003185D01*
X019820D01*
X019816Y003185D01*
X019813Y003185D01*
X019809Y003186D01*
X019806Y003187D01*
X019803Y003188D01*
X019800Y003189D01*
X019797Y003190D01*
X019795Y003192D01*
X019793Y003193D01*
X019791Y003194D01*
X019790Y003195D01*
X019788Y003196D01*
X019787Y003197D01*
X019786Y003198D01*
X019786Y003198D01*
X019786Y003198D01*
X019783Y003201D01*
X019781Y003204D01*
X019779Y003207D01*
X019778Y003210D01*
X019777Y003213D01*
X019775Y003216D01*
X019775Y003218D01*
X019774Y003221D01*
X019773Y003224D01*
X019773Y003226D01*
X019773Y003228D01*
X019772Y003230D01*
X019772Y003231D01*
Y003232D01*
X019772Y003232D01*
Y003233D01*
Y003233D01*
Y003233D01*
Y003233D01*
X019772Y003237D01*
X019773Y003241D01*
X019773Y003244D01*
X019774Y003247D01*
X019775Y003251D01*
X019776Y003253D01*
X019778Y003256D01*
X019779Y003258D01*
X019780Y003261D01*
X019781Y003262D01*
X019783Y003264D01*
X019784Y003265D01*
X019784Y003266D01*
X019785Y003267D01*
X019785Y003268D01*
X019786Y003268D01*
X019788Y003270D01*
X019791Y003272D01*
X019794Y003274D01*
X019797Y003276D01*
X019800Y003277D01*
X019802Y003278D01*
X019805Y003279D01*
X019808Y003280D01*
X019810Y003280D01*
X019813Y003281D01*
X019815Y003281D01*
X019817Y003281D01*
X019818Y003281D01*
X019819D01*
X019819Y003282D01*
X019820D01*
X019823Y003281D01*
D02*
G37*
G36*
X019692Y003269D02*
X019695Y003271D01*
X019697Y003273D01*
X019699Y003275D01*
X019701Y003276D01*
X019704Y003277D01*
X019706Y003278D01*
X019708Y003279D01*
X019710Y003280D01*
X019712Y003280D01*
X019714Y003281D01*
X019715Y003281D01*
X019717Y003281D01*
X019718Y003281D01*
X019719Y003282D01*
X019719D01*
X019723Y003281D01*
X019725Y003281D01*
X019728Y003280D01*
X019731Y003280D01*
X019733Y003279D01*
X019736Y003278D01*
X019738Y003277D01*
X019740Y003275D01*
X019742Y003274D01*
X019743Y003273D01*
X019744Y003272D01*
X019745Y003271D01*
X019746Y003270D01*
X019747Y003270D01*
X019747Y003269D01*
X019747Y003269D01*
X019749Y003267D01*
X019751Y003264D01*
X019753Y003261D01*
X019754Y003258D01*
X019755Y003255D01*
X019756Y003252D01*
X019757Y003250D01*
X019757Y003247D01*
X019758Y003244D01*
X019758Y003241D01*
X019758Y003239D01*
X019758Y003237D01*
X019758Y003236D01*
Y003236D01*
X019758Y003235D01*
Y003234D01*
Y003234D01*
Y003234D01*
Y003233D01*
Y003233D01*
X019758Y003229D01*
X019758Y003225D01*
X019757Y003222D01*
X019757Y003218D01*
X019756Y003215D01*
X019755Y003212D01*
X019754Y003209D01*
X019753Y003207D01*
X019752Y003205D01*
X019751Y003203D01*
X019750Y003201D01*
X019749Y003200D01*
X019748Y003199D01*
X019748Y003198D01*
X019747Y003198D01*
X019747Y003197D01*
X019745Y003195D01*
X019743Y003193D01*
X019740Y003192D01*
X019738Y003190D01*
X019736Y003189D01*
X019733Y003188D01*
X019731Y003187D01*
X019729Y003186D01*
X019727Y003186D01*
X019725Y003185D01*
X019724Y003185D01*
X019722Y003185D01*
X019721Y003185D01*
X019720Y003185D01*
X019720D01*
X019717Y003185D01*
X019714Y003185D01*
X019711Y003186D01*
X019709Y003187D01*
X019708Y003187D01*
X019707Y003187D01*
X019706Y003188D01*
X019705Y003188D01*
X019705Y003188D01*
X019705Y003188D01*
X019704Y003189D01*
X019704D01*
X019703Y003189D01*
X019701Y003190D01*
X019699Y003192D01*
X019697Y003194D01*
X019694Y003196D01*
X019694Y003197D01*
X019693Y003198D01*
X019692Y003198D01*
X019692Y003199D01*
X019691Y003200D01*
X019691Y003200D01*
X019691Y003200D01*
X019691Y003200D01*
Y003187D01*
X019668D01*
Y003315D01*
X019692D01*
Y003269D01*
D02*
G37*
G36*
X020861Y003317D02*
X020864Y003317D01*
X020866Y003316D01*
X020869Y003316D01*
X020871Y003316D01*
X020874Y003315D01*
X020876Y003315D01*
X020878Y003314D01*
X020880Y003314D01*
X020881Y003313D01*
X020882Y003313D01*
X020884Y003313D01*
X020884Y003312D01*
X020885Y003312D01*
X020886Y003312D01*
X020886Y003312D01*
X020887Y003311D01*
X020889Y003310D01*
X020892Y003308D01*
X020895Y003306D01*
X020896Y003305D01*
X020897Y003305D01*
X020898Y003304D01*
X020899Y003303D01*
X020900Y003302D01*
X020901Y003301D01*
X020902Y003301D01*
X020902Y003301D01*
X020902Y003300D01*
X020902Y003300D01*
X020905Y003297D01*
X020907Y003294D01*
X020909Y003291D01*
X020911Y003289D01*
X020912Y003287D01*
X020912Y003286D01*
X020913Y003285D01*
X020913Y003284D01*
X020914Y003284D01*
X020914Y003283D01*
X020914Y003283D01*
X020914Y003283D01*
X020915Y003280D01*
X020916Y003277D01*
X020917Y003275D01*
X020918Y003272D01*
X020918Y003269D01*
X020919Y003266D01*
X020919Y003264D01*
X020919Y003261D01*
X020920Y003259D01*
X020920Y003257D01*
X020920Y003255D01*
X020920Y003253D01*
X020920Y003252D01*
Y003251D01*
Y003251D01*
Y003250D01*
Y003250D01*
Y003250D01*
Y003250D01*
X020920Y003247D01*
X020920Y003244D01*
X020919Y003239D01*
X020918Y003234D01*
X020917Y003229D01*
X020916Y003225D01*
X020915Y003221D01*
X020913Y003218D01*
X020912Y003214D01*
X020910Y003212D01*
X020909Y003210D01*
X020909Y003209D01*
X020908Y003208D01*
X020907Y003207D01*
X020906Y003206D01*
X020906Y003205D01*
X020905Y003204D01*
X020905Y003204D01*
X020904Y003203D01*
X020904Y003203D01*
X020904Y003202D01*
X020903Y003202D01*
X020903Y003202D01*
Y003202D01*
X020902Y003200D01*
X020900Y003199D01*
X020898Y003197D01*
X020896Y003196D01*
X020893Y003194D01*
X020889Y003192D01*
X020885Y003190D01*
X020881Y003189D01*
X020878Y003188D01*
X020874Y003187D01*
X020871Y003186D01*
X020868Y003185D01*
X020866Y003185D01*
X020865Y003185D01*
X020864Y003185D01*
X020862Y003185D01*
X020861Y003185D01*
X020861Y003185D01*
X020860D01*
X020859Y003185D01*
X020858D01*
X020855Y003185D01*
X020853Y003185D01*
X020848Y003185D01*
X020843Y003186D01*
X020839Y003187D01*
X020835Y003189D01*
X020831Y003190D01*
X020828Y003192D01*
X020825Y003193D01*
X020822Y003195D01*
X020820Y003196D01*
X020817Y003198D01*
X020816Y003199D01*
X020815Y003200D01*
X020815Y003200D01*
X020814Y003201D01*
X020813Y003201D01*
X020813Y003202D01*
X020813Y003202D01*
X020813Y003202D01*
X020813Y003202D01*
X020811Y003204D01*
X020810Y003205D01*
X020808Y003207D01*
X020807Y003209D01*
X020805Y003213D01*
X020803Y003217D01*
X020801Y003221D01*
X020800Y003225D01*
X020799Y003229D01*
X020798Y003233D01*
X020797Y003236D01*
X020797Y003240D01*
X020796Y003241D01*
X020796Y003243D01*
X020796Y003244D01*
X020796Y003245D01*
X020796Y003246D01*
X020796Y003247D01*
Y003248D01*
X020796Y003249D01*
Y003250D01*
Y003250D01*
Y003250D01*
Y003250D01*
Y003253D01*
X020796Y003256D01*
X020797Y003262D01*
X020797Y003267D01*
X020799Y003271D01*
X020800Y003276D01*
X020801Y003280D01*
X020803Y003283D01*
X020804Y003287D01*
X020805Y003288D01*
X020806Y003289D01*
X020807Y003291D01*
X020807Y003292D01*
X020808Y003293D01*
X020809Y003294D01*
X020810Y003295D01*
X020810Y003296D01*
X020811Y003297D01*
X020811Y003297D01*
X020812Y003298D01*
X020812Y003298D01*
X020812Y003299D01*
X020813Y003299D01*
X020813Y003299D01*
X020813Y003299D01*
X020815Y003301D01*
X020816Y003302D01*
X020818Y003304D01*
X020820Y003305D01*
X020823Y003307D01*
X020827Y003309D01*
X020831Y003311D01*
X020835Y003313D01*
X020838Y003314D01*
X020842Y003315D01*
X020845Y003315D01*
X020848Y003316D01*
X020850Y003316D01*
X020851Y003316D01*
X020852Y003316D01*
X020853Y003317D01*
X020855Y003317D01*
X020855Y003317D01*
X020856D01*
X020857Y003317D01*
X020858D01*
X020861Y003317D01*
D02*
G37*
G36*
X020612Y003151D02*
X020510D01*
Y003167D01*
X020612D01*
Y003151D01*
D02*
G37*
G36*
X020135Y003151D02*
X020033D01*
Y003167D01*
X020135D01*
Y003151D01*
D02*
G37*
G36*
X020878Y003126D02*
X020881Y003125D01*
X020884Y003125D01*
X020887Y003124D01*
X020889Y003124D01*
X020891Y003123D01*
X020894Y003122D01*
X020896Y003121D01*
X020897Y003121D01*
X020899Y003120D01*
X020900Y003119D01*
X020902Y003118D01*
X020902Y003118D01*
X020903Y003117D01*
X020903Y003117D01*
X020904Y003117D01*
X020906Y003115D01*
X020907Y003113D01*
X020909Y003111D01*
X020910Y003109D01*
X020912Y003106D01*
X020913Y003104D01*
X020914Y003102D01*
X020915Y003099D01*
X020915Y003097D01*
X020916Y003095D01*
X020916Y003093D01*
X020917Y003091D01*
X020917Y003090D01*
X020917Y003089D01*
X020917Y003089D01*
Y003088D01*
X020917Y003088D01*
Y003088D01*
Y003088D01*
X020893Y003086D01*
X020893Y003087D01*
X020892Y003089D01*
X020892Y003091D01*
X020892Y003092D01*
X020891Y003094D01*
X020891Y003095D01*
X020890Y003096D01*
X020890Y003097D01*
X020889Y003098D01*
X020889Y003099D01*
X020889Y003099D01*
X020888Y003100D01*
X020888Y003100D01*
X020888Y003101D01*
X020888Y003101D01*
X020888Y003101D01*
X020887Y003102D01*
X020886Y003102D01*
X020885Y003103D01*
X020884Y003104D01*
X020882Y003104D01*
X020880Y003105D01*
X020878Y003105D01*
X020877Y003105D01*
X020877D01*
X020876Y003106D01*
X020875D01*
X020874Y003105D01*
X020872Y003105D01*
X020870Y003105D01*
X020868Y003104D01*
X020866Y003103D01*
X020866Y003103D01*
X020865Y003102D01*
X020864Y003102D01*
X020864Y003102D01*
X020864Y003101D01*
X020863Y003101D01*
X020863Y003101D01*
X020863Y003101D01*
X020862Y003100D01*
X020862Y003099D01*
X020860Y003097D01*
X020860Y003095D01*
X020859Y003093D01*
X020859Y003091D01*
X020859Y003091D01*
Y003090D01*
X020859Y003089D01*
Y003089D01*
Y003089D01*
Y003088D01*
X020859Y003087D01*
X020859Y003086D01*
X020859Y003083D01*
X020860Y003080D01*
X020861Y003078D01*
X020862Y003077D01*
X020862Y003076D01*
X020862Y003075D01*
X020863Y003075D01*
X020863Y003074D01*
X020864Y003074D01*
X020864Y003074D01*
X020864Y003073D01*
X020865Y003072D01*
X020866Y003071D01*
X020867Y003069D01*
X020869Y003068D01*
X020870Y003066D01*
X020872Y003064D01*
X020875Y003061D01*
X020877Y003059D01*
X020879Y003058D01*
X020880Y003056D01*
X020881Y003055D01*
X020882Y003054D01*
X020883Y003053D01*
X020884Y003053D01*
X020884Y003053D01*
X020884Y003053D01*
X020888Y003049D01*
X020891Y003046D01*
X020894Y003043D01*
X020897Y003040D01*
X020900Y003037D01*
X020902Y003034D01*
X020904Y003032D01*
X020906Y003030D01*
X020907Y003028D01*
X020908Y003026D01*
X020909Y003025D01*
X020910Y003024D01*
X020911Y003023D01*
X020911Y003022D01*
X020912Y003022D01*
X020912Y003022D01*
X020913Y003020D01*
X020914Y003017D01*
X020915Y003015D01*
X020916Y003013D01*
X020917Y003011D01*
X020917Y003009D01*
X020918Y003007D01*
X020918Y003005D01*
X020919Y003004D01*
X020919Y003002D01*
X020919Y003001D01*
X020920Y003000D01*
X020920Y002999D01*
X020920Y002998D01*
X020920Y002998D01*
Y002997D01*
X020834D01*
Y003020D01*
X020883D01*
X020882Y003021D01*
X020881Y003023D01*
X020880Y003024D01*
X020880Y003025D01*
X020879Y003026D01*
X020878Y003026D01*
X020878Y003027D01*
X020878Y003027D01*
X020877Y003028D01*
X020876Y003029D01*
X020875Y003030D01*
X020874Y003031D01*
X020872Y003033D01*
X020869Y003035D01*
X020868Y003036D01*
X020867Y003038D01*
X020866Y003038D01*
X020865Y003039D01*
X020864Y003040D01*
X020864Y003041D01*
X020863Y003041D01*
X020863Y003041D01*
X020861Y003043D01*
X020859Y003045D01*
X020857Y003047D01*
X020856Y003048D01*
X020854Y003050D01*
X020853Y003051D01*
X020852Y003052D01*
X020851Y003053D01*
X020850Y003054D01*
X020849Y003055D01*
X020848Y003056D01*
X020848Y003056D01*
X020847Y003057D01*
X020847Y003057D01*
X020847Y003057D01*
X020847Y003057D01*
X020845Y003061D01*
X020843Y003064D01*
X020841Y003066D01*
X020840Y003068D01*
X020840Y003069D01*
X020839Y003070D01*
X020839Y003071D01*
X020838Y003072D01*
X020838Y003072D01*
X020838Y003073D01*
X020837Y003073D01*
X020837Y003074D01*
Y003074D01*
X020836Y003077D01*
X020835Y003080D01*
X020835Y003082D01*
X020834Y003085D01*
X020834Y003086D01*
X020834Y003087D01*
X020834Y003088D01*
X020834Y003089D01*
Y003089D01*
Y003090D01*
Y003090D01*
Y003090D01*
X020834Y003093D01*
X020834Y003096D01*
X020835Y003098D01*
X020836Y003101D01*
X020837Y003103D01*
X020837Y003105D01*
X020838Y003107D01*
X020839Y003109D01*
X020840Y003110D01*
X020842Y003112D01*
X020842Y003113D01*
X020843Y003114D01*
X020844Y003115D01*
X020844Y003115D01*
X020845Y003115D01*
X020845Y003116D01*
X020847Y003117D01*
X020849Y003119D01*
X020852Y003120D01*
X020854Y003121D01*
X020857Y003123D01*
X020859Y003123D01*
X020862Y003124D01*
X020864Y003125D01*
X020866Y003125D01*
X020868Y003125D01*
X020870Y003126D01*
X020872Y003126D01*
X020873Y003126D01*
X020874Y003126D01*
X020875D01*
X020878Y003126D01*
D02*
G37*
G36*
X020381D02*
X020384Y003125D01*
X020387Y003125D01*
X020390Y003124D01*
X020392Y003124D01*
X020395Y003123D01*
X020397Y003122D01*
X020399Y003121D01*
X020400Y003121D01*
X020402Y003120D01*
X020403Y003119D01*
X020405Y003118D01*
X020405Y003118D01*
X020406Y003117D01*
X020407Y003117D01*
X020407Y003117D01*
X020409Y003115D01*
X020411Y003113D01*
X020412Y003111D01*
X020414Y003109D01*
X020415Y003106D01*
X020416Y003104D01*
X020417Y003102D01*
X020418Y003099D01*
X020418Y003097D01*
X020419Y003095D01*
X020419Y003093D01*
X020420Y003091D01*
X020420Y003090D01*
X020420Y003089D01*
X020420Y003089D01*
Y003088D01*
X020420Y003088D01*
Y003088D01*
Y003088D01*
X020396Y003086D01*
X020396Y003087D01*
X020395Y003089D01*
X020395Y003091D01*
X020395Y003092D01*
X020394Y003094D01*
X020394Y003095D01*
X020393Y003096D01*
X020393Y003097D01*
X020393Y003098D01*
X020392Y003099D01*
X020392Y003099D01*
X020391Y003100D01*
X020391Y003100D01*
X020391Y003101D01*
X020391Y003101D01*
X020391Y003101D01*
X020390Y003102D01*
X020389Y003102D01*
X020388Y003103D01*
X020387Y003104D01*
X020385Y003104D01*
X020383Y003105D01*
X020381Y003105D01*
X020380Y003105D01*
X020380D01*
X020379Y003106D01*
X020378D01*
X020377Y003105D01*
X020376Y003105D01*
X020373Y003105D01*
X020371Y003104D01*
X020369Y003103D01*
X020369Y003103D01*
X020368Y003102D01*
X020367Y003102D01*
X020367Y003102D01*
X020367Y003101D01*
X020366Y003101D01*
X020366Y003101D01*
X020366Y003101D01*
X020365Y003100D01*
X020365Y003099D01*
X020364Y003097D01*
X020363Y003095D01*
X020362Y003093D01*
X020362Y003091D01*
X020362Y003091D01*
Y003090D01*
X020362Y003089D01*
Y003089D01*
Y003089D01*
Y003088D01*
X020362Y003087D01*
X020362Y003086D01*
X020363Y003083D01*
X020363Y003080D01*
X020364Y003078D01*
X020365Y003077D01*
X020365Y003076D01*
X020366Y003075D01*
X020366Y003075D01*
X020366Y003074D01*
X020367Y003074D01*
X020367Y003074D01*
X020367Y003073D01*
X020368Y003072D01*
X020369Y003071D01*
X020370Y003069D01*
X020372Y003068D01*
X020373Y003066D01*
X020375Y003064D01*
X020378Y003061D01*
X020380Y003059D01*
X020382Y003058D01*
X020383Y003056D01*
X020384Y003055D01*
X020386Y003054D01*
X020386Y003053D01*
X020387Y003053D01*
X020387Y003053D01*
X020387Y003053D01*
X020391Y003049D01*
X020394Y003046D01*
X020397Y003043D01*
X020400Y003040D01*
X020403Y003037D01*
X020405Y003034D01*
X020407Y003032D01*
X020409Y003030D01*
X020410Y003028D01*
X020411Y003026D01*
X020413Y003025D01*
X020413Y003024D01*
X020414Y003023D01*
X020414Y003022D01*
X020415Y003022D01*
X020415Y003022D01*
X020416Y003020D01*
X020417Y003017D01*
X020418Y003015D01*
X020419Y003013D01*
X020420Y003011D01*
X020420Y003009D01*
X020421Y003007D01*
X020422Y003005D01*
X020422Y003004D01*
X020422Y003002D01*
X020423Y003001D01*
X020423Y003000D01*
X020423Y002999D01*
X020423Y002998D01*
X020423Y002998D01*
Y002997D01*
X020337D01*
Y003020D01*
X020386D01*
X020385Y003021D01*
X020384Y003023D01*
X020384Y003024D01*
X020383Y003025D01*
X020382Y003026D01*
X020381Y003026D01*
X020381Y003027D01*
X020381Y003027D01*
X020380Y003028D01*
X020379Y003029D01*
X020378Y003030D01*
X020377Y003031D01*
X020375Y003033D01*
X020372Y003035D01*
X020371Y003036D01*
X020370Y003038D01*
X020369Y003038D01*
X020368Y003039D01*
X020367Y003040D01*
X020367Y003041D01*
X020366Y003041D01*
X020366Y003041D01*
X020364Y003043D01*
X020362Y003045D01*
X020360Y003047D01*
X020359Y003048D01*
X020357Y003050D01*
X020356Y003051D01*
X020355Y003052D01*
X020354Y003053D01*
X020353Y003054D01*
X020352Y003055D01*
X020351Y003056D01*
X020351Y003056D01*
X020351Y003057D01*
X020350Y003057D01*
X020350Y003057D01*
X020350Y003057D01*
X020348Y003061D01*
X020346Y003064D01*
X020344Y003066D01*
X020343Y003068D01*
X020343Y003069D01*
X020342Y003070D01*
X020342Y003071D01*
X020341Y003072D01*
X020341Y003072D01*
X020341Y003073D01*
X020340Y003073D01*
X020340Y003074D01*
Y003074D01*
X020339Y003077D01*
X020338Y003080D01*
X020338Y003082D01*
X020338Y003085D01*
X020337Y003086D01*
X020337Y003087D01*
X020337Y003088D01*
X020337Y003089D01*
Y003089D01*
Y003090D01*
Y003090D01*
Y003090D01*
X020337Y003093D01*
X020338Y003096D01*
X020338Y003098D01*
X020339Y003101D01*
X020340Y003103D01*
X020341Y003105D01*
X020342Y003107D01*
X020343Y003109D01*
X020344Y003110D01*
X020345Y003112D01*
X020346Y003113D01*
X020346Y003114D01*
X020347Y003115D01*
X020348Y003115D01*
X020348Y003115D01*
X020348Y003116D01*
X020350Y003117D01*
X020352Y003119D01*
X020355Y003120D01*
X020357Y003121D01*
X020360Y003123D01*
X020362Y003123D01*
X020365Y003124D01*
X020367Y003125D01*
X020369Y003125D01*
X020371Y003125D01*
X020373Y003126D01*
X020375Y003126D01*
X020376Y003126D01*
X020377Y003126D01*
X020378D01*
X020381Y003126D01*
D02*
G37*
G36*
X020182Y003126D02*
X020185Y003125D01*
X020188Y003125D01*
X020191Y003124D01*
X020193Y003124D01*
X020196Y003123D01*
X020198Y003122D01*
X020200Y003121D01*
X020202Y003121D01*
X020203Y003120D01*
X020205Y003119D01*
X020206Y003118D01*
X020207Y003118D01*
X020207Y003117D01*
X020208Y003117D01*
X020208Y003117D01*
X020210Y003115D01*
X020212Y003113D01*
X020213Y003111D01*
X020215Y003109D01*
X020216Y003106D01*
X020217Y003104D01*
X020218Y003102D01*
X020219Y003099D01*
X020220Y003097D01*
X020220Y003095D01*
X020221Y003093D01*
X020221Y003091D01*
X020221Y003090D01*
X020221Y003089D01*
X020221Y003089D01*
Y003088D01*
X020221Y003088D01*
Y003088D01*
Y003088D01*
X020197Y003086D01*
X020197Y003087D01*
X020197Y003089D01*
X020196Y003091D01*
X020196Y003092D01*
X020196Y003094D01*
X020195Y003095D01*
X020195Y003096D01*
X020194Y003097D01*
X020194Y003098D01*
X020193Y003099D01*
X020193Y003099D01*
X020193Y003100D01*
X020192Y003100D01*
X020192Y003101D01*
X020192Y003101D01*
X020192Y003101D01*
X020191Y003102D01*
X020190Y003102D01*
X020189Y003103D01*
X020188Y003104D01*
X020186Y003104D01*
X020184Y003105D01*
X020182Y003105D01*
X020182Y003105D01*
X020181D01*
X020180Y003106D01*
X020180D01*
X020178Y003105D01*
X020177Y003105D01*
X020174Y003105D01*
X020172Y003104D01*
X020171Y003103D01*
X020170Y003103D01*
X020169Y003102D01*
X020169Y003102D01*
X020168Y003102D01*
X020168Y003101D01*
X020168Y003101D01*
X020168Y003101D01*
X020167Y003101D01*
X020167Y003100D01*
X020166Y003099D01*
X020165Y003097D01*
X020164Y003095D01*
X020164Y003093D01*
X020163Y003091D01*
X020163Y003091D01*
Y003090D01*
X020163Y003089D01*
Y003089D01*
Y003089D01*
Y003088D01*
X020163Y003087D01*
X020163Y003086D01*
X020164Y003083D01*
X020165Y003080D01*
X020165Y003078D01*
X020166Y003077D01*
X020166Y003076D01*
X020167Y003075D01*
X020167Y003075D01*
X020168Y003074D01*
X020168Y003074D01*
X020168Y003074D01*
X020168Y003073D01*
X020169Y003072D01*
X020170Y003071D01*
X020171Y003069D01*
X020173Y003068D01*
X020174Y003066D01*
X020176Y003064D01*
X020180Y003061D01*
X020181Y003059D01*
X020183Y003058D01*
X020184Y003056D01*
X020186Y003055D01*
X020187Y003054D01*
X020188Y003053D01*
X020188Y003053D01*
X020188Y003053D01*
X020188Y003053D01*
X020192Y003049D01*
X020196Y003046D01*
X020199Y003043D01*
X020201Y003040D01*
X020204Y003037D01*
X020206Y003034D01*
X020208Y003032D01*
X020210Y003030D01*
X020211Y003028D01*
X020213Y003026D01*
X020214Y003025D01*
X020215Y003024D01*
X020215Y003023D01*
X020216Y003022D01*
X020216Y003022D01*
X020216Y003022D01*
X020217Y003020D01*
X020218Y003017D01*
X020219Y003015D01*
X020220Y003013D01*
X020221Y003011D01*
X020222Y003009D01*
X020222Y003007D01*
X020223Y003005D01*
X020223Y003004D01*
X020224Y003002D01*
X020224Y003001D01*
X020224Y003000D01*
X020224Y002999D01*
X020224Y002998D01*
X020224Y002998D01*
Y002997D01*
X020138Y002997D01*
Y003020D01*
X020187D01*
X020186Y003021D01*
X020186Y003023D01*
X020185Y003024D01*
X020184Y003025D01*
X020183Y003026D01*
X020183Y003026D01*
X020182Y003027D01*
X020182Y003027D01*
X020182Y003028D01*
X020181Y003029D01*
X020180Y003030D01*
X020179Y003031D01*
X020176Y003033D01*
X020174Y003035D01*
X020172Y003036D01*
X020171Y003038D01*
X020170Y003038D01*
X020169Y003039D01*
X020169Y003040D01*
X020168Y003041D01*
X020168Y003041D01*
X020167Y003041D01*
X020165Y003043D01*
X020163Y003045D01*
X020162Y003047D01*
X020160Y003048D01*
X020159Y003050D01*
X020157Y003051D01*
X020156Y003052D01*
X020155Y003053D01*
X020154Y003054D01*
X020153Y003055D01*
X020153Y003056D01*
X020152Y003056D01*
X020152Y003057D01*
X020152Y003057D01*
X020151Y003057D01*
X020151Y003057D01*
X020149Y003061D01*
X020147Y003064D01*
X020145Y003066D01*
X020145Y003068D01*
X020144Y003069D01*
X020143Y003070D01*
X020143Y003071D01*
X020142Y003072D01*
X020142Y003072D01*
X020142Y003073D01*
X020142Y003073D01*
X020142Y003074D01*
Y003074D01*
X020141Y003077D01*
X020140Y003080D01*
X020139Y003082D01*
X020139Y003085D01*
X020139Y003086D01*
X020139Y003087D01*
X020138Y003088D01*
X020138Y003089D01*
Y003089D01*
Y003090D01*
Y003090D01*
Y003090D01*
X020138Y003093D01*
X020139Y003096D01*
X020139Y003098D01*
X020140Y003101D01*
X020141Y003103D01*
X020142Y003105D01*
X020143Y003107D01*
X020144Y003109D01*
X020145Y003110D01*
X020146Y003112D01*
X020147Y003113D01*
X020148Y003114D01*
X020148Y003115D01*
X020149Y003115D01*
X020149Y003115D01*
X020149Y003116D01*
X020151Y003117D01*
X020154Y003119D01*
X020156Y003120D01*
X020159Y003121D01*
X020161Y003123D01*
X020163Y003123D01*
X020166Y003124D01*
X020168Y003125D01*
X020170Y003125D01*
X020172Y003125D01*
X020174Y003126D01*
X020176Y003126D01*
X020177Y003126D01*
X020178Y003126D01*
X020179D01*
X020182Y003126D01*
D02*
G37*
G36*
X020775Y003124D02*
X020777Y003122D01*
X020778Y003120D01*
X020779Y003118D01*
X020780Y003116D01*
X020781Y003114D01*
X020783Y003113D01*
X020784Y003111D01*
X020785Y003110D01*
X020786Y003109D01*
X020787Y003108D01*
X020788Y003107D01*
X020789Y003106D01*
X020790Y003106D01*
X020790Y003105D01*
X020790Y003105D01*
X020792Y003104D01*
X020794Y003102D01*
X020796Y003101D01*
X020798Y003100D01*
X020800Y003099D01*
X020802Y003098D01*
X020803Y003097D01*
X020805Y003096D01*
X020806Y003095D01*
X020807Y003095D01*
X020808Y003094D01*
X020809Y003094D01*
X020810Y003094D01*
X020810Y003094D01*
X020811Y003093D01*
X020811D01*
Y003071D01*
X020808Y003072D01*
X020804Y003074D01*
X020801Y003075D01*
X020798Y003077D01*
X020795Y003078D01*
X020793Y003080D01*
X020790Y003081D01*
X020788Y003083D01*
X020786Y003084D01*
X020784Y003086D01*
X020783Y003087D01*
X020782Y003088D01*
X020781Y003089D01*
X020780Y003089D01*
X020779Y003090D01*
X020779Y003090D01*
Y002997D01*
X020755D01*
Y003126D01*
X020775D01*
X020775Y003124D01*
D02*
G37*
G36*
X020713Y002997D02*
X020688D01*
Y003022D01*
X020713D01*
Y002997D01*
D02*
G37*
G36*
X020569Y003101D02*
X020513D01*
X020516Y003097D01*
X020519Y003093D01*
X020522Y003088D01*
X020525Y003084D01*
X020527Y003080D01*
X020530Y003076D01*
X020532Y003072D01*
X020534Y003068D01*
X020535Y003065D01*
X020537Y003061D01*
X020537Y003060D01*
X020538Y003059D01*
X020539Y003057D01*
X020539Y003056D01*
X020539Y003055D01*
X020540Y003054D01*
X020540Y003053D01*
X020540Y003053D01*
X020541Y003052D01*
X020541Y003052D01*
X020541Y003052D01*
Y003052D01*
X020543Y003046D01*
X020544Y003041D01*
X020546Y003036D01*
X020547Y003031D01*
X020548Y003027D01*
X020549Y003022D01*
X020550Y003018D01*
X020550Y003014D01*
X020551Y003011D01*
X020551Y003009D01*
X020551Y003007D01*
X020551Y003006D01*
X020551Y003004D01*
X020551Y003003D01*
X020552Y003002D01*
X020552Y003001D01*
X020552Y003000D01*
Y002999D01*
Y002999D01*
X020552Y002998D01*
Y002998D01*
Y002998D01*
Y002997D01*
X020528D01*
X020528Y003001D01*
X020528Y003004D01*
X020528Y003007D01*
X020527Y003011D01*
X020527Y003014D01*
X020527Y003017D01*
X020526Y003020D01*
X020525Y003023D01*
X020525Y003026D01*
X020524Y003028D01*
X020524Y003030D01*
X020524Y003032D01*
X020523Y003033D01*
X020523Y003034D01*
X020523Y003034D01*
X020523Y003035D01*
X020523Y003035D01*
Y003036D01*
X020523Y003036D01*
Y003036D01*
X020522Y003040D01*
X020520Y003044D01*
X020519Y003048D01*
X020518Y003051D01*
X020516Y003055D01*
X020515Y003058D01*
X020514Y003061D01*
X020512Y003064D01*
X020511Y003067D01*
X020510Y003069D01*
X020509Y003071D01*
X020508Y003073D01*
X020508Y003074D01*
X020507Y003075D01*
X020507Y003075D01*
X020507Y003076D01*
X020507Y003076D01*
X020506Y003076D01*
X020506Y003076D01*
Y003076D01*
X020504Y003080D01*
X020502Y003083D01*
X020500Y003086D01*
X020498Y003089D01*
X020497Y003092D01*
X020495Y003094D01*
X020493Y003096D01*
X020492Y003098D01*
X020490Y003100D01*
X020489Y003102D01*
X020488Y003103D01*
X020487Y003104D01*
X020486Y003105D01*
X020486Y003105D01*
X020485Y003106D01*
X020485Y003106D01*
Y003124D01*
X020569D01*
Y003101D01*
D02*
G37*
G36*
X020464Y002997D02*
X020440D01*
Y003022D01*
X020464D01*
Y002997D01*
D02*
G37*
G36*
X020630Y003126D02*
X020634Y003125D01*
X020637Y003125D01*
X020639Y003124D01*
X020642Y003123D01*
X020644Y003122D01*
X020647Y003120D01*
X020648Y003119D01*
X020650Y003118D01*
X020652Y003117D01*
X020653Y003116D01*
X020654Y003115D01*
X020655Y003114D01*
X020656Y003113D01*
X020656Y003113D01*
X020656Y003113D01*
X020657Y003111D01*
X020658Y003109D01*
X020659Y003108D01*
X020660Y003106D01*
X020662Y003102D01*
X020663Y003098D01*
X020664Y003094D01*
X020665Y003089D01*
X020666Y003085D01*
X020667Y003081D01*
X020668Y003077D01*
X020668Y003073D01*
X020668Y003071D01*
X020668Y003070D01*
X020668Y003068D01*
X020668Y003067D01*
X020668Y003065D01*
Y003064D01*
Y003063D01*
X020669Y003062D01*
Y003062D01*
Y003061D01*
Y003061D01*
Y003061D01*
Y003057D01*
X020668Y003054D01*
X020668Y003051D01*
X020668Y003048D01*
X020668Y003045D01*
X020668Y003042D01*
X020667Y003040D01*
X020667Y003037D01*
X020666Y003035D01*
X020666Y003032D01*
X020665Y003030D01*
X020665Y003028D01*
X020664Y003026D01*
X020664Y003025D01*
X020663Y003023D01*
X020663Y003021D01*
X020662Y003020D01*
X020662Y003018D01*
X020661Y003017D01*
X020661Y003016D01*
X020660Y003015D01*
X020660Y003014D01*
X020659Y003013D01*
X020659Y003012D01*
X020659Y003012D01*
X020658Y003011D01*
X020658Y003011D01*
X020658Y003010D01*
X020657Y003010D01*
X020657Y003010D01*
X020655Y003007D01*
X020653Y003005D01*
X020650Y003003D01*
X020648Y003001D01*
X020645Y003000D01*
X020643Y002999D01*
X020640Y002998D01*
X020638Y002997D01*
X020636Y002996D01*
X020633Y002996D01*
X020632Y002996D01*
X020630Y002995D01*
X020629Y002995D01*
X020628Y002995D01*
X020627D01*
X020624Y002995D01*
X020620Y002996D01*
X020617Y002996D01*
X020615Y002997D01*
X020612Y002998D01*
X020610Y002999D01*
X020607Y003000D01*
X020606Y003002D01*
X020604Y003003D01*
X020602Y003004D01*
X020601Y003005D01*
X020600Y003006D01*
X020599Y003007D01*
X020598Y003008D01*
X020598Y003008D01*
X020598Y003008D01*
X020597Y003010D01*
X020596Y003011D01*
X020595Y003013D01*
X020594Y003015D01*
X020592Y003019D01*
X020591Y003023D01*
X020589Y003027D01*
X020588Y003032D01*
X020588Y003036D01*
X020587Y003040D01*
X020586Y003044D01*
X020586Y003048D01*
X020586Y003050D01*
X020586Y003052D01*
X020586Y003053D01*
X020586Y003055D01*
X020585Y003056D01*
Y003057D01*
X020585Y003058D01*
Y003059D01*
Y003060D01*
Y003060D01*
Y003060D01*
Y003060D01*
Y003064D01*
X020585Y003067D01*
X020586Y003070D01*
X020586Y003073D01*
X020586Y003076D01*
X020587Y003079D01*
X020587Y003081D01*
X020587Y003084D01*
X020588Y003086D01*
X020588Y003089D01*
X020589Y003091D01*
X020589Y003093D01*
X020590Y003095D01*
X020590Y003097D01*
X020591Y003098D01*
X020592Y003100D01*
X020592Y003102D01*
X020593Y003103D01*
X020593Y003104D01*
X020594Y003106D01*
X020595Y003107D01*
X020595Y003108D01*
X020596Y003109D01*
X020596Y003109D01*
X020596Y003110D01*
X020597Y003111D01*
X020597Y003111D01*
X020597Y003112D01*
X020598Y003112D01*
X020598Y003112D01*
X020598Y003113D01*
X020600Y003115D01*
X020602Y003117D01*
X020605Y003119D01*
X020607Y003120D01*
X020609Y003121D01*
X020612Y003123D01*
X020614Y003123D01*
X020616Y003124D01*
X020619Y003125D01*
X020621Y003125D01*
X020622Y003125D01*
X020624Y003126D01*
X020625Y003126D01*
X020626Y003126D01*
X020627D01*
X020630Y003126D01*
D02*
G37*
G36*
X020283D02*
X020286Y003125D01*
X020289Y003125D01*
X020292Y003124D01*
X020294Y003123D01*
X020297Y003122D01*
X020299Y003120D01*
X020301Y003119D01*
X020302Y003118D01*
X020304Y003117D01*
X020305Y003116D01*
X020306Y003115D01*
X020307Y003114D01*
X020308Y003113D01*
X020308Y003113D01*
X020308Y003113D01*
X020309Y003111D01*
X020310Y003109D01*
X020311Y003108D01*
X020312Y003106D01*
X020314Y003102D01*
X020315Y003098D01*
X020317Y003094D01*
X020318Y003089D01*
X020318Y003085D01*
X020319Y003081D01*
X020320Y003077D01*
X020320Y003073D01*
X020320Y003071D01*
X020320Y003070D01*
X020320Y003068D01*
X020321Y003067D01*
X020321Y003065D01*
Y003064D01*
Y003063D01*
X020321Y003062D01*
Y003062D01*
Y003061D01*
Y003061D01*
Y003061D01*
Y003057D01*
X020321Y003054D01*
X020320Y003051D01*
X020320Y003048D01*
X020320Y003045D01*
X020320Y003042D01*
X020319Y003040D01*
X020319Y003037D01*
X020318Y003035D01*
X020318Y003032D01*
X020318Y003030D01*
X020317Y003028D01*
X020317Y003026D01*
X020316Y003025D01*
X020316Y003023D01*
X020315Y003021D01*
X020315Y003020D01*
X020314Y003018D01*
X020313Y003017D01*
X020313Y003016D01*
X020312Y003015D01*
X020312Y003014D01*
X020312Y003013D01*
X020311Y003012D01*
X020311Y003012D01*
X020310Y003011D01*
X020310Y003011D01*
X020310Y003010D01*
X020309Y003010D01*
X020309Y003010D01*
X020307Y003007D01*
X020305Y003005D01*
X020302Y003003D01*
X020300Y003001D01*
X020297Y003000D01*
X020295Y002999D01*
X020292Y002998D01*
X020290Y002997D01*
X020288Y002996D01*
X020286Y002996D01*
X020284Y002996D01*
X020282Y002995D01*
X020281Y002995D01*
X020280Y002995D01*
X020279D01*
X020276Y002995D01*
X020273Y002996D01*
X020270Y002996D01*
X020267Y002997D01*
X020264Y002998D01*
X020262Y002999D01*
X020260Y003000D01*
X020258Y003002D01*
X020256Y003003D01*
X020254Y003004D01*
X020253Y003005D01*
X020252Y003006D01*
X020251Y003007D01*
X020251Y003008D01*
X020250Y003008D01*
X020250Y003008D01*
X020249Y003010D01*
X020248Y003011D01*
X020247Y003013D01*
X020246Y003015D01*
X020244Y003019D01*
X020243Y003023D01*
X020242Y003027D01*
X020241Y003032D01*
X020240Y003036D01*
X020239Y003040D01*
X020239Y003044D01*
X020238Y003048D01*
X020238Y003050D01*
X020238Y003052D01*
X020238Y003053D01*
X020238Y003055D01*
X020238Y003056D01*
Y003057D01*
X020238Y003058D01*
Y003059D01*
Y003060D01*
Y003060D01*
Y003060D01*
Y003060D01*
Y003064D01*
X020238Y003067D01*
X020238Y003070D01*
X020238Y003073D01*
X020238Y003076D01*
X020239Y003079D01*
X020239Y003081D01*
X020240Y003084D01*
X020240Y003086D01*
X020241Y003089D01*
X020241Y003091D01*
X020242Y003093D01*
X020242Y003095D01*
X020243Y003097D01*
X020243Y003098D01*
X020244Y003100D01*
X020244Y003102D01*
X020245Y003103D01*
X020246Y003104D01*
X020246Y003106D01*
X020247Y003107D01*
X020247Y003108D01*
X020248Y003109D01*
X020248Y003109D01*
X020249Y003110D01*
X020249Y003111D01*
X020249Y003111D01*
X020250Y003112D01*
X020250Y003112D01*
X020250Y003112D01*
X020250Y003113D01*
X020252Y003115D01*
X020254Y003117D01*
X020257Y003119D01*
X020259Y003120D01*
X020262Y003121D01*
X020264Y003123D01*
X020266Y003123D01*
X020269Y003124D01*
X020271Y003125D01*
X020273Y003125D01*
X020275Y003125D01*
X020276Y003126D01*
X020277Y003126D01*
X020278Y003126D01*
X020279D01*
X020283Y003126D01*
D02*
G37*
G36*
X020084Y003126D02*
X020087Y003125D01*
X020090Y003125D01*
X020093Y003124D01*
X020095Y003123D01*
X020098Y003122D01*
X020100Y003120D01*
X020102Y003119D01*
X020104Y003118D01*
X020105Y003117D01*
X020106Y003116D01*
X020107Y003115D01*
X020108Y003114D01*
X020109Y003113D01*
X020109Y003113D01*
X020109Y003113D01*
X020111Y003111D01*
X020112Y003109D01*
X020113Y003108D01*
X020114Y003106D01*
X020115Y003102D01*
X020117Y003098D01*
X020118Y003094D01*
X020119Y003089D01*
X020120Y003085D01*
X020120Y003081D01*
X020121Y003077D01*
X020121Y003073D01*
X020121Y003071D01*
X020122Y003070D01*
X020122Y003068D01*
X020122Y003067D01*
X020122Y003065D01*
Y003064D01*
Y003063D01*
X020122Y003062D01*
Y003062D01*
Y003061D01*
Y003061D01*
Y003061D01*
Y003057D01*
X020122Y003054D01*
X020122Y003051D01*
X020121Y003048D01*
X020121Y003045D01*
X020121Y003042D01*
X020121Y003040D01*
X020120Y003037D01*
X020120Y003035D01*
X020119Y003032D01*
X020119Y003030D01*
X020118Y003028D01*
X020118Y003026D01*
X020117Y003025D01*
X020117Y003023D01*
X020116Y003021D01*
X020116Y003020D01*
X020115Y003018D01*
X020115Y003017D01*
X020114Y003016D01*
X020114Y003015D01*
X020113Y003014D01*
X020113Y003013D01*
X020112Y003012D01*
X020112Y003012D01*
X020112Y003011D01*
X020111Y003011D01*
X020111Y003010D01*
X020111Y003010D01*
X020111Y003010D01*
X020108Y003007D01*
X020106Y003005D01*
X020104Y003003D01*
X020101Y003001D01*
X020098Y003000D01*
X020096Y002999D01*
X020094Y002998D01*
X020091Y002997D01*
X020089Y002996D01*
X020087Y002996D01*
X020085Y002996D01*
X020083Y002995D01*
X020082Y002995D01*
X020081Y002995D01*
X020080D01*
X020077Y002995D01*
X020074Y002996D01*
X020071Y002996D01*
X020068Y002997D01*
X020065Y002998D01*
X020063Y002999D01*
X020061Y003000D01*
X020059Y003002D01*
X020057Y003003D01*
X020056Y003004D01*
X020054Y003005D01*
X020053Y003006D01*
X020052Y003007D01*
X020052Y003008D01*
X020051Y003008D01*
X020051Y003008D01*
X020050Y003010D01*
X020049Y003011D01*
X020048Y003013D01*
X020047Y003015D01*
X020046Y003019D01*
X020044Y003023D01*
X020043Y003027D01*
X020042Y003032D01*
X020041Y003036D01*
X020040Y003040D01*
X020040Y003044D01*
X020039Y003048D01*
X020039Y003050D01*
X020039Y003052D01*
X020039Y003053D01*
X020039Y003055D01*
X020039Y003056D01*
Y003057D01*
X020039Y003058D01*
Y003059D01*
Y003060D01*
Y003060D01*
Y003060D01*
Y003060D01*
Y003064D01*
X020039Y003067D01*
X020039Y003070D01*
X020039Y003073D01*
X020040Y003076D01*
X020040Y003079D01*
X020040Y003081D01*
X020041Y003084D01*
X020041Y003086D01*
X020042Y003089D01*
X020042Y003091D01*
X020043Y003093D01*
X020043Y003095D01*
X020044Y003097D01*
X020045Y003098D01*
X020045Y003100D01*
X020046Y003102D01*
X020046Y003103D01*
X020047Y003104D01*
X020047Y003106D01*
X020048Y003107D01*
X020048Y003108D01*
X020049Y003109D01*
X020049Y003109D01*
X020050Y003110D01*
X020050Y003111D01*
X020051Y003111D01*
X020051Y003112D01*
X020051Y003112D01*
X020051Y003112D01*
X020051Y003113D01*
X020053Y003115D01*
X020056Y003117D01*
X020058Y003119D01*
X020060Y003120D01*
X020063Y003121D01*
X020065Y003123D01*
X020068Y003123D01*
X020070Y003124D01*
X020072Y003125D01*
X020074Y003125D01*
X020076Y003125D01*
X020077Y003126D01*
X020079Y003126D01*
X020080Y003126D01*
X020080D01*
X020084Y003126D01*
D02*
G37*
%LPC*%
G36*
X019306Y003263D02*
X019287D01*
X019292Y003238D01*
X019312D01*
X019306Y003263D01*
D02*
G37*
G36*
X019449Y003263D02*
X019448D01*
X019447Y003263D01*
X019445Y003262D01*
X019444Y003262D01*
X019443Y003262D01*
X019441Y003261D01*
X019439Y003260D01*
X019438Y003259D01*
X019437Y003259D01*
X019437Y003258D01*
X019436Y003258D01*
X019436Y003258D01*
X019436Y003257D01*
X019435Y003257D01*
X019435Y003257D01*
X019434Y003256D01*
X019434Y003255D01*
X019433Y003254D01*
X019432Y003252D01*
X019431Y003250D01*
X019431Y003247D01*
X019430Y003246D01*
X019430Y003245D01*
X019430Y003244D01*
X019430Y003243D01*
Y003242D01*
X019430Y003241D01*
Y003241D01*
Y003241D01*
X019467D01*
Y003243D01*
X019466Y003245D01*
X019466Y003246D01*
X019466Y003248D01*
X019465Y003249D01*
X019465Y003250D01*
X019465Y003252D01*
X019464Y003253D01*
X019464Y003254D01*
X019463Y003254D01*
X019463Y003255D01*
X019462Y003256D01*
X019462Y003256D01*
X019462Y003257D01*
X019462Y003257D01*
X019461Y003257D01*
X019460Y003258D01*
X019459Y003259D01*
X019458Y003260D01*
X019457Y003260D01*
X019456Y003261D01*
X019455Y003261D01*
X019453Y003262D01*
X019452Y003262D01*
X019451Y003262D01*
X019450Y003263D01*
X019449Y003263D01*
X019449Y003263D01*
D02*
G37*
G36*
X020726Y003285D02*
X020708Y003237D01*
X020743D01*
X020726Y003285D01*
D02*
G37*
G36*
X020343Y003293D02*
X020326D01*
X020323Y003293D01*
X020322Y003293D01*
X020320D01*
X020318Y003293D01*
X020317Y003293D01*
X020316Y003293D01*
X020315Y003293D01*
X020314Y003292D01*
X020313Y003292D01*
X020313D01*
X020312Y003292D01*
X020312Y003292D01*
X020312D01*
X020310Y003292D01*
X020307Y003291D01*
X020306Y003290D01*
X020304Y003289D01*
X020303Y003288D01*
X020302Y003287D01*
X020302Y003287D01*
X020301Y003287D01*
Y003286D01*
X020301Y003286D01*
X020300Y003285D01*
X020299Y003283D01*
X020298Y003281D01*
X020298Y003279D01*
X020297Y003277D01*
X020297Y003277D01*
Y003276D01*
X020297Y003276D01*
Y003275D01*
Y003275D01*
Y003275D01*
X020297Y003273D01*
X020298Y003271D01*
X020298Y003269D01*
X020299Y003268D01*
X020299Y003267D01*
X020300Y003266D01*
X020300Y003265D01*
X020300Y003265D01*
X020300Y003265D01*
Y003265D01*
X020301Y003263D01*
X020303Y003262D01*
X020304Y003261D01*
X020305Y003260D01*
X020307Y003259D01*
X020307Y003259D01*
X020308Y003259D01*
X020308Y003259D01*
X020308Y003259D01*
X020308D01*
X020309Y003258D01*
X020311Y003258D01*
X020312Y003258D01*
X020314Y003257D01*
X020317Y003257D01*
X020320Y003257D01*
X020322Y003257D01*
X020324Y003257D01*
X020325D01*
X020326Y003257D01*
X020343D01*
Y003293D01*
D02*
G37*
G36*
X020199Y003285D02*
X020182Y003237D01*
X020217Y003237D01*
X020199Y003285D01*
D02*
G37*
G36*
X019821Y003262D02*
X019820D01*
X019818Y003261D01*
X019817Y003261D01*
X019815Y003261D01*
X019813Y003260D01*
X019812Y003260D01*
X019811Y003259D01*
X019810Y003258D01*
X019808Y003258D01*
X019807Y003257D01*
X019807Y003256D01*
X019806Y003256D01*
X019805Y003255D01*
X019805Y003255D01*
X019804Y003254D01*
X019804Y003254D01*
X019804Y003254D01*
X019803Y003253D01*
X019802Y003251D01*
X019801Y003250D01*
X019800Y003248D01*
X019800Y003246D01*
X019799Y003244D01*
X019799Y003243D01*
X019798Y003241D01*
X019798Y003239D01*
X019798Y003238D01*
X019798Y003237D01*
X019797Y003235D01*
X019797Y003234D01*
Y003234D01*
Y003233D01*
Y003233D01*
X019797Y003231D01*
X019798Y003228D01*
X019798Y003226D01*
X019798Y003224D01*
X019799Y003222D01*
X019799Y003220D01*
X019800Y003219D01*
X019801Y003217D01*
X019801Y003216D01*
X019802Y003215D01*
X019802Y003214D01*
X019803Y003213D01*
X019803Y003213D01*
X019804Y003212D01*
X019804Y003212D01*
X019804Y003212D01*
X019805Y003211D01*
X019807Y003209D01*
X019808Y003208D01*
X019809Y003208D01*
X019811Y003207D01*
X019812Y003206D01*
X019813Y003206D01*
X019814Y003206D01*
X019816Y003205D01*
X019817Y003205D01*
X019818Y003205D01*
X019818Y003205D01*
X019819D01*
X019820Y003205D01*
X019820D01*
X019822Y003205D01*
X019823Y003205D01*
X019825Y003205D01*
X019827Y003206D01*
X019828Y003206D01*
X019829Y003207D01*
X019831Y003208D01*
X019832Y003208D01*
X019833Y003209D01*
X019834Y003210D01*
X019834Y003210D01*
X019835Y003211D01*
X019836Y003211D01*
X019836Y003212D01*
X019836Y003212D01*
X019836Y003212D01*
X019837Y003213D01*
X019838Y003215D01*
X019839Y003217D01*
X019840Y003218D01*
X019841Y003220D01*
X019841Y003222D01*
X019842Y003224D01*
X019842Y003225D01*
X019842Y003227D01*
X019842Y003228D01*
X019843Y003230D01*
X019843Y003231D01*
X019843Y003232D01*
Y003232D01*
Y003233D01*
Y003233D01*
X019843Y003236D01*
X019842Y003238D01*
X019842Y003240D01*
X019842Y003242D01*
X019841Y003244D01*
X019841Y003246D01*
X019840Y003247D01*
X019839Y003249D01*
X019839Y003250D01*
X019838Y003251D01*
X019838Y003252D01*
X019837Y003253D01*
X019837Y003253D01*
X019837Y003254D01*
X019836Y003254D01*
X019836Y003254D01*
X019835Y003255D01*
X019834Y003257D01*
X019832Y003258D01*
X019831Y003258D01*
X019830Y003259D01*
X019828Y003260D01*
X019827Y003260D01*
X019826Y003261D01*
X019824Y003261D01*
X019823Y003261D01*
X019822Y003261D01*
X019822Y003261D01*
X019821Y003262D01*
D02*
G37*
G36*
X019714Y003263D02*
X019713D01*
X019711Y003263D01*
X019710Y003262D01*
X019708Y003262D01*
X019707Y003262D01*
X019705Y003261D01*
X019704Y003261D01*
X019703Y003260D01*
X019702Y003259D01*
X019701Y003259D01*
X019701Y003258D01*
X019700Y003257D01*
X019699Y003257D01*
X019699Y003256D01*
X019698Y003256D01*
X019698Y003256D01*
X019698Y003256D01*
X019697Y003254D01*
X019696Y003253D01*
X019696Y003251D01*
X019695Y003249D01*
X019694Y003247D01*
X019694Y003245D01*
X019693Y003242D01*
X019693Y003240D01*
X019693Y003238D01*
X019693Y003237D01*
X019692Y003235D01*
X019692Y003234D01*
Y003233D01*
Y003233D01*
Y003233D01*
Y003233D01*
X019692Y003230D01*
X019693Y003228D01*
X019693Y003225D01*
X019693Y003223D01*
X019694Y003221D01*
X019694Y003220D01*
X019695Y003218D01*
X019695Y003217D01*
X019696Y003215D01*
X019696Y003214D01*
X019697Y003213D01*
X019697Y003213D01*
X019698Y003212D01*
X019698Y003212D01*
X019698Y003211D01*
X019698Y003211D01*
X019699Y003210D01*
X019701Y003209D01*
X019702Y003208D01*
X019703Y003207D01*
X019704Y003206D01*
X019705Y003206D01*
X019707Y003205D01*
X019708Y003205D01*
X019709Y003205D01*
X019710Y003204D01*
X019711Y003204D01*
X019711Y003204D01*
X019712D01*
X019712Y003204D01*
X019713D01*
X019715Y003204D01*
X019716Y003204D01*
X019718Y003205D01*
X019720Y003206D01*
X019721Y003206D01*
X019723Y003207D01*
X019724Y003208D01*
X019725Y003209D01*
X019726Y003210D01*
X019727Y003211D01*
X019728Y003211D01*
X019728Y003212D01*
X019729Y003213D01*
X019729Y003213D01*
X019729Y003213D01*
X019729Y003214D01*
X019730Y003215D01*
X019731Y003216D01*
X019731Y003218D01*
X019732Y003220D01*
X019732Y003223D01*
X019733Y003227D01*
X019733Y003228D01*
X019733Y003230D01*
X019733Y003231D01*
Y003233D01*
X019733Y003234D01*
Y003234D01*
Y003235D01*
Y003235D01*
X019733Y003238D01*
X019733Y003240D01*
X019733Y003242D01*
X019732Y003244D01*
X019732Y003246D01*
X019731Y003248D01*
X019731Y003249D01*
X019730Y003251D01*
X019730Y003252D01*
X019729Y003253D01*
X019729Y003254D01*
X019728Y003254D01*
X019728Y003255D01*
X019728Y003255D01*
X019728Y003256D01*
X019728Y003256D01*
X019726Y003257D01*
X019725Y003258D01*
X019724Y003259D01*
X019723Y003260D01*
X019721Y003260D01*
X019720Y003261D01*
X019719Y003262D01*
X019718Y003262D01*
X019717Y003262D01*
X019716Y003262D01*
X019715Y003263D01*
X019714Y003263D01*
X019714Y003263D01*
D02*
G37*
G36*
X020859Y003295D02*
X020858D01*
X020855Y003295D01*
X020852Y003294D01*
X020850Y003294D01*
X020847Y003293D01*
X020845Y003292D01*
X020843Y003291D01*
X020841Y003290D01*
X020839Y003289D01*
X020837Y003288D01*
X020836Y003287D01*
X020835Y003286D01*
X020834Y003286D01*
X020833Y003285D01*
X020833Y003284D01*
X020832Y003284D01*
X020832Y003284D01*
X020830Y003282D01*
X020829Y003279D01*
X020828Y003277D01*
X020827Y003274D01*
X020826Y003272D01*
X020825Y003269D01*
X020824Y003266D01*
X020824Y003263D01*
X020823Y003261D01*
X020823Y003259D01*
X020823Y003257D01*
X020823Y003255D01*
X020823Y003254D01*
Y003253D01*
X020822Y003253D01*
Y003252D01*
Y003252D01*
Y003251D01*
Y003251D01*
Y003251D01*
X020823Y003247D01*
X020823Y003243D01*
X020823Y003240D01*
X020824Y003236D01*
X020825Y003234D01*
X020826Y003231D01*
X020827Y003228D01*
X020827Y003226D01*
X020828Y003224D01*
X020829Y003222D01*
X020830Y003221D01*
X020831Y003220D01*
X020832Y003219D01*
X020832Y003218D01*
X020832Y003218D01*
X020832Y003218D01*
X020834Y003216D01*
X020836Y003214D01*
X020838Y003213D01*
X020841Y003211D01*
X020843Y003210D01*
X020845Y003209D01*
X020847Y003209D01*
X020849Y003208D01*
X020851Y003208D01*
X020852Y003207D01*
X020854Y003207D01*
X020855Y003207D01*
X020856Y003207D01*
X020857Y003207D01*
X020858D01*
X020861Y003207D01*
X020863Y003207D01*
X020866Y003208D01*
X020868Y003208D01*
X020871Y003209D01*
X020873Y003210D01*
X020875Y003211D01*
X020876Y003212D01*
X020878Y003213D01*
X020879Y003214D01*
X020881Y003215D01*
X020882Y003216D01*
X020882Y003217D01*
X020883Y003217D01*
X020883Y003218D01*
X020883Y003218D01*
X020885Y003220D01*
X020887Y003222D01*
X020888Y003225D01*
X020889Y003228D01*
X020890Y003230D01*
X020891Y003233D01*
X020892Y003236D01*
X020892Y003238D01*
X020893Y003241D01*
X020893Y003243D01*
X020893Y003245D01*
X020893Y003247D01*
X020893Y003249D01*
X020893Y003249D01*
Y003250D01*
Y003250D01*
Y003250D01*
Y003251D01*
Y003251D01*
X020893Y003255D01*
X020893Y003258D01*
X020892Y003262D01*
X020892Y003265D01*
X020891Y003268D01*
X020890Y003271D01*
X020889Y003273D01*
X020888Y003276D01*
X020888Y003277D01*
X020887Y003279D01*
X020886Y003281D01*
X020885Y003282D01*
X020885Y003283D01*
X020884Y003283D01*
X020884Y003284D01*
X020884Y003284D01*
X020882Y003286D01*
X020880Y003287D01*
X020878Y003289D01*
X020876Y003290D01*
X020873Y003291D01*
X020871Y003292D01*
X020869Y003293D01*
X020867Y003293D01*
X020865Y003294D01*
X020863Y003294D01*
X020862Y003294D01*
X020861Y003295D01*
X020859Y003295D01*
X020859Y003295D01*
D02*
G37*
G36*
X020628Y003106D02*
X020627D01*
X020625Y003105D01*
X020624Y003105D01*
X020623Y003105D01*
X020621Y003104D01*
X020620Y003104D01*
X020620Y003103D01*
X020619Y003103D01*
X020619Y003103D01*
X020618Y003102D01*
X020618Y003101D01*
X020617Y003100D01*
X020616Y003098D01*
X020615Y003096D01*
X020614Y003094D01*
X020614Y003093D01*
X020614Y003093D01*
X020614Y003092D01*
X020613Y003092D01*
X020613Y003091D01*
Y003091D01*
X020613Y003090D01*
X020613Y003088D01*
X020612Y003085D01*
X020612Y003083D01*
X020612Y003080D01*
X020612Y003078D01*
X020611Y003075D01*
X020611Y003073D01*
X020611Y003070D01*
X020611Y003068D01*
Y003066D01*
X020611Y003064D01*
Y003063D01*
Y003062D01*
Y003061D01*
Y003061D01*
Y003061D01*
Y003061D01*
Y003060D01*
Y003056D01*
X020611Y003053D01*
X020611Y003049D01*
X020611Y003046D01*
X020612Y003043D01*
X020612Y003040D01*
X020612Y003038D01*
X020612Y003036D01*
X020613Y003034D01*
X020613Y003033D01*
X020613Y003031D01*
X020613Y003030D01*
X020613Y003030D01*
X020614Y003029D01*
X020614Y003029D01*
Y003028D01*
X020614Y003027D01*
X020614Y003026D01*
X020615Y003025D01*
X020615Y003024D01*
X020616Y003023D01*
X020616Y003022D01*
X020617Y003021D01*
X020618Y003020D01*
X020618Y003019D01*
X020619Y003018D01*
X020619Y003018D01*
X020620Y003017D01*
X020622Y003017D01*
X020623Y003016D01*
X020624Y003016D01*
X020625Y003016D01*
X020626Y003016D01*
X020627Y003016D01*
X020627D01*
X020629Y003016D01*
X020630Y003016D01*
X020631Y003016D01*
X020633Y003017D01*
X020634Y003017D01*
X020634Y003018D01*
X020635Y003018D01*
X020635Y003018D01*
X020636Y003019D01*
X020636Y003020D01*
X020637Y003021D01*
X020638Y003023D01*
X020639Y003025D01*
X020640Y003027D01*
X020640Y003027D01*
X020640Y003028D01*
X020640Y003029D01*
X020641Y003029D01*
X020641Y003029D01*
Y003030D01*
X020641Y003031D01*
X020641Y003033D01*
X020642Y003036D01*
X020642Y003038D01*
X020642Y003040D01*
X020642Y003043D01*
X020643Y003046D01*
X020643Y003048D01*
X020643Y003051D01*
X020643Y003053D01*
Y003055D01*
X020643Y003057D01*
Y003058D01*
Y003059D01*
Y003059D01*
Y003060D01*
Y003060D01*
Y003060D01*
Y003060D01*
Y003065D01*
X020643Y003068D01*
X020643Y003072D01*
X020643Y003075D01*
X020642Y003078D01*
X020642Y003080D01*
X020642Y003083D01*
X020642Y003085D01*
X020641Y003087D01*
X020641Y003088D01*
X020641Y003090D01*
X020641Y003091D01*
X020641Y003091D01*
X020641Y003092D01*
X020640Y003092D01*
Y003092D01*
X020640Y003094D01*
X020640Y003095D01*
X020639Y003096D01*
X020639Y003097D01*
X020638Y003098D01*
X020638Y003099D01*
X020637Y003100D01*
X020636Y003101D01*
X020636Y003102D01*
X020635Y003103D01*
X020635Y003103D01*
X020634Y003104D01*
X020632Y003104D01*
X020631Y003105D01*
X020630Y003105D01*
X020629Y003105D01*
X020628Y003106D01*
D02*
G37*
G36*
X020280D02*
X020279D01*
X020278Y003105D01*
X020276Y003105D01*
X020275Y003105D01*
X020274Y003104D01*
X020273Y003104D01*
X020272Y003103D01*
X020272Y003103D01*
X020271Y003103D01*
X020271Y003102D01*
X020270Y003101D01*
X020269Y003100D01*
X020268Y003098D01*
X020267Y003096D01*
X020266Y003094D01*
X020266Y003093D01*
X020266Y003093D01*
X020266Y003092D01*
X020266Y003092D01*
X020266Y003091D01*
Y003091D01*
X020265Y003090D01*
X020265Y003088D01*
X020264Y003085D01*
X020264Y003083D01*
X020264Y003080D01*
X020264Y003078D01*
X020264Y003075D01*
X020263Y003073D01*
X020263Y003070D01*
X020263Y003068D01*
Y003066D01*
X020263Y003064D01*
Y003063D01*
Y003062D01*
Y003061D01*
Y003061D01*
Y003061D01*
Y003061D01*
Y003060D01*
Y003056D01*
X020263Y003053D01*
X020263Y003049D01*
X020264Y003046D01*
X020264Y003043D01*
X020264Y003040D01*
X020264Y003038D01*
X020264Y003036D01*
X020265Y003034D01*
X020265Y003033D01*
X020265Y003031D01*
X020265Y003030D01*
X020266Y003030D01*
X020266Y003029D01*
X020266Y003029D01*
Y003028D01*
X020266Y003027D01*
X020267Y003026D01*
X020267Y003025D01*
X020267Y003024D01*
X020268Y003023D01*
X020268Y003022D01*
X020269Y003021D01*
X020270Y003020D01*
X020271Y003019D01*
X020271Y003018D01*
X020271Y003018D01*
X020273Y003017D01*
X020274Y003017D01*
X020275Y003016D01*
X020277Y003016D01*
X020278Y003016D01*
X020278Y003016D01*
X020279Y003016D01*
X020279D01*
X020281Y003016D01*
X020282Y003016D01*
X020284Y003016D01*
X020285Y003017D01*
X020286Y003017D01*
X020286Y003018D01*
X020287Y003018D01*
X020287Y003018D01*
X020288Y003019D01*
X020288Y003020D01*
X020289Y003021D01*
X020290Y003023D01*
X020291Y003025D01*
X020292Y003027D01*
X020292Y003027D01*
X020292Y003028D01*
X020293Y003029D01*
X020293Y003029D01*
X020293Y003029D01*
Y003030D01*
X020293Y003031D01*
X020294Y003033D01*
X020294Y003036D01*
X020294Y003038D01*
X020294Y003040D01*
X020295Y003043D01*
X020295Y003046D01*
X020295Y003048D01*
X020295Y003051D01*
X020295Y003053D01*
Y003055D01*
X020295Y003057D01*
Y003058D01*
Y003059D01*
Y003059D01*
Y003060D01*
Y003060D01*
Y003060D01*
Y003060D01*
Y003065D01*
X020295Y003068D01*
X020295Y003072D01*
X020295Y003075D01*
X020295Y003078D01*
X020294Y003080D01*
X020294Y003083D01*
X020294Y003085D01*
X020294Y003087D01*
X020293Y003088D01*
X020293Y003090D01*
X020293Y003091D01*
X020293Y003091D01*
X020293Y003092D01*
X020293Y003092D01*
Y003092D01*
X020292Y003094D01*
X020292Y003095D01*
X020291Y003096D01*
X020291Y003097D01*
X020290Y003098D01*
X020290Y003099D01*
X020289Y003100D01*
X020288Y003101D01*
X020288Y003102D01*
X020287Y003103D01*
X020287Y003103D01*
X020286Y003104D01*
X020284Y003104D01*
X020283Y003105D01*
X020282Y003105D01*
X020281Y003105D01*
X020280Y003106D01*
D02*
G37*
G36*
X020081Y003106D02*
X020080D01*
X020079Y003105D01*
X020077Y003105D01*
X020076Y003105D01*
X020075Y003104D01*
X020074Y003104D01*
X020073Y003103D01*
X020073Y003103D01*
X020073Y003103D01*
X020072Y003102D01*
X020071Y003101D01*
X020070Y003100D01*
X020069Y003098D01*
X020068Y003096D01*
X020068Y003094D01*
X020067Y003093D01*
X020067Y003093D01*
X020067Y003092D01*
X020067Y003092D01*
X020067Y003091D01*
Y003091D01*
X020066Y003090D01*
X020066Y003088D01*
X020066Y003085D01*
X020065Y003083D01*
X020065Y003080D01*
X020065Y003078D01*
X020065Y003075D01*
X020065Y003073D01*
X020065Y003070D01*
X020065Y003068D01*
Y003066D01*
X020064Y003064D01*
Y003063D01*
Y003062D01*
Y003061D01*
Y003061D01*
Y003061D01*
Y003061D01*
Y003060D01*
Y003056D01*
X020065Y003053D01*
X020065Y003049D01*
X020065Y003046D01*
X020065Y003043D01*
X020065Y003040D01*
X020065Y003038D01*
X020066Y003036D01*
X020066Y003034D01*
X020066Y003033D01*
X020066Y003031D01*
X020067Y003030D01*
X020067Y003030D01*
X020067Y003029D01*
X020067Y003029D01*
Y003028D01*
X020067Y003027D01*
X020068Y003026D01*
X020068Y003025D01*
X020069Y003024D01*
X020069Y003023D01*
X020070Y003022D01*
X020070Y003021D01*
X020071Y003020D01*
X020072Y003019D01*
X020072Y003018D01*
X020072Y003018D01*
X020074Y003017D01*
X020075Y003017D01*
X020077Y003016D01*
X020078Y003016D01*
X020079Y003016D01*
X020080Y003016D01*
X020080Y003016D01*
X020080D01*
X020082Y003016D01*
X020084Y003016D01*
X020085Y003016D01*
X020086Y003017D01*
X020087Y003017D01*
X020088Y003018D01*
X020088Y003018D01*
X020088Y003018D01*
X020089Y003019D01*
X020090Y003020D01*
X020091Y003021D01*
X020092Y003023D01*
X020093Y003025D01*
X020093Y003027D01*
X020093Y003027D01*
X020094Y003028D01*
X020094Y003029D01*
X020094Y003029D01*
X020094Y003029D01*
Y003030D01*
X020094Y003031D01*
X020095Y003033D01*
X020095Y003036D01*
X020095Y003038D01*
X020096Y003040D01*
X020096Y003043D01*
X020096Y003046D01*
X020096Y003048D01*
X020096Y003051D01*
X020096Y003053D01*
Y003055D01*
X020096Y003057D01*
Y003058D01*
Y003059D01*
Y003059D01*
Y003060D01*
Y003060D01*
Y003060D01*
Y003060D01*
Y003065D01*
X020096Y003068D01*
X020096Y003072D01*
X020096Y003075D01*
X020096Y003078D01*
X020095Y003080D01*
X020095Y003083D01*
X020095Y003085D01*
X020095Y003087D01*
X020095Y003088D01*
X020094Y003090D01*
X020094Y003091D01*
X020094Y003091D01*
X020094Y003092D01*
X020094Y003092D01*
Y003092D01*
X020093Y003094D01*
X020093Y003095D01*
X020093Y003096D01*
X020092Y003097D01*
X020092Y003098D01*
X020091Y003099D01*
X020090Y003100D01*
X020090Y003101D01*
X020089Y003102D01*
X020089Y003103D01*
X020088Y003103D01*
X020087Y003104D01*
X020086Y003104D01*
X020084Y003105D01*
X020083Y003105D01*
X020082Y003105D01*
X020081Y003106D01*
D02*
G37*
%LPD*%
D17*
X008299Y007738D02*
X008934D01*
D19*
X011390Y004794D02*
D03*
X011200D02*
D03*
X008480Y006455D02*
D03*
X008670D02*
D03*
X009040Y005045D02*
D03*
X009230D02*
D03*
X011200Y004964D02*
D03*
X011390D02*
D03*
X010252Y006285D02*
D03*
X010442D02*
D03*
X008880Y006125D02*
D03*
X009070D02*
D03*
X011390Y004624D02*
D03*
X011200D02*
D03*
Y005135D02*
D03*
X011390D02*
D03*
X009640Y007095D02*
D03*
X009450D02*
D03*
X009110D02*
D03*
X009300D02*
D03*
X008870Y003725D02*
D03*
X008680D02*
D03*
Y003505D02*
D03*
X008870D02*
D03*
X010640Y004446D02*
D03*
X010450D02*
D03*
Y004266D02*
D03*
X010640D02*
D03*
X011460Y006215D02*
D03*
X011650D02*
D03*
X007920Y003105D02*
D03*
X008110D02*
D03*
X008920Y004405D02*
D03*
X009110D02*
D03*
X008120Y005995D02*
D03*
X008310D02*
D03*
X007890Y006535D02*
D03*
X007700D02*
D03*
X007330D02*
D03*
X007520D02*
D03*
X007190Y003705D02*
D03*
X007380D02*
D03*
D24*
X009250Y007325D02*
D03*
Y007515D02*
D03*
X009050Y005685D02*
D03*
Y005875D02*
D03*
X010180Y005755D02*
D03*
Y005565D02*
D03*
X010840Y005385D02*
D03*
Y005195D02*
D03*
Y005755D02*
D03*
Y005565D02*
D03*
X010020Y005385D02*
D03*
Y005195D02*
D03*
X010020Y005755D02*
D03*
Y005565D02*
D03*
X010430D02*
D03*
Y005755D02*
D03*
X010430Y005195D02*
D03*
Y005385D02*
D03*
X011010Y005385D02*
D03*
Y005195D02*
D03*
Y005755D02*
D03*
Y005565D02*
D03*
X010190Y005385D02*
D03*
Y005195D02*
D03*
X010600Y005565D02*
D03*
Y005755D02*
D03*
X010600Y005195D02*
D03*
Y005385D02*
D03*
X009890Y003415D02*
D03*
Y003605D02*
D03*
X009690D02*
D03*
Y003415D02*
D03*
X008510Y005415D02*
D03*
Y005605D02*
D03*
X011280Y006045D02*
D03*
Y006235D02*
D03*
X010110Y004256D02*
D03*
Y004446D02*
D03*
X010280D02*
D03*
Y004256D02*
D03*
X010820D02*
D03*
Y004446D02*
D03*
X011400Y004255D02*
D03*
Y004445D02*
D03*
D25*
X009590Y006605D02*
D03*
X009420D02*
D03*
X009610Y005525D02*
D03*
X009440D02*
D03*
X009520Y005385D02*
D03*
X009350D02*
D03*
X009420Y006465D02*
D03*
X009590D02*
D03*
X009090Y006415D02*
D03*
X008920D02*
D03*
Y006285D02*
D03*
X009090D02*
D03*
D26*
X009140Y006955D02*
D03*
Y006785D02*
D03*
X009000D02*
D03*
Y006955D02*
D03*
X008860D02*
D03*
Y006785D02*
D03*
X009850Y005195D02*
D03*
Y005365D02*
D03*
X011450Y005977D02*
D03*
Y005807D02*
D03*
X011650D02*
D03*
Y005977D02*
D03*
D36*
X008426Y007586D02*
D03*
X008553D02*
D03*
X008680D02*
D03*
X008807D02*
D03*
D40*
X013778Y007183D02*
D03*
Y007437D02*
D03*
Y006929D02*
D03*
Y006675D02*
D03*
Y006421D02*
D03*
Y006167D02*
D03*
Y005913D02*
D03*
Y005659D02*
D03*
X015048Y007437D02*
D03*
Y007183D02*
D03*
Y005913D02*
D03*
X016318Y006929D02*
D03*
X015048Y005659D02*
D03*
X016318D02*
D03*
Y005913D02*
D03*
X017588Y006929D02*
D03*
Y006167D02*
D03*
X018858Y005913D02*
D03*
X020128Y005659D02*
D03*
Y006421D02*
D03*
X017588Y005659D02*
D03*
X015048Y006675D02*
D03*
X021398Y007437D02*
D03*
X013524Y007183D02*
D03*
Y007437D02*
D03*
Y006675D02*
D03*
Y006929D02*
D03*
Y006167D02*
D03*
Y006421D02*
D03*
Y005659D02*
D03*
Y005913D02*
D03*
X014794Y007437D02*
D03*
Y006929D02*
D03*
X016064Y006421D02*
D03*
X017334Y006675D02*
D03*
Y006929D02*
D03*
Y006167D02*
D03*
Y006421D02*
D03*
Y005659D02*
D03*
X019874Y007437D02*
D03*
X021144Y006929D02*
D03*
D41*
X020128Y005913D02*
D03*
Y006929D02*
D03*
Y007437D02*
D03*
X021398Y006929D02*
D03*
X016318Y007183D02*
D03*
Y007437D02*
D03*
Y006675D02*
D03*
Y006421D02*
D03*
Y006167D02*
D03*
X017588Y006675D02*
D03*
X018858Y005659D02*
D03*
Y006421D02*
D03*
Y006167D02*
D03*
X020128Y006675D02*
D03*
Y007183D02*
D03*
X021398Y006675D02*
D03*
X015048Y006929D02*
D03*
Y006167D02*
D03*
Y006421D02*
D03*
X017588Y007437D02*
D03*
Y007183D02*
D03*
Y006421D02*
D03*
Y005913D02*
D03*
X018858Y006675D02*
D03*
Y006929D02*
D03*
Y007183D02*
D03*
Y007437D02*
D03*
X020128Y006167D02*
D03*
X021398Y007183D02*
D03*
X014794D02*
D03*
Y006675D02*
D03*
Y006167D02*
D03*
Y006421D02*
D03*
Y005659D02*
D03*
Y005913D02*
D03*
X016064Y007183D02*
D03*
Y007437D02*
D03*
Y006675D02*
D03*
Y006929D02*
D03*
Y006167D02*
D03*
Y005659D02*
D03*
Y005913D02*
D03*
X017334Y007183D02*
D03*
Y007437D02*
D03*
Y005913D02*
D03*
X018604Y007183D02*
D03*
Y007437D02*
D03*
Y006675D02*
D03*
Y006929D02*
D03*
Y006167D02*
D03*
Y006421D02*
D03*
Y005659D02*
D03*
Y005913D02*
D03*
X019874Y007183D02*
D03*
Y006675D02*
D03*
Y006929D02*
D03*
Y006167D02*
D03*
Y006421D02*
D03*
Y005659D02*
D03*
Y005913D02*
D03*
X021144Y007183D02*
D03*
Y007437D02*
D03*
Y006675D02*
D03*
D42*
X011920Y003075D02*
D03*
Y004675D02*
D03*
Y004075D02*
D03*
Y003675D02*
D03*
X011920Y005675D02*
D03*
Y005075D02*
D03*
X011920Y006075D02*
D03*
Y007675D02*
D03*
Y007075D02*
D03*
Y006675D02*
D03*
D43*
X010070Y007515D02*
D03*
X010868D02*
D03*
D44*
X007435Y004018D02*
D03*
Y004272D02*
D03*
X007689Y004018D02*
D03*
Y004272D02*
D03*
X007943Y004018D02*
D03*
Y004272D02*
D03*
X008197Y004018D02*
D03*
Y004272D02*
D03*
X008451Y004018D02*
D03*
X007181D02*
D03*
Y004272D02*
D03*
X008190Y004525D02*
D03*
X008450D02*
D03*
X013778Y004029D02*
D03*
X013524Y004283D02*
D03*
Y004029D02*
D03*
X013274Y004283D02*
D03*
Y004029D02*
D03*
X013016Y004283D02*
D03*
Y004029D02*
D03*
X021652D02*
D03*
X021398Y004283D02*
D03*
Y004029D02*
D03*
D45*
X008451Y004272D02*
D03*
X008190Y004725D02*
D03*
X008450D02*
D03*
X013778Y004283D02*
D03*
X021652D02*
D03*
D46*
X007460Y007125D02*
D03*
X011330Y005905D02*
D03*
X011460Y006095D02*
D03*
X010240Y006615D02*
D03*
X011422Y002975D02*
D03*
X011190Y002975D02*
D03*
X011070Y004895D02*
D03*
X010478Y006947D02*
D03*
X012400Y005175D02*
D03*
X008020Y005615D02*
D03*
X011490Y004355D02*
D03*
X010830Y004515D02*
D03*
X020590Y007445D02*
D03*
X013000Y005665D02*
D03*
X016580Y007125D02*
D03*
X015429Y006167D02*
D03*
X012420Y006825D02*
D03*
X012620Y006885D02*
D03*
X012380Y006965D02*
D03*
X012420Y007455D02*
D03*
X019450Y005555D02*
D03*
X019070Y006425D02*
D03*
Y006155D02*
D03*
X008640Y005535D02*
D03*
X008650Y005655D02*
D03*
X010350Y005945D02*
D03*
X010462Y005885D02*
D03*
X010410Y006055D02*
D03*
X013130Y005455D02*
D03*
X012660Y004845D02*
D03*
X012730Y005245D02*
D03*
X012890Y004785D02*
D03*
X012500Y005115D02*
D03*
X013190Y006275D02*
D03*
X012014Y006172D02*
D03*
X014030Y006285D02*
D03*
X012620Y006355D02*
D03*
X013980Y006605D02*
D03*
X016699Y007437D02*
D03*
X015550Y007445D02*
D03*
X012960Y007125D02*
D03*
X012740Y007195D02*
D03*
X012830Y007185D02*
D03*
X015550D02*
D03*
X012610Y007235D02*
D03*
X012420Y007585D02*
D03*
X012950Y006095D02*
D03*
X012360Y007790D02*
D03*
X014070Y006925D02*
D03*
X014040Y006675D02*
D03*
X014160Y006035D02*
D03*
X010751Y006885D02*
D03*
X010750Y006765D02*
D03*
X010860Y006655D02*
D03*
X010850Y006225D02*
D03*
X011020Y006435D02*
D03*
X010910Y006465D02*
D03*
Y006555D02*
D03*
X012890Y006405D02*
D03*
X012350Y006372D02*
D03*
X011471D02*
D03*
X014159Y006421D02*
D03*
X012030Y004995D02*
D03*
X012520Y004955D02*
D03*
X012600Y004915D02*
D03*
X012760Y004675D02*
D03*
X018030Y007435D02*
D03*
X018090Y007185D02*
D03*
X010110Y004515D02*
D03*
X010020Y003045D02*
D03*
X009570Y003105D02*
D03*
X009550Y003835D02*
D03*
X011360Y006515D02*
D03*
X011475Y006575D02*
D03*
X007950Y005225D02*
D03*
X007700Y006905D02*
D03*
X007610D02*
D03*
X007520D02*
D03*
X008841Y005634D02*
D03*
X008640Y005895D02*
D03*
X008650Y005975D02*
D03*
X010514Y005824D02*
D03*
X010310Y005765D02*
D03*
X010270Y005645D02*
D03*
X011120Y004345D02*
D03*
X011340Y003975D02*
D03*
X011400D02*
D03*
X011470D02*
D03*
X011280Y004125D02*
D03*
X011400D02*
D03*
X011340D02*
D03*
X009580Y004005D02*
D03*
X009650D02*
D03*
Y004075D02*
D03*
X009960Y004055D02*
D03*
Y004115D02*
D03*
X010818Y003603D02*
D03*
X009991Y004316D02*
D03*
X010894Y003469D02*
D03*
X009900Y004055D02*
D03*
Y004115D02*
D03*
X009580Y004075D02*
D03*
X009360Y004035D02*
D03*
X009260D02*
D03*
X009460Y004455D02*
D03*
X009080Y004775D02*
D03*
X009200Y004185D02*
D03*
Y004495D02*
D03*
X009110Y004055D02*
D03*
X007410Y005485D02*
D03*
X007410Y005575D02*
D03*
Y005655D02*
D03*
X009460Y005245D02*
D03*
X009590D02*
D03*
X012030Y004375D02*
D03*
X011820D02*
D03*
X007980Y006285D02*
D03*
Y006215D02*
D03*
X007910D02*
D03*
Y006285D02*
D03*
X009140Y004995D02*
D03*
X009473Y004749D02*
D03*
X009320Y004825D02*
D03*
X009220D02*
D03*
X010020Y005119D02*
D03*
X010590Y005105D02*
D03*
X009678Y006526D02*
D03*
X008530Y006085D02*
D03*
X010560Y006835D02*
D03*
X010660Y006845D02*
D03*
Y006745D02*
D03*
X010360Y007465D02*
D03*
X010240Y007505D02*
D03*
X010500Y007565D02*
D03*
X011490Y007353D02*
D03*
X009950Y007315D02*
D03*
X009930Y007235D02*
D03*
X009540Y004795D02*
D03*
X009650D02*
D03*
X010280Y004515D02*
D03*
X008710Y004365D02*
D03*
X009732Y006650D02*
D03*
X008410Y006335D02*
D03*
X008550Y006356D02*
D03*
X008780Y006405D02*
D03*
X008810Y006285D02*
D03*
X008790Y006495D02*
D03*
X008617Y006239D02*
D03*
X008470Y006255D02*
D03*
X010640Y004075D02*
D03*
X011050D02*
D03*
X011830Y005775D02*
D03*
X011400Y005681D02*
D03*
X011317D02*
D03*
X010760Y006225D02*
D03*
X010670Y007625D02*
D03*
X010590D02*
D03*
X010100Y007315D02*
D03*
X009910Y007465D02*
D03*
X010220Y007595D02*
D03*
X008730Y006245D02*
D03*
X009900Y006948D02*
D03*
X008730Y005345D02*
D03*
X011490Y007575D02*
D03*
X010510Y005111D02*
D03*
X009250Y005176D02*
D03*
X009370D02*
D03*
X011088Y004575D02*
D03*
X010990Y004635D02*
D03*
X010790Y004724D02*
D03*
X010890D02*
D03*
X011070Y004705D02*
D03*
X012000Y007605D02*
D03*
X011110Y005025D02*
D03*
X009990Y004795D02*
D03*
X010290D02*
D03*
X010199D02*
D03*
X010090D02*
D03*
X010020Y004675D02*
D03*
X011910Y005535D02*
D03*
X012010Y005775D02*
D03*
Y005975D02*
D03*
X011820D02*
D03*
Y005375D02*
D03*
X011150Y003375D02*
D03*
X008340Y006225D02*
D03*
X008880Y005825D02*
D03*
X010720Y005745D02*
D03*
X010580Y006069D02*
D03*
X010659Y006136D02*
D03*
X011960Y005375D02*
D03*
X011480Y005495D02*
D03*
X011480Y005615D02*
D03*
X011380Y006235D02*
D03*
X012017Y006782D02*
D03*
X010390Y006948D02*
D03*
X010456Y006625D02*
D03*
X010980Y006885D02*
D03*
X010860D02*
D03*
X010760Y006665D02*
D03*
X009218Y006503D02*
D03*
X010410Y007325D02*
D03*
X010530Y007325D02*
D03*
X010520Y007445D02*
D03*
X011180Y006988D02*
D03*
X010790Y007375D02*
D03*
X010000Y006948D02*
D03*
X010180Y007335D02*
D03*
X009919Y007737D02*
D03*
X009920Y007655D02*
D03*
X008782Y005567D02*
D03*
X009680Y005185D02*
D03*
X009670Y005285D02*
D03*
X011490Y006975D02*
D03*
X011510Y006775D02*
D03*
X009666Y006708D02*
D03*
X009670Y006435D02*
D03*
X020509Y007183D02*
D03*
Y006929D02*
D03*
Y006675D02*
D03*
X019239Y007437D02*
D03*
Y007183D02*
D03*
Y006929D02*
D03*
Y006675D02*
D03*
X019320Y005915D02*
D03*
X017969Y006929D02*
D03*
Y006675D02*
D03*
Y006421D02*
D03*
Y006167D02*
D03*
Y005913D02*
D03*
Y005659D02*
D03*
X016699Y007183D02*
D03*
Y006929D02*
D03*
Y006675D02*
D03*
Y006421D02*
D03*
Y006167D02*
D03*
Y005913D02*
D03*
Y005659D02*
D03*
X015429Y006929D02*
D03*
Y006675D02*
D03*
Y006421D02*
D03*
Y005913D02*
D03*
Y005659D02*
D03*
X014159Y007183D02*
D03*
Y006167D02*
D03*
Y005913D02*
D03*
Y005659D02*
D03*
X012889Y005913D02*
D03*
Y006167D02*
D03*
Y006675D02*
D03*
Y006929D02*
D03*
Y007437D02*
D03*
X009370Y006948D02*
D03*
X009280Y006885D02*
D03*
X011140Y003175D02*
D03*
X010780D02*
D03*
X012030Y004775D02*
D03*
X011810D02*
D03*
X012030Y004575D02*
D03*
X009980Y006145D02*
D03*
X010020Y004575D02*
D03*
X011390Y006975D02*
D03*
X009350Y006823D02*
D03*
X009700Y005525D02*
D03*
X009620Y005385D02*
D03*
X009440Y006735D02*
D03*
X012020Y005575D02*
D03*
X012360Y006575D02*
D03*
X012350Y007375D02*
D03*
X011480Y004885D02*
D03*
X010870Y005885D02*
D03*
X010730Y005185D02*
D03*
X010250Y006055D02*
D03*
X008240Y007285D02*
D03*
X009000Y007295D02*
D03*
X009380Y007515D02*
D03*
X009280Y007235D02*
D03*
X009000Y007195D02*
D03*
X007460Y007215D02*
D03*
X007570D02*
D03*
X007690D02*
D03*
X007810Y006375D02*
D03*
X008510Y005285D02*
D03*
Y005705D02*
D03*
X008880Y005485D02*
D03*
X009000Y004775D02*
D03*
X009080Y004835D02*
D03*
X009000D02*
D03*
X011070Y007235D02*
D03*
X008910Y005045D02*
D03*
X010980Y005885D02*
D03*
Y006225D02*
D03*
X008770Y005775D02*
D03*
X008860Y006667D02*
D03*
X008690Y007005D02*
D03*
X009320Y006465D02*
D03*
Y006605D02*
D03*
X009000Y007095D02*
D03*
X008400Y005985D02*
D03*
X009190Y004625D02*
D03*
X008840Y004185D02*
D03*
X009660Y003295D02*
D03*
Y003175D02*
D03*
X008880Y005245D02*
D03*
X008410Y005885D02*
D03*
X010840Y005465D02*
D03*
X010310Y005175D02*
D03*
X010370Y004795D02*
D03*
X009340Y005525D02*
D03*
X009250Y005385D02*
D03*
X010430Y005475D02*
D03*
X010020D02*
D03*
X011140Y003575D02*
D03*
X010910Y003925D02*
D03*
X010990D02*
D03*
X007410Y006375D02*
D03*
X008150Y006995D02*
D03*
X009100Y003195D02*
D03*
Y003275D02*
D03*
D47*
X007610Y005605D02*
D03*
D48*
Y006715D02*
D03*
D49*
X008220Y005818D02*
D03*
Y005653D02*
D03*
D50*
Y005735D02*
D03*
D111*
X007250Y003105D02*
D03*
X007440D02*
D03*
X010730Y004075D02*
D03*
X010920D02*
D03*
D112*
X009788Y007475D02*
D03*
X011338D02*
D03*
D113*
X011248Y006515D02*
D03*
D114*
X009788D02*
D03*
D115*
X009906Y006465D02*
D03*
X010125D02*
D03*
X010015D02*
D03*
X010565D02*
D03*
X010786D02*
D03*
X010675D02*
D03*
X010236D02*
D03*
X010456D02*
D03*
X010346D02*
D03*
D116*
X009740Y003785D02*
D03*
X009190Y003335D02*
D03*
Y003505D02*
D03*
X009290D02*
D03*
X009840Y003955D02*
D03*
X009740D02*
D03*
D117*
X009840Y003785D02*
D03*
X009290Y003335D02*
D03*
D118*
X007150Y003385D02*
D03*
X007518D02*
D03*
X007832Y003375D02*
D03*
X008200D02*
D03*
D119*
X010990Y004261D02*
D03*
Y004356D02*
D03*
Y004451D02*
D03*
X011235D02*
D03*
Y004261D02*
D03*
D120*
X009810Y005735D02*
D03*
Y006135D02*
D03*
X009302Y005735D02*
D03*
D121*
Y006135D02*
D03*
M02*
