M48
;Layer_Color=9474304
;FILE_FORMAT=4:2
METRIC
;TYPE=PLATED
T1F00S00C0.20
T2F00S00C0.30
T3F00S00C0.60
T4F00S00C0.80
T5F00S00C0.85
T6F00S00C0.86
T7F00S00C1.00
%
T01
X008220Y005653
Y005818
T02
X009100Y003195
Y003275
X009660Y003295
Y003175
X009570Y003105
X010020Y003045
X010780Y003175
X011140
X011150Y003375
X011140Y003575
X010818Y003603
X010894Y003469
X010910Y003925
X010990
X011190Y002975
X011422Y002975
X009550Y003835
X020509Y006675
Y006929
Y007183
X020590Y007445
X019239Y007437
Y007183
Y006929
Y006675
X019070Y006425
Y006155
X019320Y005915
X019450Y005555
X017969Y005659
Y005913
Y006167
Y006421
Y006675
Y006929
X018090Y007185
X018030Y007435
X016699Y007437
Y007183
X016580Y007125
X016699Y006929
Y006675
Y006421
Y006167
Y005913
Y005659
X015429
Y005913
Y006167
Y006421
Y006675
Y006929
X015550Y007185
Y007445
X014159Y007183
X014070Y006925
X014040Y006675
X013980Y006605
X014159Y006421
Y006167
X014160Y006035
X014159Y005913
Y005659
X014030Y006285
X013190Y006275
X012889Y006167
X012950Y006095
X012889Y005913
X013000Y005665
X013130Y005455
X012730Y005245
X012500Y005115
X012400Y005175
X012520Y004955
X012600Y004915
X012660Y004845
X012760Y004675
X012890Y004785
X012030Y004775
Y004575
Y004375
Y004995
X011960Y005375
X011910Y005535
X012020Y005575
X012010Y005775
Y005975
X012014Y006172
X012350Y006372
X012360Y006575
X012420Y006825
X012380Y006965
X012620Y006885
X012889Y006929
Y006675
X012890Y006405
X012620Y006355
X012610Y007235
X012740Y007195
X012830Y007185
X012960Y007125
X012889Y007437
X012420Y007455
Y007585
X012360Y007790
X012350Y007375
X012000Y007605
X012017Y006782
X011510Y006775
X011490Y006975
X011390
X011180Y006988
X010980Y006885
X010860
X010751Y006885
X010750Y006765
X010660Y006745
Y006845
X010560Y006835
X010478Y006947
X010390Y006948
X010456Y006625
X010240Y006615
X009732Y006650
X009666Y006708
X009678Y006526
X009670Y006435
X009320Y006465
Y006605
X009218Y006503
X008790Y006495
X008780Y006405
X008810Y006285
X008730Y006245
X008617Y006239
X008470Y006255
X008410Y006335
X008550Y006356
X008530Y006085
X008400Y005985
X008410Y005885
X008640Y005895
X008650Y005975
Y005655
X008640Y005535
X008782Y005567
X008841Y005634
X008880Y005485
Y005245
X008910Y005045
X009140Y004995
X009080Y004835
Y004775
X009000
Y004835
X009220Y004825
X009320
X009473Y004749
X009540Y004795
X009650
X009990
X010090
X010199
X010290
X010370
X010280Y004515
X010110
X010020Y004575
Y004675
X009991Y004316
X009960Y004115
Y004055
X009900
Y004115
X009650Y004075
X009580
Y004005
X009650
X009360Y004035
X009260
X009110Y004055
X009200Y004185
Y004495
X009190Y004625
X009460Y004455
Y005245
X009590
X009670Y005285
X009680Y005185
X009620Y005385
X009700Y005525
X009340
X009250Y005385
Y005176
X009370
X010020Y005119
X010310Y005175
X010510Y005111
X010590Y005105
X010730Y005185
X010840Y005465
X010720Y005745
X010514Y005824
X010462Y005885
X010350Y005945
X010410Y006055
X010250
X010580Y006069
X010659Y006136
X010760Y006225
X010850
X010980
X011020Y006435
X010910Y006465
Y006555
X010860Y006655
X010760Y006665
X010790Y007375
X010530Y007325
X010410Y007325
X010360Y007465
X010240Y007505
X010220Y007595
X010180Y007335
X010100Y007315
X009950
X009930Y007235
X009910Y007465
X009920Y007655
X009919Y007737
X010500Y007565
X010520Y007445
X010590Y007625
X010670
X011070Y007235
X011490Y007353
Y007575
X011475Y006575
X011360Y006515
X011471Y006372
X011380Y006235
X011460Y006095
X011330Y005905
X011317Y005681
X011400
X011480Y005615
X011480Y005495
X011820Y005375
X011830Y005775
X011820Y005975
X010980Y005885
X010870
X010310Y005765
X010270Y005645
X010430Y005475
X010020
X009980Y006145
X010000Y006948
X009900
X009370
X009350Y006823
X009280Y006885
X009440Y006735
X008860Y006667
X008690Y007005
X009000Y007095
Y007195
Y007295
X009280Y007235
X009380Y007515
X008240Y007285
X008150Y006995
X007980Y006285
Y006215
X008340Y006225
X008510Y005705
X008770Y005775
X008880Y005825
X008730Y005345
X008510Y005285
X007950Y005225
X008020Y005615
X008710Y004365
X008840Y004185
X010640Y004075
X011050
X011280Y004125
X011340
X011400
Y003975
X011340
X011470
X011490Y004355
X011820Y004375
X011810Y004775
X011480Y004885
X011070Y004895
X011110Y005025
X011070Y004705
X011088Y004575
X010990Y004635
X010890Y004724
X010790
X010830Y004515
X011120Y004345
X007410Y005485
X007410Y005575
Y005655
Y006375
X007810
X007910Y006285
Y006215
X007700Y006905
X007610
X007520
X007460Y007125
Y007215
X007570
X007690
T03
X007610Y006715
T04
X008220Y005735
X007610Y005605
T05
X011920Y003075
Y003675
Y004075
Y004675
X011920Y005075
Y005675
X011920Y006075
Y006675
Y007075
Y007675
T06
X021398Y004029
X021652
Y004283
X021398
X013778
Y004029
X013524
X013274
Y004283
X013524
X013016
Y004029
X008451Y004018
X008197
X007943
Y004272
X008197
X008451
X008450Y004525
Y004725
X008190
Y004525
X007689Y004272
X007435
Y004018
X007689
X007181
Y004272
T07
X019874Y005659
X020128
Y005913
Y006167
Y006421
Y006675
Y006929
Y007183
Y007437
X019874
Y007183
Y006929
Y006675
Y006421
Y006167
Y005913
X021144Y006675
X021398
Y006929
Y007183
Y007437
X021144
Y007183
Y006929
X018858
Y006675
Y006421
Y006167
Y005913
Y005659
X018604
Y005913
Y006167
Y006421
Y006675
Y006929
Y007183
X018858
Y007437
X018604
X017588
Y007183
Y006929
Y006675
Y006421
Y006167
Y005913
Y005659
X017334
Y005913
Y006167
Y006421
Y006675
Y006929
Y007183
Y007437
X016318
Y007183
Y006929
Y006675
Y006421
Y006167
Y005913
Y005659
X016064
Y005913
Y006167
Y006421
Y006675
Y006929
Y007183
Y007437
X015048
Y007183
Y006929
Y006675
Y006421
Y006167
Y005913
Y005659
X014794
Y005913
Y006167
Y006421
Y006675
Y006929
Y007183
Y007437
X013778
Y007183
Y006929
Y006675
Y006421
Y006167
Y005913
Y005659
X013524
Y005913
Y006167
Y006421
Y006675
Y006929
Y007183
Y007437
X010868Y007515
X010070
M30
