G04*
G04 #@! TF.GenerationSoftware,Altium Limited,Altium Designer,20.1.11 (218)*
G04*
G04 Layer_Physical_Order=2*
G04 Layer_Color=36540*
%FSAX42Y42*%
%MOMM*%
G71*
G04*
G04 #@! TF.SameCoordinates,7775C1EB-3A37-4DB6-902C-5BA206B129F1*
G04*
G04*
G04 #@! TF.FilePolarity,Positive*
G04*
G01*
G75*
%ADD14C,0.20*%
%ADD84C,0.60*%
G36*
X011589Y007524D02*
X011526D01*
X011522Y007537D01*
X011526Y007539D01*
X011537Y007556D01*
X011539Y007565D01*
X011441D01*
X011443Y007556D01*
X011454Y007539D01*
X011458Y007537D01*
X011454Y007524D01*
X011048D01*
X011037Y007522D01*
X011027Y007515D01*
X011027Y007515D01*
X010998Y007487D01*
X010986Y007492D01*
X010989Y007515D01*
X010985Y007547D01*
X010973Y007576D01*
X010954Y007601D01*
X010929Y007620D01*
X010899Y007632D01*
X010868Y007636D01*
X010837Y007632D01*
X010807Y007620D01*
X010782Y007601D01*
X010763Y007576D01*
X010751Y007547D01*
X010747Y007515D01*
X010751Y007484D01*
X010763Y007455D01*
X010777Y007437D01*
X010772Y007423D01*
X010770Y007422D01*
X010754Y007411D01*
X010743Y007395D01*
X010739Y007375D01*
X010743Y007356D01*
X010754Y007339D01*
X010770Y007328D01*
X010790Y007324D01*
X010810Y007328D01*
X010826Y007339D01*
X010837Y007356D01*
X010841Y007375D01*
X010839Y007385D01*
X010850Y007397D01*
X010868Y007394D01*
X010891Y007397D01*
X010897Y007385D01*
X010802Y007290D01*
X010582D01*
X010575Y007303D01*
X010577Y007306D01*
X010581Y007325D01*
X010577Y007345D01*
X010566Y007361D01*
X010550Y007372D01*
X010530Y007376D01*
X010510Y007372D01*
X010494Y007361D01*
X010483Y007345D01*
X010479Y007325D01*
X010483Y007306D01*
X010486Y007301D01*
X010480Y007290D01*
X010460D01*
X010454Y007301D01*
X010457Y007306D01*
X010461Y007325D01*
X010457Y007345D01*
X010446Y007361D01*
X010430Y007372D01*
X010410Y007376D01*
X010390Y007372D01*
X010374Y007361D01*
X010363Y007345D01*
X010359Y007325D01*
X010363Y007306D01*
X010366Y007301D01*
X010360Y007290D01*
X010269D01*
X010230Y007329D01*
X010231Y007335D01*
X010227Y007355D01*
X010216Y007371D01*
X010200Y007382D01*
X010180Y007386D01*
X010160Y007382D01*
X010144Y007371D01*
X010139Y007364D01*
X010122Y007361D01*
X010120Y007362D01*
X010100Y007366D01*
X010080Y007362D01*
X010064Y007351D01*
X010053Y007335D01*
X010051Y007325D01*
X010037Y007321D01*
X010022Y007337D01*
X010012Y007343D01*
X010000Y007346D01*
X010000Y007346D01*
X009990D01*
X009986Y007351D01*
X009970Y007362D01*
X009950Y007366D01*
X009930Y007362D01*
X009914Y007351D01*
X009903Y007335D01*
X009899Y007315D01*
X009903Y007296D01*
X009905Y007292D01*
X009903Y007277D01*
X009894Y007271D01*
X009883Y007255D01*
X009879Y007235D01*
X009882Y007218D01*
X009790Y007126D01*
X009203D01*
X009198Y007125D01*
X009193Y007124D01*
X009192Y007124D01*
X009192Y007123D01*
X009187Y007121D01*
X009183Y007118D01*
X008708Y006683D01*
X008707Y006682D01*
X008707Y006682D01*
X008704Y006677D01*
X008701Y006673D01*
X008700Y006672D01*
X008700Y006672D01*
X008699Y006667D01*
X008698Y006662D01*
X008698Y006661D01*
X008698Y006660D01*
Y006488D01*
X008617Y006407D01*
X008610Y006397D01*
X008608Y006385D01*
X008608Y006385D01*
Y006382D01*
X008595Y006378D01*
X008586Y006392D01*
X008570Y006403D01*
X008560Y006405D01*
Y006356D01*
X008550D01*
Y006346D01*
X008501D01*
X008503Y006336D01*
X008514Y006319D01*
X008530Y006308D01*
X008538Y006307D01*
X008542Y006295D01*
X008534Y006286D01*
X008510D01*
X008506Y006291D01*
X008490Y006302D01*
X008470Y006306D01*
X008465Y006305D01*
X008457Y006316D01*
X008461Y006335D01*
X008457Y006355D01*
X008446Y006371D01*
X008430Y006382D01*
X008410Y006386D01*
X008390Y006382D01*
X008374Y006371D01*
X008363Y006355D01*
X008359Y006335D01*
X008363Y006316D01*
X008374Y006299D01*
X008390Y006288D01*
X008410Y006284D01*
X008415Y006285D01*
X008423Y006275D01*
X008419Y006255D01*
X008423Y006236D01*
X008434Y006219D01*
X008450Y006208D01*
X008470Y006204D01*
X008490Y006208D01*
X008506Y006219D01*
X008510Y006225D01*
X008548D01*
X008548Y006225D01*
X008555Y006226D01*
X008569Y006219D01*
X008569Y006219D01*
X008580Y006203D01*
X008597Y006192D01*
X008617Y006188D01*
X008636Y006192D01*
X008653Y006203D01*
X008664Y006219D01*
X008675Y006226D01*
X008684Y006223D01*
X008694Y006209D01*
X008710Y006198D01*
X008730Y006194D01*
X008750Y006198D01*
X008752Y006200D01*
X008764Y006203D01*
X008773Y006196D01*
X008785Y006194D01*
X008785Y006194D01*
X008879D01*
X008879Y006194D01*
X008891Y006196D01*
X008901Y006203D01*
X009098Y006400D01*
X009105Y006410D01*
X009107Y006422D01*
X009107Y006422D01*
Y006588D01*
X009307Y006787D01*
X009314Y006787D01*
X009330Y006776D01*
X009350Y006772D01*
X009370Y006776D01*
X009386Y006787D01*
X009397Y006803D01*
X009401Y006823D01*
X009397Y006842D01*
X009386Y006859D01*
X009385Y006866D01*
X009497Y006978D01*
X009847D01*
X009853Y006965D01*
X009851Y006958D01*
X009900D01*
Y006948D01*
X009910D01*
Y006899D01*
X009920Y006900D01*
X009936Y006912D01*
X009942Y006921D01*
X009958D01*
X009964Y006912D01*
X009980Y006900D01*
X010000Y006897D01*
X010020Y006900D01*
X010036Y006912D01*
X010047Y006928D01*
X010051Y006948D01*
X010047Y006965D01*
X010053Y006978D01*
X010337D01*
X010343Y006965D01*
X010341Y006958D01*
X010390D01*
Y006948D01*
X010400D01*
Y006899D01*
X010410Y006900D01*
X010426Y006912D01*
X010428Y006914D01*
X010440D01*
X010442Y006911D01*
X010459Y006900D01*
X010478Y006896D01*
X010498Y006900D01*
X010514Y006911D01*
X010526Y006927D01*
X010529Y006947D01*
X010526Y006965D01*
X010526Y006968D01*
X010531Y006978D01*
X011000D01*
X011000Y006978D01*
X011002Y006978D01*
X011045D01*
X011045Y006978D01*
X011057Y006981D01*
X011067Y006987D01*
X011143Y007063D01*
X011444D01*
X011471Y007035D01*
X011471Y007029D01*
X011469Y007022D01*
X011454Y007011D01*
X011448Y007002D01*
X011432D01*
X011426Y007011D01*
X011410Y007022D01*
X011400Y007024D01*
Y006975D01*
X011390D01*
Y006965D01*
X011341D01*
X011343Y006956D01*
X011354Y006939D01*
X011370Y006928D01*
X011370Y006928D01*
X011366Y006916D01*
X011020D01*
X011016Y006921D01*
X011000Y006932D01*
X010980Y006936D01*
X010960Y006932D01*
X010944Y006921D01*
X010933Y006905D01*
X010929Y006888D01*
X010923Y006883D01*
X010910Y006889D01*
X010907Y006905D01*
X010896Y006921D01*
X010880Y006932D01*
X010860Y006936D01*
X010840Y006932D01*
X010824Y006921D01*
X010813Y006905D01*
X010812Y006901D01*
X010799D01*
X010799Y006905D01*
X010787Y006921D01*
X010771Y006932D01*
X010751Y006936D01*
X010732Y006932D01*
X010715Y006921D01*
X010704Y006905D01*
X010702Y006893D01*
X010688Y006886D01*
X010680Y006892D01*
X010660Y006896D01*
X010640Y006892D01*
X010624Y006881D01*
X010618Y006873D01*
X010594Y006872D01*
X010580Y006882D01*
X010560Y006886D01*
X010540Y006882D01*
X010524Y006871D01*
X010513Y006855D01*
X010509Y006835D01*
X010505Y006830D01*
X010198D01*
X010198Y006830D01*
X010187Y006828D01*
X010177Y006821D01*
X010177Y006821D01*
X009910Y006554D01*
X009719D01*
X009714Y006562D01*
X009698Y006573D01*
X009678Y006577D01*
X009658Y006573D01*
X009642Y006562D01*
X009631Y006546D01*
X009627Y006526D01*
X009631Y006507D01*
X009642Y006490D01*
X009642Y006489D01*
X009559Y006406D01*
X009514D01*
X009502Y006403D01*
X009492Y006397D01*
X009492Y006397D01*
X009211Y006116D01*
X008570D01*
X008566Y006121D01*
X008550Y006132D01*
X008530Y006136D01*
X008510Y006132D01*
X008494Y006121D01*
X008483Y006105D01*
X008482Y006099D01*
X008470Y006096D01*
X008376Y006189D01*
X008387Y006206D01*
X008391Y006225D01*
X008387Y006245D01*
X008376Y006261D01*
X008360Y006272D01*
X008340Y006276D01*
X008320Y006272D01*
X008304Y006261D01*
X008293Y006245D01*
X008289Y006225D01*
X008293Y006206D01*
X008304Y006189D01*
X008309Y006186D01*
Y006155D01*
X008309Y006155D01*
X008312Y006143D01*
X008318Y006134D01*
X008404Y006048D01*
X008402Y006042D01*
X008398Y006036D01*
X008380Y006032D01*
X008364Y006021D01*
X008353Y006005D01*
X008349Y005985D01*
X008353Y005966D01*
X008364Y005949D01*
X008378Y005939D01*
X008380Y005931D01*
X008380Y005925D01*
X008374Y005921D01*
X008363Y005905D01*
X008359Y005885D01*
X008363Y005866D01*
X008374Y005849D01*
X008390Y005838D01*
X008410Y005834D01*
X008430Y005838D01*
X008446Y005849D01*
X008457Y005866D01*
X008461Y005885D01*
X008457Y005905D01*
X008446Y005921D01*
X008432Y005931D01*
X008430Y005940D01*
X008430Y005945D01*
X008436Y005949D01*
X008447Y005966D01*
X008451Y005983D01*
X008457Y005987D01*
X008463Y005989D01*
X008489Y005963D01*
Y005930D01*
X008489Y005930D01*
X008492Y005919D01*
X008498Y005909D01*
X008594Y005814D01*
X008594Y005814D01*
X008603Y005807D01*
X008615Y005805D01*
X008665D01*
X008665Y005805D01*
X008665Y005805D01*
X008676D01*
X008676Y005805D01*
X008688Y005807D01*
X008698Y005814D01*
X008811Y005927D01*
X009923D01*
X010222Y005628D01*
X010223Y005626D01*
X010234Y005609D01*
X010250Y005598D01*
X010270Y005594D01*
X010290Y005598D01*
X010306Y005609D01*
X010317Y005625D01*
X010320D01*
X010317Y005628D01*
X010321Y005645D01*
X010317Y005665D01*
X010306Y005681D01*
X010290Y005692D01*
X010270Y005696D01*
X010253Y005693D01*
X010040Y005905D01*
Y006245D01*
X010700D01*
X010710Y006233D01*
X010709Y006225D01*
X010713Y006206D01*
X010724Y006189D01*
X010740Y006178D01*
X010760Y006174D01*
X010766Y006176D01*
X010843Y006099D01*
X010853Y006093D01*
X010864Y006090D01*
X010864Y006090D01*
X011186D01*
X011312Y005964D01*
X011308Y005950D01*
X011294Y005941D01*
X011283Y005925D01*
X011281Y005915D01*
X011330D01*
Y005895D01*
X011281D01*
X011283Y005886D01*
X011294Y005869D01*
X011301Y005864D01*
X011297Y005852D01*
X011247D01*
X011122Y005977D01*
X011112Y005983D01*
X011100Y005986D01*
X011100Y005986D01*
X010853D01*
X010709Y006130D01*
X010710Y006136D01*
X010706Y006156D01*
X010695Y006172D01*
X010679Y006183D01*
X010659Y006187D01*
X010640Y006183D01*
X010623Y006172D01*
X010612Y006156D01*
X010608Y006136D01*
X010611Y006123D01*
X010600Y006116D01*
X010580Y006119D01*
X010560Y006116D01*
X010544Y006105D01*
X010533Y006088D01*
X010521Y006084D01*
X010519Y006084D01*
X010508Y006086D01*
X010508Y006086D01*
X010450D01*
X010446Y006091D01*
X010430Y006102D01*
X010410Y006106D01*
X010390Y006102D01*
X010374Y006091D01*
X010364Y006077D01*
X010351Y006073D01*
X010346Y006077D01*
X010337Y006083D01*
X010325Y006086D01*
X010325Y006086D01*
X010290D01*
X010286Y006091D01*
X010270Y006102D01*
X010250Y006106D01*
X010230Y006102D01*
X010214Y006091D01*
X010203Y006075D01*
X010199Y006055D01*
X010203Y006036D01*
X010214Y006019D01*
X010230Y006008D01*
X010250Y006004D01*
Y005944D01*
X010372Y005822D01*
Y005795D01*
X010372Y005795D01*
X010374Y005783D01*
X010381Y005773D01*
X010493Y005660D01*
X010493Y005648D01*
X010288Y005453D01*
X009995Y005747D01*
X009985Y005753D01*
X009983Y005754D01*
X009980Y005757D01*
X009970Y005763D01*
X009958Y005766D01*
X009958Y005766D01*
X008904D01*
X008900Y005778D01*
X008900Y005778D01*
X008916Y005789D01*
X008927Y005806D01*
X008931Y005825D01*
X008927Y005845D01*
X008916Y005861D01*
X008900Y005872D01*
X008880Y005876D01*
X008860Y005872D01*
X008844Y005861D01*
X008833Y005845D01*
X008829Y005825D01*
X008833Y005806D01*
X008844Y005789D01*
X008860Y005778D01*
X008860Y005777D01*
X008858Y005766D01*
X008846Y005763D01*
X008836Y005757D01*
X008827Y005747D01*
X008817Y005755D01*
X008817Y005756D01*
X008819Y005765D01*
X008780D01*
Y005726D01*
X008790Y005728D01*
X008790Y005728D01*
X008798Y005719D01*
X008765Y005686D01*
X008690D01*
X008686Y005691D01*
X008670Y005702D01*
X008650Y005706D01*
X008630Y005702D01*
X008614Y005691D01*
X008603Y005675D01*
X008599Y005655D01*
X008603Y005636D01*
X008614Y005619D01*
X008630Y005608D01*
X008646Y005605D01*
X008647Y005596D01*
X008640Y005586D01*
X008620Y005582D01*
X008604Y005571D01*
X008593Y005555D01*
X008589Y005535D01*
X008593Y005516D01*
X008604Y005499D01*
X008620Y005488D01*
X008640Y005484D01*
X008646Y005486D01*
X008668Y005464D01*
X008678Y005457D01*
X008690Y005455D01*
X008690Y005455D01*
X008721D01*
X008730Y005445D01*
Y005396D01*
X008710Y005392D01*
X008694Y005381D01*
X008683Y005365D01*
X008679Y005345D01*
X008683Y005326D01*
X008694Y005309D01*
X008710Y005298D01*
X008730Y005294D01*
X008750Y005298D01*
X008766Y005309D01*
X008777Y005326D01*
X008781Y005345D01*
X008780Y005352D01*
X008801Y005373D01*
X008920D01*
X008920Y005373D01*
X008931Y005375D01*
X008941Y005382D01*
X008984Y005425D01*
X009201D01*
X009208Y005412D01*
X009203Y005405D01*
X009199Y005385D01*
X009203Y005366D01*
X009214Y005349D01*
X009230Y005338D01*
X009250Y005334D01*
X009270Y005338D01*
X009286Y005349D01*
X009297Y005366D01*
X009301Y005385D01*
X009297Y005405D01*
X009292Y005412D01*
X009299Y005425D01*
X009571D01*
X009578Y005412D01*
X009573Y005405D01*
X009571Y005395D01*
X009620D01*
Y005385D01*
X009630D01*
Y005336D01*
X009635Y005337D01*
X009640Y005325D01*
X009634Y005321D01*
X009623Y005305D01*
X009621Y005297D01*
X009610Y005292D01*
X009610Y005292D01*
X009590Y005296D01*
X009570Y005292D01*
X009554Y005281D01*
X009543Y005265D01*
X009539Y005245D01*
X009543Y005226D01*
X009554Y005209D01*
X009570Y005198D01*
X009590Y005194D01*
X009610Y005198D01*
X009620Y005205D01*
X009631Y005197D01*
X009629Y005185D01*
X009633Y005166D01*
X009637Y005160D01*
X009630Y005147D01*
X009425D01*
X009418Y005160D01*
X009419Y005166D01*
X009321D01*
X009322Y005160D01*
X009316Y005149D01*
X009304D01*
X009298Y005160D01*
X009301Y005176D01*
X009297Y005196D01*
X009286Y005212D01*
X009270Y005224D01*
X009250Y005227D01*
X009230Y005224D01*
X009214Y005212D01*
X009203Y005196D01*
X009199Y005179D01*
X009188Y005172D01*
X009093Y005267D01*
X009084Y005273D01*
X009072Y005276D01*
X009072Y005276D01*
X008920D01*
X008916Y005281D01*
X008900Y005292D01*
X008880Y005296D01*
X008860Y005292D01*
X008844Y005281D01*
X008833Y005265D01*
X008829Y005245D01*
X008833Y005226D01*
X008844Y005209D01*
X008840Y005205D01*
X009185Y004869D01*
X009184Y004861D01*
X009173Y004845D01*
X009169Y004825D01*
X009173Y004806D01*
X009184Y004789D01*
X009200Y004778D01*
X009220Y004774D01*
X009240Y004778D01*
X009256Y004789D01*
X009262Y004799D01*
X009278D01*
X009284Y004789D01*
X009300Y004778D01*
X009320Y004774D01*
X009340Y004778D01*
X009356Y004789D01*
X009367Y004806D01*
X009371Y004825D01*
X009370Y004832D01*
X009443Y004905D01*
X010128D01*
X010177Y004856D01*
X010178Y004855D01*
X010178Y004850D01*
X010177Y004841D01*
X010162Y004831D01*
X010151Y004815D01*
X010151Y004811D01*
X010138D01*
X010137Y004815D01*
X010126Y004831D01*
X010110Y004842D01*
X010100Y004844D01*
Y004795D01*
Y004746D01*
X010110Y004748D01*
X010126Y004759D01*
X010137Y004776D01*
X010138Y004779D01*
X010151D01*
X010151Y004776D01*
X010162Y004759D01*
X010179Y004748D01*
X010199Y004744D01*
Y004706D01*
X010060D01*
X010056Y004711D01*
X010040Y004722D01*
X010020Y004726D01*
X010000Y004722D01*
X009984Y004711D01*
X009973Y004695D01*
X009969Y004675D01*
X009872D01*
X009810Y004737D01*
X009800Y004743D01*
X009789Y004746D01*
X009789Y004746D01*
X009689D01*
X009685Y004758D01*
X009686Y004759D01*
X009697Y004776D01*
X009701Y004795D01*
X009697Y004815D01*
X009686Y004831D01*
X009670Y004842D01*
X009650Y004846D01*
X009630Y004842D01*
X009614Y004831D01*
X009603Y004815D01*
X009601Y004808D01*
X009589D01*
X009587Y004815D01*
X009576Y004831D01*
X009560Y004842D01*
X009540Y004846D01*
X009520Y004842D01*
X009504Y004831D01*
X009493Y004815D01*
X009489Y004796D01*
X009473Y004800D01*
X009454Y004796D01*
X009437Y004785D01*
X009426Y004768D01*
X009422Y004749D01*
X009426Y004729D01*
X009437Y004713D01*
X009454Y004702D01*
X009473Y004698D01*
X009482Y004699D01*
X009508Y004674D01*
X009508Y004674D01*
X009518Y004667D01*
X009530Y004665D01*
X009567D01*
X009578Y004654D01*
X009578Y004654D01*
X009588Y004647D01*
X009600Y004645D01*
X009600Y004645D01*
X009759D01*
X010030Y004374D01*
X010030Y004374D01*
X010040Y004367D01*
X010052Y004365D01*
X010052Y004365D01*
X011063D01*
X011071Y004355D01*
X011069Y004345D01*
X011073Y004326D01*
X011084Y004309D01*
X011100Y004298D01*
X011120Y004294D01*
X011140Y004298D01*
X011156Y004309D01*
X011167Y004326D01*
X011171Y004345D01*
X011167Y004365D01*
X011156Y004381D01*
X011140Y004392D01*
X011137Y004393D01*
X011133Y004405D01*
X011373Y004645D01*
X011782D01*
X011846Y004581D01*
X011846Y004581D01*
X011856Y004574D01*
X011867Y004572D01*
X011973D01*
X011973Y004572D01*
X011981Y004567D01*
X011983Y004556D01*
X011994Y004539D01*
X012010Y004528D01*
X012020Y004526D01*
Y004575D01*
X012030D01*
Y004585D01*
X012079D01*
X012077Y004595D01*
X012066Y004611D01*
X012052Y004621D01*
X012048Y004635D01*
X012058Y004645D01*
X012300D01*
Y004475D01*
X011490D01*
X011120Y004105D01*
X011120Y004035D01*
X011090Y004005D01*
X010490D01*
X010270Y004225D01*
X009970D01*
X009941Y004254D01*
X009732Y004485D01*
X009500D01*
X009496Y004491D01*
X009480Y004502D01*
X009460Y004506D01*
X009440Y004502D01*
X009424Y004491D01*
X009420Y004485D01*
X009259D01*
X009251Y004495D01*
X009251Y004495D01*
X009247Y004515D01*
X009236Y004531D01*
X009220Y004542D01*
X009200Y004546D01*
X009180Y004542D01*
X009164Y004531D01*
X009159Y004524D01*
X009143Y004522D01*
X008400Y005265D01*
X008400Y005755D01*
X008140Y006015D01*
Y006615D01*
X008990Y007465D01*
X009356Y007471D01*
X009360Y007468D01*
X009380Y007464D01*
X009400Y007468D01*
X009405Y007472D01*
X009852Y007479D01*
X009860Y007469D01*
X009859Y007465D01*
X009863Y007446D01*
X009874Y007429D01*
X009890Y007418D01*
X009910Y007414D01*
X009930Y007418D01*
X009946Y007429D01*
X009957Y007445D01*
X009957Y007446D01*
X009970Y007448D01*
X009984Y007430D01*
X010009Y007410D01*
X010039Y007398D01*
X010070Y007394D01*
X010101Y007398D01*
X010131Y007410D01*
X010156Y007430D01*
X010175Y007455D01*
X010184Y007476D01*
X010198Y007478D01*
X010204Y007469D01*
X010220Y007458D01*
X010240Y007454D01*
X010260Y007458D01*
X010276Y007469D01*
X010287Y007486D01*
X010291Y007503D01*
X010322Y007531D01*
X010332Y007522D01*
X010332Y007522D01*
X010329Y007510D01*
X010329Y007510D01*
Y007505D01*
X010324Y007501D01*
X010313Y007485D01*
X010309Y007465D01*
X010313Y007446D01*
X010324Y007429D01*
X010340Y007418D01*
X010360Y007414D01*
X010380Y007418D01*
X010396Y007429D01*
X010407Y007446D01*
X010411Y007465D01*
X010407Y007485D01*
X010396Y007501D01*
X010396Y007503D01*
X010441Y007547D01*
X010454Y007543D01*
X010464Y007529D01*
X010480Y007518D01*
X010500Y007514D01*
X010520Y007518D01*
X010536Y007529D01*
X010547Y007546D01*
X010551Y007565D01*
X010549Y007577D01*
X010560Y007585D01*
X010570Y007578D01*
X010590Y007574D01*
X010610Y007578D01*
X010621Y007586D01*
X010630Y007588D01*
X010639Y007586D01*
X010650Y007578D01*
X010670Y007574D01*
X010690Y007578D01*
X010706Y007589D01*
X010717Y007606D01*
X010721Y007625D01*
X010718Y007642D01*
X010725Y007655D01*
X011589D01*
Y007524D01*
D02*
G37*
G36*
X007530Y005657D02*
X007527Y005653D01*
X007517Y005630D01*
X007514Y005605D01*
X007517Y005580D01*
X007527Y005557D01*
X007530Y005553D01*
Y005505D01*
X008080D01*
X008360Y005225D01*
X009200Y004385D01*
X009540Y004385D01*
X009720Y004205D01*
Y003905D01*
X009510D01*
X009400Y004095D01*
X009220D01*
X009192Y004123D01*
X009199Y004134D01*
X009200Y004134D01*
X009220Y004138D01*
X009236Y004149D01*
X009247Y004166D01*
X009251Y004185D01*
X009247Y004205D01*
X009236Y004221D01*
X009220Y004232D01*
X009200Y004236D01*
X009180Y004232D01*
X009164Y004221D01*
X009153Y004205D01*
X009149Y004185D01*
X009149Y004184D01*
X009138Y004178D01*
X008539Y004777D01*
Y004814D01*
X008501D01*
X007984Y005331D01*
X007374D01*
X007280Y005425D01*
Y005735D01*
X007530D01*
Y005657D01*
D02*
G37*
G36*
X009980Y004175D02*
X009974Y004163D01*
X009970Y004164D01*
Y004125D01*
X010009D01*
X010008Y004129D01*
X010020Y004135D01*
X010141Y004014D01*
X010233Y003922D01*
X010858Y003927D01*
X010859Y003925D01*
X010863Y003906D01*
X010874Y003889D01*
X010890Y003878D01*
X010910Y003874D01*
X010930Y003878D01*
X010941Y003886D01*
X010950Y003888D01*
X010959Y003886D01*
X010970Y003878D01*
X010990Y003874D01*
X011010Y003878D01*
X011026Y003889D01*
X011037Y003906D01*
X011041Y003925D01*
X011043Y003928D01*
X011081Y003928D01*
X011193Y004056D01*
X011193Y004150D01*
X011249Y004205D01*
X011422Y004205D01*
X011464Y004164D01*
X011464Y004056D01*
X011311Y004056D01*
X011092Y003815D01*
X010020Y003815D01*
X009783Y004052D01*
X009783Y004144D01*
X009861Y004222D01*
X009933D01*
X009980Y004175D01*
D02*
G37*
G36*
X008090Y006065D02*
X007730D01*
X007480Y005815D01*
X007250D01*
Y005415D01*
X007470Y005195D01*
X007780D01*
X008150Y004826D01*
X008145Y004814D01*
X008101D01*
Y004637D01*
X008279D01*
Y004680D01*
X008290Y004685D01*
X008387Y004588D01*
X008373Y004570D01*
X008364Y004548D01*
X008361Y004525D01*
X008364Y004502D01*
X008373Y004481D01*
X008387Y004462D01*
X008405Y004448D01*
X008427Y004439D01*
X008450Y004436D01*
X008473Y004439D01*
X008495Y004448D01*
X008513Y004462D01*
X008789Y004186D01*
X008789Y004185D01*
X008793Y004166D01*
X008804Y004149D01*
X008820Y004138D01*
X008840Y004134D01*
X008841Y004134D01*
X009200Y003775D01*
X011070D01*
X011088Y003795D01*
X011092D01*
X011092Y003795D01*
X011093Y003795D01*
X011096Y003796D01*
X011100Y003796D01*
X011100Y003797D01*
X011100Y003797D01*
X011103Y003799D01*
X011106Y003801D01*
X011106Y003801D01*
X011107Y003801D01*
X011279Y003991D01*
X011291Y003985D01*
X011340D01*
Y003975D01*
X011350D01*
Y003926D01*
X011360Y003928D01*
X011370Y003935D01*
X011380Y003928D01*
X011390Y003926D01*
Y003975D01*
X011410D01*
Y003926D01*
X011420Y003928D01*
X011435Y003938D01*
X011450Y003928D01*
X011460Y003926D01*
Y003975D01*
X011470D01*
Y003985D01*
X011519D01*
X011517Y003995D01*
X011512Y004002D01*
X011519Y004015D01*
X011580D01*
X011580Y003465D01*
X010949D01*
X010945Y003469D01*
X010941Y003489D01*
X010930Y003505D01*
X010914Y003517D01*
X010894Y003520D01*
X010875Y003517D01*
X010858Y003505D01*
X010847Y003489D01*
X010843Y003469D01*
X010840Y003465D01*
X008780D01*
X008273Y003972D01*
X008274Y003973D01*
X008283Y003995D01*
X008286Y004018D01*
X008283Y004041D01*
X008274Y004062D01*
X008260Y004081D01*
X008242Y004095D01*
X008220Y004104D01*
X008197Y004107D01*
X008174Y004104D01*
X008152Y004095D01*
X008151Y004094D01*
X008019Y004226D01*
X008020Y004227D01*
X008029Y004249D01*
X008032Y004272D01*
X008029Y004295D01*
X008020Y004316D01*
X008006Y004335D01*
X007988Y004349D01*
X007966Y004358D01*
X007943Y004361D01*
X007920Y004358D01*
X007898Y004349D01*
X007897Y004348D01*
X007010Y005235D01*
X007010Y005865D01*
X007600Y006455D01*
X008090D01*
Y006065D01*
D02*
G37*
%LPC*%
G36*
X011500Y007624D02*
Y007585D01*
X011539D01*
X011537Y007595D01*
X011526Y007611D01*
X011510Y007622D01*
X011500Y007624D01*
D02*
G37*
G36*
X011480D02*
X011470Y007622D01*
X011454Y007611D01*
X011443Y007595D01*
X011441Y007585D01*
X011480D01*
Y007624D01*
D02*
G37*
G36*
X010520Y007496D02*
X010500Y007492D01*
X010484Y007481D01*
X010473Y007465D01*
X010469Y007445D01*
X010473Y007426D01*
X010484Y007409D01*
X010500Y007398D01*
X010520Y007394D01*
X010540Y007398D01*
X010556Y007409D01*
X010567Y007426D01*
X010571Y007445D01*
X010567Y007465D01*
X010556Y007481D01*
X010540Y007492D01*
X010520Y007496D01*
D02*
G37*
G36*
X009000Y007346D02*
X008980Y007342D01*
X008964Y007331D01*
X008953Y007315D01*
X008949Y007295D01*
X008953Y007276D01*
X008964Y007259D01*
X008973Y007253D01*
Y007238D01*
X008964Y007231D01*
X008953Y007215D01*
X008951Y007205D01*
X009049D01*
X009047Y007215D01*
X009036Y007231D01*
X009027Y007238D01*
Y007253D01*
X009036Y007259D01*
X009047Y007276D01*
X009051Y007295D01*
X009047Y007315D01*
X009036Y007331D01*
X009020Y007342D01*
X009000Y007346D01*
D02*
G37*
G36*
X009280Y007286D02*
X009260Y007282D01*
X009244Y007271D01*
X009233Y007255D01*
X009229Y007235D01*
X009233Y007216D01*
X009244Y007199D01*
X009260Y007188D01*
X009280Y007184D01*
X009300Y007188D01*
X009316Y007199D01*
X009327Y007216D01*
X009331Y007235D01*
X009327Y007255D01*
X009316Y007271D01*
X009300Y007282D01*
X009280Y007286D01*
D02*
G37*
G36*
X009049Y007185D02*
X008951D01*
X008953Y007176D01*
X008964Y007159D01*
X008973Y007153D01*
Y007138D01*
X008964Y007131D01*
X008953Y007115D01*
X008951Y007105D01*
X009049D01*
X009047Y007115D01*
X009036Y007131D01*
X009027Y007138D01*
Y007153D01*
X009036Y007159D01*
X009047Y007176D01*
X009049Y007185D01*
D02*
G37*
G36*
Y007085D02*
X009010D01*
Y007046D01*
X009020Y007048D01*
X009036Y007059D01*
X009047Y007076D01*
X009049Y007085D01*
D02*
G37*
G36*
X008990D02*
X008951D01*
X008953Y007076D01*
X008964Y007059D01*
X008980Y007048D01*
X008990Y007046D01*
Y007085D01*
D02*
G37*
G36*
X011190Y007037D02*
Y006998D01*
X011229D01*
X011227Y007008D01*
X011216Y007024D01*
X011200Y007035D01*
X011190Y007037D01*
D02*
G37*
G36*
X011170D02*
X011160Y007035D01*
X011144Y007024D01*
X011133Y007008D01*
X011131Y006998D01*
X011170D01*
Y007037D01*
D02*
G37*
G36*
X011380Y007024D02*
X011370Y007022D01*
X011354Y007011D01*
X011343Y006995D01*
X011341Y006985D01*
X011380D01*
Y007024D01*
D02*
G37*
G36*
X008690Y007056D02*
X008670Y007052D01*
X008654Y007041D01*
X008643Y007025D01*
X008639Y007005D01*
X008643Y006986D01*
X008654Y006969D01*
X008670Y006958D01*
X008690Y006954D01*
X008710Y006958D01*
X008726Y006969D01*
X008737Y006986D01*
X008741Y007005D01*
X008737Y007025D01*
X008726Y007041D01*
X008710Y007052D01*
X008690Y007056D01*
D02*
G37*
G36*
X011229Y006978D02*
X011190D01*
Y006939D01*
X011200Y006941D01*
X011216Y006952D01*
X011227Y006969D01*
X011229Y006978D01*
D02*
G37*
G36*
X011170D02*
X011131D01*
X011133Y006969D01*
X011144Y006952D01*
X011160Y006941D01*
X011170Y006939D01*
Y006978D01*
D02*
G37*
G36*
X010380Y006938D02*
X010341D01*
X010343Y006928D01*
X010354Y006912D01*
X010370Y006900D01*
X010380Y006899D01*
Y006938D01*
D02*
G37*
G36*
X009890D02*
X009851D01*
X009853Y006928D01*
X009864Y006912D01*
X009880Y006900D01*
X009890Y006899D01*
Y006938D01*
D02*
G37*
G36*
X009440Y006786D02*
X009420Y006782D01*
X009404Y006771D01*
X009393Y006755D01*
X009389Y006735D01*
X009393Y006716D01*
X009404Y006699D01*
X009420Y006688D01*
X009440Y006684D01*
X009460Y006688D01*
X009476Y006699D01*
X009487Y006716D01*
X009491Y006735D01*
X009487Y006755D01*
X009476Y006771D01*
X009460Y006782D01*
X009440Y006786D01*
D02*
G37*
G36*
X009666Y006759D02*
X009646Y006755D01*
X009630Y006744D01*
X009618Y006727D01*
X009615Y006708D01*
X009618Y006688D01*
X009630Y006672D01*
X009646Y006660D01*
X009666Y006657D01*
X009673Y006658D01*
X009682Y006647D01*
X009685Y006630D01*
X009696Y006614D01*
X009713Y006603D01*
X009732Y006599D01*
X009752Y006603D01*
X009768Y006614D01*
X009779Y006630D01*
X009783Y006650D01*
X009779Y006669D01*
X009768Y006686D01*
X009752Y006697D01*
X009732Y006701D01*
X009725Y006699D01*
X009716Y006710D01*
X009713Y006727D01*
X009702Y006744D01*
X009685Y006755D01*
X009666Y006759D01*
D02*
G37*
G36*
X009320Y006656D02*
X009300Y006652D01*
X009284Y006641D01*
X009273Y006625D01*
X009269Y006605D01*
X009273Y006586D01*
X009284Y006569D01*
X009300Y006558D01*
X009320Y006554D01*
X009340Y006558D01*
X009356Y006569D01*
X009367Y006586D01*
X009371Y006605D01*
X009367Y006625D01*
X009356Y006641D01*
X009340Y006652D01*
X009320Y006656D01*
D02*
G37*
G36*
X009218Y006554D02*
X009198Y006550D01*
X009182Y006539D01*
X009170Y006522D01*
X009167Y006503D01*
X009170Y006483D01*
X009182Y006467D01*
X009198Y006456D01*
X009218Y006452D01*
X009237Y006456D01*
X009254Y006467D01*
X009258Y006473D01*
X009270Y006468D01*
X009269Y006465D01*
X009273Y006446D01*
X009284Y006429D01*
X009300Y006418D01*
X009320Y006414D01*
X009340Y006418D01*
X009356Y006429D01*
X009367Y006446D01*
X009371Y006465D01*
X009367Y006485D01*
X009356Y006501D01*
X009340Y006512D01*
X009320Y006516D01*
X009300Y006512D01*
X009284Y006501D01*
X009280Y006495D01*
X009268Y006500D01*
X009269Y006503D01*
X009265Y006522D01*
X009254Y006539D01*
X009237Y006550D01*
X009218Y006554D01*
D02*
G37*
G36*
X008540Y006405D02*
X008530Y006403D01*
X008514Y006392D01*
X008503Y006375D01*
X008501Y006366D01*
X008540D01*
Y006405D01*
D02*
G37*
G36*
X008780Y005824D02*
Y005785D01*
X008819D01*
X008817Y005795D01*
X008806Y005811D01*
X008790Y005822D01*
X008780Y005824D01*
D02*
G37*
G36*
X008760D02*
X008750Y005822D01*
X008734Y005811D01*
X008723Y005795D01*
X008721Y005785D01*
X008760D01*
Y005824D01*
D02*
G37*
G36*
Y005765D02*
X008721D01*
X008723Y005756D01*
X008734Y005739D01*
X008750Y005728D01*
X008760Y005726D01*
Y005765D01*
D02*
G37*
G36*
X010310Y005816D02*
X010290Y005812D01*
X010274Y005801D01*
X010263Y005785D01*
X010259Y005765D01*
X010263Y005746D01*
X010274Y005729D01*
X010290Y005718D01*
X010310Y005714D01*
X010330Y005718D01*
X010346Y005729D01*
X010357Y005746D01*
X010361Y005765D01*
X010357Y005785D01*
X010346Y005801D01*
X010330Y005812D01*
X010310Y005816D01*
D02*
G37*
G36*
X008510Y005756D02*
X008490Y005752D01*
X008474Y005741D01*
X008463Y005725D01*
X008459Y005705D01*
X008463Y005686D01*
X008474Y005669D01*
X008490Y005658D01*
X008510Y005654D01*
X008530Y005658D01*
X008546Y005669D01*
X008557Y005686D01*
X008561Y005705D01*
X008557Y005725D01*
X008546Y005741D01*
X008530Y005752D01*
X008510Y005756D01*
D02*
G37*
G36*
X009610Y005375D02*
X009571D01*
X009573Y005366D01*
X009584Y005349D01*
X009600Y005338D01*
X009610Y005336D01*
Y005375D01*
D02*
G37*
G36*
X008510Y005336D02*
X008490Y005332D01*
X008474Y005321D01*
X008463Y005305D01*
X008459Y005285D01*
X008463Y005266D01*
X008474Y005249D01*
X008490Y005238D01*
X008510Y005234D01*
X008530Y005238D01*
X008546Y005249D01*
X008557Y005266D01*
X008561Y005285D01*
X008557Y005305D01*
X008546Y005321D01*
X008530Y005332D01*
X008510Y005336D01*
D02*
G37*
G36*
X009460Y005296D02*
X009440Y005292D01*
X009424Y005281D01*
X009413Y005265D01*
X009409Y005245D01*
X009413Y005226D01*
X009424Y005209D01*
X009440Y005198D01*
X009460Y005194D01*
X009480Y005198D01*
X009496Y005209D01*
X009507Y005226D01*
X009511Y005245D01*
X009507Y005265D01*
X009496Y005281D01*
X009480Y005292D01*
X009460Y005296D01*
D02*
G37*
G36*
X009380Y005225D02*
Y005186D01*
X009419D01*
X009417Y005196D01*
X009406Y005212D01*
X009390Y005224D01*
X009380Y005225D01*
D02*
G37*
G36*
X009360D02*
X009350Y005224D01*
X009334Y005212D01*
X009323Y005196D01*
X009321Y005186D01*
X009360D01*
Y005225D01*
D02*
G37*
G36*
X008920Y005094D02*
Y005055D01*
X008959D01*
X008957Y005065D01*
X008946Y005081D01*
X008930Y005092D01*
X008920Y005094D01*
D02*
G37*
G36*
X008900D02*
X008890Y005092D01*
X008874Y005081D01*
X008863Y005065D01*
X008861Y005055D01*
X008900D01*
Y005094D01*
D02*
G37*
G36*
X008959Y005035D02*
X008920D01*
Y004996D01*
X008930Y004998D01*
X008946Y005009D01*
X008957Y005026D01*
X008959Y005035D01*
D02*
G37*
G36*
X008900D02*
X008861D01*
X008863Y005026D01*
X008874Y005009D01*
X008890Y004998D01*
X008900Y004996D01*
Y005035D01*
D02*
G37*
G36*
X009070Y004884D02*
X009060Y004882D01*
X009049Y004875D01*
X009040Y004872D01*
X009031Y004875D01*
X009020Y004882D01*
X009010Y004884D01*
Y004835D01*
X009000D01*
Y004825D01*
X008951D01*
X008953Y004816D01*
X008960Y004805D01*
X008953Y004795D01*
X008951Y004785D01*
X009000D01*
Y004775D01*
X009010D01*
Y004726D01*
X009020Y004728D01*
X009031Y004736D01*
X009040Y004738D01*
X009049Y004736D01*
X009060Y004728D01*
X009070Y004726D01*
Y004775D01*
X009080D01*
Y004785D01*
X009129D01*
X009127Y004795D01*
X009120Y004805D01*
X009127Y004816D01*
X009129Y004825D01*
X009080D01*
Y004835D01*
X009070D01*
Y004884D01*
D02*
G37*
G36*
X009090D02*
Y004845D01*
X009129D01*
X009127Y004855D01*
X009116Y004871D01*
X009100Y004882D01*
X009090Y004884D01*
D02*
G37*
G36*
X008990D02*
X008980Y004882D01*
X008964Y004871D01*
X008953Y004855D01*
X008951Y004845D01*
X008990D01*
Y004884D01*
D02*
G37*
G36*
X009990Y004846D02*
X009970Y004842D01*
X009954Y004831D01*
X009943Y004815D01*
X009939Y004795D01*
X009943Y004776D01*
X009954Y004759D01*
X009970Y004748D01*
X009990Y004744D01*
X010010Y004748D01*
X010026Y004759D01*
X010032Y004769D01*
X010048D01*
X010054Y004759D01*
X010070Y004748D01*
X010080Y004746D01*
Y004795D01*
Y004844D01*
X010070Y004842D01*
X010054Y004831D01*
X010048Y004822D01*
X010032D01*
X010026Y004831D01*
X010010Y004842D01*
X009990Y004846D01*
D02*
G37*
G36*
X009129Y004765D02*
X009090D01*
Y004726D01*
X009100Y004728D01*
X009116Y004739D01*
X009127Y004756D01*
X009129Y004765D01*
D02*
G37*
G36*
X008990D02*
X008951D01*
X008953Y004756D01*
X008964Y004739D01*
X008980Y004728D01*
X008990Y004726D01*
Y004765D01*
D02*
G37*
G36*
X009200Y004674D02*
Y004635D01*
X009239D01*
X009237Y004645D01*
X009226Y004661D01*
X009210Y004672D01*
X009200Y004674D01*
D02*
G37*
G36*
X009180D02*
X009170Y004672D01*
X009154Y004661D01*
X009143Y004645D01*
X009141Y004635D01*
X009180D01*
Y004674D01*
D02*
G37*
G36*
X009239Y004615D02*
X009200D01*
Y004576D01*
X009210Y004578D01*
X009226Y004589D01*
X009237Y004606D01*
X009239Y004615D01*
D02*
G37*
G36*
X009180D02*
X009141D01*
X009143Y004606D01*
X009154Y004589D01*
X009170Y004578D01*
X009180Y004576D01*
Y004615D01*
D02*
G37*
G36*
X012079Y004565D02*
X012040D01*
Y004526D01*
X012050Y004528D01*
X012066Y004539D01*
X012077Y004556D01*
X012079Y004565D01*
D02*
G37*
G36*
X010001Y004365D02*
Y004326D01*
X010040D01*
X010038Y004336D01*
X010027Y004352D01*
X010010Y004363D01*
X010001Y004365D01*
D02*
G37*
G36*
X009981D02*
X009971Y004363D01*
X009955Y004352D01*
X009944Y004336D01*
X009942Y004326D01*
X009981D01*
Y004365D01*
D02*
G37*
G36*
X010040Y004306D02*
X010001D01*
Y004267D01*
X010010Y004269D01*
X010027Y004280D01*
X010038Y004297D01*
X010040Y004306D01*
D02*
G37*
G36*
X009981D02*
X009942D01*
X009944Y004297D01*
X009955Y004280D01*
X009971Y004269D01*
X009981Y004267D01*
Y004306D01*
D02*
G37*
G36*
X011060Y004124D02*
Y004085D01*
X011099D01*
X011097Y004095D01*
X011086Y004111D01*
X011070Y004122D01*
X011060Y004124D01*
D02*
G37*
G36*
X011040D02*
X011030Y004122D01*
X011014Y004111D01*
X011003Y004095D01*
X011001Y004085D01*
X011040D01*
Y004124D01*
D02*
G37*
G36*
X011099Y004065D02*
X011060D01*
Y004026D01*
X011070Y004028D01*
X011086Y004039D01*
X011097Y004056D01*
X011099Y004065D01*
D02*
G37*
G36*
X011040D02*
X011001D01*
X011003Y004056D01*
X011014Y004039D01*
X011030Y004028D01*
X011040Y004026D01*
Y004065D01*
D02*
G37*
G36*
X010640Y004126D02*
X010620Y004122D01*
X010604Y004111D01*
X010593Y004095D01*
X010589Y004075D01*
X010593Y004056D01*
X010604Y004039D01*
X010620Y004028D01*
X010640Y004024D01*
X010660Y004028D01*
X010676Y004039D01*
X010687Y004056D01*
X010691Y004075D01*
X010687Y004095D01*
X010676Y004111D01*
X010660Y004122D01*
X010640Y004126D01*
D02*
G37*
G36*
X007420Y005704D02*
Y005665D01*
X007459D01*
X007457Y005675D01*
X007446Y005691D01*
X007430Y005702D01*
X007420Y005704D01*
D02*
G37*
G36*
X007400D02*
X007390Y005702D01*
X007374Y005691D01*
X007363Y005675D01*
X007361Y005665D01*
X007400D01*
Y005704D01*
D02*
G37*
G36*
X007459Y005645D02*
X007361D01*
X007363Y005636D01*
X007371Y005624D01*
X007373Y005615D01*
X007371Y005606D01*
X007363Y005595D01*
X007361Y005585D01*
X007459D01*
X007457Y005595D01*
X007449Y005606D01*
X007447Y005615D01*
X007449Y005624D01*
X007457Y005636D01*
X007459Y005645D01*
D02*
G37*
G36*
Y005565D02*
X007361D01*
X007363Y005556D01*
X007374Y005539D01*
X007378Y005537D01*
Y005524D01*
X007374Y005521D01*
X007363Y005505D01*
X007361Y005495D01*
X007459D01*
X007457Y005505D01*
X007446Y005521D01*
X007442Y005524D01*
Y005537D01*
X007446Y005539D01*
X007457Y005556D01*
X007459Y005565D01*
D02*
G37*
G36*
X007459Y005475D02*
X007420D01*
Y005436D01*
X007430Y005438D01*
X007446Y005449D01*
X007457Y005466D01*
X007459Y005475D01*
D02*
G37*
G36*
X007400D02*
X007361D01*
X007363Y005466D01*
X007374Y005449D01*
X007390Y005438D01*
X007400Y005436D01*
Y005475D01*
D02*
G37*
G36*
X009640Y004124D02*
X009630Y004122D01*
X009615Y004112D01*
X009600Y004122D01*
X009590Y004124D01*
Y004075D01*
X009580D01*
Y004065D01*
X009531D01*
X009533Y004056D01*
X009543Y004040D01*
X009533Y004025D01*
X009531Y004015D01*
X009580D01*
Y004005D01*
X009590D01*
Y003956D01*
X009600Y003958D01*
X009615Y003968D01*
X009630Y003958D01*
X009640Y003956D01*
Y004005D01*
X009650D01*
Y004015D01*
X009699D01*
X009697Y004025D01*
X009687Y004040D01*
X009697Y004056D01*
X009699Y004065D01*
X009650D01*
Y004075D01*
X009640D01*
Y004124D01*
D02*
G37*
G36*
X009660D02*
Y004085D01*
X009699D01*
X009697Y004095D01*
X009686Y004111D01*
X009670Y004122D01*
X009660Y004124D01*
D02*
G37*
G36*
X009570D02*
X009560Y004122D01*
X009544Y004111D01*
X009533Y004095D01*
X009531Y004085D01*
X009570D01*
Y004124D01*
D02*
G37*
G36*
X009699Y003995D02*
X009660D01*
Y003956D01*
X009670Y003958D01*
X009686Y003969D01*
X009697Y003986D01*
X009699Y003995D01*
D02*
G37*
G36*
X009570D02*
X009531D01*
X009533Y003986D01*
X009544Y003969D01*
X009560Y003958D01*
X009570Y003956D01*
Y003995D01*
D02*
G37*
G36*
X011390Y004174D02*
X011380Y004172D01*
X011370Y004165D01*
X011360Y004172D01*
X011350Y004174D01*
Y004125D01*
Y004076D01*
X011360Y004078D01*
X011370Y004085D01*
X011380Y004078D01*
X011390Y004076D01*
Y004125D01*
Y004174D01*
D02*
G37*
G36*
X011330D02*
X011320Y004172D01*
X011310Y004165D01*
X011300Y004172D01*
X011290Y004174D01*
Y004125D01*
Y004076D01*
X011300Y004078D01*
X011310Y004085D01*
X011320Y004078D01*
X011330Y004076D01*
Y004125D01*
Y004174D01*
D02*
G37*
G36*
X009950Y004164D02*
X009940Y004162D01*
X009930Y004155D01*
X009920Y004162D01*
X009910Y004164D01*
Y004115D01*
X009900D01*
Y004105D01*
X009851D01*
X009853Y004096D01*
X009860Y004085D01*
X009853Y004075D01*
X009851Y004065D01*
X009900D01*
Y004055D01*
X009910D01*
Y004006D01*
X009920Y004008D01*
X009930Y004015D01*
X009940Y004008D01*
X009950Y004006D01*
Y004055D01*
X009960D01*
Y004065D01*
X010009D01*
X010007Y004075D01*
X010000Y004085D01*
X010007Y004096D01*
X010009Y004105D01*
X009960D01*
Y004115D01*
X009950D01*
Y004164D01*
D02*
G37*
G36*
X011410Y004174D02*
Y004135D01*
X011449D01*
X011447Y004145D01*
X011436Y004161D01*
X011420Y004172D01*
X011410Y004174D01*
D02*
G37*
G36*
X011270D02*
X011260Y004172D01*
X011244Y004161D01*
X011233Y004145D01*
X011231Y004135D01*
X011270D01*
Y004174D01*
D02*
G37*
G36*
X009890Y004164D02*
X009880Y004162D01*
X009864Y004151D01*
X009853Y004135D01*
X009851Y004125D01*
X009890D01*
Y004164D01*
D02*
G37*
G36*
X011449Y004115D02*
X011410D01*
Y004076D01*
X011420Y004078D01*
X011436Y004089D01*
X011447Y004106D01*
X011449Y004115D01*
D02*
G37*
G36*
X011270D02*
X011231D01*
X011233Y004106D01*
X011244Y004089D01*
X011260Y004078D01*
X011270Y004076D01*
Y004115D01*
D02*
G37*
G36*
X010009Y004045D02*
X009970D01*
Y004006D01*
X009980Y004008D01*
X009996Y004019D01*
X010007Y004036D01*
X010009Y004045D01*
D02*
G37*
G36*
X009890D02*
X009851D01*
X009853Y004036D01*
X009864Y004019D01*
X009880Y004008D01*
X009890Y004006D01*
Y004045D01*
D02*
G37*
G36*
X007820Y006424D02*
Y006385D01*
X007859D01*
X007857Y006395D01*
X007846Y006411D01*
X007830Y006422D01*
X007820Y006424D01*
D02*
G37*
G36*
X007800D02*
X007790Y006422D01*
X007774Y006411D01*
X007763Y006395D01*
X007761Y006385D01*
X007800D01*
Y006424D01*
D02*
G37*
G36*
X007859Y006365D02*
X007820D01*
Y006326D01*
X007830Y006328D01*
X007846Y006339D01*
X007857Y006356D01*
X007859Y006365D01*
D02*
G37*
G36*
X007800D02*
X007761D01*
X007763Y006356D01*
X007774Y006339D01*
X007790Y006328D01*
X007800Y006326D01*
Y006365D01*
D02*
G37*
G36*
X007970Y006334D02*
X007960Y006332D01*
X007945Y006322D01*
X007930Y006332D01*
X007920Y006334D01*
Y006285D01*
X007910D01*
Y006275D01*
X007861D01*
X007863Y006266D01*
X007873Y006250D01*
X007863Y006235D01*
X007861Y006225D01*
X007910D01*
Y006215D01*
X007920D01*
Y006166D01*
X007930Y006168D01*
X007945Y006178D01*
X007960Y006168D01*
X007970Y006166D01*
Y006215D01*
X007980D01*
Y006225D01*
X008029D01*
X008027Y006235D01*
X008017Y006250D01*
X008027Y006266D01*
X008029Y006275D01*
X007980D01*
Y006285D01*
X007970D01*
Y006334D01*
D02*
G37*
G36*
X007990D02*
Y006295D01*
X008029D01*
X008027Y006305D01*
X008016Y006321D01*
X008000Y006332D01*
X007990Y006334D01*
D02*
G37*
G36*
X007900D02*
X007890Y006332D01*
X007874Y006321D01*
X007863Y006305D01*
X007861Y006295D01*
X007900D01*
Y006334D01*
D02*
G37*
G36*
X008029Y006205D02*
X007990D01*
Y006166D01*
X008000Y006168D01*
X008016Y006179D01*
X008027Y006196D01*
X008029Y006205D01*
D02*
G37*
G36*
X007900D02*
X007861D01*
X007863Y006196D01*
X007874Y006179D01*
X007890Y006168D01*
X007900Y006166D01*
Y006205D01*
D02*
G37*
G36*
X008190Y004615D02*
X008167Y004612D01*
X008145Y004603D01*
X008127Y004588D01*
X008113Y004570D01*
X008104Y004548D01*
X008101Y004525D01*
X008104Y004502D01*
X008113Y004481D01*
X008127Y004462D01*
X008145Y004448D01*
X008167Y004439D01*
X008190Y004436D01*
X008213Y004439D01*
X008235Y004448D01*
X008253Y004462D01*
X008267Y004481D01*
X008276Y004502D01*
X008279Y004525D01*
X008276Y004548D01*
X008267Y004570D01*
X008253Y004588D01*
X008235Y004603D01*
X008213Y004612D01*
X008190Y004615D01*
D02*
G37*
G36*
X008540Y004360D02*
X008362D01*
Y004183D01*
X008540D01*
Y004360D01*
D02*
G37*
G36*
X008197Y004361D02*
X008174Y004358D01*
X008152Y004349D01*
X008134Y004335D01*
X008120Y004316D01*
X008111Y004295D01*
X008108Y004272D01*
X008111Y004249D01*
X008120Y004227D01*
X008134Y004209D01*
X008152Y004194D01*
X008174Y004185D01*
X008197Y004182D01*
X008220Y004185D01*
X008242Y004194D01*
X008260Y004209D01*
X008274Y004227D01*
X008283Y004249D01*
X008286Y004272D01*
X008283Y004295D01*
X008274Y004316D01*
X008260Y004335D01*
X008242Y004349D01*
X008220Y004358D01*
X008197Y004361D01*
D02*
G37*
G36*
X008451Y004107D02*
X008428Y004104D01*
X008406Y004095D01*
X008388Y004081D01*
X008374Y004062D01*
X008365Y004041D01*
X008362Y004018D01*
X008365Y003995D01*
X008374Y003973D01*
X008388Y003955D01*
X008406Y003940D01*
X008428Y003931D01*
X008451Y003928D01*
X008474Y003931D01*
X008496Y003940D01*
X008514Y003955D01*
X008528Y003973D01*
X008537Y003995D01*
X008540Y004018D01*
X008537Y004041D01*
X008528Y004062D01*
X008514Y004081D01*
X008496Y004095D01*
X008474Y004104D01*
X008451Y004107D01*
D02*
G37*
G36*
X011519Y003965D02*
X011480D01*
Y003926D01*
X011490Y003928D01*
X011506Y003939D01*
X011517Y003956D01*
X011519Y003965D01*
D02*
G37*
G36*
X011330D02*
X011291D01*
X011293Y003956D01*
X011304Y003939D01*
X011320Y003928D01*
X011330Y003926D01*
Y003965D01*
D02*
G37*
G36*
X010818Y003654D02*
X010798Y003650D01*
X010781Y003639D01*
X010770Y003622D01*
X010767Y003603D01*
X010770Y003583D01*
X010781Y003567D01*
X010798Y003556D01*
X010818Y003552D01*
X010837Y003556D01*
X010854Y003567D01*
X010865Y003583D01*
X010869Y003603D01*
X010865Y003622D01*
X010854Y003639D01*
X010837Y003650D01*
X010818Y003654D01*
D02*
G37*
G36*
X011140Y003626D02*
X011120Y003622D01*
X011104Y003611D01*
X011093Y003595D01*
X011089Y003575D01*
X011093Y003556D01*
X011104Y003539D01*
X011120Y003528D01*
X011140Y003524D01*
X011160Y003528D01*
X011176Y003539D01*
X011187Y003556D01*
X011191Y003575D01*
X011187Y003595D01*
X011176Y003611D01*
X011160Y003622D01*
X011140Y003626D01*
D02*
G37*
%LPD*%
D14*
X011198Y006121D02*
X011354Y005965D01*
X010864Y006121D02*
X011198D01*
X011355Y005965D02*
X011405Y005915D01*
X011032Y004835D02*
X011240D01*
X010990Y004877D02*
X011032Y004835D01*
X011027Y004955D02*
X011270D01*
X010993Y004921D02*
X011027Y004955D01*
X010224Y004921D02*
X010993D01*
X011270Y004955D02*
X011330Y005015D01*
X010166Y004979D02*
X010224Y004921D01*
X010199Y004877D02*
X010990D01*
X011240Y004835D02*
X011380Y004975D01*
X012238Y005193D02*
X012300Y005255D01*
X012018Y005235D02*
X012073D01*
X012018Y005235D02*
X012018Y005235D01*
X011902Y005235D02*
X012018D01*
X011902Y005235D02*
X011902Y005235D01*
X011415Y005235D02*
X011902D01*
X012001Y005275D02*
X012057D01*
X012001Y005275D02*
X012001Y005275D01*
X011919Y005275D02*
X012001D01*
X011919Y005275D02*
X011919Y005275D01*
X011431Y005275D02*
X011919D01*
X011985Y005315D02*
X011985Y005315D01*
X011935Y005315D02*
X011985D01*
X011935Y005315D02*
X011935Y005315D01*
X011985Y005315D02*
X011985Y005315D01*
X011935D02*
X011935Y005315D01*
X011381Y005325D02*
X011431Y005275D01*
X011365Y005285D02*
X011415Y005235D01*
X011448Y005315D02*
X011935D01*
X011398Y005365D02*
X011448Y005315D01*
X011320Y005185D02*
X011352Y005153D01*
X011060Y005185D02*
X011320D01*
X011300Y005145D02*
X011340Y005105D01*
X011079Y005145D02*
X011300D01*
X011290Y005085D02*
X011320Y005055D01*
X011076Y005085D02*
X011290D01*
X010939Y005005D02*
X011079Y005145D01*
X011399Y005193D02*
X012238D01*
X012103Y005275D02*
X012223Y005395D01*
X012057Y005275D02*
X012103D01*
X012158Y005235D02*
X012228Y005305D01*
X012073Y005235D02*
X012158D01*
X012300Y005255D02*
X012430D01*
X012500Y005185D01*
X012378Y005153D02*
X012400Y005175D01*
X011352Y005153D02*
X012378D01*
X012060Y005113D02*
X012498D01*
X011950Y005003D02*
X012060Y005113D01*
X012498D02*
X012500Y005115D01*
X010391Y004664D02*
X010934D01*
X010369Y004624D02*
X010979D01*
X010020Y004575D02*
X011088D01*
X012996Y005754D02*
X013293Y005457D01*
X012851Y005754D02*
X012996D01*
X012867Y005794D02*
X013939D01*
X011037Y006842D02*
X012403D01*
X011020Y006825D02*
X011037Y006842D01*
X012403D02*
X012420Y006825D01*
X010980Y006885D02*
X012620D01*
X011457Y007093D02*
X011585Y006965D01*
X012380D01*
X012418Y007453D02*
X012420Y007455D01*
X012136Y007453D02*
X012418D01*
X012141Y007515D02*
X012750D01*
X012083Y007456D02*
X012141Y007515D01*
X012750D02*
X012918Y007683D01*
X012099Y007416D02*
X012136Y007453D01*
X019314Y005503D02*
X019320Y005509D01*
X019314Y005503D02*
Y005503D01*
X019320Y005509D02*
Y005915D01*
X018969Y005158D02*
X019314Y005503D01*
X018993Y005118D02*
X019430Y005555D01*
X019239Y005484D02*
Y006675D01*
X018953Y005198D02*
X019239Y005484D01*
X019170Y005472D02*
Y007114D01*
X018936Y005238D02*
X019170Y005472D01*
X019130Y005489D02*
Y006404D01*
X018919Y005278D02*
X019130Y005489D01*
X019070Y005485D02*
Y006155D01*
X018903Y005318D02*
X019070Y005485D01*
X019430Y005555D02*
X019450D01*
X012952Y005118D02*
X018993D01*
X012885Y005185D02*
X012952Y005118D01*
X019170Y007114D02*
X019239Y007183D01*
X019073Y006422D02*
X019112D01*
X019130Y006404D01*
X019070Y006425D02*
X019073Y006422D01*
X013036Y005278D02*
X018919D01*
X013053Y005318D02*
X018903D01*
X013019Y005238D02*
X018936D01*
X013003Y005198D02*
X018953D01*
X012973Y005158D02*
X018969D01*
X010340Y005245D02*
X011347D01*
X009940Y005645D02*
X010340Y005245D01*
X011347D02*
X011399Y005193D01*
X012500Y005185D02*
X012885D01*
X008950Y005645D02*
X009940D01*
X008790Y005485D02*
X008950Y005645D01*
X008690Y005485D02*
X008790D01*
X008640Y005535D02*
X008690Y005485D01*
X009973Y005725D02*
X010373Y005325D01*
X009968Y005725D02*
X009973D01*
X012223Y005395D02*
X012736D01*
X012973Y005158D01*
X010373Y005325D02*
X011381D01*
X008858Y005735D02*
X009958D01*
X008778Y005655D02*
X008858Y005735D01*
X009958D02*
X009968Y005725D01*
X008650Y005655D02*
X008778D01*
X012210Y005525D02*
X012676D01*
X012000Y005315D02*
X012210Y005525D01*
X010940Y005395D02*
X010940D01*
X010970Y005365D02*
X011398D01*
X010940Y005395D02*
X010970Y005365D01*
X012676Y005525D02*
X013003Y005198D01*
X011985Y005315D02*
X012000D01*
X010350Y005945D02*
X010402Y005893D01*
X010865Y005525D02*
X010900Y005490D01*
X010833Y005525D02*
X010865D01*
X010900Y005435D02*
X010940Y005395D01*
X010900Y005435D02*
Y005490D01*
X010402Y005795D02*
X010622Y005575D01*
X010402Y005795D02*
Y005893D01*
X010783Y005575D02*
X010833Y005525D01*
X010622Y005575D02*
X010783D01*
X012151Y005565D02*
X012692D01*
X012021Y005435D02*
X012151Y005565D01*
X010940Y005475D02*
Y005507D01*
X012010Y005435D02*
X012021D01*
X011700D02*
X011845D01*
X012010Y005435D02*
X012010Y005435D01*
X012692Y005565D02*
X013019Y005238D01*
X011845Y005435D02*
X011845Y005435D01*
X012010D01*
X011660Y005395D02*
X011700Y005435D01*
X011420Y005405D02*
X011430Y005395D01*
X011660D01*
X011010Y005405D02*
X011420D01*
X010454Y005885D02*
X010462D01*
X010443Y005811D02*
Y005873D01*
X010454Y005885D01*
X010940Y005475D02*
X011010Y005405D01*
X010881Y005565D02*
X010940Y005507D01*
X010608Y005645D02*
X010770D01*
X010443Y005811D02*
X010608Y005645D01*
X010850Y005565D02*
X010881D01*
X010770Y005645D02*
X010850Y005565D01*
X012015Y005655D02*
X012715D01*
X011700Y005595D02*
X011955D01*
X012715Y005655D02*
X013053Y005318D01*
X011955Y005595D02*
X012015Y005655D01*
X011660Y005555D02*
X011700Y005595D01*
X011008Y005555D02*
X011660D01*
X010410Y006055D02*
X010508D01*
X011008Y005555D01*
X013032Y005395D02*
X015650D01*
X015830Y005575D01*
X013080Y005455D02*
X013130D01*
X012712Y005715D02*
X013032Y005395D01*
X011982Y005715D02*
X012712D01*
X012135Y005605D02*
X012709D01*
X013036Y005278D01*
X012700Y005835D02*
X013080Y005455D01*
X011850Y004845D02*
X012660D01*
X011720Y004975D02*
X011850Y004845D01*
X012555Y005245D02*
X012730D01*
X012228Y005305D02*
X012495D01*
X012555Y005245D01*
X012730Y005875D02*
X012851Y005754D01*
X012770Y005892D02*
X012867Y005794D01*
X012635Y004715D02*
X012705Y004785D01*
X012005Y004715D02*
X012635D01*
X012705Y004785D02*
X012890D01*
X013293Y005457D02*
X015632D01*
X013146Y006232D02*
X013190Y006275D01*
X012038Y006232D02*
X013146D01*
X013160Y006348D02*
X013235D01*
X013297Y006286D01*
X012641D02*
X013098D01*
X013297D02*
X014021D01*
X013098D02*
X013160Y006348D01*
X012626Y006272D02*
X012641Y006286D01*
X012576Y006312D02*
X012620Y006355D01*
X012048Y007079D02*
X012914D01*
X012960Y007125D01*
X012060D02*
X012670D01*
X012740Y007195D01*
X015345Y007013D02*
X015429Y006929D01*
X015345Y007013D02*
Y007553D01*
X015350Y006675D02*
X015429D01*
X015292Y006734D02*
X015350Y006675D01*
X015252Y006534D02*
X015364Y006421D01*
X015429D01*
X015252Y006534D02*
Y007531D01*
X015196Y005789D02*
Y007529D01*
X015423Y005653D02*
X015429Y005659D01*
X015332Y005653D02*
X015423D01*
X015082Y007643D02*
X015196Y007529D01*
X015429Y005913D02*
X015431Y005915D01*
X015480D01*
X015590Y006025D01*
Y007005D01*
X015386Y007209D02*
Y007572D01*
Y007209D02*
X015590Y007005D01*
X015550Y007185D02*
X015676D01*
X015550Y007445D02*
X015722D01*
X015830Y007337D01*
Y005575D02*
Y007337D01*
X015676Y007185D02*
X015780Y007081D01*
Y005605D02*
Y007081D01*
X011523Y007235D02*
X012610D01*
X011463Y007295D02*
X011523Y007235D01*
X012335Y007730D02*
X012790D01*
X012304Y007690D02*
X012807D01*
X012145Y007650D02*
X012823D01*
X012040Y007545D02*
X012145Y007650D01*
X012823D02*
X012896Y007723D01*
X012155Y007585D02*
X012420D01*
X012066Y007496D02*
X012155Y007585D01*
X015632Y005457D02*
X015780Y005605D01*
X012005Y006095D02*
X012950D01*
X011953Y006148D02*
X012005Y006095D01*
X013319Y007643D02*
X015082D01*
X015196Y005789D02*
X015332Y005653D01*
X015100Y007683D02*
X015252Y007531D01*
X015116Y007723D02*
X015292Y007548D01*
X015135Y007763D02*
X015345Y007553D01*
X015155Y007803D02*
X015386Y007572D01*
X012981Y007305D02*
X013319Y007643D01*
X012863Y007803D02*
X015155D01*
X012807Y007690D02*
X012879Y007763D01*
X015135D01*
X012896Y007723D02*
X015116D01*
X012918Y007683D02*
X015100D01*
X014374Y007601D02*
X014450Y007525D01*
X014339Y007556D02*
X014380Y007515D01*
X013023Y006735D02*
X013317Y007029D01*
X012790Y007730D02*
X012863Y007803D01*
X013277Y007441D02*
X013437Y007601D01*
X013449Y007556D02*
X014339D01*
X014380Y006003D02*
Y007515D01*
X011749Y007305D02*
X012981D01*
X011675Y005875D02*
X012730D01*
X012747Y005915D02*
X012770Y005892D01*
X012738Y005915D02*
X012747D01*
X011710Y005835D02*
X012700D01*
X012985Y006035D02*
X014160D01*
X015292Y006734D02*
Y007548D01*
X014159Y006421D02*
Y006678D01*
X014160Y006679D02*
Y006945D01*
X014057Y007048D02*
X014160Y006945D01*
X013449Y007048D02*
X014057D01*
X014159Y006678D02*
X014160Y006679D01*
X014070Y006921D02*
Y006925D01*
Y006921D02*
X014110Y006881D01*
Y006626D02*
Y006881D01*
X013449Y006540D02*
X014025D01*
X014110Y006626D01*
X013921Y006794D02*
X014040Y006675D01*
X013449Y006794D02*
X013921D01*
X014159Y007176D02*
Y007183D01*
Y007176D02*
X014310Y007025D01*
X013939Y005794D02*
X014120Y005975D01*
X014185D01*
X014310Y006100D01*
Y007025D01*
X014232Y006241D02*
Y006985D01*
X014159Y006167D02*
X014232Y006241D01*
X013449Y007302D02*
X013916D01*
X014159Y005913D02*
X014290D01*
X014380Y006003D01*
X014450Y005950D02*
Y007525D01*
X014159Y005659D02*
X014450Y005950D01*
X013437Y007601D02*
X014374D01*
X010751Y006884D02*
X010830Y006805D01*
X012023Y006675D02*
X012804D01*
X012702Y006025D02*
X012975D01*
X012692Y006035D02*
X012702Y006025D01*
X012975D02*
X012985Y006035D01*
X013374Y006465D02*
X013449Y006540D01*
X012865Y006465D02*
X013374D01*
X013160Y006505D02*
X013449Y006794D01*
X012849Y006505D02*
X013160D01*
X013405Y006807D02*
Y007004D01*
X013143Y006545D02*
X013405Y006807D01*
X012832Y006545D02*
X013143D01*
X013916Y007302D02*
X014232Y006985D01*
X013357Y007210D02*
X013449Y007302D01*
X013157Y006615D02*
X013357Y006815D01*
Y007210D01*
X012864Y006615D02*
X013157D01*
X013317Y007424D02*
X013449Y007556D01*
X013317Y007029D02*
Y007424D01*
X012864Y006735D02*
X013023D01*
X013277Y007046D02*
Y007441D01*
X013025Y006794D02*
X013277Y007046D01*
X012866Y006794D02*
X013025D01*
X012802Y006515D02*
X012832Y006545D01*
X011450Y006515D02*
X012802D01*
X012815Y006472D02*
X012849Y006505D01*
X011401Y006472D02*
X012815D01*
X012832Y006432D02*
X012865Y006465D01*
X011447Y006432D02*
X012832D01*
X013405Y007004D02*
X013449Y007048D01*
X012844Y006635D02*
X012864Y006615D01*
X012039Y006635D02*
X012844D01*
X012804Y006675D02*
X012864Y006735D01*
X012788Y006715D02*
X012866Y006794D01*
X012000Y006715D02*
X012788D01*
X011967Y006748D02*
X012000Y006715D01*
X011872Y006748D02*
X011967D01*
X011839Y006715D02*
X011872Y006748D01*
X011390Y006785D02*
X011460Y006715D01*
X011839D01*
X010830Y006805D02*
X010877D01*
X010751Y006884D02*
X010751Y006885D01*
X010877Y006805D02*
X010897Y006785D01*
X011390D01*
X011950Y006603D02*
X012023Y006675D01*
X011817D02*
X011890Y006603D01*
X011360Y006735D02*
X011420Y006675D01*
X011817D01*
X011890Y006603D02*
X011950D01*
X010860Y006765D02*
X010890Y006735D01*
X010750Y006765D02*
X010860D01*
X010890Y006735D02*
X011360D01*
X011967Y006563D02*
X012039Y006635D01*
X011801Y006634D02*
X011872Y006563D01*
X011801Y006634D02*
Y006635D01*
X011380D02*
X011801D01*
X011872Y006563D02*
X011967D01*
X010860Y006655D02*
X011360D01*
X011380Y006635D01*
X012000Y006035D02*
X012692D01*
X012000Y006035D02*
X012000Y006035D01*
X011985Y006035D02*
X012000D01*
X011789D02*
X011845D01*
X011953Y006003D02*
X011985Y006035D01*
X011877Y006003D02*
X011953D01*
X011845Y006035D02*
X011877Y006003D01*
X011749Y005995D02*
X011789Y006035D01*
X011383Y005995D02*
X011749D01*
X010850Y006225D02*
X010858Y006218D01*
X011214Y006165D02*
X011383Y005995D01*
X010935Y006165D02*
X011214D01*
X010858Y006218D02*
X010882D01*
X010935Y006165D01*
X011430Y006415D02*
X011447Y006432D01*
X011309Y006425D02*
X011319Y006415D01*
X011430D01*
X011030Y006425D02*
X011309D01*
X011020Y006435D02*
X011030Y006425D01*
X011385Y006455D02*
X011401Y006472D01*
X011295Y006495D02*
X011335Y006455D01*
X011385D01*
X010995Y006495D02*
X011295D01*
X010970Y006470D02*
X010995Y006495D01*
X010915Y006470D02*
X010970D01*
X010910Y006465D02*
X010915Y006470D01*
X011390Y006575D02*
X011450Y006515D01*
X010930Y006575D02*
X011390D01*
X010910Y006555D02*
X010930Y006575D01*
X011302Y006375D02*
X011383D01*
X011447Y006312D01*
X012595Y004915D02*
X012600D01*
X012567Y004888D02*
X012595Y004915D01*
X011973Y004603D02*
X012045Y004675D01*
X012760D01*
X012258Y007807D02*
X012335Y007730D01*
X011430Y006271D02*
X011460D01*
X011460Y006272D01*
X011285Y006335D02*
X011285Y006335D01*
X009539Y006335D02*
X011285D01*
X011447Y006312D02*
X012576D01*
X011302Y006375D02*
X011302Y006375D01*
X010850Y006375D02*
X011302D01*
X011920Y007545D02*
X012040D01*
X011905Y007496D02*
X012066D01*
X011711Y007456D02*
X012083D01*
X011695Y007416D02*
X012099D01*
X011716Y007685D02*
X011905Y007496D01*
X011738Y007727D02*
X011920Y007545D01*
X010445Y007727D02*
X011738D01*
X010535Y007685D02*
X011716D01*
X011658Y007453D02*
X011695Y007416D01*
X011674Y007493D02*
X011711Y007456D01*
X011048Y007493D02*
X011674D01*
X008730Y005345D02*
X008788Y005404D01*
X008841Y005637D02*
X008890Y005685D01*
X009957D01*
X008640Y005895D02*
X008648Y005903D01*
X008615Y005835D02*
X008665D01*
X008520Y005930D02*
X008615Y005835D01*
X008520Y005930D02*
Y005975D01*
X008667Y005903D02*
X008769Y006005D01*
X008665Y005835D02*
X008676D01*
X008665Y005835D02*
X008665Y005835D01*
X008648Y005903D02*
X008667D01*
X008340Y006155D02*
X008520Y005975D01*
X008340Y006155D02*
Y006225D01*
X008650Y005975D02*
X008650D01*
X008720Y006045D02*
X009249D01*
X008650Y005975D02*
X008720Y006045D01*
X010325Y006055D02*
X010395Y005985D01*
X010250Y006055D02*
X010325D01*
X010395Y005985D02*
X010500D01*
X009209Y004995D02*
X009289Y005075D01*
X009140Y004995D02*
X009209D01*
X009473Y004749D02*
X009477D01*
X009530Y004695D01*
X009580D01*
X009430Y004935D02*
X010141D01*
X010199Y004877D01*
X009949Y004979D02*
X010166D01*
X009966Y005019D02*
X010186D01*
X009991Y005059D02*
X010206D01*
X009934Y005116D02*
X009991Y005059D01*
X009910Y005075D02*
X009966Y005019D01*
X009903Y005025D02*
X009949Y004979D01*
X009320Y004825D02*
X009430Y004935D01*
X009410Y005025D02*
X009903D01*
X009220Y004835D02*
X009410Y005025D01*
X009220Y004825D02*
Y004835D01*
X010240Y004965D02*
X010956D01*
X010186Y005019D02*
X010240Y004965D01*
X010206Y005059D02*
X010260Y005005D01*
X010939D01*
X010278Y005045D02*
X010920D01*
X009868Y005455D02*
X010278Y005045D01*
X010920D02*
X011060Y005185D01*
X010956Y004965D02*
X011076Y005085D01*
X009289Y005075D02*
X009910D01*
X008788Y005404D02*
X008920D01*
X009201Y005116D02*
X009934D01*
X009698Y006524D02*
X009922D01*
X010198Y006800D01*
X009249Y006045D02*
X009539Y006335D01*
X009284Y006005D02*
X009574Y006295D01*
X008769Y006005D02*
X009284D01*
X008530Y006085D02*
X009224D01*
X009514Y006375D02*
X009810D01*
X010525Y006800D02*
X010560Y006835D01*
X010565Y006755D02*
X010655Y006845D01*
X009932Y006435D02*
X010252Y006755D01*
X010655Y006845D02*
X010660D01*
X010360Y007510D02*
X010535Y007685D01*
X010360Y007465D02*
Y007510D01*
X010240Y007522D02*
X010445Y007727D01*
X010240Y007505D02*
Y007522D01*
X011040Y007295D02*
X011463D01*
X010881Y007136D02*
X011040Y007295D01*
X009950Y007315D02*
X010000D01*
X010138Y007177D01*
X009930Y007235D02*
X010000D01*
X010099Y007136D01*
X009620Y004715D02*
X009789D01*
X009540Y004795D02*
X009620Y004715D01*
X009772Y004675D02*
X010052Y004395D01*
X011080D01*
X009789Y004715D02*
X010068Y004435D01*
X011064D01*
X008548Y006255D02*
X008638Y006345D01*
Y006385D01*
X008728Y006475D01*
X008730Y006245D02*
X008738Y006238D01*
X008785Y006225D02*
X008879D01*
X008728Y006475D02*
Y006660D01*
X008470Y006255D02*
X008548D01*
X008728Y006660D02*
X009203Y007095D01*
X008623Y006245D02*
X008645D01*
X008617Y006239D02*
X008623Y006245D01*
X008645D02*
X008745Y006345D01*
X010760Y006225D02*
X010864Y006121D01*
X010196Y007219D02*
X010847D01*
X010100Y007315D02*
X010196Y007219D01*
X009910Y007465D02*
Y007539D01*
X010178Y007807D02*
X012258D01*
X010220Y007595D02*
X010220D01*
X008772Y006238D02*
X008785Y006225D01*
X008879D02*
X009077Y006422D01*
X008745Y006345D02*
X008850D01*
X008738Y006238D02*
X008772D01*
X009670Y006435D02*
X009932D01*
X008920Y005404D02*
X008971Y005455D01*
X009868D01*
X011360Y004675D02*
X011795D01*
X011867Y004603D01*
X011973D01*
X009600Y004675D02*
X009772D01*
X011080Y004395D02*
X011360Y004675D01*
X011350Y004715D02*
X011350Y004715D01*
X011343Y004715D02*
X011350D01*
X011350Y004715D02*
X011835D01*
X011867Y004748D01*
X011973D01*
X012005Y004715D01*
X009072Y005245D02*
X009201Y005116D01*
X010975Y004705D02*
X011070D01*
X010934Y004664D02*
X010975Y004705D01*
X010340Y004715D02*
X010391Y004664D01*
X010979Y004624D02*
X010990Y004635D01*
X010318Y004675D02*
X010369Y004624D01*
X010847Y007219D02*
X011082Y007453D01*
X010392Y007767D02*
X012227D01*
X012304Y007690D01*
X010814Y007260D02*
X011048Y007493D01*
X011098Y007413D02*
X011641D01*
X010862Y007177D02*
X011098Y007413D01*
X011082Y007453D02*
X011658D01*
X011064Y004435D02*
X011343Y004715D01*
X010279Y004715D02*
X010340D01*
X010020Y004675D02*
X010318D01*
X010199Y004795D02*
X010279Y004715D01*
X009580Y004695D02*
X009600Y004675D01*
X011750Y005015D02*
X011877Y004888D01*
X012567D01*
X011893Y004935D02*
X012499D01*
X011320Y005055D02*
X011773D01*
X011380Y004975D02*
X011720D01*
X011330Y005015D02*
X011750D01*
X011773Y005055D02*
X011893Y004935D01*
X011780Y005105D02*
X011882Y005003D01*
X011950D01*
X011340Y005105D02*
X011780D01*
X011885Y005475D02*
X011935D01*
X011885Y005475D02*
X011885Y005475D01*
X011683Y005475D02*
X011885D01*
X011950Y005748D02*
X011982Y005715D01*
X011887Y005748D02*
X011950D01*
X011855Y005715D02*
X011887Y005748D01*
X010907Y005741D02*
X011651D01*
X010974Y005781D02*
X011656D01*
X011405Y005915D02*
X012738D01*
X011845Y006148D02*
X011953D01*
X011732Y006035D02*
X011845Y006148D01*
X011420Y006175D02*
X011476Y006232D01*
X011366Y006335D02*
X011430Y006271D01*
X011285Y006335D02*
X011366D01*
X011213Y006225D02*
X011403Y006035D01*
X012005Y005475D02*
X012045Y005515D01*
X011935Y005475D02*
X012005D01*
X011935Y005475D02*
X011935Y005475D01*
X012038Y006232D02*
X012038Y006232D01*
X011476Y006232D02*
X012038D01*
X011460Y006272D02*
X012626D01*
X012080Y005550D02*
X012135Y005605D01*
X012080Y005550D02*
Y005550D01*
X012045Y005515D02*
X012080Y005550D01*
X012045Y005515D02*
X012045D01*
X011651Y005741D02*
X011677Y005715D01*
X008880Y005245D02*
X009072D01*
X010357Y005285D02*
X011365D01*
X009957Y005685D02*
X010357Y005285D01*
X010980Y005495D02*
X011030Y005445D01*
X008841Y005634D02*
Y005637D01*
X008676Y005835D02*
X008798Y005958D01*
X011446Y005435D02*
X011455D01*
X011436Y005445D02*
X011446Y005435D01*
X011030Y005445D02*
X011436D01*
X011455Y005435D02*
X011505D01*
X011455Y005435D02*
X011455Y005435D01*
X011505Y005435D02*
X011643D01*
X011505Y005435D02*
X011505Y005435D01*
X008798Y005958D02*
X009936D01*
X010268Y005626D01*
X010650Y005725D02*
X010690Y005685D01*
X010790D01*
X010870Y005605D01*
X010898D01*
X010980Y005523D01*
X010650Y005725D02*
Y005835D01*
X010980Y005495D02*
Y005523D01*
X010580Y006069D02*
X010907Y005741D01*
X010500Y005985D02*
X010650Y005835D01*
X010659Y006136D02*
X010840Y005955D01*
X011643Y005435D02*
X011683Y005475D01*
X011677Y005715D02*
X011855D01*
X011656Y005781D02*
X011710Y005835D01*
X011620Y005821D02*
X011675Y005875D01*
X011354Y005965D02*
X011355D01*
X010980Y006225D02*
X011213D01*
X010870Y005885D02*
X010974Y005781D01*
X011234Y005821D02*
X011620D01*
X011100Y005955D02*
X011234Y005821D01*
X010840Y005955D02*
X011100D01*
X011403Y006035D02*
X011732D01*
X011200Y006295D02*
X011320Y006175D01*
X011420D01*
X009574Y006295D02*
X011200D01*
X009810Y006376D02*
X010850D01*
X010920Y006825D02*
X011020D01*
X010860Y006885D02*
X010920Y006825D01*
X009810Y006375D02*
X009810Y006376D01*
X010850D02*
X010850Y006375D01*
X010099Y007136D02*
X010881D01*
X010138Y007177D02*
X010862D01*
X010569Y007260D02*
X010814D01*
X010569Y007259D02*
X010569Y007260D01*
X010256Y007259D02*
X010569D01*
X009253Y007048D02*
X010983D01*
X009203Y007095D02*
X010960D01*
X009224Y006085D02*
X009514Y006375D01*
X011997Y007188D02*
X012060Y007125D01*
X011038Y007173D02*
X011112D01*
X011980Y007148D02*
X012048Y007079D01*
X011136Y007133D02*
X011150Y007148D01*
X011126Y007188D02*
X011997D01*
X011068Y007133D02*
X011136D01*
X010960Y007095D02*
X011038Y007173D01*
X011112D02*
X011126Y007188D01*
X010983Y007048D02*
X011068Y007133D01*
X011045Y007009D02*
X011130Y007093D01*
X011457D01*
X011150Y007148D02*
X011980D01*
X009270Y007008D02*
X011000D01*
X010180Y007335D02*
X010256Y007259D01*
X011000Y007009D02*
X011045D01*
X010410Y007305D02*
Y007325D01*
X009030Y006825D02*
X009253Y007048D01*
X009077Y006815D02*
X009270Y007008D01*
X009030Y006525D02*
Y006825D01*
X009077Y006422D02*
Y006815D01*
X011000Y007008D02*
X011000Y007009D01*
X010252Y006755D02*
X010565D01*
X010198Y006800D02*
X010525D01*
X011641Y007413D02*
X011749Y007305D01*
X008850Y006345D02*
X009030Y006525D01*
X009910Y007539D02*
X010178Y007807D01*
X010220Y007595D02*
X010392Y007767D01*
D84*
X011330Y005905D02*
D03*
X012400Y005175D02*
D03*
X012420Y006825D02*
D03*
X012620Y006885D02*
D03*
X012380Y006965D02*
D03*
X012420Y007455D02*
D03*
X019450Y005555D02*
D03*
X019070Y006425D02*
D03*
Y006155D02*
D03*
X008640Y005535D02*
D03*
X008650Y005655D02*
D03*
X010350Y005945D02*
D03*
X010462Y005885D02*
D03*
X010410Y006055D02*
D03*
X013130Y005455D02*
D03*
X012660Y004845D02*
D03*
X012730Y005245D02*
D03*
X012890Y004785D02*
D03*
X012500Y005115D02*
D03*
X013190Y006275D02*
D03*
X014030Y006285D02*
D03*
X012620Y006355D02*
D03*
X015550Y007445D02*
D03*
X012960Y007125D02*
D03*
X012740Y007195D02*
D03*
X015550Y007185D02*
D03*
X012610Y007235D02*
D03*
X012420Y007585D02*
D03*
X012950Y006095D02*
D03*
X014070Y006925D02*
D03*
X014040Y006675D02*
D03*
X014160Y006035D02*
D03*
X010751Y006885D02*
D03*
X010750Y006765D02*
D03*
X010860Y006655D02*
D03*
X010850Y006225D02*
D03*
X011020Y006435D02*
D03*
X010910Y006465D02*
D03*
Y006555D02*
D03*
X014159Y006421D02*
D03*
X012520Y004955D02*
D03*
X012600Y004915D02*
D03*
X012760Y004675D02*
D03*
X008841Y005634D02*
D03*
X008640Y005895D02*
D03*
X008650Y005975D02*
D03*
X010270Y005645D02*
D03*
X011340Y003975D02*
D03*
X011400D02*
D03*
X011470D02*
D03*
X011280Y004125D02*
D03*
X011400D02*
D03*
X011340D02*
D03*
X009580Y004005D02*
D03*
X009650D02*
D03*
Y004075D02*
D03*
X009960Y004055D02*
D03*
Y004115D02*
D03*
X009991Y004316D02*
D03*
X009900Y004055D02*
D03*
Y004115D02*
D03*
X009580Y004075D02*
D03*
X009080Y004775D02*
D03*
X007410Y005485D02*
D03*
X007410Y005575D02*
D03*
Y005655D02*
D03*
X007980Y006285D02*
D03*
Y006215D02*
D03*
X007910D02*
D03*
Y006285D02*
D03*
X009140Y004995D02*
D03*
X009473Y004749D02*
D03*
X009320Y004825D02*
D03*
X009220D02*
D03*
X009678Y006526D02*
D03*
X008530Y006085D02*
D03*
X010560Y006835D02*
D03*
X010660Y006845D02*
D03*
X010360Y007465D02*
D03*
X010240Y007505D02*
D03*
X009950Y007315D02*
D03*
X009930Y007235D02*
D03*
X009540Y004795D02*
D03*
X008550Y006356D02*
D03*
X008617Y006239D02*
D03*
X008470Y006255D02*
D03*
X011050Y004075D02*
D03*
X010760Y006225D02*
D03*
X010100Y007315D02*
D03*
X009910Y007465D02*
D03*
X010220Y007595D02*
D03*
X008730Y006245D02*
D03*
X009900Y006948D02*
D03*
X008730Y005345D02*
D03*
X011490Y007575D02*
D03*
X009370Y005176D02*
D03*
X011088Y004575D02*
D03*
X010990Y004635D02*
D03*
X011070Y004705D02*
D03*
X010199Y004795D02*
D03*
X010090D02*
D03*
X010020Y004675D02*
D03*
X008340Y006225D02*
D03*
X010580Y006069D02*
D03*
X010659Y006136D02*
D03*
X010390Y006948D02*
D03*
X010980Y006885D02*
D03*
X010860D02*
D03*
X010410Y007325D02*
D03*
X011180Y006988D02*
D03*
X010180Y007335D02*
D03*
X009670Y006435D02*
D03*
X019239Y007183D02*
D03*
Y006675D02*
D03*
X019320Y005915D02*
D03*
X015429Y006929D02*
D03*
Y006675D02*
D03*
Y006421D02*
D03*
Y005913D02*
D03*
Y005659D02*
D03*
X014159Y007183D02*
D03*
Y006167D02*
D03*
Y005913D02*
D03*
Y005659D02*
D03*
X012030Y004575D02*
D03*
X010020D02*
D03*
X011390Y006975D02*
D03*
X009620Y005385D02*
D03*
X010870Y005885D02*
D03*
X010250Y006055D02*
D03*
X009000Y007195D02*
D03*
X007810Y006375D02*
D03*
X009000Y004775D02*
D03*
X009080Y004835D02*
D03*
X009000D02*
D03*
X008910Y005045D02*
D03*
X010980Y006225D02*
D03*
X008770Y005775D02*
D03*
X009000Y007095D02*
D03*
X009190Y004625D02*
D03*
X008880Y005245D02*
D03*
M02*
