G04*
G04 #@! TF.GenerationSoftware,Altium Limited,Altium Designer,20.1.11 (218)*
G04*
G04 Layer_Physical_Order=1*
G04 Layer_Color=5064179*
%FSAX42Y42*%
%MOMM*%
G71*
G04*
G04 #@! TF.SameCoordinates,7775C1EB-3A37-4DB6-902C-5BA206B129F1*
G04*
G04*
G04 #@! TF.FilePolarity,Positive*
G04*
G01*
G75*
%ADD11C,0.60*%
%ADD14C,0.20*%
G04:AMPARAMS|DCode=51|XSize=0.8mm|YSize=1.3mm|CornerRadius=0.2mm|HoleSize=0mm|Usage=FLASHONLY|Rotation=180.000|XOffset=0mm|YOffset=0mm|HoleType=Round|Shape=RoundedRectangle|*
%AMROUNDEDRECTD51*
21,1,0.80,0.90,0,0,180.0*
21,1,0.40,1.30,0,0,180.0*
1,1,0.40,-0.20,0.45*
1,1,0.40,0.20,0.45*
1,1,0.40,0.20,-0.45*
1,1,0.40,-0.20,-0.45*
%
%ADD51ROUNDEDRECTD51*%
%ADD52R,2.10X0.89*%
%ADD53R,0.35X1.60*%
%ADD54O,0.35X1.60*%
%ADD55R,1.60X0.35*%
G04:AMPARAMS|DCode=56|XSize=0.8mm|YSize=1.3mm|CornerRadius=0.2mm|HoleSize=0mm|Usage=FLASHONLY|Rotation=270.000|XOffset=0mm|YOffset=0mm|HoleType=Round|Shape=RoundedRectangle|*
%AMROUNDEDRECTD56*
21,1,0.80,0.90,0,0,270.0*
21,1,0.40,1.30,0,0,270.0*
1,1,0.40,-0.45,-0.20*
1,1,0.40,-0.45,0.20*
1,1,0.40,0.45,0.20*
1,1,0.40,0.45,-0.20*
%
%ADD56ROUNDEDRECTD56*%
G04:AMPARAMS|DCode=57|XSize=0.8mm|YSize=1mm|CornerRadius=0.2mm|HoleSize=0mm|Usage=FLASHONLY|Rotation=0.000|XOffset=0mm|YOffset=0mm|HoleType=Round|Shape=RoundedRectangle|*
%AMROUNDEDRECTD57*
21,1,0.80,0.60,0,0,0.0*
21,1,0.40,1.00,0,0,0.0*
1,1,0.40,0.20,-0.30*
1,1,0.40,-0.20,-0.30*
1,1,0.40,-0.20,0.30*
1,1,0.40,0.20,0.30*
%
%ADD57ROUNDEDRECTD57*%
G04:AMPARAMS|DCode=58|XSize=0.8mm|YSize=1mm|CornerRadius=0.2mm|HoleSize=0mm|Usage=FLASHONLY|Rotation=270.000|XOffset=0mm|YOffset=0mm|HoleType=Round|Shape=RoundedRectangle|*
%AMROUNDEDRECTD58*
21,1,0.80,0.60,0,0,270.0*
21,1,0.40,1.00,0,0,270.0*
1,1,0.40,-0.30,-0.20*
1,1,0.40,-0.30,0.20*
1,1,0.40,0.30,0.20*
1,1,0.40,0.30,-0.20*
%
%ADD58ROUNDEDRECTD58*%
%ADD59R,2.80X2.00*%
%ADD60R,1.20X6.00*%
G04:AMPARAMS|DCode=61|XSize=6mm|YSize=1.2mm|CornerRadius=0.3mm|HoleSize=0mm|Usage=FLASHONLY|Rotation=270.000|XOffset=0mm|YOffset=0mm|HoleType=Round|Shape=RoundedRectangle|*
%AMROUNDEDRECTD61*
21,1,6.00,0.60,0,0,270.0*
21,1,5.40,1.20,0,0,270.0*
1,1,0.60,-0.30,-2.70*
1,1,0.60,-0.30,2.70*
1,1,0.60,0.30,2.70*
1,1,0.60,0.30,-2.70*
%
%ADD61ROUNDEDRECTD61*%
G04:AMPARAMS|DCode=62|XSize=0.4mm|YSize=0.5mm|CornerRadius=0.1mm|HoleSize=0mm|Usage=FLASHONLY|Rotation=90.000|XOffset=0mm|YOffset=0mm|HoleType=Round|Shape=RoundedRectangle|*
%AMROUNDEDRECTD62*
21,1,0.40,0.30,0,0,90.0*
21,1,0.20,0.50,0,0,90.0*
1,1,0.20,0.15,0.10*
1,1,0.20,0.15,-0.10*
1,1,0.20,-0.15,-0.10*
1,1,0.20,-0.15,0.10*
%
%ADD62ROUNDEDRECTD62*%
%ADD63R,0.50X0.40*%
%ADD64R,1.10X1.90*%
%ADD65R,2.40X3.00*%
%ADD66R,0.40X1.75*%
%ADD67R,0.89X1.27*%
G04:AMPARAMS|DCode=68|XSize=2.54mm|YSize=0.91mm|CornerRadius=0mm|HoleSize=0mm|Usage=FLASHONLY|Rotation=90.000|XOffset=0mm|YOffset=0mm|HoleType=Round|Shape=Octagon|*
%AMOCTAGOND68*
4,1,8,0.23,1.27,-0.23,1.27,-0.46,1.04,-0.46,-1.04,-0.23,-1.27,0.23,-1.27,0.46,-1.04,0.46,1.04,0.23,1.27,0.0*
%
%ADD68OCTAGOND68*%

%ADD69R,0.30X1.45*%
G04:AMPARAMS|DCode=70|XSize=0.3mm|YSize=1.45mm|CornerRadius=0.08mm|HoleSize=0mm|Usage=FLASHONLY|Rotation=180.000|XOffset=0mm|YOffset=0mm|HoleType=Round|Shape=RoundedRectangle|*
%AMROUNDEDRECTD70*
21,1,0.30,1.30,0,0,180.0*
21,1,0.15,1.45,0,0,180.0*
1,1,0.15,-0.08,0.65*
1,1,0.15,0.08,0.65*
1,1,0.15,0.08,-0.65*
1,1,0.15,-0.08,-0.65*
%
%ADD70ROUNDEDRECTD70*%
%ADD71O,2.30X0.60*%
%ADD72C,0.50*%
%ADD73C,0.40*%
%ADD74C,1.00*%
%ADD75C,0.30*%
%ADD76C,0.80*%
%ADD77C,0.22*%
%ADD78C,0.38*%
G04:AMPARAMS|DCode=79|XSize=1.78mm|YSize=1.78mm|CornerRadius=0.44mm|HoleSize=0mm|Usage=FLASHONLY|Rotation=180.000|XOffset=0mm|YOffset=0mm|HoleType=Round|Shape=RoundedRectangle|*
%AMROUNDEDRECTD79*
21,1,1.78,0.89,0,0,180.0*
21,1,0.89,1.78,0,0,180.0*
1,1,0.89,-0.44,0.44*
1,1,0.89,0.44,0.44*
1,1,0.89,0.44,-0.44*
1,1,0.89,-0.44,-0.44*
%
%ADD79ROUNDEDRECTD79*%
G04:AMPARAMS|DCode=80|XSize=1.78mm|YSize=1.78mm|CornerRadius=0.44mm|HoleSize=0mm|Usage=FLASHONLY|Rotation=270.000|XOffset=0mm|YOffset=0mm|HoleType=Round|Shape=RoundedRectangle|*
%AMROUNDEDRECTD80*
21,1,1.78,0.89,0,0,270.0*
21,1,0.89,1.78,0,0,270.0*
1,1,0.89,-0.44,-0.44*
1,1,0.89,-0.44,0.44*
1,1,0.89,0.44,0.44*
1,1,0.89,0.44,-0.44*
%
%ADD80ROUNDEDRECTD80*%
%ADD81C,2.00*%
%ADD82C,1.37*%
%ADD83R,1.37X1.37*%
%ADD84C,0.60*%
%ADD85C,1.50*%
%ADD86C,1.20*%
%ADD87C,0.50*%
%ADD88C,1.10*%
G36*
X007120Y007295D02*
Y007495D01*
X007320D01*
Y007295D01*
X007120D01*
D02*
G37*
G36*
X007680D02*
Y007495D01*
X007880D01*
Y007295D01*
X007680D01*
D02*
G37*
G36*
X007730Y007595D02*
D01*
D02*
G37*
G36*
X020657Y003283D02*
X020669D01*
Y003263D01*
X020653D01*
X020647Y003238D01*
X020669D01*
Y003219D01*
X020643D01*
X020637Y003185D01*
X020617D01*
X020624Y003219D01*
X020604D01*
X020598Y003185D01*
X020578D01*
X020585Y003219D01*
X020573D01*
Y003238D01*
X020589D01*
X020594Y003263D01*
X020573D01*
Y003283D01*
X020598D01*
X020605Y003317D01*
X020624D01*
X020618Y003283D01*
X020637D01*
X020643Y003317D01*
X020663D01*
X020657Y003283D01*
D02*
G37*
G36*
X020252Y003187D02*
X020229D01*
Y003200D01*
X020229Y003200D01*
X020229Y003200D01*
X020229Y003200D01*
X020228Y003199D01*
X020228Y003198D01*
X020227Y003198D01*
X020226Y003197D01*
X020226Y003196D01*
X020223Y003194D01*
X020221Y003192D01*
X020219Y003190D01*
X020217Y003189D01*
X020216Y003189D01*
X020216D01*
X020215Y003188D01*
X020215Y003188D01*
X020215Y003188D01*
X020214Y003188D01*
X020213Y003187D01*
X020212Y003187D01*
X020211Y003187D01*
X020209Y003186D01*
X020206Y003185D01*
X020203Y003185D01*
X020200Y003185D01*
X020200D01*
X020199Y003185D01*
X020198Y003185D01*
X020196Y003185D01*
X020195Y003185D01*
X020193Y003186D01*
X020191Y003186D01*
X020189Y003187D01*
X020187Y003188D01*
X020184Y003189D01*
X020182Y003190D01*
X020180Y003192D01*
X020177Y003193D01*
X020175Y003195D01*
X020173Y003197D01*
X020173Y003198D01*
X020172Y003198D01*
X020172Y003199D01*
X020171Y003200D01*
X020170Y003201D01*
X020169Y003203D01*
X020168Y003205D01*
X020167Y003207D01*
X020166Y003209D01*
X020165Y003212D01*
X020164Y003215D01*
X020163Y003218D01*
X020163Y003222D01*
X020162Y003225D01*
X020162Y003229D01*
X020162Y003233D01*
Y003233D01*
Y003234D01*
Y003234D01*
Y003234D01*
Y003235D01*
X020162Y003236D01*
Y003236D01*
X020162Y003237D01*
X020162Y003239D01*
X020162Y003241D01*
X020162Y003244D01*
X020163Y003247D01*
X020163Y003250D01*
X020164Y003252D01*
X020165Y003255D01*
X020166Y003258D01*
X020167Y003261D01*
X020169Y003264D01*
X020171Y003267D01*
X020173Y003269D01*
X020173Y003269D01*
X020173Y003270D01*
X020174Y003270D01*
X020175Y003271D01*
X020176Y003272D01*
X020177Y003273D01*
X020178Y003274D01*
X020180Y003275D01*
X020182Y003277D01*
X020184Y003278D01*
X020187Y003279D01*
X020189Y003280D01*
X020192Y003280D01*
X020195Y003281D01*
X020197Y003281D01*
X020201Y003282D01*
X020201D01*
X020202Y003281D01*
X020203Y003281D01*
X020205Y003281D01*
X020206Y003281D01*
X020208Y003280D01*
X020210Y003280D01*
X020212Y003279D01*
X020214Y003278D01*
X020216Y003277D01*
X020219Y003276D01*
X020221Y003275D01*
X020223Y003273D01*
X020225Y003271D01*
X020228Y003269D01*
Y003315D01*
X020252D01*
Y003187D01*
D02*
G37*
G36*
X020005Y003281D02*
X020006D01*
X020007Y003281D01*
X020008Y003281D01*
X020009Y003281D01*
X020012Y003281D01*
X020015Y003280D01*
X020017Y003279D01*
X020019Y003278D01*
X020020Y003277D01*
X020020D01*
X020021Y003277D01*
X020021Y003277D01*
X020021Y003277D01*
X020022Y003276D01*
X020023Y003276D01*
X020023Y003275D01*
X020024Y003274D01*
X020025Y003273D01*
X020026Y003273D01*
X020027Y003272D01*
X020028Y003270D01*
X020028Y003269D01*
X020029Y003268D01*
X020031Y003265D01*
Y003265D01*
X020031Y003265D01*
X020031Y003265D01*
X020031Y003264D01*
X020031Y003263D01*
X020032Y003263D01*
X020032Y003262D01*
X020032Y003261D01*
X020032Y003259D01*
X020033Y003258D01*
X020033Y003256D01*
X020033Y003255D01*
X020033Y003253D01*
X020033Y003251D01*
X020033Y003248D01*
Y003246D01*
Y003187D01*
X020009D01*
Y003240D01*
Y003240D01*
Y003240D01*
Y003241D01*
Y003242D01*
X020009Y003243D01*
Y003244D01*
X020009Y003246D01*
X020009Y003247D01*
X020008Y003250D01*
X020008Y003253D01*
X020007Y003254D01*
X020007Y003256D01*
X020007Y003257D01*
X020006Y003257D01*
Y003258D01*
X020006Y003258D01*
X020006Y003258D01*
X020006Y003258D01*
X020005Y003259D01*
X020004Y003260D01*
X020002Y003261D01*
X020000Y003262D01*
X019999Y003262D01*
X019998Y003263D01*
X019997Y003263D01*
X019996Y003263D01*
X019995D01*
X019994Y003263D01*
X019993Y003262D01*
X019991Y003262D01*
X019990Y003261D01*
X019988Y003261D01*
X019986Y003260D01*
X019986D01*
X019986Y003259D01*
X019985Y003259D01*
X019985Y003258D01*
X019984Y003257D01*
X019983Y003256D01*
X019981Y003254D01*
X019980Y003252D01*
X019980Y003250D01*
Y003250D01*
X019979Y003250D01*
X019979Y003250D01*
X019979Y003249D01*
X019979Y003249D01*
X019979Y003248D01*
X019979Y003247D01*
X019979Y003246D01*
X019978Y003244D01*
X019978Y003243D01*
X019978Y003241D01*
X019978Y003240D01*
X019978Y003238D01*
X019978Y003236D01*
X019978Y003234D01*
Y003231D01*
Y003187D01*
X019953D01*
Y003238D01*
Y003238D01*
Y003238D01*
Y003239D01*
Y003240D01*
Y003241D01*
X019953Y003242D01*
Y003243D01*
X019953Y003245D01*
X019953Y003248D01*
X019953Y003251D01*
X019952Y003252D01*
X019952Y003253D01*
X019952Y003254D01*
X019952Y003255D01*
Y003255D01*
X019952Y003255D01*
X019951Y003256D01*
X019951Y003256D01*
X019951Y003257D01*
X019950Y003258D01*
X019950Y003259D01*
X019949Y003260D01*
X019948Y003261D01*
X019948Y003261D01*
X019947Y003261D01*
X019947Y003261D01*
X019946Y003262D01*
X019945Y003262D01*
X019943Y003262D01*
X019942Y003263D01*
X019940Y003263D01*
X019939D01*
X019939Y003263D01*
X019938Y003263D01*
X019937Y003262D01*
X019935Y003262D01*
X019934Y003261D01*
X019932Y003261D01*
X019930Y003260D01*
X019930D01*
X019930Y003259D01*
X019929Y003259D01*
X019928Y003258D01*
X019928Y003257D01*
X019926Y003256D01*
X019925Y003255D01*
X019924Y003253D01*
X019924Y003251D01*
Y003251D01*
X019923Y003251D01*
X019923Y003250D01*
X019923Y003250D01*
X019923Y003249D01*
X019923Y003248D01*
X019923Y003247D01*
X019923Y003246D01*
X019922Y003245D01*
X019922Y003244D01*
X019922Y003242D01*
X019922Y003240D01*
X019922Y003238D01*
X019922Y003236D01*
X019922Y003234D01*
Y003232D01*
Y003187D01*
X019897D01*
Y003279D01*
X019920D01*
Y003267D01*
X019920Y003267D01*
X019920Y003267D01*
X019921Y003268D01*
X019922Y003269D01*
X019923Y003270D01*
X019924Y003271D01*
X019926Y003273D01*
X019928Y003274D01*
X019930Y003276D01*
X019932Y003277D01*
X019934Y003278D01*
X019937Y003279D01*
X019940Y003280D01*
X019942Y003281D01*
X019945Y003281D01*
X019949Y003282D01*
X019949D01*
X019950Y003281D01*
X019951D01*
X019952Y003281D01*
X019953Y003281D01*
X019954Y003281D01*
X019956Y003281D01*
X019959Y003280D01*
X019961Y003279D01*
X019964Y003278D01*
X019964D01*
X019964Y003278D01*
X019965Y003277D01*
X019965Y003277D01*
X019966Y003277D01*
X019966Y003276D01*
X019968Y003275D01*
X019969Y003273D01*
X019971Y003272D01*
X019973Y003269D01*
X019975Y003267D01*
X019975Y003267D01*
X019975Y003267D01*
X019975Y003267D01*
X019976Y003268D01*
X019976Y003269D01*
X019977Y003269D01*
X019978Y003270D01*
X019979Y003271D01*
X019981Y003273D01*
X019983Y003274D01*
X019985Y003276D01*
X019988Y003278D01*
X019988D01*
X019988Y003278D01*
X019989Y003278D01*
X019989Y003278D01*
X019990Y003279D01*
X019990Y003279D01*
X019991Y003279D01*
X019992Y003280D01*
X019993Y003280D01*
X019995Y003280D01*
X019997Y003281D01*
X020000Y003281D01*
X020003Y003282D01*
X020004D01*
X020005Y003281D01*
D02*
G37*
G36*
X019487Y003265D02*
X019538Y003187D01*
X019505D01*
X019469Y003247D01*
X019449Y003225D01*
Y003187D01*
X019423D01*
Y003315D01*
X019449D01*
Y003258D01*
X019501Y003315D01*
X019536D01*
X019487Y003265D01*
D02*
G37*
G36*
X020360Y003187D02*
X020337D01*
Y003201D01*
X020337Y003201D01*
X020337Y003200D01*
X020337Y003200D01*
X020336Y003199D01*
X020336Y003199D01*
X020335Y003198D01*
X020335Y003197D01*
X020334Y003196D01*
X020333Y003195D01*
X020332Y003194D01*
X020330Y003192D01*
X020327Y003191D01*
X020324Y003189D01*
X020324D01*
X020324Y003189D01*
X020323Y003189D01*
X020322Y003188D01*
X020322Y003188D01*
X020321Y003187D01*
X020320Y003187D01*
X020319Y003187D01*
X020317Y003186D01*
X020316Y003186D01*
X020313Y003185D01*
X020310Y003185D01*
X020308Y003185D01*
X020306Y003185D01*
X020306D01*
X020305Y003185D01*
X020304D01*
X020303Y003185D01*
X020302Y003185D01*
X020301Y003185D01*
X020298Y003186D01*
X020295Y003186D01*
X020293Y003187D01*
X020291Y003188D01*
X020290Y003189D01*
X020290Y003189D01*
X020289Y003189D01*
X020289Y003189D01*
X020288Y003189D01*
X020288Y003190D01*
X020287Y003190D01*
X020286Y003192D01*
X020284Y003193D01*
X020282Y003195D01*
X020280Y003198D01*
X020280Y003199D01*
X020279Y003200D01*
Y003200D01*
X020279Y003201D01*
X020279Y003201D01*
X020278Y003202D01*
X020278Y003202D01*
X020278Y003203D01*
X020278Y003204D01*
X020277Y003206D01*
X020277Y003207D01*
X020277Y003208D01*
X020276Y003210D01*
X020276Y003212D01*
X020276Y003214D01*
X020276Y003216D01*
X020276Y003218D01*
Y003221D01*
Y003279D01*
X020300D01*
Y003237D01*
Y003237D01*
Y003237D01*
Y003236D01*
Y003236D01*
Y003235D01*
Y003234D01*
Y003232D01*
X020300Y003230D01*
Y003229D01*
X020300Y003227D01*
X020300Y003222D01*
X020301Y003220D01*
X020301Y003219D01*
X020301Y003217D01*
X020301Y003215D01*
X020301Y003214D01*
X020302Y003213D01*
Y003213D01*
X020302Y003213D01*
X020302Y003212D01*
X020302Y003211D01*
X020303Y003210D01*
X020303Y003209D01*
X020304Y003208D01*
X020305Y003207D01*
X020306Y003206D01*
X020307Y003206D01*
X020307Y003206D01*
X020308Y003205D01*
X020309Y003205D01*
X020310Y003204D01*
X020312Y003204D01*
X020314Y003203D01*
X020316Y003203D01*
X020316D01*
X020317Y003203D01*
X020317D01*
X020318Y003204D01*
X020319Y003204D01*
X020321Y003204D01*
X020323Y003205D01*
X020325Y003206D01*
X020327Y003207D01*
X020327D01*
X020327Y003207D01*
X020327Y003207D01*
X020328Y003207D01*
X020329Y003208D01*
X020330Y003209D01*
X020331Y003210D01*
X020332Y003212D01*
X020333Y003213D01*
X020334Y003215D01*
Y003215D01*
X020334Y003216D01*
X020334Y003216D01*
X020334Y003216D01*
X020334Y003217D01*
X020334Y003218D01*
X020334Y003219D01*
X020335Y003220D01*
X020335Y003222D01*
X020335Y003224D01*
X020335Y003226D01*
X020335Y003228D01*
X020335Y003231D01*
X020335Y003234D01*
X020336Y003237D01*
Y003240D01*
Y003279D01*
X020360D01*
Y003187D01*
D02*
G37*
G36*
X020741D02*
X020717D01*
Y003279D01*
X020716Y003279D01*
X020716Y003279D01*
X020715Y003278D01*
X020714Y003277D01*
X020713Y003276D01*
X020711Y003275D01*
X020710Y003273D01*
X020707Y003272D01*
X020705Y003271D01*
X020703Y003269D01*
X020700Y003267D01*
X020697Y003266D01*
X020695Y003265D01*
X020691Y003263D01*
X020688Y003262D01*
X020685Y003261D01*
Y003283D01*
X020685D01*
X020685Y003283D01*
X020686Y003283D01*
X020686Y003283D01*
X020687Y003284D01*
X020688Y003284D01*
X020690Y003285D01*
X020691Y003285D01*
X020692Y003286D01*
X020694Y003287D01*
X020696Y003288D01*
X020698Y003289D01*
X020700Y003290D01*
X020701Y003292D01*
X020704Y003293D01*
X020706Y003295D01*
X020706Y003295D01*
X020706Y003295D01*
X020707Y003296D01*
X020707Y003296D01*
X020708Y003297D01*
X020709Y003298D01*
X020711Y003299D01*
X020712Y003300D01*
X020713Y003302D01*
X020714Y003304D01*
X020716Y003305D01*
X020717Y003307D01*
X020718Y003309D01*
X020719Y003311D01*
X020720Y003313D01*
X020721Y003315D01*
X020741D01*
Y003187D01*
D02*
G37*
G36*
X020410D02*
X020385D01*
Y003315D01*
X020410D01*
Y003187D01*
D02*
G37*
G36*
X019786D02*
X019758D01*
X019747Y003216D01*
X019696Y003216D01*
X019685Y003187D01*
X019658D01*
X019707Y003315D01*
X019735Y003315D01*
X019786Y003187D01*
D02*
G37*
G36*
X019599Y003315D02*
X019601D01*
X019603Y003315D01*
X019605Y003314D01*
X019611Y003314D01*
X019613Y003314D01*
X019616Y003314D01*
X019618Y003314D01*
X019620Y003313D01*
X019622Y003313D01*
X019623Y003313D01*
X019624Y003313D01*
X019624D01*
X019624Y003313D01*
X019625Y003312D01*
X019625Y003312D01*
X019626Y003312D01*
X019627Y003311D01*
X019629Y003311D01*
X019630Y003310D01*
X019631Y003309D01*
X019633Y003308D01*
X019634Y003307D01*
X019636Y003306D01*
X019637Y003305D01*
X019639Y003304D01*
X019641Y003302D01*
X019642Y003300D01*
X019642Y003300D01*
X019642Y003300D01*
X019643Y003299D01*
X019643Y003298D01*
X019644Y003298D01*
X019644Y003296D01*
X019645Y003295D01*
X019646Y003293D01*
X019646Y003292D01*
X019647Y003290D01*
X019648Y003288D01*
X019648Y003286D01*
X019649Y003283D01*
X019649Y003281D01*
X019649Y003278D01*
X019649Y003275D01*
Y003275D01*
Y003275D01*
Y003274D01*
X019649Y003273D01*
Y003272D01*
X019649Y003271D01*
X019649Y003270D01*
X019649Y003268D01*
X019649Y003267D01*
X019648Y003265D01*
X019648Y003262D01*
X019647Y003259D01*
X019646Y003257D01*
X019645Y003255D01*
X019645Y003255D01*
X019645Y003255D01*
X019645Y003255D01*
X019644Y003254D01*
X019644Y003254D01*
X019643Y003253D01*
X019642Y003251D01*
X019641Y003249D01*
X019639Y003247D01*
X019637Y003245D01*
X019634Y003243D01*
X019634Y003243D01*
X019634Y003243D01*
X019634Y003242D01*
X019633Y003242D01*
X019632Y003242D01*
X019632Y003241D01*
X019631Y003241D01*
X019630Y003240D01*
X019628Y003239D01*
X019626Y003238D01*
X019623Y003237D01*
X019621Y003237D01*
X019621D01*
X019620Y003237D01*
X019620Y003237D01*
X019619Y003236D01*
X019618Y003236D01*
X019617Y003236D01*
X019616Y003236D01*
X019614Y003236D01*
X019612Y003236D01*
X019610Y003236D01*
X019608Y003235D01*
X019606Y003235D01*
X019603Y003235D01*
X019600Y003235D01*
X019597Y003235D01*
X019577D01*
Y003187D01*
X019551D01*
Y003315D01*
X019597D01*
X019599Y003315D01*
D02*
G37*
G36*
X019298Y003187D02*
X019273D01*
Y003315D01*
X019298D01*
Y003187D01*
D02*
G37*
G36*
X019260D02*
X019232D01*
X019220Y003216D01*
X019169D01*
X019159Y003187D01*
X019131D01*
X019181Y003315D01*
X019208D01*
X019260Y003187D01*
D02*
G37*
G36*
X020472Y003281D02*
X020472D01*
X020474Y003281D01*
X020476Y003281D01*
X020478Y003281D01*
X020480Y003280D01*
X020482Y003280D01*
X020485Y003279D01*
X020487Y003278D01*
X020490Y003277D01*
X020493Y003276D01*
X020496Y003274D01*
X020498Y003272D01*
X020501Y003270D01*
X020503Y003268D01*
X020503Y003268D01*
X020504Y003267D01*
X020504Y003266D01*
X020505Y003265D01*
X020506Y003264D01*
X020507Y003262D01*
X020508Y003260D01*
X020509Y003257D01*
X020510Y003255D01*
X020511Y003252D01*
X020512Y003248D01*
X020513Y003244D01*
X020514Y003240D01*
X020514Y003236D01*
X020514Y003231D01*
X020515Y003226D01*
X020453D01*
Y003226D01*
Y003225D01*
X020453Y003225D01*
Y003224D01*
X020453Y003223D01*
X020453Y003222D01*
X020454Y003221D01*
X020454Y003220D01*
X020455Y003217D01*
X020455Y003216D01*
X020456Y003214D01*
X020456Y003213D01*
X020457Y003211D01*
X020458Y003210D01*
X020459Y003209D01*
X020459Y003209D01*
X020459Y003209D01*
X020459Y003208D01*
X020460Y003208D01*
X020460Y003208D01*
X020461Y003207D01*
X020462Y003207D01*
X020463Y003206D01*
X020464Y003205D01*
X020465Y003205D01*
X020467Y003204D01*
X020469Y003203D01*
X020470Y003203D01*
X020472Y003203D01*
X020473Y003203D01*
X020474D01*
X020474Y003203D01*
X020475Y003203D01*
X020477Y003203D01*
X020478Y003204D01*
X020480Y003204D01*
X020481Y003205D01*
X020483Y003206D01*
X020483D01*
X020483Y003206D01*
X020483Y003207D01*
X020484Y003207D01*
X020485Y003208D01*
X020486Y003210D01*
X020487Y003212D01*
X020488Y003214D01*
X020489Y003216D01*
X020513Y003212D01*
X020513Y003212D01*
X020513Y003212D01*
X020513Y003211D01*
X020512Y003210D01*
X020512Y003209D01*
X020511Y003207D01*
X020510Y003206D01*
X020510Y003205D01*
X020509Y003203D01*
X020507Y003201D01*
X020506Y003199D01*
X020505Y003198D01*
X020503Y003196D01*
X020502Y003194D01*
X020500Y003193D01*
X020498Y003192D01*
X020498Y003191D01*
X020498Y003191D01*
X020497Y003191D01*
X020496Y003190D01*
X020495Y003190D01*
X020494Y003189D01*
X020493Y003189D01*
X020491Y003188D01*
X020489Y003187D01*
X020488Y003187D01*
X020485Y003186D01*
X020483Y003186D01*
X020481Y003185D01*
X020478Y003185D01*
X020476Y003185D01*
X020473Y003185D01*
X020472D01*
X020471Y003185D01*
X020471D01*
X020470Y003185D01*
X020469Y003185D01*
X020467Y003185D01*
X020465Y003185D01*
X020462Y003186D01*
X020459Y003187D01*
X020456Y003187D01*
X020453Y003189D01*
X020450Y003190D01*
X020447Y003191D01*
X020445Y003193D01*
X020442Y003195D01*
X020439Y003198D01*
X020437Y003200D01*
X020437Y003201D01*
X020437Y003201D01*
X020436Y003202D01*
X020436Y003203D01*
X020435Y003204D01*
X020434Y003205D01*
X020433Y003207D01*
X020433Y003209D01*
X020432Y003211D01*
X020431Y003214D01*
X020430Y003216D01*
X020429Y003219D01*
X020429Y003222D01*
X020428Y003225D01*
X020428Y003229D01*
X020428Y003232D01*
Y003232D01*
Y003233D01*
Y003233D01*
Y003233D01*
X020428Y003234D01*
Y003235D01*
Y003235D01*
X020428Y003236D01*
X020428Y003238D01*
X020429Y003240D01*
X020429Y003243D01*
X020429Y003245D01*
X020430Y003248D01*
X020431Y003251D01*
X020432Y003254D01*
X020433Y003257D01*
X020434Y003260D01*
X020436Y003263D01*
X020438Y003266D01*
X020440Y003268D01*
X020440Y003269D01*
X020440Y003269D01*
X020441Y003270D01*
X020442Y003270D01*
X020443Y003271D01*
X020445Y003273D01*
X020446Y003274D01*
X020448Y003275D01*
X020450Y003276D01*
X020453Y003277D01*
X020455Y003278D01*
X020458Y003279D01*
X020461Y003280D01*
X020464Y003281D01*
X020467Y003281D01*
X020470Y003282D01*
X020471D01*
X020472Y003281D01*
D02*
G37*
G36*
X020101D02*
X020102D01*
X020103Y003281D01*
X020105Y003281D01*
X020107Y003281D01*
X020110Y003280D01*
X020112Y003280D01*
X020115Y003279D01*
X020118Y003278D01*
X020120Y003277D01*
X020123Y003276D01*
X020126Y003274D01*
X020129Y003272D01*
X020132Y003270D01*
X020134Y003268D01*
X020135Y003268D01*
X020135Y003267D01*
X020136Y003266D01*
X020136Y003265D01*
X020137Y003264D01*
X020139Y003262D01*
X020140Y003261D01*
X020141Y003258D01*
X020142Y003256D01*
X020144Y003253D01*
X020145Y003251D01*
X020146Y003247D01*
X020147Y003244D01*
X020147Y003241D01*
X020148Y003237D01*
X020148Y003233D01*
Y003233D01*
Y003233D01*
Y003233D01*
Y003232D01*
X020148Y003232D01*
Y003231D01*
X020148Y003230D01*
X020147Y003228D01*
X020147Y003226D01*
X020147Y003224D01*
X020146Y003221D01*
X020145Y003218D01*
X020145Y003216D01*
X020143Y003213D01*
X020142Y003210D01*
X020141Y003207D01*
X020139Y003204D01*
X020137Y003201D01*
X020134Y003198D01*
X020134Y003198D01*
X020134Y003198D01*
X020133Y003197D01*
X020132Y003196D01*
X020130Y003195D01*
X020129Y003194D01*
X020127Y003193D01*
X020125Y003192D01*
X020123Y003190D01*
X020120Y003189D01*
X020117Y003188D01*
X020114Y003187D01*
X020111Y003186D01*
X020107Y003185D01*
X020104Y003185D01*
X020100Y003185D01*
X020099D01*
X020098Y003185D01*
X020097Y003185D01*
X020095Y003185D01*
X020094Y003185D01*
X020092Y003185D01*
X020090Y003186D01*
X020088Y003186D01*
X020086Y003186D01*
X020084Y003187D01*
X020082Y003188D01*
X020080Y003189D01*
X020078Y003189D01*
X020076Y003190D01*
X020076Y003190D01*
X020075Y003191D01*
X020075Y003191D01*
X020074Y003191D01*
X020073Y003192D01*
X020072Y003193D01*
X020071Y003194D01*
X020069Y003195D01*
X020068Y003196D01*
X020066Y003197D01*
X020065Y003198D01*
X020063Y003200D01*
X020062Y003202D01*
X020061Y003203D01*
X020059Y003205D01*
X020058Y003207D01*
X020058Y003207D01*
X020058Y003208D01*
X020058Y003208D01*
X020057Y003209D01*
X020057Y003210D01*
X020056Y003212D01*
X020056Y003213D01*
X020055Y003215D01*
X020055Y003217D01*
X020054Y003219D01*
X020054Y003221D01*
X020053Y003223D01*
X020053Y003226D01*
X020052Y003229D01*
X020052Y003231D01*
X020052Y003234D01*
Y003235D01*
Y003235D01*
Y003236D01*
X020052Y003236D01*
X020052Y003238D01*
X020052Y003239D01*
X020053Y003240D01*
X020053Y003242D01*
X020053Y003244D01*
X020054Y003245D01*
X020054Y003247D01*
X020055Y003249D01*
X020055Y003252D01*
X020056Y003254D01*
X020057Y003256D01*
X020058Y003258D01*
X020058Y003258D01*
X020058Y003258D01*
X020059Y003259D01*
X020059Y003260D01*
X020060Y003261D01*
X020061Y003262D01*
X020061Y003263D01*
X020063Y003264D01*
X020064Y003266D01*
X020065Y003267D01*
X020066Y003269D01*
X020068Y003270D01*
X020070Y003272D01*
X020071Y003273D01*
X020073Y003274D01*
X020075Y003275D01*
X020075Y003276D01*
X020076Y003276D01*
X020076Y003276D01*
X020077Y003276D01*
X020078Y003277D01*
X020079Y003277D01*
X020081Y003278D01*
X020082Y003278D01*
X020084Y003279D01*
X020086Y003280D01*
X020088Y003280D01*
X020090Y003281D01*
X020093Y003281D01*
X020095Y003281D01*
X020097Y003281D01*
X020100Y003282D01*
X020101D01*
X020101Y003281D01*
D02*
G37*
G36*
X019064Y003317D02*
X019065D01*
X019065Y003317D01*
X019067Y003317D01*
X019068Y003316D01*
X019069Y003316D01*
X019070Y003316D01*
X019072Y003316D01*
X019075Y003315D01*
X019078Y003315D01*
X019082Y003314D01*
X019085Y003313D01*
X019089Y003311D01*
X019093Y003309D01*
X019097Y003307D01*
X019100Y003305D01*
X019102Y003304D01*
X019104Y003302D01*
X019105Y003301D01*
X019107Y003299D01*
X019107Y003299D01*
X019107Y003299D01*
X019108Y003299D01*
X019108Y003298D01*
X019108Y003298D01*
X019109Y003297D01*
X019109Y003297D01*
X019110Y003296D01*
X019110Y003295D01*
X019111Y003294D01*
X019112Y003293D01*
X019113Y003292D01*
X019113Y003291D01*
X019114Y003289D01*
X019115Y003288D01*
X019116Y003287D01*
X019117Y003283D01*
X019119Y003280D01*
X019120Y003276D01*
X019121Y003271D01*
X019123Y003267D01*
X019123Y003262D01*
X019124Y003256D01*
X019124Y003253D01*
Y003250D01*
Y003250D01*
Y003250D01*
Y003250D01*
Y003249D01*
X019124Y003248D01*
Y003247D01*
X019124Y003246D01*
X019124Y003245D01*
X019124Y003244D01*
X019124Y003243D01*
X019124Y003241D01*
X019123Y003240D01*
X019123Y003236D01*
X019122Y003233D01*
X019121Y003229D01*
X019120Y003225D01*
X019119Y003221D01*
X019117Y003217D01*
X019115Y003213D01*
X019113Y003209D01*
X019112Y003207D01*
X019110Y003205D01*
X019109Y003204D01*
X019107Y003202D01*
X019107Y003202D01*
X019107Y003202D01*
X019107Y003202D01*
X019107Y003201D01*
X019106Y003201D01*
X019105Y003200D01*
X019105Y003200D01*
X019104Y003199D01*
X019103Y003198D01*
X019100Y003196D01*
X019098Y003195D01*
X019095Y003193D01*
X019092Y003192D01*
X019089Y003190D01*
X019085Y003189D01*
X019081Y003187D01*
X019077Y003186D01*
X019072Y003185D01*
X019067Y003185D01*
X019065Y003185D01*
X019062Y003185D01*
X019061D01*
X019060Y003185D01*
X019059D01*
X019059Y003185D01*
X019058Y003185D01*
X019056Y003185D01*
X019055Y003185D01*
X019054Y003185D01*
X019052Y003185D01*
X019049Y003186D01*
X019046Y003187D01*
X019042Y003188D01*
X019039Y003189D01*
X019035Y003190D01*
X019031Y003192D01*
X019027Y003194D01*
X019024Y003196D01*
X019022Y003197D01*
X019020Y003199D01*
X019018Y003200D01*
X019017Y003202D01*
Y003202D01*
X019017Y003202D01*
X019016Y003202D01*
X019016Y003203D01*
X019016Y003203D01*
X019015Y003204D01*
X019015Y003204D01*
X019014Y003205D01*
X019014Y003206D01*
X019013Y003207D01*
X019012Y003208D01*
X019011Y003209D01*
X019011Y003210D01*
X019010Y003212D01*
X019008Y003214D01*
X019007Y003218D01*
X019005Y003221D01*
X019004Y003225D01*
X019003Y003229D01*
X019002Y003234D01*
X019001Y003239D01*
X019000Y003244D01*
X019000Y003247D01*
X019000Y003250D01*
Y003250D01*
Y003250D01*
Y003250D01*
Y003251D01*
Y003251D01*
Y003252D01*
X019000Y003253D01*
X019000Y003255D01*
X019000Y003257D01*
X019000Y003259D01*
X019001Y003261D01*
X019001Y003264D01*
X019001Y003266D01*
X019002Y003269D01*
X019002Y003272D01*
X019003Y003275D01*
X019004Y003277D01*
X019005Y003280D01*
X019006Y003283D01*
X019006Y003283D01*
X019006Y003283D01*
X019006Y003284D01*
X019007Y003284D01*
X019007Y003285D01*
X019008Y003286D01*
X019008Y003287D01*
X019009Y003289D01*
X019011Y003291D01*
X019013Y003294D01*
X019015Y003297D01*
X019018Y003300D01*
X019018Y003300D01*
X019018Y003301D01*
X019018Y003301D01*
X019019Y003301D01*
X019020Y003302D01*
X019021Y003303D01*
X019022Y003304D01*
X019023Y003305D01*
X019024Y003305D01*
X019025Y003306D01*
X019028Y003308D01*
X019031Y003310D01*
X019033Y003311D01*
X019034Y003312D01*
X019034Y003312D01*
X019035Y003312D01*
X019036Y003312D01*
X019036Y003313D01*
X019038Y003313D01*
X019039Y003313D01*
X019040Y003314D01*
X019042Y003314D01*
X019044Y003315D01*
X019046Y003315D01*
X019049Y003316D01*
X019051Y003316D01*
X019054Y003316D01*
X019056Y003317D01*
X019059Y003317D01*
X019062Y003317D01*
X019063D01*
X019064Y003317D01*
D02*
G37*
G36*
X019887Y003151D02*
X019785D01*
Y003167D01*
X019887D01*
Y003151D01*
D02*
G37*
G36*
X019410Y003151D02*
X019308D01*
Y003167D01*
X019410D01*
Y003151D01*
D02*
G37*
G36*
X019743Y003126D02*
X019744Y003126D01*
X019746Y003126D01*
X019748Y003125D01*
X019750Y003125D01*
X019752Y003125D01*
X019754Y003124D01*
X019757Y003123D01*
X019759Y003123D01*
X019761Y003121D01*
X019764Y003120D01*
X019766Y003119D01*
X019769Y003117D01*
X019771Y003116D01*
X019771Y003115D01*
X019771Y003115D01*
X019772Y003115D01*
X019772Y003114D01*
X019773Y003113D01*
X019774Y003112D01*
X019775Y003110D01*
X019776Y003109D01*
X019777Y003107D01*
X019778Y003105D01*
X019779Y003103D01*
X019780Y003101D01*
X019781Y003098D01*
X019781Y003096D01*
X019782Y003093D01*
X019782Y003090D01*
Y003090D01*
Y003090D01*
Y003089D01*
Y003089D01*
X019782Y003088D01*
X019781Y003087D01*
X019781Y003086D01*
X019781Y003085D01*
X019781Y003082D01*
X019780Y003080D01*
X019779Y003077D01*
X019778Y003074D01*
Y003074D01*
X019778Y003073D01*
X019778Y003073D01*
X019778Y003072D01*
X019778Y003072D01*
X019777Y003071D01*
X019777Y003070D01*
X019776Y003069D01*
X019775Y003068D01*
X019775Y003066D01*
X019773Y003064D01*
X019771Y003061D01*
X019769Y003057D01*
X019769Y003057D01*
X019768Y003057D01*
X019768Y003057D01*
X019768Y003056D01*
X019767Y003056D01*
X019767Y003055D01*
X019766Y003054D01*
X019765Y003053D01*
X019764Y003052D01*
X019763Y003051D01*
X019761Y003050D01*
X019760Y003048D01*
X019758Y003047D01*
X019757Y003045D01*
X019755Y003043D01*
X019753Y003041D01*
X019752Y003041D01*
X019752Y003041D01*
X019751Y003040D01*
X019751Y003039D01*
X019750Y003038D01*
X019749Y003038D01*
X019748Y003036D01*
X019746Y003035D01*
X019744Y003033D01*
X019741Y003031D01*
X019740Y003030D01*
X019739Y003029D01*
X019738Y003028D01*
X019738Y003027D01*
X019738Y003027D01*
X019737Y003026D01*
X019737Y003026D01*
X019736Y003025D01*
X019735Y003024D01*
X019734Y003023D01*
X019734Y003021D01*
X019733Y003020D01*
X019782D01*
Y002997D01*
X019696Y002997D01*
Y002998D01*
X019696Y002998D01*
X019696Y002999D01*
X019696Y003000D01*
X019696Y003001D01*
X019696Y003002D01*
X019697Y003004D01*
X019697Y003005D01*
X019698Y003007D01*
X019698Y003009D01*
X019699Y003011D01*
X019700Y003013D01*
X019701Y003015D01*
X019702Y003017D01*
X019703Y003020D01*
X019704Y003022D01*
X019704Y003022D01*
X019704Y003022D01*
X019705Y003023D01*
X019705Y003024D01*
X019706Y003025D01*
X019707Y003026D01*
X019709Y003028D01*
X019710Y003030D01*
X019712Y003032D01*
X019714Y003034D01*
X019716Y003037D01*
X019719Y003040D01*
X019721Y003043D01*
X019724Y003046D01*
X019728Y003049D01*
X019732Y003053D01*
X019732Y003053D01*
X019732Y003053D01*
X019732Y003053D01*
X019733Y003054D01*
X019734Y003055D01*
X019736Y003056D01*
X019737Y003058D01*
X019739Y003059D01*
X019740Y003061D01*
X019744Y003064D01*
X019746Y003066D01*
X019747Y003068D01*
X019749Y003069D01*
X019750Y003071D01*
X019751Y003072D01*
X019752Y003073D01*
X019752Y003074D01*
X019752Y003074D01*
X019752Y003074D01*
X019753Y003075D01*
X019753Y003075D01*
X019754Y003076D01*
X019754Y003077D01*
X019755Y003078D01*
X019755Y003080D01*
X019756Y003083D01*
X019757Y003086D01*
X019757Y003087D01*
X019757Y003088D01*
Y003089D01*
Y003089D01*
Y003089D01*
X019757Y003090D01*
Y003091D01*
X019757Y003091D01*
X019756Y003093D01*
X019756Y003095D01*
X019755Y003097D01*
X019754Y003099D01*
X019753Y003100D01*
X019753Y003101D01*
X019752Y003101D01*
X019752Y003101D01*
X019752Y003101D01*
X019752Y003102D01*
X019751Y003102D01*
X019751Y003102D01*
X019750Y003103D01*
X019749Y003103D01*
X019748Y003104D01*
X019746Y003105D01*
X019743Y003105D01*
X019742Y003105D01*
X019740Y003106D01*
X019740D01*
X019739Y003105D01*
X019738D01*
X019738Y003105D01*
X019736Y003105D01*
X019734Y003104D01*
X019732Y003104D01*
X019731Y003103D01*
X019730Y003102D01*
X019729Y003102D01*
X019728Y003101D01*
X019728Y003101D01*
X019728Y003101D01*
X019728Y003100D01*
X019727Y003100D01*
X019727Y003099D01*
X019727Y003099D01*
X019726Y003098D01*
X019726Y003097D01*
X019725Y003096D01*
X019725Y003095D01*
X019724Y003094D01*
X019724Y003092D01*
X019724Y003091D01*
X019723Y003089D01*
X019723Y003087D01*
X019723Y003086D01*
X019699Y003088D01*
Y003088D01*
Y003088D01*
X019699Y003088D01*
Y003089D01*
X019699Y003089D01*
X019699Y003090D01*
X019699Y003091D01*
X019699Y003093D01*
X019700Y003095D01*
X019700Y003097D01*
X019701Y003099D01*
X019702Y003102D01*
X019703Y003104D01*
X019704Y003106D01*
X019705Y003109D01*
X019707Y003111D01*
X019708Y003113D01*
X019710Y003115D01*
X019712Y003117D01*
X019712Y003117D01*
X019713Y003117D01*
X019713Y003118D01*
X019714Y003118D01*
X019715Y003119D01*
X019717Y003120D01*
X019718Y003121D01*
X019720Y003121D01*
X019722Y003122D01*
X019724Y003123D01*
X019727Y003124D01*
X019729Y003124D01*
X019732Y003125D01*
X019735Y003125D01*
X019738Y003126D01*
X019741Y003126D01*
X019742D01*
X019743Y003126D01*
D02*
G37*
G36*
X019544Y003126D02*
X019545Y003126D01*
X019547Y003126D01*
X019549Y003125D01*
X019551Y003125D01*
X019553Y003125D01*
X019555Y003124D01*
X019558Y003123D01*
X019560Y003123D01*
X019563Y003121D01*
X019565Y003120D01*
X019568Y003119D01*
X019570Y003117D01*
X019572Y003116D01*
X019572Y003115D01*
X019572Y003115D01*
X019573Y003115D01*
X019574Y003114D01*
X019574Y003113D01*
X019575Y003112D01*
X019576Y003110D01*
X019577Y003109D01*
X019578Y003107D01*
X019579Y003105D01*
X019580Y003103D01*
X019581Y003101D01*
X019582Y003098D01*
X019582Y003096D01*
X019583Y003093D01*
X019583Y003090D01*
Y003090D01*
Y003090D01*
Y003089D01*
Y003089D01*
X019583Y003088D01*
X019583Y003087D01*
X019583Y003086D01*
X019582Y003085D01*
X019582Y003082D01*
X019582Y003080D01*
X019581Y003077D01*
X019580Y003074D01*
Y003074D01*
X019580Y003073D01*
X019579Y003073D01*
X019579Y003072D01*
X019579Y003072D01*
X019578Y003071D01*
X019578Y003070D01*
X019577Y003069D01*
X019577Y003068D01*
X019576Y003066D01*
X019574Y003064D01*
X019572Y003061D01*
X019570Y003057D01*
X019570Y003057D01*
X019570Y003057D01*
X019569Y003057D01*
X019569Y003056D01*
X019569Y003056D01*
X019568Y003055D01*
X019567Y003054D01*
X019566Y003053D01*
X019565Y003052D01*
X019564Y003051D01*
X019563Y003050D01*
X019561Y003048D01*
X019560Y003047D01*
X019558Y003045D01*
X019556Y003043D01*
X019554Y003041D01*
X019554Y003041D01*
X019553Y003041D01*
X019553Y003040D01*
X019552Y003039D01*
X019551Y003038D01*
X019550Y003038D01*
X019549Y003036D01*
X019548Y003035D01*
X019545Y003033D01*
X019543Y003031D01*
X019542Y003030D01*
X019541Y003029D01*
X019540Y003028D01*
X019539Y003027D01*
X019539Y003027D01*
X019539Y003026D01*
X019538Y003026D01*
X019537Y003025D01*
X019536Y003024D01*
X019536Y003023D01*
X019535Y003021D01*
X019534Y003020D01*
X019583D01*
Y002997D01*
X019497D01*
Y002998D01*
X019497Y002998D01*
X019497Y002999D01*
X019497Y003000D01*
X019497Y003001D01*
X019498Y003002D01*
X019498Y003004D01*
X019498Y003005D01*
X019499Y003007D01*
X019500Y003009D01*
X019500Y003011D01*
X019501Y003013D01*
X019502Y003015D01*
X019503Y003017D01*
X019504Y003020D01*
X019505Y003022D01*
X019505Y003022D01*
X019506Y003022D01*
X019506Y003023D01*
X019507Y003024D01*
X019507Y003025D01*
X019509Y003026D01*
X019510Y003028D01*
X019511Y003030D01*
X019513Y003032D01*
X019515Y003034D01*
X019517Y003037D01*
X019520Y003040D01*
X019523Y003043D01*
X019526Y003046D01*
X019529Y003049D01*
X019533Y003053D01*
X019533Y003053D01*
X019533Y003053D01*
X019534Y003053D01*
X019534Y003054D01*
X019536Y003055D01*
X019537Y003056D01*
X019538Y003058D01*
X019540Y003059D01*
X019542Y003061D01*
X019545Y003064D01*
X019547Y003066D01*
X019548Y003068D01*
X019550Y003069D01*
X019551Y003071D01*
X019552Y003072D01*
X019553Y003073D01*
X019553Y003074D01*
X019553Y003074D01*
X019554Y003074D01*
X019554Y003075D01*
X019554Y003075D01*
X019555Y003076D01*
X019555Y003077D01*
X019556Y003078D01*
X019557Y003080D01*
X019557Y003083D01*
X019558Y003086D01*
X019558Y003087D01*
X019558Y003088D01*
Y003089D01*
Y003089D01*
Y003089D01*
X019558Y003090D01*
Y003091D01*
X019558Y003091D01*
X019558Y003093D01*
X019557Y003095D01*
X019556Y003097D01*
X019555Y003099D01*
X019555Y003100D01*
X019554Y003101D01*
X019554Y003101D01*
X019554Y003101D01*
X019553Y003101D01*
X019553Y003102D01*
X019553Y003102D01*
X019552Y003102D01*
X019551Y003103D01*
X019551Y003103D01*
X019549Y003104D01*
X019547Y003105D01*
X019544Y003105D01*
X019543Y003105D01*
X019542Y003106D01*
X019541D01*
X019540Y003105D01*
X019540D01*
X019539Y003105D01*
X019537Y003105D01*
X019535Y003104D01*
X019533Y003104D01*
X019532Y003103D01*
X019531Y003102D01*
X019530Y003102D01*
X019529Y003101D01*
X019529Y003101D01*
X019529Y003101D01*
X019529Y003100D01*
X019529Y003100D01*
X019528Y003099D01*
X019528Y003099D01*
X019527Y003098D01*
X019527Y003097D01*
X019527Y003096D01*
X019526Y003095D01*
X019526Y003094D01*
X019525Y003092D01*
X019525Y003091D01*
X019525Y003089D01*
X019524Y003087D01*
X019524Y003086D01*
X019500Y003088D01*
Y003088D01*
Y003088D01*
X019500Y003088D01*
Y003089D01*
X019500Y003089D01*
X019500Y003090D01*
X019500Y003091D01*
X019501Y003093D01*
X019501Y003095D01*
X019502Y003097D01*
X019502Y003099D01*
X019503Y003102D01*
X019504Y003104D01*
X019505Y003106D01*
X019506Y003109D01*
X019508Y003111D01*
X019509Y003113D01*
X019511Y003115D01*
X019513Y003117D01*
X019513Y003117D01*
X019514Y003117D01*
X019515Y003118D01*
X019515Y003118D01*
X019517Y003119D01*
X019518Y003120D01*
X019520Y003121D01*
X019521Y003121D01*
X019523Y003122D01*
X019525Y003123D01*
X019528Y003124D01*
X019530Y003124D01*
X019533Y003125D01*
X019536Y003125D01*
X019539Y003126D01*
X019542Y003126D01*
X019543D01*
X019544Y003126D01*
D02*
G37*
G36*
X019480Y002997D02*
X019456D01*
Y003022D01*
X019480D01*
Y002997D01*
D02*
G37*
G36*
X019435Y003106D02*
X019435Y003106D01*
X019434Y003105D01*
X019434Y003105D01*
X019433Y003104D01*
X019432Y003103D01*
X019431Y003102D01*
X019430Y003100D01*
X019428Y003098D01*
X019427Y003096D01*
X019425Y003094D01*
X019423Y003092D01*
X019422Y003089D01*
X019420Y003086D01*
X019418Y003083D01*
X019416Y003080D01*
X019414Y003076D01*
Y003076D01*
X019414Y003076D01*
X019413Y003076D01*
X019413Y003076D01*
X019413Y003075D01*
X019413Y003075D01*
X019412Y003074D01*
X019412Y003073D01*
X019411Y003071D01*
X019410Y003069D01*
X019409Y003067D01*
X019408Y003064D01*
X019406Y003061D01*
X019405Y003058D01*
X019404Y003055D01*
X019402Y003051D01*
X019401Y003048D01*
X019400Y003044D01*
X019398Y003040D01*
X019397Y003036D01*
Y003036D01*
X019397Y003036D01*
Y003035D01*
X019397Y003035D01*
X019397Y003034D01*
X019397Y003034D01*
X019397Y003033D01*
X019396Y003032D01*
X019396Y003030D01*
X019396Y003028D01*
X019395Y003026D01*
X019395Y003023D01*
X019394Y003020D01*
X019393Y003017D01*
X019393Y003014D01*
X019393Y003011D01*
X019392Y003007D01*
X019392Y003004D01*
X019392Y003001D01*
X019392Y002997D01*
X019368D01*
Y002998D01*
Y002998D01*
Y002998D01*
X019368Y002999D01*
Y002999D01*
Y003000D01*
X019368Y003001D01*
X019368Y003002D01*
X019369Y003003D01*
X019369Y003004D01*
X019369Y003006D01*
X019369Y003007D01*
X019369Y003009D01*
X019369Y003011D01*
X019370Y003014D01*
X019370Y003018D01*
X019371Y003022D01*
X019372Y003027D01*
X019373Y003031D01*
X019374Y003036D01*
X019376Y003041D01*
X019377Y003046D01*
X019379Y003052D01*
Y003052D01*
X019379Y003052D01*
X019379Y003052D01*
X019380Y003053D01*
X019380Y003053D01*
X019380Y003054D01*
X019381Y003055D01*
X019381Y003056D01*
X019381Y003057D01*
X019382Y003059D01*
X019383Y003060D01*
X019383Y003061D01*
X019385Y003065D01*
X019386Y003068D01*
X019388Y003072D01*
X019390Y003076D01*
X019393Y003080D01*
X019395Y003084D01*
X019398Y003088D01*
X019401Y003093D01*
X019404Y003097D01*
X019407Y003101D01*
X019351D01*
Y003124D01*
X019435D01*
Y003106D01*
D02*
G37*
G36*
X019232Y002997D02*
X019207D01*
Y003022D01*
X019232D01*
Y002997D01*
D02*
G37*
G36*
X019165D02*
X019141D01*
Y003090D01*
X019141Y003090D01*
X019140Y003089D01*
X019139Y003089D01*
X019138Y003088D01*
X019137Y003087D01*
X019136Y003086D01*
X019134Y003084D01*
X019132Y003083D01*
X019130Y003081D01*
X019127Y003080D01*
X019125Y003078D01*
X019122Y003077D01*
X019119Y003075D01*
X019116Y003074D01*
X019112Y003072D01*
X019109Y003071D01*
Y003093D01*
X019109D01*
X019110Y003094D01*
X019110Y003094D01*
X019111Y003094D01*
X019112Y003094D01*
X019113Y003095D01*
X019114Y003095D01*
X019115Y003096D01*
X019117Y003097D01*
X019118Y003098D01*
X019120Y003099D01*
X019122Y003100D01*
X019124Y003101D01*
X019126Y003102D01*
X019128Y003104D01*
X019130Y003105D01*
X019130Y003105D01*
X019130Y003106D01*
X019131Y003106D01*
X019132Y003107D01*
X019133Y003108D01*
X019134Y003109D01*
X019135Y003110D01*
X019136Y003111D01*
X019137Y003113D01*
X019139Y003114D01*
X019140Y003116D01*
X019141Y003118D01*
X019142Y003120D01*
X019143Y003122D01*
X019145Y003124D01*
X019145Y003126D01*
X019165D01*
Y002997D01*
D02*
G37*
G36*
X019047Y003126D02*
X019048Y003126D01*
X019050Y003126D01*
X019052Y003125D01*
X019054Y003125D01*
X019056Y003125D01*
X019058Y003124D01*
X019061Y003123D01*
X019063Y003123D01*
X019066Y003121D01*
X019068Y003120D01*
X019071Y003119D01*
X019073Y003117D01*
X019075Y003116D01*
X019075Y003115D01*
X019076Y003115D01*
X019076Y003115D01*
X019077Y003114D01*
X019078Y003113D01*
X019078Y003112D01*
X019080Y003110D01*
X019081Y003109D01*
X019082Y003107D01*
X019083Y003105D01*
X019083Y003103D01*
X019084Y003101D01*
X019085Y003098D01*
X019086Y003096D01*
X019086Y003093D01*
X019086Y003090D01*
Y003090D01*
Y003090D01*
Y003089D01*
Y003089D01*
X019086Y003088D01*
X019086Y003087D01*
X019086Y003086D01*
X019086Y003085D01*
X019085Y003082D01*
X019085Y003080D01*
X019084Y003077D01*
X019083Y003074D01*
Y003074D01*
X019083Y003073D01*
X019082Y003073D01*
X019082Y003072D01*
X019082Y003072D01*
X019081Y003071D01*
X019081Y003070D01*
X019080Y003069D01*
X019080Y003068D01*
X019079Y003066D01*
X019077Y003064D01*
X019075Y003061D01*
X019073Y003057D01*
X019073Y003057D01*
X019073Y003057D01*
X019073Y003057D01*
X019072Y003056D01*
X019072Y003056D01*
X019071Y003055D01*
X019070Y003054D01*
X019069Y003053D01*
X019068Y003052D01*
X019067Y003051D01*
X019066Y003050D01*
X019064Y003048D01*
X019063Y003047D01*
X019061Y003045D01*
X019059Y003043D01*
X019057Y003041D01*
X019057Y003041D01*
X019056Y003041D01*
X019056Y003040D01*
X019055Y003039D01*
X019054Y003038D01*
X019053Y003038D01*
X019052Y003036D01*
X019051Y003035D01*
X019048Y003033D01*
X019046Y003031D01*
X019045Y003030D01*
X019044Y003029D01*
X019043Y003028D01*
X019042Y003027D01*
X019042Y003027D01*
X019042Y003026D01*
X019041Y003026D01*
X019040Y003025D01*
X019040Y003024D01*
X019039Y003023D01*
X019038Y003021D01*
X019037Y003020D01*
X019086D01*
Y002997D01*
X019000D01*
Y002998D01*
X019000Y002998D01*
X019000Y002999D01*
X019000Y003000D01*
X019001Y003001D01*
X019001Y003002D01*
X019001Y003004D01*
X019002Y003005D01*
X019002Y003007D01*
X019003Y003009D01*
X019003Y003011D01*
X019004Y003013D01*
X019005Y003015D01*
X019006Y003017D01*
X019007Y003020D01*
X019008Y003022D01*
X019008Y003022D01*
X019009Y003022D01*
X019009Y003023D01*
X019010Y003024D01*
X019011Y003025D01*
X019012Y003026D01*
X019013Y003028D01*
X019014Y003030D01*
X019016Y003032D01*
X019018Y003034D01*
X019020Y003037D01*
X019023Y003040D01*
X019026Y003043D01*
X019029Y003046D01*
X019032Y003049D01*
X019036Y003053D01*
X019036Y003053D01*
X019036Y003053D01*
X019037Y003053D01*
X019038Y003054D01*
X019039Y003055D01*
X019040Y003056D01*
X019041Y003058D01*
X019043Y003059D01*
X019045Y003061D01*
X019048Y003064D01*
X019050Y003066D01*
X019051Y003068D01*
X019053Y003069D01*
X019054Y003071D01*
X019055Y003072D01*
X019056Y003073D01*
X019056Y003074D01*
X019056Y003074D01*
X019057Y003074D01*
X019057Y003075D01*
X019058Y003075D01*
X019058Y003076D01*
X019058Y003077D01*
X019059Y003078D01*
X019060Y003080D01*
X019061Y003083D01*
X019061Y003086D01*
X019061Y003087D01*
X019061Y003088D01*
Y003089D01*
Y003089D01*
Y003089D01*
X019061Y003090D01*
Y003091D01*
X019061Y003091D01*
X019061Y003093D01*
X019060Y003095D01*
X019060Y003097D01*
X019058Y003099D01*
X019058Y003100D01*
X019057Y003101D01*
X019057Y003101D01*
X019057Y003101D01*
X019056Y003101D01*
X019056Y003102D01*
X019056Y003102D01*
X019055Y003102D01*
X019054Y003103D01*
X019054Y003103D01*
X019052Y003104D01*
X019050Y003105D01*
X019048Y003105D01*
X019046Y003105D01*
X019045Y003106D01*
X019044D01*
X019043Y003105D01*
X019043D01*
X019042Y003105D01*
X019040Y003105D01*
X019038Y003104D01*
X019036Y003104D01*
X019035Y003103D01*
X019034Y003102D01*
X019033Y003102D01*
X019032Y003101D01*
X019032Y003101D01*
X019032Y003101D01*
X019032Y003100D01*
X019032Y003100D01*
X019031Y003099D01*
X019031Y003099D01*
X019031Y003098D01*
X019030Y003097D01*
X019030Y003096D01*
X019029Y003095D01*
X019029Y003094D01*
X019028Y003092D01*
X019028Y003091D01*
X019028Y003089D01*
X019027Y003087D01*
X019027Y003086D01*
X019003Y003088D01*
Y003088D01*
Y003088D01*
X019003Y003088D01*
Y003089D01*
X019003Y003089D01*
X019003Y003090D01*
X019003Y003091D01*
X019004Y003093D01*
X019004Y003095D01*
X019005Y003097D01*
X019005Y003099D01*
X019006Y003102D01*
X019007Y003104D01*
X019008Y003106D01*
X019010Y003109D01*
X019011Y003111D01*
X019013Y003113D01*
X019014Y003115D01*
X019016Y003117D01*
X019017Y003117D01*
X019017Y003117D01*
X019018Y003118D01*
X019018Y003118D01*
X019020Y003119D01*
X019021Y003120D01*
X019023Y003121D01*
X019024Y003121D01*
X019026Y003122D01*
X019029Y003123D01*
X019031Y003124D01*
X019033Y003124D01*
X019036Y003125D01*
X019039Y003125D01*
X019042Y003126D01*
X019045Y003126D01*
X019046D01*
X019047Y003126D01*
D02*
G37*
G36*
X019841Y003126D02*
X019843Y003126D01*
X019844Y003125D01*
X019846Y003125D01*
X019848Y003125D01*
X019850Y003124D01*
X019852Y003123D01*
X019855Y003123D01*
X019857Y003121D01*
X019860Y003120D01*
X019862Y003119D01*
X019864Y003117D01*
X019867Y003115D01*
X019869Y003113D01*
X019869Y003112D01*
X019869Y003112D01*
X019869Y003112D01*
X019869Y003111D01*
X019870Y003111D01*
X019870Y003110D01*
X019871Y003109D01*
X019871Y003109D01*
X019872Y003108D01*
X019872Y003107D01*
X019873Y003106D01*
X019873Y003104D01*
X019874Y003103D01*
X019874Y003102D01*
X019875Y003100D01*
X019875Y003098D01*
X019876Y003097D01*
X019877Y003095D01*
X019877Y003093D01*
X019878Y003091D01*
X019878Y003089D01*
X019879Y003086D01*
X019879Y003084D01*
X019880Y003081D01*
X019880Y003079D01*
X019880Y003076D01*
X019881Y003073D01*
X019881Y003070D01*
X019881Y003067D01*
X019881Y003064D01*
Y003060D01*
Y003060D01*
Y003060D01*
Y003060D01*
Y003059D01*
Y003058D01*
X019881Y003057D01*
Y003056D01*
X019881Y003055D01*
X019881Y003053D01*
X019881Y003052D01*
X019881Y003050D01*
X019881Y003048D01*
X019880Y003044D01*
X019880Y003040D01*
X019879Y003036D01*
X019878Y003032D01*
X019877Y003027D01*
X019876Y003023D01*
X019874Y003019D01*
X019873Y003015D01*
X019872Y003013D01*
X019871Y003011D01*
X019870Y003010D01*
X019869Y003008D01*
X019869Y003008D01*
X019868Y003008D01*
X019868Y003007D01*
X019867Y003006D01*
X019866Y003005D01*
X019864Y003004D01*
X019863Y003003D01*
X019861Y003002D01*
X019859Y003000D01*
X019857Y002999D01*
X019855Y002998D01*
X019852Y002997D01*
X019849Y002996D01*
X019846Y002996D01*
X019843Y002995D01*
X019840Y002995D01*
X019839D01*
X019838Y002995D01*
X019837Y002995D01*
X019835Y002996D01*
X019833Y002996D01*
X019831Y002996D01*
X019829Y002997D01*
X019826Y002998D01*
X019824Y002999D01*
X019822Y003000D01*
X019819Y003001D01*
X019816Y003003D01*
X019814Y003005D01*
X019812Y003007D01*
X019809Y003010D01*
X019809Y003010D01*
X019809Y003010D01*
X019809Y003011D01*
X019808Y003011D01*
X019808Y003012D01*
X019808Y003012D01*
X019807Y003013D01*
X019807Y003014D01*
X019806Y003015D01*
X019806Y003016D01*
X019805Y003017D01*
X019805Y003018D01*
X019804Y003020D01*
X019804Y003021D01*
X019803Y003023D01*
X019803Y003025D01*
X019802Y003026D01*
X019802Y003028D01*
X019801Y003030D01*
X019801Y003032D01*
X019800Y003035D01*
X019800Y003037D01*
X019799Y003040D01*
X019799Y003042D01*
X019799Y003045D01*
X019799Y003048D01*
X019798Y003051D01*
X019798Y003054D01*
X019798Y003057D01*
Y003061D01*
Y003061D01*
Y003061D01*
Y003062D01*
Y003062D01*
X019798Y003063D01*
Y003064D01*
Y003065D01*
X019798Y003067D01*
X019798Y003068D01*
X019798Y003070D01*
X019799Y003071D01*
X019799Y003073D01*
X019799Y003077D01*
X019800Y003081D01*
X019800Y003085D01*
X019801Y003089D01*
X019802Y003094D01*
X019803Y003098D01*
X019805Y003102D01*
X019806Y003106D01*
X019807Y003108D01*
X019808Y003109D01*
X019809Y003111D01*
X019811Y003113D01*
X019811Y003113D01*
X019811Y003113D01*
X019812Y003114D01*
X019813Y003115D01*
X019814Y003116D01*
X019815Y003117D01*
X019816Y003118D01*
X019818Y003119D01*
X019820Y003120D01*
X019822Y003122D01*
X019825Y003123D01*
X019827Y003124D01*
X019830Y003125D01*
X019833Y003125D01*
X019836Y003126D01*
X019840Y003126D01*
X019840D01*
X019841Y003126D01*
D02*
G37*
G36*
X019643Y003126D02*
X019644Y003126D01*
X019645Y003125D01*
X019647Y003125D01*
X019649Y003125D01*
X019651Y003124D01*
X019654Y003123D01*
X019656Y003123D01*
X019658Y003121D01*
X019661Y003120D01*
X019663Y003119D01*
X019666Y003117D01*
X019668Y003115D01*
X019670Y003113D01*
X019670Y003112D01*
X019670Y003112D01*
X019670Y003112D01*
X019671Y003111D01*
X019671Y003111D01*
X019671Y003110D01*
X019672Y003109D01*
X019672Y003109D01*
X019673Y003108D01*
X019673Y003107D01*
X019674Y003106D01*
X019674Y003104D01*
X019675Y003103D01*
X019676Y003102D01*
X019676Y003100D01*
X019677Y003098D01*
X019677Y003097D01*
X019678Y003095D01*
X019678Y003093D01*
X019679Y003091D01*
X019679Y003089D01*
X019680Y003086D01*
X019680Y003084D01*
X019681Y003081D01*
X019681Y003079D01*
X019682Y003076D01*
X019682Y003073D01*
X019682Y003070D01*
X019682Y003067D01*
X019682Y003064D01*
Y003060D01*
Y003060D01*
Y003060D01*
Y003060D01*
Y003059D01*
Y003058D01*
X019682Y003057D01*
Y003056D01*
X019682Y003055D01*
X019682Y003053D01*
X019682Y003052D01*
X019682Y003050D01*
X019682Y003048D01*
X019681Y003044D01*
X019681Y003040D01*
X019680Y003036D01*
X019679Y003032D01*
X019678Y003027D01*
X019677Y003023D01*
X019676Y003019D01*
X019674Y003015D01*
X019673Y003013D01*
X019672Y003011D01*
X019671Y003010D01*
X019670Y003008D01*
X019670Y003008D01*
X019669Y003008D01*
X019669Y003007D01*
X019668Y003006D01*
X019667Y003005D01*
X019666Y003004D01*
X019664Y003003D01*
X019662Y003002D01*
X019660Y003000D01*
X019658Y002999D01*
X019656Y002998D01*
X019653Y002997D01*
X019650Y002996D01*
X019647Y002996D01*
X019644Y002995D01*
X019641Y002995D01*
X019640D01*
X019639Y002995D01*
X019638Y002995D01*
X019636Y002996D01*
X019634Y002996D01*
X019632Y002996D01*
X019630Y002997D01*
X019628Y002998D01*
X019625Y002999D01*
X019623Y003000D01*
X019620Y003001D01*
X019618Y003003D01*
X019615Y003005D01*
X019613Y003007D01*
X019611Y003010D01*
X019611Y003010D01*
X019610Y003010D01*
X019610Y003011D01*
X019610Y003011D01*
X019609Y003012D01*
X019609Y003012D01*
X019608Y003013D01*
X019608Y003014D01*
X019608Y003015D01*
X019607Y003016D01*
X019607Y003017D01*
X019606Y003018D01*
X019605Y003020D01*
X019605Y003021D01*
X019604Y003023D01*
X019604Y003025D01*
X019603Y003026D01*
X019603Y003028D01*
X019602Y003030D01*
X019602Y003032D01*
X019602Y003035D01*
X019601Y003037D01*
X019601Y003040D01*
X019600Y003042D01*
X019600Y003045D01*
X019600Y003048D01*
X019600Y003051D01*
X019599Y003054D01*
X019599Y003057D01*
Y003061D01*
Y003061D01*
Y003061D01*
Y003062D01*
Y003062D01*
X019599Y003063D01*
Y003064D01*
Y003065D01*
X019599Y003067D01*
X019600Y003068D01*
X019600Y003070D01*
X019600Y003071D01*
X019600Y003073D01*
X019600Y003077D01*
X019601Y003081D01*
X019602Y003085D01*
X019602Y003089D01*
X019603Y003094D01*
X019605Y003098D01*
X019606Y003102D01*
X019608Y003106D01*
X019609Y003108D01*
X019610Y003109D01*
X019611Y003111D01*
X019612Y003113D01*
X019612Y003113D01*
X019612Y003113D01*
X019613Y003114D01*
X019614Y003115D01*
X019615Y003116D01*
X019616Y003117D01*
X019618Y003118D01*
X019619Y003119D01*
X019621Y003120D01*
X019623Y003122D01*
X019626Y003123D01*
X019628Y003124D01*
X019631Y003125D01*
X019634Y003125D01*
X019637Y003126D01*
X019641Y003126D01*
X019642D01*
X019643Y003126D01*
D02*
G37*
G36*
X019295D02*
X019296Y003126D01*
X019298Y003125D01*
X019299Y003125D01*
X019301Y003125D01*
X019304Y003124D01*
X019306Y003123D01*
X019308Y003123D01*
X019311Y003121D01*
X019313Y003120D01*
X019315Y003119D01*
X019318Y003117D01*
X019320Y003115D01*
X019322Y003113D01*
X019322Y003112D01*
X019322Y003112D01*
X019323Y003112D01*
X019323Y003111D01*
X019323Y003111D01*
X019324Y003110D01*
X019324Y003109D01*
X019324Y003109D01*
X019325Y003108D01*
X019325Y003107D01*
X019326Y003106D01*
X019327Y003104D01*
X019327Y003103D01*
X019328Y003102D01*
X019328Y003100D01*
X019329Y003098D01*
X019330Y003097D01*
X019330Y003095D01*
X019331Y003093D01*
X019331Y003091D01*
X019332Y003089D01*
X019332Y003086D01*
X019333Y003084D01*
X019333Y003081D01*
X019333Y003079D01*
X019334Y003076D01*
X019334Y003073D01*
X019334Y003070D01*
X019335Y003067D01*
X019335Y003064D01*
Y003060D01*
Y003060D01*
Y003060D01*
Y003060D01*
Y003059D01*
Y003058D01*
X019335Y003057D01*
Y003056D01*
X019334Y003055D01*
X019334Y003053D01*
X019334Y003052D01*
X019334Y003050D01*
X019334Y003048D01*
X019334Y003044D01*
X019333Y003040D01*
X019332Y003036D01*
X019332Y003032D01*
X019331Y003027D01*
X019329Y003023D01*
X019328Y003019D01*
X019326Y003015D01*
X019325Y003013D01*
X019324Y003011D01*
X019323Y003010D01*
X019322Y003008D01*
X019322Y003008D01*
X019322Y003008D01*
X019321Y003007D01*
X019320Y003006D01*
X019319Y003005D01*
X019318Y003004D01*
X019316Y003003D01*
X019314Y003002D01*
X019313Y003000D01*
X019310Y002999D01*
X019308Y002998D01*
X019305Y002997D01*
X019303Y002996D01*
X019300Y002996D01*
X019296Y002995D01*
X019293Y002995D01*
X019292D01*
X019291Y002995D01*
X019290Y002995D01*
X019288Y002996D01*
X019287Y002996D01*
X019284Y002996D01*
X019282Y002997D01*
X019280Y002998D01*
X019277Y002999D01*
X019275Y003000D01*
X019272Y003001D01*
X019270Y003003D01*
X019267Y003005D01*
X019265Y003007D01*
X019263Y003010D01*
X019263Y003010D01*
X019262Y003010D01*
X019262Y003011D01*
X019262Y003011D01*
X019261Y003012D01*
X019261Y003012D01*
X019261Y003013D01*
X019260Y003014D01*
X019260Y003015D01*
X019259Y003016D01*
X019259Y003017D01*
X019258Y003018D01*
X019258Y003020D01*
X019257Y003021D01*
X019257Y003023D01*
X019256Y003025D01*
X019256Y003026D01*
X019255Y003028D01*
X019255Y003030D01*
X019254Y003032D01*
X019254Y003035D01*
X019253Y003037D01*
X019253Y003040D01*
X019252Y003042D01*
X019252Y003045D01*
X019252Y003048D01*
X019252Y003051D01*
X019252Y003054D01*
X019251Y003057D01*
Y003061D01*
Y003061D01*
Y003061D01*
Y003062D01*
Y003062D01*
X019252Y003063D01*
Y003064D01*
Y003065D01*
X019252Y003067D01*
X019252Y003068D01*
X019252Y003070D01*
X019252Y003071D01*
X019252Y003073D01*
X019252Y003077D01*
X019253Y003081D01*
X019254Y003085D01*
X019255Y003089D01*
X019256Y003094D01*
X019257Y003098D01*
X019258Y003102D01*
X019260Y003106D01*
X019261Y003108D01*
X019262Y003109D01*
X019263Y003111D01*
X019264Y003113D01*
X019264Y003113D01*
X019264Y003113D01*
X019265Y003114D01*
X019266Y003115D01*
X019267Y003116D01*
X019268Y003117D01*
X019270Y003118D01*
X019272Y003119D01*
X019273Y003120D01*
X019276Y003122D01*
X019278Y003123D01*
X019281Y003124D01*
X019283Y003125D01*
X019286Y003125D01*
X019290Y003126D01*
X019293Y003126D01*
X019294D01*
X019295Y003126D01*
D02*
G37*
%LPC*%
G36*
X020633Y003263D02*
X020614D01*
X020608Y003238D01*
X020628D01*
X020633Y003263D01*
D02*
G37*
G36*
X020207Y003263D02*
X020206D01*
X020206Y003263D01*
X020205Y003263D01*
X020204Y003262D01*
X020203Y003262D01*
X020202Y003262D01*
X020201Y003262D01*
X020200Y003261D01*
X020199Y003260D01*
X020197Y003260D01*
X020196Y003259D01*
X020195Y003258D01*
X020194Y003257D01*
X020192Y003256D01*
X020192Y003256D01*
X020192Y003255D01*
X020192Y003255D01*
X020192Y003254D01*
X020191Y003254D01*
X020191Y003253D01*
X020190Y003252D01*
X020190Y003251D01*
X020189Y003249D01*
X020189Y003248D01*
X020188Y003246D01*
X020188Y003244D01*
X020187Y003242D01*
X020187Y003240D01*
X020187Y003238D01*
X020187Y003235D01*
Y003235D01*
Y003234D01*
Y003234D01*
X020187Y003233D01*
Y003231D01*
X020187Y003230D01*
X020187Y003228D01*
X020187Y003227D01*
X020188Y003223D01*
X020188Y003220D01*
X020189Y003218D01*
X020189Y003216D01*
X020190Y003215D01*
X020191Y003214D01*
X020191Y003213D01*
X020191Y003213D01*
X020191Y003213D01*
X020192Y003212D01*
X020192Y003211D01*
X020193Y003211D01*
X020194Y003210D01*
X020195Y003209D01*
X020196Y003208D01*
X020197Y003207D01*
X020199Y003206D01*
X020200Y003206D01*
X020202Y003205D01*
X020203Y003204D01*
X020205Y003204D01*
X020207Y003204D01*
X020208D01*
X020208Y003204D01*
X020209D01*
X020209Y003204D01*
X020210Y003204D01*
X020211Y003205D01*
X020212Y003205D01*
X020213Y003205D01*
X020215Y003206D01*
X020216Y003206D01*
X020217Y003207D01*
X020218Y003208D01*
X020219Y003209D01*
X020221Y003210D01*
X020222Y003211D01*
X020222Y003211D01*
X020222Y003212D01*
X020222Y003212D01*
X020223Y003213D01*
X020223Y003213D01*
X020224Y003214D01*
X020224Y003215D01*
X020225Y003217D01*
X020225Y003218D01*
X020226Y003220D01*
X020226Y003221D01*
X020227Y003223D01*
X020227Y003225D01*
X020227Y003228D01*
X020228Y003230D01*
X020228Y003233D01*
Y003233D01*
Y003233D01*
Y003233D01*
Y003234D01*
X020228Y003235D01*
X020227Y003237D01*
X020227Y003238D01*
X020227Y003240D01*
X020227Y003242D01*
X020226Y003245D01*
X020226Y003247D01*
X020225Y003249D01*
X020224Y003251D01*
X020224Y003253D01*
X020223Y003254D01*
X020222Y003256D01*
X020222Y003256D01*
X020222Y003256D01*
X020221Y003256D01*
X020221Y003257D01*
X020220Y003257D01*
X020219Y003258D01*
X020219Y003259D01*
X020218Y003259D01*
X020217Y003260D01*
X020216Y003261D01*
X020215Y003261D01*
X020213Y003262D01*
X020212Y003262D01*
X020210Y003262D01*
X020209Y003263D01*
X020207Y003263D01*
D02*
G37*
G36*
X019721Y003285D02*
X019703Y003237D01*
X019738Y003237D01*
X019721Y003285D01*
D02*
G37*
G36*
X019594Y003293D02*
X019577D01*
Y003257D01*
X019594D01*
X019595Y003257D01*
X019596D01*
X019598Y003257D01*
X019600Y003257D01*
X019603Y003257D01*
X019606Y003257D01*
X019608Y003258D01*
X019609Y003258D01*
X019611Y003258D01*
X019612Y003259D01*
X019612D01*
X019612Y003259D01*
X019612Y003259D01*
X019613Y003259D01*
X019613Y003259D01*
X019615Y003260D01*
X019616Y003261D01*
X019617Y003262D01*
X019619Y003263D01*
X019620Y003265D01*
Y003265D01*
X019620Y003265D01*
X019620Y003265D01*
X019620Y003266D01*
X019621Y003267D01*
X019621Y003268D01*
X019622Y003269D01*
X019622Y003271D01*
X019623Y003273D01*
X019623Y003275D01*
Y003275D01*
Y003275D01*
Y003276D01*
X019623Y003276D01*
Y003277D01*
X019623Y003277D01*
X019622Y003279D01*
X019622Y003281D01*
X019621Y003283D01*
X019620Y003285D01*
X019619Y003286D01*
X019619Y003286D01*
Y003287D01*
X019618Y003287D01*
X019618Y003287D01*
X019617Y003288D01*
X019616Y003289D01*
X019614Y003290D01*
X019613Y003291D01*
X019610Y003292D01*
X019608Y003292D01*
X019608D01*
X019608Y003292D01*
X019607Y003292D01*
X019607D01*
X019606Y003292D01*
X019605Y003293D01*
X019604Y003293D01*
X019603Y003293D01*
X019602Y003293D01*
X019600Y003293D01*
X019598D01*
X019597Y003293D01*
X019594Y003293D01*
D02*
G37*
G36*
X019194Y003285D02*
X019177Y003237D01*
X019212D01*
X019194Y003285D01*
D02*
G37*
G36*
X020472Y003263D02*
X020471D01*
X020471Y003263D01*
X020470Y003263D01*
X020469Y003262D01*
X020468Y003262D01*
X020467Y003262D01*
X020465Y003261D01*
X020464Y003261D01*
X020463Y003260D01*
X020462Y003260D01*
X020461Y003259D01*
X020460Y003258D01*
X020459Y003257D01*
X020458Y003257D01*
X020458Y003257D01*
X020458Y003256D01*
X020458Y003256D01*
X020457Y003255D01*
X020457Y003254D01*
X020456Y003254D01*
X020456Y003253D01*
X020455Y003252D01*
X020455Y003250D01*
X020455Y003249D01*
X020454Y003248D01*
X020454Y003246D01*
X020454Y003245D01*
X020453Y003243D01*
Y003241D01*
X020490D01*
Y003241D01*
Y003241D01*
X020490Y003242D01*
Y003243D01*
X020490Y003244D01*
X020490Y003245D01*
X020490Y003246D01*
X020489Y003247D01*
X020489Y003250D01*
X020488Y003252D01*
X020487Y003254D01*
X020486Y003255D01*
X020486Y003256D01*
X020485Y003257D01*
X020485Y003257D01*
X020484Y003257D01*
X020484Y003258D01*
X020484Y003258D01*
X020483Y003258D01*
X020483Y003259D01*
X020482Y003259D01*
X020481Y003260D01*
X020479Y003261D01*
X020477Y003262D01*
X020476Y003262D01*
X020475Y003262D01*
X020473Y003263D01*
X020472Y003263D01*
D02*
G37*
G36*
X020100Y003262D02*
X020099D01*
X020098Y003261D01*
X020098Y003261D01*
X020097Y003261D01*
X020096Y003261D01*
X020094Y003261D01*
X020093Y003260D01*
X020092Y003260D01*
X020090Y003259D01*
X020089Y003258D01*
X020088Y003258D01*
X020086Y003257D01*
X020085Y003255D01*
X020084Y003254D01*
X020084Y003254D01*
X020083Y003254D01*
X020083Y003253D01*
X020083Y003253D01*
X020082Y003252D01*
X020082Y003251D01*
X020081Y003250D01*
X020081Y003249D01*
X020080Y003247D01*
X020079Y003246D01*
X020079Y003244D01*
X020078Y003242D01*
X020078Y003240D01*
X020078Y003238D01*
X020077Y003236D01*
X020077Y003233D01*
Y003233D01*
Y003232D01*
Y003232D01*
X020077Y003231D01*
X020077Y003230D01*
X020078Y003228D01*
X020078Y003227D01*
X020078Y003225D01*
X020078Y003224D01*
X020079Y003222D01*
X020079Y003220D01*
X020080Y003218D01*
X020081Y003217D01*
X020082Y003215D01*
X020083Y003213D01*
X020084Y003212D01*
X020084Y003212D01*
X020084Y003212D01*
X020084Y003211D01*
X020085Y003211D01*
X020086Y003210D01*
X020086Y003210D01*
X020087Y003209D01*
X020088Y003208D01*
X020089Y003208D01*
X020091Y003207D01*
X020092Y003206D01*
X020093Y003206D01*
X020095Y003205D01*
X020097Y003205D01*
X020098Y003205D01*
X020100Y003205D01*
X020100D01*
X020101Y003205D01*
X020102D01*
X020102Y003205D01*
X020103Y003205D01*
X020104Y003205D01*
X020106Y003206D01*
X020107Y003206D01*
X020108Y003206D01*
X020109Y003207D01*
X020111Y003208D01*
X020112Y003208D01*
X020113Y003209D01*
X020115Y003211D01*
X020116Y003212D01*
X020116Y003212D01*
X020116Y003212D01*
X020117Y003213D01*
X020117Y003213D01*
X020118Y003214D01*
X020118Y003215D01*
X020119Y003216D01*
X020119Y003217D01*
X020120Y003219D01*
X020121Y003220D01*
X020121Y003222D01*
X020122Y003224D01*
X020122Y003226D01*
X020122Y003228D01*
X020123Y003231D01*
X020123Y003233D01*
Y003233D01*
Y003234D01*
Y003234D01*
X020123Y003235D01*
X020122Y003237D01*
X020122Y003238D01*
X020122Y003239D01*
X020122Y003241D01*
X020121Y003243D01*
X020121Y003244D01*
X020120Y003246D01*
X020120Y003248D01*
X020119Y003250D01*
X020118Y003251D01*
X020117Y003253D01*
X020116Y003254D01*
X020116Y003254D01*
X020116Y003254D01*
X020115Y003255D01*
X020115Y003255D01*
X020114Y003256D01*
X020113Y003256D01*
X020113Y003257D01*
X020112Y003258D01*
X020110Y003258D01*
X020109Y003259D01*
X020108Y003260D01*
X020107Y003260D01*
X020105Y003261D01*
X020103Y003261D01*
X020102Y003261D01*
X020100Y003262D01*
D02*
G37*
G36*
X019062Y003295D02*
X019061D01*
X019061Y003295D01*
X019059Y003295D01*
X019058Y003294D01*
X019057Y003294D01*
X019055Y003294D01*
X019053Y003293D01*
X019051Y003293D01*
X019049Y003292D01*
X019047Y003291D01*
X019044Y003290D01*
X019042Y003289D01*
X019040Y003287D01*
X019038Y003286D01*
X019036Y003284D01*
X019036Y003284D01*
X019036Y003283D01*
X019035Y003283D01*
X019035Y003282D01*
X019034Y003281D01*
X019033Y003279D01*
X019032Y003277D01*
X019032Y003276D01*
X019031Y003273D01*
X019030Y003271D01*
X019029Y003268D01*
X019028Y003265D01*
X019028Y003262D01*
X019027Y003258D01*
X019027Y003255D01*
X019027Y003251D01*
Y003251D01*
Y003250D01*
Y003250D01*
Y003250D01*
Y003249D01*
X019027Y003249D01*
X019027Y003247D01*
X019027Y003245D01*
X019027Y003243D01*
X019027Y003241D01*
X019028Y003238D01*
X019028Y003236D01*
X019029Y003233D01*
X019030Y003230D01*
X019031Y003228D01*
X019032Y003225D01*
X019033Y003222D01*
X019035Y003220D01*
X019037Y003218D01*
X019037Y003218D01*
X019037Y003217D01*
X019038Y003217D01*
X019038Y003216D01*
X019039Y003215D01*
X019041Y003214D01*
X019042Y003213D01*
X019044Y003212D01*
X019045Y003211D01*
X019047Y003210D01*
X019049Y003209D01*
X019052Y003208D01*
X019054Y003208D01*
X019057Y003207D01*
X019059Y003207D01*
X019062Y003207D01*
X019063D01*
X019064Y003207D01*
X019065Y003207D01*
X019066Y003207D01*
X019068Y003207D01*
X019069Y003208D01*
X019071Y003208D01*
X019073Y003209D01*
X019075Y003209D01*
X019077Y003210D01*
X019079Y003211D01*
X019082Y003213D01*
X019084Y003214D01*
X019086Y003216D01*
X019088Y003218D01*
X019088Y003218D01*
X019088Y003218D01*
X019088Y003219D01*
X019089Y003220D01*
X019090Y003221D01*
X019091Y003222D01*
X019092Y003224D01*
X019093Y003226D01*
X019093Y003228D01*
X019094Y003231D01*
X019095Y003234D01*
X019096Y003236D01*
X019097Y003240D01*
X019097Y003243D01*
X019097Y003247D01*
X019098Y003251D01*
Y003251D01*
Y003251D01*
Y003252D01*
Y003252D01*
Y003253D01*
X019097Y003253D01*
Y003254D01*
X019097Y003255D01*
X019097Y003257D01*
X019097Y003259D01*
X019097Y003261D01*
X019096Y003263D01*
X019096Y003266D01*
X019095Y003269D01*
X019094Y003272D01*
X019093Y003274D01*
X019092Y003277D01*
X019091Y003279D01*
X019090Y003282D01*
X019088Y003284D01*
X019088Y003284D01*
X019087Y003284D01*
X019087Y003285D01*
X019086Y003286D01*
X019085Y003286D01*
X019084Y003287D01*
X019083Y003288D01*
X019081Y003289D01*
X019079Y003290D01*
X019077Y003291D01*
X019075Y003292D01*
X019073Y003293D01*
X019070Y003294D01*
X019068Y003294D01*
X019065Y003295D01*
X019062Y003295D01*
D02*
G37*
G36*
X019840Y003106D02*
X019839D01*
X019838Y003105D01*
X019837Y003105D01*
X019836Y003105D01*
X019834Y003104D01*
X019833Y003104D01*
X019832Y003103D01*
X019831Y003103D01*
X019831Y003102D01*
X019830Y003101D01*
X019830Y003100D01*
X019829Y003099D01*
X019828Y003098D01*
X019828Y003097D01*
X019827Y003096D01*
X019827Y003095D01*
X019827Y003094D01*
X019826Y003092D01*
Y003092D01*
X019826Y003092D01*
X019826Y003091D01*
X019826Y003091D01*
X019826Y003090D01*
X019825Y003088D01*
X019825Y003087D01*
X019825Y003085D01*
X019825Y003083D01*
X019825Y003080D01*
X019824Y003078D01*
X019824Y003075D01*
X019824Y003072D01*
X019824Y003068D01*
X019824Y003065D01*
Y003060D01*
Y003060D01*
Y003060D01*
Y003060D01*
Y003059D01*
Y003059D01*
Y003058D01*
Y003057D01*
X019824Y003055D01*
Y003053D01*
X019824Y003051D01*
X019824Y003048D01*
X019824Y003046D01*
X019824Y003043D01*
X019824Y003040D01*
X019825Y003038D01*
X019825Y003036D01*
X019825Y003033D01*
X019826Y003031D01*
X019826Y003030D01*
Y003029D01*
X019826Y003029D01*
X019826Y003029D01*
X019826Y003028D01*
X019827Y003027D01*
X019827Y003027D01*
X019827Y003025D01*
X019828Y003023D01*
X019829Y003021D01*
X019830Y003020D01*
X019831Y003019D01*
X019832Y003018D01*
X019832Y003018D01*
X019832Y003018D01*
X019833Y003017D01*
X019834Y003017D01*
X019835Y003016D01*
X019836Y003016D01*
X019838Y003016D01*
X019840Y003016D01*
X019840D01*
X019840Y003016D01*
X019841Y003016D01*
X019842Y003016D01*
X019843Y003016D01*
X019845Y003017D01*
X019846Y003017D01*
X019848Y003018D01*
X019848Y003018D01*
X019848Y003019D01*
X019849Y003020D01*
X019850Y003021D01*
X019850Y003022D01*
X019851Y003023D01*
X019851Y003024D01*
X019852Y003025D01*
X019852Y003026D01*
X019853Y003027D01*
X019853Y003028D01*
Y003029D01*
X019853Y003029D01*
X019853Y003030D01*
X019853Y003030D01*
X019854Y003031D01*
X019854Y003033D01*
X019854Y003034D01*
X019854Y003036D01*
X019855Y003038D01*
X019855Y003040D01*
X019855Y003043D01*
X019855Y003046D01*
X019855Y003049D01*
X019855Y003053D01*
X019856Y003056D01*
Y003060D01*
Y003061D01*
Y003061D01*
Y003061D01*
Y003061D01*
Y003062D01*
Y003063D01*
Y003064D01*
X019855Y003066D01*
Y003068D01*
X019855Y003070D01*
X019855Y003073D01*
X019855Y003075D01*
X019855Y003078D01*
X019855Y003080D01*
X019855Y003083D01*
X019854Y003085D01*
X019854Y003088D01*
X019854Y003090D01*
X019853Y003091D01*
Y003091D01*
X019853Y003092D01*
X019853Y003092D01*
X019853Y003093D01*
X019853Y003093D01*
X019852Y003094D01*
X019852Y003096D01*
X019851Y003098D01*
X019850Y003100D01*
X019849Y003101D01*
X019848Y003102D01*
X019847Y003103D01*
X019847Y003103D01*
X019847Y003103D01*
X019846Y003104D01*
X019845Y003104D01*
X019844Y003105D01*
X019843Y003105D01*
X019841Y003105D01*
X019840Y003106D01*
D02*
G37*
G36*
X019641Y003106D02*
X019640D01*
X019639Y003105D01*
X019638Y003105D01*
X019637Y003105D01*
X019636Y003104D01*
X019634Y003104D01*
X019633Y003103D01*
X019633Y003103D01*
X019632Y003102D01*
X019632Y003101D01*
X019631Y003100D01*
X019630Y003099D01*
X019630Y003098D01*
X019629Y003097D01*
X019629Y003096D01*
X019628Y003095D01*
X019628Y003094D01*
X019627Y003092D01*
Y003092D01*
X019627Y003092D01*
X019627Y003091D01*
X019627Y003091D01*
X019627Y003090D01*
X019627Y003088D01*
X019626Y003087D01*
X019626Y003085D01*
X019626Y003083D01*
X019626Y003080D01*
X019625Y003078D01*
X019625Y003075D01*
X019625Y003072D01*
X019625Y003068D01*
X019625Y003065D01*
Y003060D01*
Y003060D01*
Y003060D01*
Y003060D01*
Y003059D01*
Y003059D01*
Y003058D01*
Y003057D01*
X019625Y003055D01*
Y003053D01*
X019625Y003051D01*
X019625Y003048D01*
X019625Y003046D01*
X019625Y003043D01*
X019626Y003040D01*
X019626Y003038D01*
X019626Y003036D01*
X019626Y003033D01*
X019627Y003031D01*
X019627Y003030D01*
Y003029D01*
X019627Y003029D01*
X019627Y003029D01*
X019628Y003028D01*
X019628Y003027D01*
X019628Y003027D01*
X019629Y003025D01*
X019630Y003023D01*
X019631Y003021D01*
X019632Y003020D01*
X019632Y003019D01*
X019633Y003018D01*
X019633Y003018D01*
X019634Y003018D01*
X019634Y003017D01*
X019635Y003017D01*
X019636Y003016D01*
X019638Y003016D01*
X019639Y003016D01*
X019641Y003016D01*
X019641D01*
X019642Y003016D01*
X019642Y003016D01*
X019643Y003016D01*
X019645Y003016D01*
X019646Y003017D01*
X019647Y003017D01*
X019649Y003018D01*
X019649Y003018D01*
X019649Y003019D01*
X019650Y003020D01*
X019651Y003021D01*
X019652Y003022D01*
X019652Y003023D01*
X019653Y003024D01*
X019653Y003025D01*
X019653Y003026D01*
X019654Y003027D01*
X019654Y003028D01*
Y003029D01*
X019654Y003029D01*
X019654Y003030D01*
X019655Y003030D01*
X019655Y003031D01*
X019655Y003033D01*
X019655Y003034D01*
X019656Y003036D01*
X019656Y003038D01*
X019656Y003040D01*
X019656Y003043D01*
X019656Y003046D01*
X019657Y003049D01*
X019657Y003053D01*
X019657Y003056D01*
Y003060D01*
Y003061D01*
Y003061D01*
Y003061D01*
Y003061D01*
Y003062D01*
Y003063D01*
Y003064D01*
X019657Y003066D01*
Y003068D01*
X019657Y003070D01*
X019657Y003073D01*
X019656Y003075D01*
X019656Y003078D01*
X019656Y003080D01*
X019656Y003083D01*
X019656Y003085D01*
X019655Y003088D01*
X019655Y003090D01*
X019654Y003091D01*
Y003091D01*
X019654Y003092D01*
X019654Y003092D01*
X019654Y003093D01*
X019654Y003093D01*
X019654Y003094D01*
X019653Y003096D01*
X019652Y003098D01*
X019651Y003100D01*
X019650Y003101D01*
X019649Y003102D01*
X019649Y003103D01*
X019648Y003103D01*
X019648Y003103D01*
X019647Y003104D01*
X019646Y003104D01*
X019645Y003105D01*
X019644Y003105D01*
X019642Y003105D01*
X019641Y003106D01*
D02*
G37*
G36*
X019293D02*
X019292D01*
X019291Y003105D01*
X019290Y003105D01*
X019289Y003105D01*
X019288Y003104D01*
X019286Y003104D01*
X019285Y003103D01*
X019285Y003103D01*
X019284Y003102D01*
X019284Y003101D01*
X019283Y003100D01*
X019282Y003099D01*
X019282Y003098D01*
X019281Y003097D01*
X019281Y003096D01*
X019280Y003095D01*
X019280Y003094D01*
X019280Y003092D01*
Y003092D01*
X019279Y003092D01*
X019279Y003091D01*
X019279Y003091D01*
X019279Y003090D01*
X019279Y003088D01*
X019279Y003087D01*
X019278Y003085D01*
X019278Y003083D01*
X019278Y003080D01*
X019278Y003078D01*
X019277Y003075D01*
X019277Y003072D01*
X019277Y003068D01*
X019277Y003065D01*
Y003060D01*
Y003060D01*
Y003060D01*
Y003060D01*
Y003059D01*
Y003059D01*
Y003058D01*
Y003057D01*
X019277Y003055D01*
Y003053D01*
X019277Y003051D01*
X019277Y003048D01*
X019277Y003046D01*
X019278Y003043D01*
X019278Y003040D01*
X019278Y003038D01*
X019278Y003036D01*
X019279Y003033D01*
X019279Y003031D01*
X019279Y003030D01*
Y003029D01*
X019279Y003029D01*
X019280Y003029D01*
X019280Y003028D01*
X019280Y003027D01*
X019280Y003027D01*
X019281Y003025D01*
X019282Y003023D01*
X019283Y003021D01*
X019284Y003020D01*
X019284Y003019D01*
X019285Y003018D01*
X019285Y003018D01*
X019286Y003018D01*
X019286Y003017D01*
X019287Y003017D01*
X019289Y003016D01*
X019290Y003016D01*
X019291Y003016D01*
X019293Y003016D01*
X019293D01*
X019294Y003016D01*
X019295Y003016D01*
X019296Y003016D01*
X019297Y003016D01*
X019298Y003017D01*
X019300Y003017D01*
X019301Y003018D01*
X019301Y003018D01*
X019301Y003019D01*
X019302Y003020D01*
X019303Y003021D01*
X019304Y003022D01*
X019304Y003023D01*
X019305Y003024D01*
X019305Y003025D01*
X019306Y003026D01*
X019306Y003027D01*
X019306Y003028D01*
Y003029D01*
X019306Y003029D01*
X019307Y003030D01*
X019307Y003030D01*
X019307Y003031D01*
X019307Y003033D01*
X019307Y003034D01*
X019308Y003036D01*
X019308Y003038D01*
X019308Y003040D01*
X019308Y003043D01*
X019309Y003046D01*
X019309Y003049D01*
X019309Y003053D01*
X019309Y003056D01*
Y003060D01*
Y003061D01*
Y003061D01*
Y003061D01*
Y003061D01*
Y003062D01*
Y003063D01*
Y003064D01*
X019309Y003066D01*
Y003068D01*
X019309Y003070D01*
X019309Y003073D01*
X019309Y003075D01*
X019308Y003078D01*
X019308Y003080D01*
X019308Y003083D01*
X019308Y003085D01*
X019307Y003088D01*
X019307Y003090D01*
X019307Y003091D01*
Y003091D01*
X019307Y003092D01*
X019306Y003092D01*
X019306Y003093D01*
X019306Y003093D01*
X019306Y003094D01*
X019305Y003096D01*
X019304Y003098D01*
X019303Y003100D01*
X019302Y003101D01*
X019301Y003102D01*
X019301Y003103D01*
X019301Y003103D01*
X019300Y003103D01*
X019300Y003104D01*
X019299Y003104D01*
X019297Y003105D01*
X019296Y003105D01*
X019295Y003105D01*
X019293Y003106D01*
D02*
G37*
%LPD*%
D11*
X007950Y005225D02*
X008005D01*
X008110Y005120D01*
X008180Y005025D02*
X008220D01*
X008110Y005095D02*
Y005120D01*
Y005095D02*
X008180Y005025D01*
X011655Y007575D02*
X011655Y007575D01*
X011490Y007575D02*
X011655D01*
X011655Y004575D02*
X011810D01*
X012030D02*
X012185D01*
D14*
X007340Y007150D02*
Y007162D01*
Y007175D01*
Y007162D02*
X007369Y007133D01*
X007452D01*
X007460Y007125D01*
X009810Y007315D02*
Y007455D01*
Y007255D02*
Y007315D01*
X011390Y005105D02*
Y005185D01*
Y004965D02*
Y005105D01*
X011810Y004575D02*
Y004586D01*
X011820Y004596D01*
Y004700D01*
X011870Y004750D01*
Y004955D01*
X011390Y005105D02*
X011394Y005101D01*
X011724D01*
X011870Y004955D01*
X011070Y004895D02*
Y004905D01*
Y004885D02*
Y004895D01*
X011020Y004955D02*
X011070Y004905D01*
X010982Y004963D02*
Y004968D01*
Y004963D02*
X010990Y004955D01*
X011020D01*
X010478Y006947D02*
X010481Y006950D01*
X012400Y005175D02*
Y005175D01*
X011138Y005039D02*
Y005148D01*
X011130Y005031D02*
X011138Y005039D01*
X011130Y005029D02*
Y005031D01*
X011110Y005009D02*
X011130Y005029D01*
X009010Y004625D02*
Y004683D01*
X008977Y004715D02*
X009010Y004683D01*
X008972Y004715D02*
X008977D01*
X008960Y004728D02*
X008972Y004715D01*
X008960Y004625D02*
Y004728D01*
X008910Y004778D02*
X008960Y004728D01*
X008910Y004778D02*
Y004805D01*
X020590Y007445D02*
X020712D01*
X020720Y007437D01*
X013000Y005665D02*
X013094D01*
X015473Y006038D02*
X016440D01*
X016500Y006098D02*
Y007145D01*
X016440Y006038D02*
X016500Y006098D01*
Y007145D02*
X016540Y007185D01*
X016697D02*
X016699Y007183D01*
X016540Y007185D02*
X016697D01*
X016580Y006794D02*
Y007125D01*
Y006794D02*
X016699Y006675D01*
X015240Y006271D02*
X015473Y006038D01*
X015810Y006167D02*
X016021D01*
X015300Y006296D02*
X015429Y006167D01*
X015640D01*
X015300Y006296D02*
Y007527D01*
X015810Y006421D02*
X016021D01*
X015810Y005913D02*
X016021D01*
X015179Y007556D02*
X015240Y007495D01*
Y006271D02*
Y007495D01*
X015197Y007630D02*
X015300Y007527D01*
X012671Y007556D02*
X015179D01*
X012595Y007630D02*
X015197D01*
X012380Y007265D02*
X012671Y007556D01*
X012380Y006965D02*
Y007265D01*
X012480Y007020D02*
X012889Y007429D01*
X012480Y005255D02*
Y007020D01*
X012400Y005175D02*
X012480Y005255D01*
X012420Y007455D02*
X012420D01*
X019448Y005915D02*
X019450Y005913D01*
X019320Y005915D02*
X019448D01*
X019450Y005555D02*
Y005659D01*
X019070Y006425D02*
X019446D01*
X019450Y006421D01*
X019010Y005435D02*
Y007208D01*
X018070Y004495D02*
X019010Y005435D01*
Y007208D02*
X019239Y007437D01*
X019070Y006155D02*
X019438D01*
X019450Y006167D01*
X010350Y005945D02*
X010502D01*
X008640Y005535D02*
X008646D01*
X008826Y005355D02*
X009045D01*
X008646Y005535D02*
X008826Y005355D01*
X008650Y005655D02*
X008652Y005654D01*
X008858Y005405D02*
X009045D01*
X008652Y005612D02*
Y005654D01*
Y005612D02*
X008858Y005405D01*
X010741Y005955D02*
X011170D01*
X010711Y005925D02*
X010741Y005955D01*
X010522Y005925D02*
X010711D01*
X010502Y005945D02*
X010522Y005925D01*
X010462Y005885D02*
X010778D01*
X010860Y005803D01*
Y005802D02*
X010907Y005755D01*
X010860Y005802D02*
Y005803D01*
X010462Y005885D02*
X010462Y005885D01*
X010907Y005755D02*
X011170D01*
X010720Y006055D02*
X011170D01*
X010710Y006045D02*
X010720Y006055D01*
X010710Y006045D02*
X010710D01*
X010410Y006055D02*
X010505D01*
X010673Y006009D02*
X010710Y006045D01*
X010505Y006055D02*
X010552Y006009D01*
X010673D01*
X012660Y005171D02*
X012660Y005170D01*
Y004845D02*
Y005170D01*
X012530Y005220D02*
Y006885D01*
X012830Y007185D01*
X012570Y005005D02*
Y006121D01*
X012520Y004955D02*
X012570Y005005D01*
Y006121D02*
X012753Y006304D01*
X012610Y004925D02*
Y006070D01*
X012600Y004915D02*
X012610Y004925D01*
Y006070D02*
X012805Y006266D01*
X012500Y005190D02*
X012530Y005220D01*
X012500Y005115D02*
Y005190D01*
X017750Y005878D02*
X017969Y005659D01*
X017750Y005878D02*
Y007565D01*
X012559Y007724D02*
X017591D01*
X017750Y007565D01*
X012420Y007585D02*
X012559Y007724D01*
X012800Y004722D02*
Y006078D01*
X012760Y004682D02*
X012800Y004722D01*
Y006078D02*
X012889Y006167D01*
X012660Y005171D02*
Y006023D01*
X012890Y006253D01*
X012889Y004786D02*
Y005913D01*
Y004786D02*
X012890Y004785D01*
X013094Y005665D02*
X013100Y005659D01*
X012760Y004675D02*
Y004682D01*
X012017Y006175D02*
X012185D01*
X013980Y006605D02*
Y006925D01*
X012960Y007125D02*
X013037D01*
X013114Y007048D01*
X013857D01*
X013980Y006925D01*
X012830Y007185D02*
Y007185D01*
X013098D01*
X013100Y007183D01*
X015550Y007445D02*
X015632D01*
X015640Y007437D01*
X015550Y007185D02*
X015638D01*
X015640Y007183D01*
X012889Y007429D02*
Y007437D01*
X012420Y007455D02*
X012595Y007630D01*
X014070Y006925D02*
X014366D01*
X014370Y006929D01*
X014040Y006675D02*
X014370D01*
X014390Y006035D02*
X014452Y006097D01*
Y007353D01*
X014410Y007395D02*
X014452Y007353D01*
X014160Y006035D02*
X014390D01*
X010751Y006884D02*
X010830Y006805D01*
X010751Y006884D02*
X010751D01*
X010750Y006885D02*
X010751Y006884D01*
X010974Y006705D02*
X011170D01*
X010830Y006805D02*
X010874D01*
X010751Y006884D02*
X010751Y006885D01*
X010874Y006805D02*
X010974Y006705D01*
X010750Y006765D02*
X010857D01*
X010967Y006655D01*
X011170D01*
X010860Y006655D02*
X010911D01*
X010961Y006605D01*
X011170D01*
X011013Y006285D02*
X011043Y006255D01*
X011170D01*
X010910Y006285D02*
X011013D01*
X010850Y006225D02*
X010910Y006285D01*
X011051Y006455D02*
X011170D01*
X011031Y006435D02*
X011051Y006455D01*
X011020Y006435D02*
X011031D01*
X010955Y006505D02*
X011170D01*
X010915Y006465D02*
X010955Y006505D01*
X010910Y006465D02*
X010915D01*
X011170Y006555D02*
X011170Y006555D01*
X010910Y006555D02*
X011170D01*
X012890Y006405D02*
X013084D01*
X013100Y006421D01*
X012890Y006253D02*
Y006405D01*
X011471Y006372D02*
X011651D01*
X012189D02*
X012350D01*
X012753Y006798D02*
X012884Y006929D01*
X013100D01*
X012753Y006304D02*
Y006798D01*
X012805Y006266D02*
Y006592D01*
X012889Y006675D01*
X018032Y007437D02*
X018180D01*
X018030Y007435D02*
X018032Y007437D01*
X018090Y007185D02*
X018162D01*
X018172Y007175D01*
X018180Y007183D01*
X020370Y006536D02*
X020509Y006675D01*
X020370Y005575D02*
Y006536D01*
X020320Y005582D02*
Y006740D01*
X012830Y004405D02*
X019200D01*
X020370Y005575D01*
X019192Y004453D02*
X020320Y005582D01*
X011482Y004453D02*
X019192D01*
X012710Y004285D02*
X012830Y004405D01*
X020320Y006740D02*
X020509Y006929D01*
X011497Y004495D02*
X018070D01*
X009900Y004515D02*
X010110D01*
X011370Y006525D02*
Y006685D01*
Y006375D02*
Y006525D01*
X011262Y006408D02*
X011288Y006433D01*
Y006693D01*
X011300Y006705D01*
X011170Y006405D02*
X011172Y006408D01*
X011262D01*
X011360Y006515D02*
X011360D01*
X011370Y006525D01*
X011300Y006705D02*
X011390Y006775D01*
X008280Y004965D02*
X008510D01*
X008220Y005025D02*
X008280Y004965D01*
X007689Y003675D02*
X007720D01*
X008841Y005634D02*
Y005645D01*
X008951Y005755D01*
X008648Y005903D02*
X009042D01*
X008640Y005895D02*
X008648Y005903D01*
X008685Y006025D02*
X008771D01*
X008660Y005985D02*
X008755D01*
X008650Y005975D02*
X008660Y005985D01*
X008625Y006085D02*
X008685Y006025D01*
X008511Y006255D02*
X008701Y006065D01*
X008771Y006025D02*
X008791Y006005D01*
X008755Y005985D02*
X008785Y005955D01*
X008798Y006055D02*
X009045D01*
X008788Y006065D02*
X008798Y006055D01*
X008701Y006065D02*
X008788D01*
X008791Y006005D02*
X009045D01*
X008530Y006085D02*
X008625D01*
X008470Y006255D02*
X008511D01*
X008785Y005955D02*
X009045D01*
X010509Y005824D02*
X010514D01*
X010514Y005824D01*
X010249Y005765D02*
X010310D01*
X010132Y005649D02*
X010249Y005765D01*
X010132Y004968D02*
Y005649D01*
X010245Y005705D02*
X010390D01*
X010182Y005643D02*
X010245Y005705D01*
X010182Y004968D02*
Y005643D01*
X010390Y005705D02*
X010509Y005824D01*
X010270Y005625D02*
X010310Y005585D01*
X010270Y005625D02*
Y005645D01*
X010310Y005485D02*
Y005585D01*
X010900Y004572D02*
Y004630D01*
Y004572D02*
X011120Y004352D01*
X010900Y004630D02*
X010960Y004690D01*
X011120Y004345D02*
Y004352D01*
X010835Y004870D02*
X010960Y004745D01*
Y004690D02*
Y004745D01*
X009320Y004345D02*
X009807D01*
X009990Y004315D02*
X009991Y004316D01*
X010892Y003377D02*
Y003467D01*
X010894Y003469D01*
X009320Y004080D02*
Y004185D01*
Y004080D02*
X009360Y004040D01*
Y004035D02*
Y004040D01*
X009220Y003995D02*
X009260Y004035D01*
X009080Y003995D02*
X009220D01*
X009420Y004500D02*
Y004625D01*
Y004500D02*
X009460Y004460D01*
Y004455D02*
Y004460D01*
X009470Y004476D02*
Y004625D01*
X009460Y004305D02*
X009790D01*
X009837Y004315D02*
X009990D01*
X009807Y004345D02*
X009837Y004315D01*
X009270Y004295D02*
X009320Y004345D01*
X009270Y004185D02*
Y004295D01*
X009387Y004394D02*
X009578D01*
X009110Y004185D02*
X009110Y004185D01*
X009200D01*
X009010Y004065D02*
X009080Y003995D01*
X009200Y004498D02*
X009270Y004568D01*
X009200Y004495D02*
Y004498D01*
X009890Y004505D02*
X009900Y004515D01*
X009065Y004270D02*
X009320Y004525D01*
Y004625D01*
X009270Y004568D02*
Y004625D01*
X009060Y004185D02*
X009065Y004190D01*
Y004270D01*
X009400Y004305D02*
X009460D01*
X009370Y004185D02*
X009375Y004190D01*
Y004280D01*
X009400Y004305D01*
X009810Y004175D02*
Y004285D01*
X009790Y004305D02*
X009810Y004285D01*
X009420Y004185D02*
X009425Y004190D01*
Y004270D01*
X009460Y004305D01*
X009470Y004180D02*
Y004185D01*
Y004180D02*
X009475Y004175D01*
X009620D01*
X009640Y004785D02*
Y004795D01*
X009590Y004735D02*
X009640Y004785D01*
X009370Y004625D02*
X009375Y004620D01*
Y004406D02*
X009387Y004394D01*
X009578D02*
X009590Y004406D01*
X009375D02*
Y004620D01*
X009590Y004406D02*
Y004735D01*
X010821Y003599D02*
X010856D01*
X010818Y003603D02*
X010821Y003599D01*
X010110Y004125D02*
Y004195D01*
X009990Y004315D02*
X010110Y004195D01*
X009432Y007093D02*
X009435Y007090D01*
Y006825D02*
Y007090D01*
X009502Y005288D02*
Y006758D01*
X009435Y006825D02*
X009502Y006758D01*
X009460Y005245D02*
X009502Y005288D01*
X009547Y005288D02*
X009590Y005245D01*
X009480Y007000D02*
X009480Y007000D01*
X009480Y006844D02*
Y007000D01*
X009480Y007000D02*
Y007090D01*
X009482Y007093D01*
X009480Y006844D02*
X009547Y006776D01*
Y005288D02*
Y006776D01*
X009140Y004995D02*
X009146D01*
X009216Y004925D01*
X009382Y004843D02*
X009473Y004752D01*
Y004749D02*
Y004752D01*
X009382Y004843D02*
Y004968D01*
X009331Y004836D02*
Y004966D01*
X009320Y004825D02*
X009331Y004836D01*
X009235Y004825D02*
X009282Y004873D01*
X009220Y004825D02*
X009235D01*
X009282Y004873D02*
Y004968D01*
X010590Y005105D02*
Y005115D01*
X010630Y006715D02*
X010660Y006745D01*
X010630Y006495D02*
Y006715D01*
X010235Y007595D02*
X010300Y007530D01*
Y007470D02*
Y007530D01*
X010280Y007450D02*
X010300Y007470D01*
X010220Y007595D02*
X010235D01*
X010360Y007445D02*
Y007465D01*
X010335Y007420D02*
X010360Y007445D01*
X010335Y007095D02*
Y007420D01*
X010240Y007265D02*
Y007505D01*
X010632Y007093D02*
Y007433D01*
X010500Y007565D02*
X010632Y007433D01*
X009941Y007324D02*
X009950Y007315D01*
X009917Y007324D02*
X009941D01*
X009910Y007450D02*
X010010Y007350D01*
X009910Y007450D02*
Y007465D01*
X010010Y007315D02*
X010082Y007243D01*
X010010Y007315D02*
Y007350D01*
X010032Y007093D02*
Y007218D01*
X009924Y007326D02*
X010032Y007218D01*
X009919Y007326D02*
X009924D01*
X010082Y007093D02*
Y007243D01*
X009530Y004795D02*
X009540D01*
X009467Y004858D02*
X009530Y004795D01*
X009577Y004858D02*
X009640Y004795D01*
X008680Y004065D02*
X009010D01*
X009010Y004065D01*
X008670Y006385D02*
Y006455D01*
X008809Y006496D02*
X008823D01*
X008907Y006355D02*
X009045D01*
X008857Y006405D02*
X008907Y006355D01*
X008886Y006305D02*
X009045D01*
X008846Y006345D02*
X008886Y006305D01*
X008711Y006345D02*
X008784D01*
X008780Y006405D02*
X008857D01*
X008785Y006345D02*
X008846D01*
X008823Y006496D02*
X008911Y006408D01*
X009042D01*
X008740Y006635D02*
X008920Y006455D01*
X008670Y006635D02*
X008740D01*
X008920Y006455D02*
X009045D01*
X008670Y006385D02*
X008711Y006345D01*
X008617Y006239D02*
X008750Y006105D01*
X010990Y003925D02*
Y004195D01*
X010910Y003925D02*
Y004195D01*
X010839Y003886D02*
Y004205D01*
X010482Y004491D02*
X010790Y004183D01*
Y003795D02*
Y004183D01*
X010430Y004285D02*
Y004965D01*
X010400Y004255D02*
X010430Y004285D01*
X010280Y004255D02*
X010400D01*
X010532Y004511D02*
X010839Y004205D01*
X010684Y004564D02*
Y004966D01*
X011050Y004075D02*
Y004198D01*
X010732Y004833D02*
X010790Y004775D01*
X010732Y004833D02*
Y004968D01*
X010684Y004564D02*
X011050Y004198D01*
X010682Y004968D02*
X010684Y004966D01*
X011040Y006325D02*
X011060Y006305D01*
X010860Y006325D02*
X011040D01*
X010760Y006225D02*
X010860Y006325D01*
X010730Y007350D02*
Y007565D01*
X010670Y007625D02*
X010730Y007565D01*
X010590Y007555D02*
X010682Y007463D01*
X010590Y007555D02*
Y007625D01*
X010100Y007310D02*
Y007315D01*
Y007310D02*
X010132Y007278D01*
Y007093D02*
Y007278D01*
X010280Y007175D02*
Y007450D01*
X010280Y007175D02*
X010280Y007175D01*
X008750Y006105D02*
X009045D01*
X008820Y006155D02*
X009045D01*
X008730Y006245D02*
X008820Y006155D01*
X009882Y006976D02*
Y007093D01*
Y006976D02*
X009900Y006958D01*
Y006948D02*
Y006958D01*
X009932Y007093D02*
X009935Y007090D01*
Y007000D02*
Y007090D01*
Y007000D02*
X009980Y006955D01*
X009992D01*
X010000Y006948D01*
X008730Y005345D02*
X008767D01*
X008804Y005308D01*
X009042D01*
X009370Y005175D02*
Y005176D01*
X010590Y005115D02*
X010600Y005105D01*
X010590Y005115D02*
X010640Y005165D01*
X010510Y005111D02*
Y005155D01*
X010510Y005155D02*
X010510Y005155D01*
X011293Y004285D02*
X012710D01*
X010990Y004588D02*
Y004635D01*
Y004588D02*
X011293Y004285D01*
X011360Y004575D02*
X011482Y004453D01*
X011377Y004615D02*
X011497Y004495D01*
X011088Y004575D02*
X011360D01*
X011250Y004615D02*
X011377D01*
X011160Y004705D02*
X011250Y004615D01*
X011070Y004705D02*
X011160D01*
X012201Y007559D02*
X012217Y007575D01*
X012185D02*
X012185Y007575D01*
X012041Y007575D02*
X012185D01*
X012000Y007605D02*
X012011D01*
X012041Y007575D01*
X011110Y005009D02*
Y005025D01*
Y005009D02*
X011110Y005009D01*
X011110Y005009D02*
X011110Y005009D01*
X009985Y004800D02*
X009990Y004795D01*
X009832Y004863D02*
X010020Y004675D01*
X010199Y004795D02*
X010261Y004858D01*
X010032Y004853D02*
X010090Y004795D01*
X010020Y004675D02*
Y004675D01*
X009782Y004828D02*
X010020Y004590D01*
X011871Y005575D02*
X011910Y005535D01*
X012010Y005775D02*
X012185D01*
X011655D02*
X011830D01*
X011820Y005205D02*
Y005375D01*
X011891Y005344D02*
X012060Y005175D01*
X012014Y006172D02*
X012017Y006175D01*
X010730Y005139D02*
X010769Y005100D01*
X010730Y005139D02*
Y005185D01*
X010890Y003375D02*
X010892Y003377D01*
X011150Y003375D02*
X011230D01*
X008951Y005755D02*
X009045D01*
X008940Y005805D02*
X009045D01*
X008940Y005800D02*
Y005805D01*
X008905Y005765D02*
X008940Y005800D01*
X008855Y005765D02*
X008905D01*
X008845Y005775D02*
X008855Y005765D01*
X008770Y005775D02*
X008845D01*
X008880Y005825D02*
Y005834D01*
X010432Y004968D02*
Y005363D01*
X010310Y005485D02*
X010432Y005363D01*
X010510Y005155D02*
X010590Y005235D01*
X010430Y004965D02*
X010432Y004968D01*
X010382Y004829D02*
Y004968D01*
X010370Y004816D02*
X010382Y004829D01*
X010370Y004805D02*
Y004816D01*
X010332Y004843D02*
Y004968D01*
X010295Y004805D02*
X010332Y004843D01*
X010282Y004869D02*
Y004968D01*
X010271Y004858D02*
X010282Y004869D01*
X010261Y004858D02*
X010271D01*
X010280Y004125D02*
Y004255D01*
X010610Y005845D02*
X010761D01*
X010652Y005805D02*
X010745D01*
X010640Y005793D02*
X010652Y005805D01*
X010640Y005165D02*
Y005793D01*
X010590Y005235D02*
Y005825D01*
X011043Y005505D02*
X011170D01*
X010780Y005769D02*
X011043Y005505D01*
X010780Y005769D02*
Y005770D01*
X010745Y005805D02*
X010780Y005770D01*
X010820Y005785D02*
X011050Y005555D01*
X010820Y005785D02*
Y005787D01*
X010761Y005845D02*
X010820Y005787D01*
X011050Y005555D02*
X011170D01*
X010590Y005825D02*
X010610Y005845D01*
X010720Y005285D02*
Y005745D01*
Y005285D02*
X010932Y005073D01*
X010686Y005965D02*
X010726Y006005D01*
X010539Y005965D02*
X010686D01*
X010519Y005985D02*
X010539Y005965D01*
X010580Y006069D02*
X010583Y006065D01*
X010659Y006136D02*
X010672D01*
X010716Y006108D02*
X011167D01*
X010693Y006085D02*
X010716Y006108D01*
X010693Y006085D02*
X010693D01*
X010673Y006065D02*
X010693Y006085D01*
X011960Y005375D02*
X012185D01*
X012185Y005375D01*
X011480Y005495D02*
Y005515D01*
X011420Y005555D02*
X011480Y005615D01*
X011317Y005681D02*
X011320Y005678D01*
X011330Y005905D02*
X011340D01*
X011170D02*
X011330D01*
X011420Y005470D02*
X011420Y005470D01*
Y005445D02*
Y005470D01*
Y005445D02*
X011490Y005375D01*
X011420Y005520D02*
Y005555D01*
X011420Y005520D02*
X011420Y005520D01*
X011420Y005470D02*
Y005520D01*
X011480Y005515D02*
X011480Y005515D01*
X011400Y005670D02*
Y005681D01*
X011371Y005641D02*
X011400Y005670D01*
X011460Y006095D02*
Y006095D01*
X012178Y006782D02*
X012185Y006775D01*
X010390Y006948D02*
X010392D01*
X010980Y006885D02*
X011060Y006805D01*
X010860Y006885D02*
X010990Y006755D01*
X010760Y006565D02*
Y006665D01*
X009218Y006503D02*
X009220Y006500D01*
X010392Y006948D02*
X010432Y006988D01*
X010410Y007314D02*
Y007325D01*
X010470Y007275D02*
Y007350D01*
X010460Y007360D02*
X010470Y007350D01*
X010460Y007360D02*
Y007486D01*
X010520Y007420D02*
X010590Y007350D01*
Y007280D02*
Y007350D01*
X010682Y007093D02*
Y007463D01*
X010582Y007273D02*
X010590Y007280D01*
X010520Y007420D02*
Y007445D01*
X010432Y007238D02*
X010470Y007275D01*
X010432Y006988D02*
Y007093D01*
X010582D02*
Y007273D01*
X010730Y007350D02*
X010732Y007348D01*
Y007093D02*
Y007348D01*
X010782Y007093D02*
Y007365D01*
X010792Y007375D01*
X010790D02*
X010792D01*
X008821Y006285D02*
X008851Y006255D01*
X010180Y007335D02*
X010181Y007334D01*
X012185Y007575D02*
X012201Y007559D01*
X009810Y007735D02*
X009918D01*
X009860Y007595D02*
X009920Y007655D01*
X009810Y007595D02*
X009860D01*
X010732Y007093D02*
X010732Y007093D01*
X010382Y007287D02*
X010410Y007314D01*
X010266Y007680D02*
X010460Y007486D01*
X009880Y007095D02*
Y007186D01*
X009810Y007255D02*
X009880Y007186D01*
X008782Y005567D02*
X008791Y005558D01*
X012889Y007437D02*
X013100D01*
X012889Y006675D02*
X013100D01*
X012889Y005913D02*
X013100D01*
X012889Y006167D02*
X013100D01*
X010726Y006005D02*
X011170D01*
X010583Y006065D02*
X010673D01*
X011282Y005305D02*
X011371Y005394D01*
X010990Y006755D02*
X011170D01*
X009732Y006650D02*
Y007093D01*
X009820Y006625D02*
Y006674D01*
X009792Y006597D02*
X009820Y006625D01*
X009792Y005408D02*
Y006597D01*
X009860Y006608D02*
Y006691D01*
X009832Y006581D02*
X009860Y006608D01*
X009832Y005337D02*
Y006581D01*
X009670Y005285D02*
X009792Y005408D01*
X009782Y006712D02*
Y007093D01*
Y006712D02*
X009820Y006674D01*
X009832Y006719D02*
Y007093D01*
Y006719D02*
X009860Y006691D01*
X009544Y004858D02*
X009577D01*
X010395Y005985D02*
X010519D01*
X010325Y006055D02*
X010395Y005985D01*
X011460Y006095D02*
X011540Y006175D01*
X010190Y005828D02*
Y006127D01*
X011440Y006925D02*
X011490Y006975D01*
X011440Y006755D02*
Y006925D01*
X012025Y006782D02*
X012178D01*
X012017Y006775D02*
X012025Y006782D01*
X011655Y006775D02*
X011655Y006775D01*
X011510Y006775D02*
X011655D01*
X010481Y006950D02*
Y007091D01*
X009666Y006708D02*
Y006718D01*
X012185Y006375D02*
X012189Y006372D01*
X013270Y007437D02*
X013481D01*
X013270Y007183D02*
X013481D01*
X013270Y006929D02*
X013481D01*
X013270Y006675D02*
X013481D01*
X013270Y006421D02*
X013481D01*
X013270Y005913D02*
X013481D01*
X013270Y006167D02*
X013481D01*
X013270Y005659D02*
X013481D01*
X014540Y007437D02*
X014751D01*
X014540Y007183D02*
X014751D01*
X014540Y006929D02*
X014751D01*
X014540Y006675D02*
X014751D01*
X014540Y006421D02*
X014751D01*
X014540Y005913D02*
X014751D01*
X014540Y006167D02*
X014751D01*
X014540Y005659D02*
X014751D01*
X015810Y007437D02*
X016021D01*
X015810Y007183D02*
X016021D01*
X015810Y006929D02*
X016021D01*
X015810Y006675D02*
X016021D01*
X015810Y005659D02*
X016021D01*
X017080Y007437D02*
X017291D01*
X017080Y007183D02*
X017291D01*
X017080Y006929D02*
X017291D01*
X017080Y006675D02*
X017291D01*
X017080Y006421D02*
X017291D01*
X017080Y005913D02*
X017291D01*
X017080Y006167D02*
X017291D01*
X017080Y005659D02*
X017291D01*
X020890Y007437D02*
X021101D01*
X020890Y007183D02*
X021101D01*
X020890Y006929D02*
X021101D01*
X020890Y006675D02*
X021101D01*
X018350Y007437D02*
X018561D01*
X018350Y007183D02*
X018561D01*
X018350Y006929D02*
X018561D01*
X018350Y006675D02*
X018561D01*
X018350Y006421D02*
X018561D01*
X018350Y005913D02*
X018561D01*
X018350Y006167D02*
X018561D01*
X018350Y005659D02*
X018561D01*
X019620Y007437D02*
X019831D01*
X019620Y007183D02*
X019831D01*
X019620Y006929D02*
X019831D01*
X019620Y006675D02*
X019831D01*
X019620Y006421D02*
X019831D01*
X019620Y005913D02*
X019831D01*
X019620Y006167D02*
X019831D01*
X019620Y005659D02*
X019831D01*
X020509Y007183D02*
X020720D01*
X020509Y006929D02*
X020720D01*
X020509Y006675D02*
X020720D01*
X019239Y007437D02*
X019450D01*
X019239Y007183D02*
X019450D01*
X019239Y006929D02*
X019450D01*
X019239Y006675D02*
X019450D01*
X017969Y006929D02*
X018180D01*
X017969Y006675D02*
X018180D01*
X017969Y006421D02*
X018180D01*
X017969Y005913D02*
X018180D01*
X017969Y006167D02*
X018180D01*
X017969Y005659D02*
X018180D01*
X016699Y007437D02*
X016910D01*
X016699Y007183D02*
X016910D01*
X016699Y006929D02*
X016910D01*
X016699Y006675D02*
X016910D01*
X016699Y006421D02*
X016910D01*
X016699Y005913D02*
X016910D01*
X016699Y006167D02*
X016910D01*
X016699Y005659D02*
X016910D01*
X015429Y006929D02*
X015640D01*
X015429Y006675D02*
X015640D01*
X015429Y006421D02*
X015640D01*
X015429Y005913D02*
X015640D01*
X015429Y005659D02*
X015640D01*
X014159Y007183D02*
X014370D01*
X014159Y006421D02*
X014370D01*
X014159Y005913D02*
X014370D01*
X014159Y006167D02*
X014370D01*
X014159Y005659D02*
X014370D01*
X009368Y006945D02*
X009370Y006948D01*
X009200Y006805D02*
X009280Y006885D01*
X009320Y006945D02*
X009368D01*
X009282Y006983D02*
X009320Y006945D01*
X009282Y006983D02*
Y007093D01*
X012185Y006175D02*
X012185Y006175D01*
X011655Y006175D02*
X011655Y006175D01*
X011540Y006175D02*
X011655D01*
X012185Y005775D02*
X012185Y005775D01*
X011655D02*
X011655Y005775D01*
X011790Y005175D02*
X011820Y005205D01*
X011655Y005175D02*
X011790D01*
X011490Y005375D02*
X011655D01*
X011371Y005394D02*
Y005641D01*
X012060Y005175D02*
X012185D01*
X011840Y005475D02*
X011891Y005423D01*
Y005344D02*
Y005423D01*
X011480Y005515D02*
X011522Y005473D01*
X011538D01*
X011540Y005475D01*
X011840D01*
X011140Y003175D02*
X011230D01*
X010780D02*
X010880D01*
X011655Y004575D02*
X011655Y004575D01*
X011170Y005255D02*
X011320D01*
X011390Y005185D01*
X011200Y004965D02*
Y004990D01*
X011280Y005070D01*
X011655Y005575D02*
X011656Y005575D01*
X011262Y005358D02*
X011320Y005415D01*
X011172Y005358D02*
X011262D01*
X011320Y005415D02*
Y005678D01*
X011170Y005305D02*
X011282D01*
X012185Y005575D02*
X012185Y005575D01*
X012020Y005575D02*
X012185D01*
X011656Y005575D02*
X011871D01*
X009679Y005184D02*
X009832Y005337D01*
X009885Y005276D02*
Y005580D01*
X009682Y005074D02*
X009885Y005276D01*
X009682Y004968D02*
Y005074D01*
X009925Y005260D02*
Y005563D01*
X009732Y005068D02*
X009925Y005260D01*
X009732Y004968D02*
Y005068D01*
Y007093D02*
Y007213D01*
X009682Y006735D02*
Y007203D01*
X009732Y006650D02*
X009732Y006650D01*
X009982Y004968D02*
X009985Y004965D01*
Y004800D02*
Y004965D01*
X010032Y004853D02*
Y004968D01*
X010020Y004575D02*
Y004590D01*
X009782Y004828D02*
Y004968D01*
X009832Y004863D02*
Y004968D01*
X011370Y006685D02*
X011440Y006755D01*
X011390Y006775D02*
Y006975D01*
X011330Y006875D02*
Y007125D01*
X011310Y006855D02*
X011330Y006875D01*
X011350Y006355D02*
X011370Y006375D01*
X011170Y006355D02*
X011350D01*
X011475Y006575D02*
X011655D01*
X010429Y006294D02*
X010630Y006495D01*
X010300Y006294D02*
X010429D01*
X010469Y006277D02*
X010472D01*
X010445Y006254D02*
X010469Y006277D01*
X010317Y006254D02*
X010445D01*
X010190Y006127D02*
X010317Y006254D01*
X010472Y006277D02*
X010760Y006565D01*
X009280Y006755D02*
X009348Y006823D01*
X010149Y006143D02*
X010300Y006294D01*
X012185Y007375D02*
X012185Y007375D01*
X012350D01*
X012185Y006575D02*
X012185Y006575D01*
X012360D01*
X011655D02*
X011655Y006575D01*
X010531Y007094D02*
Y007325D01*
X010432Y007093D02*
Y007238D01*
X010232Y007258D02*
X010240Y007265D01*
X010232Y007093D02*
Y007258D01*
X009918Y007735D02*
X009919Y007737D01*
X010950Y005805D02*
X011170D01*
X010870Y005885D02*
X010950Y005805D01*
X010932Y004968D02*
Y005073D01*
X010880Y004970D02*
Y005060D01*
X010840Y005100D02*
X010880Y005060D01*
X010769Y005100D02*
X010840D01*
X010880Y004970D02*
X010882Y004968D01*
X010232D02*
Y005098D01*
X010310Y005175D01*
X010068Y005108D02*
X010082Y005093D01*
Y004968D02*
Y005093D01*
X010020Y005119D02*
X010032Y005108D01*
Y005108D02*
X010068D01*
X010032D02*
Y005108D01*
X010250Y006055D02*
X010325D01*
X009330Y007095D02*
X009332Y007093D01*
X009330Y007095D02*
Y007185D01*
X009280Y007235D02*
X009330Y007185D01*
X008492Y007198D02*
X008892D01*
X008920Y007225D01*
X008400Y007115D02*
X008410D01*
X008920Y007325D02*
X009020Y007425D01*
X008410Y007115D02*
X008492Y007198D01*
X007460Y007215D02*
Y007220D01*
X007567Y007218D02*
X007570Y007215D01*
X007565Y007395D02*
X007567Y007393D01*
Y007218D02*
Y007393D01*
X007500Y007260D02*
Y007395D01*
X007460Y007220D02*
X007500Y007260D01*
X007360Y007175D02*
X007370Y007185D01*
Y007395D01*
X009110Y004625D02*
X009110Y004625D01*
X009110Y004435D02*
Y004625D01*
X008960Y004185D02*
Y004285D01*
X009110Y004435D01*
X009060Y004105D02*
X009110Y004055D01*
X009060Y004105D02*
Y004115D01*
X009010Y004065D02*
X009010Y004065D01*
Y004185D01*
X008911Y005505D02*
X009045D01*
X008891Y005485D02*
X008911Y005505D01*
X008880Y005485D02*
X008891D01*
X008791Y005558D02*
X009042D01*
X009045Y005555D01*
X009532Y004869D02*
Y004968D01*
Y004869D02*
X009544Y004858D01*
X011070Y007235D02*
X011090Y007255D01*
X010932Y007191D02*
X011085Y007344D01*
Y007463D01*
X010932Y007093D02*
Y007191D01*
X010882Y007203D02*
X011043Y007363D01*
Y007587D01*
X010882Y007093D02*
Y007203D01*
X011180Y006913D02*
Y006988D01*
X011170Y006905D02*
X011172D01*
X011180Y006913D01*
X011160Y007325D02*
X011180D01*
X011330Y007475D02*
X011331Y007477D01*
X011655Y007175D02*
X011655Y007175D01*
X011800D01*
X011830Y007205D02*
Y007465D01*
X011818Y007477D02*
X011830Y007465D01*
X011331Y007477D02*
X011818D01*
X011800Y007175D02*
X011830Y007205D01*
X012067Y007209D02*
X012152D01*
X011880Y007329D02*
Y007542D01*
X012124Y006975D02*
X012185D01*
X012034Y007066D02*
Y007176D01*
Y007066D02*
X012124Y006975D01*
X011772Y007650D02*
X011880Y007542D01*
Y007329D02*
X012034Y007176D01*
X011920Y007355D02*
X011993Y007282D01*
X011920Y007355D02*
Y007559D01*
X011818Y007660D02*
X011920Y007559D01*
X011410Y007615D02*
X011444Y007650D01*
X011772D01*
X011789Y007690D02*
X011818Y007660D01*
X011788Y007690D02*
X011789D01*
X011785Y007693D02*
X011788Y007690D01*
X011443Y007693D02*
X011785D01*
X011400Y007735D02*
X011443Y007693D01*
X011330Y007615D02*
X011410D01*
X011993Y007282D02*
X011993D01*
X012152Y007209D02*
X012185Y007175D01*
X011993Y007282D02*
X012067Y007209D01*
X011330Y007755D02*
X011350Y007735D01*
X011400D01*
X010040D02*
X010055Y007720D01*
Y007530D02*
Y007720D01*
Y007530D02*
X010070Y007515D01*
X009482Y004968D02*
Y005063D01*
X009370Y005175D02*
X009482Y005063D01*
X009332Y005533D02*
X009340Y005525D01*
X009327Y005528D02*
X009332Y005533D01*
X009220Y005455D02*
X009293Y005528D01*
X009045Y005455D02*
X009220D01*
X009293Y005528D02*
X009327D01*
X009248Y005384D02*
X009250Y005385D01*
X009248Y005316D02*
Y005384D01*
X009045Y005205D02*
X009047Y005208D01*
X009432Y004869D02*
Y004968D01*
Y004869D02*
X009444Y004858D01*
X009467D01*
X009331Y004966D02*
X009332Y004968D01*
X009216Y004925D02*
X009232Y004942D01*
Y004968D01*
X010149Y005844D02*
Y006143D01*
X009885Y005580D02*
X010149Y005844D01*
X009925Y005563D02*
X010190Y005828D01*
X009045Y005155D02*
X009045Y005155D01*
X008960Y005155D02*
X009045D01*
X008910Y005045D02*
Y005105D01*
X008960Y005155D01*
X011410Y005975D02*
X011440D01*
X011340Y005905D02*
X011410Y005975D01*
X011360Y005785D02*
X011440D01*
X011170Y005855D02*
X011290D01*
X011360Y005785D01*
X011170Y005905D02*
X011170Y005905D01*
X010980Y005885D02*
X011011D01*
X011041Y005855D01*
X011167Y006108D02*
X011170Y006105D01*
X010691Y006155D02*
X011170D01*
X010672Y006136D02*
X010691Y006155D01*
X011170Y006305D02*
X011170Y006305D01*
X011060Y006305D02*
X011170D01*
X011011Y006205D02*
X011170D01*
X010991Y006225D02*
X011011Y006205D01*
X010980Y006225D02*
X010991D01*
X011041Y005855D02*
X011170D01*
X011651Y006372D02*
X011655Y006375D01*
X011170Y005355D02*
X011172Y005358D01*
X011280Y005070D02*
Y005185D01*
X011262Y005203D02*
X011280Y005185D01*
X011170Y005205D02*
X011172Y005203D01*
X011262D01*
X011138Y005148D02*
X011145Y005155D01*
X011170D01*
X008851Y006255D02*
X009045D01*
X008810Y006285D02*
X008821D01*
X009042Y006408D02*
X009045Y006405D01*
X008901Y005855D02*
X009045D01*
X008880Y005834D02*
X008901Y005855D01*
X009042Y005903D02*
X009045Y005905D01*
Y006605D02*
X009200D01*
X009340Y006465D01*
Y006465D02*
Y006465D01*
X009220Y005755D02*
Y006500D01*
X009170Y005705D02*
X009220Y005755D01*
X009045Y005705D02*
X009170D01*
X008800Y006632D02*
X008927Y006505D01*
X008800Y006632D02*
Y006765D01*
X008751Y006815D02*
X008800Y006765D01*
X009140Y005208D02*
X009248Y005316D01*
X009047Y005208D02*
X009140D01*
X009042Y005308D02*
X009045Y005305D01*
X009042Y005253D02*
X009045Y005255D01*
X008887Y005253D02*
X009042D01*
X008880Y005245D02*
X008887Y005253D01*
X009348Y006823D02*
X009350D01*
X009045Y006755D02*
X009280D01*
X011170Y006855D02*
X011310D01*
X011060Y006805D02*
X011170D01*
X009410Y006705D02*
X009440Y006735D01*
X009045Y006705D02*
X009410D01*
X009382Y007093D02*
Y007377D01*
X008920Y007225D02*
Y007325D01*
X009020Y007425D02*
X009334D01*
X009382Y007377D01*
X008690Y007005D02*
Y007115D01*
X009282Y006655D02*
X009332Y006605D01*
X009045Y006655D02*
X009282D01*
X008860Y006650D02*
X008953Y006558D01*
X008860Y006650D02*
Y006667D01*
X009042Y006558D02*
X009045Y006555D01*
X008953Y006558D02*
X009042D01*
X008670Y006815D02*
X008671Y006815D01*
X008751D01*
X008462Y005984D02*
X008480Y005965D01*
X008402Y005984D02*
X008462D01*
X008400Y005985D02*
X008402Y005984D01*
X009332Y006605D02*
X009340D01*
X008810Y004625D02*
X008910D01*
X008720Y004715D02*
X008810Y004625D01*
X008720Y004715D02*
Y004805D01*
X009662Y003173D02*
X009838D01*
X009840Y003171D01*
X009660Y003175D02*
X009662Y003173D01*
X009838Y003297D02*
X009840Y003298D01*
X009661Y003297D02*
X009838D01*
X009660Y003295D02*
X009661Y003297D01*
X009045Y006805D02*
X009200D01*
X008480Y005965D02*
X008510D01*
X008402Y005878D02*
X008410Y005885D01*
X008375Y005878D02*
X008402D01*
X008330Y005833D02*
X008375Y005878D01*
X008325Y005833D02*
X008330D01*
X010290Y004805D02*
X010295D01*
X010290D02*
Y004810D01*
X010280Y004962D02*
X010282Y004968D01*
X010982D02*
X010985Y004965D01*
X010232Y007714D02*
X010265Y007680D01*
X010266D01*
X010382Y007093D02*
Y007287D01*
X011001Y007386D02*
Y007466D01*
X010832Y007218D02*
X011001Y007386D01*
X011071Y007615D02*
X011190D01*
X011085Y007463D02*
X011097Y007475D01*
X010531Y007094D02*
X010532Y007093D01*
X011140Y003575D02*
X011230D01*
X010856Y003599D02*
X010880Y003575D01*
X010632Y004553D02*
X010990Y004195D01*
X010582Y004523D02*
X010910Y004195D01*
X011230Y003775D02*
Y003780D01*
X011200Y003809D02*
X011230Y003780D01*
X011196Y003809D02*
X011200D01*
X011140Y003865D02*
X011196Y003809D01*
X010860Y003865D02*
X011140D01*
X010839Y003886D02*
X010860Y003865D01*
X010810Y003775D02*
X010880D01*
X010790Y003795D02*
X010810Y003775D01*
X011400Y003175D02*
X011655D01*
X011655Y003175D01*
X011400Y003375D02*
X011655D01*
X011655Y003375D01*
X011400Y003575D02*
X011655D01*
X011655Y003575D01*
X011400Y003775D02*
X011655D01*
X011655Y003775D01*
X012035Y003640D02*
Y003759D01*
X012181Y003771D02*
X012185Y003775D01*
X012046Y003771D02*
X012181D01*
X012035Y003759D02*
X012046Y003771D01*
X011960Y003565D02*
X012035Y003640D01*
X011770Y003675D02*
X011880Y003565D01*
X011960D01*
X011150Y003675D02*
X011770D01*
X012061Y003575D02*
X012185D01*
X011961Y003475D02*
X012061Y003575D01*
X011050Y003771D02*
Y003775D01*
Y003771D02*
X011079Y003741D01*
X011084D01*
X011150Y003675D01*
X011150Y003475D02*
X011961D01*
X011050Y003571D02*
Y003575D01*
Y003571D02*
X011079Y003541D01*
X011084D01*
X011150Y003475D01*
X011938Y003275D02*
X012038Y003375D01*
X011160Y003275D02*
X011938D01*
X011060Y003371D02*
Y003375D01*
Y003371D02*
X011089Y003341D01*
X011094D01*
X011160Y003275D01*
X012038Y003375D02*
X012185D01*
X011870Y003175D02*
X012185D01*
X011790Y003095D02*
X011870Y003175D01*
X011050Y003165D02*
Y003175D01*
Y003165D02*
X011120Y003095D01*
X011790D01*
X010832Y004968D02*
X010835Y004965D01*
Y004870D02*
Y004965D01*
X010851Y004770D02*
Y004784D01*
X010782Y004853D02*
X010851Y004784D01*
X010890Y004724D02*
Y004731D01*
X010851Y004770D02*
X010890Y004731D01*
X010782Y004853D02*
Y004968D01*
X010790Y004724D02*
Y004775D01*
X010632Y004553D02*
Y004968D01*
X010482Y004491D02*
Y004968D01*
X010532Y004511D02*
Y004968D01*
X010582Y004523D02*
Y004968D01*
X009520Y007533D02*
X009582Y007595D01*
X009640D02*
X009640Y007595D01*
X009630Y007745D02*
X009640Y007735D01*
X009570Y007745D02*
X009630D01*
X009480Y007655D02*
X009570Y007745D01*
X009480Y007475D02*
X009480Y007475D01*
Y007655D01*
X009480Y007235D02*
Y007475D01*
X009566Y007441D02*
X009581Y007456D01*
X009566Y007283D02*
Y007441D01*
X009530Y007095D02*
X009532Y007093D01*
X009530Y007095D02*
Y007185D01*
X009480Y007235D02*
X009530Y007185D01*
X009535Y007243D02*
X009572Y007205D01*
X009566Y007283D02*
X009570Y007278D01*
Y007264D02*
Y007278D01*
Y007264D02*
X009599Y007235D01*
X009566Y007283D02*
X009566D01*
X009599Y007235D02*
X009650D01*
X009572Y007205D02*
X009580Y007198D01*
X009520Y007258D02*
X009535Y007243D01*
X009640Y007305D02*
Y007315D01*
Y007305D02*
X009732Y007213D01*
X009582Y007595D02*
X009640D01*
X009581Y007456D02*
X009639D01*
X009520Y007258D02*
Y007533D01*
X009580Y007095D02*
X009582Y007093D01*
X009580Y007095D02*
Y007198D01*
X009666Y006718D02*
X009682Y006735D01*
X009650Y007235D02*
X009682Y007203D01*
X009639Y007456D02*
X009640Y007455D01*
X011100Y007755D02*
X011190D01*
X011001Y007466D02*
Y007656D01*
X011100Y007755D01*
X011043Y007587D02*
X011071Y007615D01*
X010832Y007093D02*
Y007218D01*
X011001Y007466D02*
X011001Y007466D01*
X011097Y007475D02*
X011190D01*
X010481Y007091D02*
X010482Y007093D01*
X010332D02*
X010335Y007095D01*
X010181Y007094D02*
X010182Y007093D01*
X010181Y007094D02*
Y007334D01*
X009980Y007095D02*
Y007185D01*
X009938Y007228D02*
X009980Y007185D01*
X009810Y007455D02*
X009810Y007455D01*
X009880Y007095D02*
X009882Y007093D01*
X009910Y007235D02*
X009918Y007228D01*
X009980Y007095D02*
X009982Y007093D01*
X009918Y007228D02*
X009938D01*
X011170Y006855D02*
X011172Y006858D01*
X009160Y006855D02*
X009200Y006895D01*
X009045Y006855D02*
X009160D01*
X008927Y006505D02*
X009045D01*
X008830Y007065D02*
Y007115D01*
Y007065D02*
X008910Y006985D01*
X009160D02*
X009200Y006945D01*
X008910Y006985D02*
X009160D01*
X009200Y006895D02*
Y006945D01*
X008660Y006905D02*
X009045D01*
X008540Y007025D02*
Y007115D01*
Y007025D02*
X008660Y006905D01*
X008002Y006047D02*
X008050Y006095D01*
X008002Y005748D02*
Y006047D01*
X008310Y005995D02*
Y006083D01*
X008298Y006095D02*
X008310Y006083D01*
X008050Y006095D02*
X008298D01*
X008115Y005833D02*
Y005990D01*
X008120Y005995D01*
D51*
X009890Y004505D02*
D03*
X009700D02*
D03*
X011200Y004965D02*
D03*
X011390D02*
D03*
X010040Y007735D02*
D03*
X010230D02*
D03*
X008910Y004805D02*
D03*
X008720D02*
D03*
X008120Y005995D02*
D03*
X008310D02*
D03*
X009810Y004175D02*
D03*
X009620D02*
D03*
X007150Y007175D02*
D03*
X007340D02*
D03*
D52*
X012185Y003175D02*
D03*
Y002975D02*
D03*
Y003375D02*
D03*
Y003575D02*
D03*
Y004375D02*
D03*
Y004175D02*
D03*
Y003775D02*
D03*
Y003975D02*
D03*
Y004775D02*
D03*
Y004575D02*
D03*
X011655D02*
D03*
Y004775D02*
D03*
Y004175D02*
D03*
Y003775D02*
D03*
Y003975D02*
D03*
Y004375D02*
D03*
Y003575D02*
D03*
Y003175D02*
D03*
Y002975D02*
D03*
Y003375D02*
D03*
X012185Y005375D02*
D03*
Y005175D02*
D03*
Y004975D02*
D03*
Y005775D02*
D03*
Y005575D02*
D03*
X011655D02*
D03*
Y005775D02*
D03*
Y005175D02*
D03*
Y004975D02*
D03*
Y005375D02*
D03*
X012185Y006175D02*
D03*
Y005975D02*
D03*
Y006375D02*
D03*
Y006575D02*
D03*
Y007375D02*
D03*
Y007175D02*
D03*
Y006775D02*
D03*
Y006975D02*
D03*
Y007775D02*
D03*
Y007575D02*
D03*
X011655D02*
D03*
Y007775D02*
D03*
Y007175D02*
D03*
Y006775D02*
D03*
Y006975D02*
D03*
Y007375D02*
D03*
Y006575D02*
D03*
Y006175D02*
D03*
Y005975D02*
D03*
Y006375D02*
D03*
D53*
X009432Y007093D02*
D03*
X009482D02*
D03*
X009282Y004968D02*
D03*
X009332D02*
D03*
X009382D02*
D03*
X009432D02*
D03*
X009482D02*
D03*
X009532D02*
D03*
X009582D02*
D03*
X009632D02*
D03*
X009682D02*
D03*
X009732D02*
D03*
X009782D02*
D03*
X009832D02*
D03*
X009882D02*
D03*
X009932D02*
D03*
X009982D02*
D03*
X010032D02*
D03*
X010082D02*
D03*
X010132D02*
D03*
X010182D02*
D03*
X010232D02*
D03*
X010282D02*
D03*
X010332D02*
D03*
X010382D02*
D03*
X010432D02*
D03*
X010482D02*
D03*
X010532D02*
D03*
X010582D02*
D03*
X010632D02*
D03*
X010682D02*
D03*
X010732D02*
D03*
X010782D02*
D03*
X010832D02*
D03*
X010882D02*
D03*
X010932D02*
D03*
X010982D02*
D03*
Y007093D02*
D03*
X010932D02*
D03*
X010882D02*
D03*
X010832D02*
D03*
X010782D02*
D03*
X010732D02*
D03*
X010682D02*
D03*
X010632D02*
D03*
X010582D02*
D03*
X010532D02*
D03*
X010482D02*
D03*
X010432D02*
D03*
X010382D02*
D03*
X010332D02*
D03*
X010282D02*
D03*
X010232D02*
D03*
X010182D02*
D03*
X010132D02*
D03*
X010082D02*
D03*
X010032D02*
D03*
X009982D02*
D03*
X009932D02*
D03*
X009882D02*
D03*
X009832D02*
D03*
X009782D02*
D03*
X009732D02*
D03*
X009682D02*
D03*
X009632D02*
D03*
X009582D02*
D03*
X009532D02*
D03*
X009382D02*
D03*
X009332D02*
D03*
X009282D02*
D03*
X009232D02*
D03*
D54*
Y004968D02*
D03*
D55*
X011170Y005155D02*
D03*
Y005205D02*
D03*
Y005255D02*
D03*
Y005305D02*
D03*
Y005355D02*
D03*
Y005405D02*
D03*
Y005455D02*
D03*
Y005505D02*
D03*
Y005555D02*
D03*
Y005605D02*
D03*
Y005655D02*
D03*
Y005705D02*
D03*
Y005755D02*
D03*
Y005805D02*
D03*
Y005855D02*
D03*
Y005905D02*
D03*
Y005955D02*
D03*
Y006005D02*
D03*
Y006055D02*
D03*
Y006105D02*
D03*
Y006155D02*
D03*
Y006205D02*
D03*
Y006255D02*
D03*
Y006305D02*
D03*
Y006355D02*
D03*
Y006405D02*
D03*
Y006455D02*
D03*
Y006505D02*
D03*
Y006555D02*
D03*
Y006605D02*
D03*
Y006655D02*
D03*
Y006705D02*
D03*
Y006755D02*
D03*
Y006805D02*
D03*
Y006855D02*
D03*
Y006905D02*
D03*
X009045D02*
D03*
Y006855D02*
D03*
Y006805D02*
D03*
Y006755D02*
D03*
Y006705D02*
D03*
Y006655D02*
D03*
Y006605D02*
D03*
Y006555D02*
D03*
Y006505D02*
D03*
Y006455D02*
D03*
Y006405D02*
D03*
Y006355D02*
D03*
Y006305D02*
D03*
Y006255D02*
D03*
Y006205D02*
D03*
Y006155D02*
D03*
Y006105D02*
D03*
Y006055D02*
D03*
Y006005D02*
D03*
Y005955D02*
D03*
Y005905D02*
D03*
Y005855D02*
D03*
Y005805D02*
D03*
Y005755D02*
D03*
Y005705D02*
D03*
Y005655D02*
D03*
Y005605D02*
D03*
Y005555D02*
D03*
Y005505D02*
D03*
Y005455D02*
D03*
Y005405D02*
D03*
Y005355D02*
D03*
Y005305D02*
D03*
Y005255D02*
D03*
Y005205D02*
D03*
Y005155D02*
D03*
D56*
X011180Y007325D02*
D03*
Y007135D02*
D03*
X011340Y007325D02*
D03*
Y007135D02*
D03*
X010280Y004255D02*
D03*
Y004445D02*
D03*
X011440Y005785D02*
D03*
Y005975D02*
D03*
X008680Y004255D02*
D03*
Y004065D02*
D03*
X008510Y005775D02*
D03*
Y005965D02*
D03*
Y005605D02*
D03*
Y005415D02*
D03*
X008650Y003235D02*
D03*
Y003045D02*
D03*
X010490Y003235D02*
D03*
Y003045D02*
D03*
X008510Y004965D02*
D03*
Y005155D02*
D03*
D57*
X011400Y003775D02*
D03*
X011230D02*
D03*
X011400Y003575D02*
D03*
X011230D02*
D03*
X011400Y003375D02*
D03*
X011230D02*
D03*
X011400Y003175D02*
D03*
X011230D02*
D03*
X010880Y003775D02*
D03*
X011050D02*
D03*
X010880Y003575D02*
D03*
X011050D02*
D03*
X010890Y003375D02*
D03*
X011060D02*
D03*
X010880Y003175D02*
D03*
X011050D02*
D03*
X008500Y006455D02*
D03*
X008670D02*
D03*
Y006815D02*
D03*
X008500D02*
D03*
Y006635D02*
D03*
X008670D02*
D03*
X009640Y007455D02*
D03*
X009810D02*
D03*
Y007315D02*
D03*
X009640D02*
D03*
X010110Y004125D02*
D03*
X010280D02*
D03*
X009810Y007595D02*
D03*
X009640D02*
D03*
Y007735D02*
D03*
X009810D02*
D03*
X011160Y007475D02*
D03*
X011330D02*
D03*
Y007615D02*
D03*
X011160D02*
D03*
Y007755D02*
D03*
X011330D02*
D03*
X020890Y006929D02*
D03*
X020720D02*
D03*
Y006675D02*
D03*
X020890D02*
D03*
Y007437D02*
D03*
X020720D02*
D03*
Y007183D02*
D03*
X020890D02*
D03*
X019620Y005913D02*
D03*
X019450D02*
D03*
Y005659D02*
D03*
X019620D02*
D03*
Y006421D02*
D03*
X019450D02*
D03*
Y006167D02*
D03*
X019620D02*
D03*
Y006929D02*
D03*
X019450D02*
D03*
Y006675D02*
D03*
X019620D02*
D03*
Y007437D02*
D03*
X019450D02*
D03*
Y007183D02*
D03*
X019620D02*
D03*
X018350Y005913D02*
D03*
X018180D02*
D03*
Y005659D02*
D03*
X018350D02*
D03*
Y006421D02*
D03*
X018180D02*
D03*
Y006167D02*
D03*
X018350D02*
D03*
Y006929D02*
D03*
X018180D02*
D03*
Y006675D02*
D03*
X018350D02*
D03*
Y007437D02*
D03*
X018180D02*
D03*
Y007183D02*
D03*
X018350D02*
D03*
X017080Y005913D02*
D03*
X016910D02*
D03*
Y005659D02*
D03*
X017080D02*
D03*
Y006421D02*
D03*
X016910D02*
D03*
Y006167D02*
D03*
X017080D02*
D03*
Y006929D02*
D03*
X016910D02*
D03*
Y006675D02*
D03*
X017080D02*
D03*
Y007437D02*
D03*
X016910D02*
D03*
Y007183D02*
D03*
X017080D02*
D03*
X015810Y005913D02*
D03*
X015640D02*
D03*
Y005659D02*
D03*
X015810D02*
D03*
Y006421D02*
D03*
X015640D02*
D03*
Y006167D02*
D03*
X015810D02*
D03*
Y006929D02*
D03*
X015640D02*
D03*
Y006675D02*
D03*
X015810D02*
D03*
Y007437D02*
D03*
X015640D02*
D03*
Y007183D02*
D03*
X015810D02*
D03*
X014540Y005913D02*
D03*
X014370D02*
D03*
Y005659D02*
D03*
X014540D02*
D03*
Y006421D02*
D03*
X014370D02*
D03*
Y006167D02*
D03*
X014540D02*
D03*
Y006929D02*
D03*
X014370D02*
D03*
Y006675D02*
D03*
X014540D02*
D03*
Y007437D02*
D03*
X014370D02*
D03*
Y007183D02*
D03*
X014540D02*
D03*
X013270Y005913D02*
D03*
X013100D02*
D03*
Y005659D02*
D03*
X013270D02*
D03*
Y006421D02*
D03*
X013100D02*
D03*
Y006167D02*
D03*
X013270D02*
D03*
Y006929D02*
D03*
X013100D02*
D03*
Y006675D02*
D03*
X013270D02*
D03*
Y007437D02*
D03*
X013100D02*
D03*
Y007183D02*
D03*
X013270D02*
D03*
D58*
X008400Y007115D02*
D03*
Y007285D02*
D03*
X008540Y007285D02*
D03*
Y007115D02*
D03*
X008690Y007115D02*
D03*
Y007285D02*
D03*
X008830D02*
D03*
Y007115D02*
D03*
D59*
X007320Y006904D02*
D03*
Y006535D02*
D03*
X007900D02*
D03*
Y006904D02*
D03*
X008220Y005025D02*
D03*
Y005393D02*
D03*
X010210Y003085D02*
D03*
Y003453D02*
D03*
D60*
X007210Y006005D02*
D03*
X007410D02*
D03*
X007210Y005055D02*
D03*
X007610Y006005D02*
D03*
X007410Y005055D02*
D03*
X007810D02*
D03*
X007610D02*
D03*
D61*
X007810Y006005D02*
D03*
D62*
X008115Y005833D02*
D03*
D63*
Y005768D02*
D03*
Y005703D02*
D03*
X008325Y005833D02*
D03*
Y005703D02*
D03*
Y005768D02*
D03*
X008115Y005638D02*
D03*
X008325D02*
D03*
D64*
X008220Y005735D02*
D03*
D65*
X007797Y007708D02*
D03*
X007202D02*
D03*
X007500D02*
D03*
D66*
X007435Y007395D02*
D03*
X007500D02*
D03*
X007565D02*
D03*
X007630D02*
D03*
X007370D02*
D03*
D67*
X008353Y006815D02*
D03*
X008150D02*
D03*
X008350Y006455D02*
D03*
X008147D02*
D03*
X008353Y006635D02*
D03*
X008150D02*
D03*
D68*
X008426Y007586D02*
D03*
X008553D02*
D03*
X008680D02*
D03*
X008807D02*
D03*
D69*
X009110Y004625D02*
D03*
X009060D02*
D03*
X009010D02*
D03*
X008960D02*
D03*
X008910D02*
D03*
X009110Y004185D02*
D03*
X009060D02*
D03*
X009010D02*
D03*
X008960D02*
D03*
X009270D02*
D03*
X009320D02*
D03*
X009370D02*
D03*
X009420D02*
D03*
X009470D02*
D03*
X009270Y004625D02*
D03*
X009320D02*
D03*
X009370D02*
D03*
X009420D02*
D03*
D70*
X008910Y004185D02*
D03*
X009470Y004625D02*
D03*
D71*
X008925Y003933D02*
D03*
Y003806D02*
D03*
Y003679D02*
D03*
Y003552D02*
D03*
Y003425D02*
D03*
Y003298D02*
D03*
Y003171D02*
D03*
Y003044D02*
D03*
X009840Y003933D02*
D03*
Y003806D02*
D03*
Y003679D02*
D03*
Y003552D02*
D03*
Y003425D02*
D03*
Y003298D02*
D03*
Y003171D02*
D03*
Y003044D02*
D03*
D72*
X009905Y006937D02*
Y006940D01*
X011190Y002975D02*
X011655D01*
X011190Y002975D02*
X011190Y002975D01*
X010098Y006744D02*
X010337D01*
X009900Y006945D02*
Y006948D01*
X009905Y006937D02*
X010098Y006744D01*
X009900Y006945D02*
X009905Y006940D01*
X013524Y004283D02*
X013778D01*
X013016D02*
X013274D01*
X013016Y004029D02*
Y004283D01*
X013274Y004029D02*
Y004283D01*
X013778Y004029D02*
Y004283D01*
X013524Y004029D02*
Y004283D01*
X012357Y007790D02*
X012360D01*
X007720Y003675D02*
X008620D01*
X007689Y003506D02*
Y003675D01*
Y004018D01*
X010280Y004445D02*
Y004515D01*
X011495Y007356D02*
X011635D01*
X011655Y007775D02*
X012185D01*
X011635Y007795D02*
X011655Y007775D01*
X012342D02*
X012357Y007790D01*
X012185Y007775D02*
X012342D01*
X011493Y007353D02*
X011495Y007356D01*
X011490Y006975D02*
X011655D01*
X012030Y004995D02*
X012032Y004993D01*
X012167D01*
X012185Y004975D01*
X010337Y006744D02*
X010456Y006625D01*
X011655Y006975D02*
X011655Y006975D01*
X011635Y007356D02*
X011655Y007375D01*
X011490Y007353D02*
X011493D01*
X009631Y003044D02*
X009840D01*
X009510Y003165D02*
X009631Y003044D01*
X009539Y003806D02*
X009840D01*
X009510Y003777D02*
X009539Y003806D01*
X009510Y003735D02*
Y003777D01*
Y003735D02*
X009510Y003735D01*
Y003165D02*
Y003735D01*
X010122Y003933D02*
X010200Y003855D01*
Y003645D02*
Y003855D01*
X009840Y003933D02*
X010122D01*
X010200Y003463D02*
X010210Y003453D01*
X010200Y003463D02*
Y003645D01*
X010166Y003679D02*
X010200Y003645D01*
X009840Y003679D02*
X010166D01*
X010071Y003552D02*
X010170Y003453D01*
X009840Y003552D02*
X010071D01*
X010170Y003453D02*
X010210D01*
X010461D02*
X010490Y003424D01*
X010210Y003453D02*
X010461D01*
X010490Y003235D02*
Y003424D01*
X009840Y003425D02*
X010182D01*
X010210Y003453D01*
X010250Y003045D02*
X010490D01*
X010210Y003085D02*
X010250Y003045D01*
X009840Y003044D02*
X010169D01*
X010210Y003085D01*
X008510Y005285D02*
Y005415D01*
Y005155D02*
Y005285D01*
X008325Y005468D02*
Y005628D01*
X008250Y005393D02*
X008325Y005468D01*
X008190Y005393D02*
X008220D01*
X008115Y005468D02*
X008190Y005393D01*
X008115Y005458D02*
Y005628D01*
X011655Y002975D02*
X012185D01*
X008350Y006455D02*
X008500D01*
X008353Y006635D02*
X008500D01*
X008500Y006635D01*
X008353Y006815D02*
X008500D01*
X008148Y006457D02*
Y006814D01*
X008150Y006815D02*
Y006995D01*
X008150Y006995D02*
X008150Y006995D01*
X008148Y006814D02*
X008150Y006815D01*
X008147Y006455D02*
X008148Y006457D01*
X008650Y003460D02*
Y003575D01*
Y003345D02*
Y003460D01*
X008742Y003552D02*
X008925D01*
X008650Y003460D02*
X008742Y003552D01*
X008650Y003575D02*
X008754Y003679D01*
X008925D01*
X008620Y003675D02*
X008751Y003806D01*
X008570Y003775D02*
X008728Y003933D01*
X008010Y003775D02*
X008570D01*
X007943Y003842D02*
X008010Y003775D01*
X008751Y003806D02*
X008925D01*
X007943Y003842D02*
Y004018D01*
X008728Y003933D02*
X008925D01*
X008150Y003045D02*
X008650D01*
X007689Y003506D02*
X008150Y003045D01*
X008730Y003425D02*
X008925D01*
X008650Y003235D02*
Y003345D01*
X008730Y003425D01*
X008924Y003045D02*
X008925Y003044D01*
X008650Y003045D02*
X008924D01*
X008650Y003045D02*
X008650Y003045D01*
D73*
X011200Y004885D02*
Y004965D01*
X011310Y004775D02*
X011655D01*
X011200Y004885D02*
X011310Y004775D01*
X008078Y005703D02*
X008115D01*
X008020Y005644D02*
X008078Y005703D01*
X008020Y005615D02*
Y005644D01*
X008550Y006356D02*
X008640D01*
X008670Y006385D01*
X012010Y005975D02*
X012010Y005975D01*
X011820D02*
X011820Y005975D01*
X011655Y005975D02*
X011820D01*
X012010D02*
X012185D01*
X012185Y005975D01*
X011655D02*
X011655Y005975D01*
X011655Y004575D02*
X011655Y004575D01*
X012185D02*
X012185Y004575D01*
X012030Y004575D02*
X012030Y004575D01*
X012030Y004775D02*
X012185D01*
X011655D02*
X011810D01*
X011594Y004975D02*
X011655D01*
X011508Y004889D02*
X011594Y004975D01*
X011484Y004889D02*
X011508D01*
X011480Y004885D02*
X011484Y004889D01*
X008426Y007305D02*
Y007586D01*
X008406Y007285D02*
X008426Y007305D01*
X008400Y007285D02*
X008406D01*
X008807Y007309D02*
Y007586D01*
Y007309D02*
X008830Y007285D01*
X008840D01*
X008680Y007586D02*
X008685Y007581D01*
Y007290D02*
Y007581D01*
Y007290D02*
X008690Y007285D01*
X008551Y007585D02*
X008553Y007586D01*
X008551Y007286D02*
Y007585D01*
X008550Y007285D02*
X008551Y007286D01*
X007103Y007255D02*
X007103D01*
X007150Y007220D02*
X007170Y007200D01*
X007202Y007678D02*
Y007708D01*
X007050Y007525D02*
X007202Y007678D01*
X007050Y007309D02*
Y007525D01*
X007170Y007175D02*
Y007200D01*
X007138Y007220D02*
X007150D01*
X007103Y007255D02*
X007138Y007220D01*
X007050Y007309D02*
X007103Y007255D01*
X007500Y007708D02*
X007797D01*
X007202D02*
X007500D01*
X008022Y005768D02*
X008115D01*
X008002Y005747D02*
X008022Y005768D01*
D74*
X007410Y006005D02*
Y006375D01*
Y006493D01*
Y005655D02*
Y006005D01*
X008910Y004805D02*
X009070D01*
X009810Y004170D02*
Y004175D01*
Y004170D02*
X009895Y004085D01*
X009970D01*
X009620Y003985D02*
X009620Y003985D01*
Y004175D01*
X007410Y005575D02*
Y005655D01*
Y005485D02*
Y005575D01*
X007820Y006255D02*
Y006485D01*
Y006015D02*
Y006255D01*
X007810Y006005D02*
Y006245D01*
X007820Y006255D01*
X008000D01*
X007810Y006005D02*
X007820Y006015D01*
Y006485D02*
X007870Y006535D01*
X007900D01*
X007610Y005605D02*
Y006005D01*
X008588Y005285D02*
X008721Y005152D01*
Y004877D02*
Y005152D01*
X008510Y005285D02*
X008588D01*
X008250Y005393D02*
X008260D01*
X008220D02*
X008250D01*
X008260D02*
X008368Y005285D01*
X008510D01*
X007610Y006904D02*
X007900D01*
X007320D02*
X007610D01*
X007610Y006715D02*
Y006904D01*
X007610Y006904D01*
X007320Y006914D02*
X007330Y006904D01*
X007360Y006543D02*
X007410Y006493D01*
X007610Y006005D02*
Y006715D01*
Y006005D02*
X007610Y006005D01*
X007943Y004018D02*
Y004272D01*
X007689Y004018D02*
Y004272D01*
X007510Y004465D02*
X007668D01*
X007809Y004606D01*
Y004954D01*
X007610Y004674D02*
Y005055D01*
X007181Y004272D02*
Y004557D01*
X007240Y004615D01*
X007181Y004272D02*
X007181Y004272D01*
X007551Y004615D02*
X007610Y004674D01*
X007240Y004615D02*
X007551D01*
X007440Y004395D02*
X007510Y004465D01*
X007440Y004277D02*
Y004395D01*
X007435Y004272D02*
X007440Y004277D01*
X007181Y004018D02*
Y004272D01*
X007435Y004018D02*
Y004272D01*
D75*
X007130Y003675D02*
X007689D01*
X007058Y003747D02*
Y007023D01*
X007100Y007065D01*
X007058Y003747D02*
X007130Y003675D01*
X007100Y007065D02*
X007255D01*
X007340Y007150D01*
X008710Y004285D02*
Y004365D01*
X008680Y004255D02*
X008710Y004285D01*
X011180Y006988D02*
Y007135D01*
X007630Y007275D02*
Y007395D01*
Y007275D02*
X007690Y007215D01*
X009060Y004455D02*
Y004625D01*
X008910Y004305D02*
X009060Y004455D01*
X008510Y005690D02*
Y005775D01*
X008497Y005703D02*
X008510Y005690D01*
X011090Y007255D02*
X011160Y007325D01*
X012181Y007379D02*
X012185Y007375D01*
X011170Y007325D02*
X011340D01*
X009000Y007095D02*
X009210D01*
X008910Y004185D02*
Y004305D01*
X009110Y004625D02*
X009190D01*
X008910Y004185D02*
Y004185D01*
X008840Y004185D02*
X008910D01*
X008510Y005605D02*
Y005690D01*
X008325Y005703D02*
X008497D01*
D76*
X011340Y003975D02*
X011655D01*
X011340Y003975D02*
X011340Y003975D01*
X011280Y004125D02*
X011460D01*
X011506Y004171D01*
X011650D01*
X011655Y004175D01*
X007725Y005470D02*
X008002Y005747D01*
X007425Y005470D02*
X007725D01*
X007410Y005485D02*
X007425Y005470D01*
X011655Y004375D02*
X012185D01*
X012182Y004178D02*
X012185Y004175D01*
X011657Y004178D02*
X012182D01*
X011655Y004175D02*
X011657Y004178D01*
X011655Y003975D02*
X011657Y003973D01*
X012182D01*
X012185Y003975D01*
D77*
X009700Y004355D02*
Y004505D01*
D78*
X008197Y004272D02*
X008199Y004274D01*
X009031Y003267D02*
Y003271D01*
X009076Y003204D02*
X009080Y003199D01*
X009096D01*
X009076Y003267D02*
X009080Y003271D01*
X009031Y003267D02*
X009076D01*
X009031Y003204D02*
X009076D01*
X009096Y003199D02*
X009100Y003195D01*
X009031Y003198D02*
Y003204D01*
X009096Y003271D02*
X009100Y003275D01*
X008925Y003171D02*
X009004D01*
X009031Y003198D01*
X009004Y003298D02*
X009031Y003271D01*
X009080Y003271D02*
X009096D01*
X008925Y003298D02*
X009004D01*
D79*
X013778Y007183D02*
D03*
Y007437D02*
D03*
Y006929D02*
D03*
Y006675D02*
D03*
Y006421D02*
D03*
Y006167D02*
D03*
Y005913D02*
D03*
Y005659D02*
D03*
X015048Y007437D02*
D03*
Y007183D02*
D03*
Y005913D02*
D03*
X016318Y006929D02*
D03*
X015048Y005659D02*
D03*
X016318D02*
D03*
Y005913D02*
D03*
X017588Y006929D02*
D03*
Y006167D02*
D03*
X018858Y005913D02*
D03*
X020128Y005659D02*
D03*
Y006421D02*
D03*
X017588Y005659D02*
D03*
X015048Y006675D02*
D03*
X021398Y007437D02*
D03*
X013524Y007183D02*
D03*
Y007437D02*
D03*
Y006675D02*
D03*
Y006929D02*
D03*
Y006167D02*
D03*
Y006421D02*
D03*
Y005659D02*
D03*
Y005913D02*
D03*
X014794Y007437D02*
D03*
Y006929D02*
D03*
X016064Y006421D02*
D03*
X017334Y006675D02*
D03*
Y006929D02*
D03*
Y006167D02*
D03*
Y006421D02*
D03*
Y005659D02*
D03*
X019874Y007437D02*
D03*
X021144Y006929D02*
D03*
D80*
X020128Y005913D02*
D03*
Y006929D02*
D03*
Y007437D02*
D03*
X021398Y006929D02*
D03*
X016318Y007183D02*
D03*
Y007437D02*
D03*
Y006675D02*
D03*
Y006421D02*
D03*
Y006167D02*
D03*
X017588Y006675D02*
D03*
X018858Y005659D02*
D03*
Y006421D02*
D03*
Y006167D02*
D03*
X020128Y006675D02*
D03*
Y007183D02*
D03*
X021398Y006675D02*
D03*
X015048Y006929D02*
D03*
Y006167D02*
D03*
Y006421D02*
D03*
X017588Y007437D02*
D03*
Y007183D02*
D03*
Y006421D02*
D03*
Y005913D02*
D03*
X018858Y006675D02*
D03*
Y006929D02*
D03*
Y007183D02*
D03*
Y007437D02*
D03*
X020128Y006167D02*
D03*
X021398Y007183D02*
D03*
X014794D02*
D03*
Y006675D02*
D03*
Y006167D02*
D03*
Y006421D02*
D03*
Y005659D02*
D03*
Y005913D02*
D03*
X016064Y007183D02*
D03*
Y007437D02*
D03*
Y006675D02*
D03*
Y006929D02*
D03*
Y006167D02*
D03*
Y005659D02*
D03*
Y005913D02*
D03*
X017334Y007183D02*
D03*
Y007437D02*
D03*
Y005913D02*
D03*
X018604Y007183D02*
D03*
Y007437D02*
D03*
Y006675D02*
D03*
Y006929D02*
D03*
Y006167D02*
D03*
Y006421D02*
D03*
Y005659D02*
D03*
Y005913D02*
D03*
X019874Y007183D02*
D03*
Y006675D02*
D03*
Y006929D02*
D03*
Y006167D02*
D03*
Y006421D02*
D03*
Y005659D02*
D03*
Y005913D02*
D03*
X021144Y007183D02*
D03*
Y007437D02*
D03*
Y006675D02*
D03*
D81*
X010070Y007515D02*
D03*
X010868D02*
D03*
D82*
X007435Y004018D02*
D03*
Y004272D02*
D03*
X007689Y004018D02*
D03*
Y004272D02*
D03*
X007943Y004018D02*
D03*
Y004272D02*
D03*
X008197Y004018D02*
D03*
Y004272D02*
D03*
X008451Y004018D02*
D03*
X007181D02*
D03*
Y004272D02*
D03*
X008190Y004525D02*
D03*
X008450D02*
D03*
X013778Y004029D02*
D03*
X013524Y004283D02*
D03*
Y004029D02*
D03*
X013274Y004283D02*
D03*
Y004029D02*
D03*
X013016Y004283D02*
D03*
Y004029D02*
D03*
X021652D02*
D03*
X021398Y004283D02*
D03*
Y004029D02*
D03*
D83*
X008451Y004272D02*
D03*
X008190Y004725D02*
D03*
X008450D02*
D03*
X013778Y004283D02*
D03*
X021652D02*
D03*
D84*
X007460Y007125D02*
D03*
X011330Y005905D02*
D03*
X011460Y006095D02*
D03*
X010240Y006615D02*
D03*
X011422Y002975D02*
D03*
X011190Y002975D02*
D03*
X011070Y004895D02*
D03*
X010478Y006947D02*
D03*
X012400Y005175D02*
D03*
X008020Y005615D02*
D03*
X011490Y004355D02*
D03*
X010830Y004515D02*
D03*
X020590Y007445D02*
D03*
X013000Y005665D02*
D03*
X016580Y007125D02*
D03*
X015429Y006167D02*
D03*
X012420Y006825D02*
D03*
X012620Y006885D02*
D03*
X012380Y006965D02*
D03*
X012420Y007455D02*
D03*
X019450Y005555D02*
D03*
X019070Y006425D02*
D03*
Y006155D02*
D03*
X008640Y005535D02*
D03*
X008650Y005655D02*
D03*
X010350Y005945D02*
D03*
X010462Y005885D02*
D03*
X010410Y006055D02*
D03*
X013130Y005455D02*
D03*
X012660Y004845D02*
D03*
X012730Y005245D02*
D03*
X012890Y004785D02*
D03*
X012500Y005115D02*
D03*
X013190Y006275D02*
D03*
X012014Y006172D02*
D03*
X014030Y006285D02*
D03*
X012620Y006355D02*
D03*
X013980Y006605D02*
D03*
X016699Y007437D02*
D03*
X015550Y007445D02*
D03*
X012960Y007125D02*
D03*
X012740Y007195D02*
D03*
X012830Y007185D02*
D03*
X015550D02*
D03*
X012610Y007235D02*
D03*
X012420Y007585D02*
D03*
X012950Y006095D02*
D03*
X012360Y007790D02*
D03*
X014070Y006925D02*
D03*
X014040Y006675D02*
D03*
X014160Y006035D02*
D03*
X010751Y006885D02*
D03*
X010750Y006765D02*
D03*
X010860Y006655D02*
D03*
X010850Y006225D02*
D03*
X011020Y006435D02*
D03*
X010910Y006465D02*
D03*
Y006555D02*
D03*
X012890Y006405D02*
D03*
X012350Y006372D02*
D03*
X011471D02*
D03*
X014159Y006421D02*
D03*
X012030Y004995D02*
D03*
X012520Y004955D02*
D03*
X012600Y004915D02*
D03*
X012760Y004675D02*
D03*
X018030Y007435D02*
D03*
X018090Y007185D02*
D03*
X010110Y004515D02*
D03*
X010020Y003045D02*
D03*
X009570Y003105D02*
D03*
X009550Y003835D02*
D03*
X011360Y006515D02*
D03*
X011475Y006575D02*
D03*
X007950Y005225D02*
D03*
X007700Y006905D02*
D03*
X007610D02*
D03*
X007520D02*
D03*
X008841Y005634D02*
D03*
X008640Y005895D02*
D03*
X008650Y005975D02*
D03*
X010514Y005824D02*
D03*
X010310Y005765D02*
D03*
X010270Y005645D02*
D03*
X011120Y004345D02*
D03*
X011340Y003975D02*
D03*
X011400D02*
D03*
X011470D02*
D03*
X011280Y004125D02*
D03*
X011400D02*
D03*
X011340D02*
D03*
X009580Y004005D02*
D03*
X009650D02*
D03*
Y004075D02*
D03*
X009960Y004055D02*
D03*
Y004115D02*
D03*
X010818Y003603D02*
D03*
X009991Y004316D02*
D03*
X010894Y003469D02*
D03*
X009900Y004055D02*
D03*
Y004115D02*
D03*
X009580Y004075D02*
D03*
X009360Y004035D02*
D03*
X009260D02*
D03*
X009460Y004455D02*
D03*
X009080Y004775D02*
D03*
X009200Y004185D02*
D03*
Y004495D02*
D03*
X009110Y004055D02*
D03*
X007410Y005485D02*
D03*
X007410Y005575D02*
D03*
Y005655D02*
D03*
X009460Y005245D02*
D03*
X009590D02*
D03*
X012030Y004375D02*
D03*
X011820D02*
D03*
X007980Y006285D02*
D03*
Y006215D02*
D03*
X007910D02*
D03*
Y006285D02*
D03*
X009140Y004995D02*
D03*
X009473Y004749D02*
D03*
X009320Y004825D02*
D03*
X009220D02*
D03*
X010020Y005119D02*
D03*
X010590Y005105D02*
D03*
X009678Y006526D02*
D03*
X008530Y006085D02*
D03*
X010560Y006835D02*
D03*
X010660Y006845D02*
D03*
Y006745D02*
D03*
X010360Y007465D02*
D03*
X010240Y007505D02*
D03*
X010500Y007565D02*
D03*
X011490Y007353D02*
D03*
X009950Y007315D02*
D03*
X009930Y007235D02*
D03*
X009540Y004795D02*
D03*
X009650D02*
D03*
X010280Y004515D02*
D03*
X008710Y004365D02*
D03*
X009732Y006650D02*
D03*
X008410Y006335D02*
D03*
X008550Y006356D02*
D03*
X008780Y006405D02*
D03*
X008810Y006285D02*
D03*
X008790Y006495D02*
D03*
X008617Y006239D02*
D03*
X008470Y006255D02*
D03*
X010640Y004075D02*
D03*
X011050D02*
D03*
X011830Y005775D02*
D03*
X011400Y005681D02*
D03*
X011317D02*
D03*
X010760Y006225D02*
D03*
X010670Y007625D02*
D03*
X010590D02*
D03*
X010100Y007315D02*
D03*
X009910Y007465D02*
D03*
X010220Y007595D02*
D03*
X008730Y006245D02*
D03*
X009900Y006948D02*
D03*
X008730Y005345D02*
D03*
X011490Y007575D02*
D03*
X010510Y005111D02*
D03*
X009250Y005176D02*
D03*
X009370D02*
D03*
X011088Y004575D02*
D03*
X010990Y004635D02*
D03*
X010790Y004724D02*
D03*
X010890D02*
D03*
X011070Y004705D02*
D03*
X012000Y007605D02*
D03*
X011110Y005025D02*
D03*
X009990Y004795D02*
D03*
X010290D02*
D03*
X010199D02*
D03*
X010090D02*
D03*
X010020Y004675D02*
D03*
X011910Y005535D02*
D03*
X012010Y005775D02*
D03*
Y005975D02*
D03*
X011820D02*
D03*
Y005375D02*
D03*
X011150Y003375D02*
D03*
X008340Y006225D02*
D03*
X008880Y005825D02*
D03*
X010720Y005745D02*
D03*
X010580Y006069D02*
D03*
X010659Y006136D02*
D03*
X011960Y005375D02*
D03*
X011480Y005495D02*
D03*
X011480Y005615D02*
D03*
X011380Y006235D02*
D03*
X012017Y006782D02*
D03*
X010390Y006948D02*
D03*
X010456Y006625D02*
D03*
X010980Y006885D02*
D03*
X010860D02*
D03*
X010760Y006665D02*
D03*
X009218Y006503D02*
D03*
X010410Y007325D02*
D03*
X010530Y007325D02*
D03*
X010520Y007445D02*
D03*
X011180Y006988D02*
D03*
X010790Y007375D02*
D03*
X010000Y006948D02*
D03*
X010180Y007335D02*
D03*
X009919Y007737D02*
D03*
X009920Y007655D02*
D03*
X008782Y005567D02*
D03*
X009680Y005185D02*
D03*
X009670Y005285D02*
D03*
X011490Y006975D02*
D03*
X011510Y006775D02*
D03*
X009666Y006708D02*
D03*
X009670Y006435D02*
D03*
X020509Y007183D02*
D03*
Y006929D02*
D03*
Y006675D02*
D03*
X019239Y007437D02*
D03*
Y007183D02*
D03*
Y006929D02*
D03*
Y006675D02*
D03*
X019320Y005915D02*
D03*
X017969Y006929D02*
D03*
Y006675D02*
D03*
Y006421D02*
D03*
Y006167D02*
D03*
Y005913D02*
D03*
Y005659D02*
D03*
X016699Y007183D02*
D03*
Y006929D02*
D03*
Y006675D02*
D03*
Y006421D02*
D03*
Y006167D02*
D03*
Y005913D02*
D03*
Y005659D02*
D03*
X015429Y006929D02*
D03*
Y006675D02*
D03*
Y006421D02*
D03*
Y005913D02*
D03*
Y005659D02*
D03*
X014159Y007183D02*
D03*
Y006167D02*
D03*
Y005913D02*
D03*
Y005659D02*
D03*
X012889Y005913D02*
D03*
Y006167D02*
D03*
Y006675D02*
D03*
Y006929D02*
D03*
Y007437D02*
D03*
X009370Y006948D02*
D03*
X009280Y006885D02*
D03*
X011140Y003175D02*
D03*
X010780D02*
D03*
X012030Y004775D02*
D03*
X011810D02*
D03*
X012030Y004575D02*
D03*
X009980Y006145D02*
D03*
X010020Y004575D02*
D03*
X011390Y006975D02*
D03*
X009350Y006823D02*
D03*
X009700Y005525D02*
D03*
X009620Y005385D02*
D03*
X009440Y006735D02*
D03*
X012020Y005575D02*
D03*
X012360Y006575D02*
D03*
X012350Y007375D02*
D03*
X011480Y004885D02*
D03*
X010870Y005885D02*
D03*
X010730Y005185D02*
D03*
X010250Y006055D02*
D03*
X008240Y007285D02*
D03*
X009000Y007295D02*
D03*
X009380Y007515D02*
D03*
X009280Y007235D02*
D03*
X009000Y007195D02*
D03*
X007460Y007215D02*
D03*
X007570D02*
D03*
X007690D02*
D03*
X007810Y006375D02*
D03*
X008510Y005285D02*
D03*
Y005705D02*
D03*
X008880Y005485D02*
D03*
X009000Y004775D02*
D03*
X009080Y004835D02*
D03*
X009000D02*
D03*
X011070Y007235D02*
D03*
X008910Y005045D02*
D03*
X010980Y005885D02*
D03*
Y006225D02*
D03*
X008770Y005775D02*
D03*
X008860Y006667D02*
D03*
X008690Y007005D02*
D03*
X009320Y006465D02*
D03*
Y006605D02*
D03*
X009000Y007095D02*
D03*
X008400Y005985D02*
D03*
X009190Y004625D02*
D03*
X008840Y004185D02*
D03*
X009660Y003295D02*
D03*
Y003175D02*
D03*
X008880Y005245D02*
D03*
X008410Y005885D02*
D03*
X010840Y005465D02*
D03*
X010310Y005175D02*
D03*
X010370Y004795D02*
D03*
X009340Y005525D02*
D03*
X009250Y005385D02*
D03*
X010430Y005475D02*
D03*
X010020D02*
D03*
X011140Y003575D02*
D03*
X010910Y003925D02*
D03*
X010990D02*
D03*
X007410Y006375D02*
D03*
X008150Y006995D02*
D03*
X009100Y003195D02*
D03*
Y003275D02*
D03*
D85*
X007610Y005605D02*
D03*
D86*
Y006715D02*
D03*
D87*
X008220Y005818D02*
D03*
Y005653D02*
D03*
D88*
Y005735D02*
D03*
M02*
