G04*
G04 #@! TF.GenerationSoftware,Altium Limited,Altium Designer,20.1.11 (218)*
G04*
G04 Layer_Physical_Order=4*
G04 Layer_Color=16737819*
%FSAX42Y42*%
%MOMM*%
G71*
G04*
G04 #@! TF.SameCoordinates,7775C1EB-3A37-4DB6-902C-5BA206B129F1*
G04*
G04*
G04 #@! TF.FilePolarity,Positive*
G04*
G01*
G75*
%ADD11C,0.60*%
%ADD14C,0.20*%
G04:AMPARAMS|DCode=51|XSize=0.8mm|YSize=1.3mm|CornerRadius=0.2mm|HoleSize=0mm|Usage=FLASHONLY|Rotation=180.000|XOffset=0mm|YOffset=0mm|HoleType=Round|Shape=RoundedRectangle|*
%AMROUNDEDRECTD51*
21,1,0.80,0.90,0,0,180.0*
21,1,0.40,1.30,0,0,180.0*
1,1,0.40,-0.20,0.45*
1,1,0.40,0.20,0.45*
1,1,0.40,0.20,-0.45*
1,1,0.40,-0.20,-0.45*
%
%ADD51ROUNDEDRECTD51*%
G04:AMPARAMS|DCode=56|XSize=0.8mm|YSize=1.3mm|CornerRadius=0.2mm|HoleSize=0mm|Usage=FLASHONLY|Rotation=270.000|XOffset=0mm|YOffset=0mm|HoleType=Round|Shape=RoundedRectangle|*
%AMROUNDEDRECTD56*
21,1,0.80,0.90,0,0,270.0*
21,1,0.40,1.30,0,0,270.0*
1,1,0.40,-0.45,-0.20*
1,1,0.40,-0.45,0.20*
1,1,0.40,0.45,0.20*
1,1,0.40,0.45,-0.20*
%
%ADD56ROUNDEDRECTD56*%
G04:AMPARAMS|DCode=57|XSize=0.8mm|YSize=1mm|CornerRadius=0.2mm|HoleSize=0mm|Usage=FLASHONLY|Rotation=0.000|XOffset=0mm|YOffset=0mm|HoleType=Round|Shape=RoundedRectangle|*
%AMROUNDEDRECTD57*
21,1,0.80,0.60,0,0,0.0*
21,1,0.40,1.00,0,0,0.0*
1,1,0.40,0.20,-0.30*
1,1,0.40,-0.20,-0.30*
1,1,0.40,-0.20,0.30*
1,1,0.40,0.20,0.30*
%
%ADD57ROUNDEDRECTD57*%
G04:AMPARAMS|DCode=58|XSize=0.8mm|YSize=1mm|CornerRadius=0.2mm|HoleSize=0mm|Usage=FLASHONLY|Rotation=270.000|XOffset=0mm|YOffset=0mm|HoleType=Round|Shape=RoundedRectangle|*
%AMROUNDEDRECTD58*
21,1,0.80,0.60,0,0,270.0*
21,1,0.40,1.00,0,0,270.0*
1,1,0.40,-0.30,-0.20*
1,1,0.40,-0.30,0.20*
1,1,0.40,0.30,0.20*
1,1,0.40,0.30,-0.20*
%
%ADD58ROUNDEDRECTD58*%
G04:AMPARAMS|DCode=68|XSize=2.54mm|YSize=0.91mm|CornerRadius=0mm|HoleSize=0mm|Usage=FLASHONLY|Rotation=90.000|XOffset=0mm|YOffset=0mm|HoleType=Round|Shape=Octagon|*
%AMOCTAGOND68*
4,1,8,0.23,1.27,-0.23,1.27,-0.46,1.04,-0.46,-1.04,-0.23,-1.27,0.23,-1.27,0.46,-1.04,0.46,1.04,0.23,1.27,0.0*
%
%ADD68OCTAGOND68*%

%ADD72C,0.50*%
%ADD73C,0.40*%
%ADD74C,1.00*%
%ADD75C,0.30*%
%ADD76C,0.80*%
%ADD78C,0.38*%
G04:AMPARAMS|DCode=79|XSize=1.78mm|YSize=1.78mm|CornerRadius=0.44mm|HoleSize=0mm|Usage=FLASHONLY|Rotation=180.000|XOffset=0mm|YOffset=0mm|HoleType=Round|Shape=RoundedRectangle|*
%AMROUNDEDRECTD79*
21,1,1.78,0.89,0,0,180.0*
21,1,0.89,1.78,0,0,180.0*
1,1,0.89,-0.44,0.44*
1,1,0.89,0.44,0.44*
1,1,0.89,0.44,-0.44*
1,1,0.89,-0.44,-0.44*
%
%ADD79ROUNDEDRECTD79*%
G04:AMPARAMS|DCode=80|XSize=1.78mm|YSize=1.78mm|CornerRadius=0.44mm|HoleSize=0mm|Usage=FLASHONLY|Rotation=270.000|XOffset=0mm|YOffset=0mm|HoleType=Round|Shape=RoundedRectangle|*
%AMROUNDEDRECTD80*
21,1,1.78,0.89,0,0,270.0*
21,1,0.89,1.78,0,0,270.0*
1,1,0.89,-0.44,-0.44*
1,1,0.89,-0.44,0.44*
1,1,0.89,0.44,0.44*
1,1,0.89,0.44,-0.44*
%
%ADD80ROUNDEDRECTD80*%
%ADD81C,2.00*%
%ADD82C,1.37*%
%ADD83R,1.37X1.37*%
%ADD84C,0.60*%
%ADD85C,1.50*%
%ADD86C,1.20*%
%ADD87C,0.50*%
%ADD88C,1.10*%
%ADD100R,0.80X1.30*%
%ADD101R,1.20X2.00*%
%ADD102R,1.60X1.40*%
%ADD103R,1.20X1.40*%
%ADD104R,0.70X1.60*%
%ADD105R,0.60X0.90*%
G04:AMPARAMS|DCode=106|XSize=0.9mm|YSize=0.6mm|CornerRadius=0.15mm|HoleSize=0mm|Usage=FLASHONLY|Rotation=90.000|XOffset=0mm|YOffset=0mm|HoleType=Round|Shape=RoundedRectangle|*
%AMROUNDEDRECTD106*
21,1,0.90,0.30,0,0,90.0*
21,1,0.60,0.60,0,0,90.0*
1,1,0.30,0.15,0.30*
1,1,0.30,0.15,-0.30*
1,1,0.30,-0.15,-0.30*
1,1,0.30,-0.15,0.30*
%
%ADD106ROUNDEDRECTD106*%
%ADD107R,2.00X2.80*%
%ADD108R,0.95X0.60*%
%ADD109R,2.00X2.00*%
G04:AMPARAMS|DCode=110|XSize=2mm|YSize=2mm|CornerRadius=0.5mm|HoleSize=0mm|Usage=FLASHONLY|Rotation=270.000|XOffset=0mm|YOffset=0mm|HoleType=Round|Shape=RoundedRectangle|*
%AMROUNDEDRECTD110*
21,1,2.00,1.00,0,0,270.0*
21,1,1.00,2.00,0,0,270.0*
1,1,1.00,-0.50,-0.50*
1,1,1.00,-0.50,0.50*
1,1,1.00,0.50,0.50*
1,1,1.00,0.50,-0.50*
%
%ADD110ROUNDEDRECTD110*%
G36*
X019322Y003283D02*
X019347D01*
Y003263D01*
X019326D01*
X019331Y003238D01*
X019347D01*
Y003219D01*
X019335D01*
X019342Y003185D01*
X019322D01*
X019316Y003219D01*
X019296D01*
X019303Y003185D01*
X019283D01*
X019277Y003219D01*
X019251D01*
Y003238D01*
X019273D01*
X019267Y003263D01*
X019251D01*
Y003283D01*
X019263D01*
X019257Y003317D01*
X019277D01*
X019283Y003283D01*
X019302D01*
X019296Y003317D01*
X019315D01*
X019322Y003283D01*
D02*
G37*
G36*
X019975Y003281D02*
X019978Y003281D01*
X019980Y003280D01*
X019983Y003279D01*
X019986Y003278D01*
X019988Y003277D01*
X019990Y003276D01*
X019992Y003274D01*
X019994Y003273D01*
X019996Y003271D01*
X019997Y003270D01*
X019998Y003269D01*
X019999Y003268D01*
X020000Y003267D01*
X020000Y003267D01*
X020000Y003267D01*
Y003279D01*
X020023D01*
Y003187D01*
X019998D01*
Y003232D01*
Y003234D01*
X019998Y003236D01*
X019998Y003238D01*
X019998Y003240D01*
X019998Y003242D01*
X019998Y003244D01*
X019998Y003245D01*
X019997Y003246D01*
X019997Y003247D01*
X019997Y003248D01*
X019997Y003249D01*
X019997Y003250D01*
X019997Y003250D01*
X019997Y003251D01*
X019996Y003251D01*
Y003251D01*
X019996Y003253D01*
X019995Y003255D01*
X019994Y003256D01*
X019992Y003257D01*
X019992Y003258D01*
X019991Y003259D01*
X019990Y003259D01*
X019990Y003260D01*
X019990D01*
X019988Y003261D01*
X019986Y003261D01*
X019985Y003262D01*
X019983Y003262D01*
X019982Y003263D01*
X019981Y003263D01*
X019981Y003263D01*
X019980D01*
X019978Y003263D01*
X019977Y003262D01*
X019975Y003262D01*
X019974Y003262D01*
X019973Y003261D01*
X019973Y003261D01*
X019972Y003261D01*
X019972Y003261D01*
X019971Y003260D01*
X019970Y003259D01*
X019970Y003258D01*
X019969Y003257D01*
X019969Y003256D01*
X019969Y003256D01*
X019968Y003255D01*
X019968Y003255D01*
Y003255D01*
X019968Y003254D01*
X019968Y003253D01*
X019968Y003252D01*
X019967Y003251D01*
X019967Y003248D01*
X019967Y003245D01*
X019967Y003243D01*
Y003242D01*
X019967Y003241D01*
Y003240D01*
Y003239D01*
Y003238D01*
Y003238D01*
Y003238D01*
Y003187D01*
X019942D01*
Y003231D01*
Y003234D01*
X019942Y003236D01*
X019942Y003238D01*
X019942Y003240D01*
X019942Y003241D01*
X019942Y003243D01*
X019942Y003244D01*
X019941Y003246D01*
X019941Y003247D01*
X019941Y003248D01*
X019941Y003249D01*
X019941Y003249D01*
X019941Y003250D01*
X019941Y003250D01*
X019940Y003250D01*
Y003250D01*
X019940Y003252D01*
X019939Y003254D01*
X019937Y003256D01*
X019936Y003257D01*
X019935Y003258D01*
X019935Y003259D01*
X019934Y003259D01*
X019934Y003260D01*
X019934D01*
X019932Y003261D01*
X019930Y003261D01*
X019929Y003262D01*
X019927Y003262D01*
X019926Y003263D01*
X019925Y003263D01*
X019924D01*
X019923Y003263D01*
X019922Y003263D01*
X019921Y003262D01*
X019920Y003262D01*
X019918Y003261D01*
X019916Y003260D01*
X019915Y003259D01*
X019914Y003258D01*
X019914Y003258D01*
X019914Y003258D01*
X019914Y003258D01*
Y003257D01*
X019913Y003257D01*
X019913Y003256D01*
X019913Y003254D01*
X019912Y003253D01*
X019912Y003250D01*
X019911Y003247D01*
X019911Y003246D01*
X019911Y003244D01*
Y003243D01*
X019911Y003242D01*
Y003241D01*
Y003240D01*
Y003240D01*
Y003240D01*
Y003187D01*
X019887D01*
Y003246D01*
Y003248D01*
X019887Y003251D01*
X019887Y003253D01*
X019887Y003255D01*
X019887Y003256D01*
X019887Y003258D01*
X019888Y003259D01*
X019888Y003261D01*
X019888Y003262D01*
X019888Y003263D01*
X019889Y003263D01*
X019889Y003264D01*
X019889Y003265D01*
X019889Y003265D01*
X019889Y003265D01*
Y003265D01*
X019891Y003268D01*
X019892Y003269D01*
X019892Y003270D01*
X019893Y003272D01*
X019894Y003273D01*
X019895Y003273D01*
X019896Y003274D01*
X019897Y003275D01*
X019897Y003276D01*
X019898Y003276D01*
X019899Y003277D01*
X019899Y003277D01*
X019899Y003277D01*
X019900Y003277D01*
X019900D01*
X019901Y003278D01*
X019903Y003279D01*
X019905Y003280D01*
X019908Y003281D01*
X019911Y003281D01*
X019912Y003281D01*
X019913Y003281D01*
X019914Y003281D01*
X019915D01*
X019916Y003282D01*
X019917D01*
X019920Y003281D01*
X019923Y003281D01*
X019925Y003280D01*
X019927Y003280D01*
X019928Y003280D01*
X019929Y003279D01*
X019930Y003279D01*
X019930Y003279D01*
X019931Y003278D01*
X019931Y003278D01*
X019932Y003278D01*
X019932Y003278D01*
X019932D01*
X019935Y003276D01*
X019937Y003274D01*
X019939Y003273D01*
X019941Y003271D01*
X019942Y003270D01*
X019943Y003269D01*
X019944Y003269D01*
X019944Y003268D01*
X019945Y003267D01*
X019945Y003267D01*
X019945Y003267D01*
X019945Y003267D01*
X019947Y003269D01*
X019949Y003272D01*
X019951Y003273D01*
X019952Y003275D01*
X019954Y003276D01*
X019954Y003277D01*
X019955Y003277D01*
X019955Y003277D01*
X019956Y003278D01*
X019956Y003278D01*
X019956D01*
X019959Y003279D01*
X019961Y003280D01*
X019964Y003281D01*
X019966Y003281D01*
X019967Y003281D01*
X019968Y003281D01*
X019969Y003281D01*
X019970D01*
X019971Y003282D01*
X019971D01*
X019975Y003281D01*
D02*
G37*
G36*
X019200Y003313D02*
X019201Y003311D01*
X019202Y003309D01*
X019203Y003307D01*
X019204Y003305D01*
X019206Y003304D01*
X019207Y003302D01*
X019208Y003300D01*
X019209Y003299D01*
X019211Y003298D01*
X019212Y003297D01*
X019213Y003296D01*
X019213Y003296D01*
X019214Y003295D01*
X019214Y003295D01*
X019214Y003295D01*
X019216Y003293D01*
X019219Y003292D01*
X019220Y003290D01*
X019222Y003289D01*
X019224Y003288D01*
X019226Y003287D01*
X019227Y003286D01*
X019229Y003285D01*
X019230Y003285D01*
X019232Y003284D01*
X019233Y003284D01*
X019234Y003283D01*
X019234Y003283D01*
X019235Y003283D01*
X019235Y003283D01*
X019235D01*
Y003261D01*
X019232Y003262D01*
X019229Y003263D01*
X019225Y003265D01*
X019223Y003266D01*
X019220Y003267D01*
X019217Y003269D01*
X019215Y003271D01*
X019213Y003272D01*
X019210Y003273D01*
X019209Y003275D01*
X019207Y003276D01*
X019206Y003277D01*
X019205Y003278D01*
X019204Y003279D01*
X019204Y003279D01*
X019203Y003279D01*
Y003187D01*
X019179D01*
Y003315D01*
X019199D01*
X019200Y003313D01*
D02*
G37*
G36*
X020497Y003187D02*
X020471D01*
Y003225D01*
X020451Y003247D01*
X020415Y003187D01*
X020382D01*
X020433Y003265D01*
X020384Y003315D01*
X020419D01*
X020471Y003258D01*
Y003315D01*
X020497D01*
Y003187D01*
D02*
G37*
G36*
X019644Y003221D02*
Y003218D01*
X019644Y003216D01*
X019644Y003214D01*
X019644Y003212D01*
X019644Y003210D01*
X019643Y003208D01*
X019643Y003207D01*
X019643Y003206D01*
X019642Y003204D01*
X019642Y003203D01*
X019642Y003202D01*
X019642Y003202D01*
X019641Y003201D01*
X019641Y003201D01*
X019641Y003200D01*
Y003200D01*
X019640Y003199D01*
X019640Y003198D01*
X019638Y003195D01*
X019636Y003193D01*
X019634Y003192D01*
X019633Y003190D01*
X019632Y003190D01*
X019632Y003189D01*
X019631Y003189D01*
X019631Y003189D01*
X019630Y003189D01*
X019630Y003189D01*
X019629Y003188D01*
X019627Y003187D01*
X019625Y003186D01*
X019622Y003186D01*
X019619Y003185D01*
X019618Y003185D01*
X019617Y003185D01*
X019616Y003185D01*
X019615D01*
X019614Y003185D01*
X019614D01*
X019612Y003185D01*
X019610Y003185D01*
X019607Y003185D01*
X019604Y003186D01*
X019603Y003186D01*
X019601Y003187D01*
X019600Y003187D01*
X019599Y003187D01*
X019598Y003188D01*
X019598Y003188D01*
X019597Y003189D01*
X019596Y003189D01*
X019596Y003189D01*
X019596D01*
X019593Y003191D01*
X019590Y003192D01*
X019588Y003194D01*
X019587Y003195D01*
X019586Y003196D01*
X019585Y003197D01*
X019585Y003198D01*
X019584Y003199D01*
X019584Y003199D01*
X019583Y003200D01*
X019583Y003200D01*
X019583Y003201D01*
X019583Y003201D01*
Y003187D01*
X019560D01*
Y003279D01*
X019584D01*
Y003240D01*
Y003237D01*
X019585Y003234D01*
X019585Y003231D01*
X019585Y003228D01*
X019585Y003226D01*
X019585Y003224D01*
X019585Y003222D01*
X019585Y003220D01*
X019586Y003219D01*
X019586Y003218D01*
X019586Y003217D01*
X019586Y003216D01*
X019586Y003216D01*
X019586Y003216D01*
X019586Y003215D01*
Y003215D01*
X019587Y003213D01*
X019588Y003212D01*
X019589Y003210D01*
X019590Y003209D01*
X019591Y003208D01*
X019592Y003207D01*
X019593Y003207D01*
X019593Y003207D01*
X019593Y003207D01*
X019593D01*
X019595Y003206D01*
X019597Y003205D01*
X019599Y003204D01*
X019601Y003204D01*
X019602Y003204D01*
X019603Y003203D01*
X019603D01*
X019604Y003203D01*
X019604D01*
X019606Y003203D01*
X019608Y003204D01*
X019610Y003204D01*
X019611Y003205D01*
X019612Y003205D01*
X019613Y003206D01*
X019613Y003206D01*
X019614Y003206D01*
X019615Y003207D01*
X019616Y003208D01*
X019617Y003209D01*
X019617Y003210D01*
X019618Y003211D01*
X019618Y003212D01*
X019618Y003213D01*
X019618Y003213D01*
Y003213D01*
X019619Y003214D01*
X019619Y003215D01*
X019619Y003217D01*
X019619Y003219D01*
X019619Y003220D01*
X019620Y003222D01*
X019620Y003227D01*
X019620Y003229D01*
Y003230D01*
X019620Y003232D01*
Y003234D01*
Y003235D01*
Y003236D01*
Y003236D01*
Y003237D01*
Y003237D01*
Y003237D01*
Y003279D01*
X019644D01*
Y003221D01*
D02*
G37*
G36*
X019453Y003281D02*
X019456Y003281D01*
X019459Y003280D01*
X019462Y003279D01*
X019465Y003278D01*
X019467Y003277D01*
X019470Y003276D01*
X019472Y003275D01*
X019474Y003274D01*
X019475Y003273D01*
X019477Y003271D01*
X019478Y003270D01*
X019479Y003270D01*
X019480Y003269D01*
X019480Y003269D01*
X019480Y003268D01*
X019482Y003266D01*
X019484Y003263D01*
X019486Y003260D01*
X019487Y003257D01*
X019488Y003254D01*
X019489Y003251D01*
X019490Y003248D01*
X019491Y003245D01*
X019491Y003243D01*
X019491Y003240D01*
X019492Y003238D01*
X019492Y003236D01*
X019492Y003235D01*
Y003235D01*
Y003234D01*
X019492Y003233D01*
Y003233D01*
Y003233D01*
Y003232D01*
Y003232D01*
X019492Y003229D01*
X019492Y003225D01*
X019491Y003222D01*
X019491Y003219D01*
X019490Y003216D01*
X019489Y003214D01*
X019488Y003211D01*
X019487Y003209D01*
X019487Y003207D01*
X019486Y003205D01*
X019485Y003204D01*
X019484Y003203D01*
X019484Y003202D01*
X019483Y003201D01*
X019483Y003201D01*
X019483Y003200D01*
X019481Y003198D01*
X019478Y003195D01*
X019475Y003193D01*
X019473Y003191D01*
X019470Y003190D01*
X019467Y003189D01*
X019464Y003187D01*
X019461Y003187D01*
X019458Y003186D01*
X019455Y003185D01*
X019453Y003185D01*
X019451Y003185D01*
X019450Y003185D01*
X019449Y003185D01*
X019449D01*
X019448Y003185D01*
X019447D01*
X019444Y003185D01*
X019442Y003185D01*
X019439Y003185D01*
X019437Y003186D01*
X019435Y003186D01*
X019432Y003187D01*
X019431Y003187D01*
X019429Y003188D01*
X019427Y003189D01*
X019426Y003189D01*
X019425Y003190D01*
X019424Y003190D01*
X019423Y003191D01*
X019422Y003191D01*
X019422Y003191D01*
X019422Y003192D01*
X019420Y003193D01*
X019418Y003194D01*
X019417Y003196D01*
X019415Y003198D01*
X019414Y003199D01*
X019413Y003201D01*
X019411Y003203D01*
X019410Y003205D01*
X019410Y003206D01*
X019409Y003207D01*
X019408Y003209D01*
X019408Y003210D01*
X019407Y003211D01*
X019407Y003212D01*
X019407Y003212D01*
X019407Y003212D01*
X019431Y003216D01*
X019432Y003214D01*
X019433Y003212D01*
X019434Y003210D01*
X019435Y003208D01*
X019436Y003207D01*
X019437Y003207D01*
X019437Y003206D01*
X019437Y003206D01*
X019437D01*
X019439Y003205D01*
X019440Y003204D01*
X019442Y003204D01*
X019443Y003203D01*
X019445Y003203D01*
X019446Y003203D01*
X019446Y003203D01*
X019447D01*
X019448Y003203D01*
X019450Y003203D01*
X019451Y003203D01*
X019453Y003204D01*
X019455Y003205D01*
X019456Y003205D01*
X019457Y003206D01*
X019458Y003207D01*
X019459Y003207D01*
X019460Y003208D01*
X019460Y003208D01*
X019461Y003208D01*
X019461Y003209D01*
X019461Y003209D01*
X019461Y003209D01*
X019462Y003210D01*
X019463Y003211D01*
X019464Y003213D01*
X019464Y003214D01*
X019465Y003216D01*
X019465Y003217D01*
X019466Y003220D01*
X019466Y003221D01*
X019467Y003222D01*
X019467Y003223D01*
X019467Y003224D01*
Y003225D01*
X019467Y003225D01*
Y003226D01*
Y003226D01*
X019405D01*
X019406Y003231D01*
X019406Y003236D01*
X019406Y003240D01*
X019407Y003244D01*
X019408Y003248D01*
X019409Y003252D01*
X019410Y003255D01*
X019411Y003257D01*
X019412Y003260D01*
X019413Y003262D01*
X019414Y003264D01*
X019415Y003265D01*
X019416Y003266D01*
X019416Y003267D01*
X019417Y003268D01*
X019417Y003268D01*
X019419Y003270D01*
X019422Y003272D01*
X019424Y003274D01*
X019427Y003276D01*
X019430Y003277D01*
X019433Y003278D01*
X019435Y003279D01*
X019438Y003280D01*
X019440Y003280D01*
X019442Y003281D01*
X019444Y003281D01*
X019446Y003281D01*
X019448Y003281D01*
X019448D01*
X019449Y003282D01*
X019450D01*
X019453Y003281D01*
D02*
G37*
G36*
X020789Y003187D02*
X020761D01*
X020751Y003216D01*
X020700D01*
X020688Y003187D01*
X020660D01*
X020712Y003315D01*
X020739D01*
X020789Y003187D01*
D02*
G37*
G36*
X020647D02*
X020622D01*
Y003315D01*
X020647D01*
Y003187D01*
D02*
G37*
G36*
X020368D02*
X020343D01*
Y003235D01*
X020323D01*
X020320Y003235D01*
X020317Y003235D01*
X020314Y003235D01*
X020312Y003235D01*
X020310Y003236D01*
X020308Y003236D01*
X020306Y003236D01*
X020304Y003236D01*
X020303Y003236D01*
X020302Y003236D01*
X020301Y003236D01*
X020300Y003237D01*
X020300Y003237D01*
X020299Y003237D01*
X020299D01*
X020297Y003237D01*
X020294Y003238D01*
X020292Y003239D01*
X020290Y003240D01*
X020289Y003241D01*
X020288Y003241D01*
X020288Y003242D01*
X020287Y003242D01*
X020286Y003242D01*
X020286Y003243D01*
X020286Y003243D01*
X020286Y003243D01*
X020283Y003245D01*
X020281Y003247D01*
X020279Y003249D01*
X020278Y003251D01*
X020277Y003253D01*
X020276Y003254D01*
X020276Y003254D01*
X020275Y003255D01*
X020275Y003255D01*
X020275Y003255D01*
X020275Y003255D01*
X020274Y003257D01*
X020273Y003259D01*
X020272Y003262D01*
X020272Y003265D01*
X020271Y003267D01*
X020271Y003268D01*
X020271Y003270D01*
X020271Y003271D01*
X020271Y003272D01*
Y003273D01*
X020271Y003274D01*
Y003275D01*
Y003275D01*
Y003275D01*
X020271Y003278D01*
X020271Y003281D01*
X020271Y003283D01*
X020272Y003286D01*
X020272Y003288D01*
X020273Y003290D01*
X020274Y003292D01*
X020274Y003293D01*
X020275Y003295D01*
X020276Y003296D01*
X020276Y003298D01*
X020277Y003298D01*
X020277Y003299D01*
X020278Y003300D01*
X020278Y003300D01*
X020278Y003300D01*
X020279Y003302D01*
X020281Y003304D01*
X020283Y003305D01*
X020284Y003306D01*
X020286Y003307D01*
X020287Y003308D01*
X020289Y003309D01*
X020290Y003310D01*
X020291Y003311D01*
X020293Y003311D01*
X020294Y003312D01*
X020295Y003312D01*
X020295Y003312D01*
X020296Y003313D01*
X020296Y003313D01*
X020296D01*
X020297Y003313D01*
X020298Y003313D01*
X020300Y003313D01*
X020302Y003314D01*
X020304Y003314D01*
X020307Y003314D01*
X020309Y003314D01*
X020315Y003314D01*
X020317Y003315D01*
X020319Y003315D01*
X020321D01*
X020323Y003315D01*
X020368D01*
Y003187D01*
D02*
G37*
G36*
X020262D02*
X020235D01*
X020224Y003216D01*
X020173Y003216D01*
X020162Y003187D01*
X020134D01*
X020185Y003315D01*
X020213Y003315D01*
X020262Y003187D01*
D02*
G37*
G36*
X019535Y003187D02*
X019510D01*
Y003315D01*
X019535D01*
Y003187D01*
D02*
G37*
G36*
X019823Y003281D02*
X019825Y003281D01*
X019827Y003281D01*
X019830Y003281D01*
X019832Y003280D01*
X019834Y003280D01*
X019836Y003279D01*
X019838Y003278D01*
X019839Y003278D01*
X019841Y003277D01*
X019842Y003277D01*
X019843Y003276D01*
X019844Y003276D01*
X019844Y003276D01*
X019845Y003276D01*
X019845Y003275D01*
X019847Y003274D01*
X019849Y003273D01*
X019850Y003272D01*
X019852Y003270D01*
X019854Y003269D01*
X019855Y003267D01*
X019856Y003266D01*
X019857Y003264D01*
X019859Y003263D01*
X019859Y003262D01*
X019860Y003261D01*
X019861Y003260D01*
X019861Y003259D01*
X019862Y003258D01*
X019862Y003258D01*
X019862Y003258D01*
X019863Y003256D01*
X019864Y003254D01*
X019865Y003252D01*
X019865Y003249D01*
X019866Y003247D01*
X019866Y003245D01*
X019867Y003244D01*
X019867Y003242D01*
X019867Y003240D01*
X019868Y003239D01*
X019868Y003238D01*
X019868Y003236D01*
X019868Y003236D01*
Y003235D01*
Y003235D01*
Y003234D01*
X019868Y003231D01*
X019868Y003229D01*
X019867Y003226D01*
X019867Y003223D01*
X019866Y003221D01*
X019866Y003219D01*
X019865Y003217D01*
X019865Y003215D01*
X019864Y003213D01*
X019864Y003212D01*
X019863Y003210D01*
X019863Y003209D01*
X019862Y003208D01*
X019862Y003208D01*
X019862Y003207D01*
X019862Y003207D01*
X019861Y003205D01*
X019859Y003203D01*
X019858Y003202D01*
X019857Y003200D01*
X019855Y003198D01*
X019854Y003197D01*
X019852Y003196D01*
X019851Y003195D01*
X019849Y003194D01*
X019848Y003193D01*
X019847Y003192D01*
X019846Y003191D01*
X019845Y003191D01*
X019845Y003191D01*
X019844Y003190D01*
X019844Y003190D01*
X019842Y003189D01*
X019840Y003189D01*
X019838Y003188D01*
X019836Y003187D01*
X019834Y003186D01*
X019832Y003186D01*
X019830Y003186D01*
X019828Y003185D01*
X019826Y003185D01*
X019825Y003185D01*
X019823Y003185D01*
X019822Y003185D01*
X019821Y003185D01*
X019820D01*
X019816Y003185D01*
X019813Y003185D01*
X019809Y003186D01*
X019806Y003187D01*
X019803Y003188D01*
X019800Y003189D01*
X019797Y003190D01*
X019795Y003192D01*
X019793Y003193D01*
X019791Y003194D01*
X019790Y003195D01*
X019788Y003196D01*
X019787Y003197D01*
X019786Y003198D01*
X019786Y003198D01*
X019786Y003198D01*
X019783Y003201D01*
X019781Y003204D01*
X019779Y003207D01*
X019778Y003210D01*
X019777Y003213D01*
X019775Y003216D01*
X019775Y003218D01*
X019774Y003221D01*
X019773Y003224D01*
X019773Y003226D01*
X019773Y003228D01*
X019772Y003230D01*
X019772Y003231D01*
Y003232D01*
X019772Y003232D01*
Y003233D01*
Y003233D01*
Y003233D01*
Y003233D01*
X019772Y003237D01*
X019773Y003241D01*
X019773Y003244D01*
X019774Y003247D01*
X019775Y003251D01*
X019776Y003253D01*
X019778Y003256D01*
X019779Y003258D01*
X019780Y003261D01*
X019781Y003262D01*
X019783Y003264D01*
X019784Y003265D01*
X019784Y003266D01*
X019785Y003267D01*
X019785Y003268D01*
X019786Y003268D01*
X019788Y003270D01*
X019791Y003272D01*
X019794Y003274D01*
X019797Y003276D01*
X019800Y003277D01*
X019802Y003278D01*
X019805Y003279D01*
X019808Y003280D01*
X019810Y003280D01*
X019813Y003281D01*
X019815Y003281D01*
X019817Y003281D01*
X019818Y003281D01*
X019819D01*
X019819Y003282D01*
X019820D01*
X019823Y003281D01*
D02*
G37*
G36*
X019692Y003269D02*
X019695Y003271D01*
X019697Y003273D01*
X019699Y003275D01*
X019701Y003276D01*
X019704Y003277D01*
X019706Y003278D01*
X019708Y003279D01*
X019710Y003280D01*
X019712Y003280D01*
X019714Y003281D01*
X019715Y003281D01*
X019717Y003281D01*
X019718Y003281D01*
X019719Y003282D01*
X019719D01*
X019723Y003281D01*
X019725Y003281D01*
X019728Y003280D01*
X019731Y003280D01*
X019733Y003279D01*
X019736Y003278D01*
X019738Y003277D01*
X019740Y003275D01*
X019742Y003274D01*
X019743Y003273D01*
X019744Y003272D01*
X019745Y003271D01*
X019746Y003270D01*
X019747Y003270D01*
X019747Y003269D01*
X019747Y003269D01*
X019749Y003267D01*
X019751Y003264D01*
X019753Y003261D01*
X019754Y003258D01*
X019755Y003255D01*
X019756Y003252D01*
X019757Y003250D01*
X019757Y003247D01*
X019758Y003244D01*
X019758Y003241D01*
X019758Y003239D01*
X019758Y003237D01*
X019758Y003236D01*
Y003236D01*
X019758Y003235D01*
Y003234D01*
Y003234D01*
Y003234D01*
Y003233D01*
Y003233D01*
X019758Y003229D01*
X019758Y003225D01*
X019757Y003222D01*
X019757Y003218D01*
X019756Y003215D01*
X019755Y003212D01*
X019754Y003209D01*
X019753Y003207D01*
X019752Y003205D01*
X019751Y003203D01*
X019750Y003201D01*
X019749Y003200D01*
X019748Y003199D01*
X019748Y003198D01*
X019747Y003198D01*
X019747Y003197D01*
X019745Y003195D01*
X019743Y003193D01*
X019740Y003192D01*
X019738Y003190D01*
X019736Y003189D01*
X019733Y003188D01*
X019731Y003187D01*
X019729Y003186D01*
X019727Y003186D01*
X019725Y003185D01*
X019724Y003185D01*
X019722Y003185D01*
X019721Y003185D01*
X019720Y003185D01*
X019720D01*
X019717Y003185D01*
X019714Y003185D01*
X019711Y003186D01*
X019709Y003187D01*
X019708Y003187D01*
X019707Y003187D01*
X019706Y003188D01*
X019705Y003188D01*
X019705Y003188D01*
X019705Y003188D01*
X019704Y003189D01*
X019704D01*
X019703Y003189D01*
X019701Y003190D01*
X019699Y003192D01*
X019697Y003194D01*
X019694Y003196D01*
X019694Y003197D01*
X019693Y003198D01*
X019692Y003198D01*
X019692Y003199D01*
X019691Y003200D01*
X019691Y003200D01*
X019691Y003200D01*
X019691Y003200D01*
Y003187D01*
X019668D01*
Y003315D01*
X019692D01*
Y003269D01*
D02*
G37*
G36*
X020861Y003317D02*
X020864Y003317D01*
X020866Y003316D01*
X020869Y003316D01*
X020871Y003316D01*
X020874Y003315D01*
X020876Y003315D01*
X020878Y003314D01*
X020880Y003314D01*
X020881Y003313D01*
X020882Y003313D01*
X020884Y003313D01*
X020884Y003312D01*
X020885Y003312D01*
X020886Y003312D01*
X020886Y003312D01*
X020887Y003311D01*
X020889Y003310D01*
X020892Y003308D01*
X020895Y003306D01*
X020896Y003305D01*
X020897Y003305D01*
X020898Y003304D01*
X020899Y003303D01*
X020900Y003302D01*
X020901Y003301D01*
X020902Y003301D01*
X020902Y003301D01*
X020902Y003300D01*
X020902Y003300D01*
X020905Y003297D01*
X020907Y003294D01*
X020909Y003291D01*
X020911Y003289D01*
X020912Y003287D01*
X020912Y003286D01*
X020913Y003285D01*
X020913Y003284D01*
X020914Y003284D01*
X020914Y003283D01*
X020914Y003283D01*
X020914Y003283D01*
X020915Y003280D01*
X020916Y003277D01*
X020917Y003275D01*
X020918Y003272D01*
X020918Y003269D01*
X020919Y003266D01*
X020919Y003264D01*
X020919Y003261D01*
X020920Y003259D01*
X020920Y003257D01*
X020920Y003255D01*
X020920Y003253D01*
X020920Y003252D01*
Y003251D01*
Y003251D01*
Y003250D01*
Y003250D01*
Y003250D01*
Y003250D01*
X020920Y003247D01*
X020920Y003244D01*
X020919Y003239D01*
X020918Y003234D01*
X020917Y003229D01*
X020916Y003225D01*
X020915Y003221D01*
X020913Y003218D01*
X020912Y003214D01*
X020910Y003212D01*
X020909Y003210D01*
X020909Y003209D01*
X020908Y003208D01*
X020907Y003207D01*
X020906Y003206D01*
X020906Y003205D01*
X020905Y003204D01*
X020905Y003204D01*
X020904Y003203D01*
X020904Y003203D01*
X020904Y003202D01*
X020903Y003202D01*
X020903Y003202D01*
Y003202D01*
X020902Y003200D01*
X020900Y003199D01*
X020898Y003197D01*
X020896Y003196D01*
X020893Y003194D01*
X020889Y003192D01*
X020885Y003190D01*
X020881Y003189D01*
X020878Y003188D01*
X020874Y003187D01*
X020871Y003186D01*
X020868Y003185D01*
X020866Y003185D01*
X020865Y003185D01*
X020864Y003185D01*
X020862Y003185D01*
X020861Y003185D01*
X020861Y003185D01*
X020860D01*
X020859Y003185D01*
X020858D01*
X020855Y003185D01*
X020853Y003185D01*
X020848Y003185D01*
X020843Y003186D01*
X020839Y003187D01*
X020835Y003189D01*
X020831Y003190D01*
X020828Y003192D01*
X020825Y003193D01*
X020822Y003195D01*
X020820Y003196D01*
X020817Y003198D01*
X020816Y003199D01*
X020815Y003200D01*
X020815Y003200D01*
X020814Y003201D01*
X020813Y003201D01*
X020813Y003202D01*
X020813Y003202D01*
X020813Y003202D01*
X020813Y003202D01*
X020811Y003204D01*
X020810Y003205D01*
X020808Y003207D01*
X020807Y003209D01*
X020805Y003213D01*
X020803Y003217D01*
X020801Y003221D01*
X020800Y003225D01*
X020799Y003229D01*
X020798Y003233D01*
X020797Y003236D01*
X020797Y003240D01*
X020796Y003241D01*
X020796Y003243D01*
X020796Y003244D01*
X020796Y003245D01*
X020796Y003246D01*
X020796Y003247D01*
Y003248D01*
X020796Y003249D01*
Y003250D01*
Y003250D01*
Y003250D01*
Y003250D01*
Y003253D01*
X020796Y003256D01*
X020797Y003262D01*
X020797Y003267D01*
X020799Y003271D01*
X020800Y003276D01*
X020801Y003280D01*
X020803Y003283D01*
X020804Y003287D01*
X020805Y003288D01*
X020806Y003289D01*
X020807Y003291D01*
X020807Y003292D01*
X020808Y003293D01*
X020809Y003294D01*
X020810Y003295D01*
X020810Y003296D01*
X020811Y003297D01*
X020811Y003297D01*
X020812Y003298D01*
X020812Y003298D01*
X020812Y003299D01*
X020813Y003299D01*
X020813Y003299D01*
X020813Y003299D01*
X020815Y003301D01*
X020816Y003302D01*
X020818Y003304D01*
X020820Y003305D01*
X020823Y003307D01*
X020827Y003309D01*
X020831Y003311D01*
X020835Y003313D01*
X020838Y003314D01*
X020842Y003315D01*
X020845Y003315D01*
X020848Y003316D01*
X020850Y003316D01*
X020851Y003316D01*
X020852Y003316D01*
X020853Y003317D01*
X020855Y003317D01*
X020855Y003317D01*
X020856D01*
X020857Y003317D01*
X020858D01*
X020861Y003317D01*
D02*
G37*
G36*
X020612Y003151D02*
X020510D01*
Y003167D01*
X020612D01*
Y003151D01*
D02*
G37*
G36*
X020135Y003151D02*
X020033D01*
Y003167D01*
X020135D01*
Y003151D01*
D02*
G37*
G36*
X020878Y003126D02*
X020881Y003125D01*
X020884Y003125D01*
X020887Y003124D01*
X020889Y003124D01*
X020891Y003123D01*
X020894Y003122D01*
X020896Y003121D01*
X020897Y003121D01*
X020899Y003120D01*
X020900Y003119D01*
X020902Y003118D01*
X020902Y003118D01*
X020903Y003117D01*
X020903Y003117D01*
X020904Y003117D01*
X020906Y003115D01*
X020907Y003113D01*
X020909Y003111D01*
X020910Y003109D01*
X020912Y003106D01*
X020913Y003104D01*
X020914Y003102D01*
X020915Y003099D01*
X020915Y003097D01*
X020916Y003095D01*
X020916Y003093D01*
X020917Y003091D01*
X020917Y003090D01*
X020917Y003089D01*
X020917Y003089D01*
Y003088D01*
X020917Y003088D01*
Y003088D01*
Y003088D01*
X020893Y003086D01*
X020893Y003087D01*
X020892Y003089D01*
X020892Y003091D01*
X020892Y003092D01*
X020891Y003094D01*
X020891Y003095D01*
X020890Y003096D01*
X020890Y003097D01*
X020889Y003098D01*
X020889Y003099D01*
X020889Y003099D01*
X020888Y003100D01*
X020888Y003100D01*
X020888Y003101D01*
X020888Y003101D01*
X020888Y003101D01*
X020887Y003102D01*
X020886Y003102D01*
X020885Y003103D01*
X020884Y003104D01*
X020882Y003104D01*
X020880Y003105D01*
X020878Y003105D01*
X020877Y003105D01*
X020877D01*
X020876Y003106D01*
X020875D01*
X020874Y003105D01*
X020872Y003105D01*
X020870Y003105D01*
X020868Y003104D01*
X020866Y003103D01*
X020866Y003103D01*
X020865Y003102D01*
X020864Y003102D01*
X020864Y003102D01*
X020864Y003101D01*
X020863Y003101D01*
X020863Y003101D01*
X020863Y003101D01*
X020862Y003100D01*
X020862Y003099D01*
X020860Y003097D01*
X020860Y003095D01*
X020859Y003093D01*
X020859Y003091D01*
X020859Y003091D01*
Y003090D01*
X020859Y003089D01*
Y003089D01*
Y003089D01*
Y003088D01*
X020859Y003087D01*
X020859Y003086D01*
X020859Y003083D01*
X020860Y003080D01*
X020861Y003078D01*
X020862Y003077D01*
X020862Y003076D01*
X020862Y003075D01*
X020863Y003075D01*
X020863Y003074D01*
X020864Y003074D01*
X020864Y003074D01*
X020864Y003073D01*
X020865Y003072D01*
X020866Y003071D01*
X020867Y003069D01*
X020869Y003068D01*
X020870Y003066D01*
X020872Y003064D01*
X020875Y003061D01*
X020877Y003059D01*
X020879Y003058D01*
X020880Y003056D01*
X020881Y003055D01*
X020882Y003054D01*
X020883Y003053D01*
X020884Y003053D01*
X020884Y003053D01*
X020884Y003053D01*
X020888Y003049D01*
X020891Y003046D01*
X020894Y003043D01*
X020897Y003040D01*
X020900Y003037D01*
X020902Y003034D01*
X020904Y003032D01*
X020906Y003030D01*
X020907Y003028D01*
X020908Y003026D01*
X020909Y003025D01*
X020910Y003024D01*
X020911Y003023D01*
X020911Y003022D01*
X020912Y003022D01*
X020912Y003022D01*
X020913Y003020D01*
X020914Y003017D01*
X020915Y003015D01*
X020916Y003013D01*
X020917Y003011D01*
X020917Y003009D01*
X020918Y003007D01*
X020918Y003005D01*
X020919Y003004D01*
X020919Y003002D01*
X020919Y003001D01*
X020920Y003000D01*
X020920Y002999D01*
X020920Y002998D01*
X020920Y002998D01*
Y002997D01*
X020834D01*
Y003020D01*
X020883D01*
X020882Y003021D01*
X020881Y003023D01*
X020880Y003024D01*
X020880Y003025D01*
X020879Y003026D01*
X020878Y003026D01*
X020878Y003027D01*
X020878Y003027D01*
X020877Y003028D01*
X020876Y003029D01*
X020875Y003030D01*
X020874Y003031D01*
X020872Y003033D01*
X020869Y003035D01*
X020868Y003036D01*
X020867Y003038D01*
X020866Y003038D01*
X020865Y003039D01*
X020864Y003040D01*
X020864Y003041D01*
X020863Y003041D01*
X020863Y003041D01*
X020861Y003043D01*
X020859Y003045D01*
X020857Y003047D01*
X020856Y003048D01*
X020854Y003050D01*
X020853Y003051D01*
X020852Y003052D01*
X020851Y003053D01*
X020850Y003054D01*
X020849Y003055D01*
X020848Y003056D01*
X020848Y003056D01*
X020847Y003057D01*
X020847Y003057D01*
X020847Y003057D01*
X020847Y003057D01*
X020845Y003061D01*
X020843Y003064D01*
X020841Y003066D01*
X020840Y003068D01*
X020840Y003069D01*
X020839Y003070D01*
X020839Y003071D01*
X020838Y003072D01*
X020838Y003072D01*
X020838Y003073D01*
X020837Y003073D01*
X020837Y003074D01*
Y003074D01*
X020836Y003077D01*
X020835Y003080D01*
X020835Y003082D01*
X020834Y003085D01*
X020834Y003086D01*
X020834Y003087D01*
X020834Y003088D01*
X020834Y003089D01*
Y003089D01*
Y003090D01*
Y003090D01*
Y003090D01*
X020834Y003093D01*
X020834Y003096D01*
X020835Y003098D01*
X020836Y003101D01*
X020837Y003103D01*
X020837Y003105D01*
X020838Y003107D01*
X020839Y003109D01*
X020840Y003110D01*
X020842Y003112D01*
X020842Y003113D01*
X020843Y003114D01*
X020844Y003115D01*
X020844Y003115D01*
X020845Y003115D01*
X020845Y003116D01*
X020847Y003117D01*
X020849Y003119D01*
X020852Y003120D01*
X020854Y003121D01*
X020857Y003123D01*
X020859Y003123D01*
X020862Y003124D01*
X020864Y003125D01*
X020866Y003125D01*
X020868Y003125D01*
X020870Y003126D01*
X020872Y003126D01*
X020873Y003126D01*
X020874Y003126D01*
X020875D01*
X020878Y003126D01*
D02*
G37*
G36*
X020381D02*
X020384Y003125D01*
X020387Y003125D01*
X020390Y003124D01*
X020392Y003124D01*
X020395Y003123D01*
X020397Y003122D01*
X020399Y003121D01*
X020400Y003121D01*
X020402Y003120D01*
X020403Y003119D01*
X020405Y003118D01*
X020405Y003118D01*
X020406Y003117D01*
X020407Y003117D01*
X020407Y003117D01*
X020409Y003115D01*
X020411Y003113D01*
X020412Y003111D01*
X020414Y003109D01*
X020415Y003106D01*
X020416Y003104D01*
X020417Y003102D01*
X020418Y003099D01*
X020418Y003097D01*
X020419Y003095D01*
X020419Y003093D01*
X020420Y003091D01*
X020420Y003090D01*
X020420Y003089D01*
X020420Y003089D01*
Y003088D01*
X020420Y003088D01*
Y003088D01*
Y003088D01*
X020396Y003086D01*
X020396Y003087D01*
X020395Y003089D01*
X020395Y003091D01*
X020395Y003092D01*
X020394Y003094D01*
X020394Y003095D01*
X020393Y003096D01*
X020393Y003097D01*
X020393Y003098D01*
X020392Y003099D01*
X020392Y003099D01*
X020391Y003100D01*
X020391Y003100D01*
X020391Y003101D01*
X020391Y003101D01*
X020391Y003101D01*
X020390Y003102D01*
X020389Y003102D01*
X020388Y003103D01*
X020387Y003104D01*
X020385Y003104D01*
X020383Y003105D01*
X020381Y003105D01*
X020380Y003105D01*
X020380D01*
X020379Y003106D01*
X020378D01*
X020377Y003105D01*
X020376Y003105D01*
X020373Y003105D01*
X020371Y003104D01*
X020369Y003103D01*
X020369Y003103D01*
X020368Y003102D01*
X020367Y003102D01*
X020367Y003102D01*
X020367Y003101D01*
X020366Y003101D01*
X020366Y003101D01*
X020366Y003101D01*
X020365Y003100D01*
X020365Y003099D01*
X020364Y003097D01*
X020363Y003095D01*
X020362Y003093D01*
X020362Y003091D01*
X020362Y003091D01*
Y003090D01*
X020362Y003089D01*
Y003089D01*
Y003089D01*
Y003088D01*
X020362Y003087D01*
X020362Y003086D01*
X020363Y003083D01*
X020363Y003080D01*
X020364Y003078D01*
X020365Y003077D01*
X020365Y003076D01*
X020366Y003075D01*
X020366Y003075D01*
X020366Y003074D01*
X020367Y003074D01*
X020367Y003074D01*
X020367Y003073D01*
X020368Y003072D01*
X020369Y003071D01*
X020370Y003069D01*
X020372Y003068D01*
X020373Y003066D01*
X020375Y003064D01*
X020378Y003061D01*
X020380Y003059D01*
X020382Y003058D01*
X020383Y003056D01*
X020384Y003055D01*
X020386Y003054D01*
X020386Y003053D01*
X020387Y003053D01*
X020387Y003053D01*
X020387Y003053D01*
X020391Y003049D01*
X020394Y003046D01*
X020397Y003043D01*
X020400Y003040D01*
X020403Y003037D01*
X020405Y003034D01*
X020407Y003032D01*
X020409Y003030D01*
X020410Y003028D01*
X020411Y003026D01*
X020413Y003025D01*
X020413Y003024D01*
X020414Y003023D01*
X020414Y003022D01*
X020415Y003022D01*
X020415Y003022D01*
X020416Y003020D01*
X020417Y003017D01*
X020418Y003015D01*
X020419Y003013D01*
X020420Y003011D01*
X020420Y003009D01*
X020421Y003007D01*
X020422Y003005D01*
X020422Y003004D01*
X020422Y003002D01*
X020423Y003001D01*
X020423Y003000D01*
X020423Y002999D01*
X020423Y002998D01*
X020423Y002998D01*
Y002997D01*
X020337D01*
Y003020D01*
X020386D01*
X020385Y003021D01*
X020384Y003023D01*
X020384Y003024D01*
X020383Y003025D01*
X020382Y003026D01*
X020381Y003026D01*
X020381Y003027D01*
X020381Y003027D01*
X020380Y003028D01*
X020379Y003029D01*
X020378Y003030D01*
X020377Y003031D01*
X020375Y003033D01*
X020372Y003035D01*
X020371Y003036D01*
X020370Y003038D01*
X020369Y003038D01*
X020368Y003039D01*
X020367Y003040D01*
X020367Y003041D01*
X020366Y003041D01*
X020366Y003041D01*
X020364Y003043D01*
X020362Y003045D01*
X020360Y003047D01*
X020359Y003048D01*
X020357Y003050D01*
X020356Y003051D01*
X020355Y003052D01*
X020354Y003053D01*
X020353Y003054D01*
X020352Y003055D01*
X020351Y003056D01*
X020351Y003056D01*
X020351Y003057D01*
X020350Y003057D01*
X020350Y003057D01*
X020350Y003057D01*
X020348Y003061D01*
X020346Y003064D01*
X020344Y003066D01*
X020343Y003068D01*
X020343Y003069D01*
X020342Y003070D01*
X020342Y003071D01*
X020341Y003072D01*
X020341Y003072D01*
X020341Y003073D01*
X020340Y003073D01*
X020340Y003074D01*
Y003074D01*
X020339Y003077D01*
X020338Y003080D01*
X020338Y003082D01*
X020338Y003085D01*
X020337Y003086D01*
X020337Y003087D01*
X020337Y003088D01*
X020337Y003089D01*
Y003089D01*
Y003090D01*
Y003090D01*
Y003090D01*
X020337Y003093D01*
X020338Y003096D01*
X020338Y003098D01*
X020339Y003101D01*
X020340Y003103D01*
X020341Y003105D01*
X020342Y003107D01*
X020343Y003109D01*
X020344Y003110D01*
X020345Y003112D01*
X020346Y003113D01*
X020346Y003114D01*
X020347Y003115D01*
X020348Y003115D01*
X020348Y003115D01*
X020348Y003116D01*
X020350Y003117D01*
X020352Y003119D01*
X020355Y003120D01*
X020357Y003121D01*
X020360Y003123D01*
X020362Y003123D01*
X020365Y003124D01*
X020367Y003125D01*
X020369Y003125D01*
X020371Y003125D01*
X020373Y003126D01*
X020375Y003126D01*
X020376Y003126D01*
X020377Y003126D01*
X020378D01*
X020381Y003126D01*
D02*
G37*
G36*
X020182Y003126D02*
X020185Y003125D01*
X020188Y003125D01*
X020191Y003124D01*
X020193Y003124D01*
X020196Y003123D01*
X020198Y003122D01*
X020200Y003121D01*
X020202Y003121D01*
X020203Y003120D01*
X020205Y003119D01*
X020206Y003118D01*
X020207Y003118D01*
X020207Y003117D01*
X020208Y003117D01*
X020208Y003117D01*
X020210Y003115D01*
X020212Y003113D01*
X020213Y003111D01*
X020215Y003109D01*
X020216Y003106D01*
X020217Y003104D01*
X020218Y003102D01*
X020219Y003099D01*
X020220Y003097D01*
X020220Y003095D01*
X020221Y003093D01*
X020221Y003091D01*
X020221Y003090D01*
X020221Y003089D01*
X020221Y003089D01*
Y003088D01*
X020221Y003088D01*
Y003088D01*
Y003088D01*
X020197Y003086D01*
X020197Y003087D01*
X020197Y003089D01*
X020196Y003091D01*
X020196Y003092D01*
X020196Y003094D01*
X020195Y003095D01*
X020195Y003096D01*
X020194Y003097D01*
X020194Y003098D01*
X020193Y003099D01*
X020193Y003099D01*
X020193Y003100D01*
X020192Y003100D01*
X020192Y003101D01*
X020192Y003101D01*
X020192Y003101D01*
X020191Y003102D01*
X020190Y003102D01*
X020189Y003103D01*
X020188Y003104D01*
X020186Y003104D01*
X020184Y003105D01*
X020182Y003105D01*
X020182Y003105D01*
X020181D01*
X020180Y003106D01*
X020180D01*
X020178Y003105D01*
X020177Y003105D01*
X020174Y003105D01*
X020172Y003104D01*
X020171Y003103D01*
X020170Y003103D01*
X020169Y003102D01*
X020169Y003102D01*
X020168Y003102D01*
X020168Y003101D01*
X020168Y003101D01*
X020168Y003101D01*
X020167Y003101D01*
X020167Y003100D01*
X020166Y003099D01*
X020165Y003097D01*
X020164Y003095D01*
X020164Y003093D01*
X020163Y003091D01*
X020163Y003091D01*
Y003090D01*
X020163Y003089D01*
Y003089D01*
Y003089D01*
Y003088D01*
X020163Y003087D01*
X020163Y003086D01*
X020164Y003083D01*
X020165Y003080D01*
X020165Y003078D01*
X020166Y003077D01*
X020166Y003076D01*
X020167Y003075D01*
X020167Y003075D01*
X020168Y003074D01*
X020168Y003074D01*
X020168Y003074D01*
X020168Y003073D01*
X020169Y003072D01*
X020170Y003071D01*
X020171Y003069D01*
X020173Y003068D01*
X020174Y003066D01*
X020176Y003064D01*
X020180Y003061D01*
X020181Y003059D01*
X020183Y003058D01*
X020184Y003056D01*
X020186Y003055D01*
X020187Y003054D01*
X020188Y003053D01*
X020188Y003053D01*
X020188Y003053D01*
X020188Y003053D01*
X020192Y003049D01*
X020196Y003046D01*
X020199Y003043D01*
X020201Y003040D01*
X020204Y003037D01*
X020206Y003034D01*
X020208Y003032D01*
X020210Y003030D01*
X020211Y003028D01*
X020213Y003026D01*
X020214Y003025D01*
X020215Y003024D01*
X020215Y003023D01*
X020216Y003022D01*
X020216Y003022D01*
X020216Y003022D01*
X020217Y003020D01*
X020218Y003017D01*
X020219Y003015D01*
X020220Y003013D01*
X020221Y003011D01*
X020222Y003009D01*
X020222Y003007D01*
X020223Y003005D01*
X020223Y003004D01*
X020224Y003002D01*
X020224Y003001D01*
X020224Y003000D01*
X020224Y002999D01*
X020224Y002998D01*
X020224Y002998D01*
Y002997D01*
X020138Y002997D01*
Y003020D01*
X020187D01*
X020186Y003021D01*
X020186Y003023D01*
X020185Y003024D01*
X020184Y003025D01*
X020183Y003026D01*
X020183Y003026D01*
X020182Y003027D01*
X020182Y003027D01*
X020182Y003028D01*
X020181Y003029D01*
X020180Y003030D01*
X020179Y003031D01*
X020176Y003033D01*
X020174Y003035D01*
X020172Y003036D01*
X020171Y003038D01*
X020170Y003038D01*
X020169Y003039D01*
X020169Y003040D01*
X020168Y003041D01*
X020168Y003041D01*
X020167Y003041D01*
X020165Y003043D01*
X020163Y003045D01*
X020162Y003047D01*
X020160Y003048D01*
X020159Y003050D01*
X020157Y003051D01*
X020156Y003052D01*
X020155Y003053D01*
X020154Y003054D01*
X020153Y003055D01*
X020153Y003056D01*
X020152Y003056D01*
X020152Y003057D01*
X020152Y003057D01*
X020151Y003057D01*
X020151Y003057D01*
X020149Y003061D01*
X020147Y003064D01*
X020145Y003066D01*
X020145Y003068D01*
X020144Y003069D01*
X020143Y003070D01*
X020143Y003071D01*
X020142Y003072D01*
X020142Y003072D01*
X020142Y003073D01*
X020142Y003073D01*
X020142Y003074D01*
Y003074D01*
X020141Y003077D01*
X020140Y003080D01*
X020139Y003082D01*
X020139Y003085D01*
X020139Y003086D01*
X020139Y003087D01*
X020138Y003088D01*
X020138Y003089D01*
Y003089D01*
Y003090D01*
Y003090D01*
Y003090D01*
X020138Y003093D01*
X020139Y003096D01*
X020139Y003098D01*
X020140Y003101D01*
X020141Y003103D01*
X020142Y003105D01*
X020143Y003107D01*
X020144Y003109D01*
X020145Y003110D01*
X020146Y003112D01*
X020147Y003113D01*
X020148Y003114D01*
X020148Y003115D01*
X020149Y003115D01*
X020149Y003115D01*
X020149Y003116D01*
X020151Y003117D01*
X020154Y003119D01*
X020156Y003120D01*
X020159Y003121D01*
X020161Y003123D01*
X020163Y003123D01*
X020166Y003124D01*
X020168Y003125D01*
X020170Y003125D01*
X020172Y003125D01*
X020174Y003126D01*
X020176Y003126D01*
X020177Y003126D01*
X020178Y003126D01*
X020179D01*
X020182Y003126D01*
D02*
G37*
G36*
X020775Y003124D02*
X020777Y003122D01*
X020778Y003120D01*
X020779Y003118D01*
X020780Y003116D01*
X020781Y003114D01*
X020783Y003113D01*
X020784Y003111D01*
X020785Y003110D01*
X020786Y003109D01*
X020787Y003108D01*
X020788Y003107D01*
X020789Y003106D01*
X020790Y003106D01*
X020790Y003105D01*
X020790Y003105D01*
X020792Y003104D01*
X020794Y003102D01*
X020796Y003101D01*
X020798Y003100D01*
X020800Y003099D01*
X020802Y003098D01*
X020803Y003097D01*
X020805Y003096D01*
X020806Y003095D01*
X020807Y003095D01*
X020808Y003094D01*
X020809Y003094D01*
X020810Y003094D01*
X020810Y003094D01*
X020811Y003093D01*
X020811D01*
Y003071D01*
X020808Y003072D01*
X020804Y003074D01*
X020801Y003075D01*
X020798Y003077D01*
X020795Y003078D01*
X020793Y003080D01*
X020790Y003081D01*
X020788Y003083D01*
X020786Y003084D01*
X020784Y003086D01*
X020783Y003087D01*
X020782Y003088D01*
X020781Y003089D01*
X020780Y003089D01*
X020779Y003090D01*
X020779Y003090D01*
Y002997D01*
X020755D01*
Y003126D01*
X020775D01*
X020775Y003124D01*
D02*
G37*
G36*
X020713Y002997D02*
X020688D01*
Y003022D01*
X020713D01*
Y002997D01*
D02*
G37*
G36*
X020569Y003101D02*
X020513D01*
X020516Y003097D01*
X020519Y003093D01*
X020522Y003088D01*
X020525Y003084D01*
X020527Y003080D01*
X020530Y003076D01*
X020532Y003072D01*
X020534Y003068D01*
X020535Y003065D01*
X020537Y003061D01*
X020537Y003060D01*
X020538Y003059D01*
X020539Y003057D01*
X020539Y003056D01*
X020539Y003055D01*
X020540Y003054D01*
X020540Y003053D01*
X020540Y003053D01*
X020541Y003052D01*
X020541Y003052D01*
X020541Y003052D01*
Y003052D01*
X020543Y003046D01*
X020544Y003041D01*
X020546Y003036D01*
X020547Y003031D01*
X020548Y003027D01*
X020549Y003022D01*
X020550Y003018D01*
X020550Y003014D01*
X020551Y003011D01*
X020551Y003009D01*
X020551Y003007D01*
X020551Y003006D01*
X020551Y003004D01*
X020551Y003003D01*
X020552Y003002D01*
X020552Y003001D01*
X020552Y003000D01*
Y002999D01*
Y002999D01*
X020552Y002998D01*
Y002998D01*
Y002998D01*
Y002997D01*
X020528D01*
X020528Y003001D01*
X020528Y003004D01*
X020528Y003007D01*
X020527Y003011D01*
X020527Y003014D01*
X020527Y003017D01*
X020526Y003020D01*
X020525Y003023D01*
X020525Y003026D01*
X020524Y003028D01*
X020524Y003030D01*
X020524Y003032D01*
X020523Y003033D01*
X020523Y003034D01*
X020523Y003034D01*
X020523Y003035D01*
X020523Y003035D01*
Y003036D01*
X020523Y003036D01*
Y003036D01*
X020522Y003040D01*
X020520Y003044D01*
X020519Y003048D01*
X020518Y003051D01*
X020516Y003055D01*
X020515Y003058D01*
X020514Y003061D01*
X020512Y003064D01*
X020511Y003067D01*
X020510Y003069D01*
X020509Y003071D01*
X020508Y003073D01*
X020508Y003074D01*
X020507Y003075D01*
X020507Y003075D01*
X020507Y003076D01*
X020507Y003076D01*
X020506Y003076D01*
X020506Y003076D01*
Y003076D01*
X020504Y003080D01*
X020502Y003083D01*
X020500Y003086D01*
X020498Y003089D01*
X020497Y003092D01*
X020495Y003094D01*
X020493Y003096D01*
X020492Y003098D01*
X020490Y003100D01*
X020489Y003102D01*
X020488Y003103D01*
X020487Y003104D01*
X020486Y003105D01*
X020486Y003105D01*
X020485Y003106D01*
X020485Y003106D01*
Y003124D01*
X020569D01*
Y003101D01*
D02*
G37*
G36*
X020464Y002997D02*
X020440D01*
Y003022D01*
X020464D01*
Y002997D01*
D02*
G37*
G36*
X020630Y003126D02*
X020634Y003125D01*
X020637Y003125D01*
X020639Y003124D01*
X020642Y003123D01*
X020644Y003122D01*
X020647Y003120D01*
X020648Y003119D01*
X020650Y003118D01*
X020652Y003117D01*
X020653Y003116D01*
X020654Y003115D01*
X020655Y003114D01*
X020656Y003113D01*
X020656Y003113D01*
X020656Y003113D01*
X020657Y003111D01*
X020658Y003109D01*
X020659Y003108D01*
X020660Y003106D01*
X020662Y003102D01*
X020663Y003098D01*
X020664Y003094D01*
X020665Y003089D01*
X020666Y003085D01*
X020667Y003081D01*
X020668Y003077D01*
X020668Y003073D01*
X020668Y003071D01*
X020668Y003070D01*
X020668Y003068D01*
X020668Y003067D01*
X020668Y003065D01*
Y003064D01*
Y003063D01*
X020669Y003062D01*
Y003062D01*
Y003061D01*
Y003061D01*
Y003061D01*
Y003057D01*
X020668Y003054D01*
X020668Y003051D01*
X020668Y003048D01*
X020668Y003045D01*
X020668Y003042D01*
X020667Y003040D01*
X020667Y003037D01*
X020666Y003035D01*
X020666Y003032D01*
X020665Y003030D01*
X020665Y003028D01*
X020664Y003026D01*
X020664Y003025D01*
X020663Y003023D01*
X020663Y003021D01*
X020662Y003020D01*
X020662Y003018D01*
X020661Y003017D01*
X020661Y003016D01*
X020660Y003015D01*
X020660Y003014D01*
X020659Y003013D01*
X020659Y003012D01*
X020659Y003012D01*
X020658Y003011D01*
X020658Y003011D01*
X020658Y003010D01*
X020657Y003010D01*
X020657Y003010D01*
X020655Y003007D01*
X020653Y003005D01*
X020650Y003003D01*
X020648Y003001D01*
X020645Y003000D01*
X020643Y002999D01*
X020640Y002998D01*
X020638Y002997D01*
X020636Y002996D01*
X020633Y002996D01*
X020632Y002996D01*
X020630Y002995D01*
X020629Y002995D01*
X020628Y002995D01*
X020627D01*
X020624Y002995D01*
X020620Y002996D01*
X020617Y002996D01*
X020615Y002997D01*
X020612Y002998D01*
X020610Y002999D01*
X020607Y003000D01*
X020606Y003002D01*
X020604Y003003D01*
X020602Y003004D01*
X020601Y003005D01*
X020600Y003006D01*
X020599Y003007D01*
X020598Y003008D01*
X020598Y003008D01*
X020598Y003008D01*
X020597Y003010D01*
X020596Y003011D01*
X020595Y003013D01*
X020594Y003015D01*
X020592Y003019D01*
X020591Y003023D01*
X020589Y003027D01*
X020588Y003032D01*
X020588Y003036D01*
X020587Y003040D01*
X020586Y003044D01*
X020586Y003048D01*
X020586Y003050D01*
X020586Y003052D01*
X020586Y003053D01*
X020586Y003055D01*
X020585Y003056D01*
Y003057D01*
X020585Y003058D01*
Y003059D01*
Y003060D01*
Y003060D01*
Y003060D01*
Y003060D01*
Y003064D01*
X020585Y003067D01*
X020586Y003070D01*
X020586Y003073D01*
X020586Y003076D01*
X020587Y003079D01*
X020587Y003081D01*
X020587Y003084D01*
X020588Y003086D01*
X020588Y003089D01*
X020589Y003091D01*
X020589Y003093D01*
X020590Y003095D01*
X020590Y003097D01*
X020591Y003098D01*
X020592Y003100D01*
X020592Y003102D01*
X020593Y003103D01*
X020593Y003104D01*
X020594Y003106D01*
X020595Y003107D01*
X020595Y003108D01*
X020596Y003109D01*
X020596Y003109D01*
X020596Y003110D01*
X020597Y003111D01*
X020597Y003111D01*
X020597Y003112D01*
X020598Y003112D01*
X020598Y003112D01*
X020598Y003113D01*
X020600Y003115D01*
X020602Y003117D01*
X020605Y003119D01*
X020607Y003120D01*
X020609Y003121D01*
X020612Y003123D01*
X020614Y003123D01*
X020616Y003124D01*
X020619Y003125D01*
X020621Y003125D01*
X020622Y003125D01*
X020624Y003126D01*
X020625Y003126D01*
X020626Y003126D01*
X020627D01*
X020630Y003126D01*
D02*
G37*
G36*
X020283D02*
X020286Y003125D01*
X020289Y003125D01*
X020292Y003124D01*
X020294Y003123D01*
X020297Y003122D01*
X020299Y003120D01*
X020301Y003119D01*
X020302Y003118D01*
X020304Y003117D01*
X020305Y003116D01*
X020306Y003115D01*
X020307Y003114D01*
X020308Y003113D01*
X020308Y003113D01*
X020308Y003113D01*
X020309Y003111D01*
X020310Y003109D01*
X020311Y003108D01*
X020312Y003106D01*
X020314Y003102D01*
X020315Y003098D01*
X020317Y003094D01*
X020318Y003089D01*
X020318Y003085D01*
X020319Y003081D01*
X020320Y003077D01*
X020320Y003073D01*
X020320Y003071D01*
X020320Y003070D01*
X020320Y003068D01*
X020321Y003067D01*
X020321Y003065D01*
Y003064D01*
Y003063D01*
X020321Y003062D01*
Y003062D01*
Y003061D01*
Y003061D01*
Y003061D01*
Y003057D01*
X020321Y003054D01*
X020320Y003051D01*
X020320Y003048D01*
X020320Y003045D01*
X020320Y003042D01*
X020319Y003040D01*
X020319Y003037D01*
X020318Y003035D01*
X020318Y003032D01*
X020318Y003030D01*
X020317Y003028D01*
X020317Y003026D01*
X020316Y003025D01*
X020316Y003023D01*
X020315Y003021D01*
X020315Y003020D01*
X020314Y003018D01*
X020313Y003017D01*
X020313Y003016D01*
X020312Y003015D01*
X020312Y003014D01*
X020312Y003013D01*
X020311Y003012D01*
X020311Y003012D01*
X020310Y003011D01*
X020310Y003011D01*
X020310Y003010D01*
X020309Y003010D01*
X020309Y003010D01*
X020307Y003007D01*
X020305Y003005D01*
X020302Y003003D01*
X020300Y003001D01*
X020297Y003000D01*
X020295Y002999D01*
X020292Y002998D01*
X020290Y002997D01*
X020288Y002996D01*
X020286Y002996D01*
X020284Y002996D01*
X020282Y002995D01*
X020281Y002995D01*
X020280Y002995D01*
X020279D01*
X020276Y002995D01*
X020273Y002996D01*
X020270Y002996D01*
X020267Y002997D01*
X020264Y002998D01*
X020262Y002999D01*
X020260Y003000D01*
X020258Y003002D01*
X020256Y003003D01*
X020254Y003004D01*
X020253Y003005D01*
X020252Y003006D01*
X020251Y003007D01*
X020251Y003008D01*
X020250Y003008D01*
X020250Y003008D01*
X020249Y003010D01*
X020248Y003011D01*
X020247Y003013D01*
X020246Y003015D01*
X020244Y003019D01*
X020243Y003023D01*
X020242Y003027D01*
X020241Y003032D01*
X020240Y003036D01*
X020239Y003040D01*
X020239Y003044D01*
X020238Y003048D01*
X020238Y003050D01*
X020238Y003052D01*
X020238Y003053D01*
X020238Y003055D01*
X020238Y003056D01*
Y003057D01*
X020238Y003058D01*
Y003059D01*
Y003060D01*
Y003060D01*
Y003060D01*
Y003060D01*
Y003064D01*
X020238Y003067D01*
X020238Y003070D01*
X020238Y003073D01*
X020238Y003076D01*
X020239Y003079D01*
X020239Y003081D01*
X020240Y003084D01*
X020240Y003086D01*
X020241Y003089D01*
X020241Y003091D01*
X020242Y003093D01*
X020242Y003095D01*
X020243Y003097D01*
X020243Y003098D01*
X020244Y003100D01*
X020244Y003102D01*
X020245Y003103D01*
X020246Y003104D01*
X020246Y003106D01*
X020247Y003107D01*
X020247Y003108D01*
X020248Y003109D01*
X020248Y003109D01*
X020249Y003110D01*
X020249Y003111D01*
X020249Y003111D01*
X020250Y003112D01*
X020250Y003112D01*
X020250Y003112D01*
X020250Y003113D01*
X020252Y003115D01*
X020254Y003117D01*
X020257Y003119D01*
X020259Y003120D01*
X020262Y003121D01*
X020264Y003123D01*
X020266Y003123D01*
X020269Y003124D01*
X020271Y003125D01*
X020273Y003125D01*
X020275Y003125D01*
X020276Y003126D01*
X020277Y003126D01*
X020278Y003126D01*
X020279D01*
X020283Y003126D01*
D02*
G37*
G36*
X020084Y003126D02*
X020087Y003125D01*
X020090Y003125D01*
X020093Y003124D01*
X020095Y003123D01*
X020098Y003122D01*
X020100Y003120D01*
X020102Y003119D01*
X020104Y003118D01*
X020105Y003117D01*
X020106Y003116D01*
X020107Y003115D01*
X020108Y003114D01*
X020109Y003113D01*
X020109Y003113D01*
X020109Y003113D01*
X020111Y003111D01*
X020112Y003109D01*
X020113Y003108D01*
X020114Y003106D01*
X020115Y003102D01*
X020117Y003098D01*
X020118Y003094D01*
X020119Y003089D01*
X020120Y003085D01*
X020120Y003081D01*
X020121Y003077D01*
X020121Y003073D01*
X020121Y003071D01*
X020122Y003070D01*
X020122Y003068D01*
X020122Y003067D01*
X020122Y003065D01*
Y003064D01*
Y003063D01*
X020122Y003062D01*
Y003062D01*
Y003061D01*
Y003061D01*
Y003061D01*
Y003057D01*
X020122Y003054D01*
X020122Y003051D01*
X020121Y003048D01*
X020121Y003045D01*
X020121Y003042D01*
X020121Y003040D01*
X020120Y003037D01*
X020120Y003035D01*
X020119Y003032D01*
X020119Y003030D01*
X020118Y003028D01*
X020118Y003026D01*
X020117Y003025D01*
X020117Y003023D01*
X020116Y003021D01*
X020116Y003020D01*
X020115Y003018D01*
X020115Y003017D01*
X020114Y003016D01*
X020114Y003015D01*
X020113Y003014D01*
X020113Y003013D01*
X020112Y003012D01*
X020112Y003012D01*
X020112Y003011D01*
X020111Y003011D01*
X020111Y003010D01*
X020111Y003010D01*
X020111Y003010D01*
X020108Y003007D01*
X020106Y003005D01*
X020104Y003003D01*
X020101Y003001D01*
X020098Y003000D01*
X020096Y002999D01*
X020094Y002998D01*
X020091Y002997D01*
X020089Y002996D01*
X020087Y002996D01*
X020085Y002996D01*
X020083Y002995D01*
X020082Y002995D01*
X020081Y002995D01*
X020080D01*
X020077Y002995D01*
X020074Y002996D01*
X020071Y002996D01*
X020068Y002997D01*
X020065Y002998D01*
X020063Y002999D01*
X020061Y003000D01*
X020059Y003002D01*
X020057Y003003D01*
X020056Y003004D01*
X020054Y003005D01*
X020053Y003006D01*
X020052Y003007D01*
X020052Y003008D01*
X020051Y003008D01*
X020051Y003008D01*
X020050Y003010D01*
X020049Y003011D01*
X020048Y003013D01*
X020047Y003015D01*
X020046Y003019D01*
X020044Y003023D01*
X020043Y003027D01*
X020042Y003032D01*
X020041Y003036D01*
X020040Y003040D01*
X020040Y003044D01*
X020039Y003048D01*
X020039Y003050D01*
X020039Y003052D01*
X020039Y003053D01*
X020039Y003055D01*
X020039Y003056D01*
Y003057D01*
X020039Y003058D01*
Y003059D01*
Y003060D01*
Y003060D01*
Y003060D01*
Y003060D01*
Y003064D01*
X020039Y003067D01*
X020039Y003070D01*
X020039Y003073D01*
X020040Y003076D01*
X020040Y003079D01*
X020040Y003081D01*
X020041Y003084D01*
X020041Y003086D01*
X020042Y003089D01*
X020042Y003091D01*
X020043Y003093D01*
X020043Y003095D01*
X020044Y003097D01*
X020045Y003098D01*
X020045Y003100D01*
X020046Y003102D01*
X020046Y003103D01*
X020047Y003104D01*
X020047Y003106D01*
X020048Y003107D01*
X020048Y003108D01*
X020049Y003109D01*
X020049Y003109D01*
X020050Y003110D01*
X020050Y003111D01*
X020051Y003111D01*
X020051Y003112D01*
X020051Y003112D01*
X020051Y003112D01*
X020051Y003113D01*
X020053Y003115D01*
X020056Y003117D01*
X020058Y003119D01*
X020060Y003120D01*
X020063Y003121D01*
X020065Y003123D01*
X020068Y003123D01*
X020070Y003124D01*
X020072Y003125D01*
X020074Y003125D01*
X020076Y003125D01*
X020077Y003126D01*
X020079Y003126D01*
X020080Y003126D01*
X020080D01*
X020084Y003126D01*
D02*
G37*
%LPC*%
G36*
X019306Y003263D02*
X019287D01*
X019292Y003238D01*
X019312D01*
X019306Y003263D01*
D02*
G37*
G36*
X019449Y003263D02*
X019448D01*
X019447Y003263D01*
X019445Y003262D01*
X019444Y003262D01*
X019443Y003262D01*
X019441Y003261D01*
X019439Y003260D01*
X019438Y003259D01*
X019437Y003259D01*
X019437Y003258D01*
X019436Y003258D01*
X019436Y003258D01*
X019436Y003257D01*
X019435Y003257D01*
X019435Y003257D01*
X019434Y003256D01*
X019434Y003255D01*
X019433Y003254D01*
X019432Y003252D01*
X019431Y003250D01*
X019431Y003247D01*
X019430Y003246D01*
X019430Y003245D01*
X019430Y003244D01*
X019430Y003243D01*
Y003242D01*
X019430Y003241D01*
Y003241D01*
Y003241D01*
X019467D01*
Y003243D01*
X019466Y003245D01*
X019466Y003246D01*
X019466Y003248D01*
X019465Y003249D01*
X019465Y003250D01*
X019465Y003252D01*
X019464Y003253D01*
X019464Y003254D01*
X019463Y003254D01*
X019463Y003255D01*
X019462Y003256D01*
X019462Y003256D01*
X019462Y003257D01*
X019462Y003257D01*
X019461Y003257D01*
X019460Y003258D01*
X019459Y003259D01*
X019458Y003260D01*
X019457Y003260D01*
X019456Y003261D01*
X019455Y003261D01*
X019453Y003262D01*
X019452Y003262D01*
X019451Y003262D01*
X019450Y003263D01*
X019449Y003263D01*
X019449Y003263D01*
D02*
G37*
G36*
X020726Y003285D02*
X020708Y003237D01*
X020743D01*
X020726Y003285D01*
D02*
G37*
G36*
X020343Y003293D02*
X020326D01*
X020323Y003293D01*
X020322Y003293D01*
X020320D01*
X020318Y003293D01*
X020317Y003293D01*
X020316Y003293D01*
X020315Y003293D01*
X020314Y003292D01*
X020313Y003292D01*
X020313D01*
X020312Y003292D01*
X020312Y003292D01*
X020312D01*
X020310Y003292D01*
X020307Y003291D01*
X020306Y003290D01*
X020304Y003289D01*
X020303Y003288D01*
X020302Y003287D01*
X020302Y003287D01*
X020301Y003287D01*
Y003286D01*
X020301Y003286D01*
X020300Y003285D01*
X020299Y003283D01*
X020298Y003281D01*
X020298Y003279D01*
X020297Y003277D01*
X020297Y003277D01*
Y003276D01*
X020297Y003276D01*
Y003275D01*
Y003275D01*
Y003275D01*
X020297Y003273D01*
X020298Y003271D01*
X020298Y003269D01*
X020299Y003268D01*
X020299Y003267D01*
X020300Y003266D01*
X020300Y003265D01*
X020300Y003265D01*
X020300Y003265D01*
Y003265D01*
X020301Y003263D01*
X020303Y003262D01*
X020304Y003261D01*
X020305Y003260D01*
X020307Y003259D01*
X020307Y003259D01*
X020308Y003259D01*
X020308Y003259D01*
X020308Y003259D01*
X020308D01*
X020309Y003258D01*
X020311Y003258D01*
X020312Y003258D01*
X020314Y003257D01*
X020317Y003257D01*
X020320Y003257D01*
X020322Y003257D01*
X020324Y003257D01*
X020325D01*
X020326Y003257D01*
X020343D01*
Y003293D01*
D02*
G37*
G36*
X020199Y003285D02*
X020182Y003237D01*
X020217Y003237D01*
X020199Y003285D01*
D02*
G37*
G36*
X019821Y003262D02*
X019820D01*
X019818Y003261D01*
X019817Y003261D01*
X019815Y003261D01*
X019813Y003260D01*
X019812Y003260D01*
X019811Y003259D01*
X019810Y003258D01*
X019808Y003258D01*
X019807Y003257D01*
X019807Y003256D01*
X019806Y003256D01*
X019805Y003255D01*
X019805Y003255D01*
X019804Y003254D01*
X019804Y003254D01*
X019804Y003254D01*
X019803Y003253D01*
X019802Y003251D01*
X019801Y003250D01*
X019800Y003248D01*
X019800Y003246D01*
X019799Y003244D01*
X019799Y003243D01*
X019798Y003241D01*
X019798Y003239D01*
X019798Y003238D01*
X019798Y003237D01*
X019797Y003235D01*
X019797Y003234D01*
Y003234D01*
Y003233D01*
Y003233D01*
X019797Y003231D01*
X019798Y003228D01*
X019798Y003226D01*
X019798Y003224D01*
X019799Y003222D01*
X019799Y003220D01*
X019800Y003219D01*
X019801Y003217D01*
X019801Y003216D01*
X019802Y003215D01*
X019802Y003214D01*
X019803Y003213D01*
X019803Y003213D01*
X019804Y003212D01*
X019804Y003212D01*
X019804Y003212D01*
X019805Y003211D01*
X019807Y003209D01*
X019808Y003208D01*
X019809Y003208D01*
X019811Y003207D01*
X019812Y003206D01*
X019813Y003206D01*
X019814Y003206D01*
X019816Y003205D01*
X019817Y003205D01*
X019818Y003205D01*
X019818Y003205D01*
X019819D01*
X019820Y003205D01*
X019820D01*
X019822Y003205D01*
X019823Y003205D01*
X019825Y003205D01*
X019827Y003206D01*
X019828Y003206D01*
X019829Y003207D01*
X019831Y003208D01*
X019832Y003208D01*
X019833Y003209D01*
X019834Y003210D01*
X019834Y003210D01*
X019835Y003211D01*
X019836Y003211D01*
X019836Y003212D01*
X019836Y003212D01*
X019836Y003212D01*
X019837Y003213D01*
X019838Y003215D01*
X019839Y003217D01*
X019840Y003218D01*
X019841Y003220D01*
X019841Y003222D01*
X019842Y003224D01*
X019842Y003225D01*
X019842Y003227D01*
X019842Y003228D01*
X019843Y003230D01*
X019843Y003231D01*
X019843Y003232D01*
Y003232D01*
Y003233D01*
Y003233D01*
X019843Y003236D01*
X019842Y003238D01*
X019842Y003240D01*
X019842Y003242D01*
X019841Y003244D01*
X019841Y003246D01*
X019840Y003247D01*
X019839Y003249D01*
X019839Y003250D01*
X019838Y003251D01*
X019838Y003252D01*
X019837Y003253D01*
X019837Y003253D01*
X019837Y003254D01*
X019836Y003254D01*
X019836Y003254D01*
X019835Y003255D01*
X019834Y003257D01*
X019832Y003258D01*
X019831Y003258D01*
X019830Y003259D01*
X019828Y003260D01*
X019827Y003260D01*
X019826Y003261D01*
X019824Y003261D01*
X019823Y003261D01*
X019822Y003261D01*
X019822Y003261D01*
X019821Y003262D01*
D02*
G37*
G36*
X019714Y003263D02*
X019713D01*
X019711Y003263D01*
X019710Y003262D01*
X019708Y003262D01*
X019707Y003262D01*
X019705Y003261D01*
X019704Y003261D01*
X019703Y003260D01*
X019702Y003259D01*
X019701Y003259D01*
X019701Y003258D01*
X019700Y003257D01*
X019699Y003257D01*
X019699Y003256D01*
X019698Y003256D01*
X019698Y003256D01*
X019698Y003256D01*
X019697Y003254D01*
X019696Y003253D01*
X019696Y003251D01*
X019695Y003249D01*
X019694Y003247D01*
X019694Y003245D01*
X019693Y003242D01*
X019693Y003240D01*
X019693Y003238D01*
X019693Y003237D01*
X019692Y003235D01*
X019692Y003234D01*
Y003233D01*
Y003233D01*
Y003233D01*
Y003233D01*
X019692Y003230D01*
X019693Y003228D01*
X019693Y003225D01*
X019693Y003223D01*
X019694Y003221D01*
X019694Y003220D01*
X019695Y003218D01*
X019695Y003217D01*
X019696Y003215D01*
X019696Y003214D01*
X019697Y003213D01*
X019697Y003213D01*
X019698Y003212D01*
X019698Y003212D01*
X019698Y003211D01*
X019698Y003211D01*
X019699Y003210D01*
X019701Y003209D01*
X019702Y003208D01*
X019703Y003207D01*
X019704Y003206D01*
X019705Y003206D01*
X019707Y003205D01*
X019708Y003205D01*
X019709Y003205D01*
X019710Y003204D01*
X019711Y003204D01*
X019711Y003204D01*
X019712D01*
X019712Y003204D01*
X019713D01*
X019715Y003204D01*
X019716Y003204D01*
X019718Y003205D01*
X019720Y003206D01*
X019721Y003206D01*
X019723Y003207D01*
X019724Y003208D01*
X019725Y003209D01*
X019726Y003210D01*
X019727Y003211D01*
X019728Y003211D01*
X019728Y003212D01*
X019729Y003213D01*
X019729Y003213D01*
X019729Y003213D01*
X019729Y003214D01*
X019730Y003215D01*
X019731Y003216D01*
X019731Y003218D01*
X019732Y003220D01*
X019732Y003223D01*
X019733Y003227D01*
X019733Y003228D01*
X019733Y003230D01*
X019733Y003231D01*
Y003233D01*
X019733Y003234D01*
Y003234D01*
Y003235D01*
Y003235D01*
X019733Y003238D01*
X019733Y003240D01*
X019733Y003242D01*
X019732Y003244D01*
X019732Y003246D01*
X019731Y003248D01*
X019731Y003249D01*
X019730Y003251D01*
X019730Y003252D01*
X019729Y003253D01*
X019729Y003254D01*
X019728Y003254D01*
X019728Y003255D01*
X019728Y003255D01*
X019728Y003256D01*
X019728Y003256D01*
X019726Y003257D01*
X019725Y003258D01*
X019724Y003259D01*
X019723Y003260D01*
X019721Y003260D01*
X019720Y003261D01*
X019719Y003262D01*
X019718Y003262D01*
X019717Y003262D01*
X019716Y003262D01*
X019715Y003263D01*
X019714Y003263D01*
X019714Y003263D01*
D02*
G37*
G36*
X020859Y003295D02*
X020858D01*
X020855Y003295D01*
X020852Y003294D01*
X020850Y003294D01*
X020847Y003293D01*
X020845Y003292D01*
X020843Y003291D01*
X020841Y003290D01*
X020839Y003289D01*
X020837Y003288D01*
X020836Y003287D01*
X020835Y003286D01*
X020834Y003286D01*
X020833Y003285D01*
X020833Y003284D01*
X020832Y003284D01*
X020832Y003284D01*
X020830Y003282D01*
X020829Y003279D01*
X020828Y003277D01*
X020827Y003274D01*
X020826Y003272D01*
X020825Y003269D01*
X020824Y003266D01*
X020824Y003263D01*
X020823Y003261D01*
X020823Y003259D01*
X020823Y003257D01*
X020823Y003255D01*
X020823Y003254D01*
Y003253D01*
X020822Y003253D01*
Y003252D01*
Y003252D01*
Y003251D01*
Y003251D01*
Y003251D01*
X020823Y003247D01*
X020823Y003243D01*
X020823Y003240D01*
X020824Y003236D01*
X020825Y003234D01*
X020826Y003231D01*
X020827Y003228D01*
X020827Y003226D01*
X020828Y003224D01*
X020829Y003222D01*
X020830Y003221D01*
X020831Y003220D01*
X020832Y003219D01*
X020832Y003218D01*
X020832Y003218D01*
X020832Y003218D01*
X020834Y003216D01*
X020836Y003214D01*
X020838Y003213D01*
X020841Y003211D01*
X020843Y003210D01*
X020845Y003209D01*
X020847Y003209D01*
X020849Y003208D01*
X020851Y003208D01*
X020852Y003207D01*
X020854Y003207D01*
X020855Y003207D01*
X020856Y003207D01*
X020857Y003207D01*
X020858D01*
X020861Y003207D01*
X020863Y003207D01*
X020866Y003208D01*
X020868Y003208D01*
X020871Y003209D01*
X020873Y003210D01*
X020875Y003211D01*
X020876Y003212D01*
X020878Y003213D01*
X020879Y003214D01*
X020881Y003215D01*
X020882Y003216D01*
X020882Y003217D01*
X020883Y003217D01*
X020883Y003218D01*
X020883Y003218D01*
X020885Y003220D01*
X020887Y003222D01*
X020888Y003225D01*
X020889Y003228D01*
X020890Y003230D01*
X020891Y003233D01*
X020892Y003236D01*
X020892Y003238D01*
X020893Y003241D01*
X020893Y003243D01*
X020893Y003245D01*
X020893Y003247D01*
X020893Y003249D01*
X020893Y003249D01*
Y003250D01*
Y003250D01*
Y003250D01*
Y003251D01*
Y003251D01*
X020893Y003255D01*
X020893Y003258D01*
X020892Y003262D01*
X020892Y003265D01*
X020891Y003268D01*
X020890Y003271D01*
X020889Y003273D01*
X020888Y003276D01*
X020888Y003277D01*
X020887Y003279D01*
X020886Y003281D01*
X020885Y003282D01*
X020885Y003283D01*
X020884Y003283D01*
X020884Y003284D01*
X020884Y003284D01*
X020882Y003286D01*
X020880Y003287D01*
X020878Y003289D01*
X020876Y003290D01*
X020873Y003291D01*
X020871Y003292D01*
X020869Y003293D01*
X020867Y003293D01*
X020865Y003294D01*
X020863Y003294D01*
X020862Y003294D01*
X020861Y003295D01*
X020859Y003295D01*
X020859Y003295D01*
D02*
G37*
G36*
X020628Y003106D02*
X020627D01*
X020625Y003105D01*
X020624Y003105D01*
X020623Y003105D01*
X020621Y003104D01*
X020620Y003104D01*
X020620Y003103D01*
X020619Y003103D01*
X020619Y003103D01*
X020618Y003102D01*
X020618Y003101D01*
X020617Y003100D01*
X020616Y003098D01*
X020615Y003096D01*
X020614Y003094D01*
X020614Y003093D01*
X020614Y003093D01*
X020614Y003092D01*
X020613Y003092D01*
X020613Y003091D01*
Y003091D01*
X020613Y003090D01*
X020613Y003088D01*
X020612Y003085D01*
X020612Y003083D01*
X020612Y003080D01*
X020612Y003078D01*
X020611Y003075D01*
X020611Y003073D01*
X020611Y003070D01*
X020611Y003068D01*
Y003066D01*
X020611Y003064D01*
Y003063D01*
Y003062D01*
Y003061D01*
Y003061D01*
Y003061D01*
Y003061D01*
Y003060D01*
Y003056D01*
X020611Y003053D01*
X020611Y003049D01*
X020611Y003046D01*
X020612Y003043D01*
X020612Y003040D01*
X020612Y003038D01*
X020612Y003036D01*
X020613Y003034D01*
X020613Y003033D01*
X020613Y003031D01*
X020613Y003030D01*
X020613Y003030D01*
X020614Y003029D01*
X020614Y003029D01*
Y003028D01*
X020614Y003027D01*
X020614Y003026D01*
X020615Y003025D01*
X020615Y003024D01*
X020616Y003023D01*
X020616Y003022D01*
X020617Y003021D01*
X020618Y003020D01*
X020618Y003019D01*
X020619Y003018D01*
X020619Y003018D01*
X020620Y003017D01*
X020622Y003017D01*
X020623Y003016D01*
X020624Y003016D01*
X020625Y003016D01*
X020626Y003016D01*
X020627Y003016D01*
X020627D01*
X020629Y003016D01*
X020630Y003016D01*
X020631Y003016D01*
X020633Y003017D01*
X020634Y003017D01*
X020634Y003018D01*
X020635Y003018D01*
X020635Y003018D01*
X020636Y003019D01*
X020636Y003020D01*
X020637Y003021D01*
X020638Y003023D01*
X020639Y003025D01*
X020640Y003027D01*
X020640Y003027D01*
X020640Y003028D01*
X020640Y003029D01*
X020641Y003029D01*
X020641Y003029D01*
Y003030D01*
X020641Y003031D01*
X020641Y003033D01*
X020642Y003036D01*
X020642Y003038D01*
X020642Y003040D01*
X020642Y003043D01*
X020643Y003046D01*
X020643Y003048D01*
X020643Y003051D01*
X020643Y003053D01*
Y003055D01*
X020643Y003057D01*
Y003058D01*
Y003059D01*
Y003059D01*
Y003060D01*
Y003060D01*
Y003060D01*
Y003060D01*
Y003065D01*
X020643Y003068D01*
X020643Y003072D01*
X020643Y003075D01*
X020642Y003078D01*
X020642Y003080D01*
X020642Y003083D01*
X020642Y003085D01*
X020641Y003087D01*
X020641Y003088D01*
X020641Y003090D01*
X020641Y003091D01*
X020641Y003091D01*
X020641Y003092D01*
X020640Y003092D01*
Y003092D01*
X020640Y003094D01*
X020640Y003095D01*
X020639Y003096D01*
X020639Y003097D01*
X020638Y003098D01*
X020638Y003099D01*
X020637Y003100D01*
X020636Y003101D01*
X020636Y003102D01*
X020635Y003103D01*
X020635Y003103D01*
X020634Y003104D01*
X020632Y003104D01*
X020631Y003105D01*
X020630Y003105D01*
X020629Y003105D01*
X020628Y003106D01*
D02*
G37*
G36*
X020280D02*
X020279D01*
X020278Y003105D01*
X020276Y003105D01*
X020275Y003105D01*
X020274Y003104D01*
X020273Y003104D01*
X020272Y003103D01*
X020272Y003103D01*
X020271Y003103D01*
X020271Y003102D01*
X020270Y003101D01*
X020269Y003100D01*
X020268Y003098D01*
X020267Y003096D01*
X020266Y003094D01*
X020266Y003093D01*
X020266Y003093D01*
X020266Y003092D01*
X020266Y003092D01*
X020266Y003091D01*
Y003091D01*
X020265Y003090D01*
X020265Y003088D01*
X020264Y003085D01*
X020264Y003083D01*
X020264Y003080D01*
X020264Y003078D01*
X020264Y003075D01*
X020263Y003073D01*
X020263Y003070D01*
X020263Y003068D01*
Y003066D01*
X020263Y003064D01*
Y003063D01*
Y003062D01*
Y003061D01*
Y003061D01*
Y003061D01*
Y003061D01*
Y003060D01*
Y003056D01*
X020263Y003053D01*
X020263Y003049D01*
X020264Y003046D01*
X020264Y003043D01*
X020264Y003040D01*
X020264Y003038D01*
X020264Y003036D01*
X020265Y003034D01*
X020265Y003033D01*
X020265Y003031D01*
X020265Y003030D01*
X020266Y003030D01*
X020266Y003029D01*
X020266Y003029D01*
Y003028D01*
X020266Y003027D01*
X020267Y003026D01*
X020267Y003025D01*
X020267Y003024D01*
X020268Y003023D01*
X020268Y003022D01*
X020269Y003021D01*
X020270Y003020D01*
X020271Y003019D01*
X020271Y003018D01*
X020271Y003018D01*
X020273Y003017D01*
X020274Y003017D01*
X020275Y003016D01*
X020277Y003016D01*
X020278Y003016D01*
X020278Y003016D01*
X020279Y003016D01*
X020279D01*
X020281Y003016D01*
X020282Y003016D01*
X020284Y003016D01*
X020285Y003017D01*
X020286Y003017D01*
X020286Y003018D01*
X020287Y003018D01*
X020287Y003018D01*
X020288Y003019D01*
X020288Y003020D01*
X020289Y003021D01*
X020290Y003023D01*
X020291Y003025D01*
X020292Y003027D01*
X020292Y003027D01*
X020292Y003028D01*
X020293Y003029D01*
X020293Y003029D01*
X020293Y003029D01*
Y003030D01*
X020293Y003031D01*
X020294Y003033D01*
X020294Y003036D01*
X020294Y003038D01*
X020294Y003040D01*
X020295Y003043D01*
X020295Y003046D01*
X020295Y003048D01*
X020295Y003051D01*
X020295Y003053D01*
Y003055D01*
X020295Y003057D01*
Y003058D01*
Y003059D01*
Y003059D01*
Y003060D01*
Y003060D01*
Y003060D01*
Y003060D01*
Y003065D01*
X020295Y003068D01*
X020295Y003072D01*
X020295Y003075D01*
X020295Y003078D01*
X020294Y003080D01*
X020294Y003083D01*
X020294Y003085D01*
X020294Y003087D01*
X020293Y003088D01*
X020293Y003090D01*
X020293Y003091D01*
X020293Y003091D01*
X020293Y003092D01*
X020293Y003092D01*
Y003092D01*
X020292Y003094D01*
X020292Y003095D01*
X020291Y003096D01*
X020291Y003097D01*
X020290Y003098D01*
X020290Y003099D01*
X020289Y003100D01*
X020288Y003101D01*
X020288Y003102D01*
X020287Y003103D01*
X020287Y003103D01*
X020286Y003104D01*
X020284Y003104D01*
X020283Y003105D01*
X020282Y003105D01*
X020281Y003105D01*
X020280Y003106D01*
D02*
G37*
G36*
X020081Y003106D02*
X020080D01*
X020079Y003105D01*
X020077Y003105D01*
X020076Y003105D01*
X020075Y003104D01*
X020074Y003104D01*
X020073Y003103D01*
X020073Y003103D01*
X020073Y003103D01*
X020072Y003102D01*
X020071Y003101D01*
X020070Y003100D01*
X020069Y003098D01*
X020068Y003096D01*
X020068Y003094D01*
X020067Y003093D01*
X020067Y003093D01*
X020067Y003092D01*
X020067Y003092D01*
X020067Y003091D01*
Y003091D01*
X020066Y003090D01*
X020066Y003088D01*
X020066Y003085D01*
X020065Y003083D01*
X020065Y003080D01*
X020065Y003078D01*
X020065Y003075D01*
X020065Y003073D01*
X020065Y003070D01*
X020065Y003068D01*
Y003066D01*
X020064Y003064D01*
Y003063D01*
Y003062D01*
Y003061D01*
Y003061D01*
Y003061D01*
Y003061D01*
Y003060D01*
Y003056D01*
X020065Y003053D01*
X020065Y003049D01*
X020065Y003046D01*
X020065Y003043D01*
X020065Y003040D01*
X020065Y003038D01*
X020066Y003036D01*
X020066Y003034D01*
X020066Y003033D01*
X020066Y003031D01*
X020067Y003030D01*
X020067Y003030D01*
X020067Y003029D01*
X020067Y003029D01*
Y003028D01*
X020067Y003027D01*
X020068Y003026D01*
X020068Y003025D01*
X020069Y003024D01*
X020069Y003023D01*
X020070Y003022D01*
X020070Y003021D01*
X020071Y003020D01*
X020072Y003019D01*
X020072Y003018D01*
X020072Y003018D01*
X020074Y003017D01*
X020075Y003017D01*
X020077Y003016D01*
X020078Y003016D01*
X020079Y003016D01*
X020080Y003016D01*
X020080Y003016D01*
X020080D01*
X020082Y003016D01*
X020084Y003016D01*
X020085Y003016D01*
X020086Y003017D01*
X020087Y003017D01*
X020088Y003018D01*
X020088Y003018D01*
X020088Y003018D01*
X020089Y003019D01*
X020090Y003020D01*
X020091Y003021D01*
X020092Y003023D01*
X020093Y003025D01*
X020093Y003027D01*
X020093Y003027D01*
X020094Y003028D01*
X020094Y003029D01*
X020094Y003029D01*
X020094Y003029D01*
Y003030D01*
X020094Y003031D01*
X020095Y003033D01*
X020095Y003036D01*
X020095Y003038D01*
X020096Y003040D01*
X020096Y003043D01*
X020096Y003046D01*
X020096Y003048D01*
X020096Y003051D01*
X020096Y003053D01*
Y003055D01*
X020096Y003057D01*
Y003058D01*
Y003059D01*
Y003059D01*
Y003060D01*
Y003060D01*
Y003060D01*
Y003060D01*
Y003065D01*
X020096Y003068D01*
X020096Y003072D01*
X020096Y003075D01*
X020096Y003078D01*
X020095Y003080D01*
X020095Y003083D01*
X020095Y003085D01*
X020095Y003087D01*
X020095Y003088D01*
X020094Y003090D01*
X020094Y003091D01*
X020094Y003091D01*
X020094Y003092D01*
X020094Y003092D01*
Y003092D01*
X020093Y003094D01*
X020093Y003095D01*
X020093Y003096D01*
X020092Y003097D01*
X020092Y003098D01*
X020091Y003099D01*
X020090Y003100D01*
X020090Y003101D01*
X020089Y003102D01*
X020089Y003103D01*
X020088Y003103D01*
X020087Y003104D01*
X020086Y003104D01*
X020084Y003105D01*
X020083Y003105D01*
X020082Y003105D01*
X020081Y003106D01*
D02*
G37*
%LPD*%
D11*
X009788Y006515D02*
X009813Y006490D01*
X009900D01*
X009906Y006485D01*
Y006465D02*
Y006485D01*
X007810Y006375D02*
X007880Y006445D01*
X007890D02*
Y006535D01*
X007330Y006455D02*
Y006535D01*
Y006455D02*
X007410Y006375D01*
D14*
X011200Y004794D02*
Y004796D01*
X011171Y004825D02*
X011200Y004796D01*
X011140Y004825D02*
X011171D01*
X011070Y004895D02*
Y004895D01*
Y004895D02*
X011140Y004825D01*
X010428Y005193D02*
X010430Y005195D01*
X010430Y005195D01*
X010339Y005193D02*
X010428D01*
X010310Y005175D02*
X010321D01*
X010430Y005195D02*
X010600D01*
X020590Y007155D02*
Y007425D01*
X020600Y007435D01*
X020370Y005565D02*
Y006935D01*
X020590Y007155D01*
X012690Y005125D02*
X019930D01*
X020370Y005565D01*
X012610Y005205D02*
Y005245D01*
Y005205D02*
X012690Y005125D01*
X012670Y005220D02*
Y005305D01*
Y005220D02*
X012715Y005175D01*
X019900D01*
X012480Y005375D02*
X012610Y005245D01*
X012540Y005435D02*
X012670Y005305D01*
X012750Y005245D02*
X013045Y005540D01*
X012480Y005375D02*
Y006775D01*
X012420Y006825D02*
X012430D01*
X012480Y006775D01*
X020310Y006984D02*
X020509Y007183D01*
X020310Y005585D02*
Y006984D01*
X019900Y005175D02*
X020310Y005585D01*
X012540Y005435D02*
Y006530D01*
X013045Y005540D02*
X016580D01*
X012980Y005685D02*
X013000Y005665D01*
X012620Y006610D02*
Y006885D01*
X012540Y006530D02*
X012620Y006610D01*
X016536Y007306D02*
X016580Y007262D01*
Y007125D02*
Y007262D01*
X014670Y006045D02*
X016577D01*
X011993Y007045D02*
X012405D01*
X011950Y007003D02*
X011993Y007045D01*
X012036Y007085D02*
X012421D01*
X011974Y007148D02*
X012036Y007085D01*
X012415Y007125D02*
X012915Y007625D01*
X012053Y007125D02*
X012415D01*
X011990Y007188D02*
X012053Y007125D01*
X012395Y007165D02*
X012895Y007665D01*
X012069Y007165D02*
X012395D01*
X012007Y007228D02*
X012069Y007165D01*
X012446Y007061D02*
X017664D01*
X012421Y007085D02*
X012446Y007061D01*
X012429Y007021D02*
X013144D01*
X012405Y007045D02*
X012429Y007021D01*
X012915Y007625D02*
X017662D01*
X012408Y007235D02*
X012878Y007705D01*
X012391Y007275D02*
X012861Y007745D01*
X012375Y007315D02*
X012845Y007785D01*
X019052Y006929D02*
X019239D01*
X018933Y006810D02*
X019052Y006929D01*
X018465Y006810D02*
X018933D01*
X018260Y006605D02*
X018465Y006810D01*
X018260Y005725D02*
Y006605D01*
X017990Y005455D02*
X018260Y005725D01*
X013130Y005455D02*
X017990D01*
X012730Y005245D02*
X012750D01*
X012980Y005685D02*
Y006055D01*
X016580Y005540D02*
X016699Y005659D01*
X016571Y005785D02*
X016699Y005913D01*
X014560Y005785D02*
X016571D01*
X014240Y006105D02*
X014560Y005785D01*
X014430Y006285D02*
X014670Y006045D01*
X014660Y006295D02*
X016573D01*
X016411Y006556D02*
X016580Y006725D01*
X014719Y006556D02*
X016411D01*
X013360Y006805D02*
X016470D01*
X012851Y007306D02*
X016536D01*
X012942Y007575D02*
X016561D01*
X012895Y007665D02*
X017679D01*
X012878Y007705D02*
X017695D01*
X012861Y007745D02*
X017720D01*
X012845Y007785D02*
X017765D01*
X014670Y006605D02*
X014719Y006556D01*
X014080Y006105D02*
X014240D01*
X013890Y006295D02*
X014080Y006105D01*
X013200Y006275D02*
X013220Y006295D01*
X013890D01*
X013190Y006275D02*
X013200D01*
X016577Y006045D02*
X016699Y006167D01*
X014030Y006285D02*
X014430D01*
X016573Y006295D02*
X016699Y006421D01*
X017764Y006119D02*
Y006702D01*
X017810Y006326D02*
X017969Y006167D01*
X017810Y006326D02*
Y006915D01*
X012810Y006545D02*
X014410D01*
X014660Y006295D01*
X012620Y006355D02*
X012810Y006545D01*
X016470Y006805D02*
X016672Y007007D01*
X016820Y006975D02*
Y006975D01*
X016788Y007007D02*
X016820Y006975D01*
X016672Y007007D02*
X016788D01*
X016820Y006975D02*
X016990Y006805D01*
X017660D01*
X016580Y006810D02*
X016699Y006929D01*
X016580Y006725D02*
Y006810D01*
X013980Y006605D02*
X014670D01*
X012740Y007195D02*
X012851Y007306D01*
X012610Y007243D02*
X012942Y007575D01*
X016561D02*
X016699Y007437D01*
X017662Y007625D02*
X017850Y007438D01*
X017679Y007665D02*
X017909Y007435D01*
X017695Y007705D02*
X017966Y007435D01*
X018090Y007185D02*
Y007460D01*
X017765Y007785D02*
X018090Y007460D01*
X012390Y007275D02*
X012391D01*
X012370Y007255D02*
X012390Y007275D01*
X012360Y007245D02*
X012370Y007255D01*
X012103Y007245D02*
X012360D01*
X012040Y007308D02*
X012103Y007245D01*
X011661Y007308D02*
X012040D01*
X012374Y007315D02*
X012375D01*
X012354Y007295D02*
X012374Y007315D01*
X012109Y007295D02*
X012354D01*
X011759Y007645D02*
X012109Y007295D01*
X011776Y007685D02*
X012086Y007375D01*
X012610Y007235D02*
Y007243D01*
X012950Y006085D02*
Y006095D01*
Y006085D02*
X012980Y006055D01*
X010890Y006285D02*
X010916Y006312D01*
X011468Y006375D02*
X011471Y006372D01*
X017764Y006119D02*
X017969Y005913D01*
X017660Y006805D02*
X017764Y006702D01*
X013144Y007021D02*
X013360Y006805D01*
X017664Y007061D02*
X017810Y006915D01*
X017850Y006540D02*
Y007438D01*
Y006540D02*
X017969Y006421D01*
X012377Y007205D02*
X012407Y007235D01*
X012086Y007205D02*
X012377D01*
X012407Y007235D02*
X012408D01*
X017720Y007745D02*
X018030Y007435D01*
X017966Y006932D02*
Y007435D01*
X017909Y006735D02*
Y007435D01*
Y006735D02*
X017969Y006675D01*
X011945Y006855D02*
X012017Y006782D01*
X011190Y006855D02*
X011945D01*
X011880Y006575D02*
X012360D01*
X011790Y006665D02*
X011880Y006575D01*
X011420Y006665D02*
X011790D01*
X017966Y006932D02*
X017969Y006929D01*
X011248Y006515D02*
X011248Y006515D01*
X011360D01*
X011460Y006575D02*
X011475D01*
X010244Y006294D02*
X010252Y006285D01*
X010242Y006295D02*
X010244Y006294D01*
X010100Y006295D02*
X010242D01*
X009922Y006355D02*
X010040D01*
X010100Y006295D01*
X009969Y006307D02*
X010090Y006186D01*
X009268Y006307D02*
X009969D01*
X009953Y006267D02*
X010084Y006136D01*
X009108Y006267D02*
X009953D01*
X009910Y006367D02*
Y006461D01*
Y006367D02*
X009922Y006355D01*
X009906Y006465D02*
X009910Y006461D01*
X009090Y006285D02*
X009108Y006267D01*
X007440Y003095D02*
X007445Y003100D01*
X007915D02*
X007920Y003105D01*
X010514Y005819D02*
Y005824D01*
X010294Y005565D02*
X010404Y005675D01*
X010180Y005565D02*
X010294D01*
X010404Y005675D02*
X011100D01*
X010300Y005755D02*
X010310Y005765D01*
X010180Y005755D02*
X010300D01*
X009817Y004002D02*
X009820Y003999D01*
X009817Y004256D02*
X009829Y004268D01*
X009820Y004322D02*
X009829Y004313D01*
X009820Y003975D02*
X009840Y003955D01*
X009760Y003975D02*
Y003999D01*
X009817Y004116D02*
Y004256D01*
X009820Y004322D02*
Y004783D01*
X009829Y004268D02*
Y004313D01*
X009763Y004002D02*
Y004093D01*
X009817Y004116D02*
X009817Y004116D01*
X009763Y004094D02*
X009763Y004093D01*
X009760Y003999D02*
X009763Y004002D01*
X009820Y003975D02*
Y003999D01*
X009740Y003955D02*
X009760Y003975D01*
X009763Y004094D02*
Y004278D01*
X009775Y004291D01*
X009260Y004035D02*
Y004362D01*
X009649Y004751D01*
X009200Y004046D02*
Y004204D01*
X009200Y004206D02*
X009201Y004205D01*
X009649Y004751D02*
Y004794D01*
X009650Y004795D01*
X009200Y004206D02*
Y004495D01*
X009200Y004204D02*
X009201Y004205D01*
X009890Y004276D02*
Y004815D01*
X011049Y003173D02*
X011142D01*
X009930Y004292D02*
X011049Y003173D01*
X010780Y003175D02*
Y003386D01*
X009930Y004292D02*
Y004865D01*
X009890Y004276D02*
X010780Y003386D01*
X009460Y005234D02*
X009471D01*
X009589Y005245D02*
X009590D01*
X009775Y004291D02*
Y004764D01*
X009502Y005037D02*
X009775Y004764D01*
X009471Y005234D02*
X009502Y005203D01*
X009460Y005234D02*
Y005245D01*
X009502Y005037D02*
Y005203D01*
X009547Y005055D02*
X009820Y004783D01*
X009547Y005203D02*
X009589Y005245D01*
X009547Y005055D02*
Y005203D01*
X009817Y004002D02*
Y004116D01*
X009840Y003955D02*
Y003970D01*
X008710Y004365D02*
Y004485D01*
X009000Y004775D01*
X009640Y006465D02*
X009670Y006435D01*
X009590Y006465D02*
X009640D01*
X009638Y006605D02*
X009680Y006563D01*
X009678Y006526D02*
Y006561D01*
X009680Y006563D01*
X010660Y006856D02*
X010691Y006887D01*
X010727Y006945D02*
X011030D01*
X010560Y006835D02*
X010710Y006985D01*
X011060D01*
X010691Y006910D02*
X010727Y006945D01*
X010691Y006887D02*
Y006910D01*
X010660Y006845D02*
Y006856D01*
X010725Y006825D02*
X010810D01*
X010660Y006760D02*
X010725Y006825D01*
X010660Y006745D02*
Y006760D01*
X010500Y007565D02*
X010690Y007375D01*
Y007292D02*
Y007375D01*
X008650Y005350D02*
X008785Y005485D01*
X008879Y004053D02*
X009108D01*
X009110Y004055D01*
X008610Y005395D02*
X008782Y005567D01*
X008610Y004266D02*
Y005395D01*
Y004266D02*
X008884Y003992D01*
X008920Y006415D02*
Y006420D01*
X008781Y006494D02*
X008841D01*
X008885Y006455D02*
X008920Y006420D01*
X008919Y006285D02*
X008920Y006285D01*
X008880Y006455D02*
X008885D01*
X008841Y006494D02*
X008880Y006455D01*
X008340Y006225D02*
Y007085D01*
X008550Y007295D01*
X010640Y004075D02*
X010730D01*
X010920D02*
X011050D01*
X011822Y005728D02*
Y005768D01*
X011830Y005775D01*
X011317Y005681D02*
Y005685D01*
X011400Y005681D02*
X011404Y005685D01*
X011317Y005685D02*
X011319Y005686D01*
X009919Y007737D02*
X009927Y007744D01*
X011871Y007746D02*
X011872Y007748D01*
X009927Y007744D02*
X009949D01*
X011872Y007748D02*
X011991D01*
X010701Y007645D02*
X011759D01*
X009953Y007685D02*
X011776D01*
X009949Y007744D02*
X009951Y007746D01*
X010670Y007625D02*
X010681D01*
X010701Y007645D01*
X009944Y007677D02*
X009953Y007685D01*
X010590Y007555D02*
X010730Y007415D01*
X010590Y007555D02*
Y007625D01*
X009838Y007525D02*
X010060D01*
X009788Y007475D02*
X009838Y007525D01*
X010060D02*
X010070Y007515D01*
X011298D02*
X011338Y007475D01*
X010868Y007515D02*
X011298D01*
X009640Y007095D02*
X009870D01*
X009900Y006948D02*
Y007065D01*
X009870Y007095D02*
X009900Y007065D01*
X009282Y006888D02*
X010403D01*
X009382Y006848D02*
X010386D01*
X009430Y006808D02*
X010370D01*
X009635Y006768D02*
X010292D01*
X009603Y006735D02*
X009635Y006768D01*
X010625Y006665D02*
X010644D01*
X010403Y006888D02*
X010625Y006665D01*
X010386Y006848D02*
X010674Y006560D01*
Y006466D02*
Y006560D01*
X010370Y006808D02*
X010565Y006612D01*
Y006465D02*
Y006612D01*
X008785Y005485D02*
X008880D01*
X010570Y005085D02*
X010590Y005105D01*
X010904Y003375D02*
X011150D01*
X010510Y005111D02*
X010526Y005096D01*
X011991Y007748D02*
X012000Y007739D01*
Y007605D02*
Y007739D01*
X011110Y005015D02*
Y005025D01*
Y005015D02*
X011110Y005015D01*
X011158D01*
X011160Y005013D01*
X009680Y005015D02*
X009890Y004815D01*
X010290Y004795D02*
Y004855D01*
X011942Y005595D02*
X012010Y005663D01*
X011750Y005595D02*
X011942D01*
X011540Y005445D02*
X011822Y005728D01*
X012010Y005663D02*
Y005775D01*
X011830Y005764D02*
Y005775D01*
X011750Y005305D02*
X011820Y005375D01*
X011921Y005524D02*
X012026Y005419D01*
X011910Y005524D02*
X011921D01*
X012026Y005301D02*
Y005419D01*
X011970Y006215D02*
X012014Y006172D01*
X010570Y003765D02*
Y005085D01*
X010793Y003543D02*
X010821D01*
X010526Y003753D02*
X010904Y003375D01*
X010821Y003543D02*
X010894Y003469D01*
X010526Y003753D02*
Y005096D01*
X010570Y003765D02*
X010793Y003543D01*
X008550Y007583D02*
X008553Y007586D01*
X008550Y007295D02*
Y007583D01*
X008880Y005825D02*
Y005830D01*
X008875Y005835D02*
X008880Y005830D01*
X010655Y005345D02*
Y005350D01*
X010402Y005265D02*
X010534D01*
X010720Y005745D02*
X010731D01*
X010531Y006136D02*
X010680Y006285D01*
X010510Y006186D02*
X010649Y006325D01*
X011960Y005375D02*
Y005375D01*
X011850Y005265D02*
X011960Y005375D01*
X011515Y005445D02*
X011540D01*
X011505Y005435D02*
X011515Y005445D01*
X011455Y005435D02*
X011505D01*
X011555Y005400D02*
X011750Y005595D01*
X011526Y005400D02*
X011555D01*
X011521Y005395D02*
X011526Y005400D01*
X011439Y005395D02*
X011521D01*
X011160Y005615D02*
X011480D01*
X011319Y005686D02*
Y005774D01*
X011445Y005445D02*
X011455Y005435D01*
X011130Y005445D02*
X011445D01*
X011434Y005400D02*
X011439Y005395D01*
X011077Y005400D02*
X011434D01*
X011460Y005987D02*
Y006095D01*
X010292Y006768D02*
X010350Y006709D01*
X010690Y007045D02*
X011136D01*
X010764Y007091D02*
X011126D01*
X010530Y007325D02*
X010764Y007091D01*
X010794Y007131D02*
X011109D01*
X010638Y007288D02*
X010794Y007131D01*
X010811Y007171D02*
X011092D01*
X010690Y007292D02*
X010811Y007171D01*
X010350Y006470D02*
Y006709D01*
X010410Y007325D02*
X010690Y007045D01*
X010810Y006825D02*
X010880Y006755D01*
X010810Y006715D02*
X011314D01*
X010760Y006665D02*
X010810Y006715D01*
X011030Y006945D02*
X011170Y006805D01*
X011060Y006985D02*
X011190Y006855D01*
X010644Y006665D02*
X010760Y006549D01*
X009218Y006503D02*
Y006508D01*
X010520Y007445D02*
X010638Y007328D01*
Y007288D02*
Y007328D01*
X010765Y007315D02*
X011189D01*
X010730Y007350D02*
X010765Y007315D01*
X010730Y007350D02*
Y007400D01*
X010730Y007400D01*
Y007415D01*
X010790Y007375D02*
X011185D01*
X011251Y007253D02*
X011663D01*
X011677Y007268D02*
X012024D01*
X011267Y007293D02*
X011646D01*
X008810Y006285D02*
X008919D01*
X009943Y007677D02*
X009944D01*
X009922Y007655D02*
X009943Y007677D01*
X009951Y007746D02*
X011871D01*
X009920Y007655D02*
X009922D01*
X011139Y007104D02*
X011221D01*
X011126Y007091D02*
X011139Y007104D01*
X011221D02*
X011234Y007091D01*
X011833D01*
X011890Y007148D01*
X011974D01*
X011205Y007064D02*
X011224Y007045D01*
X011155Y007064D02*
X011205D01*
X011136Y007045D02*
X011155Y007064D01*
X011873Y007188D02*
X011990D01*
X011817Y007131D02*
X011873Y007188D01*
X011251Y007131D02*
X011817D01*
X011238Y007144D02*
X011251Y007131D01*
X011122Y007144D02*
X011238D01*
X011109Y007131D02*
X011122Y007144D01*
X011857Y007228D02*
X012007D01*
X011800Y007171D02*
X011857Y007228D01*
X011268Y007171D02*
X011800D01*
X011255Y007184D02*
X011268Y007171D01*
X011105Y007184D02*
X011255D01*
X011092Y007171D02*
X011105Y007184D01*
X011663Y007253D02*
X011677Y007268D01*
X011890Y007003D02*
X011950D01*
X011847Y007045D02*
X011890Y007003D01*
X011224Y007045D02*
X011847D01*
X011189Y007315D02*
X011251Y007253D01*
X011646Y007293D02*
X011661Y007308D01*
X011185Y007375D02*
X011267Y007293D01*
X012024Y007268D02*
X012086Y007205D01*
X012086Y007375D02*
X012350D01*
X010680Y006285D02*
X010890D01*
X010649Y006325D02*
X010870D01*
X010920Y006375D01*
X012333Y006372D02*
X012350D01*
X011100Y005675D02*
X011160Y005615D01*
X009680Y005015D02*
Y005185D01*
X009732Y006650D02*
X009738Y006655D01*
X009670Y005285D02*
X009770Y005185D01*
X009668Y006710D02*
X010004D01*
X010916Y006312D02*
X012271D01*
X010920Y006375D02*
X011468D01*
X011450Y005977D02*
X011460Y005987D01*
X011058Y005517D02*
X011130Y005445D01*
X009160Y006415D02*
X009268Y006307D01*
X010450Y005755D02*
X010514Y005819D01*
X011490Y006775D02*
Y006793D01*
X011170Y006805D02*
X011478D01*
X011490Y006793D01*
X011330Y006755D02*
X011420Y006665D01*
X010880Y006755D02*
X011330D01*
X011314Y006715D02*
X011454Y006575D01*
X009666Y006708D02*
X009668Y006710D01*
X009440Y006735D02*
X009603D01*
X009590Y006605D02*
X009638D01*
X012271Y006312D02*
X012332Y006373D01*
X012333Y006372D01*
X009280Y006875D02*
Y006885D01*
X009200Y006795D02*
X009280Y006875D01*
X009275Y006655D02*
X009425Y006805D01*
X009428D02*
X009430Y006808D01*
X009425Y006805D02*
X009428D01*
X009280Y006885D02*
X009282Y006888D01*
X011650Y005755D02*
Y005807D01*
X011404Y005685D02*
X011580D01*
X011650Y005755D01*
X011351Y005807D02*
X011450D01*
X011319Y005774D02*
X011351Y005807D01*
X011650Y006215D02*
X011970D01*
X011650Y005977D02*
Y006215D01*
X011280Y006045D02*
X011375D01*
X011443Y005977D01*
X011450D01*
X010655Y005345D02*
X010695Y005305D01*
X010205Y005360D02*
X010307D01*
X010534Y005265D02*
X011850D01*
X011390Y005135D02*
X011402Y005148D01*
X011927Y004980D02*
X012081Y005134D01*
X011193Y005518D02*
X011480D01*
X010450Y005755D02*
X010450D01*
X010450D02*
X010600D01*
X010430D02*
X010450D01*
X011402Y005148D02*
X011873D01*
X011059Y005399D02*
X011076D01*
X011076Y005635D02*
X011193Y005518D01*
X010944Y005635D02*
X011076D01*
X010944Y005635D02*
X010944Y005635D01*
X010774Y005635D02*
X010944D01*
X010704Y005565D02*
X010774Y005635D01*
X010600Y005565D02*
X010704D01*
X011010Y005565D02*
X011029D01*
X011058Y005536D01*
Y005517D02*
Y005536D01*
X012020Y005575D02*
X012081Y005514D01*
X011736Y004980D02*
X011927D01*
X011419Y004663D02*
Y004673D01*
X011390Y004624D02*
Y004634D01*
X011429Y004673D02*
X011736Y004980D01*
X011419Y004673D02*
X011429D01*
X009770Y005025D02*
X009930Y004865D01*
X009770Y005025D02*
Y005185D01*
X009810Y005735D02*
X009846Y005699D01*
X009849Y005042D02*
X009996Y004895D01*
X009817Y005168D02*
X009846D01*
X009849Y005042D02*
Y005136D01*
X009846Y005168D02*
X009848Y005166D01*
X010015Y006465D02*
Y006573D01*
X009738Y006655D02*
X009934D01*
X010015Y006573D01*
X009830Y005365D02*
X009846Y005381D01*
Y005699D01*
X011454Y006575D02*
X011460D01*
X010004Y006710D02*
X010125Y006588D01*
Y006465D02*
Y006588D01*
X009848Y005137D02*
Y005166D01*
X009610Y005525D02*
X009700D01*
X009540Y005385D02*
X009620D01*
X009530Y005375D02*
X009540Y005385D01*
X012081Y005134D02*
Y005514D01*
X011873Y005148D02*
X012026Y005301D01*
X011390Y004634D02*
X011419Y004663D01*
X011474Y004879D02*
X011480Y004885D01*
X011390Y004879D02*
X011474D01*
X011390D02*
Y004964D01*
Y004794D02*
Y004879D01*
X011200Y004624D02*
Y004794D01*
Y004973D02*
Y005135D01*
Y004964D02*
Y004973D01*
X011160Y005013D02*
X011171D01*
X010741Y005755D02*
X011010D01*
X010731Y005745D02*
X010741Y005755D01*
X011035Y005375D02*
X011059Y005399D01*
X010730Y005185D02*
X010840D01*
X010630Y005375D02*
X010655Y005350D01*
X010695Y005305D02*
X011750D01*
X010534Y005265D02*
X010534Y005265D01*
X010190Y005375D02*
X010205Y005360D01*
X010307D02*
X010402Y005265D01*
X010840Y005465D02*
Y005565D01*
Y005375D02*
Y005465D01*
X011076Y005399D02*
X011077Y005400D01*
X011010Y005375D02*
X011035D01*
X011010Y005755D02*
X011010Y005755D01*
X010430Y005375D02*
Y005475D01*
X010430Y005565D02*
X010430Y005565D01*
Y005475D02*
Y005565D01*
X010020Y005755D02*
X010180D01*
X010840Y005185D02*
X010840Y005185D01*
X011010D01*
X010321Y005175D02*
X010339Y005193D01*
X010020Y005119D02*
Y005185D01*
X010020D02*
X010190D01*
X008390Y007285D02*
X008426Y007321D01*
Y007586D01*
X008240Y007285D02*
X008390D01*
X008807Y007586D02*
X008810Y007582D01*
Y007385D02*
Y007582D01*
X008900Y007295D02*
X009000D01*
X008810Y007385D02*
X008900Y007295D01*
X009380Y007100D02*
Y007515D01*
X009375Y007095D02*
X009380Y007100D01*
X009250Y007515D02*
X009378D01*
X009250Y007265D02*
Y007325D01*
Y007265D02*
X009280Y007235D01*
X009375Y007095D02*
X009450D01*
X009300D02*
X009375D01*
X008160Y005885D02*
X008410D01*
X008130Y005915D02*
X008160Y005885D01*
X008130Y005915D02*
Y005985D01*
X008650Y004283D02*
Y005350D01*
X008884Y003992D02*
X009146D01*
X009200Y004046D01*
X008650Y004283D02*
X008879Y004053D01*
X009230Y005070D02*
X009236Y005076D01*
Y005150D02*
X009250Y005164D01*
X009236Y005076D02*
Y005150D01*
X009250Y005164D02*
Y005176D01*
X009230Y005045D02*
Y005070D01*
X008910Y005045D02*
X009040D01*
X010084Y006136D02*
X010531D01*
X010090Y006186D02*
X010510D01*
X009090Y006415D02*
X009160D01*
X011171Y005013D02*
X011200Y004984D01*
Y004973D02*
Y004984D01*
X011190Y004625D02*
X011190Y004625D01*
X009520Y005385D02*
X009530Y005375D01*
X008915Y005875D02*
X009050D01*
X008875Y005835D02*
X008915Y005875D01*
X008690Y006742D02*
X008825Y006607D01*
X009118D02*
X009218Y006508D01*
X008825Y006607D02*
X009118D01*
X010674Y006466D02*
X010675Y006465D01*
X008860Y006655D02*
X009275D01*
X008690Y006742D02*
Y007005D01*
X009320Y006465D02*
X009420D01*
X009320Y006605D02*
X009420D01*
X009230Y006705D02*
X009344Y006819D01*
X008860Y006655D02*
Y006765D01*
X008870Y006775D01*
X010760Y006490D02*
X010786Y006465D01*
X009140Y006785D02*
X009150Y006795D01*
X009200D01*
X009020Y006705D02*
X009230D01*
X009000Y006725D02*
X009020Y006705D01*
X009000Y006725D02*
Y006785D01*
X008860D02*
X008870Y006775D01*
X009357Y006823D02*
X009382Y006848D01*
X008320Y005985D02*
X008400D01*
X010346Y006465D02*
X010350Y006470D01*
X009350Y006823D02*
X009357D01*
X010760Y006490D02*
Y006549D01*
X009600Y003235D02*
X009660Y003175D01*
X009600Y003235D02*
Y003350D01*
X009665Y003415D01*
X009690D01*
X009660Y003295D02*
X009745D01*
X009865Y003415D01*
X009890D01*
Y003605D02*
Y003720D01*
X009840Y003770D02*
X009890Y003720D01*
X009840Y003770D02*
Y003785D01*
X009690Y003605D02*
Y003720D01*
X009740Y003770D01*
Y003785D01*
X009340Y005525D02*
X009440D01*
X009250Y005385D02*
X009350D01*
X009050Y005875D02*
X009050Y005875D01*
X008310Y005995D02*
X008320Y005985D01*
X008120Y005995D02*
X008130Y005985D01*
X010250Y004895D02*
X010290Y004855D01*
X009848Y005137D02*
X009849Y005136D01*
X009996Y004895D02*
X010250D01*
X010430Y005775D02*
X010430Y005775D01*
X010020Y005395D02*
Y005545D01*
X010020Y005545D02*
X010020Y005545D01*
X011082Y003575D02*
X011140D01*
X010910Y003695D02*
Y003925D01*
X010818Y003603D02*
X010910Y003695D01*
X010990Y003667D02*
Y003925D01*
Y003667D02*
X011082Y003575D01*
X009400Y006585D02*
X009420Y006605D01*
D51*
X011390Y004794D02*
D03*
X011200D02*
D03*
X008480Y006455D02*
D03*
X008670D02*
D03*
X009040Y005045D02*
D03*
X009230D02*
D03*
X011200Y004964D02*
D03*
X011390D02*
D03*
X010252Y006285D02*
D03*
X010442D02*
D03*
X008880Y006125D02*
D03*
X009070D02*
D03*
X011390Y004624D02*
D03*
X011200D02*
D03*
Y005135D02*
D03*
X011390D02*
D03*
X009640Y007095D02*
D03*
X009450D02*
D03*
X009110D02*
D03*
X009300D02*
D03*
X008870Y003725D02*
D03*
X008680D02*
D03*
Y003505D02*
D03*
X008870D02*
D03*
X010640Y004446D02*
D03*
X010450D02*
D03*
Y004266D02*
D03*
X010640D02*
D03*
X011460Y006215D02*
D03*
X011650D02*
D03*
X007920Y003105D02*
D03*
X008110D02*
D03*
X008920Y004405D02*
D03*
X009110D02*
D03*
X008120Y005995D02*
D03*
X008310D02*
D03*
X007890Y006535D02*
D03*
X007700D02*
D03*
X007330D02*
D03*
X007520D02*
D03*
X007190Y003705D02*
D03*
X007380D02*
D03*
D56*
X009250Y007325D02*
D03*
Y007515D02*
D03*
X009050Y005685D02*
D03*
Y005875D02*
D03*
X010180Y005755D02*
D03*
Y005565D02*
D03*
X010840Y005385D02*
D03*
Y005195D02*
D03*
Y005755D02*
D03*
Y005565D02*
D03*
X010020Y005385D02*
D03*
Y005195D02*
D03*
X010020Y005755D02*
D03*
Y005565D02*
D03*
X010430D02*
D03*
Y005755D02*
D03*
X010430Y005195D02*
D03*
Y005385D02*
D03*
X011010Y005385D02*
D03*
Y005195D02*
D03*
Y005755D02*
D03*
Y005565D02*
D03*
X010190Y005385D02*
D03*
Y005195D02*
D03*
X010600Y005565D02*
D03*
Y005755D02*
D03*
X010600Y005195D02*
D03*
Y005385D02*
D03*
X009890Y003415D02*
D03*
Y003605D02*
D03*
X009690D02*
D03*
Y003415D02*
D03*
X008510Y005415D02*
D03*
Y005605D02*
D03*
X011280Y006045D02*
D03*
Y006235D02*
D03*
X010110Y004256D02*
D03*
Y004446D02*
D03*
X010280D02*
D03*
Y004256D02*
D03*
X010820D02*
D03*
Y004446D02*
D03*
X011400Y004255D02*
D03*
Y004445D02*
D03*
D57*
X009590Y006605D02*
D03*
X009420D02*
D03*
X009610Y005525D02*
D03*
X009440D02*
D03*
X009520Y005385D02*
D03*
X009350D02*
D03*
X009420Y006465D02*
D03*
X009590D02*
D03*
X009090Y006415D02*
D03*
X008920D02*
D03*
Y006285D02*
D03*
X009090D02*
D03*
D58*
X009140Y006955D02*
D03*
Y006785D02*
D03*
X009000D02*
D03*
Y006955D02*
D03*
X008860D02*
D03*
Y006785D02*
D03*
X009850Y005195D02*
D03*
Y005365D02*
D03*
X011450Y005977D02*
D03*
Y005807D02*
D03*
X011650D02*
D03*
Y005977D02*
D03*
D68*
X008426Y007586D02*
D03*
X008553D02*
D03*
X008680D02*
D03*
X008807D02*
D03*
D72*
X021398Y004029D02*
Y004283D01*
Y004029D02*
X021652D01*
X021398Y004283D02*
X021652D01*
X007110Y003375D02*
X007120Y003385D01*
X007110Y003136D02*
Y003375D01*
X007120Y003385D02*
X007150D01*
X007380Y003705D02*
X007481D01*
X011488Y004318D02*
Y004353D01*
X011425Y004255D02*
X011488Y004318D01*
X011400Y004255D02*
X011425D01*
X011488Y004353D02*
X011490Y004355D01*
X010820Y004446D02*
X010830Y004456D01*
X010830Y004456D02*
Y004515D01*
Y004456D02*
X010830Y004456D01*
X010110Y004446D02*
X010110Y004446D01*
Y004515D01*
X007238Y003107D02*
X007250Y003095D01*
X007110Y003136D02*
X007139Y003107D01*
X007238D01*
X010990Y004356D02*
X011107D01*
X011117Y004345D01*
X011120D01*
X009993Y004314D02*
X010026D01*
X009991Y004316D02*
X009993Y004314D01*
X010026D02*
X010085Y004256D01*
X008410Y006385D02*
X008480Y006455D01*
X008410Y006335D02*
Y006385D01*
X010972Y004451D02*
X011235D01*
X010890Y004573D02*
Y004724D01*
X012030Y004975D02*
Y004995D01*
X010456Y006465D02*
Y006625D01*
X011400Y004445D02*
X011520D01*
X011560Y004485D02*
Y004705D01*
X011770Y004915D01*
X011520Y004445D02*
X011560Y004485D01*
X011770Y004915D02*
X011970D01*
X012030Y004975D01*
X010967Y004456D02*
X010972Y004451D01*
X010890Y004573D02*
X010967Y004495D01*
X009070Y006125D02*
X009075Y006130D01*
X009297D01*
X009302Y006135D01*
Y005735D02*
Y006135D01*
X010280Y004446D02*
X010280Y004446D01*
Y004515D01*
X010280Y004256D02*
X010440D01*
X010085D02*
X010280D01*
X010967Y004456D02*
Y004495D01*
X011235Y004451D02*
X011394D01*
X011235Y004261D02*
X011238Y004258D01*
X011397D01*
X011400Y004255D01*
X011394Y004451D02*
X011400Y004445D01*
X010847Y004258D02*
X010987D01*
X010847D02*
X010860Y004271D01*
X010845Y004256D02*
X010847Y004258D01*
X010985Y004351D02*
X010990Y004356D01*
X010895Y004351D02*
X010985D01*
X010860Y004316D02*
X010895Y004351D01*
X010820Y004256D02*
X010845D01*
X010860Y004271D02*
Y004316D01*
X010987Y004258D02*
X010990Y004261D01*
X010640Y004266D02*
X010650Y004256D01*
X010820D01*
X010640Y004446D02*
X010820D01*
X010440Y004256D02*
X010450Y004266D01*
X010280Y004446D02*
X010450D01*
X010110D02*
X010280D01*
X007605Y006535D02*
X007690D01*
X007520D02*
X007605D01*
X007610Y006540D01*
Y006715D01*
X008110Y003105D02*
Y003245D01*
X008200Y003335D01*
Y003375D01*
X007920Y003105D02*
Y003247D01*
X007832Y003335D02*
X007920Y003247D01*
X007832Y003335D02*
Y003375D01*
X007518Y003345D02*
Y003385D01*
X007521Y003382D01*
D73*
X008554Y005995D02*
X008684Y006125D01*
X008400Y005985D02*
X008404Y005989D01*
X008684Y006125D02*
X008880D01*
X008418Y005989D02*
X008424Y005995D01*
X008627Y006356D02*
X008650Y006379D01*
Y006435D01*
X008670Y006455D01*
X011280Y006235D02*
X011380D01*
X011384Y006231D01*
X011444D02*
X011460Y006215D01*
X011384Y006231D02*
X011444D01*
X009810Y006135D02*
X009820Y006145D01*
X009980D01*
X008550Y006356D02*
X008627D01*
X008424Y005995D02*
X008554D01*
X008404Y005989D02*
X008418D01*
D74*
X007150Y003385D02*
X007174Y003409D01*
Y004265D01*
X007181Y004272D01*
X007810Y003397D02*
Y003605D01*
X007689Y003726D02*
X007810Y003605D01*
X007689Y003726D02*
Y004018D01*
X007481Y003705D02*
Y003961D01*
Y003378D02*
Y003705D01*
X008050Y003665D02*
X008141D01*
X008200Y003375D02*
Y003607D01*
X008141Y003665D02*
X008200Y003607D01*
X007943Y003772D02*
X008050Y003665D01*
X007943Y003772D02*
Y004018D01*
X007810Y003397D02*
X007832Y003375D01*
X007689Y004018D02*
Y004272D01*
X007943Y004018D02*
Y004272D01*
X007435Y004008D02*
Y004272D01*
Y004008D02*
X007481Y003961D01*
D75*
X010236Y006465D02*
X010238Y006467D01*
Y006613D01*
X010240Y006615D01*
X010790Y004563D02*
Y004724D01*
Y004563D02*
X010830Y004523D01*
Y004515D02*
Y004523D01*
X009050Y005685D02*
X009252D01*
X008980D02*
X009050D01*
X009252D02*
X009302Y005735D01*
X008818D02*
X008930D01*
X008980Y005685D01*
X008770Y005775D02*
X008778D01*
X008818Y005735D01*
X008212Y005085D02*
X008292Y005005D01*
X007472Y005085D02*
X008212D01*
X008235Y005140D02*
X008347Y005028D01*
X007495Y005140D02*
X008235D01*
X009110Y004430D02*
X009121Y004419D01*
X009110Y004405D02*
Y004430D01*
X009120Y004555D02*
X009190Y004625D01*
X008760Y007195D02*
X009000D01*
X008680Y007276D02*
X008760Y007195D01*
X008680Y007276D02*
Y007586D01*
X009640Y007095D02*
Y007101D01*
X009665Y007125D01*
X007940Y004275D02*
X007943Y004272D01*
X007940Y004275D02*
Y004975D01*
X007900Y005015D02*
X007940Y004975D01*
X007460Y005015D02*
X007900D01*
X007100Y005375D02*
X007460Y005015D01*
X007155Y005402D02*
Y007318D01*
Y005402D02*
X007472Y005085D01*
X007210Y005425D02*
Y007295D01*
Y005425D02*
X007495Y005140D01*
X007100Y007355D02*
X007220Y007475D01*
X007100Y005375D02*
Y007355D01*
X007220Y007475D02*
X007530D01*
X007465Y007420D02*
X007542Y007343D01*
X007257Y007420D02*
X007465D01*
X007155Y007318D02*
X007257Y007420D01*
X007442Y007365D02*
X007487Y007320D01*
X007280Y007365D02*
X007442D01*
X007210Y007295D02*
X007280Y007365D01*
X007690Y007215D02*
Y007315D01*
X007530Y007475D02*
X007690Y007315D01*
X008293Y004790D02*
Y004838D01*
X008292Y004838D02*
X008293Y004838D01*
X008275Y004772D02*
X008293Y004790D01*
X008292Y004838D02*
Y005005D01*
X008237Y004772D02*
X008275D01*
X008190Y004725D02*
X008237Y004772D01*
X008347Y004790D02*
Y004860D01*
X008347Y004860D02*
X008347Y004860D01*
X008365Y004772D02*
X008403D01*
X008347Y004860D02*
Y005028D01*
X008347Y004790D02*
X008365Y004772D01*
X008403D02*
X008450Y004725D01*
X007542Y007248D02*
Y007343D01*
X007570Y007215D02*
Y007220D01*
X007487Y007248D02*
Y007320D01*
X007542Y007248D02*
X007570Y007220D01*
X007460Y007215D02*
Y007220D01*
X007487Y007248D01*
X009120Y004440D02*
Y004555D01*
X008920Y004380D02*
Y004405D01*
X008840Y004300D02*
X008920Y004380D01*
X008840Y004185D02*
Y004300D01*
X008510Y005415D02*
X008510Y005415D01*
X008510Y005285D02*
Y005415D01*
Y005605D02*
X008510Y005605D01*
X008510Y005605D02*
Y005705D01*
X010244Y006294D02*
Y006457D01*
X010449Y006459D02*
X010456Y006465D01*
X010449Y006292D02*
Y006459D01*
X010442Y006285D02*
X010449Y006292D01*
X009000Y006955D02*
X009140D01*
X008860D02*
X009000D01*
Y007095D01*
X009110D01*
D76*
X007445Y003100D02*
X007915D01*
D78*
X008575Y003584D02*
X008637D01*
X008292Y003866D02*
X008575Y003584D01*
X008637Y003647D02*
X008659Y003669D01*
X008601Y003647D02*
X008637D01*
X008356Y003892D02*
X008601Y003647D01*
X008450Y004273D02*
X008451Y004272D01*
X008450Y004273D02*
Y004525D01*
X008193Y004275D02*
X008197Y004272D01*
X008193Y004275D02*
Y004522D01*
X008190Y004525D02*
X008193Y004522D01*
X008659Y003704D02*
X008680Y003725D01*
X008659Y003669D02*
Y003704D01*
X008451Y004018D02*
Y004272D01*
X008450Y004018D02*
X008451D01*
X008356Y003924D02*
X008450Y004018D01*
X008356Y003892D02*
Y003924D01*
X008292Y003866D02*
Y003924D01*
X008659Y003526D02*
Y003561D01*
Y003526D02*
X008680Y003505D01*
X008637Y003584D02*
X008659Y003561D01*
X008198Y004018D02*
X008292Y003924D01*
X008197Y004018D02*
Y004272D01*
Y004018D02*
X008198D01*
X008198Y004527D02*
X008200Y004525D01*
X009230Y003195D02*
X009290Y003255D01*
X009149Y003279D02*
X009190Y003320D01*
X009290Y003255D02*
Y003335D01*
X009100Y003195D02*
X009230D01*
X009190Y003320D02*
Y003335D01*
X009186Y003612D02*
X009208Y003589D01*
X009212Y003675D02*
X009272Y003615D01*
Y003553D02*
Y003615D01*
X009047Y003675D02*
X009212D01*
X009020Y003647D02*
X009047Y003675D01*
X008913Y003647D02*
X009020D01*
X009104Y003279D02*
X009149D01*
X009100Y003275D02*
X009104Y003279D01*
X009208Y003553D02*
Y003589D01*
X009201Y003546D02*
X009208Y003553D01*
X009201Y003516D02*
Y003546D01*
X009190Y003505D02*
X009201Y003516D01*
X009074Y003612D02*
X009186D01*
X008891Y003561D02*
X008913Y003584D01*
X009046D01*
X008891Y003669D02*
Y003704D01*
X008870Y003725D02*
X008891Y003704D01*
X009279Y003516D02*
Y003546D01*
Y003516D02*
X009290Y003505D01*
X008891Y003526D02*
Y003561D01*
Y003669D02*
X008913Y003647D01*
X008870Y003505D02*
X008891Y003526D01*
X009272Y003553D02*
X009279Y003546D01*
X009046Y003584D02*
X009074Y003612D01*
D79*
X013778Y007183D02*
D03*
Y007437D02*
D03*
Y006929D02*
D03*
Y006675D02*
D03*
Y006421D02*
D03*
Y006167D02*
D03*
Y005913D02*
D03*
Y005659D02*
D03*
X015048Y007437D02*
D03*
Y007183D02*
D03*
Y005913D02*
D03*
X016318Y006929D02*
D03*
X015048Y005659D02*
D03*
X016318D02*
D03*
Y005913D02*
D03*
X017588Y006929D02*
D03*
Y006167D02*
D03*
X018858Y005913D02*
D03*
X020128Y005659D02*
D03*
Y006421D02*
D03*
X017588Y005659D02*
D03*
X015048Y006675D02*
D03*
X021398Y007437D02*
D03*
X013524Y007183D02*
D03*
Y007437D02*
D03*
Y006675D02*
D03*
Y006929D02*
D03*
Y006167D02*
D03*
Y006421D02*
D03*
Y005659D02*
D03*
Y005913D02*
D03*
X014794Y007437D02*
D03*
Y006929D02*
D03*
X016064Y006421D02*
D03*
X017334Y006675D02*
D03*
Y006929D02*
D03*
Y006167D02*
D03*
Y006421D02*
D03*
Y005659D02*
D03*
X019874Y007437D02*
D03*
X021144Y006929D02*
D03*
D80*
X020128Y005913D02*
D03*
Y006929D02*
D03*
Y007437D02*
D03*
X021398Y006929D02*
D03*
X016318Y007183D02*
D03*
Y007437D02*
D03*
Y006675D02*
D03*
Y006421D02*
D03*
Y006167D02*
D03*
X017588Y006675D02*
D03*
X018858Y005659D02*
D03*
Y006421D02*
D03*
Y006167D02*
D03*
X020128Y006675D02*
D03*
Y007183D02*
D03*
X021398Y006675D02*
D03*
X015048Y006929D02*
D03*
Y006167D02*
D03*
Y006421D02*
D03*
X017588Y007437D02*
D03*
Y007183D02*
D03*
Y006421D02*
D03*
Y005913D02*
D03*
X018858Y006675D02*
D03*
Y006929D02*
D03*
Y007183D02*
D03*
Y007437D02*
D03*
X020128Y006167D02*
D03*
X021398Y007183D02*
D03*
X014794D02*
D03*
Y006675D02*
D03*
Y006167D02*
D03*
Y006421D02*
D03*
Y005659D02*
D03*
Y005913D02*
D03*
X016064Y007183D02*
D03*
Y007437D02*
D03*
Y006675D02*
D03*
Y006929D02*
D03*
Y006167D02*
D03*
Y005659D02*
D03*
Y005913D02*
D03*
X017334Y007183D02*
D03*
Y007437D02*
D03*
Y005913D02*
D03*
X018604Y007183D02*
D03*
Y007437D02*
D03*
Y006675D02*
D03*
Y006929D02*
D03*
Y006167D02*
D03*
Y006421D02*
D03*
Y005659D02*
D03*
Y005913D02*
D03*
X019874Y007183D02*
D03*
Y006675D02*
D03*
Y006929D02*
D03*
Y006167D02*
D03*
Y006421D02*
D03*
Y005659D02*
D03*
Y005913D02*
D03*
X021144Y007183D02*
D03*
Y007437D02*
D03*
Y006675D02*
D03*
D81*
X010070Y007515D02*
D03*
X010868D02*
D03*
D82*
X007435Y004018D02*
D03*
Y004272D02*
D03*
X007689Y004018D02*
D03*
Y004272D02*
D03*
X007943Y004018D02*
D03*
Y004272D02*
D03*
X008197Y004018D02*
D03*
Y004272D02*
D03*
X008451Y004018D02*
D03*
X007181D02*
D03*
Y004272D02*
D03*
X008190Y004525D02*
D03*
X008450D02*
D03*
X013778Y004029D02*
D03*
X013524Y004283D02*
D03*
Y004029D02*
D03*
X013274Y004283D02*
D03*
Y004029D02*
D03*
X013016Y004283D02*
D03*
Y004029D02*
D03*
X021652D02*
D03*
X021398Y004283D02*
D03*
Y004029D02*
D03*
D83*
X008451Y004272D02*
D03*
X008190Y004725D02*
D03*
X008450D02*
D03*
X013778Y004283D02*
D03*
X021652D02*
D03*
D84*
X007460Y007125D02*
D03*
X011330Y005905D02*
D03*
X011460Y006095D02*
D03*
X010240Y006615D02*
D03*
X011422Y002975D02*
D03*
X011190Y002975D02*
D03*
X011070Y004895D02*
D03*
X010478Y006947D02*
D03*
X012400Y005175D02*
D03*
X008020Y005615D02*
D03*
X011490Y004355D02*
D03*
X010830Y004515D02*
D03*
X020590Y007445D02*
D03*
X013000Y005665D02*
D03*
X016580Y007125D02*
D03*
X015429Y006167D02*
D03*
X012420Y006825D02*
D03*
X012620Y006885D02*
D03*
X012380Y006965D02*
D03*
X012420Y007455D02*
D03*
X019450Y005555D02*
D03*
X019070Y006425D02*
D03*
Y006155D02*
D03*
X008640Y005535D02*
D03*
X008650Y005655D02*
D03*
X010350Y005945D02*
D03*
X010462Y005885D02*
D03*
X010410Y006055D02*
D03*
X013130Y005455D02*
D03*
X012660Y004845D02*
D03*
X012730Y005245D02*
D03*
X012890Y004785D02*
D03*
X012500Y005115D02*
D03*
X013190Y006275D02*
D03*
X012014Y006172D02*
D03*
X014030Y006285D02*
D03*
X012620Y006355D02*
D03*
X013980Y006605D02*
D03*
X016699Y007437D02*
D03*
X015550Y007445D02*
D03*
X012960Y007125D02*
D03*
X012740Y007195D02*
D03*
X012830Y007185D02*
D03*
X015550D02*
D03*
X012610Y007235D02*
D03*
X012420Y007585D02*
D03*
X012950Y006095D02*
D03*
X012360Y007790D02*
D03*
X014070Y006925D02*
D03*
X014040Y006675D02*
D03*
X014160Y006035D02*
D03*
X010751Y006885D02*
D03*
X010750Y006765D02*
D03*
X010860Y006655D02*
D03*
X010850Y006225D02*
D03*
X011020Y006435D02*
D03*
X010910Y006465D02*
D03*
Y006555D02*
D03*
X012890Y006405D02*
D03*
X012350Y006372D02*
D03*
X011471D02*
D03*
X014159Y006421D02*
D03*
X012030Y004995D02*
D03*
X012520Y004955D02*
D03*
X012600Y004915D02*
D03*
X012760Y004675D02*
D03*
X018030Y007435D02*
D03*
X018090Y007185D02*
D03*
X010110Y004515D02*
D03*
X010020Y003045D02*
D03*
X009570Y003105D02*
D03*
X009550Y003835D02*
D03*
X011360Y006515D02*
D03*
X011475Y006575D02*
D03*
X007950Y005225D02*
D03*
X007700Y006905D02*
D03*
X007610D02*
D03*
X007520D02*
D03*
X008841Y005634D02*
D03*
X008640Y005895D02*
D03*
X008650Y005975D02*
D03*
X010514Y005824D02*
D03*
X010310Y005765D02*
D03*
X010270Y005645D02*
D03*
X011120Y004345D02*
D03*
X011340Y003975D02*
D03*
X011400D02*
D03*
X011470D02*
D03*
X011280Y004125D02*
D03*
X011400D02*
D03*
X011340D02*
D03*
X009580Y004005D02*
D03*
X009650D02*
D03*
Y004075D02*
D03*
X009960Y004055D02*
D03*
Y004115D02*
D03*
X010818Y003603D02*
D03*
X009991Y004316D02*
D03*
X010894Y003469D02*
D03*
X009900Y004055D02*
D03*
Y004115D02*
D03*
X009580Y004075D02*
D03*
X009360Y004035D02*
D03*
X009260D02*
D03*
X009460Y004455D02*
D03*
X009080Y004775D02*
D03*
X009200Y004185D02*
D03*
Y004495D02*
D03*
X009110Y004055D02*
D03*
X007410Y005485D02*
D03*
X007410Y005575D02*
D03*
Y005655D02*
D03*
X009460Y005245D02*
D03*
X009590D02*
D03*
X012030Y004375D02*
D03*
X011820D02*
D03*
X007980Y006285D02*
D03*
Y006215D02*
D03*
X007910D02*
D03*
Y006285D02*
D03*
X009140Y004995D02*
D03*
X009473Y004749D02*
D03*
X009320Y004825D02*
D03*
X009220D02*
D03*
X010020Y005119D02*
D03*
X010590Y005105D02*
D03*
X009678Y006526D02*
D03*
X008530Y006085D02*
D03*
X010560Y006835D02*
D03*
X010660Y006845D02*
D03*
Y006745D02*
D03*
X010360Y007465D02*
D03*
X010240Y007505D02*
D03*
X010500Y007565D02*
D03*
X011490Y007353D02*
D03*
X009950Y007315D02*
D03*
X009930Y007235D02*
D03*
X009540Y004795D02*
D03*
X009650D02*
D03*
X010280Y004515D02*
D03*
X008710Y004365D02*
D03*
X009732Y006650D02*
D03*
X008410Y006335D02*
D03*
X008550Y006356D02*
D03*
X008780Y006405D02*
D03*
X008810Y006285D02*
D03*
X008790Y006495D02*
D03*
X008617Y006239D02*
D03*
X008470Y006255D02*
D03*
X010640Y004075D02*
D03*
X011050D02*
D03*
X011830Y005775D02*
D03*
X011400Y005681D02*
D03*
X011317D02*
D03*
X010760Y006225D02*
D03*
X010670Y007625D02*
D03*
X010590D02*
D03*
X010100Y007315D02*
D03*
X009910Y007465D02*
D03*
X010220Y007595D02*
D03*
X008730Y006245D02*
D03*
X009900Y006948D02*
D03*
X008730Y005345D02*
D03*
X011490Y007575D02*
D03*
X010510Y005111D02*
D03*
X009250Y005176D02*
D03*
X009370D02*
D03*
X011088Y004575D02*
D03*
X010990Y004635D02*
D03*
X010790Y004724D02*
D03*
X010890D02*
D03*
X011070Y004705D02*
D03*
X012000Y007605D02*
D03*
X011110Y005025D02*
D03*
X009990Y004795D02*
D03*
X010290D02*
D03*
X010199D02*
D03*
X010090D02*
D03*
X010020Y004675D02*
D03*
X011910Y005535D02*
D03*
X012010Y005775D02*
D03*
Y005975D02*
D03*
X011820D02*
D03*
Y005375D02*
D03*
X011150Y003375D02*
D03*
X008340Y006225D02*
D03*
X008880Y005825D02*
D03*
X010720Y005745D02*
D03*
X010580Y006069D02*
D03*
X010659Y006136D02*
D03*
X011960Y005375D02*
D03*
X011480Y005495D02*
D03*
X011480Y005615D02*
D03*
X011380Y006235D02*
D03*
X012017Y006782D02*
D03*
X010390Y006948D02*
D03*
X010456Y006625D02*
D03*
X010980Y006885D02*
D03*
X010860D02*
D03*
X010760Y006665D02*
D03*
X009218Y006503D02*
D03*
X010410Y007325D02*
D03*
X010530Y007325D02*
D03*
X010520Y007445D02*
D03*
X011180Y006988D02*
D03*
X010790Y007375D02*
D03*
X010000Y006948D02*
D03*
X010180Y007335D02*
D03*
X009919Y007737D02*
D03*
X009920Y007655D02*
D03*
X008782Y005567D02*
D03*
X009680Y005185D02*
D03*
X009670Y005285D02*
D03*
X011490Y006975D02*
D03*
X011510Y006775D02*
D03*
X009666Y006708D02*
D03*
X009670Y006435D02*
D03*
X020509Y007183D02*
D03*
Y006929D02*
D03*
Y006675D02*
D03*
X019239Y007437D02*
D03*
Y007183D02*
D03*
Y006929D02*
D03*
Y006675D02*
D03*
X019320Y005915D02*
D03*
X017969Y006929D02*
D03*
Y006675D02*
D03*
Y006421D02*
D03*
Y006167D02*
D03*
Y005913D02*
D03*
Y005659D02*
D03*
X016699Y007183D02*
D03*
Y006929D02*
D03*
Y006675D02*
D03*
Y006421D02*
D03*
Y006167D02*
D03*
Y005913D02*
D03*
Y005659D02*
D03*
X015429Y006929D02*
D03*
Y006675D02*
D03*
Y006421D02*
D03*
Y005913D02*
D03*
Y005659D02*
D03*
X014159Y007183D02*
D03*
Y006167D02*
D03*
Y005913D02*
D03*
Y005659D02*
D03*
X012889Y005913D02*
D03*
Y006167D02*
D03*
Y006675D02*
D03*
Y006929D02*
D03*
Y007437D02*
D03*
X009370Y006948D02*
D03*
X009280Y006885D02*
D03*
X011140Y003175D02*
D03*
X010780D02*
D03*
X012030Y004775D02*
D03*
X011810D02*
D03*
X012030Y004575D02*
D03*
X009980Y006145D02*
D03*
X010020Y004575D02*
D03*
X011390Y006975D02*
D03*
X009350Y006823D02*
D03*
X009700Y005525D02*
D03*
X009620Y005385D02*
D03*
X009440Y006735D02*
D03*
X012020Y005575D02*
D03*
X012360Y006575D02*
D03*
X012350Y007375D02*
D03*
X011480Y004885D02*
D03*
X010870Y005885D02*
D03*
X010730Y005185D02*
D03*
X010250Y006055D02*
D03*
X008240Y007285D02*
D03*
X009000Y007295D02*
D03*
X009380Y007515D02*
D03*
X009280Y007235D02*
D03*
X009000Y007195D02*
D03*
X007460Y007215D02*
D03*
X007570D02*
D03*
X007690D02*
D03*
X007810Y006375D02*
D03*
X008510Y005285D02*
D03*
Y005705D02*
D03*
X008880Y005485D02*
D03*
X009000Y004775D02*
D03*
X009080Y004835D02*
D03*
X009000D02*
D03*
X011070Y007235D02*
D03*
X008910Y005045D02*
D03*
X010980Y005885D02*
D03*
Y006225D02*
D03*
X008770Y005775D02*
D03*
X008860Y006667D02*
D03*
X008690Y007005D02*
D03*
X009320Y006465D02*
D03*
Y006605D02*
D03*
X009000Y007095D02*
D03*
X008400Y005985D02*
D03*
X009190Y004625D02*
D03*
X008840Y004185D02*
D03*
X009660Y003295D02*
D03*
Y003175D02*
D03*
X008880Y005245D02*
D03*
X008410Y005885D02*
D03*
X010840Y005465D02*
D03*
X010310Y005175D02*
D03*
X010370Y004795D02*
D03*
X009340Y005525D02*
D03*
X009250Y005385D02*
D03*
X010430Y005475D02*
D03*
X010020D02*
D03*
X011140Y003575D02*
D03*
X010910Y003925D02*
D03*
X010990D02*
D03*
X007410Y006375D02*
D03*
X008150Y006995D02*
D03*
X009100Y003195D02*
D03*
Y003275D02*
D03*
D85*
X007610Y005605D02*
D03*
D86*
Y006715D02*
D03*
D87*
X008220Y005818D02*
D03*
Y005653D02*
D03*
D88*
Y005735D02*
D03*
D100*
X007250Y003105D02*
D03*
X007440D02*
D03*
X010730Y004075D02*
D03*
X010920D02*
D03*
D101*
X009788Y007475D02*
D03*
X011338D02*
D03*
D102*
X011248Y006515D02*
D03*
D103*
X009788D02*
D03*
D104*
X009906Y006465D02*
D03*
X010125D02*
D03*
X010015D02*
D03*
X010565D02*
D03*
X010786D02*
D03*
X010675D02*
D03*
X010236D02*
D03*
X010456D02*
D03*
X010346D02*
D03*
D105*
X009740Y003785D02*
D03*
X009190Y003335D02*
D03*
Y003505D02*
D03*
X009290D02*
D03*
X009840Y003955D02*
D03*
X009740D02*
D03*
D106*
X009840Y003785D02*
D03*
X009290Y003335D02*
D03*
D107*
X007150Y003385D02*
D03*
X007518D02*
D03*
X007832Y003375D02*
D03*
X008200D02*
D03*
D108*
X010990Y004261D02*
D03*
Y004356D02*
D03*
Y004451D02*
D03*
X011235D02*
D03*
Y004261D02*
D03*
D109*
X009810Y005735D02*
D03*
Y006135D02*
D03*
X009302Y005735D02*
D03*
D110*
Y006135D02*
D03*
M02*
