G04*
G04 #@! TF.GenerationSoftware,Altium Limited,Altium Designer,20.0.2 (26)*
G04*
G04 Layer_Physical_Order=4*
G04 Layer_Color=16737819*
%FSLAX44Y44*%
%MOMM*%
G71*
G01*
G75*
%ADD13C,0.2000*%
%ADD14C,0.6000*%
G04:AMPARAMS|DCode=22|XSize=0.8mm|YSize=1.3mm|CornerRadius=0.2mm|HoleSize=0mm|Usage=FLASHONLY|Rotation=0.000|XOffset=0mm|YOffset=0mm|HoleType=Round|Shape=RoundedRectangle|*
%AMROUNDEDRECTD22*
21,1,0.8000,0.9000,0,0,0.0*
21,1,0.4000,1.3000,0,0,0.0*
1,1,0.4000,0.2000,-0.4500*
1,1,0.4000,-0.2000,-0.4500*
1,1,0.4000,-0.2000,0.4500*
1,1,0.4000,0.2000,0.4500*
%
%ADD22ROUNDEDRECTD22*%
G04:AMPARAMS|DCode=23|XSize=0.8mm|YSize=1.3mm|CornerRadius=0.2mm|HoleSize=0mm|Usage=FLASHONLY|Rotation=90.000|XOffset=0mm|YOffset=0mm|HoleType=Round|Shape=RoundedRectangle|*
%AMROUNDEDRECTD23*
21,1,0.8000,0.9000,0,0,90.0*
21,1,0.4000,1.3000,0,0,90.0*
1,1,0.4000,0.4500,0.2000*
1,1,0.4000,0.4500,-0.2000*
1,1,0.4000,-0.4500,-0.2000*
1,1,0.4000,-0.4500,0.2000*
%
%ADD23ROUNDEDRECTD23*%
G04:AMPARAMS|DCode=24|XSize=0.8mm|YSize=1mm|CornerRadius=0.2mm|HoleSize=0mm|Usage=FLASHONLY|Rotation=90.000|XOffset=0mm|YOffset=0mm|HoleType=Round|Shape=RoundedRectangle|*
%AMROUNDEDRECTD24*
21,1,0.8000,0.6000,0,0,90.0*
21,1,0.4000,1.0000,0,0,90.0*
1,1,0.4000,0.3000,0.2000*
1,1,0.4000,0.3000,-0.2000*
1,1,0.4000,-0.3000,-0.2000*
1,1,0.4000,-0.3000,0.2000*
%
%ADD24ROUNDEDRECTD24*%
G04:AMPARAMS|DCode=25|XSize=0.8mm|YSize=1mm|CornerRadius=0.2mm|HoleSize=0mm|Usage=FLASHONLY|Rotation=0.000|XOffset=0mm|YOffset=0mm|HoleType=Round|Shape=RoundedRectangle|*
%AMROUNDEDRECTD25*
21,1,0.8000,0.6000,0,0,0.0*
21,1,0.4000,1.0000,0,0,0.0*
1,1,0.4000,0.2000,-0.3000*
1,1,0.4000,-0.2000,-0.3000*
1,1,0.4000,-0.2000,0.3000*
1,1,0.4000,0.2000,0.3000*
%
%ADD25ROUNDEDRECTD25*%
G04:AMPARAMS|DCode=27|XSize=2.54mm|YSize=0.9144mm|CornerRadius=0mm|HoleSize=0mm|Usage=FLASHONLY|Rotation=90.000|XOffset=0mm|YOffset=0mm|HoleType=Round|Shape=Octagon|*
%AMOCTAGOND27*
4,1,8,0.2286,1.2700,-0.2286,1.2700,-0.4572,1.0414,-0.4572,-1.0414,-0.2286,-1.2700,0.2286,-1.2700,0.4572,-1.0414,0.4572,1.0414,0.2286,1.2700,0.0*
%
%ADD27OCTAGOND27*%

%ADD30R,2.8000X2.0000*%
%ADD36R,0.8000X1.3000*%
%ADD41R,2.5000X2.3000*%
%ADD59C,1.0000*%
%ADD119C,0.4000*%
%ADD120C,0.3000*%
%ADD121C,1.0000*%
%ADD122C,0.5000*%
%ADD123C,0.3810*%
%ADD126C,1.3720*%
%ADD129C,1.3716*%
%ADD130R,1.3716X1.3716*%
%ADD131R,1.3716X1.3716*%
%ADD132C,2.0000*%
%ADD133C,1.5240*%
%ADD134C,1.1000*%
%ADD135C,0.6000*%
%ADD136C,1.5000*%
%ADD137C,1.2000*%
%ADD138C,0.8000*%
%ADD139R,1.5240X1.5240*%
%ADD154C,0.4000*%
%ADD155R,2.0000X2.0000*%
G04:AMPARAMS|DCode=156|XSize=2mm|YSize=2mm|CornerRadius=0.5mm|HoleSize=0mm|Usage=FLASHONLY|Rotation=270.000|XOffset=0mm|YOffset=0mm|HoleType=Round|Shape=RoundedRectangle|*
%AMROUNDEDRECTD156*
21,1,2.0000,1.0000,0,0,270.0*
21,1,1.0000,2.0000,0,0,270.0*
1,1,1.0000,-0.5000,-0.5000*
1,1,1.0000,-0.5000,0.5000*
1,1,1.0000,0.5000,0.5000*
1,1,1.0000,0.5000,-0.5000*
%
%ADD156ROUNDEDRECTD156*%
%ADD157R,0.9500X0.6000*%
%ADD158R,0.6000X0.9000*%
G04:AMPARAMS|DCode=159|XSize=0.9mm|YSize=0.6mm|CornerRadius=0.15mm|HoleSize=0mm|Usage=FLASHONLY|Rotation=90.000|XOffset=0mm|YOffset=0mm|HoleType=Round|Shape=RoundedRectangle|*
%AMROUNDEDRECTD159*
21,1,0.9000,0.3000,0,0,90.0*
21,1,0.6000,0.6000,0,0,90.0*
1,1,0.3000,0.1500,0.3000*
1,1,0.3000,0.1500,-0.3000*
1,1,0.3000,-0.1500,-0.3000*
1,1,0.3000,-0.1500,0.3000*
%
%ADD159ROUNDEDRECTD159*%
%ADD160R,1.0000X0.8000*%
%ADD161R,0.7000X1.6000*%
%ADD162R,1.2000X1.4000*%
%ADD163R,1.6000X1.4000*%
%ADD164R,1.2000X2.0000*%
G36*
X3304662Y699640D02*
X3313520D01*
Y697640D01*
X3304662D01*
Y689782D01*
X3312769D01*
X3313411Y688595D01*
X3313069Y687515D01*
X3311208Y687270D01*
X3309053Y686377D01*
X3307202Y684958D01*
X3305782Y683107D01*
X3304890Y680952D01*
X3304717Y679640D01*
X3313520D01*
Y677640D01*
X3304717D01*
X3304890Y676328D01*
X3305782Y674173D01*
X3306751Y672910D01*
X3306125Y671640D01*
X3292520D01*
Y638640D01*
X3176520D01*
X3176520Y701640D01*
X3304662D01*
Y699640D01*
D02*
G37*
G36*
X3304270Y663738D02*
X3303577D01*
X3301626Y663350D01*
X3299972Y662245D01*
X3298867Y660591D01*
X3298479Y658640D01*
X3298867Y656689D01*
X3299972Y655035D01*
X3301626Y653930D01*
X3303577Y653542D01*
X3304270D01*
Y274390D01*
X3203020D01*
Y222390D01*
X2651520D01*
Y255562D01*
X3132520D01*
X3132520Y255562D01*
X3134081Y255872D01*
X3135404Y256756D01*
X3156404Y277756D01*
X3156404Y277756D01*
X3157288Y279079D01*
X3157598Y280640D01*
X3157598Y280640D01*
Y370824D01*
X3158230Y371769D01*
X3158618Y373720D01*
X3158230Y375671D01*
X3157598Y376616D01*
Y389640D01*
X3157288Y391201D01*
X3156404Y392524D01*
X3057598Y491329D01*
Y494289D01*
X3058868Y494674D01*
X3059378Y493912D01*
X3062856Y497390D01*
X3059378Y500868D01*
X3058868Y500106D01*
X3057598Y500491D01*
Y527744D01*
X3058230Y528689D01*
X3058452Y529804D01*
X3061209Y532562D01*
X3109326D01*
X3109326Y532562D01*
X3110887Y532872D01*
X3112210Y533756D01*
X3112534Y534080D01*
X3114058Y533808D01*
X3114427Y533256D01*
X3118612Y537441D01*
X3122798Y541626D01*
X3122245Y541995D01*
X3121974Y543520D01*
X3125150Y546696D01*
X3125150Y546696D01*
X3126034Y548019D01*
X3126345Y549580D01*
X3126345Y549580D01*
Y552894D01*
X3126034Y554454D01*
X3125150Y555778D01*
X3125150Y555778D01*
X3116452Y564476D01*
X3116230Y565591D01*
X3115125Y567245D01*
X3113471Y568350D01*
X3111520Y568738D01*
X3109569Y568350D01*
X3107915Y567245D01*
X3106810Y565591D01*
X3106422Y563640D01*
X3106810Y561689D01*
X3107915Y560035D01*
X3109569Y558930D01*
X3110684Y558708D01*
X3112818Y556574D01*
X3112192Y555404D01*
X3111770Y555488D01*
X3109819Y555100D01*
X3108874Y554468D01*
X3044270D01*
X3044270Y554468D01*
X3042709Y554158D01*
X3041386Y553274D01*
X3041386Y553274D01*
X3028266Y540153D01*
X3027279Y540963D01*
X3028172Y542299D01*
X3028638Y544640D01*
X3028172Y546981D01*
X3027412Y548118D01*
X3023227Y543933D01*
X3021813Y545347D01*
X3025998Y549532D01*
X3024861Y550292D01*
X3022520Y550757D01*
X3020844Y550424D01*
X3019574Y551299D01*
Y665640D01*
X3174481D01*
Y638640D01*
X3174636Y637860D01*
X3175078Y637198D01*
X3175740Y636756D01*
X3176520Y636601D01*
X3292520D01*
X3293300Y636756D01*
X3293962Y637198D01*
X3294404Y637860D01*
X3294559Y638640D01*
Y665640D01*
X3304270D01*
Y663738D01*
D02*
G37*
G36*
X2617520Y665840D02*
Y622660D01*
X2568180Y622660D01*
Y446130D01*
Y444860D01*
Y443590D01*
X2617520Y443590D01*
Y410380D01*
X2561830Y354690D01*
X2558020D01*
Y303890D01*
X2508490D01*
Y640440D01*
X2533890Y665840D01*
X2617520Y665840D01*
D02*
G37*
G36*
X2973508Y469672D02*
X2973508Y469672D01*
X2973818Y468111D01*
X2974702Y466788D01*
X2984013Y457477D01*
X2984013Y457477D01*
X2984013Y457477D01*
X2984013D01*
X2984014Y457477D01*
X3060734Y380756D01*
X3062057Y379872D01*
X3063618Y379562D01*
X3063618Y379562D01*
X3103624D01*
X3104569Y378930D01*
X3106520Y378542D01*
X3108471Y378930D01*
X3110125Y380035D01*
X3111230Y381689D01*
X3111618Y383640D01*
X3111230Y385591D01*
X3110125Y387245D01*
X3109734Y387506D01*
Y388776D01*
X3110122Y389035D01*
X3111227Y390689D01*
X3111616Y392640D01*
X3111227Y394590D01*
X3110122Y396244D01*
X3108468Y397350D01*
X3106518Y397738D01*
X3104567Y397350D01*
X3103622Y396718D01*
X3067210D01*
X3019574Y444353D01*
Y498737D01*
X3020694Y499335D01*
X3020889Y499205D01*
X3022840Y498817D01*
X3024791Y499205D01*
X3026445Y500310D01*
X3027550Y501964D01*
X3027938Y503915D01*
X3027550Y505866D01*
X3026599Y507290D01*
Y526951D01*
X3045959Y546312D01*
X3108874D01*
X3109819Y545680D01*
X3110639Y545517D01*
X3111057Y544139D01*
X3107637Y540718D01*
X3059520D01*
X3059520Y540718D01*
X3057959Y540408D01*
X3056636Y539524D01*
X3052684Y535572D01*
X3051569Y535350D01*
X3049915Y534245D01*
X3048810Y532591D01*
X3048422Y530640D01*
X3048810Y528689D01*
X3049442Y527744D01*
Y518095D01*
X3048172Y517416D01*
X3046861Y518292D01*
X3044520Y518758D01*
X3042179Y518292D01*
X3041042Y517532D01*
X3045227Y513347D01*
X3044520Y512640D01*
X3045227Y511933D01*
X3041042Y507748D01*
X3042179Y506988D01*
X3044520Y506522D01*
X3046861Y506988D01*
X3048172Y507864D01*
X3049442Y507185D01*
Y489640D01*
X3049442Y489640D01*
X3049752Y488079D01*
X3050636Y486756D01*
X3149442Y387951D01*
Y376616D01*
X3148810Y375671D01*
X3148422Y373720D01*
X3148810Y371769D01*
X3149442Y370824D01*
Y282329D01*
X3130831Y263718D01*
X2651520D01*
Y289542D01*
X3000520D01*
X3002471Y289930D01*
X3004125Y291035D01*
X3027125Y314035D01*
X3028230Y315689D01*
X3028618Y317640D01*
X3028230Y319591D01*
X3027125Y321245D01*
X3025471Y322350D01*
X3023520Y322738D01*
X3021569Y322350D01*
X3019915Y321245D01*
X2998409Y299738D01*
X2651520D01*
Y665640D01*
X2973508D01*
Y469672D01*
D02*
G37*
G36*
X3011418Y664975D02*
Y443404D01*
X3010148Y442878D01*
X2997117Y455909D01*
X2997572Y457250D01*
X3000190Y457595D01*
X3003353Y458904D01*
X3006068Y460988D01*
X3008152Y463704D01*
X3009462Y466866D01*
X3009777Y469260D01*
X2996797D01*
Y470260D01*
X2995797D01*
Y483241D01*
X2993403Y482925D01*
X2990241Y481615D01*
X2987525Y479532D01*
X2985441Y476816D01*
X2984131Y473654D01*
X2983787Y471035D01*
X2982638Y470645D01*
X2981665Y471455D01*
Y665640D01*
X3010752D01*
X3011418Y664975D01*
D02*
G37*
%LPC*%
G36*
X3259520Y696738D02*
X3257569Y696350D01*
X3256763Y695811D01*
X3259520Y693054D01*
X3262277Y695811D01*
X3261471Y696350D01*
X3259520Y696738D01*
D02*
G37*
G36*
X3233520D02*
X3231569Y696350D01*
X3230763Y695811D01*
X3233520Y693054D01*
X3236277Y695811D01*
X3235471Y696350D01*
X3233520Y696738D01*
D02*
G37*
G36*
X3210520D02*
X3208569Y696350D01*
X3207763Y695811D01*
X3210520Y693054D01*
X3213277Y695811D01*
X3212471Y696350D01*
X3210520Y696738D01*
D02*
G37*
G36*
X3193520D02*
X3191569Y696350D01*
X3190763Y695811D01*
X3193520Y693054D01*
X3196277Y695811D01*
X3195471Y696350D01*
X3193520Y696738D01*
D02*
G37*
G36*
X3263691Y694397D02*
X3260934Y691640D01*
X3263691Y688883D01*
X3264230Y689689D01*
X3264618Y691640D01*
X3264230Y693591D01*
X3263691Y694397D01*
D02*
G37*
G36*
X3237691D02*
X3234934Y691640D01*
X3237691Y688883D01*
X3238230Y689689D01*
X3238618Y691640D01*
X3238230Y693591D01*
X3237691Y694397D01*
D02*
G37*
G36*
X3214691D02*
X3211934Y691640D01*
X3214691Y688883D01*
X3215230Y689689D01*
X3215618Y691640D01*
X3215230Y693591D01*
X3214691Y694397D01*
D02*
G37*
G36*
X3197691D02*
X3194934Y691640D01*
X3197691Y688883D01*
X3198230Y689689D01*
X3198618Y691640D01*
X3198230Y693591D01*
X3197691Y694397D01*
D02*
G37*
G36*
X3255349D02*
X3254810Y693591D01*
X3254422Y691640D01*
X3254810Y689689D01*
X3255349Y688883D01*
X3258106Y691640D01*
X3255349Y694397D01*
D02*
G37*
G36*
X3229349D02*
X3228810Y693591D01*
X3228422Y691640D01*
X3228810Y689689D01*
X3229349Y688883D01*
X3232106Y691640D01*
X3229349Y694397D01*
D02*
G37*
G36*
X3206349D02*
X3205810Y693591D01*
X3205422Y691640D01*
X3205810Y689689D01*
X3206349Y688883D01*
X3209106Y691640D01*
X3206349Y694397D01*
D02*
G37*
G36*
X3189349D02*
X3188810Y693591D01*
X3188422Y691640D01*
X3188810Y689689D01*
X3189349Y688883D01*
X3192106Y691640D01*
X3189349Y694397D01*
D02*
G37*
G36*
X3259520Y690226D02*
X3256763Y687469D01*
X3257569Y686930D01*
X3259520Y686542D01*
X3261471Y686930D01*
X3262277Y687469D01*
X3259520Y690226D01*
D02*
G37*
G36*
X3233520D02*
X3230763Y687469D01*
X3231569Y686930D01*
X3233520Y686542D01*
X3235471Y686930D01*
X3236277Y687469D01*
X3233520Y690226D01*
D02*
G37*
G36*
X3210520D02*
X3207763Y687469D01*
X3208569Y686930D01*
X3210520Y686542D01*
X3212471Y686930D01*
X3213277Y687469D01*
X3210520Y690226D01*
D02*
G37*
G36*
X3193520D02*
X3190763Y687469D01*
X3191569Y686930D01*
X3193520Y686542D01*
X3195471Y686930D01*
X3196277Y687469D01*
X3193520Y690226D01*
D02*
G37*
G36*
X3234520Y651738D02*
X3232569Y651350D01*
X3231763Y650811D01*
X3234520Y648054D01*
X3237277Y650811D01*
X3236471Y651350D01*
X3234520Y651738D01*
D02*
G37*
G36*
X3238691Y649397D02*
X3235934Y646640D01*
X3238691Y643883D01*
X3239230Y644689D01*
X3239618Y646640D01*
X3239230Y648591D01*
X3238691Y649397D01*
D02*
G37*
G36*
X3230349D02*
X3229810Y648591D01*
X3229422Y646640D01*
X3229810Y644689D01*
X3230349Y643883D01*
X3233106Y646640D01*
X3230349Y649397D01*
D02*
G37*
G36*
X3234520Y645226D02*
X3231763Y642469D01*
X3232569Y641930D01*
X3234520Y641542D01*
X3236471Y641930D01*
X3237277Y642469D01*
X3234520Y645226D01*
D02*
G37*
G36*
X3080520Y636758D02*
X3078179Y636292D01*
X3077042Y635532D01*
X3080520Y632054D01*
X3083998Y635532D01*
X3082861Y636292D01*
X3080520Y636758D01*
D02*
G37*
G36*
X3085412Y634118D02*
X3081934Y630640D01*
X3085412Y627162D01*
X3086172Y628299D01*
X3086638Y630640D01*
X3086172Y632981D01*
X3085412Y634118D01*
D02*
G37*
G36*
X3075628D02*
X3074868Y632981D01*
X3074402Y630640D01*
X3074868Y628299D01*
X3075628Y627162D01*
X3079106Y630640D01*
X3075628Y634118D01*
D02*
G37*
G36*
X3080520Y629226D02*
X3077042Y625748D01*
X3078179Y624988D01*
X3080520Y624522D01*
X3082861Y624988D01*
X3083998Y625748D01*
X3080520Y629226D01*
D02*
G37*
G36*
X3060128Y585118D02*
X3059368Y583981D01*
X3058903Y581640D01*
X3059368Y579299D01*
X3060128Y578162D01*
X3063606Y581640D01*
X3060128Y585118D01*
D02*
G37*
G36*
X3272270Y581758D02*
X3269929Y581292D01*
X3268792Y580532D01*
X3272270Y577054D01*
X3275748Y580532D01*
X3274611Y581292D01*
X3272270Y581758D01*
D02*
G37*
G36*
X3224770D02*
X3222429Y581292D01*
X3221292Y580532D01*
X3224770Y577054D01*
X3228248Y580532D01*
X3227111Y581292D01*
X3224770Y581758D01*
D02*
G37*
G36*
X3165270Y581258D02*
X3162929Y580792D01*
X3161792Y580032D01*
X3165270Y576554D01*
X3168748Y580032D01*
X3167611Y580792D01*
X3165270Y581258D01*
D02*
G37*
G36*
X3065020Y580226D02*
X3061542Y576748D01*
X3062679Y575988D01*
X3065020Y575522D01*
X3067361Y575988D01*
X3068498Y576748D01*
X3065020Y580226D01*
D02*
G37*
G36*
X3277162Y579118D02*
X3273684Y575640D01*
X3277162Y572162D01*
X3277922Y573299D01*
X3278387Y575640D01*
X3277922Y577981D01*
X3277162Y579118D01*
D02*
G37*
G36*
X3229662D02*
X3226184Y575640D01*
X3229662Y572162D01*
X3230422Y573299D01*
X3230887Y575640D01*
X3230422Y577981D01*
X3229662Y579118D01*
D02*
G37*
G36*
X3267378D02*
X3266618Y577981D01*
X3266153Y575640D01*
X3266618Y573299D01*
X3267378Y572162D01*
X3270856Y575640D01*
X3267378Y579118D01*
D02*
G37*
G36*
X3219878D02*
X3219118Y577981D01*
X3218653Y575640D01*
X3219118Y573299D01*
X3219878Y572162D01*
X3223356Y575640D01*
X3219878Y579118D01*
D02*
G37*
G36*
X3170162Y578618D02*
X3166684Y575140D01*
X3170162Y571662D01*
X3170922Y572799D01*
X3171388Y575140D01*
X3170922Y577481D01*
X3170162Y578618D01*
D02*
G37*
G36*
X3160378D02*
X3159618Y577481D01*
X3159153Y575140D01*
X3159618Y572799D01*
X3160378Y571662D01*
X3163856Y575140D01*
X3160378Y578618D01*
D02*
G37*
G36*
X3065395Y595738D02*
X3063444Y595350D01*
X3061790Y594245D01*
X3060685Y592591D01*
X3060297Y590640D01*
X3060685Y588689D01*
X3061790Y587035D01*
Y586698D01*
X3061542Y586532D01*
X3065727Y582347D01*
X3069912Y578162D01*
X3070672Y579299D01*
X3071137Y581640D01*
X3070672Y583981D01*
X3069796Y585292D01*
X3070475Y586562D01*
X3094581D01*
X3106588Y574554D01*
X3106810Y573439D01*
X3107915Y571785D01*
X3109569Y570680D01*
X3111520Y570292D01*
X3113471Y570680D01*
X3115125Y571785D01*
X3116230Y573439D01*
X3116618Y575390D01*
X3116230Y577341D01*
X3115125Y578995D01*
X3113471Y580100D01*
X3112356Y580322D01*
X3099154Y593524D01*
X3097831Y594408D01*
X3096270Y594718D01*
X3096270Y594718D01*
X3068291D01*
X3067346Y595350D01*
X3065395Y595738D01*
D02*
G37*
G36*
X3272270Y574226D02*
X3268792Y570748D01*
X3269929Y569988D01*
X3272270Y569523D01*
X3274611Y569988D01*
X3275748Y570748D01*
X3272270Y574226D01*
D02*
G37*
G36*
X3224770D02*
X3221292Y570748D01*
X3222429Y569988D01*
X3224770Y569523D01*
X3227111Y569988D01*
X3228248Y570748D01*
X3224770Y574226D01*
D02*
G37*
G36*
X3165270Y573726D02*
X3161792Y570248D01*
X3162929Y569488D01*
X3165270Y569022D01*
X3167611Y569488D01*
X3168748Y570248D01*
X3165270Y573726D01*
D02*
G37*
G36*
X3124212Y540212D02*
X3120734Y536734D01*
X3124212Y533256D01*
X3124971Y534393D01*
X3125437Y536734D01*
X3124971Y539075D01*
X3124212Y540212D01*
D02*
G37*
G36*
X3119319Y535320D02*
X3115842Y531842D01*
X3116978Y531082D01*
X3119319Y530616D01*
X3121661Y531082D01*
X3122798Y531842D01*
X3119319Y535320D01*
D02*
G37*
G36*
X3113520Y513738D02*
X3111569Y513350D01*
X3109915Y512245D01*
X3108810Y510591D01*
X3108422Y508640D01*
X3108810Y506689D01*
X3109915Y505035D01*
X3111569Y503930D01*
X3113520Y503542D01*
X3115471Y503930D01*
X3117125Y505035D01*
X3118230Y506689D01*
X3118618Y508640D01*
X3118230Y510591D01*
X3117125Y512245D01*
X3115471Y513350D01*
X3113520Y513738D01*
D02*
G37*
G36*
X3064270Y503507D02*
X3061929Y503042D01*
X3060792Y502282D01*
X3064270Y498804D01*
X3067748Y502282D01*
X3066611Y503042D01*
X3064270Y503507D01*
D02*
G37*
G36*
X3099270Y503257D02*
X3096929Y502792D01*
X3095792Y502032D01*
X3099270Y498554D01*
X3102748Y502032D01*
X3101611Y502792D01*
X3099270Y503257D01*
D02*
G37*
G36*
X3069162Y500868D02*
X3065684Y497390D01*
X3069162Y493912D01*
X3069922Y495049D01*
X3070388Y497390D01*
X3069922Y499731D01*
X3069162Y500868D01*
D02*
G37*
G36*
X3104162Y500618D02*
X3100684Y497140D01*
X3104162Y493662D01*
X3104922Y494799D01*
X3105388Y497140D01*
X3104922Y499481D01*
X3104162Y500618D01*
D02*
G37*
G36*
X3094378D02*
X3093618Y499481D01*
X3093152Y497140D01*
X3093618Y494799D01*
X3094378Y493662D01*
X3097856Y497140D01*
X3094378Y500618D01*
D02*
G37*
G36*
X3064270Y495976D02*
X3060792Y492498D01*
X3061929Y491738D01*
X3064270Y491272D01*
X3066611Y491738D01*
X3067748Y492498D01*
X3064270Y495976D01*
D02*
G37*
G36*
X3099270Y495726D02*
X3095792Y492248D01*
X3096929Y491488D01*
X3099270Y491022D01*
X3101611Y491488D01*
X3102748Y492248D01*
X3099270Y495726D01*
D02*
G37*
G36*
X3174520Y448758D02*
X3172179Y448292D01*
X3171042Y447532D01*
X3174520Y444054D01*
X3177998Y447532D01*
X3176861Y448292D01*
X3174520Y448758D01*
D02*
G37*
G36*
X3208560Y535048D02*
X3206609Y534660D01*
X3204955Y533555D01*
X3203850Y531901D01*
X3203462Y529950D01*
X3203850Y527999D01*
X3204482Y527054D01*
Y517596D01*
X3203810Y516591D01*
X3203422Y514640D01*
X3203810Y512689D01*
X3204482Y511684D01*
Y461600D01*
X3204482Y461600D01*
X3204792Y460039D01*
X3205676Y458716D01*
X3219588Y444804D01*
X3219810Y443689D01*
X3220915Y442035D01*
X3222569Y440930D01*
X3224520Y440542D01*
X3226471Y440930D01*
X3228125Y442035D01*
X3229230Y443689D01*
X3229618Y445640D01*
X3229230Y447591D01*
X3228125Y449245D01*
X3226471Y450350D01*
X3225356Y450572D01*
X3212638Y463289D01*
Y511804D01*
X3213230Y512689D01*
X3213618Y514640D01*
X3213230Y516591D01*
X3212638Y517476D01*
Y527054D01*
X3213270Y527999D01*
X3213658Y529950D01*
X3213270Y531901D01*
X3212165Y533555D01*
X3210511Y534660D01*
X3208560Y535048D01*
D02*
G37*
G36*
X3179412Y446118D02*
X3175934Y442640D01*
X3179412Y439162D01*
X3180172Y440299D01*
X3180638Y442640D01*
X3180172Y444981D01*
X3179412Y446118D01*
D02*
G37*
G36*
X3169628D02*
X3168868Y444981D01*
X3168402Y442640D01*
X3168868Y440299D01*
X3169628Y439162D01*
X3173106Y442640D01*
X3169628Y446118D01*
D02*
G37*
G36*
X3174520Y441226D02*
X3171042Y437748D01*
X3172179Y436988D01*
X3174520Y436522D01*
X3176861Y436988D01*
X3177998Y437748D01*
X3174520Y441226D01*
D02*
G37*
G36*
X3173520Y424738D02*
X3171569Y424350D01*
X3169915Y423245D01*
X3168810Y421591D01*
X3168422Y419640D01*
X3168810Y417689D01*
X3169915Y416035D01*
X3171569Y414930D01*
X3173520Y414542D01*
X3175471Y414930D01*
X3177125Y416035D01*
X3178230Y417689D01*
X3178618Y419640D01*
X3178230Y421591D01*
X3177125Y423245D01*
X3175471Y424350D01*
X3173520Y424738D01*
D02*
G37*
G36*
X3213520Y415757D02*
X3211179Y415292D01*
X3210042Y414532D01*
X3213520Y411054D01*
X3216998Y414532D01*
X3215861Y415292D01*
X3213520Y415757D01*
D02*
G37*
G36*
X3218412Y413118D02*
X3214934Y409640D01*
X3218412Y406162D01*
X3219172Y407299D01*
X3219637Y409640D01*
X3219172Y411981D01*
X3218412Y413118D01*
D02*
G37*
G36*
X3208628D02*
X3207868Y411981D01*
X3207403Y409640D01*
X3207868Y407299D01*
X3208628Y406162D01*
X3212106Y409640D01*
X3208628Y413118D01*
D02*
G37*
G36*
X3213520Y408226D02*
X3210042Y404748D01*
X3211179Y403988D01*
X3213520Y403522D01*
X3215861Y403988D01*
X3216998Y404748D01*
X3213520Y408226D01*
D02*
G37*
G36*
X3266378Y360298D02*
X3257520D01*
Y351440D01*
X3266378D01*
Y360298D01*
D02*
G37*
G36*
X3232120Y360251D02*
Y351440D01*
X3240931D01*
X3240724Y353013D01*
X3239731Y355411D01*
X3238151Y357471D01*
X3236092Y359051D01*
X3233694Y360044D01*
X3232120Y360251D01*
D02*
G37*
G36*
X3230120D02*
X3228546Y360044D01*
X3226148Y359051D01*
X3224089Y357471D01*
X3222509Y355411D01*
X3221516Y353013D01*
X3221309Y351440D01*
X3230120D01*
Y360251D01*
D02*
G37*
G36*
X3255520Y360298D02*
X3246662D01*
Y351440D01*
X3255520D01*
Y360298D01*
D02*
G37*
G36*
X3230120Y349440D02*
X3221309D01*
X3221516Y347867D01*
X3222509Y345468D01*
X3224089Y343409D01*
X3226148Y341829D01*
X3228546Y340836D01*
X3230120Y340629D01*
Y349440D01*
D02*
G37*
G36*
X3240931D02*
X3232120D01*
Y340629D01*
X3233694Y340836D01*
X3236092Y341829D01*
X3238151Y343409D01*
X3239731Y345468D01*
X3240724Y347867D01*
X3240931Y349440D01*
D02*
G37*
G36*
X3266378D02*
X3257520D01*
Y340582D01*
X3266378D01*
Y349440D01*
D02*
G37*
G36*
X3255520D02*
X3246662D01*
Y340582D01*
X3255520D01*
Y349440D01*
D02*
G37*
G36*
X3257520Y334851D02*
Y326040D01*
X3266331D01*
X3266124Y327613D01*
X3265131Y330011D01*
X3263551Y332071D01*
X3261491Y333651D01*
X3259094Y334644D01*
X3257520Y334851D01*
D02*
G37*
G36*
X3232120D02*
Y326040D01*
X3240931D01*
X3240724Y327613D01*
X3239731Y330011D01*
X3238151Y332071D01*
X3236092Y333651D01*
X3233694Y334644D01*
X3232120Y334851D01*
D02*
G37*
G36*
X3255520D02*
X3253947Y334644D01*
X3251548Y333651D01*
X3249489Y332071D01*
X3247909Y330011D01*
X3246916Y327613D01*
X3246709Y326040D01*
X3255520D01*
Y334851D01*
D02*
G37*
G36*
X3230120D02*
X3228546Y334644D01*
X3226148Y333651D01*
X3224089Y332071D01*
X3222509Y330011D01*
X3221516Y327613D01*
X3221309Y326040D01*
X3230120D01*
Y334851D01*
D02*
G37*
G36*
X3255520Y324040D02*
X3246709D01*
X3246916Y322467D01*
X3247909Y320069D01*
X3249489Y318009D01*
X3251548Y316429D01*
X3253947Y315436D01*
X3255520Y315229D01*
Y324040D01*
D02*
G37*
G36*
X3230120D02*
X3221309D01*
X3221516Y322467D01*
X3222509Y320069D01*
X3224089Y318009D01*
X3226148Y316429D01*
X3228546Y315436D01*
X3230120Y315229D01*
Y324040D01*
D02*
G37*
G36*
X3266331D02*
X3257520D01*
Y315229D01*
X3259094Y315436D01*
X3261491Y316429D01*
X3263551Y318009D01*
X3265131Y320069D01*
X3266124Y322467D01*
X3266331Y324040D01*
D02*
G37*
G36*
X3240931D02*
X3232120D01*
Y315229D01*
X3233694Y315436D01*
X3236092Y316429D01*
X3238151Y318009D01*
X3239731Y320069D01*
X3240724Y322467D01*
X3240931Y324040D01*
D02*
G37*
G36*
X2962307Y250154D02*
Y241340D01*
X2971120D01*
X2970912Y242914D01*
X2969919Y245313D01*
X2968339Y247372D01*
X2966279Y248953D01*
X2963880Y249946D01*
X2962307Y250154D01*
D02*
G37*
G36*
X2960306D02*
X2958732Y249946D01*
X2956334Y248953D01*
X2954274Y247372D01*
X2952694Y245313D01*
X2951700Y242914D01*
X2951493Y241340D01*
X2960306D01*
Y250154D01*
D02*
G37*
G36*
X2925640D02*
Y241340D01*
X2934453D01*
X2934246Y242914D01*
X2933252Y245313D01*
X2931672Y247372D01*
X2929612Y248953D01*
X2927214Y249946D01*
X2925640Y250154D01*
D02*
G37*
G36*
X2923640D02*
X2922066Y249946D01*
X2919667Y248953D01*
X2917607Y247372D01*
X2916027Y245313D01*
X2915034Y242914D01*
X2914826Y241340D01*
X2923640D01*
Y250154D01*
D02*
G37*
G36*
X2888973D02*
Y241340D01*
X2897787D01*
X2897579Y242914D01*
X2896586Y245313D01*
X2895005Y247372D01*
X2892946Y248953D01*
X2890547Y249946D01*
X2888973Y250154D01*
D02*
G37*
G36*
X2886973D02*
X2885399Y249946D01*
X2883000Y248953D01*
X2880941Y247372D01*
X2879360Y245313D01*
X2878367Y242914D01*
X2878160Y241340D01*
X2886973D01*
Y250154D01*
D02*
G37*
G36*
X2852307D02*
Y241340D01*
X2861120D01*
X2860913Y242914D01*
X2859919Y245313D01*
X2858339Y247372D01*
X2856279Y248953D01*
X2853880Y249946D01*
X2852307Y250154D01*
D02*
G37*
G36*
X2850306D02*
X2848733Y249946D01*
X2846334Y248953D01*
X2844274Y247372D01*
X2842694Y245313D01*
X2841700Y242914D01*
X2841493Y241340D01*
X2850306D01*
Y250154D01*
D02*
G37*
G36*
X2815640D02*
Y241340D01*
X2824453D01*
X2824246Y242914D01*
X2823253Y245313D01*
X2821672Y247372D01*
X2819612Y248953D01*
X2817214Y249946D01*
X2815640Y250154D01*
D02*
G37*
G36*
X2813640D02*
X2812066Y249946D01*
X2809667Y248953D01*
X2807608Y247372D01*
X2806027Y245313D01*
X2805034Y242914D01*
X2804826Y241340D01*
X2813640D01*
Y250154D01*
D02*
G37*
G36*
X2778973D02*
Y241340D01*
X2787787D01*
X2787579Y242914D01*
X2786586Y245313D01*
X2785005Y247372D01*
X2782946Y248953D01*
X2780547Y249946D01*
X2778973Y250154D01*
D02*
G37*
G36*
X2776973D02*
X2775399Y249946D01*
X2773001Y248953D01*
X2770941Y247372D01*
X2769361Y245313D01*
X2768367Y242914D01*
X2768160Y241340D01*
X2776973D01*
Y250154D01*
D02*
G37*
G36*
X2742307D02*
Y241340D01*
X2751120D01*
X2750913Y242914D01*
X2749919Y245313D01*
X2748339Y247372D01*
X2746279Y248953D01*
X2743881Y249946D01*
X2742307Y250154D01*
D02*
G37*
G36*
X2740307D02*
X2738733Y249946D01*
X2736334Y248953D01*
X2734274Y247372D01*
X2732694Y245313D01*
X2731700Y242914D01*
X2731493Y241340D01*
X2740307D01*
Y250154D01*
D02*
G37*
G36*
X2705640D02*
Y241340D01*
X2714453D01*
X2714246Y242914D01*
X2713253Y245313D01*
X2711672Y247372D01*
X2709612Y248953D01*
X2707214Y249946D01*
X2705640Y250154D01*
D02*
G37*
G36*
X2703640D02*
X2702066Y249946D01*
X2699667Y248953D01*
X2697608Y247372D01*
X2696027Y245313D01*
X2695034Y242914D01*
X2694827Y241340D01*
X2703640D01*
Y250154D01*
D02*
G37*
G36*
X2668973D02*
Y241340D01*
X2677787D01*
X2677580Y242914D01*
X2676586Y245313D01*
X2675005Y247372D01*
X2672946Y248953D01*
X2670547Y249946D01*
X2668973Y250154D01*
D02*
G37*
G36*
X2666973D02*
X2665399Y249946D01*
X2663001Y248953D01*
X2660941Y247372D01*
X2659361Y245313D01*
X2658367Y242914D01*
X2658160Y241340D01*
X2666973D01*
Y250154D01*
D02*
G37*
G36*
X2997307Y253321D02*
Y241340D01*
X3009287D01*
X3008972Y243734D01*
X3007662Y246896D01*
X3005578Y249612D01*
X3002863Y251695D01*
X2999700Y253005D01*
X2997307Y253321D01*
D02*
G37*
G36*
X2995307D02*
X2992913Y253005D01*
X2989751Y251695D01*
X2987035Y249612D01*
X2984951Y246896D01*
X2983641Y243734D01*
X2983326Y241340D01*
X2995307D01*
Y253321D01*
D02*
G37*
G36*
X2971120Y239340D02*
X2962307D01*
Y230527D01*
X2963880Y230734D01*
X2966279Y231727D01*
X2968339Y233308D01*
X2969919Y235368D01*
X2970912Y237766D01*
X2971120Y239340D01*
D02*
G37*
G36*
X2960306D02*
X2951493D01*
X2951700Y237766D01*
X2952694Y235368D01*
X2954274Y233308D01*
X2956334Y231727D01*
X2958732Y230734D01*
X2960306Y230527D01*
Y239340D01*
D02*
G37*
G36*
X2934453D02*
X2925640D01*
Y230527D01*
X2927214Y230734D01*
X2929612Y231727D01*
X2931672Y233308D01*
X2933252Y235368D01*
X2934246Y237766D01*
X2934453Y239340D01*
D02*
G37*
G36*
X2923640D02*
X2914826D01*
X2915034Y237766D01*
X2916027Y235368D01*
X2917607Y233308D01*
X2919667Y231727D01*
X2922066Y230734D01*
X2923640Y230527D01*
Y239340D01*
D02*
G37*
G36*
X2897787D02*
X2888973D01*
Y230527D01*
X2890547Y230734D01*
X2892946Y231727D01*
X2895005Y233308D01*
X2896586Y235368D01*
X2897579Y237766D01*
X2897787Y239340D01*
D02*
G37*
G36*
X2886973D02*
X2878160D01*
X2878367Y237766D01*
X2879360Y235368D01*
X2880941Y233308D01*
X2883000Y231727D01*
X2885399Y230734D01*
X2886973Y230527D01*
Y239340D01*
D02*
G37*
G36*
X2861120D02*
X2852307D01*
Y230527D01*
X2853880Y230734D01*
X2856279Y231727D01*
X2858339Y233308D01*
X2859919Y235368D01*
X2860913Y237766D01*
X2861120Y239340D01*
D02*
G37*
G36*
X2850306D02*
X2841493D01*
X2841700Y237766D01*
X2842694Y235368D01*
X2844274Y233308D01*
X2846334Y231727D01*
X2848733Y230734D01*
X2850306Y230527D01*
Y239340D01*
D02*
G37*
G36*
X2824453D02*
X2815640D01*
Y230527D01*
X2817214Y230734D01*
X2819612Y231727D01*
X2821672Y233308D01*
X2823253Y235368D01*
X2824246Y237766D01*
X2824453Y239340D01*
D02*
G37*
G36*
X2813640D02*
X2804826D01*
X2805034Y237766D01*
X2806027Y235368D01*
X2807608Y233308D01*
X2809667Y231727D01*
X2812066Y230734D01*
X2813640Y230527D01*
Y239340D01*
D02*
G37*
G36*
X2787787D02*
X2778973D01*
Y230527D01*
X2780547Y230734D01*
X2782946Y231727D01*
X2785005Y233308D01*
X2786586Y235368D01*
X2787579Y237766D01*
X2787787Y239340D01*
D02*
G37*
G36*
X2776973D02*
X2768160D01*
X2768367Y237766D01*
X2769361Y235368D01*
X2770941Y233308D01*
X2773001Y231727D01*
X2775399Y230734D01*
X2776973Y230527D01*
Y239340D01*
D02*
G37*
G36*
X2751120D02*
X2742307D01*
Y230527D01*
X2743881Y230734D01*
X2746279Y231727D01*
X2748339Y233308D01*
X2749919Y235368D01*
X2750913Y237766D01*
X2751120Y239340D01*
D02*
G37*
G36*
X2740307D02*
X2731493D01*
X2731700Y237766D01*
X2732694Y235368D01*
X2734274Y233308D01*
X2736334Y231727D01*
X2738733Y230734D01*
X2740307Y230527D01*
Y239340D01*
D02*
G37*
G36*
X2714453D02*
X2705640D01*
Y230527D01*
X2707214Y230734D01*
X2709612Y231727D01*
X2711672Y233308D01*
X2713253Y235368D01*
X2714246Y237766D01*
X2714453Y239340D01*
D02*
G37*
G36*
X2703640D02*
X2694827D01*
X2695034Y237766D01*
X2696027Y235368D01*
X2697608Y233308D01*
X2699667Y231727D01*
X2702066Y230734D01*
X2703640Y230527D01*
Y239340D01*
D02*
G37*
G36*
X2677787D02*
X2668973D01*
Y230527D01*
X2670547Y230734D01*
X2672946Y231727D01*
X2675005Y233308D01*
X2676586Y235368D01*
X2677580Y237766D01*
X2677787Y239340D01*
D02*
G37*
G36*
X2666973D02*
X2658160D01*
X2658367Y237766D01*
X2659361Y235368D01*
X2660941Y233308D01*
X2663001Y231727D01*
X2665399Y230734D01*
X2666973Y230527D01*
Y239340D01*
D02*
G37*
G36*
X3009287Y239340D02*
X2997307D01*
Y227360D01*
X2999700Y227675D01*
X3002863Y228985D01*
X3005578Y231068D01*
X3007662Y233784D01*
X3008972Y236946D01*
X3009287Y239340D01*
D02*
G37*
G36*
X2995307D02*
X2983326D01*
X2983641Y236946D01*
X2984951Y233784D01*
X2987035Y231068D01*
X2989751Y228985D01*
X2992913Y227675D01*
X2995307Y227360D01*
Y239340D01*
D02*
G37*
G36*
X2597797Y662232D02*
Y651260D01*
X2608769D01*
X2608488Y653393D01*
X2607279Y656312D01*
X2605355Y658819D01*
X2602849Y660742D01*
X2599930Y661951D01*
X2597797Y662232D01*
D02*
G37*
G36*
X2595797D02*
X2593664Y661951D01*
X2590745Y660742D01*
X2588238Y658819D01*
X2586315Y656312D01*
X2585106Y653393D01*
X2584825Y651260D01*
X2595797D01*
Y662232D01*
D02*
G37*
G36*
X2608769Y649260D02*
X2597797D01*
Y638288D01*
X2599930Y638569D01*
X2602849Y639778D01*
X2605355Y641702D01*
X2607279Y644208D01*
X2608488Y647127D01*
X2608769Y649260D01*
D02*
G37*
G36*
X2595797D02*
X2584825D01*
X2585106Y647127D01*
X2586315Y644208D01*
X2588238Y641702D01*
X2590745Y639778D01*
X2593664Y638569D01*
X2595797Y638288D01*
Y649260D01*
D02*
G37*
G36*
X2597307Y432312D02*
Y421340D01*
X2608279D01*
X2607998Y423473D01*
X2606789Y426392D01*
X2604865Y428899D01*
X2602358Y430822D01*
X2599439Y432031D01*
X2597307Y432312D01*
D02*
G37*
G36*
X2595307D02*
X2593174Y432031D01*
X2590255Y430822D01*
X2587748Y428899D01*
X2585825Y426392D01*
X2584615Y423473D01*
X2584335Y421340D01*
X2595307D01*
Y432312D01*
D02*
G37*
G36*
X2608279Y419340D02*
X2597307D01*
Y408368D01*
X2599439Y408649D01*
X2602358Y409858D01*
X2604865Y411782D01*
X2606789Y414288D01*
X2607998Y417207D01*
X2608279Y419340D01*
D02*
G37*
G36*
X2595307D02*
X2584335D01*
X2584615Y417207D01*
X2585825Y414288D01*
X2587748Y411782D01*
X2590255Y409858D01*
X2593174Y408649D01*
X2595307Y408368D01*
Y419340D01*
D02*
G37*
G36*
X2554178Y359298D02*
X2546320D01*
Y351440D01*
X2554178D01*
Y359298D01*
D02*
G37*
G36*
X2520920Y359243D02*
Y351440D01*
X2528723D01*
X2528550Y352752D01*
X2527657Y354907D01*
X2526238Y356758D01*
X2524387Y358177D01*
X2522232Y359070D01*
X2520920Y359243D01*
D02*
G37*
G36*
X2518920Y359243D02*
X2517608Y359070D01*
X2515453Y358177D01*
X2513602Y356758D01*
X2512183Y354907D01*
X2511290Y352752D01*
X2511117Y351440D01*
X2518920D01*
Y359243D01*
D02*
G37*
G36*
X2544320Y359298D02*
X2536462D01*
Y351440D01*
X2544320D01*
Y359298D01*
D02*
G37*
G36*
X2518920Y349440D02*
X2511117D01*
X2511290Y348128D01*
X2512183Y345973D01*
X2513602Y344122D01*
X2515453Y342703D01*
X2517608Y341810D01*
X2518920Y341637D01*
Y349440D01*
D02*
G37*
G36*
X2528723D02*
X2520920D01*
Y341637D01*
X2522232Y341810D01*
X2524387Y342703D01*
X2526238Y344122D01*
X2527657Y345973D01*
X2528550Y348128D01*
X2528723Y349440D01*
D02*
G37*
G36*
X2554178D02*
X2546320D01*
Y341582D01*
X2554178D01*
Y349440D01*
D02*
G37*
G36*
X2544320D02*
X2536462D01*
Y341582D01*
X2544320D01*
Y349440D01*
D02*
G37*
G36*
X2546320Y333843D02*
Y326040D01*
X2554123D01*
X2553950Y327352D01*
X2553058Y329507D01*
X2551638Y331358D01*
X2549787Y332777D01*
X2547632Y333670D01*
X2546320Y333843D01*
D02*
G37*
G36*
X2520920D02*
Y326040D01*
X2528723D01*
X2528550Y327352D01*
X2527657Y329507D01*
X2526238Y331358D01*
X2524387Y332777D01*
X2522232Y333670D01*
X2520920Y333843D01*
D02*
G37*
G36*
X2544320Y333843D02*
X2543008Y333670D01*
X2540853Y332777D01*
X2539002Y331358D01*
X2537583Y329507D01*
X2536690Y327352D01*
X2536517Y326040D01*
X2544320D01*
Y333843D01*
D02*
G37*
G36*
X2518920D02*
X2517608Y333670D01*
X2515453Y332777D01*
X2513602Y331358D01*
X2512183Y329507D01*
X2511290Y327352D01*
X2511117Y326040D01*
X2518920D01*
Y333843D01*
D02*
G37*
G36*
X2544320Y324040D02*
X2536517D01*
X2536690Y322728D01*
X2537583Y320573D01*
X2539002Y318722D01*
X2540853Y317303D01*
X2543008Y316410D01*
X2544320Y316237D01*
Y324040D01*
D02*
G37*
G36*
X2518920D02*
X2511117D01*
X2511290Y322728D01*
X2512183Y320573D01*
X2513602Y318722D01*
X2515453Y317303D01*
X2517608Y316410D01*
X2518920Y316237D01*
Y324040D01*
D02*
G37*
G36*
X2554123D02*
X2546320D01*
Y316237D01*
X2547632Y316410D01*
X2549787Y317303D01*
X2551638Y318722D01*
X2553058Y320573D01*
X2553950Y322728D01*
X2554123Y324040D01*
D02*
G37*
G36*
X2528723D02*
X2520920D01*
Y316237D01*
X2522232Y316410D01*
X2524387Y317303D01*
X2526238Y318722D01*
X2527657Y320573D01*
X2528550Y322728D01*
X2528723Y324040D01*
D02*
G37*
G36*
X2816463Y660073D02*
Y651260D01*
X2825277D01*
X2825070Y652834D01*
X2824076Y655232D01*
X2822496Y657292D01*
X2820436Y658873D01*
X2818037Y659866D01*
X2816463Y660073D01*
D02*
G37*
G36*
X2814464D02*
X2812889Y659866D01*
X2810491Y658873D01*
X2808431Y657292D01*
X2806851Y655232D01*
X2805857Y652834D01*
X2805650Y651260D01*
X2814464D01*
Y660073D01*
D02*
G37*
G36*
X2962797Y660073D02*
Y651260D01*
X2971610D01*
X2971403Y652834D01*
X2970409Y655232D01*
X2968829Y657292D01*
X2966769Y658873D01*
X2964370Y659866D01*
X2962797Y660073D01*
D02*
G37*
G36*
X2960797D02*
X2959222Y659866D01*
X2956824Y658873D01*
X2954764Y657292D01*
X2953184Y655232D01*
X2952190Y652834D01*
X2951983Y651260D01*
X2960797D01*
Y660073D01*
D02*
G37*
G36*
X2926130D02*
Y651260D01*
X2934943D01*
X2934736Y652834D01*
X2933742Y655232D01*
X2932162Y657292D01*
X2930103Y658873D01*
X2927704Y659866D01*
X2926130Y660073D01*
D02*
G37*
G36*
X2924130D02*
X2922556Y659866D01*
X2920157Y658873D01*
X2918098Y657292D01*
X2916517Y655232D01*
X2915524Y652834D01*
X2915316Y651260D01*
X2924130D01*
Y660073D01*
D02*
G37*
G36*
X2779464D02*
Y651260D01*
X2788277D01*
X2788069Y652834D01*
X2787076Y655232D01*
X2785496Y657292D01*
X2783436Y658873D01*
X2781037Y659866D01*
X2779464Y660073D01*
D02*
G37*
G36*
X2777463D02*
X2775889Y659866D01*
X2773491Y658873D01*
X2771431Y657292D01*
X2769851Y655232D01*
X2768857Y652834D01*
X2768650Y651260D01*
X2777463D01*
Y660073D01*
D02*
G37*
G36*
X2742797D02*
Y651260D01*
X2751610D01*
X2751403Y652834D01*
X2750410Y655232D01*
X2748829Y657292D01*
X2746769Y658873D01*
X2744371Y659866D01*
X2742797Y660073D01*
D02*
G37*
G36*
X2740797D02*
X2739223Y659866D01*
X2736824Y658873D01*
X2734764Y657292D01*
X2733184Y655232D01*
X2732191Y652834D01*
X2731983Y651260D01*
X2740797D01*
Y660073D01*
D02*
G37*
G36*
X2706130D02*
Y651260D01*
X2714944D01*
X2714736Y652834D01*
X2713743Y655232D01*
X2712162Y657292D01*
X2710103Y658873D01*
X2707704Y659866D01*
X2706130Y660073D01*
D02*
G37*
G36*
X2704130D02*
X2702556Y659866D01*
X2700157Y658873D01*
X2698098Y657292D01*
X2696517Y655232D01*
X2695524Y652834D01*
X2695317Y651260D01*
X2704130D01*
Y660073D01*
D02*
G37*
G36*
X2669464D02*
Y651260D01*
X2678277D01*
X2678070Y652834D01*
X2677076Y655232D01*
X2675496Y657292D01*
X2673436Y658873D01*
X2671037Y659866D01*
X2669464Y660073D01*
D02*
G37*
G36*
X2667463D02*
X2665890Y659866D01*
X2663491Y658873D01*
X2661431Y657292D01*
X2659851Y655232D01*
X2658857Y652834D01*
X2658650Y651260D01*
X2667463D01*
Y660073D01*
D02*
G37*
G36*
X2825277Y649260D02*
X2816463D01*
Y640446D01*
X2818037Y640654D01*
X2820436Y641647D01*
X2822496Y643228D01*
X2824076Y645287D01*
X2825070Y647686D01*
X2825277Y649260D01*
D02*
G37*
G36*
X2814464D02*
X2805650D01*
X2805857Y647686D01*
X2806851Y645287D01*
X2808431Y643228D01*
X2810491Y641647D01*
X2812889Y640654D01*
X2814464Y640446D01*
Y649260D01*
D02*
G37*
G36*
X2971610Y649260D02*
X2962797D01*
Y640446D01*
X2964370Y640654D01*
X2966769Y641647D01*
X2968829Y643228D01*
X2970409Y645287D01*
X2971403Y647686D01*
X2971610Y649260D01*
D02*
G37*
G36*
X2960797D02*
X2951983D01*
X2952190Y647686D01*
X2953184Y645287D01*
X2954764Y643228D01*
X2956824Y641647D01*
X2959222Y640654D01*
X2960797Y640446D01*
Y649260D01*
D02*
G37*
G36*
X2934943D02*
X2926130D01*
Y640446D01*
X2927704Y640654D01*
X2930103Y641647D01*
X2932162Y643228D01*
X2933742Y645287D01*
X2934736Y647686D01*
X2934943Y649260D01*
D02*
G37*
G36*
X2924130D02*
X2915316D01*
X2915524Y647686D01*
X2916517Y645287D01*
X2918098Y643228D01*
X2920157Y641647D01*
X2922556Y640654D01*
X2924130Y640446D01*
Y649260D01*
D02*
G37*
G36*
X2788277D02*
X2779464D01*
Y640446D01*
X2781037Y640654D01*
X2783436Y641647D01*
X2785496Y643228D01*
X2787076Y645287D01*
X2788069Y647686D01*
X2788277Y649260D01*
D02*
G37*
G36*
X2777463D02*
X2768650D01*
X2768857Y647686D01*
X2769851Y645287D01*
X2771431Y643228D01*
X2773491Y641647D01*
X2775889Y640654D01*
X2777463Y640446D01*
Y649260D01*
D02*
G37*
G36*
X2751610D02*
X2742797D01*
Y640446D01*
X2744371Y640654D01*
X2746769Y641647D01*
X2748829Y643228D01*
X2750410Y645287D01*
X2751403Y647686D01*
X2751610Y649260D01*
D02*
G37*
G36*
X2740797D02*
X2731983D01*
X2732191Y647686D01*
X2733184Y645287D01*
X2734764Y643228D01*
X2736824Y641647D01*
X2739223Y640654D01*
X2740797Y640446D01*
Y649260D01*
D02*
G37*
G36*
X2714944D02*
X2706130D01*
Y640446D01*
X2707704Y640654D01*
X2710103Y641647D01*
X2712162Y643228D01*
X2713743Y645287D01*
X2714736Y647686D01*
X2714944Y649260D01*
D02*
G37*
G36*
X2704130D02*
X2695317D01*
X2695524Y647686D01*
X2696517Y645287D01*
X2698098Y643228D01*
X2700157Y641647D01*
X2702556Y640654D01*
X2704130Y640446D01*
Y649260D01*
D02*
G37*
G36*
X2678277D02*
X2669464D01*
Y640446D01*
X2671037Y640654D01*
X2673436Y641647D01*
X2675496Y643228D01*
X2677076Y645287D01*
X2678070Y647686D01*
X2678277Y649260D01*
D02*
G37*
G36*
X2667463D02*
X2658650D01*
X2658857Y647686D01*
X2659851Y645287D01*
X2661431Y643228D01*
X2663491Y641647D01*
X2665890Y640654D01*
X2667463Y640446D01*
Y649260D01*
D02*
G37*
G36*
X2871797Y639963D02*
X2869285Y639632D01*
X2866945Y638663D01*
X2864936Y637121D01*
X2863394Y635112D01*
X2862424Y632771D01*
X2861169D01*
X2860200Y635112D01*
X2858658Y637121D01*
X2856648Y638663D01*
X2854308Y639632D01*
X2851797Y639963D01*
X2849285Y639632D01*
X2846945Y638663D01*
X2844936Y637121D01*
X2843394Y635112D01*
X2842424Y632771D01*
X2842094Y630260D01*
X2842424Y627749D01*
X2843394Y625409D01*
X2844936Y623399D01*
X2846945Y621857D01*
X2849285Y620888D01*
X2851797Y620557D01*
X2854308Y620888D01*
X2856648Y621857D01*
X2858658Y623399D01*
X2860200Y625409D01*
X2861169Y627749D01*
X2862424D01*
X2863394Y625409D01*
X2864936Y623399D01*
X2866945Y621857D01*
X2869285Y620888D01*
X2871797Y620557D01*
X2874308Y620888D01*
X2876648Y621857D01*
X2878658Y623399D01*
X2880200Y625409D01*
X2881169Y627749D01*
X2881500Y630260D01*
X2881169Y632771D01*
X2880200Y635112D01*
X2878658Y637121D01*
X2876648Y638663D01*
X2874308Y639632D01*
X2871797Y639963D01*
D02*
G37*
G36*
X2962797Y624073D02*
Y615260D01*
X2971610D01*
X2971403Y616834D01*
X2970409Y619232D01*
X2968829Y621292D01*
X2966769Y622873D01*
X2964370Y623866D01*
X2962797Y624073D01*
D02*
G37*
G36*
X2960797D02*
X2959222Y623866D01*
X2956824Y622873D01*
X2954764Y621292D01*
X2953184Y619232D01*
X2952190Y616834D01*
X2951983Y615260D01*
X2960797D01*
Y624073D01*
D02*
G37*
G36*
X2926130D02*
Y615260D01*
X2934943D01*
X2934736Y616834D01*
X2933742Y619232D01*
X2932162Y621292D01*
X2930103Y622873D01*
X2927704Y623866D01*
X2926130Y624073D01*
D02*
G37*
G36*
X2924130D02*
X2922556Y623866D01*
X2920157Y622873D01*
X2918098Y621292D01*
X2916517Y619232D01*
X2915524Y616834D01*
X2915316Y615260D01*
X2924130D01*
Y624073D01*
D02*
G37*
G36*
X2779464D02*
Y615260D01*
X2788277D01*
X2788069Y616834D01*
X2787076Y619232D01*
X2785496Y621292D01*
X2783436Y622873D01*
X2781037Y623866D01*
X2779464Y624073D01*
D02*
G37*
G36*
X2777463D02*
X2775889Y623866D01*
X2773491Y622873D01*
X2771431Y621292D01*
X2769851Y619232D01*
X2768857Y616834D01*
X2768650Y615260D01*
X2777463D01*
Y624073D01*
D02*
G37*
G36*
X2742797D02*
Y615260D01*
X2751610D01*
X2751403Y616834D01*
X2750410Y619232D01*
X2748829Y621292D01*
X2746769Y622873D01*
X2744371Y623866D01*
X2742797Y624073D01*
D02*
G37*
G36*
X2740797D02*
X2739223Y623866D01*
X2736824Y622873D01*
X2734764Y621292D01*
X2733184Y619232D01*
X2732191Y616834D01*
X2731983Y615260D01*
X2740797D01*
Y624073D01*
D02*
G37*
G36*
X2706130D02*
Y615260D01*
X2714944D01*
X2714736Y616834D01*
X2713743Y619232D01*
X2712162Y621292D01*
X2710103Y622873D01*
X2707704Y623866D01*
X2706130Y624073D01*
D02*
G37*
G36*
X2704130D02*
X2702556Y623866D01*
X2700157Y622873D01*
X2698098Y621292D01*
X2696517Y619232D01*
X2695524Y616834D01*
X2695317Y615260D01*
X2704130D01*
Y624073D01*
D02*
G37*
G36*
X2669464D02*
Y615260D01*
X2678277D01*
X2678070Y616834D01*
X2677076Y619232D01*
X2675496Y621292D01*
X2673436Y622873D01*
X2671037Y623866D01*
X2669464Y624073D01*
D02*
G37*
G36*
X2667463D02*
X2665890Y623866D01*
X2663491Y622873D01*
X2661431Y621292D01*
X2659851Y619232D01*
X2658857Y616834D01*
X2658650Y615260D01*
X2667463D01*
Y624073D01*
D02*
G37*
G36*
X2816463Y623073D02*
Y614260D01*
X2825277D01*
X2825070Y615834D01*
X2824076Y618232D01*
X2822496Y620292D01*
X2820436Y621873D01*
X2818037Y622866D01*
X2816463Y623073D01*
D02*
G37*
G36*
X2814464D02*
X2812889Y622866D01*
X2810491Y621873D01*
X2808431Y620292D01*
X2806851Y618232D01*
X2805857Y615834D01*
X2805650Y614260D01*
X2814464D01*
Y623073D01*
D02*
G37*
G36*
X2971610Y613260D02*
X2962797D01*
Y604446D01*
X2964370Y604654D01*
X2966769Y605647D01*
X2968829Y607228D01*
X2970409Y609287D01*
X2971403Y611686D01*
X2971610Y613260D01*
D02*
G37*
G36*
X2960797D02*
X2951983D01*
X2952190Y611686D01*
X2953184Y609287D01*
X2954764Y607228D01*
X2956824Y605647D01*
X2959222Y604654D01*
X2960797Y604446D01*
Y613260D01*
D02*
G37*
G36*
X2934943D02*
X2926130D01*
Y604446D01*
X2927704Y604654D01*
X2930103Y605647D01*
X2932162Y607228D01*
X2933742Y609287D01*
X2934736Y611686D01*
X2934943Y613260D01*
D02*
G37*
G36*
X2924130D02*
X2915316D01*
X2915524Y611686D01*
X2916517Y609287D01*
X2918098Y607228D01*
X2920157Y605647D01*
X2922556Y604654D01*
X2924130Y604446D01*
Y613260D01*
D02*
G37*
G36*
X2788277D02*
X2779464D01*
Y604446D01*
X2781037Y604654D01*
X2783436Y605647D01*
X2785496Y607228D01*
X2787076Y609287D01*
X2788069Y611686D01*
X2788277Y613260D01*
D02*
G37*
G36*
X2777463D02*
X2768650D01*
X2768857Y611686D01*
X2769851Y609287D01*
X2771431Y607228D01*
X2773491Y605647D01*
X2775889Y604654D01*
X2777463Y604446D01*
Y613260D01*
D02*
G37*
G36*
X2751610D02*
X2742797D01*
Y604446D01*
X2744371Y604654D01*
X2746769Y605647D01*
X2748829Y607228D01*
X2750410Y609287D01*
X2751403Y611686D01*
X2751610Y613260D01*
D02*
G37*
G36*
X2740797D02*
X2731983D01*
X2732191Y611686D01*
X2733184Y609287D01*
X2734764Y607228D01*
X2736824Y605647D01*
X2739223Y604654D01*
X2740797Y604446D01*
Y613260D01*
D02*
G37*
G36*
X2714944D02*
X2706130D01*
Y604446D01*
X2707704Y604654D01*
X2710103Y605647D01*
X2712162Y607228D01*
X2713743Y609287D01*
X2714736Y611686D01*
X2714944Y613260D01*
D02*
G37*
G36*
X2704130D02*
X2695317D01*
X2695524Y611686D01*
X2696517Y609287D01*
X2698098Y607228D01*
X2700157Y605647D01*
X2702556Y604654D01*
X2704130Y604446D01*
Y613260D01*
D02*
G37*
G36*
X2678277D02*
X2669464D01*
Y604446D01*
X2671037Y604654D01*
X2673436Y605647D01*
X2675496Y607228D01*
X2677076Y609287D01*
X2678070Y611686D01*
X2678277Y613260D01*
D02*
G37*
G36*
X2667463D02*
X2658650D01*
X2658857Y611686D01*
X2659851Y609287D01*
X2661431Y607228D01*
X2663491Y605647D01*
X2665890Y604654D01*
X2667463Y604446D01*
Y613260D01*
D02*
G37*
G36*
X2825277Y612260D02*
X2816463D01*
Y603447D01*
X2818037Y603654D01*
X2820436Y604647D01*
X2822496Y606228D01*
X2824076Y608287D01*
X2825070Y610686D01*
X2825277Y612260D01*
D02*
G37*
G36*
X2814464D02*
X2805650D01*
X2805857Y610686D01*
X2806851Y608287D01*
X2808431Y606228D01*
X2810491Y604647D01*
X2812889Y603654D01*
X2814464Y603447D01*
Y612260D01*
D02*
G37*
G36*
X2962797Y588073D02*
Y579260D01*
X2971610D01*
X2971403Y580834D01*
X2970409Y583232D01*
X2968829Y585292D01*
X2966769Y586873D01*
X2964370Y587866D01*
X2962797Y588073D01*
D02*
G37*
G36*
X2960797D02*
X2959222Y587866D01*
X2956824Y586873D01*
X2954764Y585292D01*
X2953184Y583232D01*
X2952190Y580834D01*
X2951983Y579260D01*
X2960797D01*
Y588073D01*
D02*
G37*
G36*
X2926130D02*
Y579260D01*
X2934943D01*
X2934736Y580834D01*
X2933742Y583232D01*
X2932162Y585292D01*
X2930103Y586873D01*
X2927704Y587866D01*
X2926130Y588073D01*
D02*
G37*
G36*
X2924130D02*
X2922556Y587866D01*
X2920157Y586873D01*
X2918098Y585292D01*
X2916517Y583232D01*
X2915524Y580834D01*
X2915316Y579260D01*
X2924130D01*
Y588073D01*
D02*
G37*
G36*
X2889463D02*
Y579260D01*
X2898277D01*
X2898069Y580834D01*
X2897076Y583232D01*
X2895496Y585292D01*
X2893436Y586873D01*
X2891037Y587866D01*
X2889463Y588073D01*
D02*
G37*
G36*
X2887463D02*
X2885889Y587866D01*
X2883491Y586873D01*
X2881431Y585292D01*
X2879850Y583232D01*
X2878857Y580834D01*
X2878650Y579260D01*
X2887463D01*
Y588073D01*
D02*
G37*
G36*
X2852797D02*
Y579260D01*
X2861610D01*
X2861403Y580834D01*
X2860409Y583232D01*
X2858829Y585292D01*
X2856769Y586873D01*
X2854371Y587866D01*
X2852797Y588073D01*
D02*
G37*
G36*
X2850797D02*
X2849223Y587866D01*
X2846824Y586873D01*
X2844764Y585292D01*
X2843184Y583232D01*
X2842191Y580834D01*
X2841983Y579260D01*
X2850797D01*
Y588073D01*
D02*
G37*
G36*
X2816130D02*
Y579260D01*
X2824944D01*
X2824736Y580834D01*
X2823743Y583232D01*
X2822162Y585292D01*
X2820103Y586873D01*
X2817704Y587866D01*
X2816130Y588073D01*
D02*
G37*
G36*
X2814130D02*
X2812556Y587866D01*
X2810157Y586873D01*
X2808098Y585292D01*
X2806517Y583232D01*
X2805524Y580834D01*
X2805316Y579260D01*
X2814130D01*
Y588073D01*
D02*
G37*
G36*
X2779464D02*
Y579260D01*
X2788277D01*
X2788069Y580834D01*
X2787076Y583232D01*
X2785496Y585292D01*
X2783436Y586873D01*
X2781037Y587866D01*
X2779464Y588073D01*
D02*
G37*
G36*
X2777463D02*
X2775889Y587866D01*
X2773491Y586873D01*
X2771431Y585292D01*
X2769851Y583232D01*
X2768857Y580834D01*
X2768650Y579260D01*
X2777463D01*
Y588073D01*
D02*
G37*
G36*
X2742797D02*
Y579260D01*
X2751610D01*
X2751403Y580834D01*
X2750410Y583232D01*
X2748829Y585292D01*
X2746769Y586873D01*
X2744371Y587866D01*
X2742797Y588073D01*
D02*
G37*
G36*
X2740797D02*
X2739223Y587866D01*
X2736824Y586873D01*
X2734764Y585292D01*
X2733184Y583232D01*
X2732191Y580834D01*
X2731983Y579260D01*
X2740797D01*
Y588073D01*
D02*
G37*
G36*
X2706130D02*
Y579260D01*
X2714944D01*
X2714736Y580834D01*
X2713743Y583232D01*
X2712162Y585292D01*
X2710103Y586873D01*
X2707704Y587866D01*
X2706130Y588073D01*
D02*
G37*
G36*
X2704130D02*
X2702556Y587866D01*
X2700157Y586873D01*
X2698098Y585292D01*
X2696517Y583232D01*
X2695524Y580834D01*
X2695317Y579260D01*
X2704130D01*
Y588073D01*
D02*
G37*
G36*
X2669464D02*
Y579260D01*
X2678277D01*
X2678070Y580834D01*
X2677076Y583232D01*
X2675496Y585292D01*
X2673436Y586873D01*
X2671037Y587866D01*
X2669464Y588073D01*
D02*
G37*
G36*
X2667463D02*
X2665890Y587866D01*
X2663491Y586873D01*
X2661431Y585292D01*
X2659851Y583232D01*
X2658857Y580834D01*
X2658650Y579260D01*
X2667463D01*
Y588073D01*
D02*
G37*
G36*
X2971610Y577260D02*
X2962797D01*
Y568447D01*
X2964370Y568654D01*
X2966769Y569647D01*
X2968829Y571228D01*
X2970409Y573287D01*
X2971403Y575686D01*
X2971610Y577260D01*
D02*
G37*
G36*
X2960797D02*
X2951983D01*
X2952190Y575686D01*
X2953184Y573287D01*
X2954764Y571228D01*
X2956824Y569647D01*
X2959222Y568654D01*
X2960797Y568447D01*
Y577260D01*
D02*
G37*
G36*
X2934943D02*
X2926130D01*
Y568447D01*
X2927704Y568654D01*
X2930103Y569647D01*
X2932162Y571228D01*
X2933742Y573287D01*
X2934736Y575686D01*
X2934943Y577260D01*
D02*
G37*
G36*
X2924130D02*
X2915316D01*
X2915524Y575686D01*
X2916517Y573287D01*
X2918098Y571228D01*
X2920157Y569647D01*
X2922556Y568654D01*
X2924130Y568447D01*
Y577260D01*
D02*
G37*
G36*
X2898277D02*
X2889463D01*
Y568447D01*
X2891037Y568654D01*
X2893436Y569647D01*
X2895496Y571228D01*
X2897076Y573287D01*
X2898069Y575686D01*
X2898277Y577260D01*
D02*
G37*
G36*
X2887463D02*
X2878650D01*
X2878857Y575686D01*
X2879850Y573287D01*
X2881431Y571228D01*
X2883491Y569647D01*
X2885889Y568654D01*
X2887463Y568447D01*
Y577260D01*
D02*
G37*
G36*
X2861610D02*
X2852797D01*
Y568447D01*
X2854371Y568654D01*
X2856769Y569647D01*
X2858829Y571228D01*
X2860409Y573287D01*
X2861403Y575686D01*
X2861610Y577260D01*
D02*
G37*
G36*
X2850797D02*
X2841983D01*
X2842191Y575686D01*
X2843184Y573287D01*
X2844764Y571228D01*
X2846824Y569647D01*
X2849223Y568654D01*
X2850797Y568447D01*
Y577260D01*
D02*
G37*
G36*
X2824944D02*
X2816130D01*
Y568447D01*
X2817704Y568654D01*
X2820103Y569647D01*
X2822162Y571228D01*
X2823743Y573287D01*
X2824736Y575686D01*
X2824944Y577260D01*
D02*
G37*
G36*
X2814130D02*
X2805316D01*
X2805524Y575686D01*
X2806517Y573287D01*
X2808098Y571228D01*
X2810157Y569647D01*
X2812556Y568654D01*
X2814130Y568447D01*
Y577260D01*
D02*
G37*
G36*
X2788277D02*
X2779464D01*
Y568447D01*
X2781037Y568654D01*
X2783436Y569647D01*
X2785496Y571228D01*
X2787076Y573287D01*
X2788069Y575686D01*
X2788277Y577260D01*
D02*
G37*
G36*
X2777463D02*
X2768650D01*
X2768857Y575686D01*
X2769851Y573287D01*
X2771431Y571228D01*
X2773491Y569647D01*
X2775889Y568654D01*
X2777463Y568447D01*
Y577260D01*
D02*
G37*
G36*
X2751610D02*
X2742797D01*
Y568447D01*
X2744371Y568654D01*
X2746769Y569647D01*
X2748829Y571228D01*
X2750410Y573287D01*
X2751403Y575686D01*
X2751610Y577260D01*
D02*
G37*
G36*
X2740797D02*
X2731983D01*
X2732191Y575686D01*
X2733184Y573287D01*
X2734764Y571228D01*
X2736824Y569647D01*
X2739223Y568654D01*
X2740797Y568447D01*
Y577260D01*
D02*
G37*
G36*
X2714944D02*
X2706130D01*
Y568447D01*
X2707704Y568654D01*
X2710103Y569647D01*
X2712162Y571228D01*
X2713743Y573287D01*
X2714736Y575686D01*
X2714944Y577260D01*
D02*
G37*
G36*
X2704130D02*
X2695317D01*
X2695524Y575686D01*
X2696517Y573287D01*
X2698098Y571228D01*
X2700157Y569647D01*
X2702556Y568654D01*
X2704130Y568447D01*
Y577260D01*
D02*
G37*
G36*
X2678277D02*
X2669464D01*
Y568447D01*
X2671037Y568654D01*
X2673436Y569647D01*
X2675496Y571228D01*
X2677076Y573287D01*
X2678070Y575686D01*
X2678277Y577260D01*
D02*
G37*
G36*
X2667463D02*
X2658650D01*
X2658857Y575686D01*
X2659851Y573287D01*
X2661431Y571228D01*
X2663491Y569647D01*
X2665890Y568654D01*
X2667463Y568447D01*
Y577260D01*
D02*
G37*
G36*
X2962797Y552073D02*
Y543260D01*
X2971610D01*
X2971403Y544834D01*
X2970409Y547233D01*
X2968829Y549292D01*
X2966769Y550873D01*
X2964370Y551866D01*
X2962797Y552073D01*
D02*
G37*
G36*
X2960797D02*
X2959222Y551866D01*
X2956824Y550873D01*
X2954764Y549292D01*
X2953184Y547233D01*
X2952190Y544834D01*
X2951983Y543260D01*
X2960797D01*
Y552073D01*
D02*
G37*
G36*
X2926130D02*
Y543260D01*
X2934943D01*
X2934736Y544834D01*
X2933742Y547233D01*
X2932162Y549292D01*
X2930103Y550873D01*
X2927704Y551866D01*
X2926130Y552073D01*
D02*
G37*
G36*
X2924130D02*
X2922556Y551866D01*
X2920157Y550873D01*
X2918098Y549292D01*
X2916517Y547233D01*
X2915524Y544834D01*
X2915316Y543260D01*
X2924130D01*
Y552073D01*
D02*
G37*
G36*
X2889463D02*
Y543260D01*
X2898277D01*
X2898069Y544834D01*
X2897076Y547233D01*
X2895496Y549292D01*
X2893436Y550873D01*
X2891037Y551866D01*
X2889463Y552073D01*
D02*
G37*
G36*
X2887463D02*
X2885889Y551866D01*
X2883491Y550873D01*
X2881431Y549292D01*
X2879850Y547233D01*
X2878857Y544834D01*
X2878650Y543260D01*
X2887463D01*
Y552073D01*
D02*
G37*
G36*
X2852797D02*
Y543260D01*
X2861610D01*
X2861403Y544834D01*
X2860409Y547233D01*
X2858829Y549292D01*
X2856769Y550873D01*
X2854371Y551866D01*
X2852797Y552073D01*
D02*
G37*
G36*
X2850797D02*
X2849223Y551866D01*
X2846824Y550873D01*
X2844764Y549292D01*
X2843184Y547233D01*
X2842191Y544834D01*
X2841983Y543260D01*
X2850797D01*
Y552073D01*
D02*
G37*
G36*
X2816130D02*
Y543260D01*
X2824944D01*
X2824736Y544834D01*
X2823743Y547233D01*
X2822162Y549292D01*
X2820103Y550873D01*
X2817704Y551866D01*
X2816130Y552073D01*
D02*
G37*
G36*
X2814130D02*
X2812556Y551866D01*
X2810157Y550873D01*
X2808098Y549292D01*
X2806517Y547233D01*
X2805524Y544834D01*
X2805316Y543260D01*
X2814130D01*
Y552073D01*
D02*
G37*
G36*
X2779464D02*
Y543260D01*
X2788277D01*
X2788069Y544834D01*
X2787076Y547233D01*
X2785496Y549292D01*
X2783436Y550873D01*
X2781037Y551866D01*
X2779464Y552073D01*
D02*
G37*
G36*
X2777463D02*
X2775889Y551866D01*
X2773491Y550873D01*
X2771431Y549292D01*
X2769851Y547233D01*
X2768857Y544834D01*
X2768650Y543260D01*
X2777463D01*
Y552073D01*
D02*
G37*
G36*
X2742797D02*
Y543260D01*
X2751610D01*
X2751403Y544834D01*
X2750410Y547233D01*
X2748829Y549292D01*
X2746769Y550873D01*
X2744371Y551866D01*
X2742797Y552073D01*
D02*
G37*
G36*
X2740797D02*
X2739223Y551866D01*
X2736824Y550873D01*
X2734764Y549292D01*
X2733184Y547233D01*
X2732191Y544834D01*
X2731983Y543260D01*
X2740797D01*
Y552073D01*
D02*
G37*
G36*
X2706130D02*
Y543260D01*
X2714944D01*
X2714736Y544834D01*
X2713743Y547233D01*
X2712162Y549292D01*
X2710103Y550873D01*
X2707704Y551866D01*
X2706130Y552073D01*
D02*
G37*
G36*
X2704130D02*
X2702556Y551866D01*
X2700157Y550873D01*
X2698098Y549292D01*
X2696517Y547233D01*
X2695524Y544834D01*
X2695317Y543260D01*
X2704130D01*
Y552073D01*
D02*
G37*
G36*
X2669464D02*
Y543260D01*
X2678277D01*
X2678070Y544834D01*
X2677076Y547233D01*
X2675496Y549292D01*
X2673436Y550873D01*
X2671037Y551866D01*
X2669464Y552073D01*
D02*
G37*
G36*
X2667463D02*
X2665890Y551866D01*
X2663491Y550873D01*
X2661431Y549292D01*
X2659851Y547233D01*
X2658857Y544834D01*
X2658650Y543260D01*
X2667463D01*
Y552073D01*
D02*
G37*
G36*
X2971610Y541260D02*
X2962797D01*
Y532447D01*
X2964370Y532654D01*
X2966769Y533647D01*
X2968829Y535228D01*
X2970409Y537287D01*
X2971403Y539686D01*
X2971610Y541260D01*
D02*
G37*
G36*
X2960797D02*
X2951983D01*
X2952190Y539686D01*
X2953184Y537287D01*
X2954764Y535228D01*
X2956824Y533647D01*
X2959222Y532654D01*
X2960797Y532447D01*
Y541260D01*
D02*
G37*
G36*
X2934943D02*
X2926130D01*
Y532447D01*
X2927704Y532654D01*
X2930103Y533647D01*
X2932162Y535228D01*
X2933742Y537287D01*
X2934736Y539686D01*
X2934943Y541260D01*
D02*
G37*
G36*
X2924130D02*
X2915316D01*
X2915524Y539686D01*
X2916517Y537287D01*
X2918098Y535228D01*
X2920157Y533647D01*
X2922556Y532654D01*
X2924130Y532447D01*
Y541260D01*
D02*
G37*
G36*
X2898277D02*
X2889463D01*
Y532447D01*
X2891037Y532654D01*
X2893436Y533647D01*
X2895496Y535228D01*
X2897076Y537287D01*
X2898069Y539686D01*
X2898277Y541260D01*
D02*
G37*
G36*
X2887463D02*
X2878650D01*
X2878857Y539686D01*
X2879850Y537287D01*
X2881431Y535228D01*
X2883491Y533647D01*
X2885889Y532654D01*
X2887463Y532447D01*
Y541260D01*
D02*
G37*
G36*
X2861610D02*
X2852797D01*
Y532447D01*
X2854371Y532654D01*
X2856769Y533647D01*
X2858829Y535228D01*
X2860409Y537287D01*
X2861403Y539686D01*
X2861610Y541260D01*
D02*
G37*
G36*
X2850797D02*
X2841983D01*
X2842191Y539686D01*
X2843184Y537287D01*
X2844764Y535228D01*
X2846824Y533647D01*
X2849223Y532654D01*
X2850797Y532447D01*
Y541260D01*
D02*
G37*
G36*
X2824944D02*
X2816130D01*
Y532447D01*
X2817704Y532654D01*
X2820103Y533647D01*
X2822162Y535228D01*
X2823743Y537287D01*
X2824736Y539686D01*
X2824944Y541260D01*
D02*
G37*
G36*
X2814130D02*
X2805316D01*
X2805524Y539686D01*
X2806517Y537287D01*
X2808098Y535228D01*
X2810157Y533647D01*
X2812556Y532654D01*
X2814130Y532447D01*
Y541260D01*
D02*
G37*
G36*
X2788277D02*
X2779464D01*
Y532447D01*
X2781037Y532654D01*
X2783436Y533647D01*
X2785496Y535228D01*
X2787076Y537287D01*
X2788069Y539686D01*
X2788277Y541260D01*
D02*
G37*
G36*
X2777463D02*
X2768650D01*
X2768857Y539686D01*
X2769851Y537287D01*
X2771431Y535228D01*
X2773491Y533647D01*
X2775889Y532654D01*
X2777463Y532447D01*
Y541260D01*
D02*
G37*
G36*
X2751610D02*
X2742797D01*
Y532447D01*
X2744371Y532654D01*
X2746769Y533647D01*
X2748829Y535228D01*
X2750410Y537287D01*
X2751403Y539686D01*
X2751610Y541260D01*
D02*
G37*
G36*
X2740797D02*
X2731983D01*
X2732191Y539686D01*
X2733184Y537287D01*
X2734764Y535228D01*
X2736824Y533647D01*
X2739223Y532654D01*
X2740797Y532447D01*
Y541260D01*
D02*
G37*
G36*
X2714944D02*
X2706130D01*
Y532447D01*
X2707704Y532654D01*
X2710103Y533647D01*
X2712162Y535228D01*
X2713743Y537287D01*
X2714736Y539686D01*
X2714944Y541260D01*
D02*
G37*
G36*
X2704130D02*
X2695317D01*
X2695524Y539686D01*
X2696517Y537287D01*
X2698098Y535228D01*
X2700157Y533647D01*
X2702556Y532654D01*
X2704130Y532447D01*
Y541260D01*
D02*
G37*
G36*
X2678277D02*
X2669464D01*
Y532447D01*
X2671037Y532654D01*
X2673436Y533647D01*
X2675496Y535228D01*
X2677076Y537287D01*
X2678070Y539686D01*
X2678277Y541260D01*
D02*
G37*
G36*
X2667463D02*
X2658650D01*
X2658857Y539686D01*
X2659851Y537287D01*
X2661431Y535228D01*
X2663491Y533647D01*
X2665890Y532654D01*
X2667463Y532447D01*
Y541260D01*
D02*
G37*
G36*
X3039628Y516118D02*
X3038868Y514981D01*
X3038402Y512640D01*
X3038868Y510299D01*
X3039628Y509162D01*
X3043106Y512640D01*
X3039628Y516118D01*
D02*
G37*
G36*
X2962797Y516073D02*
Y507260D01*
X2971610D01*
X2971403Y508834D01*
X2970409Y511232D01*
X2968829Y513292D01*
X2966769Y514873D01*
X2964370Y515866D01*
X2962797Y516073D01*
D02*
G37*
G36*
X2960797D02*
X2959222Y515866D01*
X2956824Y514873D01*
X2954764Y513292D01*
X2953184Y511232D01*
X2952190Y508834D01*
X2951983Y507260D01*
X2960797D01*
Y516073D01*
D02*
G37*
G36*
X2926130D02*
Y507260D01*
X2934943D01*
X2934736Y508834D01*
X2933742Y511232D01*
X2932162Y513292D01*
X2930103Y514873D01*
X2927704Y515866D01*
X2926130Y516073D01*
D02*
G37*
G36*
X2924130D02*
X2922556Y515866D01*
X2920157Y514873D01*
X2918098Y513292D01*
X2916517Y511232D01*
X2915524Y508834D01*
X2915316Y507260D01*
X2924130D01*
Y516073D01*
D02*
G37*
G36*
X2889463D02*
Y507260D01*
X2898277D01*
X2898069Y508834D01*
X2897076Y511232D01*
X2895496Y513292D01*
X2893436Y514873D01*
X2891037Y515866D01*
X2889463Y516073D01*
D02*
G37*
G36*
X2887463D02*
X2885889Y515866D01*
X2883491Y514873D01*
X2881431Y513292D01*
X2879850Y511232D01*
X2878857Y508834D01*
X2878650Y507260D01*
X2887463D01*
Y516073D01*
D02*
G37*
G36*
X2852797D02*
Y507260D01*
X2861610D01*
X2861403Y508834D01*
X2860409Y511232D01*
X2858829Y513292D01*
X2856769Y514873D01*
X2854371Y515866D01*
X2852797Y516073D01*
D02*
G37*
G36*
X2850797D02*
X2849223Y515866D01*
X2846824Y514873D01*
X2844764Y513292D01*
X2843184Y511232D01*
X2842191Y508834D01*
X2841983Y507260D01*
X2850797D01*
Y516073D01*
D02*
G37*
G36*
X2816130D02*
Y507260D01*
X2824944D01*
X2824736Y508834D01*
X2823743Y511232D01*
X2822162Y513292D01*
X2820103Y514873D01*
X2817704Y515866D01*
X2816130Y516073D01*
D02*
G37*
G36*
X2814130D02*
X2812556Y515866D01*
X2810157Y514873D01*
X2808098Y513292D01*
X2806517Y511232D01*
X2805524Y508834D01*
X2805316Y507260D01*
X2814130D01*
Y516073D01*
D02*
G37*
G36*
X2779464D02*
Y507260D01*
X2788277D01*
X2788069Y508834D01*
X2787076Y511232D01*
X2785496Y513292D01*
X2783436Y514873D01*
X2781037Y515866D01*
X2779464Y516073D01*
D02*
G37*
G36*
X2777463D02*
X2775889Y515866D01*
X2773491Y514873D01*
X2771431Y513292D01*
X2769851Y511232D01*
X2768857Y508834D01*
X2768650Y507260D01*
X2777463D01*
Y516073D01*
D02*
G37*
G36*
X2742797D02*
Y507260D01*
X2751610D01*
X2751403Y508834D01*
X2750410Y511232D01*
X2748829Y513292D01*
X2746769Y514873D01*
X2744371Y515866D01*
X2742797Y516073D01*
D02*
G37*
G36*
X2740797D02*
X2739223Y515866D01*
X2736824Y514873D01*
X2734764Y513292D01*
X2733184Y511232D01*
X2732191Y508834D01*
X2731983Y507260D01*
X2740797D01*
Y516073D01*
D02*
G37*
G36*
X2706130D02*
Y507260D01*
X2714944D01*
X2714736Y508834D01*
X2713743Y511232D01*
X2712162Y513292D01*
X2710103Y514873D01*
X2707704Y515866D01*
X2706130Y516073D01*
D02*
G37*
G36*
X2704130D02*
X2702556Y515866D01*
X2700157Y514873D01*
X2698098Y513292D01*
X2696517Y511232D01*
X2695524Y508834D01*
X2695317Y507260D01*
X2704130D01*
Y516073D01*
D02*
G37*
G36*
X2669464D02*
Y507260D01*
X2678277D01*
X2678070Y508834D01*
X2677076Y511232D01*
X2675496Y513292D01*
X2673436Y514873D01*
X2671037Y515866D01*
X2669464Y516073D01*
D02*
G37*
G36*
X2667463D02*
X2665890Y515866D01*
X2663491Y514873D01*
X2661431Y513292D01*
X2659851Y511232D01*
X2658857Y508834D01*
X2658650Y507260D01*
X2667463D01*
Y516073D01*
D02*
G37*
G36*
X2971610Y505260D02*
X2962797D01*
Y496447D01*
X2964370Y496654D01*
X2966769Y497647D01*
X2968829Y499228D01*
X2970409Y501287D01*
X2971403Y503686D01*
X2971610Y505260D01*
D02*
G37*
G36*
X2960797D02*
X2951983D01*
X2952190Y503686D01*
X2953184Y501287D01*
X2954764Y499228D01*
X2956824Y497647D01*
X2959222Y496654D01*
X2960797Y496447D01*
Y505260D01*
D02*
G37*
G36*
X2934943D02*
X2926130D01*
Y496447D01*
X2927704Y496654D01*
X2930103Y497647D01*
X2932162Y499228D01*
X2933742Y501287D01*
X2934736Y503686D01*
X2934943Y505260D01*
D02*
G37*
G36*
X2924130D02*
X2915316D01*
X2915524Y503686D01*
X2916517Y501287D01*
X2918098Y499228D01*
X2920157Y497647D01*
X2922556Y496654D01*
X2924130Y496447D01*
Y505260D01*
D02*
G37*
G36*
X2898277D02*
X2889463D01*
Y496447D01*
X2891037Y496654D01*
X2893436Y497647D01*
X2895496Y499228D01*
X2897076Y501287D01*
X2898069Y503686D01*
X2898277Y505260D01*
D02*
G37*
G36*
X2887463D02*
X2878650D01*
X2878857Y503686D01*
X2879850Y501287D01*
X2881431Y499228D01*
X2883491Y497647D01*
X2885889Y496654D01*
X2887463Y496447D01*
Y505260D01*
D02*
G37*
G36*
X2861610D02*
X2852797D01*
Y496447D01*
X2854371Y496654D01*
X2856769Y497647D01*
X2858829Y499228D01*
X2860409Y501287D01*
X2861403Y503686D01*
X2861610Y505260D01*
D02*
G37*
G36*
X2850797D02*
X2841983D01*
X2842191Y503686D01*
X2843184Y501287D01*
X2844764Y499228D01*
X2846824Y497647D01*
X2849223Y496654D01*
X2850797Y496447D01*
Y505260D01*
D02*
G37*
G36*
X2824944D02*
X2816130D01*
Y496447D01*
X2817704Y496654D01*
X2820103Y497647D01*
X2822162Y499228D01*
X2823743Y501287D01*
X2824736Y503686D01*
X2824944Y505260D01*
D02*
G37*
G36*
X2814130D02*
X2805316D01*
X2805524Y503686D01*
X2806517Y501287D01*
X2808098Y499228D01*
X2810157Y497647D01*
X2812556Y496654D01*
X2814130Y496447D01*
Y505260D01*
D02*
G37*
G36*
X2788277D02*
X2779464D01*
Y496447D01*
X2781037Y496654D01*
X2783436Y497647D01*
X2785496Y499228D01*
X2787076Y501287D01*
X2788069Y503686D01*
X2788277Y505260D01*
D02*
G37*
G36*
X2777463D02*
X2768650D01*
X2768857Y503686D01*
X2769851Y501287D01*
X2771431Y499228D01*
X2773491Y497647D01*
X2775889Y496654D01*
X2777463Y496447D01*
Y505260D01*
D02*
G37*
G36*
X2751610D02*
X2742797D01*
Y496447D01*
X2744371Y496654D01*
X2746769Y497647D01*
X2748829Y499228D01*
X2750410Y501287D01*
X2751403Y503686D01*
X2751610Y505260D01*
D02*
G37*
G36*
X2740797D02*
X2731983D01*
X2732191Y503686D01*
X2733184Y501287D01*
X2734764Y499228D01*
X2736824Y497647D01*
X2739223Y496654D01*
X2740797Y496447D01*
Y505260D01*
D02*
G37*
G36*
X2714944D02*
X2706130D01*
Y496447D01*
X2707704Y496654D01*
X2710103Y497647D01*
X2712162Y499228D01*
X2713743Y501287D01*
X2714736Y503686D01*
X2714944Y505260D01*
D02*
G37*
G36*
X2704130D02*
X2695317D01*
X2695524Y503686D01*
X2696517Y501287D01*
X2698098Y499228D01*
X2700157Y497647D01*
X2702556Y496654D01*
X2704130Y496447D01*
Y505260D01*
D02*
G37*
G36*
X2678277D02*
X2669464D01*
Y496447D01*
X2671037Y496654D01*
X2673436Y497647D01*
X2675496Y499228D01*
X2677076Y501287D01*
X2678070Y503686D01*
X2678277Y505260D01*
D02*
G37*
G36*
X2667463D02*
X2658650D01*
X2658857Y503686D01*
X2659851Y501287D01*
X2661431Y499228D01*
X2663491Y497647D01*
X2665890Y496654D01*
X2667463Y496447D01*
Y505260D01*
D02*
G37*
G36*
X2962797Y480073D02*
Y471260D01*
X2971610D01*
X2971403Y472834D01*
X2970409Y475233D01*
X2968829Y477292D01*
X2966769Y478873D01*
X2964370Y479866D01*
X2962797Y480073D01*
D02*
G37*
G36*
X2960797D02*
X2959222Y479866D01*
X2956824Y478873D01*
X2954764Y477292D01*
X2953184Y475233D01*
X2952190Y472834D01*
X2951983Y471260D01*
X2960797D01*
Y480073D01*
D02*
G37*
G36*
X2926130D02*
Y471260D01*
X2934943D01*
X2934736Y472834D01*
X2933742Y475233D01*
X2932162Y477292D01*
X2930103Y478873D01*
X2927704Y479866D01*
X2926130Y480073D01*
D02*
G37*
G36*
X2924130D02*
X2922556Y479866D01*
X2920157Y478873D01*
X2918098Y477292D01*
X2916517Y475233D01*
X2915524Y472834D01*
X2915316Y471260D01*
X2924130D01*
Y480073D01*
D02*
G37*
G36*
X2889463D02*
Y471260D01*
X2898277D01*
X2898069Y472834D01*
X2897076Y475233D01*
X2895496Y477292D01*
X2893436Y478873D01*
X2891037Y479866D01*
X2889463Y480073D01*
D02*
G37*
G36*
X2887463D02*
X2885889Y479866D01*
X2883491Y478873D01*
X2881431Y477292D01*
X2879850Y475233D01*
X2878857Y472834D01*
X2878650Y471260D01*
X2887463D01*
Y480073D01*
D02*
G37*
G36*
X2852797D02*
Y471260D01*
X2861610D01*
X2861403Y472834D01*
X2860409Y475233D01*
X2858829Y477292D01*
X2856769Y478873D01*
X2854371Y479866D01*
X2852797Y480073D01*
D02*
G37*
G36*
X2850797D02*
X2849223Y479866D01*
X2846824Y478873D01*
X2844764Y477292D01*
X2843184Y475233D01*
X2842191Y472834D01*
X2841983Y471260D01*
X2850797D01*
Y480073D01*
D02*
G37*
G36*
X2816130D02*
Y471260D01*
X2824944D01*
X2824736Y472834D01*
X2823743Y475233D01*
X2822162Y477292D01*
X2820103Y478873D01*
X2817704Y479866D01*
X2816130Y480073D01*
D02*
G37*
G36*
X2814130D02*
X2812556Y479866D01*
X2810157Y478873D01*
X2808098Y477292D01*
X2806517Y475233D01*
X2805524Y472834D01*
X2805316Y471260D01*
X2814130D01*
Y480073D01*
D02*
G37*
G36*
X2779464D02*
Y471260D01*
X2788277D01*
X2788069Y472834D01*
X2787076Y475233D01*
X2785496Y477292D01*
X2783436Y478873D01*
X2781037Y479866D01*
X2779464Y480073D01*
D02*
G37*
G36*
X2777463D02*
X2775889Y479866D01*
X2773491Y478873D01*
X2771431Y477292D01*
X2769851Y475233D01*
X2768857Y472834D01*
X2768650Y471260D01*
X2777463D01*
Y480073D01*
D02*
G37*
G36*
X2742797D02*
Y471260D01*
X2751610D01*
X2751403Y472834D01*
X2750410Y475233D01*
X2748829Y477292D01*
X2746769Y478873D01*
X2744371Y479866D01*
X2742797Y480073D01*
D02*
G37*
G36*
X2740797D02*
X2739223Y479866D01*
X2736824Y478873D01*
X2734764Y477292D01*
X2733184Y475233D01*
X2732191Y472834D01*
X2731983Y471260D01*
X2740797D01*
Y480073D01*
D02*
G37*
G36*
X2706130D02*
Y471260D01*
X2714944D01*
X2714736Y472834D01*
X2713743Y475233D01*
X2712162Y477292D01*
X2710103Y478873D01*
X2707704Y479866D01*
X2706130Y480073D01*
D02*
G37*
G36*
X2704130D02*
X2702556Y479866D01*
X2700157Y478873D01*
X2698098Y477292D01*
X2696517Y475233D01*
X2695524Y472834D01*
X2695317Y471260D01*
X2704130D01*
Y480073D01*
D02*
G37*
G36*
X2669464D02*
Y471260D01*
X2678277D01*
X2678070Y472834D01*
X2677076Y475233D01*
X2675496Y477292D01*
X2673436Y478873D01*
X2671037Y479866D01*
X2669464Y480073D01*
D02*
G37*
G36*
X2667463D02*
X2665890Y479866D01*
X2663491Y478873D01*
X2661431Y477292D01*
X2659851Y475233D01*
X2658857Y472834D01*
X2658650Y471260D01*
X2667463D01*
Y480073D01*
D02*
G37*
G36*
X2971610Y469260D02*
X2962797D01*
Y460447D01*
X2964370Y460654D01*
X2966769Y461647D01*
X2968829Y463228D01*
X2970409Y465288D01*
X2971403Y467686D01*
X2971610Y469260D01*
D02*
G37*
G36*
X2960797D02*
X2951983D01*
X2952190Y467686D01*
X2953184Y465288D01*
X2954764Y463228D01*
X2956824Y461647D01*
X2959222Y460654D01*
X2960797Y460447D01*
Y469260D01*
D02*
G37*
G36*
X2934943D02*
X2926130D01*
Y460447D01*
X2927704Y460654D01*
X2930103Y461647D01*
X2932162Y463228D01*
X2933742Y465288D01*
X2934736Y467686D01*
X2934943Y469260D01*
D02*
G37*
G36*
X2924130D02*
X2915316D01*
X2915524Y467686D01*
X2916517Y465288D01*
X2918098Y463228D01*
X2920157Y461647D01*
X2922556Y460654D01*
X2924130Y460447D01*
Y469260D01*
D02*
G37*
G36*
X2898277D02*
X2889463D01*
Y460447D01*
X2891037Y460654D01*
X2893436Y461647D01*
X2895496Y463228D01*
X2897076Y465288D01*
X2898069Y467686D01*
X2898277Y469260D01*
D02*
G37*
G36*
X2887463D02*
X2878650D01*
X2878857Y467686D01*
X2879850Y465288D01*
X2881431Y463228D01*
X2883491Y461647D01*
X2885889Y460654D01*
X2887463Y460447D01*
Y469260D01*
D02*
G37*
G36*
X2861610D02*
X2852797D01*
Y460447D01*
X2854371Y460654D01*
X2856769Y461647D01*
X2858829Y463228D01*
X2860409Y465288D01*
X2861403Y467686D01*
X2861610Y469260D01*
D02*
G37*
G36*
X2850797D02*
X2841983D01*
X2842191Y467686D01*
X2843184Y465288D01*
X2844764Y463228D01*
X2846824Y461647D01*
X2849223Y460654D01*
X2850797Y460447D01*
Y469260D01*
D02*
G37*
G36*
X2824944D02*
X2816130D01*
Y460447D01*
X2817704Y460654D01*
X2820103Y461647D01*
X2822162Y463228D01*
X2823743Y465288D01*
X2824736Y467686D01*
X2824944Y469260D01*
D02*
G37*
G36*
X2814130D02*
X2805316D01*
X2805524Y467686D01*
X2806517Y465288D01*
X2808098Y463228D01*
X2810157Y461647D01*
X2812556Y460654D01*
X2814130Y460447D01*
Y469260D01*
D02*
G37*
G36*
X2788277D02*
X2779464D01*
Y460447D01*
X2781037Y460654D01*
X2783436Y461647D01*
X2785496Y463228D01*
X2787076Y465288D01*
X2788069Y467686D01*
X2788277Y469260D01*
D02*
G37*
G36*
X2777463D02*
X2768650D01*
X2768857Y467686D01*
X2769851Y465288D01*
X2771431Y463228D01*
X2773491Y461647D01*
X2775889Y460654D01*
X2777463Y460447D01*
Y469260D01*
D02*
G37*
G36*
X2751610D02*
X2742797D01*
Y460447D01*
X2744371Y460654D01*
X2746769Y461647D01*
X2748829Y463228D01*
X2750410Y465288D01*
X2751403Y467686D01*
X2751610Y469260D01*
D02*
G37*
G36*
X2740797D02*
X2731983D01*
X2732191Y467686D01*
X2733184Y465288D01*
X2734764Y463228D01*
X2736824Y461647D01*
X2739223Y460654D01*
X2740797Y460447D01*
Y469260D01*
D02*
G37*
G36*
X2714944D02*
X2706130D01*
Y460447D01*
X2707704Y460654D01*
X2710103Y461647D01*
X2712162Y463228D01*
X2713743Y465288D01*
X2714736Y467686D01*
X2714944Y469260D01*
D02*
G37*
G36*
X2704130D02*
X2695317D01*
X2695524Y467686D01*
X2696517Y465288D01*
X2698098Y463228D01*
X2700157Y461647D01*
X2702556Y460654D01*
X2704130Y460447D01*
Y469260D01*
D02*
G37*
G36*
X2678277D02*
X2669464D01*
Y460447D01*
X2671037Y460654D01*
X2673436Y461647D01*
X2675496Y463228D01*
X2677076Y465288D01*
X2678070Y467686D01*
X2678277Y469260D01*
D02*
G37*
G36*
X2667463D02*
X2658650D01*
X2658857Y467686D01*
X2659851Y465288D01*
X2661431Y463228D01*
X2663491Y461647D01*
X2665890Y460654D01*
X2667463Y460447D01*
Y469260D01*
D02*
G37*
G36*
X2815973Y430153D02*
Y421340D01*
X2824787D01*
X2824579Y422914D01*
X2823586Y425312D01*
X2822006Y427372D01*
X2819946Y428953D01*
X2817547Y429946D01*
X2815973Y430153D01*
D02*
G37*
G36*
X2813973D02*
X2812399Y429946D01*
X2810001Y428953D01*
X2807941Y427372D01*
X2806360Y425312D01*
X2805367Y422914D01*
X2805160Y421340D01*
X2813973D01*
Y430153D01*
D02*
G37*
G36*
X2962307Y430153D02*
Y421340D01*
X2971120D01*
X2970912Y422914D01*
X2969919Y425312D01*
X2968339Y427372D01*
X2966279Y428953D01*
X2963880Y429946D01*
X2962307Y430153D01*
D02*
G37*
G36*
X2960306D02*
X2958732Y429946D01*
X2956334Y428953D01*
X2954274Y427372D01*
X2952694Y425312D01*
X2951700Y422914D01*
X2951493Y421340D01*
X2960306D01*
Y430153D01*
D02*
G37*
G36*
X2925640D02*
Y421340D01*
X2934453D01*
X2934246Y422914D01*
X2933252Y425312D01*
X2931672Y427372D01*
X2929612Y428953D01*
X2927214Y429946D01*
X2925640Y430153D01*
D02*
G37*
G36*
X2923640D02*
X2922066Y429946D01*
X2919667Y428953D01*
X2917607Y427372D01*
X2916027Y425312D01*
X2915034Y422914D01*
X2914826Y421340D01*
X2923640D01*
Y430153D01*
D02*
G37*
G36*
X2778973D02*
Y421340D01*
X2787787D01*
X2787579Y422914D01*
X2786586Y425312D01*
X2785005Y427372D01*
X2782946Y428953D01*
X2780547Y429946D01*
X2778973Y430153D01*
D02*
G37*
G36*
X2776973D02*
X2775399Y429946D01*
X2773001Y428953D01*
X2770941Y427372D01*
X2769361Y425312D01*
X2768367Y422914D01*
X2768160Y421340D01*
X2776973D01*
Y430153D01*
D02*
G37*
G36*
X2742307D02*
Y421340D01*
X2751120D01*
X2750913Y422914D01*
X2749919Y425312D01*
X2748339Y427372D01*
X2746279Y428953D01*
X2743881Y429946D01*
X2742307Y430153D01*
D02*
G37*
G36*
X2740307D02*
X2738733Y429946D01*
X2736334Y428953D01*
X2734274Y427372D01*
X2732694Y425312D01*
X2731700Y422914D01*
X2731493Y421340D01*
X2740307D01*
Y430153D01*
D02*
G37*
G36*
X2705640D02*
Y421340D01*
X2714453D01*
X2714246Y422914D01*
X2713253Y425312D01*
X2711672Y427372D01*
X2709612Y428953D01*
X2707214Y429946D01*
X2705640Y430153D01*
D02*
G37*
G36*
X2703640D02*
X2702066Y429946D01*
X2699667Y428953D01*
X2697608Y427372D01*
X2696027Y425312D01*
X2695034Y422914D01*
X2694827Y421340D01*
X2703640D01*
Y430153D01*
D02*
G37*
G36*
X2668973D02*
Y421340D01*
X2677787D01*
X2677580Y422914D01*
X2676586Y425312D01*
X2675005Y427372D01*
X2672946Y428953D01*
X2670547Y429946D01*
X2668973Y430153D01*
D02*
G37*
G36*
X2666973D02*
X2665399Y429946D01*
X2663001Y428953D01*
X2660941Y427372D01*
X2659361Y425312D01*
X2658367Y422914D01*
X2658160Y421340D01*
X2666973D01*
Y430153D01*
D02*
G37*
G36*
X2824787Y419340D02*
X2815973D01*
Y410527D01*
X2817547Y410734D01*
X2819946Y411727D01*
X2822006Y413308D01*
X2823586Y415367D01*
X2824579Y417766D01*
X2824787Y419340D01*
D02*
G37*
G36*
X2813973D02*
X2805160D01*
X2805367Y417766D01*
X2806360Y415367D01*
X2807941Y413308D01*
X2810001Y411727D01*
X2812399Y410734D01*
X2813973Y410527D01*
Y419340D01*
D02*
G37*
G36*
X2971120Y419340D02*
X2962307D01*
Y410527D01*
X2963880Y410734D01*
X2966279Y411727D01*
X2968339Y413308D01*
X2969919Y415367D01*
X2970912Y417766D01*
X2971120Y419340D01*
D02*
G37*
G36*
X2960306D02*
X2951493D01*
X2951700Y417766D01*
X2952694Y415367D01*
X2954274Y413308D01*
X2956334Y411727D01*
X2958732Y410734D01*
X2960306Y410527D01*
Y419340D01*
D02*
G37*
G36*
X2934453D02*
X2925640D01*
Y410527D01*
X2927214Y410734D01*
X2929612Y411727D01*
X2931672Y413308D01*
X2933252Y415367D01*
X2934246Y417766D01*
X2934453Y419340D01*
D02*
G37*
G36*
X2923640D02*
X2914826D01*
X2915034Y417766D01*
X2916027Y415367D01*
X2917607Y413308D01*
X2919667Y411727D01*
X2922066Y410734D01*
X2923640Y410527D01*
Y419340D01*
D02*
G37*
G36*
X2787787D02*
X2778973D01*
Y410527D01*
X2780547Y410734D01*
X2782946Y411727D01*
X2785005Y413308D01*
X2786586Y415367D01*
X2787579Y417766D01*
X2787787Y419340D01*
D02*
G37*
G36*
X2776973D02*
X2768160D01*
X2768367Y417766D01*
X2769361Y415367D01*
X2770941Y413308D01*
X2773001Y411727D01*
X2775399Y410734D01*
X2776973Y410527D01*
Y419340D01*
D02*
G37*
G36*
X2751120D02*
X2742307D01*
Y410527D01*
X2743881Y410734D01*
X2746279Y411727D01*
X2748339Y413308D01*
X2749919Y415367D01*
X2750913Y417766D01*
X2751120Y419340D01*
D02*
G37*
G36*
X2740307D02*
X2731493D01*
X2731700Y417766D01*
X2732694Y415367D01*
X2734274Y413308D01*
X2736334Y411727D01*
X2738733Y410734D01*
X2740307Y410527D01*
Y419340D01*
D02*
G37*
G36*
X2714453D02*
X2705640D01*
Y410527D01*
X2707214Y410734D01*
X2709612Y411727D01*
X2711672Y413308D01*
X2713253Y415367D01*
X2714246Y417766D01*
X2714453Y419340D01*
D02*
G37*
G36*
X2703640D02*
X2694827D01*
X2695034Y417766D01*
X2696027Y415367D01*
X2697608Y413308D01*
X2699667Y411727D01*
X2702066Y410734D01*
X2703640Y410527D01*
Y419340D01*
D02*
G37*
G36*
X2677787D02*
X2668973D01*
Y410527D01*
X2670547Y410734D01*
X2672946Y411727D01*
X2675005Y413308D01*
X2676586Y415367D01*
X2677580Y417766D01*
X2677787Y419340D01*
D02*
G37*
G36*
X2666973D02*
X2658160D01*
X2658367Y417766D01*
X2659361Y415367D01*
X2660941Y413308D01*
X2663001Y411727D01*
X2665399Y410734D01*
X2666973Y410527D01*
Y419340D01*
D02*
G37*
G36*
X2996307Y432444D02*
X2993174Y432031D01*
X2990255Y430822D01*
X2987748Y428899D01*
X2985825Y426392D01*
X2984615Y423473D01*
X2984203Y420340D01*
X2984615Y417207D01*
X2985825Y414288D01*
X2987748Y411782D01*
X2990255Y409858D01*
X2993174Y408649D01*
X2996307Y408237D01*
X2999439Y408649D01*
X3002358Y409858D01*
X3004865Y411782D01*
X3006789Y414288D01*
X3007998Y417207D01*
X3008410Y420340D01*
X3007998Y423473D01*
X3006789Y426392D01*
X3004865Y428899D01*
X3002358Y430822D01*
X2999439Y432031D01*
X2996307Y432444D01*
D02*
G37*
G36*
X2871306Y410043D02*
X2868795Y409712D01*
X2866455Y408743D01*
X2864445Y407201D01*
X2862903Y405191D01*
X2861934Y402851D01*
X2860679D01*
X2859709Y405191D01*
X2858167Y407201D01*
X2856158Y408743D01*
X2853818Y409712D01*
X2851306Y410043D01*
X2848795Y409712D01*
X2846455Y408743D01*
X2844445Y407201D01*
X2842903Y405191D01*
X2841934Y402851D01*
X2841603Y400340D01*
X2841934Y397829D01*
X2842903Y395489D01*
X2844445Y393479D01*
X2846455Y391937D01*
X2848795Y390968D01*
X2851306Y390637D01*
X2853818Y390968D01*
X2856158Y391937D01*
X2858167Y393479D01*
X2859709Y395489D01*
X2860679Y397829D01*
X2861934D01*
X2862903Y395489D01*
X2864445Y393479D01*
X2866455Y391937D01*
X2868795Y390968D01*
X2871306Y390637D01*
X2873818Y390968D01*
X2876158Y391937D01*
X2878167Y393479D01*
X2879709Y395489D01*
X2880679Y397829D01*
X2881010Y400340D01*
X2880679Y402851D01*
X2879709Y405191D01*
X2878167Y407201D01*
X2876158Y408743D01*
X2873818Y409712D01*
X2871306Y410043D01*
D02*
G37*
G36*
X2962307Y394153D02*
Y385340D01*
X2971120D01*
X2970912Y386914D01*
X2969919Y389313D01*
X2968339Y391372D01*
X2966279Y392953D01*
X2963880Y393946D01*
X2962307Y394153D01*
D02*
G37*
G36*
X2960306D02*
X2958732Y393946D01*
X2956334Y392953D01*
X2954274Y391372D01*
X2952694Y389313D01*
X2951700Y386914D01*
X2951493Y385340D01*
X2960306D01*
Y394153D01*
D02*
G37*
G36*
X2925640D02*
Y385340D01*
X2934453D01*
X2934246Y386914D01*
X2933252Y389313D01*
X2931672Y391372D01*
X2929612Y392953D01*
X2927214Y393946D01*
X2925640Y394153D01*
D02*
G37*
G36*
X2923640D02*
X2922066Y393946D01*
X2919667Y392953D01*
X2917607Y391372D01*
X2916027Y389313D01*
X2915034Y386914D01*
X2914826Y385340D01*
X2923640D01*
Y394153D01*
D02*
G37*
G36*
X2778973D02*
Y385340D01*
X2787787D01*
X2787579Y386914D01*
X2786586Y389313D01*
X2785005Y391372D01*
X2782946Y392953D01*
X2780547Y393946D01*
X2778973Y394153D01*
D02*
G37*
G36*
X2776973D02*
X2775399Y393946D01*
X2773001Y392953D01*
X2770941Y391372D01*
X2769361Y389313D01*
X2768367Y386914D01*
X2768160Y385340D01*
X2776973D01*
Y394153D01*
D02*
G37*
G36*
X2742307D02*
Y385340D01*
X2751120D01*
X2750913Y386914D01*
X2749919Y389313D01*
X2748339Y391372D01*
X2746279Y392953D01*
X2743881Y393946D01*
X2742307Y394153D01*
D02*
G37*
G36*
X2740307D02*
X2738733Y393946D01*
X2736334Y392953D01*
X2734274Y391372D01*
X2732694Y389313D01*
X2731700Y386914D01*
X2731493Y385340D01*
X2740307D01*
Y394153D01*
D02*
G37*
G36*
X2705640D02*
Y385340D01*
X2714453D01*
X2714246Y386914D01*
X2713253Y389313D01*
X2711672Y391372D01*
X2709612Y392953D01*
X2707214Y393946D01*
X2705640Y394153D01*
D02*
G37*
G36*
X2703640D02*
X2702066Y393946D01*
X2699667Y392953D01*
X2697608Y391372D01*
X2696027Y389313D01*
X2695034Y386914D01*
X2694827Y385340D01*
X2703640D01*
Y394153D01*
D02*
G37*
G36*
X2668973D02*
Y385340D01*
X2677787D01*
X2677580Y386914D01*
X2676586Y389313D01*
X2675005Y391372D01*
X2672946Y392953D01*
X2670547Y393946D01*
X2668973Y394153D01*
D02*
G37*
G36*
X2666973D02*
X2665399Y393946D01*
X2663001Y392953D01*
X2660941Y391372D01*
X2659361Y389313D01*
X2658367Y386914D01*
X2658160Y385340D01*
X2666973D01*
Y394153D01*
D02*
G37*
G36*
X2815973Y393153D02*
Y384340D01*
X2824787D01*
X2824579Y385914D01*
X2823586Y388312D01*
X2822006Y390372D01*
X2819946Y391953D01*
X2817547Y392946D01*
X2815973Y393153D01*
D02*
G37*
G36*
X2813973D02*
X2812399Y392946D01*
X2810001Y391953D01*
X2807941Y390372D01*
X2806360Y388312D01*
X2805367Y385914D01*
X2805160Y384340D01*
X2813973D01*
Y393153D01*
D02*
G37*
G36*
X3130520Y385757D02*
X3128179Y385292D01*
X3127042Y384532D01*
X3130520Y381054D01*
X3133998Y384532D01*
X3132861Y385292D01*
X3130520Y385757D01*
D02*
G37*
G36*
X3135412Y383118D02*
X3131934Y379640D01*
X3135412Y376162D01*
X3136172Y377299D01*
X3136638Y379640D01*
X3136172Y381981D01*
X3135412Y383118D01*
D02*
G37*
G36*
X3125628D02*
X3124868Y381981D01*
X3124402Y379640D01*
X3124868Y377299D01*
X3125628Y376162D01*
X3129106Y379640D01*
X3125628Y383118D01*
D02*
G37*
G36*
X2971120Y383340D02*
X2962307D01*
Y374527D01*
X2963880Y374734D01*
X2966279Y375727D01*
X2968339Y377308D01*
X2969919Y379367D01*
X2970912Y381766D01*
X2971120Y383340D01*
D02*
G37*
G36*
X2960306D02*
X2951493D01*
X2951700Y381766D01*
X2952694Y379367D01*
X2954274Y377308D01*
X2956334Y375727D01*
X2958732Y374734D01*
X2960306Y374527D01*
Y383340D01*
D02*
G37*
G36*
X2934453D02*
X2925640D01*
Y374527D01*
X2927214Y374734D01*
X2929612Y375727D01*
X2931672Y377308D01*
X2933252Y379367D01*
X2934246Y381766D01*
X2934453Y383340D01*
D02*
G37*
G36*
X2923640D02*
X2914826D01*
X2915034Y381766D01*
X2916027Y379367D01*
X2917607Y377308D01*
X2919667Y375727D01*
X2922066Y374734D01*
X2923640Y374527D01*
Y383340D01*
D02*
G37*
G36*
X2787787D02*
X2778973D01*
Y374527D01*
X2780547Y374734D01*
X2782946Y375727D01*
X2785005Y377308D01*
X2786586Y379367D01*
X2787579Y381766D01*
X2787787Y383340D01*
D02*
G37*
G36*
X2776973D02*
X2768160D01*
X2768367Y381766D01*
X2769361Y379367D01*
X2770941Y377308D01*
X2773001Y375727D01*
X2775399Y374734D01*
X2776973Y374527D01*
Y383340D01*
D02*
G37*
G36*
X2751120D02*
X2742307D01*
Y374527D01*
X2743881Y374734D01*
X2746279Y375727D01*
X2748339Y377308D01*
X2749919Y379367D01*
X2750913Y381766D01*
X2751120Y383340D01*
D02*
G37*
G36*
X2740307D02*
X2731493D01*
X2731700Y381766D01*
X2732694Y379367D01*
X2734274Y377308D01*
X2736334Y375727D01*
X2738733Y374734D01*
X2740307Y374527D01*
Y383340D01*
D02*
G37*
G36*
X2714453D02*
X2705640D01*
Y374527D01*
X2707214Y374734D01*
X2709612Y375727D01*
X2711672Y377308D01*
X2713253Y379367D01*
X2714246Y381766D01*
X2714453Y383340D01*
D02*
G37*
G36*
X2703640D02*
X2694827D01*
X2695034Y381766D01*
X2696027Y379367D01*
X2697608Y377308D01*
X2699667Y375727D01*
X2702066Y374734D01*
X2703640Y374527D01*
Y383340D01*
D02*
G37*
G36*
X2677787D02*
X2668973D01*
Y374527D01*
X2670547Y374734D01*
X2672946Y375727D01*
X2675005Y377308D01*
X2676586Y379367D01*
X2677580Y381766D01*
X2677787Y383340D01*
D02*
G37*
G36*
X2666973D02*
X2658160D01*
X2658367Y381766D01*
X2659361Y379367D01*
X2660941Y377308D01*
X2663001Y375727D01*
X2665399Y374734D01*
X2666973Y374527D01*
Y383340D01*
D02*
G37*
G36*
X2824787Y382340D02*
X2815973D01*
Y373527D01*
X2817547Y373734D01*
X2819946Y374727D01*
X2822006Y376308D01*
X2823586Y378367D01*
X2824579Y380766D01*
X2824787Y382340D01*
D02*
G37*
G36*
X2813973D02*
X2805160D01*
X2805367Y380766D01*
X2806360Y378367D01*
X2807941Y376308D01*
X2810001Y374727D01*
X2812399Y373734D01*
X2813973Y373527D01*
Y382340D01*
D02*
G37*
G36*
X3130520Y378226D02*
X3127042Y374748D01*
X3128179Y373988D01*
X3130520Y373522D01*
X3132861Y373988D01*
X3133998Y374748D01*
X3130520Y378226D01*
D02*
G37*
G36*
X3059520Y360738D02*
X3057569Y360350D01*
X3055915Y359245D01*
X3054810Y357591D01*
X3054422Y355640D01*
X3054810Y353689D01*
X3055915Y352035D01*
X3057569Y350930D01*
X3059520Y350542D01*
X3061471Y350930D01*
X3063125Y352035D01*
X3064230Y353689D01*
X3064618Y355640D01*
X3064230Y357591D01*
X3063125Y359245D01*
X3061471Y360350D01*
X3059520Y360738D01*
D02*
G37*
G36*
X2962307Y358153D02*
Y349340D01*
X2971120D01*
X2970912Y350914D01*
X2969919Y353312D01*
X2968339Y355372D01*
X2966279Y356953D01*
X2963880Y357946D01*
X2962307Y358153D01*
D02*
G37*
G36*
X2960306D02*
X2958732Y357946D01*
X2956334Y356953D01*
X2954274Y355372D01*
X2952694Y353312D01*
X2951700Y350914D01*
X2951493Y349340D01*
X2960306D01*
Y358153D01*
D02*
G37*
G36*
X2925640D02*
Y349340D01*
X2934453D01*
X2934246Y350914D01*
X2933252Y353312D01*
X2931672Y355372D01*
X2929612Y356953D01*
X2927214Y357946D01*
X2925640Y358153D01*
D02*
G37*
G36*
X2923640D02*
X2922066Y357946D01*
X2919667Y356953D01*
X2917607Y355372D01*
X2916027Y353312D01*
X2915034Y350914D01*
X2914826Y349340D01*
X2923640D01*
Y358153D01*
D02*
G37*
G36*
X2888973D02*
Y349340D01*
X2897787D01*
X2897579Y350914D01*
X2896586Y353312D01*
X2895005Y355372D01*
X2892946Y356953D01*
X2890547Y357946D01*
X2888973Y358153D01*
D02*
G37*
G36*
X2886973D02*
X2885399Y357946D01*
X2883000Y356953D01*
X2880941Y355372D01*
X2879360Y353312D01*
X2878367Y350914D01*
X2878160Y349340D01*
X2886973D01*
Y358153D01*
D02*
G37*
G36*
X2852307D02*
Y349340D01*
X2861120D01*
X2860913Y350914D01*
X2859919Y353312D01*
X2858339Y355372D01*
X2856279Y356953D01*
X2853880Y357946D01*
X2852307Y358153D01*
D02*
G37*
G36*
X2850306D02*
X2848733Y357946D01*
X2846334Y356953D01*
X2844274Y355372D01*
X2842694Y353312D01*
X2841700Y350914D01*
X2841493Y349340D01*
X2850306D01*
Y358153D01*
D02*
G37*
G36*
X2815640D02*
Y349340D01*
X2824453D01*
X2824246Y350914D01*
X2823253Y353312D01*
X2821672Y355372D01*
X2819612Y356953D01*
X2817214Y357946D01*
X2815640Y358153D01*
D02*
G37*
G36*
X2813640D02*
X2812066Y357946D01*
X2809667Y356953D01*
X2807608Y355372D01*
X2806027Y353312D01*
X2805034Y350914D01*
X2804826Y349340D01*
X2813640D01*
Y358153D01*
D02*
G37*
G36*
X2778973D02*
Y349340D01*
X2787787D01*
X2787579Y350914D01*
X2786586Y353312D01*
X2785005Y355372D01*
X2782946Y356953D01*
X2780547Y357946D01*
X2778973Y358153D01*
D02*
G37*
G36*
X2776973D02*
X2775399Y357946D01*
X2773001Y356953D01*
X2770941Y355372D01*
X2769361Y353312D01*
X2768367Y350914D01*
X2768160Y349340D01*
X2776973D01*
Y358153D01*
D02*
G37*
G36*
X2742307D02*
Y349340D01*
X2751120D01*
X2750913Y350914D01*
X2749919Y353312D01*
X2748339Y355372D01*
X2746279Y356953D01*
X2743881Y357946D01*
X2742307Y358153D01*
D02*
G37*
G36*
X2740307D02*
X2738733Y357946D01*
X2736334Y356953D01*
X2734274Y355372D01*
X2732694Y353312D01*
X2731700Y350914D01*
X2731493Y349340D01*
X2740307D01*
Y358153D01*
D02*
G37*
G36*
X2705640D02*
Y349340D01*
X2714453D01*
X2714246Y350914D01*
X2713253Y353312D01*
X2711672Y355372D01*
X2709612Y356953D01*
X2707214Y357946D01*
X2705640Y358153D01*
D02*
G37*
G36*
X2703640D02*
X2702066Y357946D01*
X2699667Y356953D01*
X2697608Y355372D01*
X2696027Y353312D01*
X2695034Y350914D01*
X2694827Y349340D01*
X2703640D01*
Y358153D01*
D02*
G37*
G36*
X2668973D02*
Y349340D01*
X2677787D01*
X2677580Y350914D01*
X2676586Y353312D01*
X2675005Y355372D01*
X2672946Y356953D01*
X2670547Y357946D01*
X2668973Y358153D01*
D02*
G37*
G36*
X2666973D02*
X2665399Y357946D01*
X2663001Y356953D01*
X2660941Y355372D01*
X2659361Y353312D01*
X2658367Y350914D01*
X2658160Y349340D01*
X2666973D01*
Y358153D01*
D02*
G37*
G36*
X2971120Y347340D02*
X2962307D01*
Y338527D01*
X2963880Y338734D01*
X2966279Y339727D01*
X2968339Y341308D01*
X2969919Y343368D01*
X2970912Y345766D01*
X2971120Y347340D01*
D02*
G37*
G36*
X2960306D02*
X2951493D01*
X2951700Y345766D01*
X2952694Y343368D01*
X2954274Y341308D01*
X2956334Y339727D01*
X2958732Y338734D01*
X2960306Y338527D01*
Y347340D01*
D02*
G37*
G36*
X2934453D02*
X2925640D01*
Y338527D01*
X2927214Y338734D01*
X2929612Y339727D01*
X2931672Y341308D01*
X2933252Y343368D01*
X2934246Y345766D01*
X2934453Y347340D01*
D02*
G37*
G36*
X2923640D02*
X2914826D01*
X2915034Y345766D01*
X2916027Y343368D01*
X2917607Y341308D01*
X2919667Y339727D01*
X2922066Y338734D01*
X2923640Y338527D01*
Y347340D01*
D02*
G37*
G36*
X2897787D02*
X2888973D01*
Y338527D01*
X2890547Y338734D01*
X2892946Y339727D01*
X2895005Y341308D01*
X2896586Y343368D01*
X2897579Y345766D01*
X2897787Y347340D01*
D02*
G37*
G36*
X2886973D02*
X2878160D01*
X2878367Y345766D01*
X2879360Y343368D01*
X2880941Y341308D01*
X2883000Y339727D01*
X2885399Y338734D01*
X2886973Y338527D01*
Y347340D01*
D02*
G37*
G36*
X2861120D02*
X2852307D01*
Y338527D01*
X2853880Y338734D01*
X2856279Y339727D01*
X2858339Y341308D01*
X2859919Y343368D01*
X2860913Y345766D01*
X2861120Y347340D01*
D02*
G37*
G36*
X2850306D02*
X2841493D01*
X2841700Y345766D01*
X2842694Y343368D01*
X2844274Y341308D01*
X2846334Y339727D01*
X2848733Y338734D01*
X2850306Y338527D01*
Y347340D01*
D02*
G37*
G36*
X2824453D02*
X2815640D01*
Y338527D01*
X2817214Y338734D01*
X2819612Y339727D01*
X2821672Y341308D01*
X2823253Y343368D01*
X2824246Y345766D01*
X2824453Y347340D01*
D02*
G37*
G36*
X2813640D02*
X2804826D01*
X2805034Y345766D01*
X2806027Y343368D01*
X2807608Y341308D01*
X2809667Y339727D01*
X2812066Y338734D01*
X2813640Y338527D01*
Y347340D01*
D02*
G37*
G36*
X2787787D02*
X2778973D01*
Y338527D01*
X2780547Y338734D01*
X2782946Y339727D01*
X2785005Y341308D01*
X2786586Y343368D01*
X2787579Y345766D01*
X2787787Y347340D01*
D02*
G37*
G36*
X2776973D02*
X2768160D01*
X2768367Y345766D01*
X2769361Y343368D01*
X2770941Y341308D01*
X2773001Y339727D01*
X2775399Y338734D01*
X2776973Y338527D01*
Y347340D01*
D02*
G37*
G36*
X2751120D02*
X2742307D01*
Y338527D01*
X2743881Y338734D01*
X2746279Y339727D01*
X2748339Y341308D01*
X2749919Y343368D01*
X2750913Y345766D01*
X2751120Y347340D01*
D02*
G37*
G36*
X2740307D02*
X2731493D01*
X2731700Y345766D01*
X2732694Y343368D01*
X2734274Y341308D01*
X2736334Y339727D01*
X2738733Y338734D01*
X2740307Y338527D01*
Y347340D01*
D02*
G37*
G36*
X2714453D02*
X2705640D01*
Y338527D01*
X2707214Y338734D01*
X2709612Y339727D01*
X2711672Y341308D01*
X2713253Y343368D01*
X2714246Y345766D01*
X2714453Y347340D01*
D02*
G37*
G36*
X2703640D02*
X2694827D01*
X2695034Y345766D01*
X2696027Y343368D01*
X2697608Y341308D01*
X2699667Y339727D01*
X2702066Y338734D01*
X2703640Y338527D01*
Y347340D01*
D02*
G37*
G36*
X2677787D02*
X2668973D01*
Y338527D01*
X2670547Y338734D01*
X2672946Y339727D01*
X2675005Y341308D01*
X2676586Y343368D01*
X2677580Y345766D01*
X2677787Y347340D01*
D02*
G37*
G36*
X2666973D02*
X2658160D01*
X2658367Y345766D01*
X2659361Y343368D01*
X2660941Y341308D01*
X2663001Y339727D01*
X2665399Y338734D01*
X2666973Y338527D01*
Y347340D01*
D02*
G37*
G36*
X2962307Y322153D02*
Y313340D01*
X2971120D01*
X2970912Y314914D01*
X2969919Y317313D01*
X2968339Y319372D01*
X2966279Y320953D01*
X2963880Y321946D01*
X2962307Y322153D01*
D02*
G37*
G36*
X2960306D02*
X2958732Y321946D01*
X2956334Y320953D01*
X2954274Y319372D01*
X2952694Y317313D01*
X2951700Y314914D01*
X2951493Y313340D01*
X2960306D01*
Y322153D01*
D02*
G37*
G36*
X2925640D02*
Y313340D01*
X2934453D01*
X2934246Y314914D01*
X2933252Y317313D01*
X2931672Y319372D01*
X2929612Y320953D01*
X2927214Y321946D01*
X2925640Y322153D01*
D02*
G37*
G36*
X2923640D02*
X2922066Y321946D01*
X2919667Y320953D01*
X2917607Y319372D01*
X2916027Y317313D01*
X2915034Y314914D01*
X2914826Y313340D01*
X2923640D01*
Y322153D01*
D02*
G37*
G36*
X2888973D02*
Y313340D01*
X2897787D01*
X2897579Y314914D01*
X2896586Y317313D01*
X2895005Y319372D01*
X2892946Y320953D01*
X2890547Y321946D01*
X2888973Y322153D01*
D02*
G37*
G36*
X2886973D02*
X2885399Y321946D01*
X2883000Y320953D01*
X2880941Y319372D01*
X2879360Y317313D01*
X2878367Y314914D01*
X2878160Y313340D01*
X2886973D01*
Y322153D01*
D02*
G37*
G36*
X2852307D02*
Y313340D01*
X2861120D01*
X2860913Y314914D01*
X2859919Y317313D01*
X2858339Y319372D01*
X2856279Y320953D01*
X2853880Y321946D01*
X2852307Y322153D01*
D02*
G37*
G36*
X2850306D02*
X2848733Y321946D01*
X2846334Y320953D01*
X2844274Y319372D01*
X2842694Y317313D01*
X2841700Y314914D01*
X2841493Y313340D01*
X2850306D01*
Y322153D01*
D02*
G37*
G36*
X2815640D02*
Y313340D01*
X2824453D01*
X2824246Y314914D01*
X2823253Y317313D01*
X2821672Y319372D01*
X2819612Y320953D01*
X2817214Y321946D01*
X2815640Y322153D01*
D02*
G37*
G36*
X2813640D02*
X2812066Y321946D01*
X2809667Y320953D01*
X2807608Y319372D01*
X2806027Y317313D01*
X2805034Y314914D01*
X2804826Y313340D01*
X2813640D01*
Y322153D01*
D02*
G37*
G36*
X2778973D02*
Y313340D01*
X2787787D01*
X2787579Y314914D01*
X2786586Y317313D01*
X2785005Y319372D01*
X2782946Y320953D01*
X2780547Y321946D01*
X2778973Y322153D01*
D02*
G37*
G36*
X2776973D02*
X2775399Y321946D01*
X2773001Y320953D01*
X2770941Y319372D01*
X2769361Y317313D01*
X2768367Y314914D01*
X2768160Y313340D01*
X2776973D01*
Y322153D01*
D02*
G37*
G36*
X2742307D02*
Y313340D01*
X2751120D01*
X2750913Y314914D01*
X2749919Y317313D01*
X2748339Y319372D01*
X2746279Y320953D01*
X2743881Y321946D01*
X2742307Y322153D01*
D02*
G37*
G36*
X2740307D02*
X2738733Y321946D01*
X2736334Y320953D01*
X2734274Y319372D01*
X2732694Y317313D01*
X2731700Y314914D01*
X2731493Y313340D01*
X2740307D01*
Y322153D01*
D02*
G37*
G36*
X2705640D02*
Y313340D01*
X2714453D01*
X2714246Y314914D01*
X2713253Y317313D01*
X2711672Y319372D01*
X2709612Y320953D01*
X2707214Y321946D01*
X2705640Y322153D01*
D02*
G37*
G36*
X2703640D02*
X2702066Y321946D01*
X2699667Y320953D01*
X2697608Y319372D01*
X2696027Y317313D01*
X2695034Y314914D01*
X2694827Y313340D01*
X2703640D01*
Y322153D01*
D02*
G37*
G36*
X2668973D02*
Y313340D01*
X2677787D01*
X2677580Y314914D01*
X2676586Y317313D01*
X2675005Y319372D01*
X2672946Y320953D01*
X2670547Y321946D01*
X2668973Y322153D01*
D02*
G37*
G36*
X2666973D02*
X2665399Y321946D01*
X2663001Y320953D01*
X2660941Y319372D01*
X2659361Y317313D01*
X2658367Y314914D01*
X2658160Y313340D01*
X2666973D01*
Y322153D01*
D02*
G37*
G36*
X2971120Y311340D02*
X2962307D01*
Y302527D01*
X2963880Y302734D01*
X2966279Y303727D01*
X2968339Y305308D01*
X2969919Y307367D01*
X2970912Y309766D01*
X2971120Y311340D01*
D02*
G37*
G36*
X2960306D02*
X2951493D01*
X2951700Y309766D01*
X2952694Y307367D01*
X2954274Y305308D01*
X2956334Y303727D01*
X2958732Y302734D01*
X2960306Y302527D01*
Y311340D01*
D02*
G37*
G36*
X2934453D02*
X2925640D01*
Y302527D01*
X2927214Y302734D01*
X2929612Y303727D01*
X2931672Y305308D01*
X2933252Y307367D01*
X2934246Y309766D01*
X2934453Y311340D01*
D02*
G37*
G36*
X2923640D02*
X2914826D01*
X2915034Y309766D01*
X2916027Y307367D01*
X2917607Y305308D01*
X2919667Y303727D01*
X2922066Y302734D01*
X2923640Y302527D01*
Y311340D01*
D02*
G37*
G36*
X2897787D02*
X2888973D01*
Y302527D01*
X2890547Y302734D01*
X2892946Y303727D01*
X2895005Y305308D01*
X2896586Y307367D01*
X2897579Y309766D01*
X2897787Y311340D01*
D02*
G37*
G36*
X2886973D02*
X2878160D01*
X2878367Y309766D01*
X2879360Y307367D01*
X2880941Y305308D01*
X2883000Y303727D01*
X2885399Y302734D01*
X2886973Y302527D01*
Y311340D01*
D02*
G37*
G36*
X2861120D02*
X2852307D01*
Y302527D01*
X2853880Y302734D01*
X2856279Y303727D01*
X2858339Y305308D01*
X2859919Y307367D01*
X2860913Y309766D01*
X2861120Y311340D01*
D02*
G37*
G36*
X2850306D02*
X2841493D01*
X2841700Y309766D01*
X2842694Y307367D01*
X2844274Y305308D01*
X2846334Y303727D01*
X2848733Y302734D01*
X2850306Y302527D01*
Y311340D01*
D02*
G37*
G36*
X2824453D02*
X2815640D01*
Y302527D01*
X2817214Y302734D01*
X2819612Y303727D01*
X2821672Y305308D01*
X2823253Y307367D01*
X2824246Y309766D01*
X2824453Y311340D01*
D02*
G37*
G36*
X2813640D02*
X2804826D01*
X2805034Y309766D01*
X2806027Y307367D01*
X2807608Y305308D01*
X2809667Y303727D01*
X2812066Y302734D01*
X2813640Y302527D01*
Y311340D01*
D02*
G37*
G36*
X2787787D02*
X2778973D01*
Y302527D01*
X2780547Y302734D01*
X2782946Y303727D01*
X2785005Y305308D01*
X2786586Y307367D01*
X2787579Y309766D01*
X2787787Y311340D01*
D02*
G37*
G36*
X2776973D02*
X2768160D01*
X2768367Y309766D01*
X2769361Y307367D01*
X2770941Y305308D01*
X2773001Y303727D01*
X2775399Y302734D01*
X2776973Y302527D01*
Y311340D01*
D02*
G37*
G36*
X2751120D02*
X2742307D01*
Y302527D01*
X2743881Y302734D01*
X2746279Y303727D01*
X2748339Y305308D01*
X2749919Y307367D01*
X2750913Y309766D01*
X2751120Y311340D01*
D02*
G37*
G36*
X2740307D02*
X2731493D01*
X2731700Y309766D01*
X2732694Y307367D01*
X2734274Y305308D01*
X2736334Y303727D01*
X2738733Y302734D01*
X2740307Y302527D01*
Y311340D01*
D02*
G37*
G36*
X2714453D02*
X2705640D01*
Y302527D01*
X2707214Y302734D01*
X2709612Y303727D01*
X2711672Y305308D01*
X2713253Y307367D01*
X2714246Y309766D01*
X2714453Y311340D01*
D02*
G37*
G36*
X2703640D02*
X2694827D01*
X2695034Y309766D01*
X2696027Y307367D01*
X2697608Y305308D01*
X2699667Y303727D01*
X2702066Y302734D01*
X2703640Y302527D01*
Y311340D01*
D02*
G37*
G36*
X2677787D02*
X2668973D01*
Y302527D01*
X2670547Y302734D01*
X2672946Y303727D01*
X2675005Y305308D01*
X2676586Y307367D01*
X2677580Y309766D01*
X2677787Y311340D01*
D02*
G37*
G36*
X2666973D02*
X2658160D01*
X2658367Y309766D01*
X2659361Y307367D01*
X2660941Y305308D01*
X2663001Y303727D01*
X2665399Y302734D01*
X2666973Y302527D01*
Y311340D01*
D02*
G37*
G36*
X3104520Y287757D02*
X3102179Y287292D01*
X3101042Y286532D01*
X3104520Y283054D01*
X3107998Y286532D01*
X3106861Y287292D01*
X3104520Y287757D01*
D02*
G37*
G36*
X3109412Y285118D02*
X3105934Y281640D01*
X3109412Y278162D01*
X3110172Y279299D01*
X3110638Y281640D01*
X3110172Y283981D01*
X3109412Y285118D01*
D02*
G37*
G36*
X3099628D02*
X3098868Y283981D01*
X3098402Y281640D01*
X3098868Y279299D01*
X3099628Y278162D01*
X3103106Y281640D01*
X3099628Y285118D01*
D02*
G37*
G36*
X2962307Y286154D02*
Y277340D01*
X2971120D01*
X2970912Y278914D01*
X2969919Y281313D01*
X2968339Y283372D01*
X2966279Y284953D01*
X2963880Y285946D01*
X2962307Y286154D01*
D02*
G37*
G36*
X2960306D02*
X2958732Y285946D01*
X2956334Y284953D01*
X2954274Y283372D01*
X2952694Y281313D01*
X2951700Y278914D01*
X2951493Y277340D01*
X2960306D01*
Y286154D01*
D02*
G37*
G36*
X2925640D02*
Y277340D01*
X2934453D01*
X2934246Y278914D01*
X2933252Y281313D01*
X2931672Y283372D01*
X2929612Y284953D01*
X2927214Y285946D01*
X2925640Y286154D01*
D02*
G37*
G36*
X2923640D02*
X2922066Y285946D01*
X2919667Y284953D01*
X2917607Y283372D01*
X2916027Y281313D01*
X2915034Y278914D01*
X2914826Y277340D01*
X2923640D01*
Y286154D01*
D02*
G37*
G36*
X2888973D02*
Y277340D01*
X2897787D01*
X2897579Y278914D01*
X2896586Y281313D01*
X2895005Y283372D01*
X2892946Y284953D01*
X2890547Y285946D01*
X2888973Y286154D01*
D02*
G37*
G36*
X2886973D02*
X2885399Y285946D01*
X2883000Y284953D01*
X2880941Y283372D01*
X2879360Y281313D01*
X2878367Y278914D01*
X2878160Y277340D01*
X2886973D01*
Y286154D01*
D02*
G37*
G36*
X2852307D02*
Y277340D01*
X2861120D01*
X2860913Y278914D01*
X2859919Y281313D01*
X2858339Y283372D01*
X2856279Y284953D01*
X2853880Y285946D01*
X2852307Y286154D01*
D02*
G37*
G36*
X2850306D02*
X2848733Y285946D01*
X2846334Y284953D01*
X2844274Y283372D01*
X2842694Y281313D01*
X2841700Y278914D01*
X2841493Y277340D01*
X2850306D01*
Y286154D01*
D02*
G37*
G36*
X2815640D02*
Y277340D01*
X2824453D01*
X2824246Y278914D01*
X2823253Y281313D01*
X2821672Y283372D01*
X2819612Y284953D01*
X2817214Y285946D01*
X2815640Y286154D01*
D02*
G37*
G36*
X2813640D02*
X2812066Y285946D01*
X2809667Y284953D01*
X2807608Y283372D01*
X2806027Y281313D01*
X2805034Y278914D01*
X2804826Y277340D01*
X2813640D01*
Y286154D01*
D02*
G37*
G36*
X2778973D02*
Y277340D01*
X2787787D01*
X2787579Y278914D01*
X2786586Y281313D01*
X2785005Y283372D01*
X2782946Y284953D01*
X2780547Y285946D01*
X2778973Y286154D01*
D02*
G37*
G36*
X2776973D02*
X2775399Y285946D01*
X2773001Y284953D01*
X2770941Y283372D01*
X2769361Y281313D01*
X2768367Y278914D01*
X2768160Y277340D01*
X2776973D01*
Y286154D01*
D02*
G37*
G36*
X2742307D02*
Y277340D01*
X2751120D01*
X2750913Y278914D01*
X2749919Y281313D01*
X2748339Y283372D01*
X2746279Y284953D01*
X2743881Y285946D01*
X2742307Y286154D01*
D02*
G37*
G36*
X2740307D02*
X2738733Y285946D01*
X2736334Y284953D01*
X2734274Y283372D01*
X2732694Y281313D01*
X2731700Y278914D01*
X2731493Y277340D01*
X2740307D01*
Y286154D01*
D02*
G37*
G36*
X2705640D02*
Y277340D01*
X2714453D01*
X2714246Y278914D01*
X2713253Y281313D01*
X2711672Y283372D01*
X2709612Y284953D01*
X2707214Y285946D01*
X2705640Y286154D01*
D02*
G37*
G36*
X2703640D02*
X2702066Y285946D01*
X2699667Y284953D01*
X2697608Y283372D01*
X2696027Y281313D01*
X2695034Y278914D01*
X2694827Y277340D01*
X2703640D01*
Y286154D01*
D02*
G37*
G36*
X2668973D02*
Y277340D01*
X2677787D01*
X2677580Y278914D01*
X2676586Y281313D01*
X2675005Y283372D01*
X2672946Y284953D01*
X2670547Y285946D01*
X2668973Y286154D01*
D02*
G37*
G36*
X2666973D02*
X2665399Y285946D01*
X2663001Y284953D01*
X2660941Y283372D01*
X2659361Y281313D01*
X2658367Y278914D01*
X2658160Y277340D01*
X2666973D01*
Y286154D01*
D02*
G37*
G36*
X3104520Y280226D02*
X3101042Y276748D01*
X3102179Y275988D01*
X3104520Y275522D01*
X3106861Y275988D01*
X3107998Y276748D01*
X3104520Y280226D01*
D02*
G37*
G36*
X2971120Y275340D02*
X2962307D01*
Y266527D01*
X2963880Y266734D01*
X2966279Y267727D01*
X2968339Y269308D01*
X2969919Y271367D01*
X2970912Y273766D01*
X2971120Y275340D01*
D02*
G37*
G36*
X2960306D02*
X2951493D01*
X2951700Y273766D01*
X2952694Y271367D01*
X2954274Y269308D01*
X2956334Y267727D01*
X2958732Y266734D01*
X2960306Y266527D01*
Y275340D01*
D02*
G37*
G36*
X2934453D02*
X2925640D01*
Y266527D01*
X2927214Y266734D01*
X2929612Y267727D01*
X2931672Y269308D01*
X2933252Y271367D01*
X2934246Y273766D01*
X2934453Y275340D01*
D02*
G37*
G36*
X2923640D02*
X2914826D01*
X2915034Y273766D01*
X2916027Y271367D01*
X2917607Y269308D01*
X2919667Y267727D01*
X2922066Y266734D01*
X2923640Y266527D01*
Y275340D01*
D02*
G37*
G36*
X2897787D02*
X2888973D01*
Y266527D01*
X2890547Y266734D01*
X2892946Y267727D01*
X2895005Y269308D01*
X2896586Y271367D01*
X2897579Y273766D01*
X2897787Y275340D01*
D02*
G37*
G36*
X2886973D02*
X2878160D01*
X2878367Y273766D01*
X2879360Y271367D01*
X2880941Y269308D01*
X2883000Y267727D01*
X2885399Y266734D01*
X2886973Y266527D01*
Y275340D01*
D02*
G37*
G36*
X2861120D02*
X2852307D01*
Y266527D01*
X2853880Y266734D01*
X2856279Y267727D01*
X2858339Y269308D01*
X2859919Y271367D01*
X2860913Y273766D01*
X2861120Y275340D01*
D02*
G37*
G36*
X2850306D02*
X2841493D01*
X2841700Y273766D01*
X2842694Y271367D01*
X2844274Y269308D01*
X2846334Y267727D01*
X2848733Y266734D01*
X2850306Y266527D01*
Y275340D01*
D02*
G37*
G36*
X2824453D02*
X2815640D01*
Y266527D01*
X2817214Y266734D01*
X2819612Y267727D01*
X2821672Y269308D01*
X2823253Y271367D01*
X2824246Y273766D01*
X2824453Y275340D01*
D02*
G37*
G36*
X2813640D02*
X2804826D01*
X2805034Y273766D01*
X2806027Y271367D01*
X2807608Y269308D01*
X2809667Y267727D01*
X2812066Y266734D01*
X2813640Y266527D01*
Y275340D01*
D02*
G37*
G36*
X2787787D02*
X2778973D01*
Y266527D01*
X2780547Y266734D01*
X2782946Y267727D01*
X2785005Y269308D01*
X2786586Y271367D01*
X2787579Y273766D01*
X2787787Y275340D01*
D02*
G37*
G36*
X2776973D02*
X2768160D01*
X2768367Y273766D01*
X2769361Y271367D01*
X2770941Y269308D01*
X2773001Y267727D01*
X2775399Y266734D01*
X2776973Y266527D01*
Y275340D01*
D02*
G37*
G36*
X2751120D02*
X2742307D01*
Y266527D01*
X2743881Y266734D01*
X2746279Y267727D01*
X2748339Y269308D01*
X2749919Y271367D01*
X2750913Y273766D01*
X2751120Y275340D01*
D02*
G37*
G36*
X2740307D02*
X2731493D01*
X2731700Y273766D01*
X2732694Y271367D01*
X2734274Y269308D01*
X2736334Y267727D01*
X2738733Y266734D01*
X2740307Y266527D01*
Y275340D01*
D02*
G37*
G36*
X2714453D02*
X2705640D01*
Y266527D01*
X2707214Y266734D01*
X2709612Y267727D01*
X2711672Y269308D01*
X2713253Y271367D01*
X2714246Y273766D01*
X2714453Y275340D01*
D02*
G37*
G36*
X2703640D02*
X2694827D01*
X2695034Y273766D01*
X2696027Y271367D01*
X2697608Y269308D01*
X2699667Y267727D01*
X2702066Y266734D01*
X2703640Y266527D01*
Y275340D01*
D02*
G37*
G36*
X2677787D02*
X2668973D01*
Y266527D01*
X2670547Y266734D01*
X2672946Y267727D01*
X2675005Y269308D01*
X2676586Y271367D01*
X2677580Y273766D01*
X2677787Y275340D01*
D02*
G37*
G36*
X2666973D02*
X2658160D01*
X2658367Y273766D01*
X2659361Y271367D01*
X2660941Y269308D01*
X2663001Y267727D01*
X2665399Y266734D01*
X2666973Y266527D01*
Y275340D01*
D02*
G37*
G36*
X2996797Y662364D02*
X2993664Y661951D01*
X2990745Y660742D01*
X2988238Y658819D01*
X2986315Y656312D01*
X2985106Y653393D01*
X2984693Y650260D01*
X2985106Y647127D01*
X2986315Y644208D01*
X2988238Y641702D01*
X2990745Y639778D01*
X2993664Y638569D01*
X2996797Y638156D01*
X2999930Y638569D01*
X3002849Y639778D01*
X3005355Y641702D01*
X3007279Y644208D01*
X3008488Y647127D01*
X3008900Y650260D01*
X3008488Y653393D01*
X3007279Y656312D01*
X3005355Y658819D01*
X3002849Y660742D01*
X2999930Y661951D01*
X2996797Y662364D01*
D02*
G37*
G36*
X2997797Y483241D02*
Y471260D01*
X3009777D01*
X3009462Y473654D01*
X3008152Y476816D01*
X3006068Y479532D01*
X3003353Y481615D01*
X3000190Y482925D01*
X2997797Y483241D01*
D02*
G37*
%LPD*%
D13*
X2407520Y261125D02*
X2458520Y312125D01*
X2407520Y239640D02*
Y261125D01*
X2458520Y312125D02*
Y637640D01*
X2415376Y579640D02*
X2416364Y580628D01*
X2355520Y579640D02*
X2403520D01*
X2346520Y588640D02*
X2355520Y579640D01*
X2259165Y553285D02*
X2394665D01*
X2256520Y550640D02*
X2259165Y553285D01*
X2292321Y573639D02*
X2303519D01*
X2345094Y690640D02*
X2376094Y659640D01*
X2162773Y690640D02*
X2345094D01*
X2376094Y659640D02*
X2402520D01*
X2449520Y646640D02*
X2458520Y637640D01*
X2342520Y452640D02*
X2349520Y459640D01*
X2220949Y448640D02*
X2352520D01*
X2342539Y481639D02*
X2361766D01*
X2361977Y607640D02*
X2369612Y600005D01*
X2107520Y580640D02*
X2109520Y582640D01*
X2266520Y288827D02*
X2275706Y279640D01*
X2266520Y288827D02*
Y314640D01*
X2275706Y279640D02*
X2281520D01*
X2169520Y476640D02*
X2169520Y476640D01*
Y461640D02*
Y476640D01*
X2210520Y499640D02*
X2210520Y499640D01*
X2167155Y411640D02*
X2192520D01*
X2152348Y435812D02*
X2152470Y435690D01*
X2192520Y411640D02*
X2196520Y407640D01*
X1979520Y521640D02*
X1980520Y520640D01*
X1998520Y521640D02*
X1999520Y520640D01*
X2072520Y509640D02*
X2072520Y509640D01*
X2092520Y460640D02*
X2102520D01*
X2101520Y474640D02*
X2111520D01*
X2141520Y299140D02*
Y300640D01*
X2136520Y294140D02*
X2141520Y299140D01*
X2136520Y282640D02*
Y294140D01*
X2151520Y299140D02*
Y300640D01*
Y299140D02*
X2156520Y294140D01*
Y282640D02*
Y294140D01*
X2154020Y263640D02*
X2156520D01*
X2142020Y251640D02*
X2154020Y263640D01*
X2133520Y251640D02*
X2142020D01*
X2134020Y263640D02*
X2136520D01*
X2127520Y257140D02*
X2134020Y263640D01*
X2127520Y245640D02*
Y257140D01*
Y245640D02*
X2133520Y239640D01*
X2244800Y569910D02*
X2246070Y568640D01*
X2102520Y604402D02*
X2103214D01*
X2202070Y568640D02*
X2202520Y569090D01*
X1999520Y520640D02*
X2007520D01*
X2103214Y604402D02*
X2105692Y606880D01*
X2053520Y600640D02*
X2054520Y599640D01*
X2067520Y594640D02*
Y600640D01*
Y594640D02*
X2069520Y592640D01*
X2090520D01*
X2082520Y601640D02*
X2087520D01*
X2081520Y600640D02*
X2082520Y601640D01*
X2244800Y569910D02*
Y578468D01*
X2053520Y598640D02*
X2054520Y599640D01*
X2053520Y587640D02*
Y598640D01*
X2090520Y592640D02*
X2101932Y604052D01*
X2099520Y582640D02*
X2109520D01*
X2099520Y568640D02*
X2109520D01*
X2036520Y596303D02*
Y622640D01*
X2053520Y587640D02*
X2095035D01*
X2049996Y582827D02*
X2079333D01*
X2089277Y572883D01*
X2036520Y596303D02*
X2049996Y582827D01*
X2055005Y505640D02*
X2059005Y509640D01*
X2072520D01*
X2119520Y460640D02*
X2120520Y459640D01*
X2286520Y384640D02*
X2286520Y384640D01*
X2287520Y419414D02*
Y420495D01*
X2284596Y423419D02*
X2287520Y420495D01*
X2076520Y563640D02*
X2083520D01*
X2058520Y426640D02*
X2071520D01*
X2090520D02*
Y429140D01*
X2092520Y438558D02*
Y439764D01*
X2091119Y429739D02*
Y437156D01*
X2092520Y438558D01*
X2090520Y429140D02*
X2091119Y429739D01*
X2082101Y321344D02*
X2087500Y326742D01*
X2055930Y321344D02*
X2082101D01*
X2032520Y350411D02*
Y457125D01*
X1980520Y513640D02*
Y520640D01*
Y513640D02*
X1983520Y510640D01*
X2008520D01*
X2097520Y631640D02*
X2105020D01*
X2112520D01*
X2092520Y648640D02*
X2095520Y645640D01*
X2092520Y648640D02*
Y654640D01*
Y673640D02*
X2105348D01*
X2105020Y631640D02*
X2105520Y632140D01*
Y673640D01*
X2048520Y660640D02*
X2057520Y651640D01*
X2067520D01*
X2048520Y660640D02*
Y680360D01*
X2048180Y680700D02*
X2048520Y680360D01*
X1982520Y621640D02*
Y636568D01*
X2169520Y440640D02*
X2186520D01*
X2169520Y434054D02*
Y440640D01*
X2199602Y439640D02*
X2201371Y441408D01*
X2251520Y440640D02*
X2268520D01*
X2251520Y440640D02*
X2251520Y440640D01*
X2169520Y497640D02*
X2185520D01*
X2210520Y469640D02*
Y478640D01*
X2210520Y478640D02*
X2210520Y478640D01*
Y459640D02*
Y469640D01*
X2268520Y497640D02*
X2268520Y497640D01*
Y459640D02*
X2271020D01*
X2275077Y462023D02*
X2275192Y462138D01*
X2251520Y459640D02*
Y468640D01*
Y478640D01*
X2198259Y458140D02*
X2207759Y448640D01*
X2186520Y459640D02*
X2188020Y458140D01*
X2220949Y448640D02*
X2220949Y448640D01*
X2237020Y452640D02*
X2342520D01*
X2230479Y459640D02*
X2233020Y457099D01*
X2240520Y440640D02*
X2251520D01*
X2271020Y459640D02*
X2273403Y462023D01*
X2240602Y496640D02*
X2241602Y497640D01*
X2268520D01*
X2283515Y423419D02*
X2284596D01*
X2287520Y418536D02*
Y419414D01*
Y435640D01*
Y384536D02*
Y401536D01*
X2306520D02*
Y410036D01*
Y418536D01*
Y410036D02*
X2314916D01*
X2315520Y410640D01*
X2306520Y385512D02*
X2309444Y388436D01*
X2375659Y435532D02*
Y473501D01*
X2120520Y459640D02*
X2121520Y460640D01*
X2129520D01*
X2128520Y474640D02*
X2137520D01*
X2152348Y435812D02*
Y438716D01*
X2180070Y568640D02*
Y580944D01*
X2167932Y593082D02*
X2180070Y580944D01*
X2152106Y460226D02*
Y492054D01*
X2150520Y458640D02*
X2152106Y460226D01*
X2160893Y587610D02*
X2169070Y579433D01*
X2141284Y587610D02*
X2160893D01*
X2169070Y568640D02*
Y579433D01*
X2152144Y438921D02*
X2152348Y438716D01*
X2152470Y426325D02*
Y435690D01*
X2149239Y438921D02*
X2152144D01*
X2152470Y426325D02*
X2167155Y411640D01*
X2148520Y495640D02*
X2152106Y492054D01*
X2144520Y424640D02*
Y440640D01*
X2309444Y389419D02*
X2310427D01*
X2341147Y420139D01*
X2306520Y384536D02*
Y385512D01*
X2309444Y388436D02*
Y389419D01*
X2341147Y420139D02*
X2360265D01*
X2369520Y479640D02*
X2375659Y473501D01*
X2273306Y473854D02*
Y475716D01*
X2270382Y478640D02*
X2273306Y475716D01*
X2268520Y478640D02*
X2270382D01*
X2227520Y478640D02*
X2237949D01*
X2244949Y485640D01*
X2261949D01*
X2261949Y485640D01*
X2275091D01*
X2286855Y473876D01*
X2273403Y462023D02*
X2275077D01*
X2210520Y497640D02*
X2212479D01*
X2227520D01*
X2212479D02*
X2212521D01*
X2286855Y473876D02*
X2315520D01*
X2306520Y435640D02*
X2307770Y436890D01*
X2188020Y458140D02*
X2198259D01*
X2233020Y456640D02*
X2237020Y452640D01*
X2311870Y519790D02*
X2312520D01*
X2305020Y526640D02*
X2311870Y519790D01*
X2295520Y526640D02*
X2305020D01*
X2332520Y519790D02*
Y543640D01*
X2364520D01*
X2299392Y499512D02*
X2302670Y502790D01*
X2312520D01*
X2325519Y490639D02*
X2332520Y497640D01*
X2307936Y490639D02*
X2325519D01*
X2332520Y497640D02*
Y502790D01*
X2095520Y610640D02*
X2095760Y610880D01*
X2110035Y602640D02*
X2110319D01*
X2110559Y602880D01*
X2095035Y587640D02*
X2110035Y602640D01*
X2087520Y601640D02*
X2095520Y609640D01*
Y610640D01*
X2400764Y559384D02*
X2400863Y559285D01*
X2394665Y553285D02*
X2400764Y559384D01*
X2126520Y582640D02*
X2131348D01*
X2111520Y595640D02*
X2127813D01*
X2134078Y592880D02*
X2134280Y593082D01*
X2300548Y597640D02*
X2309548Y588640D01*
X2270369Y616791D02*
X2284520Y602640D01*
X2315348D01*
X2236662Y613125D02*
X2240328Y616791D01*
X2212521Y497640D02*
X2218933Y504053D01*
X2083520Y563640D02*
X2094290Y552870D01*
X2273306Y473854D02*
X2280520Y466640D01*
X2312520Y519790D02*
X2313520Y520790D01*
X2259520Y559640D02*
X2314302D01*
X2134280Y593082D02*
X2167932D01*
X2134520Y450640D02*
X2144520Y440640D01*
X2140756Y587082D02*
X2141284Y587610D01*
X2135520Y423640D02*
Y440640D01*
X2277520Y489640D02*
X2283520Y483640D01*
X2400863Y559285D02*
X2402520D01*
X2254520Y554640D02*
X2259520Y559640D01*
X2286054Y659639D02*
X2294227Y651466D01*
X2286397Y653639D02*
X2292570Y647466D01*
X2289880Y626640D02*
X2319520D01*
X2276768Y639218D02*
X2278064Y640515D01*
X2292976D01*
X2294272Y639218D01*
X2319520D01*
X2278424Y635218D02*
X2279721Y636515D01*
X2291319D01*
X2292616Y635218D01*
X2319520D01*
X2281160Y626640D02*
X2283035Y628515D01*
X2288005D01*
X2289880Y626640D01*
X2290959Y631218D02*
X2319520D01*
X2289662Y632515D02*
X2290959Y631218D01*
X2280081D02*
X2281378Y632515D01*
X2289662D01*
X2159520Y687640D02*
X2159692D01*
X2162605Y696750D02*
X2354630D01*
X2159692Y687640D02*
X2161837Y689785D01*
X2161918D01*
X2048520Y550573D02*
X2059453D01*
X2294227Y651466D02*
X2319520D01*
X2292570Y647466D02*
X2319520D01*
X2246519Y659639D02*
X2286054D01*
X2240520Y662125D02*
Y663640D01*
X2240519Y662124D02*
X2240520Y662125D01*
X2240519Y657154D02*
Y662124D01*
Y657154D02*
X2244034Y653639D01*
X2286397D01*
X2231289Y650871D02*
Y654871D01*
X2219520Y666640D02*
X2231289Y654871D01*
X2089277Y572397D02*
Y572883D01*
X2223520Y605640D02*
X2238671Y620791D01*
X2240328Y616791D02*
X2270369D01*
X2208519Y654639D02*
X2236518Y626640D01*
X2236519Y651298D02*
X2248598Y639218D01*
X2276768D01*
X2231289Y650871D02*
X2246942Y635218D01*
X2278424D01*
X2220520Y654640D02*
X2243942Y631218D01*
X2280081D01*
X2236518Y626640D02*
X2281160D01*
X2275192Y462138D02*
X2310879D01*
X2311377Y461640D01*
X2280520Y466640D02*
X2312033D01*
X2313034Y465639D01*
X2299392Y490713D02*
Y499512D01*
X2283520Y483640D02*
X2315520D01*
X2311377Y461640D02*
X2319661D01*
X2320159Y462138D01*
X2323037D01*
X2342539Y481639D01*
X2313034Y465639D02*
X2318004D01*
X2319005Y466640D01*
X2321520D01*
X2352520Y448640D02*
X2363519Y459639D01*
X2239520Y496640D02*
X2240602D01*
X2207759Y448640D02*
X2220949D01*
X2233020Y456640D02*
Y457099D01*
X2055005Y505640D02*
X2055520Y505126D01*
Y504639D02*
Y505126D01*
X2370115Y452219D02*
Y464043D01*
X2358519Y474557D02*
X2359601D01*
X2196520Y401640D02*
Y407640D01*
X2135520Y423640D02*
X2156520Y403640D01*
X2283324Y423610D02*
X2283515Y423419D01*
X2278520Y423610D02*
X2283324D01*
X2278519Y423611D02*
X2278520Y423610D01*
X2278519Y423611D02*
Y424640D01*
X2367519Y682639D02*
Y695977D01*
X2366606Y696890D02*
X2367519Y695977D01*
X2218520Y433241D02*
X2220078Y431683D01*
X2224520Y430640D02*
X2226520Y432640D01*
X2046035Y470640D02*
X2055520D01*
X2222845Y569865D02*
X2224070Y568640D01*
X2110559Y602880D02*
X2198433D01*
X2232570Y571140D02*
Y575883D01*
X2105692Y606880D02*
X2201573D01*
X2095760Y610880D02*
X2203675D01*
X2127813Y595640D02*
X2131053Y598880D01*
X2222845Y569865D02*
Y578468D01*
X2232570Y571140D02*
X2235070Y568640D01*
X2154520Y631640D02*
X2157520Y628640D01*
Y616880D02*
Y628640D01*
X2131520Y631640D02*
X2154520D01*
X2254320Y673640D02*
X2297320D01*
X2301320Y669640D01*
X2173520Y674640D02*
X2174520Y673640D01*
X2146320Y669640D02*
X2151320Y674640D01*
X2173520D01*
X2226520Y677640D02*
Y684640D01*
Y677640D02*
X2240520Y663640D01*
X2161918Y689785D02*
X2162773Y690640D01*
X2235602Y684640D02*
X2237602Y686640D01*
X2234520Y684640D02*
X2235602D01*
X2162404Y696550D02*
X2162605Y696750D01*
X2237602Y686640D02*
X2319520D01*
X2354770Y696890D02*
X2366606D01*
X2160198Y696550D02*
X2162404D01*
X2354630Y696750D02*
X2354770Y696890D01*
X2159433Y695785D02*
X2160198Y696550D01*
X2299251Y490572D02*
X2299392Y490713D01*
X2299251Y490223D02*
Y490572D01*
X2259520Y329640D02*
X2272520D01*
X2231520D02*
X2240520D01*
X2001520Y645793D02*
X2021526Y665799D01*
X2051601Y571559D02*
X2055520Y567640D01*
X2055979D01*
X2059453Y550573D02*
X2059520Y550640D01*
X2055979Y567640D02*
X2059520Y564099D01*
X2045582Y571559D02*
X2051601D01*
X2059520Y563640D02*
Y564099D01*
X2028520Y348754D02*
X2055930Y321344D01*
X2028520Y348754D02*
Y461640D01*
X2045676Y478796D01*
X2032520Y457125D02*
X2046035Y470640D01*
X2236519Y651298D02*
Y659641D01*
X2217520Y678640D02*
X2236519Y659641D01*
X2233520Y606640D02*
Y607722D01*
X2236662Y610864D02*
Y613125D01*
X2315348Y602640D02*
X2318348Y599640D01*
X2273369Y620791D02*
X2286520Y607640D01*
X2238671Y620791D02*
X2273369D01*
X2318348Y599640D02*
X2318520D01*
X2233520Y607722D02*
X2236662Y610864D01*
X2135320Y578268D02*
X2135520Y578468D01*
X2135320Y574739D02*
Y578268D01*
X2131348Y582640D02*
X2135520Y578468D01*
X2126520Y568640D02*
X2131520D01*
X2134520Y565640D01*
X2038520Y370640D02*
X2067520Y399640D01*
X2038520Y358640D02*
Y370640D01*
X2151520Y317640D02*
Y319140D01*
X2149220Y322312D02*
Y333704D01*
X2122270Y427643D02*
Y442390D01*
X2126458Y446578D01*
X2122270Y427643D02*
X2149531Y400382D01*
X2117770Y425779D02*
Y442390D01*
X2113520Y445558D02*
Y446640D01*
X2114602Y445558D02*
X2117770Y442390D01*
Y425779D02*
X2145031Y398518D01*
Y351171D02*
Y398518D01*
X2126458Y446578D02*
X2126561D01*
X2113520Y445558D02*
X2114602D01*
X2087500Y342537D02*
X2087602Y342640D01*
X2087520Y342722D02*
Y371640D01*
X2132424Y401544D02*
X2132520Y401640D01*
X2093520Y336309D02*
X2132424Y375212D01*
X2087520Y342722D02*
X2087602Y342640D01*
X2087500Y326742D02*
Y342537D01*
X2093520Y325640D02*
Y336309D01*
X2132424Y375212D02*
Y401544D01*
X2143812Y349952D02*
X2145031Y351171D01*
X2143812Y331475D02*
Y349952D01*
X2141520Y317640D02*
X2143520Y319640D01*
X2149520D02*
Y322012D01*
X2143520Y322012D02*
X2143820Y322312D01*
X2143812Y331475D02*
X2143820Y331467D01*
X2149212Y333712D02*
X2149220Y333704D01*
X2143820Y322312D02*
Y331467D01*
X2150431Y348934D02*
Y353407D01*
X2149531Y354308D02*
Y400382D01*
X2149212Y333712D02*
Y347715D01*
X2143520Y319640D02*
Y322012D01*
X2149520Y319640D02*
X2151520Y317640D01*
X2149531Y354308D02*
X2150431Y353407D01*
X2149212Y347715D02*
X2150431Y348934D01*
X2149220Y322312D02*
X2149520Y322012D01*
X2185520Y497640D02*
X2197520D01*
X2198519Y498639D01*
X2207949Y489640D02*
X2277520D01*
X2185520Y478640D02*
X2196949D01*
X2207949Y489640D01*
X2218933Y504053D02*
Y504552D01*
X2076520Y550640D02*
X2078290Y548870D01*
X2158070Y568640D02*
X2158520Y568190D01*
Y558812D02*
X2159692Y557640D01*
X2158520Y558812D02*
Y568190D01*
X2078290Y548870D02*
X2162789D01*
X2094290Y552870D02*
X2164446D01*
X2171520Y557640D02*
X2177520Y551640D01*
X2159692Y557640D02*
X2171520D01*
X2177520Y551640D02*
X2191740D01*
X2191905Y551475D01*
X2192740Y550640D01*
X2312892Y579640D02*
X2314998D01*
X2292320Y573640D02*
X2292321Y573639D01*
X2309548Y588640D02*
X2346520D01*
X2286520Y607640D02*
X2361977D01*
X2314302Y559640D02*
X2314657Y559285D01*
X2210520Y441640D02*
X2227520D01*
X2198520Y439640D02*
X2199602D01*
X2201371Y441408D02*
X2210289D01*
X2210520Y441640D02*
X2210520Y441640D01*
X2210289Y441408D02*
X2210520Y441640D01*
X2274520Y411640D02*
X2281520Y404640D01*
X2274520Y411640D02*
Y411640D01*
X2281520Y404640D02*
X2284596D01*
X2287520Y401716D01*
Y401536D02*
Y401716D01*
X2185463Y598880D02*
X2202520Y581823D01*
X2131053Y598880D02*
X2185463D01*
X2202520Y569090D02*
Y581823D01*
X2313520Y520790D02*
Y531640D01*
X2307519Y490223D02*
X2307936Y490639D01*
X2300892Y591639D02*
X2312892Y579640D01*
X2252519Y591639D02*
X2300892D01*
X2255762Y597640D02*
X2300548D01*
X2249763Y603639D02*
X2255762Y597640D01*
X2244034Y603639D02*
X2249763D01*
X2240519Y600125D02*
X2244034Y603639D01*
X2241704Y581564D02*
X2244800Y578468D01*
X2203675Y610880D02*
X2232991Y581564D01*
X2241704D01*
X2240519Y588488D02*
X2241444Y587564D01*
X2240519Y588488D02*
Y600125D01*
X2201573Y606880D02*
X2232570Y575883D01*
X2198433Y602880D02*
X2222845Y578468D01*
X2238662Y550640D02*
X2256520D01*
X2223661Y535639D02*
X2238662Y550640D01*
X2162789Y548870D02*
X2176019Y535639D01*
X2223661D01*
X2237005Y554640D02*
X2254520D01*
X2222005Y539639D02*
X2237005Y554640D01*
X2164446Y552870D02*
X2177676Y539639D01*
X2222005D01*
X2087520Y371640D02*
X2099520D01*
X2076520Y341640D02*
X2077520Y340640D01*
Y327640D02*
Y340640D01*
X2032520Y350411D02*
X2055291Y327640D01*
X2077520D01*
X2144520Y424640D02*
X2160520Y408640D01*
X2354786Y436890D02*
X2370115Y452219D01*
X2307770Y436890D02*
X2354786D01*
X2360265Y420139D02*
X2375659Y435532D01*
X2359601Y474557D02*
X2370115Y464043D01*
X2363519Y459639D02*
Y459640D01*
X2350520Y498558D02*
Y499640D01*
X2349755Y498875D02*
X2350520Y499640D01*
X2364520Y543640D02*
X2368875Y539285D01*
X2368520Y488393D02*
Y499640D01*
X2321520Y466640D02*
X2349755Y494875D01*
Y498875D01*
X2361766Y481639D02*
X2368520Y488393D01*
X1982520Y636568D02*
X2010080Y664128D01*
X2021526Y679446D02*
X2022780Y680700D01*
X2010080Y664128D02*
Y680700D01*
X2021526Y665799D02*
Y679446D01*
X2001520Y544640D02*
Y645793D01*
X2156520Y349184D02*
Y403640D01*
X2160520Y350841D02*
Y408640D01*
X2220078Y296940D02*
Y431683D01*
X2224520Y298155D02*
Y430640D01*
X2257378Y259640D02*
X2282520D01*
X2271920Y239442D02*
X2281718D01*
X2245520Y239640D02*
Y260184D01*
X2156520Y349184D02*
X2245520Y260184D01*
X2160520Y350841D02*
X2271920Y239442D01*
X2220078Y296940D02*
X2257378Y259640D01*
X2249617Y276394D02*
X2256945Y269065D01*
X2246281Y276394D02*
X2249617D01*
X2224520Y298155D02*
X2246281Y276394D01*
X2248520Y287640D02*
X2258520Y297640D01*
Y314640D01*
D14*
X3303577Y658640D02*
X3313520D01*
X3333520D01*
Y678640D01*
X2574520Y650640D02*
X2612520D01*
X2519520Y309640D02*
Y364640D01*
X2545520Y309640D02*
Y375640D01*
X2596520Y401640D02*
Y438640D01*
X2519520Y364640D02*
X2522520Y367640D01*
X2544520Y376640D02*
X2545520Y375640D01*
X2596520Y649983D02*
X2596797Y650260D01*
X2596520Y630640D02*
Y649983D01*
X2612520Y650640D02*
X2613520Y649640D01*
X2442496Y286664D02*
X2442520Y286640D01*
X2442496Y286664D02*
X2442496D01*
X2442520Y286640D02*
X2479520D01*
X2487520Y294640D01*
X3000520D01*
X3023520Y317640D01*
X3294520Y679640D02*
X3312520D01*
X3313520Y698640D02*
X3333520D01*
X3284520D02*
X3313520D01*
Y678640D02*
Y698640D01*
X1900520Y568987D02*
Y575640D01*
X1956520Y566640D02*
Y575640D01*
X1948520Y559640D02*
X1955520Y566640D01*
X2158070Y568640D02*
Y570640D01*
X2157570Y571140D02*
X2158070Y570640D01*
X2148820Y571140D02*
X2157570D01*
X2146320Y573640D02*
X2148820Y571140D01*
X1900520Y568987D02*
X1909193Y560313D01*
D22*
X2192740Y550640D02*
D03*
X2211740D02*
D03*
X2055520Y534640D02*
D03*
X2074520D02*
D03*
X1900520Y575640D02*
D03*
X1919520D02*
D03*
X1956520D02*
D03*
X1937520D02*
D03*
X2078520Y631640D02*
D03*
X2097520D02*
D03*
X2131520D02*
D03*
X2112520D02*
D03*
X2071520Y426640D02*
D03*
X2090520D02*
D03*
X2313520Y543640D02*
D03*
X2332520D02*
D03*
X2287520Y435640D02*
D03*
X2306520D02*
D03*
X2287520Y418536D02*
D03*
X2306520D02*
D03*
Y401536D02*
D03*
X2287520D02*
D03*
X2306520Y384536D02*
D03*
X2287520D02*
D03*
X2212520Y348690D02*
D03*
X2231520D02*
D03*
X2057520Y374640D02*
D03*
X2076520D02*
D03*
X2034520Y567640D02*
D03*
X2015520D02*
D03*
X2035520Y294640D02*
D03*
X2054520D02*
D03*
Y272640D02*
D03*
X2035520D02*
D03*
X2212520Y366690D02*
D03*
X2231520D02*
D03*
X1998520Y521640D02*
D03*
X1979520D02*
D03*
X1906520Y398640D02*
D03*
X1887520D02*
D03*
D23*
X2092520Y654640D02*
D03*
Y673640D02*
D03*
X2072520Y490640D02*
D03*
Y509640D02*
D03*
X2227520Y441640D02*
D03*
Y460640D02*
D03*
X2210520Y441640D02*
D03*
Y460640D02*
D03*
X2169520D02*
D03*
Y441640D02*
D03*
X2186520Y460640D02*
D03*
Y441640D02*
D03*
X2169520Y497640D02*
D03*
Y478640D02*
D03*
X2185520Y497640D02*
D03*
Y478640D02*
D03*
X2210520D02*
D03*
Y497640D02*
D03*
X2227520Y478640D02*
D03*
Y497640D02*
D03*
X2295520Y526640D02*
D03*
Y545640D02*
D03*
X2307520Y347640D02*
D03*
Y366640D02*
D03*
X2249520Y347690D02*
D03*
Y366690D02*
D03*
X2195520D02*
D03*
Y347690D02*
D03*
X2178520D02*
D03*
Y366690D02*
D03*
X2020520Y238640D02*
D03*
Y257640D02*
D03*
X2251520Y441640D02*
D03*
Y460640D02*
D03*
Y478640D02*
D03*
Y497640D02*
D03*
X2268520Y441640D02*
D03*
Y460640D02*
D03*
Y478640D02*
D03*
Y497640D02*
D03*
X2156520Y282640D02*
D03*
Y263640D02*
D03*
X2136520D02*
D03*
Y282640D02*
D03*
X2018520Y482640D02*
D03*
Y463640D02*
D03*
D24*
X2021520Y650640D02*
D03*
Y633640D02*
D03*
X2053520Y617640D02*
D03*
Y600640D02*
D03*
X2067520D02*
D03*
Y617640D02*
D03*
X2081520D02*
D03*
Y600640D02*
D03*
X2152520Y441640D02*
D03*
Y458640D02*
D03*
X2312520Y519790D02*
D03*
Y502790D02*
D03*
X2332520Y519790D02*
D03*
Y502790D02*
D03*
D25*
X2059520Y550640D02*
D03*
X2076520D02*
D03*
Y563640D02*
D03*
X2059520D02*
D03*
X2126520Y582640D02*
D03*
X2109520D02*
D03*
Y568640D02*
D03*
X2126520D02*
D03*
X2119520Y460640D02*
D03*
X2102520D02*
D03*
X2128520Y474640D02*
D03*
X2111520D02*
D03*
D27*
X2010080Y680700D02*
D03*
X2022780D02*
D03*
X2035480D02*
D03*
X2048180D02*
D03*
D30*
X1987520Y230640D02*
D03*
Y267470D02*
D03*
D36*
X2240520Y329640D02*
D03*
X2259520D02*
D03*
X1887520Y417640D02*
D03*
X1906520D02*
D03*
D41*
X1926520Y287640D02*
D03*
Y230640D02*
D03*
X1885520D02*
D03*
Y287640D02*
D03*
D59*
X3242520Y244640D02*
D03*
X1889520Y510640D02*
D03*
X2199520Y244640D02*
D03*
D119*
X3109326Y536640D02*
X3122266Y549580D01*
X3063618Y383640D02*
X3106520D01*
X3053520Y489640D02*
X3153520Y389640D01*
Y373720D02*
Y389640D01*
Y280640D02*
Y373720D01*
X2977586Y469672D02*
X2986897Y460360D01*
X2349536Y268656D02*
Y299624D01*
Y268656D02*
X2389552Y228640D01*
X3132520Y259640D02*
X3153520Y280640D01*
X2544520Y259640D02*
X3132520D01*
X2513520Y228640D02*
X2544520Y259640D01*
X2389552Y228640D02*
X2513520D01*
X2349520Y299640D02*
X2349536Y299624D01*
X3053520Y489640D02*
Y530640D01*
X3059520Y536640D01*
X3122266Y549580D02*
Y552894D01*
X3059520Y536640D02*
X3109326D01*
X3111520Y563640D02*
X3122266Y552894D01*
X2408520Y644367D02*
X2445793Y681640D01*
X2408520Y591640D02*
Y644367D01*
X2416364Y580628D02*
Y639484D01*
X2452156Y675276D01*
X2403520Y579640D02*
X2415376D01*
X2445793Y681640D02*
X3000520D01*
X3063618Y383640D02*
Y383640D01*
X3015496Y442664D02*
X3065520Y392640D01*
X2977586Y469672D02*
Y675276D01*
X2986897Y460360D02*
X3063618Y383640D01*
X3000520Y681640D02*
X3015496Y666664D01*
X3022520Y528640D02*
X3044270Y550390D01*
X3022520Y504235D02*
Y528640D01*
Y504235D02*
X3022840Y503915D01*
X3044270Y550390D02*
X3111770D01*
X2452156Y675276D02*
X2977586D01*
X3015496Y442664D02*
Y666664D01*
X3065520Y392640D02*
X3106518D01*
X3208560Y461600D02*
X3224520Y445640D01*
X3208560Y461600D02*
Y529950D01*
X3096270Y590640D02*
X3111520Y575390D01*
X3065395Y590640D02*
X3096270D01*
X3312520Y679640D02*
X3313520Y678640D01*
X2007903Y521023D02*
X2009317D01*
X2009935Y521640D02*
X2022878D01*
X2022520Y557673D02*
X2030177D01*
X2149520Y536640D02*
X2165520D01*
X2148520Y535640D02*
X2149520Y536640D01*
X2305903Y545257D02*
X2311903D01*
X2313520Y543640D01*
X2305520Y545640D02*
X2305903Y545257D01*
X2295520Y545640D02*
X2305520D01*
X2032520Y565640D02*
X2034520Y567640D01*
X2032520Y560016D02*
Y565640D01*
X2030177Y557673D02*
X2032520Y560016D01*
X2009317Y521023D02*
X2009935Y521640D01*
X2035878Y534640D02*
X2055520D01*
X2007520Y520640D02*
X2007903Y521023D01*
X2022878Y521640D02*
X2035878Y534640D01*
X2021520Y650640D02*
X2028520Y657640D01*
Y661640D01*
X1906520Y417640D02*
X1915520D01*
X1936420Y396740D01*
Y349290D02*
Y396740D01*
D120*
X2067520Y631640D02*
X2078520D01*
X2067520Y617640D02*
Y631640D01*
X2053520Y617640D02*
X2067520D01*
X2081520D01*
X2211740Y550640D02*
X2212405Y551305D01*
Y567975D01*
X2213070Y568640D01*
X2191905Y551475D02*
Y567805D01*
X2018520Y482640D02*
X2018520Y482640D01*
X2018520Y450640D02*
Y463640D01*
X2018520Y463640D01*
X1876520Y655640D02*
X1889520Y669640D01*
X2131520Y632178D02*
X2133982Y634640D01*
X2131520Y631640D02*
Y632178D01*
X2086770Y386640D02*
X2087582D01*
X2045332Y499640D02*
X2049332Y495640D01*
X2044520Y499640D02*
X2045332D01*
X2060520Y495640D02*
X2065520Y490640D01*
X2049332Y495640D02*
X2060520D01*
X2092720Y490640D02*
X2097720Y495640D01*
X2065520Y490640D02*
X2072520D01*
X2092720D01*
X2246520Y378451D02*
Y394541D01*
X2191295Y583415D02*
X2191520Y583640D01*
X2191295Y568865D02*
Y583415D01*
X2191070Y568640D02*
X2191295Y568865D01*
X2048520Y348640D02*
Y363140D01*
X2057520Y372140D01*
Y374640D01*
X2079507Y379377D02*
X2086770Y386640D01*
X2089408Y388467D02*
X2097693D01*
X2087582Y386640D02*
X2089408Y388467D01*
X2076520Y358640D02*
Y374640D01*
X2035480Y664288D02*
X2058128Y641640D01*
X2067520D01*
X2035480Y664288D02*
Y680700D01*
X2021451Y633730D02*
X2023541Y631640D01*
X2067520D01*
X1961820Y349290D02*
X1974520Y361990D01*
Y467640D01*
X1957520Y484410D02*
X1968145Y473784D01*
X1968376D01*
X1974520Y467640D01*
X1957520Y484410D02*
Y517640D01*
X1941034Y534126D02*
X1957520Y517640D01*
X1906916Y534126D02*
X1941034D01*
X1876520Y561522D02*
X1906916Y534126D01*
X2018520Y482640D02*
Y491640D01*
X1922442Y643718D02*
Y667561D01*
X1892626Y672747D02*
X1917256D01*
X1922442Y667561D01*
X1889520Y669640D02*
X1892626Y672747D01*
X1890262Y566336D02*
X1911973Y544626D01*
X2004027Y399349D02*
X2007811D01*
X2002270Y401106D02*
Y408168D01*
Y401106D02*
X2004027Y399349D01*
X2007811D02*
X2012520Y394640D01*
X1945675Y544626D02*
X1969182Y521119D01*
X1911973Y544626D02*
X1945675D01*
X2002270Y408168D02*
Y465823D01*
Y408168D02*
X2002270Y408168D01*
X1969182Y498910D02*
Y521119D01*
Y498910D02*
X2002270Y465823D01*
X1884762Y564058D02*
X1909694Y539126D01*
X1884762Y564058D02*
Y623961D01*
X1909694Y539126D02*
X1943397D01*
X1986520Y394640D02*
X1991229Y399349D01*
X1995013D01*
X1996770Y401106D01*
Y405890D01*
X1996770Y405890D02*
Y463544D01*
Y405890D02*
X1996770Y405890D01*
X1963682Y496632D02*
Y518841D01*
Y496632D02*
X1996770Y463544D01*
X1943397Y539126D02*
X1963682Y518841D01*
X1881520Y633640D02*
X1882094Y633066D01*
X1890262Y566336D02*
Y621682D01*
X1882094Y626629D02*
Y633066D01*
Y626629D02*
X1884762Y623961D01*
X1875020Y563022D02*
X1876520Y561522D01*
X1875020Y563022D02*
Y654140D01*
X1876520Y655640D01*
X1890262Y621682D02*
X1896520Y627940D01*
Y641640D01*
X2246520Y378451D02*
X2250520Y374451D01*
X2250519Y374450D02*
X2250520Y374451D01*
X2250519Y373640D02*
Y374450D01*
D121*
X1961820Y323890D02*
Y349290D01*
X1936420Y323890D02*
Y349290D01*
X1886070Y377190D02*
X1886520Y377640D01*
X1886070Y349740D02*
Y377190D01*
X1885620Y349290D02*
X1886070Y349740D01*
X1918520Y366222D02*
Y367640D01*
X1911731Y359433D02*
X1918520Y366222D01*
X1911731Y350001D02*
Y359433D01*
X1911020Y349290D02*
X1911731Y350001D01*
X1925520Y287640D02*
X1926520D01*
X1885520D02*
X1885570Y287690D01*
Y349240D02*
X1885620Y349290D01*
X1885570Y287690D02*
Y349240D01*
X1919020Y294140D02*
X1925520Y287640D01*
X1919020Y294140D02*
Y296258D01*
X1885520Y230640D02*
X1926520D01*
X1961820Y323890D02*
X1986520Y299190D01*
Y277640D02*
Y299190D01*
X1957520Y237640D02*
Y302790D01*
X1936420Y323890D02*
X1957520Y302790D01*
Y237640D02*
X1964520Y230640D01*
X1987520D01*
X2020020Y238640D02*
X2020520D01*
X2019020Y237640D02*
X2020020Y238640D01*
X2019020Y237140D02*
Y237640D01*
X2012520Y230640D02*
X2019020Y237140D01*
X1987520Y230640D02*
X2012520D01*
X2010690Y267470D02*
X2016548Y261612D01*
Y261112D02*
Y261612D01*
Y261112D02*
X2020020Y257640D01*
X2020520D01*
X1987520Y267470D02*
X2010690D01*
X1915280Y299998D02*
X1919020Y296258D01*
X1915280Y299998D02*
Y318625D01*
X1911020Y322884D02*
Y349290D01*
Y322884D02*
X1915280Y318625D01*
D122*
X1928020Y575640D02*
X1928520Y576140D01*
X1919520Y575640D02*
X1928020D01*
X1936520D01*
X2178520Y366690D02*
X2195520D01*
X2212520D01*
X2211520Y347690D02*
X2212520Y348690D01*
X2231520Y366690D02*
X2249520D01*
X2232520Y347690D02*
X2249520D01*
X2231520Y348690D02*
X2232520Y347690D01*
X2266270Y347940D02*
X2266520Y348190D01*
X2253520Y352840D02*
X2257870Y357190D01*
X2249520Y347690D02*
X2252020D01*
X2257870Y357190D02*
X2266020D01*
X2266520Y357690D01*
X2253520Y349190D02*
Y352840D01*
X2252270Y347940D02*
X2266270D01*
X2306970Y367190D02*
X2307520Y366640D01*
X2307245Y347915D02*
X2307520Y347640D01*
X2291295Y347915D02*
X2307245D01*
X2291020Y348190D02*
X2291295Y347915D01*
X2291020Y367190D02*
X2306970D01*
X2264270Y367690D02*
Y371621D01*
X2176020Y347690D02*
X2195520D01*
X2211520D01*
X2195520Y366690D02*
X2195520Y366690D01*
X2097720Y495640D02*
Y535640D01*
X2097220Y535140D02*
X2097720Y535640D01*
X2075020Y535140D02*
X2097220D01*
X2074520Y534640D02*
X2075020Y535140D01*
X2256520Y379371D02*
X2264270Y371621D01*
Y367690D02*
X2264770Y367190D01*
X2364520Y413640D02*
X2372045Y421165D01*
X2344520Y413640D02*
X2364520D01*
X2319520Y366640D02*
X2323520Y370640D01*
Y392640D02*
X2344520Y413640D01*
X2323520Y370640D02*
Y392640D01*
X2307520Y366640D02*
X2319520D01*
X2256520Y379371D02*
Y394541D01*
X2264770Y367190D02*
X2291020D01*
X2008520Y555640D02*
Y560640D01*
X2015520Y567640D01*
X2170165Y353545D02*
X2176020Y347690D01*
X2166617Y353737D02*
X2166808Y353545D01*
X2170165D01*
X2277206Y357690D02*
X2279249Y355647D01*
X2279520D01*
X2266520Y357690D02*
X2277206D01*
X2178520Y366690D02*
Y373640D01*
X2178520Y366690D02*
X2178520Y366690D01*
X2250519Y367691D02*
X2250520Y367690D01*
X2249520Y366690D02*
X2250520Y367690D01*
X2316329Y357449D02*
X2316520Y357640D01*
X2307520Y347640D02*
X2310020D01*
X2316329Y353949D01*
Y357449D01*
X2201050Y591778D02*
X2212576Y580252D01*
Y570584D02*
Y580252D01*
Y570584D02*
X2213520Y569640D01*
X2372045Y421165D02*
X2402520D01*
X1928520Y576140D02*
Y593640D01*
X1887520Y398640D02*
X1887520Y398640D01*
Y416640D01*
Y417640D01*
X1886322Y417837D02*
X1887520Y416640D01*
X1886520Y377640D02*
X1887020Y378140D01*
Y398140D01*
X1887520Y398640D01*
X1918520Y367640D02*
Y384140D01*
X1906520Y396140D02*
X1918520Y384140D01*
X1906520Y396140D02*
Y398640D01*
X2250519Y367691D02*
X2250520Y367692D01*
X2250519Y367692D02*
X2250520Y367692D01*
X2250519Y367692D02*
Y373640D01*
D123*
X2072086Y280485D02*
X2074877Y283277D01*
X2094675Y277467D02*
X2095425Y276717D01*
X2054520Y272640D02*
X2056615Y274735D01*
Y289027D02*
X2058847Y286795D01*
X2056615Y274735D02*
Y278253D01*
X2095425Y273735D02*
X2096520Y272640D01*
X2095425Y273735D02*
Y276717D01*
X2054520Y294640D02*
X2056615Y292545D01*
Y289027D02*
Y292545D01*
X2058847Y280485D02*
X2072086D01*
X2056615Y278253D02*
X2058847Y280485D01*
X2074877Y283277D02*
X2086133D01*
X2086520Y272640D02*
X2087615Y273735D01*
Y276717D01*
X2088365Y277467D01*
Y281045D01*
X2077520Y249640D02*
X2077939Y250059D01*
X2082439D01*
X2058847Y286795D02*
X2069472D01*
X2072264Y289587D01*
X2088747D01*
X2094675Y277467D02*
Y283659D01*
X2088747Y289587D02*
X2094675Y283659D01*
X2086133Y283277D02*
X2088365Y281045D01*
X2086520Y254140D02*
Y255640D01*
X2077520Y241640D02*
X2090520D01*
X2096520Y247640D02*
Y255640D01*
X2082439Y250059D02*
X2086520Y254140D01*
X2090520Y241640D02*
X2096520Y247640D01*
X1987370Y374790D02*
X1987520Y374640D01*
X1987220Y323890D02*
X1987366D01*
X1987220D02*
Y349290D01*
X1987366Y323890D02*
X1996765Y314491D01*
X2031193Y280485D02*
X2033425Y278253D01*
Y274735D02*
X2035520Y272640D01*
X2033425Y274735D02*
Y278253D01*
X1996765Y308721D02*
Y314491D01*
X2003075Y311335D02*
Y314491D01*
X2012474Y323890D01*
X2012620D01*
Y349290D01*
X2033425Y289027D02*
Y292545D01*
X2035520Y294640D01*
X1986520Y374640D02*
X1986870Y374290D01*
Y349640D02*
Y374290D01*
Y349640D02*
X1987220Y349290D01*
X2012520Y349390D02*
Y374640D01*
Y349390D02*
X2012620Y349290D01*
X2003075Y311335D02*
X2027615Y286795D01*
X2031193D01*
X2033425Y289027D01*
X1996765Y308721D02*
X2025001Y280485D01*
X2031193D01*
D126*
X2815463Y650260D02*
D03*
Y613260D02*
D03*
X2961797Y614260D02*
D03*
Y578260D02*
D03*
Y542260D02*
D03*
Y506260D02*
D03*
X2925130Y614260D02*
D03*
Y578260D02*
D03*
Y542260D02*
D03*
Y506260D02*
D03*
X2888463Y578260D02*
D03*
Y542260D02*
D03*
Y506260D02*
D03*
X2851797Y578260D02*
D03*
Y542260D02*
D03*
Y506260D02*
D03*
X2815130Y578260D02*
D03*
Y542260D02*
D03*
Y506260D02*
D03*
X2778463Y614260D02*
D03*
Y578260D02*
D03*
Y542260D02*
D03*
Y506260D02*
D03*
X2741797Y614260D02*
D03*
Y578260D02*
D03*
Y542260D02*
D03*
Y506260D02*
D03*
X2705130Y614260D02*
D03*
Y578260D02*
D03*
Y542260D02*
D03*
Y506260D02*
D03*
X2668463Y614260D02*
D03*
Y578260D02*
D03*
Y542260D02*
D03*
Y506260D02*
D03*
X2631797D02*
D03*
Y542260D02*
D03*
Y578260D02*
D03*
Y614260D02*
D03*
Y470260D02*
D03*
X2705130D02*
D03*
X2741797D02*
D03*
X2778463D02*
D03*
X2815130D02*
D03*
X2851797D02*
D03*
X2888463D02*
D03*
X2925130D02*
D03*
X2961797D02*
D03*
X2668463D02*
D03*
Y650260D02*
D03*
X2961797D02*
D03*
X2925130D02*
D03*
X2778463D02*
D03*
X2741797D02*
D03*
X2705130D02*
D03*
X2631797D02*
D03*
X2631307Y420340D02*
D03*
X2704640D02*
D03*
X2741306D02*
D03*
X2777973D02*
D03*
X2924640D02*
D03*
X2961306D02*
D03*
X2667973D02*
D03*
Y240340D02*
D03*
X2961306D02*
D03*
X2924640D02*
D03*
X2887973D02*
D03*
X2851306D02*
D03*
X2814640D02*
D03*
X2777973D02*
D03*
X2741306D02*
D03*
X2704640D02*
D03*
X2631307D02*
D03*
Y384340D02*
D03*
Y348340D02*
D03*
Y312340D02*
D03*
Y276340D02*
D03*
X2667973D02*
D03*
Y312340D02*
D03*
Y348340D02*
D03*
Y384340D02*
D03*
X2704640Y276340D02*
D03*
Y312340D02*
D03*
Y348340D02*
D03*
Y384340D02*
D03*
X2741306Y276340D02*
D03*
Y312340D02*
D03*
Y348340D02*
D03*
Y384340D02*
D03*
X2777973Y276340D02*
D03*
Y312340D02*
D03*
Y348340D02*
D03*
Y384340D02*
D03*
X2814640Y276340D02*
D03*
Y312340D02*
D03*
Y348340D02*
D03*
X2851306Y276340D02*
D03*
Y312340D02*
D03*
Y348340D02*
D03*
X2887973Y276340D02*
D03*
Y312340D02*
D03*
Y348340D02*
D03*
X2924640Y276340D02*
D03*
Y312340D02*
D03*
Y348340D02*
D03*
Y384340D02*
D03*
X2961306Y276340D02*
D03*
Y312340D02*
D03*
Y348340D02*
D03*
Y384340D02*
D03*
X2814973Y383340D02*
D03*
Y420340D02*
D03*
D129*
X3313520Y638640D02*
D03*
Y658640D02*
D03*
X3333520Y618640D02*
D03*
X3313520D02*
D03*
X3333520Y638640D02*
D03*
Y658640D02*
D03*
Y678640D02*
D03*
X3313520D02*
D03*
X3333520Y698640D02*
D03*
Y598640D02*
D03*
X3313520Y578640D02*
D03*
X3333520D02*
D03*
X3313520Y598640D02*
D03*
X3333520Y558640D02*
D03*
X3313520Y538640D02*
D03*
X3333520D02*
D03*
X3313520Y558640D02*
D03*
X3333520Y518640D02*
D03*
X3313520D02*
D03*
Y318640D02*
D03*
X3333520Y318640D02*
D03*
X3313520Y358640D02*
D03*
X3333520Y338640D02*
D03*
X3313520Y338640D02*
D03*
X3333520Y358640D02*
D03*
X3313520Y398640D02*
D03*
X3333520Y378640D02*
D03*
X3313520Y378640D02*
D03*
X3333520Y398640D02*
D03*
Y498640D02*
D03*
X3313520Y478640D02*
D03*
X3333520D02*
D03*
Y458640D02*
D03*
Y438640D02*
D03*
X3313520Y418640D02*
D03*
X3333520Y418640D02*
D03*
X3313520Y458640D02*
D03*
Y438640D02*
D03*
X3333520Y298640D02*
D03*
X3313520Y278640D02*
D03*
X3333520Y278640D02*
D03*
Y258640D02*
D03*
Y238640D02*
D03*
X3313520Y218640D02*
D03*
X3333520Y218640D02*
D03*
X3313520Y258640D02*
D03*
Y238640D02*
D03*
Y498640D02*
D03*
Y298640D02*
D03*
X3231120Y325040D02*
D03*
Y350440D02*
D03*
X3256520Y325040D02*
D03*
X2012520Y374640D02*
D03*
X1986520D02*
D03*
X1885620Y349290D02*
D03*
Y323890D02*
D03*
X2012620D02*
D03*
X1987220Y349290D02*
D03*
Y323890D02*
D03*
X1961820Y349290D02*
D03*
Y323890D02*
D03*
X1936420Y349290D02*
D03*
Y323890D02*
D03*
X1911020Y349290D02*
D03*
Y323890D02*
D03*
X2418320Y350440D02*
D03*
Y325040D02*
D03*
X2545320D02*
D03*
X2519920Y350440D02*
D03*
Y325040D02*
D03*
X2494520Y350440D02*
D03*
Y325040D02*
D03*
X2469120Y350440D02*
D03*
Y325040D02*
D03*
X2443720Y350440D02*
D03*
Y325040D02*
D03*
D130*
X3313520Y698640D02*
D03*
D131*
X3256520Y350440D02*
D03*
X2012520Y394640D02*
D03*
X1986520D02*
D03*
X2012620Y349290D02*
D03*
X2545320Y350440D02*
D03*
D132*
X2254320Y673640D02*
D03*
X2174520D02*
D03*
D133*
X2871797Y630260D02*
D03*
X2596797Y650260D02*
D03*
X2851797Y630260D02*
D03*
X2996797Y470260D02*
D03*
Y650260D02*
D03*
X2996307Y420340D02*
D03*
Y240340D02*
D03*
X2851306Y400340D02*
D03*
X2596307Y420340D02*
D03*
X2871306Y400340D02*
D03*
X1886520Y377640D02*
D03*
X1918520Y367640D02*
D03*
D134*
X1989520Y495640D02*
D03*
D135*
X3065020Y581640D02*
D03*
X3044520Y512640D02*
D03*
X3099270Y497140D02*
D03*
X3064270Y497390D02*
D03*
X3272270Y575640D02*
D03*
X3224770D02*
D03*
X3165270Y575140D02*
D03*
X3174520Y442640D02*
D03*
X3119319Y536734D02*
D03*
X3106520Y383640D02*
D03*
X3153520Y373720D02*
D03*
X3130520Y379640D02*
D03*
X3259520Y691640D02*
D03*
X3233520D02*
D03*
X3210520D02*
D03*
X3193520D02*
D03*
X3129020Y689640D02*
D03*
X3105520D02*
D03*
X2442496Y286664D02*
D03*
X3023520Y317640D02*
D03*
X3080520Y630640D02*
D03*
X2349520Y299640D02*
D03*
X3053520Y530640D02*
D03*
X3111520Y563640D02*
D03*
X3173520Y419640D02*
D03*
X2408520Y591640D02*
D03*
X2303519Y573639D02*
D03*
X3106518Y392640D02*
D03*
X3104520Y281640D02*
D03*
X3059520Y355640D02*
D03*
X3213520Y409640D02*
D03*
X3224520Y445640D02*
D03*
X3208520Y514640D02*
D03*
X2449520Y646640D02*
D03*
X2407520Y239640D02*
D03*
X2490520Y450640D02*
D03*
X2485200Y651960D02*
D03*
X3208560Y529950D02*
D03*
X3022520Y544640D02*
D03*
X3113520Y508640D02*
D03*
X3065395Y590640D02*
D03*
X3111770Y550390D02*
D03*
X3111520Y575390D02*
D03*
X3022840Y503915D02*
D03*
X2349520Y459640D02*
D03*
X2358519Y475639D02*
D03*
X3234520Y646640D02*
D03*
X2077520Y249640D02*
D03*
Y241640D02*
D03*
X1982520Y621640D02*
D03*
X2266520Y314640D02*
D03*
X2258520D02*
D03*
X2281520Y279640D02*
D03*
X2169520Y469640D02*
D03*
X2210520D02*
D03*
X2092520Y460640D02*
D03*
X2101520Y474640D02*
D03*
X2204520Y401640D02*
D03*
X2198520Y439640D02*
D03*
X2251520Y468640D02*
D03*
X2008520Y510640D02*
D03*
X2055520Y446640D02*
D03*
X2133520Y239640D02*
D03*
Y251640D02*
D03*
X2086520Y386390D02*
D03*
X2007520Y520640D02*
D03*
X2067520Y631640D02*
D03*
X2099520Y582640D02*
D03*
Y568640D02*
D03*
X2036520Y622640D02*
D03*
X2053520Y588827D02*
D03*
X2044520Y499640D02*
D03*
X2265520Y544640D02*
D03*
Y510640D02*
D03*
X2058520Y426640D02*
D03*
X2067520Y405640D02*
D03*
X2075520D02*
D03*
X2067520Y399640D02*
D03*
X2055520Y470640D02*
D03*
X2018520Y450640D02*
D03*
X1948520Y559640D02*
D03*
X2067520Y641640D02*
D03*
X2095520Y645640D02*
D03*
X2105520Y673640D02*
D03*
X2067520Y651640D02*
D03*
X2192520Y527640D02*
D03*
X2240520Y440640D02*
D03*
X2254520Y510640D02*
D03*
X2315520Y410640D02*
D03*
X2402520Y659640D02*
D03*
X2403520Y579640D02*
D03*
X2369520Y479640D02*
D03*
X2111520Y595640D02*
D03*
X2129520Y460640D02*
D03*
X2137520Y474640D02*
D03*
X2102520Y604402D02*
D03*
X2165520Y536640D02*
D03*
X2245520Y239640D02*
D03*
X2281520D02*
D03*
X2095520Y610640D02*
D03*
X2104520Y616880D02*
D03*
X2134520Y565640D02*
D03*
X2134078Y592880D02*
D03*
X2318520Y599640D02*
D03*
X2316520Y619640D02*
D03*
X2134520Y450640D02*
D03*
X2135520Y440640D02*
D03*
X2045676Y478796D02*
D03*
X2159520Y687640D02*
D03*
X2159433Y695785D02*
D03*
X2185520Y655640D02*
D03*
X2167520Y616880D02*
D03*
X2246519Y659639D02*
D03*
X2285520Y620936D02*
D03*
X2219520Y666640D02*
D03*
X2220520Y654640D02*
D03*
X2208519Y654639D02*
D03*
X2089277Y572397D02*
D03*
X2206520Y616880D02*
D03*
X2305520Y545640D02*
D03*
X2315520Y483640D02*
D03*
X2315519Y471640D02*
D03*
X2233440Y535720D02*
D03*
X2225520Y528971D02*
D03*
X2239520Y496640D02*
D03*
X2055520Y504639D02*
D03*
X2001520Y544640D02*
D03*
X2282520Y259640D02*
D03*
X2187370Y401640D02*
D03*
X2196520D02*
D03*
X2166520D02*
D03*
X2278519Y424640D02*
D03*
X2367519Y682639D02*
D03*
X2274520Y392640D02*
D03*
X2256520Y394541D02*
D03*
X2246520D02*
D03*
X2266520Y385640D02*
D03*
X2276340Y379640D02*
D03*
X2104520Y439764D02*
D03*
X2092520D02*
D03*
X2218520Y433241D02*
D03*
X2316520Y679640D02*
D03*
X2040520Y456640D02*
D03*
X2157520Y616880D02*
D03*
X2040520Y546640D02*
D03*
X2189520Y681640D02*
D03*
X2158520Y668640D02*
D03*
X2177520Y653640D02*
D03*
X2226520Y684640D02*
D03*
X2234520D02*
D03*
X2243520Y544640D02*
D03*
X2299251Y490223D02*
D03*
X2272520Y329640D02*
D03*
X2231520D02*
D03*
X2014520Y547640D02*
D03*
X2029175Y545985D02*
D03*
X2046520Y571640D02*
D03*
X2048520Y550573D02*
D03*
X2045520Y562640D02*
D03*
X2022520Y557673D02*
D03*
X2008520Y555640D02*
D03*
X2140756Y587082D02*
D03*
X2038520Y358640D02*
D03*
X2132520Y401640D02*
D03*
X2121520D02*
D03*
X2160520Y645640D02*
D03*
X2162520Y653640D02*
D03*
X2217520Y678640D02*
D03*
X2191520Y672640D02*
D03*
X2203520Y668640D02*
D03*
X2233520Y606640D02*
D03*
X2223520Y605640D02*
D03*
X2020520Y530640D02*
D03*
X2135320Y574739D02*
D03*
X2226520Y432640D02*
D03*
X2169520Y434054D02*
D03*
X2089520Y404640D02*
D03*
X2099520D02*
D03*
X2114863Y396983D02*
D03*
X2081520Y421640D02*
D03*
X1958520Y550640D02*
D03*
Y543640D02*
D03*
X1965520Y550640D02*
D03*
X2349520Y359640D02*
D03*
X2370520D02*
D03*
X2126520Y446640D02*
D03*
X2113520D02*
D03*
X1908520Y487640D02*
D03*
Y479640D02*
D03*
X1908520Y470640D02*
D03*
X2087520Y371640D02*
D03*
Y340640D02*
D03*
X2075520Y399640D02*
D03*
X2113520Y367640D02*
D03*
X2093520Y325640D02*
D03*
X2103520D02*
D03*
X2125520Y329640D02*
D03*
X2157520Y333640D02*
D03*
Y327640D02*
D03*
X2256945Y269065D02*
D03*
X2166617Y353737D02*
D03*
X2163520Y333640D02*
D03*
Y327640D02*
D03*
X2132520Y329640D02*
D03*
Y322640D02*
D03*
X2125520D02*
D03*
X2301520Y334640D02*
D03*
X2307520D02*
D03*
X2295520D02*
D03*
X2314520Y319640D02*
D03*
X2307520D02*
D03*
X2301520D02*
D03*
X2194519Y486639D02*
D03*
X2198519Y498639D02*
D03*
X2218933Y504552D02*
D03*
X2032520Y519640D02*
D03*
X2031520Y511639D02*
D03*
X2051661Y485499D02*
D03*
X1919520Y612640D02*
D03*
X1928520D02*
D03*
X1937520D02*
D03*
X1962520Y444640D02*
D03*
X2314998Y579640D02*
D03*
X2122520Y305640D02*
D03*
X2124520Y232640D02*
D03*
X2169520Y226640D02*
D03*
X2178520Y373640D02*
D03*
X2314657Y559285D02*
D03*
X2402520D02*
D03*
X2258520Y568640D02*
D03*
X2269520Y565640D02*
D03*
X2252520Y544640D02*
D03*
X2242662Y610640D02*
D03*
X2403519Y701137D02*
D03*
X2208520Y527640D02*
D03*
X2213744Y510640D02*
D03*
X2202520Y516640D02*
D03*
X2032520Y487640D02*
D03*
X2031520Y475640D02*
D03*
X2316520Y357640D02*
D03*
X2215363Y616797D02*
D03*
X2274520Y411640D02*
D03*
X2286520Y219640D02*
D03*
X2309770Y219640D02*
D03*
X2191520Y583640D02*
D03*
X2201050Y591778D02*
D03*
X2260333Y577424D02*
D03*
X2313520Y531640D02*
D03*
X2300520Y512640D02*
D03*
X2307519Y490223D02*
D03*
X2258519Y585639D02*
D03*
X2252519Y591639D02*
D03*
X2246519Y597639D02*
D03*
X2241444Y587564D02*
D03*
X2318099Y657949D02*
D03*
X2219519Y545639D02*
D03*
X2048520Y348640D02*
D03*
X2077520Y327640D02*
D03*
X2369612Y600005D02*
D03*
X2265520Y610791D02*
D03*
X2204520Y387640D02*
D03*
Y379640D02*
D03*
X2189520Y389640D02*
D03*
X2176520Y401640D02*
D03*
X2279520Y355647D02*
D03*
X2348520Y399640D02*
D03*
Y379640D02*
D03*
X2370520D02*
D03*
X2363519Y459640D02*
D03*
X2349520Y519640D02*
D03*
X2350520Y499640D02*
D03*
X2368875Y539285D02*
D03*
X2368520Y519640D02*
D03*
Y499640D02*
D03*
X2370520Y399640D02*
D03*
X2402520Y421165D02*
D03*
X2028520Y661640D02*
D03*
X1968501Y482621D02*
D03*
X1965520Y543640D02*
D03*
X1909193Y560313D02*
D03*
X2248520Y287640D02*
D03*
X2018520Y491640D02*
D03*
X1868520Y631640D02*
D03*
X1922442Y643718D02*
D03*
X1881520Y633640D02*
D03*
X1896520Y641640D02*
D03*
X2250519Y373640D02*
D03*
D136*
X1929520Y483640D02*
D03*
D137*
X1928520Y593640D02*
D03*
D138*
X1900520Y713640D02*
D03*
X1911520D02*
D03*
X1922520D02*
D03*
X1933520D02*
D03*
X1944520D02*
D03*
X2608520D02*
D03*
X2597520D02*
D03*
X2586520D02*
D03*
X2575520D02*
D03*
X2564520D02*
D03*
X3317520D02*
D03*
X3306520D02*
D03*
X3295520D02*
D03*
X3284520D02*
D03*
X3273520D02*
D03*
X1943520Y203640D02*
D03*
X1932520D02*
D03*
X1921520D02*
D03*
X1910520D02*
D03*
X1899520D02*
D03*
X2608520D02*
D03*
X2597520D02*
D03*
X2586520D02*
D03*
X2575520D02*
D03*
X2564520D02*
D03*
X3317520D02*
D03*
X3306520D02*
D03*
X3295520D02*
D03*
X3284520D02*
D03*
X3273520D02*
D03*
D139*
X2596797Y470260D02*
D03*
X2596307Y240340D02*
D03*
D154*
X2986897Y460360D02*
D03*
D155*
X2148520Y495640D02*
D03*
Y535640D02*
D03*
X2097720Y495640D02*
D03*
D156*
Y535640D02*
D03*
D157*
X2266520Y348190D02*
D03*
Y357690D02*
D03*
Y367190D02*
D03*
X2291020D02*
D03*
Y348190D02*
D03*
D158*
X2086520Y255640D02*
D03*
Y272640D02*
D03*
X2096520D02*
D03*
X2141520Y300640D02*
D03*
X2151520Y317640D02*
D03*
X2141520D02*
D03*
D159*
X2096520Y255640D02*
D03*
X2151520Y300640D02*
D03*
D160*
X2099520Y371640D02*
D03*
Y388640D02*
D03*
X2076520Y341640D02*
D03*
Y358640D02*
D03*
D161*
X2202070Y568640D02*
D03*
X2213070D02*
D03*
X2191070D02*
D03*
X2235070D02*
D03*
X2246070D02*
D03*
X2224070D02*
D03*
X2169070D02*
D03*
X2180070D02*
D03*
X2158070D02*
D03*
D162*
X2146320Y573640D02*
D03*
D163*
X2292320D02*
D03*
D164*
X2301320Y669640D02*
D03*
X2146320D02*
D03*
M02*
