G04*
G04 #@! TF.GenerationSoftware,Altium Limited,Altium Designer,20.0.2 (26)*
G04*
G04 Layer_Color=439754*
%FSLAX44Y44*%
%MOMM*%
G71*
G01*
G75*
%ADD10C,0.1000*%
%ADD11C,0.2500*%
%ADD12C,0.2540*%
%ADD13C,0.2000*%
%ADD14C,0.6000*%
%ADD15C,0.1500*%
%ADD16C,0.1270*%
D10*
X1973020Y505800D02*
G03*
X1973020Y505800I-500J0D01*
G01*
D11*
X3069320Y570680D02*
G03*
X3069320Y570680I-1250J0D01*
G01*
X2122770Y384640D02*
G03*
X2122770Y384640I-1250J0D01*
G01*
X2052770Y340640D02*
G03*
X2052770Y340640I-1250J0D01*
G01*
X3241465Y424480D02*
G03*
X3241465Y424480I-1250J0D01*
G01*
X3137770Y389640D02*
G03*
X3137770Y389640I-1250J0D01*
G01*
X3048270Y671840D02*
G03*
X3048270Y671840I-1250J0D01*
G01*
X3047900Y411340D02*
G03*
X3047900Y411340I-1250J0D01*
G01*
X3120230Y308440D02*
G03*
X3120230Y308440I-1250J0D01*
G01*
X3081980Y315700D02*
G03*
X3081980Y315700I-1250J0D01*
G01*
X2061270Y323940D02*
G03*
X2061270Y323940I-1250J0D01*
G01*
X2084770Y418890D02*
G03*
X2084770Y418890I-1250J0D01*
G01*
X3011797Y455260D02*
Y665260D01*
X2581797Y455260D02*
X3011797D01*
X2581797D02*
Y665260D01*
X2581307Y225340D02*
Y435340D01*
Y225340D02*
X3011307D01*
Y435340D01*
D12*
X2444929Y502720D02*
G03*
X2444929Y502720I-559J0D01*
G01*
X2426079Y511890D02*
G03*
X2426079Y511890I-559J0D01*
G01*
X2530829Y677210D02*
G03*
X2530829Y677210I-559J0D01*
G01*
X2542719Y436680D02*
G03*
X2542719Y436680I-559J0D01*
G01*
X2581797Y665260D02*
X3011797D01*
X2581307Y435340D02*
X3011307D01*
X1995230Y563830D02*
Y567640D01*
X1991420D02*
X1995230Y571450D01*
X1991420Y567640D02*
X1995230Y563830D01*
Y567640D02*
Y571450D01*
X1990150Y563830D02*
Y571450D01*
X1992656Y567584D02*
X1995196D01*
X1995550Y581830D02*
Y585640D01*
X1991740D02*
X1995550Y589450D01*
X1991740Y585640D02*
X1995550Y581830D01*
Y585640D02*
Y589450D01*
X1990470Y581830D02*
Y589450D01*
X1992976Y585584D02*
X1995516D01*
X1995550Y599830D02*
Y603640D01*
X1991740D02*
X1995550Y607450D01*
X1991740Y603640D02*
X1995550Y599830D01*
Y603640D02*
Y607450D01*
X1990470Y599830D02*
Y607450D01*
X1992976Y603584D02*
X1995516D01*
X1944820Y599770D02*
X1970220D01*
X1886820Y588340D02*
X1912220D01*
X1873520Y394640D02*
Y555640D01*
X1955520D01*
X1964520Y546640D02*
Y555640D01*
X1955520D02*
X1964520D01*
X1873520Y394640D02*
X1956200D01*
X1964520Y402960D02*
Y546640D01*
X1956200Y394640D02*
X1964520Y402960D01*
X1976820Y448770D02*
X2002220D01*
X2175820Y254770D02*
X2201220D01*
D13*
X3249125Y425750D02*
G03*
X3249125Y418130I0J-3810D01*
G01*
X3075353Y671304D02*
G03*
X3082687Y671304I3667J0D01*
G01*
X3047186Y439673D02*
G03*
X3047186Y447007I0J3667D01*
G01*
X1975520Y479890D02*
X2003520D01*
X1975520Y511390D02*
X2003520D01*
X1940520Y562940D02*
Y576910D01*
X1974520Y562940D02*
Y576910D01*
X1940520Y562940D02*
X1974520D01*
Y611200D02*
Y625170D01*
X1940520Y611200D02*
Y625170D01*
X1974520D01*
X1916520Y611200D02*
Y625170D01*
X1882520Y611200D02*
Y625170D01*
X1916520D01*
X1882520Y562940D02*
Y576910D01*
X1916520Y562940D02*
Y576910D01*
X1882520Y562940D02*
X1916520D01*
X1972520Y411940D02*
Y425910D01*
X2006520Y411940D02*
Y425910D01*
X1972520Y411940D02*
X2006520D01*
Y460200D02*
Y474170D01*
X1972520Y460200D02*
Y474170D01*
X2006520D01*
X2089020Y351140D02*
Y374140D01*
X2120020Y351140D02*
Y374140D01*
X2089020Y351140D02*
X2120020D01*
X2089020Y374140D02*
X2120020D01*
X2084020Y351140D02*
Y374140D01*
X2053020Y351140D02*
Y374140D01*
X2084020D01*
X2053020Y351140D02*
X2084020D01*
X2171520Y217940D02*
Y231910D01*
X2205520Y217940D02*
Y231910D01*
X2171520Y217940D02*
X2205520D01*
Y266200D02*
Y280170D01*
X2171520Y266200D02*
Y280170D01*
X2205520D01*
X2430370Y479470D02*
Y497470D01*
X2444370Y479470D02*
Y497470D01*
X2411520Y488640D02*
Y506640D01*
X2425520Y488640D02*
Y506640D01*
X3219915Y401620D02*
X3249125D01*
X3219915Y442260D02*
X3249125D01*
X3219915Y401620D02*
Y442260D01*
X3249125Y401620D02*
Y418130D01*
Y425750D02*
Y442260D01*
X3170020Y618640D02*
Y642640D01*
X3138360Y646640D02*
X3166520D01*
X3134520Y618640D02*
X3170020D01*
X3134520D02*
Y642640D01*
X3135020Y703640D02*
X3170520D01*
Y679640D02*
Y703640D01*
X3135020Y679640D02*
Y703640D01*
X3169020Y400140D02*
Y423140D01*
X3138020Y400140D02*
Y423140D01*
X3169020D01*
X3138020Y400140D02*
X3169020D01*
X3058020Y671304D02*
X3075353D01*
X3082687D02*
X3100020D01*
Y619340D02*
Y671304D01*
X3058020Y619340D02*
X3099665D01*
X3058020D02*
Y671304D01*
X3176810Y663300D02*
X3291110D01*
X3176810Y574400D02*
X3291110D01*
Y663300D01*
X3176810Y574400D02*
Y663300D01*
X2530270Y653960D02*
Y671960D01*
X2516270Y653960D02*
Y671960D01*
X2542160Y413430D02*
Y431430D01*
X2528160Y413430D02*
Y431430D01*
X3047186Y422340D02*
X3099150D01*
Y463985D01*
X3047186Y464340D02*
X3099150D01*
X3047186Y447007D02*
Y464340D01*
Y422340D02*
Y439673D01*
X3139980Y306690D02*
Y322940D01*
X3113980Y306690D02*
Y322940D01*
X3118480D01*
X3135480D02*
X3139980D01*
X3078980Y294700D02*
X3095230D01*
X3078980Y320700D02*
X3095230D01*
Y316200D02*
Y320700D01*
Y294700D02*
Y299200D01*
X2075520Y218490D02*
X2136020D01*
X2075520Y323490D02*
X2136020D01*
Y218490D02*
Y323490D01*
X2075520Y218490D02*
Y323490D01*
X2273770Y429640D02*
Y620640D01*
X2082770Y429640D02*
Y620640D01*
X2273770D01*
X2082770Y429640D02*
X2273770D01*
X2592184Y680721D02*
X2590518Y682387D01*
X2587186D01*
X2585520Y680721D01*
Y674056D01*
X2587186Y672390D01*
X2590518D01*
X2592184Y674056D01*
Y677388D01*
X2588852D01*
X2600515Y672390D02*
Y682387D01*
X2595517Y677388D01*
X2602181D01*
X2589934Y447971D02*
X2588268Y449637D01*
X2584936D01*
X2583270Y447971D01*
Y441306D01*
X2584936Y439640D01*
X2588268D01*
X2589934Y441306D01*
Y444638D01*
X2586602D01*
X2593267Y447971D02*
X2594933Y449637D01*
X2598265D01*
X2599931Y447971D01*
Y446305D01*
X2598265Y444638D01*
X2596599D01*
X2598265D01*
X2599931Y442972D01*
Y441306D01*
X2598265Y439640D01*
X2594933D01*
X2593267Y441306D01*
X3119689Y654555D02*
X3118023Y652888D01*
Y649556D01*
X3119689Y647890D01*
X3126354D01*
X3128020Y649556D01*
Y652888D01*
X3126354Y654555D01*
X3128020Y662885D02*
X3118023D01*
X3123022Y657887D01*
Y664551D01*
X3118023Y667884D02*
Y674548D01*
X3119689D01*
X3126354Y667884D01*
X3128020D01*
X2493520Y455637D02*
Y445640D01*
X2500184D01*
X2503517Y455637D02*
X2510181D01*
Y453971D01*
X2503517Y447306D01*
Y445640D01*
X3142520Y541640D02*
Y551637D01*
X3147518D01*
X3149185Y549971D01*
Y546638D01*
X3147518Y544972D01*
X3142520D01*
X3145852D02*
X3149185Y541640D01*
X3159181Y551637D02*
X3155849Y549971D01*
X3152517Y546638D01*
Y543306D01*
X3154183Y541640D01*
X3157515D01*
X3159181Y543306D01*
Y544972D01*
X3157515Y546638D01*
X3152517D01*
X3162514Y541640D02*
X3165846D01*
X3164180D01*
Y551637D01*
X3162514Y549971D01*
X3142520Y467640D02*
Y477637D01*
X3147518D01*
X3149185Y475971D01*
Y472638D01*
X3147518Y470972D01*
X3142520D01*
X3145852D02*
X3149185Y467640D01*
X3159181Y477637D02*
X3155849Y475971D01*
X3152517Y472638D01*
Y469306D01*
X3154183Y467640D01*
X3157515D01*
X3159181Y469306D01*
Y470972D01*
X3157515Y472638D01*
X3152517D01*
X3162514Y475971D02*
X3164180Y477637D01*
X3167512D01*
X3169178Y475971D01*
Y469306D01*
X3167512Y467640D01*
X3164180D01*
X3162514Y469306D01*
Y475971D01*
X2535523Y650640D02*
X2542188D01*
X2545520Y653972D01*
X2542188Y657305D01*
X2535523D01*
Y660637D02*
X2545520D01*
Y665635D01*
X2543854Y667301D01*
X2537189D01*
X2535523Y665635D01*
Y660637D01*
X2545520Y677298D02*
Y670634D01*
X2538855Y677298D01*
X2537189D01*
X2535523Y675632D01*
Y672300D01*
X2537189Y670634D01*
X2548523Y413640D02*
X2555188D01*
X2558520Y416972D01*
X2555188Y420304D01*
X2548523D01*
Y423637D02*
X2558520D01*
Y428635D01*
X2556854Y430301D01*
X2550189D01*
X2548523Y428635D01*
Y423637D01*
X2558520Y433633D02*
Y436966D01*
Y435300D01*
X2548523D01*
X2550189Y433633D01*
X2431523Y442640D02*
X2438188D01*
X2441520Y445972D01*
X2438188Y449305D01*
X2431523D01*
Y452637D02*
X2441520D01*
Y457635D01*
X2439854Y459301D01*
X2433189D01*
X2431523Y457635D01*
Y452637D01*
X2441520Y467632D02*
X2431523D01*
X2436522Y462634D01*
Y469298D01*
X2411523Y442640D02*
X2418188D01*
X2421520Y445972D01*
X2418188Y449305D01*
X2411523D01*
Y452637D02*
X2421520D01*
Y457635D01*
X2419854Y459301D01*
X2413189D01*
X2411523Y457635D01*
Y452637D01*
X2413189Y462634D02*
X2411523Y464300D01*
Y467632D01*
X2413189Y469298D01*
X2414855D01*
X2416522Y467632D01*
Y465966D01*
Y467632D01*
X2418188Y469298D01*
X2419854D01*
X2421520Y467632D01*
Y464300D01*
X2419854Y462634D01*
X3049520Y533637D02*
Y525306D01*
X3051186Y523640D01*
X3054518D01*
X3056184Y525306D01*
Y533637D01*
X3059517Y531971D02*
X3061183Y533637D01*
X3064515D01*
X3066181Y531971D01*
Y530304D01*
X3064515Y528638D01*
X3066181Y526972D01*
Y525306D01*
X3064515Y523640D01*
X3061183D01*
X3059517Y525306D01*
Y526972D01*
X3061183Y528638D01*
X3059517Y530304D01*
Y531971D01*
X3061183Y528638D02*
X3064515D01*
X3197520Y440637D02*
Y432306D01*
X3199186Y430640D01*
X3202518D01*
X3204185Y432306D01*
Y440637D01*
X3207517D02*
X3214181D01*
Y438971D01*
X3207517Y432306D01*
Y430640D01*
X3143520Y416637D02*
Y408306D01*
X3145186Y406640D01*
X3148518D01*
X3150185Y408306D01*
Y416637D01*
X3160181D02*
X3156849Y414971D01*
X3153517Y411638D01*
Y408306D01*
X3155183Y406640D01*
X3158515D01*
X3160181Y408306D01*
Y409972D01*
X3158515Y411638D01*
X3153517D01*
X3066542Y339689D02*
X3073206D01*
X3069874D01*
Y329692D01*
X3083203Y339689D02*
X3076539D01*
Y334690D01*
X3079871Y336357D01*
X3081537D01*
X3083203Y334690D01*
Y331358D01*
X3081537Y329692D01*
X3078205D01*
X3076539Y331358D01*
X3114040Y345785D02*
X3120705D01*
X3117372D01*
Y335788D01*
X3129035D02*
Y345785D01*
X3124037Y340786D01*
X3130701D01*
X3065520Y691637D02*
X3072184D01*
X3068852D01*
Y681640D01*
X3075517Y689971D02*
X3077183Y691637D01*
X3080515D01*
X3082181Y689971D01*
Y688305D01*
X3080515Y686638D01*
X3078849D01*
X3080515D01*
X3082181Y684972D01*
Y683306D01*
X3080515Y681640D01*
X3077183D01*
X3075517Y683306D01*
X3178270Y701887D02*
X3184934D01*
X3181602D01*
Y691890D01*
X3194931D02*
X3188267D01*
X3194931Y698555D01*
Y700221D01*
X3193265Y701887D01*
X3189933D01*
X3188267Y700221D01*
X3046222Y502249D02*
X3052886D01*
X3049554D01*
Y492252D01*
X3056219D02*
X3059551D01*
X3057885D01*
Y502249D01*
X3056219Y500583D01*
X3067050Y370840D02*
Y380837D01*
X3072048D01*
X3073715Y379171D01*
Y375838D01*
X3072048Y374172D01*
X3067050D01*
X3070382D02*
X3073715Y370840D01*
X3077047Y380837D02*
X3083711D01*
Y379171D01*
X3077047Y372506D01*
Y370840D01*
X3087043Y380837D02*
X3093708D01*
Y379171D01*
X3087043Y372506D01*
Y370840D01*
X3067050Y352298D02*
Y362295D01*
X3072048D01*
X3073715Y360629D01*
Y357296D01*
X3072048Y355630D01*
X3067050D01*
X3070382D02*
X3073715Y352298D01*
X3077047Y362295D02*
X3083711D01*
Y360629D01*
X3077047Y353964D01*
Y352298D01*
X3093708Y362295D02*
X3090376Y360629D01*
X3087043Y357296D01*
Y353964D01*
X3088710Y352298D01*
X3092042D01*
X3093708Y353964D01*
Y355630D01*
X3092042Y357296D01*
X3087043D01*
X3096520Y537640D02*
Y547637D01*
X3101518D01*
X3103185Y545971D01*
Y542638D01*
X3101518Y540972D01*
X3096520D01*
X3099852D02*
X3103185Y537640D01*
X3106517Y547637D02*
X3113181D01*
Y545971D01*
X3106517Y539306D01*
Y537640D01*
X3123178Y547637D02*
X3116514D01*
Y542638D01*
X3119846Y544305D01*
X3121512D01*
X3123178Y542638D01*
Y539306D01*
X3121512Y537640D01*
X3118180D01*
X3116514Y539306D01*
X3085520Y486640D02*
Y496637D01*
X3090518D01*
X3092184Y494971D01*
Y491638D01*
X3090518Y489972D01*
X3085520D01*
X3088852D02*
X3092184Y486640D01*
X3095517Y496637D02*
X3102181D01*
Y494971D01*
X3095517Y488306D01*
Y486640D01*
X3110512D02*
Y496637D01*
X3105514Y491638D01*
X3112178D01*
X3028520Y544640D02*
X3018523D01*
Y549638D01*
X3020190Y551305D01*
X3023522D01*
X3025188Y549638D01*
Y544640D01*
Y547972D02*
X3028520Y551305D01*
X3018523Y554637D02*
Y561301D01*
X3020190D01*
X3026854Y554637D01*
X3028520D01*
X3020190Y564633D02*
X3018523Y566300D01*
Y569632D01*
X3020190Y571298D01*
X3021855D01*
X3023522Y569632D01*
Y567966D01*
Y569632D01*
X3025188Y571298D01*
X3026854D01*
X3028520Y569632D01*
Y566300D01*
X3026854Y564633D01*
X3099520Y586640D02*
X3089523D01*
Y591638D01*
X3091189Y593304D01*
X3094521D01*
X3096188Y591638D01*
Y586640D01*
Y589972D02*
X3099520Y593304D01*
X3089523Y596637D02*
Y603301D01*
X3091189D01*
X3097854Y596637D01*
X3099520D01*
Y613298D02*
Y606634D01*
X3092856Y613298D01*
X3091189D01*
X3089523Y611632D01*
Y608300D01*
X3091189Y606634D01*
X2454520Y496640D02*
Y506637D01*
X2459518D01*
X2461185Y504971D01*
Y501638D01*
X2459518Y499972D01*
X2454520D01*
X2457852D02*
X2461185Y496640D01*
X2464517Y506637D02*
X2471181D01*
Y504971D01*
X2464517Y498306D01*
Y496640D01*
X2474514D02*
X2477846D01*
X2476180D01*
Y506637D01*
X2474514Y504971D01*
X2483520Y496640D02*
Y506637D01*
X2488518D01*
X2490184Y504971D01*
Y501638D01*
X2488518Y499972D01*
X2483520D01*
X2486852D02*
X2490184Y496640D01*
X2493517Y506637D02*
X2500181D01*
Y504971D01*
X2493517Y498306D01*
Y496640D01*
X2503514Y504971D02*
X2505180Y506637D01*
X2508512D01*
X2510178Y504971D01*
Y498306D01*
X2508512Y496640D01*
X2505180D01*
X2503514Y498306D01*
Y504971D01*
X2483520Y651640D02*
Y661637D01*
X2488518D01*
X2490184Y659971D01*
Y656638D01*
X2488518Y654972D01*
X2483520D01*
X2486852D02*
X2490184Y651640D01*
X2500181Y661637D02*
X2496849Y659971D01*
X2493517Y656638D01*
Y653306D01*
X2495183Y651640D01*
X2498515D01*
X2500181Y653306D01*
Y654972D01*
X2498515Y656638D01*
X2493517D01*
X2503514Y653306D02*
X2505180Y651640D01*
X2508512D01*
X2510178Y653306D01*
Y659971D01*
X2508512Y661637D01*
X2505180D01*
X2503514Y659971D01*
Y658305D01*
X2505180Y656638D01*
X2510178D01*
X2435520Y652640D02*
X2425523D01*
Y657638D01*
X2427189Y659305D01*
X2430522D01*
X2432188Y657638D01*
Y652640D01*
Y655972D02*
X2435520Y659305D01*
X2425523Y669301D02*
X2427189Y665969D01*
X2430522Y662637D01*
X2433854D01*
X2435520Y664303D01*
Y667635D01*
X2433854Y669301D01*
X2432188D01*
X2430522Y667635D01*
Y662637D01*
X2427189Y672634D02*
X2425523Y674300D01*
Y677632D01*
X2427189Y679298D01*
X2428855D01*
X2430522Y677632D01*
X2432188Y679298D01*
X2433854D01*
X2435520Y677632D01*
Y674300D01*
X2433854Y672634D01*
X2432188D01*
X2430522Y674300D01*
X2428855Y672634D01*
X2427189D01*
X2430522Y674300D02*
Y677632D01*
X3028520Y436640D02*
X3018523D01*
Y441638D01*
X3020190Y443304D01*
X3023522D01*
X3025188Y441638D01*
Y436640D01*
Y439972D02*
X3028520Y443304D01*
X3018523Y453301D02*
X3020190Y449969D01*
X3023522Y446637D01*
X3026854D01*
X3028520Y448303D01*
Y451635D01*
X3026854Y453301D01*
X3025188D01*
X3023522Y451635D01*
Y446637D01*
X3018523Y456634D02*
Y463298D01*
X3020190D01*
X3026854Y456634D01*
X3028520D01*
X3042520Y586640D02*
X3032523D01*
Y591638D01*
X3034189Y593304D01*
X3037522D01*
X3039188Y591638D01*
Y586640D01*
Y589972D02*
X3042520Y593304D01*
X3032523Y603301D02*
X3034189Y599969D01*
X3037522Y596637D01*
X3040854D01*
X3042520Y598303D01*
Y601635D01*
X3040854Y603301D01*
X3039188D01*
X3037522Y601635D01*
Y596637D01*
X3032523Y613298D02*
X3034189Y609966D01*
X3037522Y606634D01*
X3040854D01*
X3042520Y608300D01*
Y611632D01*
X3040854Y613298D01*
X3039188D01*
X3037522Y611632D01*
Y606634D01*
X2452624Y549148D02*
Y559145D01*
X2457622D01*
X2459288Y557479D01*
Y554146D01*
X2457622Y552480D01*
X2452624D01*
X2455956D02*
X2459288Y549148D01*
X2469285Y559145D02*
X2465953Y557479D01*
X2462621Y554146D01*
Y550814D01*
X2464287Y549148D01*
X2467619D01*
X2469285Y550814D01*
Y552480D01*
X2467619Y554146D01*
X2462621D01*
X2479282Y559145D02*
X2472618D01*
Y554146D01*
X2475950Y555812D01*
X2477616D01*
X2479282Y554146D01*
Y550814D01*
X2477616Y549148D01*
X2474284D01*
X2472618Y550814D01*
X2501520Y515640D02*
X2491523D01*
Y520638D01*
X2493189Y522304D01*
X2496522D01*
X2498188Y520638D01*
Y515640D01*
Y518972D02*
X2501520Y522304D01*
X2491523Y532301D02*
X2493189Y528969D01*
X2496522Y525637D01*
X2499854D01*
X2501520Y527303D01*
Y530635D01*
X2499854Y532301D01*
X2498188D01*
X2496522Y530635D01*
Y525637D01*
X2501520Y540632D02*
X2491523D01*
X2496522Y535634D01*
Y542298D01*
X2493520Y408640D02*
Y418637D01*
X2498518D01*
X2500184Y416971D01*
Y413638D01*
X2498518Y411972D01*
X2493520D01*
X2496852D02*
X2500184Y408640D01*
X2510181Y418637D02*
X2506849Y416971D01*
X2503517Y413638D01*
Y410306D01*
X2505183Y408640D01*
X2508515D01*
X2510181Y410306D01*
Y411972D01*
X2508515Y413638D01*
X2503517D01*
X2513514Y416971D02*
X2515180Y418637D01*
X2518512D01*
X2520178Y416971D01*
Y415304D01*
X2518512Y413638D01*
X2516846D01*
X2518512D01*
X2520178Y411972D01*
Y410306D01*
X2518512Y408640D01*
X2515180D01*
X2513514Y410306D01*
X2463520Y375640D02*
X2453523D01*
Y380638D01*
X2455189Y382304D01*
X2458522D01*
X2460188Y380638D01*
Y375640D01*
Y378972D02*
X2463520Y382304D01*
X2453523Y392301D02*
X2455189Y388969D01*
X2458522Y385637D01*
X2461854D01*
X2463520Y387303D01*
Y390635D01*
X2461854Y392301D01*
X2460188D01*
X2458522Y390635D01*
Y385637D01*
X2463520Y402298D02*
Y395634D01*
X2456855Y402298D01*
X2455189D01*
X2453523Y400632D01*
Y397300D01*
X2455189Y395634D01*
X3188740Y496640D02*
X3178743D01*
Y501638D01*
X3180410Y503304D01*
X3183741D01*
X3185408Y501638D01*
Y496640D01*
Y499972D02*
X3188740Y503304D01*
X3178743Y513301D02*
Y506637D01*
X3183741D01*
X3182076Y509969D01*
Y511635D01*
X3183741Y513301D01*
X3187074D01*
X3188740Y511635D01*
Y508303D01*
X3187074Y506637D01*
Y516634D02*
X3188740Y518300D01*
Y521632D01*
X3187074Y523298D01*
X3180410D01*
X3178743Y521632D01*
Y518300D01*
X3180410Y516634D01*
X3182076D01*
X3183741Y518300D01*
Y523298D01*
X2466189Y625304D02*
X2464523Y623638D01*
Y620306D01*
X2466189Y618640D01*
X2472854D01*
X2474520Y620306D01*
Y623638D01*
X2472854Y625304D01*
X2474520Y633635D02*
X2464523D01*
X2469522Y628637D01*
Y635301D01*
X2472854Y638633D02*
X2474520Y640300D01*
Y643632D01*
X2472854Y645298D01*
X2466189D01*
X2464523Y643632D01*
Y640300D01*
X2466189Y638633D01*
X2467856D01*
X2469522Y640300D01*
Y645298D01*
X2476189Y381305D02*
X2474523Y379638D01*
Y376306D01*
X2476189Y374640D01*
X2482854D01*
X2484520Y376306D01*
Y379638D01*
X2482854Y381305D01*
X2484520Y389635D02*
X2474523D01*
X2479522Y384637D01*
Y391301D01*
X2476189Y394634D02*
X2474523Y396300D01*
Y399632D01*
X2476189Y401298D01*
X2477856D01*
X2479522Y399632D01*
X2481188Y401298D01*
X2482854D01*
X2484520Y399632D01*
Y396300D01*
X2482854Y394634D01*
X2481188D01*
X2479522Y396300D01*
X2477856Y394634D01*
X2476189D01*
X2479522Y396300D02*
Y399632D01*
X2210189Y350304D02*
X2208523Y348638D01*
Y345306D01*
X2210189Y343640D01*
X2216854D01*
X2218520Y345306D01*
Y348638D01*
X2216854Y350304D01*
X2218520Y360301D02*
Y353637D01*
X2211855Y360301D01*
X2210189D01*
X2208523Y358635D01*
Y355303D01*
X2210189Y353637D01*
X2208523Y363634D02*
Y370298D01*
X2210189D01*
X2216854Y363634D01*
X2218520D01*
X2017520Y557637D02*
Y547640D01*
X2022518D01*
X2024185Y549306D01*
Y555971D01*
X2022518Y557637D01*
X2017520D01*
X2027517Y547640D02*
X2030849D01*
X2029183D01*
Y557637D01*
X2027517Y555971D01*
X1977520Y557637D02*
Y547640D01*
X1982518D01*
X1984185Y549306D01*
Y555971D01*
X1982518Y557637D01*
X1977520D01*
X1994181Y547640D02*
X1987517D01*
X1994181Y554305D01*
Y555971D01*
X1992515Y557637D01*
X1989183D01*
X1987517Y555971D01*
X1997520Y557637D02*
Y547640D01*
X2002518D01*
X2004185Y549306D01*
Y555971D01*
X2002518Y557637D01*
X1997520D01*
X2007517Y555971D02*
X2009183Y557637D01*
X2012515D01*
X2014181Y555971D01*
Y554305D01*
X2012515Y552638D01*
X2010849D01*
X2012515D01*
X2014181Y550972D01*
Y549306D01*
X2012515Y547640D01*
X2009183D01*
X2007517Y549306D01*
X2044520Y564640D02*
Y571638D01*
X2048019D01*
X2049185Y570471D01*
Y568139D01*
X2048019Y566973D01*
X2044520D01*
X2046853D02*
X2049185Y564640D01*
X2056183D02*
X2051518D01*
X2056183Y569305D01*
Y570471D01*
X2055017Y571638D01*
X2052684D01*
X2051518Y570471D01*
X2058515Y571638D02*
X2063181D01*
Y570471D01*
X2058515Y565806D01*
Y564640D01*
X2044520Y600640D02*
Y607638D01*
X2048019D01*
X2049185Y606471D01*
Y604139D01*
X2048019Y602973D01*
X2044520D01*
X2046853D02*
X2049185Y600640D01*
X2051518Y606471D02*
X2052684Y607638D01*
X2055017D01*
X2056183Y606471D01*
Y605305D01*
X2055017Y604139D01*
X2053850D01*
X2055017D01*
X2056183Y602973D01*
Y601806D01*
X2055017Y600640D01*
X2052684D01*
X2051518Y601806D01*
X2058515Y606471D02*
X2059682Y607638D01*
X2062014D01*
X2063181Y606471D01*
Y601806D01*
X2062014Y600640D01*
X2059682D01*
X2058515Y601806D01*
Y606471D01*
X2044520Y582640D02*
Y589638D01*
X2048019D01*
X2049185Y588471D01*
Y586139D01*
X2048019Y584973D01*
X2044520D01*
X2046853D02*
X2049185Y582640D01*
X2051518Y588471D02*
X2052684Y589638D01*
X2055017D01*
X2056183Y588471D01*
Y587305D01*
X2055017Y586139D01*
X2053850D01*
X2055017D01*
X2056183Y584973D01*
Y583806D01*
X2055017Y582640D01*
X2052684D01*
X2051518Y583806D01*
X2058515Y588471D02*
X2059682Y589638D01*
X2062014D01*
X2063181Y588471D01*
Y587305D01*
X2062014Y586139D01*
X2060848D01*
X2062014D01*
X2063181Y584973D01*
Y583806D01*
X2062014Y582640D01*
X2059682D01*
X2058515Y583806D01*
X2094520Y662640D02*
Y672637D01*
X2099518D01*
X2101185Y670971D01*
Y667638D01*
X2099518Y665972D01*
X2094520D01*
X2097852D02*
X2101185Y662640D01*
X2109515D02*
Y672637D01*
X2104517Y667638D01*
X2111181D01*
X2114514Y670971D02*
X2116180Y672637D01*
X2119512D01*
X2121178Y670971D01*
Y664306D01*
X2119512Y662640D01*
X2116180D01*
X2114514Y664306D01*
Y670971D01*
X2094520Y648640D02*
Y658637D01*
X2099518D01*
X2101185Y656971D01*
Y653638D01*
X2099518Y651972D01*
X2094520D01*
X2097852D02*
X2101185Y648640D01*
X2109515D02*
Y658637D01*
X2104517Y653638D01*
X2111181D01*
X2114514Y648640D02*
X2117846D01*
X2116180D01*
Y658637D01*
X2114514Y656971D01*
X2174520Y313640D02*
Y323637D01*
X2179518D01*
X2181185Y321971D01*
Y318638D01*
X2179518Y316972D01*
X2174520D01*
X2177852D02*
X2181185Y313640D01*
X2189515D02*
Y323637D01*
X2184517Y318638D01*
X2191181D01*
X2199512Y313640D02*
Y323637D01*
X2194514Y318638D01*
X2201178D01*
X2097520Y367637D02*
Y359306D01*
X2099186Y357640D01*
X2102518D01*
X2104185Y359306D01*
Y367637D01*
X2107517Y357640D02*
X2110849D01*
X2109183D01*
Y367637D01*
X2107517Y365971D01*
X2060520Y367637D02*
Y359306D01*
X2062186Y357640D01*
X2065518D01*
X2067184Y359306D01*
Y367637D01*
X2070517Y365971D02*
X2072183Y367637D01*
X2075515D01*
X2077181Y365971D01*
Y364305D01*
X2075515Y362638D01*
X2073849D01*
X2075515D01*
X2077181Y360972D01*
Y359306D01*
X2075515Y357640D01*
X2072183D01*
X2070517Y359306D01*
X2132017Y319490D02*
X2123686D01*
X2122020Y317824D01*
Y314492D01*
X2123686Y312826D01*
X2132017D01*
Y302829D02*
Y309493D01*
X2127018D01*
X2128685Y306161D01*
Y304495D01*
X2127018Y302829D01*
X2123686D01*
X2122020Y304495D01*
Y307827D01*
X2123686Y309493D01*
X3217672Y384139D02*
X3224337Y374142D01*
Y384139D02*
X3217672Y374142D01*
X3227669D02*
X3231001D01*
X3229335D01*
Y384139D01*
X3227669Y382473D01*
X3235999Y374142D02*
X3239332D01*
X3237666D01*
Y384139D01*
X3235999Y382473D01*
X2094520Y676640D02*
Y686637D01*
X2099518D01*
X2101185Y684971D01*
Y681638D01*
X2099518Y679972D01*
X2094520D01*
X2097852D02*
X2101185Y676640D01*
X2111181D02*
X2104517D01*
X2111181Y683305D01*
Y684971D01*
X2109515Y686637D01*
X2106183D01*
X2104517Y684971D01*
X2114514Y676640D02*
X2117846D01*
X2116180D01*
Y686637D01*
X2114514Y684971D01*
X2094520Y689640D02*
Y699637D01*
X2099518D01*
X2101185Y697971D01*
Y694638D01*
X2099518Y692972D01*
X2094520D01*
X2097852D02*
X2101185Y689640D01*
X2111181D02*
X2104517D01*
X2111181Y696304D01*
Y697971D01*
X2109515Y699637D01*
X2106183D01*
X2104517Y697971D01*
X2114514D02*
X2116180Y699637D01*
X2119512D01*
X2121178Y697971D01*
Y696304D01*
X2119512Y694638D01*
X2117846D01*
X2119512D01*
X2121178Y692972D01*
Y691306D01*
X2119512Y689640D01*
X2116180D01*
X2114514Y691306D01*
X2290520Y617640D02*
Y627637D01*
X2295518D01*
X2297184Y625971D01*
Y622638D01*
X2295518Y620972D01*
X2290520D01*
X2293852D02*
X2297184Y617640D01*
X2307181D02*
X2300517D01*
X2307181Y624305D01*
Y625971D01*
X2305515Y627637D01*
X2302183D01*
X2300517Y625971D01*
X2315512Y617640D02*
Y627637D01*
X2310514Y622638D01*
X2317178D01*
X2278520Y665640D02*
Y675637D01*
X2283518D01*
X2285184Y673971D01*
Y670638D01*
X2283518Y668972D01*
X2278520D01*
X2281852D02*
X2285184Y665640D01*
X2295181D02*
X2288517D01*
X2295181Y672305D01*
Y673971D01*
X2293515Y675637D01*
X2290183D01*
X2288517Y673971D01*
X2305178Y675637D02*
X2298514D01*
Y670638D01*
X2301846Y672305D01*
X2303512D01*
X2305178Y670638D01*
Y667306D01*
X2303512Y665640D01*
X2300180D01*
X2298514Y667306D01*
X2244520Y692640D02*
Y702637D01*
X2249518D01*
X2251185Y700971D01*
Y697638D01*
X2249518Y695972D01*
X2244520D01*
X2247852D02*
X2251185Y692640D01*
X2261181D02*
X2254517D01*
X2261181Y699305D01*
Y700971D01*
X2259515Y702637D01*
X2256183D01*
X2254517Y700971D01*
X2271178Y702637D02*
X2267846Y700971D01*
X2264514Y697638D01*
Y694306D01*
X2266180Y692640D01*
X2269512D01*
X2271178Y694306D01*
Y695972D01*
X2269512Y697638D01*
X2264514D01*
X2308189Y537304D02*
X2306523Y535638D01*
Y532306D01*
X2308189Y530640D01*
X2314854D01*
X2316520Y532306D01*
Y535638D01*
X2314854Y537304D01*
X2308189Y540637D02*
X2306523Y542303D01*
Y545635D01*
X2308189Y547301D01*
X2309855D01*
X2311522Y545635D01*
Y543969D01*
Y545635D01*
X2313188Y547301D01*
X2314854D01*
X2316520Y545635D01*
Y542303D01*
X2314854Y540637D01*
X2316520Y550634D02*
Y553966D01*
Y552300D01*
X2306523D01*
X2308189Y550634D01*
X2290184Y405971D02*
X2288518Y407637D01*
X2285186D01*
X2283520Y405971D01*
Y399306D01*
X2285186Y397640D01*
X2288518D01*
X2290184Y399306D01*
X2293517Y405971D02*
X2295183Y407637D01*
X2298515D01*
X2300181Y405971D01*
Y404305D01*
X2298515Y402638D01*
X2296849D01*
X2298515D01*
X2300181Y400972D01*
Y399306D01*
X2298515Y397640D01*
X2295183D01*
X2293517Y399306D01*
X2310178Y407637D02*
X2303514D01*
Y402638D01*
X2306846Y404305D01*
X2308512D01*
X2310178Y402638D01*
Y399306D01*
X2308512Y397640D01*
X2305180D01*
X2303514Y399306D01*
X2207184Y699971D02*
X2205518Y701637D01*
X2202186D01*
X2200520Y699971D01*
Y693306D01*
X2202186Y691640D01*
X2205518D01*
X2207184Y693306D01*
X2210517Y699971D02*
X2212183Y701637D01*
X2215515D01*
X2217181Y699971D01*
Y698305D01*
X2215515Y696638D01*
X2213849D01*
X2215515D01*
X2217181Y694972D01*
Y693306D01*
X2215515Y691640D01*
X2212183D01*
X2210517Y693306D01*
X2220514Y701637D02*
X2227178D01*
Y699971D01*
X2220514Y693306D01*
Y691640D01*
X2257689Y650305D02*
X2256522Y649139D01*
Y646806D01*
X2257689Y645640D01*
X2262354D01*
X2263520Y646806D01*
Y649139D01*
X2262354Y650305D01*
X2257689Y652638D02*
X2256522Y653804D01*
Y656137D01*
X2257689Y657303D01*
X2258855D01*
X2260021Y656137D01*
Y654970D01*
Y656137D01*
X2261187Y657303D01*
X2262354D01*
X2263520Y656137D01*
Y653804D01*
X2262354Y652638D01*
Y659635D02*
X2263520Y660802D01*
Y663134D01*
X2262354Y664301D01*
X2257689D01*
X2256522Y663134D01*
Y660802D01*
X2257689Y659635D01*
X2258855D01*
X2260021Y660802D01*
Y664301D01*
X2068520Y682637D02*
X2075184Y672640D01*
Y682637D02*
X2068520Y672640D01*
X2078517D02*
X2081849D01*
X2080183D01*
Y682637D01*
X2078517Y680971D01*
X2027523Y366640D02*
X2037520Y373304D01*
X2027523D02*
X2037520Y366640D01*
X2027523Y383301D02*
X2029189Y379969D01*
X2032522Y376637D01*
X2035854D01*
X2037520Y378303D01*
Y381635D01*
X2035854Y383301D01*
X2034188D01*
X2032522Y381635D01*
Y376637D01*
X1961523Y367640D02*
X1971520Y374305D01*
X1961523D02*
X1971520Y367640D01*
X1961523Y384301D02*
Y377637D01*
X1966522D01*
X1964855Y380969D01*
Y382635D01*
X1966522Y384301D01*
X1969854D01*
X1971520Y382635D01*
Y379303D01*
X1969854Y377637D01*
X1871520Y644637D02*
X1878185Y634640D01*
Y644637D02*
X1871520Y634640D01*
X1886515D02*
Y644637D01*
X1881517Y639638D01*
X1888181D01*
X2285492Y312492D02*
Y322489D01*
X2290490D01*
X2292157Y320823D01*
Y317490D01*
X2290490Y315824D01*
X2285492D01*
X2288824D02*
X2292157Y312492D01*
X2302153Y322489D02*
X2295489D01*
Y317490D01*
X2298821Y319156D01*
X2300487D01*
X2302153Y317490D01*
Y314158D01*
X2300487Y312492D01*
X2297155D01*
X2295489Y314158D01*
X2305486Y320823D02*
X2307152Y322489D01*
X2310484D01*
X2312150Y320823D01*
Y319156D01*
X2310484Y317490D01*
X2312150Y315824D01*
Y314158D01*
X2310484Y312492D01*
X2307152D01*
X2305486Y314158D01*
Y315824D01*
X2307152Y317490D01*
X2305486Y319156D01*
Y320823D01*
X2307152Y317490D02*
X2310484D01*
X2250440Y312492D02*
Y322489D01*
X2255438D01*
X2257104Y320823D01*
Y317490D01*
X2255438Y315824D01*
X2250440D01*
X2253772D02*
X2257104Y312492D01*
X2267101Y322489D02*
X2260437D01*
Y317490D01*
X2263769Y319156D01*
X2265435D01*
X2267101Y317490D01*
Y314158D01*
X2265435Y312492D01*
X2262103D01*
X2260437Y314158D01*
X2270434Y322489D02*
X2277098D01*
Y320823D01*
X2270434Y314158D01*
Y312492D01*
X2285492Y332558D02*
Y342555D01*
X2290490D01*
X2292157Y340889D01*
Y337556D01*
X2290490Y335890D01*
X2285492D01*
X2288824D02*
X2292157Y332558D01*
X2302153Y342555D02*
X2295489D01*
Y337556D01*
X2298821Y339222D01*
X2300487D01*
X2302153Y337556D01*
Y334224D01*
X2300487Y332558D01*
X2297155D01*
X2295489Y334224D01*
X2312150Y342555D02*
X2308818Y340889D01*
X2305486Y337556D01*
Y334224D01*
X2307152Y332558D01*
X2310484D01*
X2312150Y334224D01*
Y335890D01*
X2310484Y337556D01*
X2305486D01*
X2251456Y332558D02*
Y342555D01*
X2256454D01*
X2258121Y340889D01*
Y337556D01*
X2256454Y335890D01*
X2251456D01*
X2254788D02*
X2258121Y332558D01*
X2268117Y342555D02*
X2261453D01*
Y337556D01*
X2264785Y339222D01*
X2266451D01*
X2268117Y337556D01*
Y334224D01*
X2266451Y332558D01*
X2263119D01*
X2261453Y334224D01*
X2278114Y342555D02*
X2271450D01*
Y337556D01*
X2274782Y339222D01*
X2276448D01*
X2278114Y337556D01*
Y334224D01*
X2276448Y332558D01*
X2273116D01*
X2271450Y334224D01*
X2285492Y352370D02*
Y362367D01*
X2290490D01*
X2292157Y360701D01*
Y357368D01*
X2290490Y355702D01*
X2285492D01*
X2288824D02*
X2292157Y352370D01*
X2302153Y362367D02*
X2295489D01*
Y357368D01*
X2298821Y359035D01*
X2300487D01*
X2302153Y357368D01*
Y354036D01*
X2300487Y352370D01*
X2297155D01*
X2295489Y354036D01*
X2310484Y352370D02*
Y362367D01*
X2305486Y357368D01*
X2312150D01*
X2250440Y352370D02*
Y362367D01*
X2255438D01*
X2257104Y360701D01*
Y357368D01*
X2255438Y355702D01*
X2250440D01*
X2253772D02*
X2257104Y352370D01*
X2267101Y362367D02*
X2260437D01*
Y357368D01*
X2263769Y359035D01*
X2265435D01*
X2267101Y357368D01*
Y354036D01*
X2265435Y352370D01*
X2262103D01*
X2260437Y354036D01*
X2270434Y360701D02*
X2272100Y362367D01*
X2275432D01*
X2277098Y360701D01*
Y359035D01*
X2275432Y357368D01*
X2273766D01*
X2275432D01*
X2277098Y355702D01*
Y354036D01*
X2275432Y352370D01*
X2272100D01*
X2270434Y354036D01*
X2285492Y372436D02*
Y382433D01*
X2290490D01*
X2292157Y380767D01*
Y377434D01*
X2290490Y375768D01*
X2285492D01*
X2288824D02*
X2292157Y372436D01*
X2302153Y382433D02*
X2295489D01*
Y377434D01*
X2298821Y379100D01*
X2300487D01*
X2302153Y377434D01*
Y374102D01*
X2300487Y372436D01*
X2297155D01*
X2295489Y374102D01*
X2312150Y372436D02*
X2305486D01*
X2312150Y379100D01*
Y380767D01*
X2310484Y382433D01*
X2307152D01*
X2305486Y380767D01*
X2250440Y372436D02*
Y382433D01*
X2255438D01*
X2257104Y380767D01*
Y377434D01*
X2255438Y375768D01*
X2250440D01*
X2253772D02*
X2257104Y372436D01*
X2267101Y382433D02*
X2260437D01*
Y377434D01*
X2263769Y379100D01*
X2265435D01*
X2267101Y377434D01*
Y374102D01*
X2265435Y372436D01*
X2262103D01*
X2260437Y374102D01*
X2270434Y372436D02*
X2273766D01*
X2272100D01*
Y382433D01*
X2270434Y380767D01*
X2046520Y412640D02*
Y422637D01*
X2051518D01*
X2053185Y420971D01*
Y417638D01*
X2051518Y415972D01*
X2046520D01*
X2049852D02*
X2053185Y412640D01*
X2056517D02*
X2059849D01*
X2058183D01*
Y422637D01*
X2056517Y420971D01*
X2071512Y422637D02*
X2064847D01*
Y417638D01*
X2068180Y419305D01*
X2069846D01*
X2071512Y417638D01*
Y414306D01*
X2069846Y412640D01*
X2066514D01*
X2064847Y414306D01*
X2041520Y290640D02*
X2031523D01*
Y295638D01*
X2033189Y297304D01*
X2036522D01*
X2038188Y295638D01*
Y290640D01*
Y293972D02*
X2041520Y297304D01*
Y300637D02*
Y303969D01*
Y302303D01*
X2031523D01*
X2033189Y300637D01*
X2041520Y313966D02*
X2031523D01*
X2036522Y308967D01*
Y315632D01*
X2041520Y497640D02*
X2031523D01*
Y502638D01*
X2033189Y504305D01*
X2036522D01*
X2038188Y502638D01*
Y497640D01*
Y500972D02*
X2041520Y504305D01*
Y507637D02*
Y510969D01*
Y509303D01*
X2031523D01*
X2033189Y507637D01*
Y515967D02*
X2031523Y517634D01*
Y520966D01*
X2033189Y522632D01*
X2034855D01*
X2036522Y520966D01*
Y519300D01*
Y520966D01*
X2038188Y522632D01*
X2039854D01*
X2041520Y520966D01*
Y517634D01*
X2039854Y515967D01*
X2040520Y460640D02*
X2030523D01*
Y465638D01*
X2032189Y467304D01*
X2035522D01*
X2037188Y465638D01*
Y460640D01*
Y463972D02*
X2040520Y467304D01*
Y470637D02*
Y473969D01*
Y472303D01*
X2030523D01*
X2032189Y470637D01*
X2040520Y485632D02*
Y478967D01*
X2033855Y485632D01*
X2032189D01*
X2030523Y483966D01*
Y480634D01*
X2032189Y478967D01*
X1978520Y532640D02*
Y542637D01*
X1983518D01*
X1985184Y540971D01*
Y537638D01*
X1983518Y535972D01*
X1978520D01*
X1981852D02*
X1985184Y532640D01*
X1988517D02*
X1991849D01*
X1990183D01*
Y542637D01*
X1988517Y540971D01*
X1996847D02*
X1998514Y542637D01*
X2001846D01*
X2003512Y540971D01*
Y534306D01*
X2001846Y532640D01*
X1998514D01*
X1996847Y534306D01*
Y540971D01*
X2124456Y355092D02*
Y365089D01*
X2129454D01*
X2131120Y363423D01*
Y360090D01*
X2129454Y358424D01*
X2124456D01*
X2127788D02*
X2131120Y355092D01*
X2134453Y356758D02*
X2136119Y355092D01*
X2139451D01*
X2141117Y356758D01*
Y363423D01*
X2139451Y365089D01*
X2136119D01*
X2134453Y363423D01*
Y361757D01*
X2136119Y360090D01*
X2141117D01*
X1916520Y640637D02*
Y630640D01*
X1923185D01*
X1933181Y640637D02*
X1926517D01*
Y635638D01*
X1929849Y637304D01*
X1931515D01*
X1933181Y635638D01*
Y632306D01*
X1931515Y630640D01*
X1928183D01*
X1926517Y632306D01*
X1952439Y476554D02*
X1950773Y474888D01*
Y471556D01*
X1952439Y469890D01*
X1959104D01*
X1960770Y471556D01*
Y474888D01*
X1959104Y476554D01*
X1955772D01*
Y473222D01*
X1960770Y486551D02*
Y479887D01*
X1954106Y486551D01*
X1952439D01*
X1950773Y484885D01*
Y481553D01*
X1952439Y479887D01*
X1873185Y566971D02*
X1871518Y568637D01*
X1868186D01*
X1866520Y566971D01*
Y560306D01*
X1868186Y558640D01*
X1871518D01*
X1873185Y560306D01*
Y563638D01*
X1869852D01*
X1876517Y558640D02*
X1879849D01*
X1878183D01*
Y568637D01*
X1876517Y566971D01*
X2048189Y229305D02*
X2046523Y227638D01*
Y224306D01*
X2048189Y222640D01*
X2054854D01*
X2056520Y224306D01*
Y227638D01*
X2054854Y229305D01*
X2056520Y237635D02*
X2046523D01*
X2051522Y232637D01*
Y239301D01*
X2048189Y242634D02*
X2046523Y244300D01*
Y247632D01*
X2048189Y249298D01*
X2049855D01*
X2051522Y247632D01*
Y245966D01*
Y247632D01*
X2053188Y249298D01*
X2054854D01*
X2056520Y247632D01*
Y244300D01*
X2054854Y242634D01*
X2231189Y230305D02*
X2229523Y228638D01*
Y225306D01*
X2231189Y223640D01*
X2237854D01*
X2239520Y225306D01*
Y228638D01*
X2237854Y230305D01*
X2239520Y238635D02*
X2229523D01*
X2234522Y233637D01*
Y240301D01*
X2239520Y243633D02*
Y246966D01*
Y245300D01*
X2229523D01*
X2231189Y243633D01*
X2182184Y292971D02*
X2180518Y294637D01*
X2177186D01*
X2175520Y292971D01*
Y286306D01*
X2177186Y284640D01*
X2180518D01*
X2182184Y286306D01*
X2190515Y284640D02*
Y294637D01*
X2185517Y289638D01*
X2192181D01*
X2195514Y292971D02*
X2197180Y294637D01*
X2200512D01*
X2202178Y292971D01*
Y286306D01*
X2200512Y284640D01*
X2197180D01*
X2195514Y286306D01*
Y292971D01*
X1995556Y440439D02*
X1997222Y438773D01*
X2000554D01*
X2002220Y440439D01*
Y447104D01*
X2000554Y448770D01*
X1997222D01*
X1995556Y447104D01*
X1992223Y448770D02*
X1988891D01*
X1990557D01*
Y438773D01*
X1992223Y440439D01*
X1983893D02*
X1982227Y438773D01*
X1978894D01*
X1977228Y440439D01*
Y442105D01*
X1978894Y443772D01*
X1977228Y445438D01*
Y447104D01*
X1978894Y448770D01*
X1982227D01*
X1983893Y447104D01*
Y445438D01*
X1982227Y443772D01*
X1983893Y442105D01*
Y440439D01*
X1982227Y443772D02*
X1978894D01*
X2032189Y420304D02*
X2030523Y418638D01*
Y415306D01*
X2032189Y413640D01*
X2038854D01*
X2040520Y415306D01*
Y418638D01*
X2038854Y420304D01*
X2040520Y423637D02*
Y426969D01*
Y425303D01*
X2030523D01*
X2032189Y423637D01*
X2030523Y431967D02*
Y438632D01*
X2032189D01*
X2038854Y431967D01*
X2040520D01*
X2138994Y396443D02*
X2137328Y398109D01*
X2133996D01*
X2132330Y396443D01*
Y389778D01*
X2133996Y388112D01*
X2137328D01*
X2138994Y389778D01*
X2142327Y388112D02*
X2145659D01*
X2143993D01*
Y398109D01*
X2142327Y396443D01*
X2157322Y398109D02*
X2153990Y396443D01*
X2150657Y393110D01*
Y389778D01*
X2152324Y388112D01*
X2155656D01*
X2157322Y389778D01*
Y391444D01*
X2155656Y393110D01*
X2150657D01*
X1926189Y588304D02*
X1924523Y586638D01*
Y583306D01*
X1926189Y581640D01*
X1932854D01*
X1934520Y583306D01*
Y586638D01*
X1932854Y588304D01*
X1934520Y591637D02*
Y594969D01*
Y593303D01*
X1924523D01*
X1926189Y591637D01*
X1924523Y606632D02*
Y599967D01*
X1929522D01*
X1927856Y603300D01*
Y604966D01*
X1929522Y606632D01*
X1932854D01*
X1934520Y604966D01*
Y601633D01*
X1932854Y599967D01*
X1870189Y595304D02*
X1868523Y593638D01*
Y590306D01*
X1870189Y588640D01*
X1876854D01*
X1878520Y590306D01*
Y593638D01*
X1876854Y595304D01*
X1878520Y598637D02*
Y601969D01*
Y600303D01*
X1868523D01*
X1870189Y598637D01*
Y606967D02*
X1868523Y608634D01*
Y611966D01*
X1870189Y613632D01*
X1871855D01*
X1873522Y611966D01*
Y610300D01*
Y611966D01*
X1875188Y613632D01*
X1876854D01*
X1878520Y611966D01*
Y608634D01*
X1876854Y606967D01*
X1873758Y383123D02*
X1880423Y373126D01*
Y383123D02*
X1873758Y373126D01*
X1883755Y381457D02*
X1885421Y383123D01*
X1888753D01*
X1890419Y381457D01*
Y379790D01*
X1888753Y378124D01*
X1887087D01*
X1888753D01*
X1890419Y376458D01*
Y374792D01*
X1888753Y373126D01*
X1885421D01*
X1883755Y374792D01*
X1995520Y613640D02*
Y619638D01*
X1998519D01*
X1999519Y618638D01*
Y616639D01*
X1998519Y615639D01*
X1995520D01*
X1997519D02*
X1999519Y613640D01*
X2001518D02*
X2003517D01*
X2002518D01*
Y619638D01*
X2001518Y618638D01*
X2006516D02*
X2007516Y619638D01*
X2009516D01*
X2010515Y618638D01*
Y617639D01*
X2009516Y616639D01*
X2010515Y615639D01*
Y614640D01*
X2009516Y613640D01*
X2007516D01*
X2006516Y614640D01*
Y615639D01*
X2007516Y616639D01*
X2006516Y617639D01*
Y618638D01*
X2007516Y616639D02*
X2009516D01*
X2013520Y618640D02*
Y624638D01*
X2016519D01*
X2017519Y623638D01*
Y621639D01*
X2016519Y620639D01*
X2013520D01*
X2015519D02*
X2017519Y618640D01*
X2019518D02*
X2021517D01*
X2020518D01*
Y624638D01*
X2019518Y623638D01*
X2024516Y619640D02*
X2025516Y618640D01*
X2027516D01*
X2028515Y619640D01*
Y623638D01*
X2027516Y624638D01*
X2025516D01*
X2024516Y623638D01*
Y622639D01*
X2025516Y621639D01*
X2028515D01*
X2031520Y618640D02*
Y624638D01*
X2034519D01*
X2035519Y623638D01*
Y621639D01*
X2034519Y620639D01*
X2031520D01*
X2033519D02*
X2035519Y618640D01*
X2041517D02*
X2037518D01*
X2041517Y622639D01*
Y623638D01*
X2040517Y624638D01*
X2038518D01*
X2037518Y623638D01*
X2043516D02*
X2044516Y624638D01*
X2046515D01*
X2047515Y623638D01*
Y619640D01*
X2046515Y618640D01*
X2044516D01*
X2043516Y619640D01*
Y623638D01*
X2052520Y618640D02*
Y624638D01*
X2055519D01*
X2056519Y623638D01*
Y621639D01*
X2055519Y620639D01*
X2052520D01*
X2054519D02*
X2056519Y618640D01*
X2062517D02*
X2058518D01*
X2062517Y622639D01*
Y623638D01*
X2061517Y624638D01*
X2059518D01*
X2058518Y623638D01*
X2068515Y618640D02*
X2064516D01*
X2068515Y622639D01*
Y623638D01*
X2067515Y624638D01*
X2065516D01*
X2064516Y623638D01*
X2086640Y616469D02*
Y608138D01*
X2088306Y606472D01*
X2091638D01*
X2093304Y608138D01*
Y616469D01*
X2101635Y606472D02*
Y616469D01*
X2096637Y611470D01*
X2103301D01*
X2268689Y650305D02*
X2267522Y649139D01*
Y646806D01*
X2268689Y645640D01*
X2273354D01*
X2274520Y646806D01*
Y649139D01*
X2273354Y650305D01*
X2274520Y657303D02*
Y652638D01*
X2269855Y657303D01*
X2268689D01*
X2267522Y656137D01*
Y653804D01*
X2268689Y652638D01*
X2267522Y664301D02*
X2268689Y661968D01*
X2271021Y659635D01*
X2273354D01*
X2274520Y660802D01*
Y663134D01*
X2273354Y664301D01*
X2272187D01*
X2271021Y663134D01*
Y659635D01*
X2354523Y301640D02*
X2364520Y308305D01*
X2354523D02*
X2364520Y301640D01*
X2362854Y311637D02*
X2364520Y313303D01*
Y316635D01*
X2362854Y318301D01*
X2356189D01*
X2354523Y316635D01*
Y313303D01*
X2356189Y311637D01*
X2357856D01*
X2359522Y313303D01*
Y318301D01*
X2354523Y601640D02*
X2364520Y608304D01*
X2354523D02*
X2364520Y601640D01*
X2356189Y611637D02*
X2354523Y613303D01*
Y616635D01*
X2356189Y618301D01*
X2357856D01*
X2359522Y616635D01*
X2361188Y618301D01*
X2362854D01*
X2364520Y616635D01*
Y613303D01*
X2362854Y611637D01*
X2361188D01*
X2359522Y613303D01*
X2357856Y611637D01*
X2356189D01*
X2359522Y613303D02*
Y616635D01*
X2355523Y456640D02*
X2365520Y463304D01*
X2355523D02*
X2365520Y456640D01*
X2355523Y466637D02*
Y473301D01*
X2357189D01*
X2363854Y466637D01*
X2365520D01*
X2406650Y379821D02*
X2413315Y369824D01*
Y379821D02*
X2406650Y369824D01*
X2416647D02*
X2419979D01*
X2418313D01*
Y379821D01*
X2416647Y378155D01*
X2424977D02*
X2426644Y379821D01*
X2429976D01*
X2431642Y378155D01*
Y371490D01*
X2429976Y369824D01*
X2426644D01*
X2424977Y371490D01*
Y378155D01*
X3289523Y399640D02*
X3299520Y406305D01*
X3289523D02*
X3299520Y399640D01*
Y409637D02*
Y412969D01*
Y411303D01*
X3289523D01*
X3291189Y409637D01*
X3299520Y424632D02*
Y417967D01*
X3292856Y424632D01*
X3291189D01*
X3289523Y422966D01*
Y419634D01*
X3291189Y417967D01*
X1979520Y618640D02*
Y624638D01*
X1982519D01*
X1983519Y623638D01*
Y621639D01*
X1982519Y620639D01*
X1979520D01*
X1981519D02*
X1983519Y618640D01*
X1985518D02*
X1987517D01*
X1986518D01*
Y624638D01*
X1985518Y623638D01*
X1990516Y624638D02*
X1994515D01*
Y623638D01*
X1990516Y619640D01*
Y618640D01*
D14*
X2088520Y313490D02*
G03*
X2088520Y313490I-3000J0D01*
G01*
X2095770Y439640D02*
G03*
X2095770Y439640I-3000J0D01*
G01*
D15*
X3063070Y539930D02*
Y575430D01*
Y539930D02*
X3087320D01*
Y575430D01*
X3063070D02*
X3087320D01*
X2293870Y411020D02*
X2300220D01*
X2293870Y426260D02*
X2300220D01*
X2312920Y412290D02*
Y424990D01*
X2281170Y412290D02*
Y424990D01*
X2319140Y506990D02*
Y513340D01*
X2303900Y506990D02*
Y513340D01*
X2305170Y526040D02*
X2317870D01*
X2305170Y494290D02*
X2317870D01*
X2300445Y583278D02*
X2310445D01*
X2300520Y612890D02*
X2310520D01*
X2299520Y595640D02*
Y600640D01*
X2311520Y595640D02*
Y600640D01*
X2296170Y661990D02*
X2308870D01*
X2296170Y630240D02*
X2308870D01*
X2310140Y642940D02*
Y649290D01*
X2294900Y642940D02*
Y649290D01*
X2277900Y642940D02*
Y649290D01*
X2293140Y642940D02*
Y649290D01*
X2279170Y630240D02*
X2291870D01*
X2279170Y661990D02*
X2291870D01*
X2289520Y677640D02*
X2294520D01*
X2289520Y689640D02*
X2294520D01*
X2306770Y678640D02*
Y688640D01*
X2277158Y678715D02*
Y688715D01*
Y692715D02*
Y702715D01*
X2306770Y692640D02*
Y702640D01*
X2289520Y703640D02*
X2294520D01*
X2289520Y691640D02*
X2294520D01*
X2177870Y688020D02*
X2184220D01*
X2177870Y703260D02*
X2184220D01*
X2196920Y689290D02*
Y701990D01*
X2165170Y689290D02*
Y701990D01*
X2137520Y647640D02*
X2142520D01*
X2137520Y659640D02*
X2142520D01*
X2154770Y648640D02*
Y658640D01*
X2125158Y648715D02*
Y658715D01*
Y662715D02*
Y672715D01*
X2154770Y662640D02*
Y672640D01*
X2137520Y673640D02*
X2142520D01*
X2137520Y661640D02*
X2142520D01*
X2154882Y676565D02*
Y686565D01*
X2125270Y676640D02*
Y686640D01*
X2137520Y675640D02*
X2142520D01*
X2137520Y687640D02*
X2142520D01*
X2137520Y701640D02*
X2142520D01*
X2137520Y689640D02*
X2142520D01*
X2125270Y690640D02*
Y700640D01*
X2154882Y690565D02*
Y700565D01*
X2030520Y639640D02*
Y644640D01*
X2042520Y639640D02*
Y644640D01*
X2031520Y627390D02*
X2041520D01*
X2031595Y657002D02*
X2041595D01*
X2016595Y657002D02*
X2026595D01*
X2016520Y627390D02*
X2026520D01*
X2027520Y639640D02*
Y644640D01*
X2015520Y639640D02*
Y644640D01*
X2001520Y639640D02*
Y644640D01*
X2013520Y639640D02*
Y644640D01*
X2002520Y627390D02*
X2012520D01*
X2002595Y657002D02*
X2012595D01*
X1988595Y657002D02*
X1998595D01*
X1988520Y627390D02*
X1998520D01*
X1999520Y639640D02*
Y644640D01*
X1987520Y639640D02*
Y644640D01*
X2023520Y597640D02*
X2028520D01*
X2023520Y609640D02*
X2028520D01*
X2040770Y598640D02*
Y608640D01*
X2011158Y598715D02*
Y608715D01*
Y562715D02*
Y572715D01*
X2040770Y562640D02*
Y572640D01*
X2023520Y573640D02*
X2028520D01*
X2023520Y561640D02*
X2028520D01*
X2011158Y580715D02*
Y590715D01*
X2040770Y580640D02*
Y590640D01*
X2023520Y591640D02*
X2028520D01*
X2023520Y579640D02*
X2028520D01*
X1951820Y643260D02*
X1958170D01*
X1951820Y628020D02*
X1958170D01*
X1939120Y629290D02*
Y641990D01*
X1970870Y629290D02*
Y641990D01*
X1985870Y514020D02*
X1992220D01*
X1985870Y529260D02*
X1992220D01*
X2004920Y515290D02*
Y527990D01*
X1973170Y515290D02*
Y527990D01*
X2012170Y524990D02*
X2024870D01*
X2012170Y493240D02*
X2024870D01*
X2026140Y505940D02*
Y512290D01*
X2010900Y505940D02*
Y512290D01*
X2026140Y424990D02*
Y431340D01*
X2010900Y424990D02*
Y431340D01*
X2012170Y444040D02*
X2024870D01*
X2012170Y412290D02*
X2024870D01*
X2033170Y396290D02*
Y408990D01*
X2064920Y396290D02*
Y408990D01*
X2045870Y410260D02*
X2052220D01*
X2045870Y395020D02*
X2052220D01*
X2027900Y334940D02*
Y341290D01*
X2043140Y334940D02*
Y341290D01*
X2029170Y322240D02*
X2041870D01*
X2029170Y353990D02*
X2041870D01*
X2026170Y220290D02*
X2038870D01*
X2026170Y252040D02*
X2038870D01*
X2024900Y232990D02*
Y239340D01*
X2040140Y232990D02*
Y239340D01*
X2210170Y220290D02*
X2222870D01*
X2210170Y252040D02*
X2222870D01*
X2208900Y232990D02*
Y239340D01*
X2224140Y232990D02*
Y239340D01*
X2172158Y329715D02*
Y339715D01*
X2201770Y329640D02*
Y339640D01*
X2184520Y340640D02*
X2189520D01*
X2184520Y328640D02*
X2189520D01*
X2189170Y372990D02*
X2201870D01*
X2189170Y341240D02*
X2201870D01*
X2203140Y353940D02*
Y360290D01*
X2187900Y353940D02*
Y360290D01*
X2296482Y233640D02*
X2301482D01*
X2296482Y245640D02*
X2301482D01*
X2313732Y234640D02*
Y244640D01*
X2284120Y234715D02*
Y244715D01*
X2249158Y234715D02*
Y244715D01*
X2278770Y234640D02*
Y244640D01*
X2261520Y245640D02*
X2266520D01*
X2261520Y233640D02*
X2266520D01*
X2296482Y253640D02*
X2301482D01*
X2296482Y265640D02*
X2301482D01*
X2313732Y254640D02*
Y264640D01*
X2284120Y254715D02*
Y264715D01*
X2250158Y254715D02*
Y264715D01*
X2279770Y254640D02*
Y264640D01*
X2262520Y265640D02*
X2267520D01*
X2262520Y253640D02*
X2267520D01*
X2296482Y273640D02*
X2301482D01*
X2296482Y285640D02*
X2301482D01*
X2313732Y274640D02*
Y284640D01*
X2284120Y274715D02*
Y284715D01*
X2249158Y274715D02*
Y284715D01*
X2278770Y274640D02*
Y284640D01*
X2261520Y285640D02*
X2266520D01*
X2261520Y273640D02*
X2266520D01*
X2296482Y293640D02*
X2301482D01*
X2296482Y305640D02*
X2301482D01*
X2313732Y294640D02*
Y304640D01*
X2284120Y294715D02*
Y304715D01*
X2249158Y294715D02*
Y304715D01*
X2278770Y294640D02*
Y304640D01*
X2261520Y305640D02*
X2266520D01*
X2261520Y293640D02*
X2266520D01*
X2452610Y438460D02*
X2465310D01*
X2452610Y406710D02*
X2465310D01*
X2466580Y419410D02*
Y425760D01*
X2451340Y419410D02*
Y425760D01*
X2473290Y406760D02*
X2485990D01*
X2473290Y438510D02*
X2485990D01*
X2472020Y419460D02*
Y425810D01*
X2487260Y419460D02*
Y425810D01*
X2464870Y443020D02*
X2471220D01*
X2464870Y458260D02*
X2471220D01*
X2483920Y444290D02*
Y456990D01*
X2452170Y444290D02*
Y456990D01*
X2452610Y462400D02*
X2465310D01*
X2452610Y494150D02*
X2465310D01*
X2451340Y475100D02*
Y481450D01*
X2466580Y475100D02*
Y481450D01*
X2473290Y462400D02*
X2485990D01*
X2473290Y494150D02*
X2485990D01*
X2472020Y475100D02*
Y481450D01*
X2487260Y475100D02*
Y481450D01*
X2472930Y509680D02*
X2485630D01*
X2472930Y541430D02*
X2485630D01*
X2471660Y522380D02*
Y528730D01*
X2486900Y522380D02*
Y528730D01*
X2462770Y649330D02*
X2475470D01*
X2462770Y681080D02*
X2475470D01*
X2461500Y662030D02*
Y668380D01*
X2476740Y662030D02*
Y668380D01*
X2443720Y681080D02*
X2456420D01*
X2443720Y649330D02*
X2456420D01*
X2457690Y662030D02*
Y668380D01*
X2442450Y662030D02*
Y668380D01*
X3303520Y208640D02*
Y708640D01*
X3343520Y208640D02*
Y708640D01*
X3303520D02*
X3343520D01*
X3303520Y208640D02*
X3343520D01*
X3071420Y615740D02*
X3084120D01*
X3071420Y583990D02*
X3084120D01*
X3085390Y596690D02*
Y603040D01*
X3070150Y596690D02*
Y603040D01*
X3046920Y583990D02*
X3059620D01*
X3046920Y615740D02*
X3059620D01*
X3045650Y596690D02*
Y603040D01*
X3060890Y596690D02*
Y603040D01*
X3114620Y520540D02*
Y533240D01*
X3082870Y520540D02*
Y533240D01*
X3095570Y519270D02*
X3101920D01*
X3095570Y534510D02*
X3101920D01*
X3082870Y502790D02*
Y515490D01*
X3114620Y502790D02*
Y515490D01*
X3095570Y516760D02*
X3101920D01*
X3095570Y501520D02*
X3101920D01*
X3153820Y536260D02*
X3160170D01*
X3153820Y521020D02*
X3160170D01*
X3141120Y522290D02*
Y534990D01*
X3172870Y522290D02*
Y534990D01*
Y503290D02*
Y515990D01*
X3141120Y503290D02*
Y515990D01*
X3153820Y502020D02*
X3160170D01*
X3153820Y517260D02*
X3160170D01*
X3153820Y498260D02*
X3160170D01*
X3153820Y483020D02*
X3160170D01*
X3141120Y484290D02*
Y496990D01*
X3172870Y484290D02*
Y496990D01*
X3017490Y499470D02*
X3030190D01*
X3017490Y467720D02*
X3030190D01*
X3031460Y480420D02*
Y486770D01*
X3016220Y480420D02*
Y486770D01*
X3017490Y540060D02*
X3030190D01*
X3017490Y508310D02*
X3030190D01*
X3031460Y521010D02*
Y527360D01*
X3016220Y521010D02*
Y527360D01*
X2493200Y681080D02*
X2499550D01*
X2493200Y665840D02*
X2499550D01*
X2480500Y667110D02*
Y679810D01*
X2512250Y667110D02*
Y679810D01*
X2504630Y438510D02*
X2510980D01*
X2504630Y423270D02*
X2510980D01*
X2491930Y424540D02*
Y437240D01*
X2523680Y424540D02*
Y437240D01*
X2466580Y522380D02*
Y528730D01*
X2451340Y522380D02*
Y528730D01*
X2452610Y541430D02*
X2465310D01*
X2452610Y509680D02*
X2465310D01*
X3078570Y363010D02*
X3084920D01*
X3078570Y347770D02*
X3084920D01*
X3065870Y349040D02*
Y361740D01*
X3097620Y349040D02*
Y361740D01*
X3078570Y344530D02*
X3084920D01*
X3078570Y329290D02*
X3084920D01*
X3065870Y330560D02*
Y343260D01*
X3097620Y330560D02*
Y343260D01*
X3268896Y214916D02*
X3269020Y215040D01*
X3268870Y314890D02*
X3269020Y315040D01*
Y360440D01*
X3216300Y315040D02*
Y360440D01*
Y215040D02*
Y315040D01*
X3269020Y215040D02*
Y315040D01*
X3216300Y314890D02*
X3268870D01*
X3216300Y360440D02*
X3269020D01*
X3216300Y214916D02*
X3268896D01*
X2002448Y364679D02*
Y404639D01*
X2002448Y404640D01*
X2022520D01*
X2015065Y364679D02*
X2015110Y364634D01*
X2015116Y364640D01*
X2022520D01*
X2002448Y364679D02*
X2015065D01*
X2022520Y364640D02*
Y404640D01*
X1976448Y364679D02*
Y404639D01*
X1976448Y404640D01*
X1996520D01*
X1989065Y364679D02*
X1989110Y364634D01*
X1989116Y364640D01*
X1996520D01*
X1976448Y364679D02*
X1989065D01*
X1996520Y364640D02*
Y404640D01*
X2012170Y488990D02*
X2024870D01*
X2012170Y457240D02*
X2024870D01*
X2026140Y469940D02*
Y476290D01*
X2010900Y469940D02*
Y476290D01*
X2135870Y332020D02*
X2142220D01*
X2135870Y347260D02*
X2142220D01*
X2154920Y333290D02*
Y345990D01*
X2123170Y333290D02*
Y345990D01*
X2162870Y366290D02*
Y378990D01*
X2131120Y366290D02*
Y378990D01*
X2143820Y365020D02*
X2150170D01*
X2143820Y380260D02*
X2150170D01*
X1872620Y319290D02*
Y359290D01*
X1872835Y359238D02*
X2021049D01*
X1872620Y223290D02*
X2021620D01*
X1872620Y299290D02*
Y319290D01*
X1877689Y314297D02*
X2021063D01*
X1872620Y295670D02*
Y299290D01*
X1872614Y223285D02*
Y295643D01*
X2021620Y319328D02*
Y359290D01*
Y223290D02*
Y319328D01*
X1872658Y314297D02*
X1877689D01*
X1872620Y295670D02*
X1872630Y295659D01*
X1872614Y295643D02*
X1872630Y295659D01*
X2044520Y639640D02*
Y644640D01*
X2056520Y639640D02*
Y644640D01*
X2045520Y627390D02*
X2055520D01*
X2045595Y657002D02*
X2055595D01*
X2320777Y213896D02*
X2398227D01*
X2320777Y405316D02*
X2320935Y405474D01*
X2398249Y405619D02*
X2398270Y405640D01*
X2320770Y405640D02*
X2320935Y405474D01*
X2321020Y405890D02*
X2398020D01*
X2320770Y405640D02*
X2321020Y405890D01*
X2320777Y213896D02*
Y405316D01*
X2398249Y213918D02*
Y405619D01*
X2320777Y513896D02*
X2398227D01*
X2320777Y705316D02*
X2320935Y705474D01*
X2398249Y705619D02*
X2398270Y705640D01*
X2320770Y705640D02*
X2320935Y705474D01*
X2321020Y705890D02*
X2398020D01*
X2320770Y705640D02*
X2321020Y705890D01*
X2320777Y513896D02*
Y705316D01*
X2398249Y513918D02*
Y705619D01*
X2321014Y505890D02*
X2398014D01*
X2320770Y413406D02*
X2398248D01*
X2398264Y413390D02*
Y505640D01*
X2398248Y413406D02*
X2398264Y413390D01*
X2320770Y413406D02*
Y505646D01*
X2405320Y320440D02*
Y360440D01*
X2405535Y360388D02*
X2553749D01*
X2405320Y224440D02*
X2554320D01*
X2405320Y300440D02*
Y320440D01*
X2410389Y315447D02*
X2553763D01*
X2405320Y296820D02*
Y300440D01*
X2405314Y224435D02*
Y296793D01*
X2554320Y320478D02*
Y360440D01*
Y224440D02*
Y320478D01*
X2405358Y315447D02*
X2410389D01*
X2405320Y296820D02*
X2405331Y296809D01*
X2405314Y296793D02*
X2405331Y296809D01*
D16*
X1977120Y560020D02*
Y575260D01*
X2007600Y560020D02*
Y575260D01*
X1997440D02*
X2007600D01*
X1977120Y560020D02*
X1987280D01*
X1997440D02*
X2007600D01*
X1977120Y575260D02*
X1987280D01*
X1977440Y578020D02*
Y593260D01*
X2007920Y578020D02*
Y593260D01*
X1997760D02*
X2007920D01*
X1977440Y578020D02*
X1987600D01*
X1997760D02*
X2007920D01*
X1977440Y593260D02*
X1987600D01*
X1977440Y596020D02*
Y611260D01*
X2007920Y596020D02*
Y611260D01*
X1997760D02*
X2007920D01*
X1977440Y596020D02*
X1987600D01*
X1997760D02*
X2007920D01*
X1977440Y611260D02*
X1987600D01*
M02*
