G04*
G04 #@! TF.GenerationSoftware,Altium Limited,Altium Designer,20.0.2 (26)*
G04*
G04 Layer_Color=128*
%FSLAX44Y44*%
%MOMM*%
G71*
G01*
G75*
G04:AMPARAMS|DCode=22|XSize=0.8mm|YSize=1.3mm|CornerRadius=0.2mm|HoleSize=0mm|Usage=FLASHONLY|Rotation=0.000|XOffset=0mm|YOffset=0mm|HoleType=Round|Shape=RoundedRectangle|*
%AMROUNDEDRECTD22*
21,1,0.8000,0.9000,0,0,0.0*
21,1,0.4000,1.3000,0,0,0.0*
1,1,0.4000,0.2000,-0.4500*
1,1,0.4000,-0.2000,-0.4500*
1,1,0.4000,-0.2000,0.4500*
1,1,0.4000,0.2000,0.4500*
%
%ADD22ROUNDEDRECTD22*%
G04:AMPARAMS|DCode=23|XSize=0.8mm|YSize=1.3mm|CornerRadius=0.2mm|HoleSize=0mm|Usage=FLASHONLY|Rotation=90.000|XOffset=0mm|YOffset=0mm|HoleType=Round|Shape=RoundedRectangle|*
%AMROUNDEDRECTD23*
21,1,0.8000,0.9000,0,0,90.0*
21,1,0.4000,1.3000,0,0,90.0*
1,1,0.4000,0.4500,0.2000*
1,1,0.4000,0.4500,-0.2000*
1,1,0.4000,-0.4500,-0.2000*
1,1,0.4000,-0.4500,0.2000*
%
%ADD23ROUNDEDRECTD23*%
G04:AMPARAMS|DCode=24|XSize=0.8mm|YSize=1mm|CornerRadius=0.2mm|HoleSize=0mm|Usage=FLASHONLY|Rotation=90.000|XOffset=0mm|YOffset=0mm|HoleType=Round|Shape=RoundedRectangle|*
%AMROUNDEDRECTD24*
21,1,0.8000,0.6000,0,0,90.0*
21,1,0.4000,1.0000,0,0,90.0*
1,1,0.4000,0.3000,0.2000*
1,1,0.4000,0.3000,-0.2000*
1,1,0.4000,-0.3000,-0.2000*
1,1,0.4000,-0.3000,0.2000*
%
%ADD24ROUNDEDRECTD24*%
G04:AMPARAMS|DCode=25|XSize=0.8mm|YSize=1mm|CornerRadius=0.2mm|HoleSize=0mm|Usage=FLASHONLY|Rotation=0.000|XOffset=0mm|YOffset=0mm|HoleType=Round|Shape=RoundedRectangle|*
%AMROUNDEDRECTD25*
21,1,0.8000,0.6000,0,0,0.0*
21,1,0.4000,1.0000,0,0,0.0*
1,1,0.4000,0.2000,-0.3000*
1,1,0.4000,-0.2000,-0.3000*
1,1,0.4000,-0.2000,0.3000*
1,1,0.4000,0.2000,0.3000*
%
%ADD25ROUNDEDRECTD25*%
G04:AMPARAMS|DCode=27|XSize=2.54mm|YSize=0.9144mm|CornerRadius=0mm|HoleSize=0mm|Usage=FLASHONLY|Rotation=90.000|XOffset=0mm|YOffset=0mm|HoleType=Round|Shape=Octagon|*
%AMOCTAGOND27*
4,1,8,0.2286,1.2700,-0.2286,1.2700,-0.4572,1.0414,-0.4572,-1.0414,-0.2286,-1.2700,0.2286,-1.2700,0.4572,-1.0414,0.4572,1.0414,0.2286,1.2700,0.0*
%
%ADD27OCTAGOND27*%

%ADD30R,2.8000X2.0000*%
%ADD36R,0.8000X1.3000*%
%ADD41R,2.5000X2.3000*%
%ADD59C,1.0000*%
%ADD155R,2.0000X2.0000*%
G04:AMPARAMS|DCode=156|XSize=2mm|YSize=2mm|CornerRadius=0.5mm|HoleSize=0mm|Usage=FLASHONLY|Rotation=270.000|XOffset=0mm|YOffset=0mm|HoleType=Round|Shape=RoundedRectangle|*
%AMROUNDEDRECTD156*
21,1,2.0000,1.0000,0,0,270.0*
21,1,1.0000,2.0000,0,0,270.0*
1,1,1.0000,-0.5000,-0.5000*
1,1,1.0000,-0.5000,0.5000*
1,1,1.0000,0.5000,0.5000*
1,1,1.0000,0.5000,-0.5000*
%
%ADD156ROUNDEDRECTD156*%
%ADD157R,0.9500X0.6000*%
%ADD158R,0.6000X0.9000*%
G04:AMPARAMS|DCode=159|XSize=0.9mm|YSize=0.6mm|CornerRadius=0.15mm|HoleSize=0mm|Usage=FLASHONLY|Rotation=90.000|XOffset=0mm|YOffset=0mm|HoleType=Round|Shape=RoundedRectangle|*
%AMROUNDEDRECTD159*
21,1,0.9000,0.3000,0,0,90.0*
21,1,0.6000,0.6000,0,0,90.0*
1,1,0.3000,0.1500,0.3000*
1,1,0.3000,0.1500,-0.3000*
1,1,0.3000,-0.1500,-0.3000*
1,1,0.3000,-0.1500,0.3000*
%
%ADD159ROUNDEDRECTD159*%
%ADD160R,1.0000X0.8000*%
%ADD161R,0.7000X1.6000*%
%ADD162R,1.2000X1.4000*%
%ADD163R,1.6000X1.4000*%
%ADD164R,1.2000X2.0000*%
D22*
X2192740Y550640D02*
D03*
X2211740D02*
D03*
X2055520Y534640D02*
D03*
X2074520D02*
D03*
X1900520Y575640D02*
D03*
X1919520D02*
D03*
X1956520D02*
D03*
X1937520D02*
D03*
X2078520Y631640D02*
D03*
X2097520D02*
D03*
X2131520D02*
D03*
X2112520D02*
D03*
X2071520Y426640D02*
D03*
X2090520D02*
D03*
X2313520Y543640D02*
D03*
X2332520D02*
D03*
X2287520Y435640D02*
D03*
X2306520D02*
D03*
X2287520Y418536D02*
D03*
X2306520D02*
D03*
Y401536D02*
D03*
X2287520D02*
D03*
X2306520Y384536D02*
D03*
X2287520D02*
D03*
X2212520Y348690D02*
D03*
X2231520D02*
D03*
X2057520Y374640D02*
D03*
X2076520D02*
D03*
X2034520Y567640D02*
D03*
X2015520D02*
D03*
X2035520Y294640D02*
D03*
X2054520D02*
D03*
Y272640D02*
D03*
X2035520D02*
D03*
X2212520Y366690D02*
D03*
X2231520D02*
D03*
X1998520Y521640D02*
D03*
X1979520D02*
D03*
X1906520Y398640D02*
D03*
X1887520D02*
D03*
D23*
X2092520Y654640D02*
D03*
Y673640D02*
D03*
X2072520Y490640D02*
D03*
Y509640D02*
D03*
X2227520Y441640D02*
D03*
Y460640D02*
D03*
X2210520Y441640D02*
D03*
Y460640D02*
D03*
X2169520D02*
D03*
Y441640D02*
D03*
X2186520Y460640D02*
D03*
Y441640D02*
D03*
X2169520Y497640D02*
D03*
Y478640D02*
D03*
X2185520Y497640D02*
D03*
Y478640D02*
D03*
X2210520D02*
D03*
Y497640D02*
D03*
X2227520Y478640D02*
D03*
Y497640D02*
D03*
X2295520Y526640D02*
D03*
Y545640D02*
D03*
X2307520Y347640D02*
D03*
Y366640D02*
D03*
X2249520Y347690D02*
D03*
Y366690D02*
D03*
X2195520D02*
D03*
Y347690D02*
D03*
X2178520D02*
D03*
Y366690D02*
D03*
X2020520Y238640D02*
D03*
Y257640D02*
D03*
X2251520Y441640D02*
D03*
Y460640D02*
D03*
Y478640D02*
D03*
Y497640D02*
D03*
X2268520Y441640D02*
D03*
Y460640D02*
D03*
Y478640D02*
D03*
Y497640D02*
D03*
X2156520Y282640D02*
D03*
Y263640D02*
D03*
X2136520D02*
D03*
Y282640D02*
D03*
X2018520Y482640D02*
D03*
Y463640D02*
D03*
D24*
X2021520Y650640D02*
D03*
Y633640D02*
D03*
X2053520Y617640D02*
D03*
Y600640D02*
D03*
X2067520D02*
D03*
Y617640D02*
D03*
X2081520D02*
D03*
Y600640D02*
D03*
X2152520Y441640D02*
D03*
Y458640D02*
D03*
X2312520Y519790D02*
D03*
Y502790D02*
D03*
X2332520Y519790D02*
D03*
Y502790D02*
D03*
D25*
X2059520Y550640D02*
D03*
X2076520D02*
D03*
Y563640D02*
D03*
X2059520D02*
D03*
X2126520Y582640D02*
D03*
X2109520D02*
D03*
Y568640D02*
D03*
X2126520D02*
D03*
X2119520Y460640D02*
D03*
X2102520D02*
D03*
X2128520Y474640D02*
D03*
X2111520D02*
D03*
D27*
X2010080Y680700D02*
D03*
X2022780D02*
D03*
X2035480D02*
D03*
X2048180D02*
D03*
D30*
X1987520Y230640D02*
D03*
Y267470D02*
D03*
D36*
X2240520Y329640D02*
D03*
X2259520D02*
D03*
X1887520Y417640D02*
D03*
X1906520D02*
D03*
D41*
X1926520Y287640D02*
D03*
Y230640D02*
D03*
X1885520D02*
D03*
Y287640D02*
D03*
D59*
X3242520Y244640D02*
D03*
X1889520Y510640D02*
D03*
X2199520Y244640D02*
D03*
D155*
X2148520Y495640D02*
D03*
Y535640D02*
D03*
X2097720Y495640D02*
D03*
D156*
Y535640D02*
D03*
D157*
X2266520Y348190D02*
D03*
Y357690D02*
D03*
Y367190D02*
D03*
X2291020D02*
D03*
Y348190D02*
D03*
D158*
X2086520Y255640D02*
D03*
Y272640D02*
D03*
X2096520D02*
D03*
X2141520Y300640D02*
D03*
X2151520Y317640D02*
D03*
X2141520D02*
D03*
D159*
X2096520Y255640D02*
D03*
X2151520Y300640D02*
D03*
D160*
X2099520Y371640D02*
D03*
Y388640D02*
D03*
X2076520Y341640D02*
D03*
Y358640D02*
D03*
D161*
X2202070Y568640D02*
D03*
X2213070D02*
D03*
X2191070D02*
D03*
X2235070D02*
D03*
X2246070D02*
D03*
X2224070D02*
D03*
X2169070D02*
D03*
X2180070D02*
D03*
X2158070D02*
D03*
D162*
X2146320Y573640D02*
D03*
D163*
X2292320D02*
D03*
D164*
X2301320Y669640D02*
D03*
X2146320D02*
D03*
M02*
