G04*
G04 #@! TF.GenerationSoftware,Altium Limited,Altium Designer,20.0.2 (26)*
G04*
G04 Layer_Color=32896*
%FSLAX44Y44*%
%MOMM*%
G71*
G01*
G75*
%ADD11C,0.2500*%
%ADD12C,0.2540*%
%ADD13C,0.2000*%
%ADD15C,0.1500*%
%ADD176C,0.0500*%
D11*
X2267770Y339690D02*
G03*
X2267770Y339690I-1250J0D01*
G01*
D12*
X2096241Y520890D02*
G03*
X2096241Y520890I-1521J0D01*
G01*
X2085470Y502140D02*
Y528390D01*
X2160970Y502140D02*
Y528390D01*
X2109970Y542890D02*
X2136220D01*
X2109970Y488390D02*
X2136220D01*
X1974820Y254770D02*
X2000220D01*
X2150820Y571640D02*
X2297820D01*
Y709640D01*
X2150820Y571640D02*
Y709640D01*
X2150820D02*
X2297820D01*
D13*
X2275270Y343190D02*
X2282270D01*
X2275270Y372190D02*
X2282270D01*
X2275270Y343190D02*
Y372190D01*
X2282270Y343190D02*
Y372190D01*
X2004520Y217940D02*
Y231910D01*
X1970520Y217940D02*
Y231910D01*
Y217940D02*
X2004520D01*
X1970520Y266200D02*
Y280170D01*
X2004520Y266200D02*
Y280170D01*
X1970520D02*
X2004520D01*
X1909020Y216640D02*
Y240640D01*
X1944520Y216640D02*
Y240640D01*
X1909020Y216640D02*
X1944520D01*
X1908520Y277640D02*
Y301640D01*
X1944020D01*
X1912360Y273640D02*
X1940520D01*
X1944020Y277640D02*
Y301640D01*
X1903020Y277640D02*
Y301640D01*
X1867520Y277640D02*
Y301640D01*
X1903020D01*
X1903520Y216640D02*
Y240640D01*
X1868020Y216640D02*
X1903520D01*
X1871520Y244640D02*
X1899680D01*
X1868020Y216640D02*
Y240640D01*
X2241105Y553971D02*
X2242772Y555637D01*
X2246104D01*
X2247770Y553971D01*
Y547306D01*
X2246104Y545640D01*
X2242772D01*
X2241105Y547306D01*
X2231109Y545640D02*
X2237773D01*
X2231109Y552304D01*
Y553971D01*
X2232775Y555637D01*
X2236107D01*
X2237773Y553971D01*
X2227776D02*
X2226110Y555637D01*
X2222778D01*
X2221112Y553971D01*
Y552304D01*
X2222778Y550638D01*
X2221112Y548972D01*
Y547306D01*
X2222778Y545640D01*
X2226110D01*
X2227776Y547306D01*
Y548972D01*
X2226110Y550638D01*
X2227776Y552304D01*
Y553971D01*
X2226110Y550638D02*
X2222778D01*
X2248189Y518975D02*
X2246523Y520642D01*
Y523974D01*
X2248189Y525640D01*
X2254854D01*
X2256520Y523974D01*
Y520642D01*
X2254854Y518975D01*
X2256520Y515643D02*
Y512311D01*
Y513977D01*
X2246523D01*
X2248189Y515643D01*
Y423975D02*
X2246523Y425642D01*
Y428974D01*
X2248189Y430640D01*
X2254854D01*
X2256520Y428974D01*
Y425642D01*
X2254854Y423975D01*
X2256520Y413979D02*
Y420643D01*
X2249855Y413979D01*
X2248189D01*
X2246523Y415645D01*
Y418977D01*
X2248189Y420643D01*
X2327856Y420971D02*
X2329522Y422637D01*
X2332854D01*
X2334520Y420971D01*
Y414306D01*
X2332854Y412640D01*
X2329522D01*
X2327856Y414306D01*
X2319525Y412640D02*
Y422637D01*
X2324523Y417638D01*
X2317859D01*
X2165189Y423975D02*
X2163523Y425642D01*
Y428974D01*
X2165189Y430640D01*
X2171854D01*
X2173520Y428974D01*
Y425642D01*
X2171854Y423975D01*
X2163523Y413979D02*
Y420643D01*
X2168522D01*
X2166855Y417311D01*
Y415645D01*
X2168522Y413979D01*
X2171854D01*
X2173520Y415645D01*
Y418977D01*
X2171854Y420643D01*
X2166189Y519976D02*
X2164523Y521642D01*
Y524974D01*
X2166189Y526640D01*
X2172854D01*
X2174520Y524974D01*
Y521642D01*
X2172854Y519976D01*
X2164523Y509979D02*
X2166189Y513311D01*
X2169522Y516643D01*
X2172854D01*
X2174520Y514977D01*
Y511645D01*
X2172854Y509979D01*
X2171188D01*
X2169522Y511645D01*
Y516643D01*
X2208189Y518975D02*
X2206523Y520642D01*
Y523974D01*
X2208189Y525640D01*
X2214854D01*
X2216520Y523974D01*
Y520642D01*
X2214854Y518975D01*
X2206523Y515643D02*
Y508979D01*
X2208189D01*
X2214854Y515643D01*
X2216520D01*
X2207189Y423975D02*
X2205523Y425642D01*
Y428974D01*
X2207189Y430640D01*
X2213854D01*
X2215520Y428974D01*
Y425642D01*
X2213854Y423975D01*
X2207189Y420643D02*
X2205523Y418977D01*
Y415645D01*
X2207189Y413979D01*
X2208855D01*
X2210522Y415645D01*
X2212188Y413979D01*
X2213854D01*
X2215520Y415645D01*
Y418977D01*
X2213854Y420643D01*
X2212188D01*
X2210522Y418977D01*
X2208855Y420643D01*
X2207189D01*
X2210522Y418977D02*
Y415645D01*
X2109855Y692971D02*
X2111522Y694637D01*
X2114854D01*
X2116520Y692971D01*
Y686306D01*
X2114854Y684640D01*
X2111522D01*
X2109855Y686306D01*
X2099859Y684640D02*
X2106523D01*
X2099859Y691304D01*
Y692971D01*
X2101525Y694637D01*
X2104857D01*
X2106523Y692971D01*
X2089862Y694637D02*
X2096526D01*
Y689638D01*
X2093194Y691304D01*
X2091528D01*
X2089862Y689638D01*
Y686306D01*
X2091528Y684640D01*
X2094860D01*
X2096526Y686306D01*
X2038855Y537971D02*
X2040522Y539637D01*
X2043854D01*
X2045520Y537971D01*
Y531306D01*
X2043854Y529640D01*
X2040522D01*
X2038855Y531306D01*
X2028859Y529640D02*
X2035523D01*
X2028859Y536305D01*
Y537971D01*
X2030525Y539637D01*
X2033857D01*
X2035523Y537971D01*
X2025526Y531306D02*
X2023860Y529640D01*
X2020528D01*
X2018862Y531306D01*
Y537971D01*
X2020528Y539637D01*
X2023860D01*
X2025526Y537971D01*
Y536305D01*
X2023860Y534638D01*
X2018862D01*
X2127856Y556471D02*
X2129522Y558137D01*
X2132854D01*
X2134520Y556471D01*
Y549806D01*
X2132854Y548140D01*
X2129522D01*
X2127856Y549806D01*
Y553138D01*
X2131188D01*
X2124523Y558137D02*
Y548140D01*
Y551472D01*
X2117859Y558137D01*
X2122857Y553138D01*
X2117859Y548140D01*
X2114527D02*
X2111194D01*
X2112860D01*
Y558137D01*
X2114527Y556471D01*
X2273520Y525640D02*
X2263523D01*
Y520642D01*
X2265189Y518975D01*
X2268522D01*
X2270188Y520642D01*
Y525640D01*
Y522308D02*
X2273520Y518975D01*
Y515643D02*
Y512311D01*
Y513977D01*
X2263523D01*
X2265189Y515643D01*
X2273520Y430640D02*
X2263523D01*
Y425642D01*
X2265189Y423975D01*
X2268522D01*
X2270188Y425642D01*
Y430640D01*
Y427308D02*
X2273520Y423975D01*
Y413979D02*
Y420643D01*
X2266855Y413979D01*
X2265189D01*
X2263523Y415645D01*
Y418977D01*
X2265189Y420643D01*
X2334520Y378640D02*
Y388637D01*
X2329522D01*
X2327856Y386971D01*
Y383638D01*
X2329522Y381972D01*
X2334520D01*
X2331188D02*
X2327856Y378640D01*
X2324523Y386971D02*
X2322857Y388637D01*
X2319525D01*
X2317859Y386971D01*
Y385304D01*
X2319525Y383638D01*
X2321191D01*
X2319525D01*
X2317859Y381972D01*
Y380306D01*
X2319525Y378640D01*
X2322857D01*
X2324523Y380306D01*
X2334520Y430640D02*
Y440637D01*
X2329522D01*
X2327856Y438971D01*
Y435638D01*
X2329522Y433972D01*
X2334520D01*
X2331188D02*
X2327856Y430640D01*
X2319525D02*
Y440637D01*
X2324523Y435638D01*
X2317859D01*
X2191520Y430640D02*
X2181523D01*
Y425642D01*
X2183189Y423975D01*
X2186522D01*
X2188188Y425642D01*
Y430640D01*
Y427308D02*
X2191520Y423975D01*
X2181523Y413979D02*
Y420643D01*
X2186522D01*
X2184855Y417311D01*
Y415645D01*
X2186522Y413979D01*
X2189854D01*
X2191520Y415645D01*
Y418977D01*
X2189854Y420643D01*
X2233520Y525640D02*
X2223523D01*
Y520642D01*
X2225189Y518975D01*
X2228522D01*
X2230188Y520642D01*
Y525640D01*
Y522308D02*
X2233520Y518975D01*
X2223523Y515643D02*
Y508979D01*
X2225189D01*
X2231854Y515643D01*
X2233520D01*
X2232520Y430640D02*
X2222523D01*
Y425642D01*
X2224189Y423975D01*
X2227522D01*
X2229188Y425642D01*
Y430640D01*
Y427308D02*
X2232520Y423975D01*
X2224189Y420643D02*
X2222523Y418977D01*
Y415645D01*
X2224189Y413979D01*
X2225856D01*
X2227522Y415645D01*
X2229188Y413979D01*
X2230854D01*
X2232520Y415645D01*
Y418977D01*
X2230854Y420643D01*
X2229188D01*
X2227522Y418977D01*
X2225856Y420643D01*
X2224189D01*
X2227522Y418977D02*
Y415645D01*
X2070520Y654640D02*
X2060523D01*
Y649642D01*
X2062189Y647975D01*
X2065522D01*
X2067188Y649642D01*
Y654640D01*
Y651308D02*
X2070520Y647975D01*
X2062189Y644643D02*
X2060523Y642977D01*
Y639645D01*
X2062189Y637979D01*
X2063855D01*
X2065522Y639645D01*
Y641311D01*
Y639645D01*
X2067188Y637979D01*
X2068854D01*
X2070520Y639645D01*
Y642977D01*
X2068854Y644643D01*
X2060523Y634646D02*
Y627982D01*
X2062189D01*
X2068854Y634646D01*
X2070520D01*
X2057520Y654640D02*
X2047523D01*
Y649642D01*
X2049189Y647975D01*
X2052522D01*
X2054188Y649642D01*
Y654640D01*
Y651308D02*
X2057520Y647975D01*
X2049189Y644643D02*
X2047523Y642977D01*
Y639645D01*
X2049189Y637979D01*
X2050856D01*
X2052522Y639645D01*
Y641311D01*
Y639645D01*
X2054188Y637979D01*
X2055854D01*
X2057520Y639645D01*
Y642977D01*
X2055854Y644643D01*
X2049189Y634646D02*
X2047523Y632980D01*
Y629648D01*
X2049189Y627982D01*
X2050856D01*
X2052522Y629648D01*
X2054188Y627982D01*
X2055854D01*
X2057520Y629648D01*
Y632980D01*
X2055854Y634646D01*
X2054188D01*
X2052522Y632980D01*
X2050856Y634646D01*
X2049189D01*
X2052522Y632980D02*
Y629648D01*
X2043520Y654640D02*
X2033523D01*
Y649642D01*
X2035189Y647975D01*
X2038522D01*
X2040188Y649642D01*
Y654640D01*
Y651308D02*
X2043520Y647975D01*
X2035189Y644643D02*
X2033523Y642977D01*
Y639645D01*
X2035189Y637979D01*
X2036855D01*
X2038522Y639645D01*
Y641311D01*
Y639645D01*
X2040188Y637979D01*
X2041854D01*
X2043520Y639645D01*
Y642977D01*
X2041854Y644643D01*
Y634646D02*
X2043520Y632980D01*
Y629648D01*
X2041854Y627982D01*
X2035189D01*
X2033523Y629648D01*
Y632980D01*
X2035189Y634646D01*
X2036855D01*
X2038522Y632980D01*
Y627982D01*
X2157520Y431640D02*
X2147523D01*
Y426642D01*
X2149189Y424976D01*
X2152522D01*
X2154188Y426642D01*
Y431640D01*
Y428308D02*
X2157520Y424976D01*
X2149189Y421643D02*
X2147523Y419977D01*
Y416645D01*
X2149189Y414979D01*
X2150856D01*
X2152522Y416645D01*
Y418311D01*
Y416645D01*
X2154188Y414979D01*
X2155854D01*
X2157520Y416645D01*
Y419977D01*
X2155854Y421643D01*
X2147523Y404982D02*
X2149189Y408314D01*
X2152522Y411646D01*
X2155854D01*
X2157520Y409980D01*
Y406648D01*
X2155854Y404982D01*
X2154188D01*
X2152522Y406648D01*
Y411646D01*
X2102520Y469640D02*
Y479637D01*
X2097522D01*
X2095856Y477971D01*
Y474638D01*
X2097522Y472972D01*
X2102520D01*
X2099188D02*
X2095856Y469640D01*
X2087525D02*
Y479637D01*
X2092523Y474638D01*
X2085859D01*
X2075862Y469640D02*
X2082526D01*
X2075862Y476305D01*
Y477971D01*
X2077528Y479637D01*
X2080860D01*
X2082526Y477971D01*
X2125520Y440640D02*
Y450637D01*
X2120522D01*
X2118855Y448971D01*
Y445638D01*
X2120522Y443972D01*
X2125520D01*
X2122188D02*
X2118855Y440640D01*
X2110525D02*
Y450637D01*
X2115523Y445638D01*
X2108859D01*
X2105526Y448971D02*
X2103860Y450637D01*
X2100528D01*
X2098862Y448971D01*
Y447304D01*
X2100528Y445638D01*
X2102194D01*
X2100528D01*
X2098862Y443972D01*
Y442306D01*
X2100528Y440640D01*
X2103860D01*
X2105526Y442306D01*
X2098520Y572890D02*
Y578888D01*
X2095521D01*
X2094521Y577888D01*
Y575889D01*
X2095521Y574889D01*
X2098520D01*
X2096521D02*
X2094521Y572890D01*
X2088523D02*
X2092522D01*
X2088523Y576889D01*
Y577888D01*
X2089523Y578888D01*
X2091522D01*
X2092522Y577888D01*
X2086524Y573890D02*
X2085524Y572890D01*
X2083525D01*
X2082525Y573890D01*
Y577888D01*
X2083525Y578888D01*
X2085524D01*
X2086524Y577888D01*
Y576889D01*
X2085524Y575889D01*
X2082525D01*
X2099270Y561640D02*
Y567638D01*
X2096271D01*
X2095271Y566638D01*
Y564639D01*
X2096271Y563639D01*
X2099270D01*
X2097271D02*
X2095271Y561640D01*
X2093272Y566638D02*
X2092272Y567638D01*
X2090273D01*
X2089273Y566638D01*
Y565639D01*
X2090273Y564639D01*
X2091273D01*
X2090273D01*
X2089273Y563639D01*
Y562640D01*
X2090273Y561640D01*
X2092272D01*
X2093272Y562640D01*
X2087274Y561640D02*
X2085275D01*
X2086274D01*
Y567638D01*
X2087274Y566638D01*
X2101520Y547390D02*
Y553388D01*
X2098521D01*
X2097521Y552388D01*
Y550389D01*
X2098521Y549389D01*
X2101520D01*
X2099521D02*
X2097521Y547390D01*
X2095522Y552388D02*
X2094522Y553388D01*
X2092523D01*
X2091523Y552388D01*
Y551389D01*
X2092523Y550389D01*
X2093523D01*
X2092523D01*
X2091523Y549389D01*
Y548390D01*
X2092523Y547390D01*
X2094522D01*
X2095522Y548390D01*
X2085525Y547390D02*
X2089524D01*
X2085525Y551389D01*
Y552388D01*
X2086525Y553388D01*
X2088524D01*
X2089524Y552388D01*
X2127856Y650971D02*
X2129522Y652637D01*
X2132854D01*
X2134520Y650971D01*
Y644306D01*
X2132854Y642640D01*
X2129522D01*
X2127856Y644306D01*
X2124523Y650971D02*
X2122857Y652637D01*
X2119525D01*
X2117859Y650971D01*
Y649305D01*
X2119525Y647638D01*
X2121191D01*
X2119525D01*
X2117859Y645972D01*
Y644306D01*
X2119525Y642640D01*
X2122857D01*
X2124523Y644306D01*
X2107862Y642640D02*
X2114527D01*
X2107862Y649305D01*
Y650971D01*
X2109528Y652637D01*
X2112860D01*
X2114527Y650971D01*
X2032955Y591515D02*
X2034622Y593181D01*
X2037954D01*
X2039620Y591515D01*
Y584850D01*
X2037954Y583184D01*
X2034622D01*
X2032955Y584850D01*
X2029623Y591515D02*
X2027957Y593181D01*
X2024625D01*
X2022959Y591515D01*
Y589849D01*
X2024625Y588182D01*
X2026291D01*
X2024625D01*
X2022959Y586516D01*
Y584850D01*
X2024625Y583184D01*
X2027957D01*
X2029623Y584850D01*
X2019626Y591515D02*
X2017960Y593181D01*
X2014628D01*
X2012962Y591515D01*
Y589849D01*
X2014628Y588182D01*
X2016294D01*
X2014628D01*
X2012962Y586516D01*
Y584850D01*
X2014628Y583184D01*
X2017960D01*
X2019626Y584850D01*
X2053189Y505975D02*
X2051523Y507642D01*
Y510974D01*
X2053189Y512640D01*
X2059854D01*
X2061520Y510974D01*
Y507642D01*
X2059854Y505975D01*
X2053189Y502643D02*
X2051523Y500977D01*
Y497645D01*
X2053189Y495979D01*
X2054855D01*
X2056522Y497645D01*
Y499311D01*
Y497645D01*
X2058188Y495979D01*
X2059854D01*
X2061520Y497645D01*
Y500977D01*
X2059854Y502643D01*
X2061520Y487648D02*
X2051523D01*
X2056522Y492646D01*
Y485982D01*
X2053855Y430971D02*
X2055522Y432637D01*
X2058854D01*
X2060520Y430971D01*
Y424306D01*
X2058854Y422640D01*
X2055522D01*
X2053855Y424306D01*
X2050523Y430971D02*
X2048857Y432637D01*
X2045525D01*
X2043859Y430971D01*
Y429305D01*
X2045525Y427638D01*
X2047191D01*
X2045525D01*
X2043859Y425972D01*
Y424306D01*
X2045525Y422640D01*
X2048857D01*
X2050523Y424306D01*
X2033862Y432637D02*
X2037194Y430971D01*
X2040526Y427638D01*
Y424306D01*
X2038860Y422640D01*
X2035528D01*
X2033862Y424306D01*
Y425972D01*
X2035528Y427638D01*
X2040526D01*
X2114855Y618971D02*
X2116522Y620637D01*
X2119854D01*
X2121520Y618971D01*
Y612306D01*
X2119854Y610640D01*
X2116522D01*
X2114855Y612306D01*
X2111523Y618971D02*
X2109857Y620637D01*
X2106525D01*
X2104859Y618971D01*
Y617304D01*
X2106525Y615638D01*
X2108191D01*
X2106525D01*
X2104859Y613972D01*
Y612306D01*
X2106525Y610640D01*
X2109857D01*
X2111523Y612306D01*
X2101526Y618971D02*
X2099860Y620637D01*
X2096528D01*
X2094862Y618971D01*
Y617304D01*
X2096528Y615638D01*
X2094862Y613972D01*
Y612306D01*
X2096528Y610640D01*
X2099860D01*
X2101526Y612306D01*
Y613972D01*
X2099860Y615638D01*
X2101526Y617304D01*
Y618971D01*
X2099860Y615638D02*
X2096528D01*
X2291520Y334637D02*
Y326306D01*
X2289854Y324640D01*
X2286522D01*
X2284855Y326306D01*
Y334637D01*
X2274859Y324640D02*
X2281523D01*
X2274859Y331305D01*
Y332971D01*
X2276525Y334637D01*
X2279857D01*
X2281523Y332971D01*
X2317520Y489640D02*
X2307523D01*
Y484642D01*
X2309189Y482976D01*
X2312522D01*
X2314188Y484642D01*
Y489640D01*
Y486308D02*
X2317520Y482976D01*
X2307523Y472979D02*
Y479643D01*
X2312522D01*
X2310856Y476311D01*
Y474645D01*
X2312522Y472979D01*
X2315854D01*
X2317520Y474645D01*
Y477977D01*
X2315854Y479643D01*
X2309189Y469646D02*
X2307523Y467980D01*
Y464648D01*
X2309189Y462982D01*
X2315854D01*
X2317520Y464648D01*
Y467980D01*
X2315854Y469646D01*
X2309189D01*
X2343520Y498640D02*
X2353517D01*
Y503638D01*
X2351851Y505304D01*
X2348518D01*
X2346852Y503638D01*
Y498640D01*
Y501972D02*
X2343520Y505304D01*
Y513635D02*
X2353517D01*
X2348518Y508637D01*
Y515301D01*
X2345186Y518634D02*
X2343520Y520300D01*
Y523632D01*
X2345186Y525298D01*
X2351851D01*
X2353517Y523632D01*
Y520300D01*
X2351851Y518634D01*
X2350184D01*
X2348518Y520300D01*
Y525298D01*
X2177520Y285640D02*
X2167523D01*
Y280642D01*
X2169189Y278976D01*
X2172522D01*
X2174188Y280642D01*
Y285640D01*
Y282308D02*
X2177520Y278976D01*
Y270645D02*
X2167523D01*
X2172522Y275643D01*
Y268979D01*
X2169189Y265646D02*
X2167523Y263980D01*
Y260648D01*
X2169189Y258982D01*
X2170856D01*
X2172522Y260648D01*
X2174188Y258982D01*
X2175854D01*
X2177520Y260648D01*
Y263980D01*
X2175854Y265646D01*
X2174188D01*
X2172522Y263980D01*
X2170856Y265646D01*
X2169189D01*
X2172522Y263980D02*
Y260648D01*
X2142520Y243640D02*
Y253637D01*
X2137522D01*
X2135856Y251971D01*
Y248638D01*
X2137522Y246972D01*
X2142520D01*
X2139188D02*
X2135856Y243640D01*
X2127525D02*
Y253637D01*
X2132523Y248638D01*
X2125859D01*
X2122526Y253637D02*
X2115862D01*
Y251971D01*
X2122526Y245306D01*
Y243640D01*
X2075520Y305640D02*
Y315637D01*
X2070522D01*
X2068855Y313971D01*
Y310638D01*
X2070522Y308972D01*
X2075520D01*
X2072188D02*
X2068855Y305640D01*
X2060525D02*
Y315637D01*
X2065523Y310638D01*
X2058859D01*
X2048862Y315637D02*
X2052194Y313971D01*
X2055526Y310638D01*
Y307306D01*
X2053860Y305640D01*
X2050528D01*
X2048862Y307306D01*
Y308972D01*
X2050528Y310638D01*
X2055526D01*
X2077520Y252640D02*
Y262637D01*
X2072522D01*
X2070856Y260971D01*
Y257638D01*
X2072522Y255972D01*
X2077520D01*
X2074188D02*
X2070856Y252640D01*
X2062525D02*
Y262637D01*
X2067523Y257638D01*
X2060859D01*
X2050862Y262637D02*
X2057526D01*
Y257638D01*
X2054194Y259305D01*
X2052528D01*
X2050862Y257638D01*
Y254306D01*
X2052528Y252640D01*
X2055860D01*
X2057526Y254306D01*
X2024888Y496824D02*
Y506821D01*
X2019890D01*
X2018224Y505155D01*
Y501822D01*
X2019890Y500156D01*
X2024888D01*
X2021556D02*
X2018224Y496824D01*
X2014891D02*
X2011559D01*
X2013225D01*
Y506821D01*
X2014891Y505155D01*
X2006561Y496824D02*
X2003228D01*
X2004894D01*
Y506821D01*
X2006561Y505155D01*
X2160523Y319640D02*
X2170520D01*
Y312976D01*
X2160523Y302979D02*
X2162189Y306311D01*
X2165522Y309643D01*
X2168854D01*
X2170520Y307977D01*
Y304645D01*
X2168854Y302979D01*
X2167188D01*
X2165522Y304645D01*
Y309643D01*
X2095517Y232640D02*
X2085520D01*
Y239305D01*
Y247635D02*
X2095517D01*
X2090518Y242637D01*
Y249301D01*
X2225520Y387637D02*
Y377640D01*
X2218855D01*
X2208859D02*
X2215523D01*
X2208859Y384305D01*
Y385971D01*
X2210525Y387637D01*
X2213857D01*
X2215523Y385971D01*
X2224520Y334637D02*
Y324640D01*
X2217856D01*
X2214523D02*
X2211191D01*
X2212857D01*
Y334637D01*
X2214523Y332971D01*
X2292189Y508975D02*
X2290523Y510642D01*
Y513974D01*
X2292189Y515640D01*
X2298854D01*
X2300520Y513974D01*
Y510642D01*
X2298854Y508975D01*
X2300520Y500645D02*
X2290523D01*
X2295522Y505643D01*
Y498979D01*
X2290523Y488982D02*
X2292189Y492314D01*
X2295522Y495646D01*
X2298854D01*
X2300520Y493980D01*
Y490648D01*
X2298854Y488982D01*
X2297188D01*
X2295522Y490648D01*
Y495646D01*
X2363855Y546971D02*
X2365522Y548637D01*
X2368854D01*
X2370520Y546971D01*
Y540306D01*
X2368854Y538640D01*
X2365522D01*
X2363855Y540306D01*
X2355525Y538640D02*
Y548637D01*
X2360523Y543638D01*
X2353859D01*
X2343862Y548637D02*
X2350526D01*
Y543638D01*
X2347194Y545304D01*
X2345528D01*
X2343862Y543638D01*
Y540306D01*
X2345528Y538640D01*
X2348860D01*
X2350526Y540306D01*
X1993855Y294971D02*
X1995522Y296637D01*
X1998854D01*
X2000520Y294971D01*
Y288306D01*
X1998854Y286640D01*
X1995522D01*
X1993855Y288306D01*
X1985525Y286640D02*
Y296637D01*
X1990523Y291638D01*
X1983859D01*
X1975528Y286640D02*
Y296637D01*
X1980526Y291638D01*
X1973862D01*
X2036189Y252976D02*
X2034523Y254642D01*
Y257974D01*
X2036189Y259640D01*
X2042854D01*
X2044520Y257974D01*
Y254642D01*
X2042854Y252976D01*
X2044520Y244645D02*
X2034523D01*
X2039522Y249643D01*
Y242979D01*
X2044520Y232982D02*
Y239646D01*
X2037856Y232982D01*
X2036189D01*
X2034523Y234648D01*
Y237980D01*
X2036189Y239646D01*
X2072856Y394971D02*
X2074522Y396637D01*
X2077854D01*
X2079520Y394971D01*
Y388306D01*
X2077854Y386640D01*
X2074522D01*
X2072856Y388306D01*
X2062859Y386640D02*
X2069523D01*
X2062859Y393304D01*
Y394971D01*
X2064525Y396637D01*
X2067857D01*
X2069523Y394971D01*
X2054528Y386640D02*
Y396637D01*
X2059526Y391638D01*
X2052862D01*
X2177189Y395975D02*
X2175523Y397642D01*
Y400974D01*
X2177189Y402640D01*
X2183854D01*
X2185520Y400974D01*
Y397642D01*
X2183854Y395975D01*
X2185520Y385979D02*
Y392643D01*
X2178855Y385979D01*
X2177189D01*
X2175523Y387645D01*
Y390977D01*
X2177189Y392643D01*
Y382646D02*
X2175523Y380980D01*
Y377648D01*
X2177189Y375982D01*
X2178855D01*
X2180522Y377648D01*
Y379314D01*
Y377648D01*
X2182188Y375982D01*
X2183854D01*
X2185520Y377648D01*
Y380980D01*
X2183854Y382646D01*
X2192189Y395975D02*
X2190523Y397642D01*
Y400974D01*
X2192189Y402640D01*
X2198854D01*
X2200520Y400974D01*
Y397642D01*
X2198854Y395975D01*
X2200520Y385979D02*
Y392643D01*
X2193855Y385979D01*
X2192189D01*
X2190523Y387645D01*
Y390977D01*
X2192189Y392643D01*
X2200520Y375982D02*
Y382646D01*
X2193855Y375982D01*
X2192189D01*
X2190523Y377648D01*
Y380980D01*
X2192189Y382646D01*
X2246189Y393975D02*
X2244523Y395642D01*
Y398974D01*
X2246189Y400640D01*
X2252854D01*
X2254520Y398974D01*
Y395642D01*
X2252854Y393975D01*
X2254520Y383979D02*
Y390643D01*
X2247856Y383979D01*
X2246189D01*
X2244523Y385645D01*
Y388977D01*
X2246189Y390643D01*
X2254520Y380646D02*
Y377314D01*
Y378980D01*
X2244523D01*
X2246189Y380646D01*
X2322189Y362976D02*
X2320523Y364642D01*
Y367974D01*
X2322189Y369640D01*
X2328854D01*
X2330520Y367974D01*
Y364642D01*
X2328854Y362976D01*
X2330520Y352979D02*
Y359643D01*
X2323855Y352979D01*
X2322189D01*
X2320523Y354645D01*
Y357977D01*
X2322189Y359643D01*
Y349646D02*
X2320523Y347980D01*
Y344648D01*
X2322189Y342982D01*
X2328854D01*
X2330520Y344648D01*
Y347980D01*
X2328854Y349646D01*
X2322189D01*
X1996888Y545541D02*
X1998554Y547207D01*
X2001886D01*
X2003552Y545541D01*
Y538876D01*
X2001886Y537210D01*
X1998554D01*
X1996888Y538876D01*
X1993555Y537210D02*
X1990223D01*
X1991889D01*
Y547207D01*
X1993555Y545541D01*
X1985225Y538876D02*
X1983558Y537210D01*
X1980226D01*
X1978560Y538876D01*
Y545541D01*
X1980226Y547207D01*
X1983558D01*
X1985225Y545541D01*
Y543875D01*
X1983558Y542208D01*
X1978560D01*
X1952856Y560971D02*
X1954522Y562637D01*
X1957854D01*
X1959520Y560971D01*
Y554306D01*
X1957854Y552640D01*
X1954522D01*
X1952856Y554306D01*
X1949523Y552640D02*
X1946191D01*
X1947857D01*
Y562637D01*
X1949523Y560971D01*
X1936194Y552640D02*
Y562637D01*
X1941193Y557638D01*
X1934528D01*
X1913855Y561971D02*
X1915522Y563637D01*
X1918854D01*
X1920520Y561971D01*
Y555306D01*
X1918854Y553640D01*
X1915522D01*
X1913855Y555306D01*
X1910523Y553640D02*
X1907191D01*
X1908857D01*
Y563637D01*
X1910523Y561971D01*
X1895528Y553640D02*
X1902193D01*
X1895528Y560304D01*
Y561971D01*
X1897194Y563637D01*
X1900526D01*
X1902193Y561971D01*
X1910689Y253976D02*
X1909023Y255642D01*
Y258974D01*
X1910689Y260640D01*
X1917354D01*
X1919020Y258974D01*
Y255642D01*
X1917354Y253976D01*
Y250643D02*
X1919020Y248977D01*
Y245645D01*
X1917354Y243979D01*
X1910689D01*
X1909023Y245645D01*
Y248977D01*
X1910689Y250643D01*
X1912355D01*
X1914022Y248977D01*
Y243979D01*
X1898855Y368971D02*
X1900522Y370637D01*
X1903854D01*
X1905520Y368971D01*
Y362306D01*
X1903854Y360640D01*
X1900522D01*
X1898855Y362306D01*
X1895523Y360640D02*
X1892191D01*
X1893857D01*
Y370637D01*
X1895523Y368971D01*
X1887193Y360640D02*
X1883860D01*
X1885526D01*
Y370637D01*
X1887193Y368971D01*
X2190520Y526640D02*
X2180523D01*
Y521642D01*
X2182189Y519976D01*
X2185522D01*
X2187188Y521642D01*
Y526640D01*
Y523308D02*
X2190520Y519976D01*
X2180523Y509979D02*
X2182189Y513311D01*
X2185522Y516643D01*
X2188854D01*
X2190520Y514977D01*
Y511645D01*
X2188854Y509979D01*
X2187188D01*
X2185522Y511645D01*
Y516643D01*
X2098520Y583640D02*
Y589638D01*
X2095521D01*
X2094521Y588638D01*
Y586639D01*
X2095521Y585639D01*
X2098520D01*
X2096521D02*
X2094521Y583640D01*
X2088523D02*
X2092522D01*
X2088523Y587639D01*
Y588638D01*
X2089523Y589638D01*
X2091522D01*
X2092522Y588638D01*
X2086524D02*
X2085524Y589638D01*
X2083525D01*
X2082525Y588638D01*
Y587639D01*
X2083525Y586639D01*
X2082525Y585639D01*
Y584640D01*
X2083525Y583640D01*
X2085524D01*
X2086524Y584640D01*
Y585639D01*
X2085524Y586639D01*
X2086524Y587639D01*
Y588638D01*
X2085524Y586639D02*
X2083525D01*
X2327856Y403971D02*
X2329522Y405637D01*
X2332854D01*
X2334520Y403971D01*
Y397306D01*
X2332854Y395640D01*
X2329522D01*
X2327856Y397306D01*
X2324523Y403971D02*
X2322857Y405637D01*
X2319525D01*
X2317859Y403971D01*
Y402304D01*
X2319525Y400638D01*
X2321191D01*
X2319525D01*
X2317859Y398972D01*
Y397306D01*
X2319525Y395640D01*
X2322857D01*
X2324523Y397306D01*
X2306320Y730341D02*
X2299655Y720344D01*
Y730341D02*
X2306320Y720344D01*
X2289659D02*
X2296323D01*
X2289659Y727009D01*
Y728675D01*
X2291325Y730341D01*
X2294657D01*
X2296323Y728675D01*
X2257856Y314971D02*
X2259522Y316637D01*
X2262854D01*
X2264520Y314971D01*
Y308306D01*
X2262854Y306640D01*
X2259522D01*
X2257856Y308306D01*
X2254523Y314971D02*
X2252857Y316637D01*
X2249525D01*
X2247859Y314971D01*
Y313305D01*
X2249525Y311638D01*
X2251191D01*
X2249525D01*
X2247859Y309972D01*
Y308306D01*
X2249525Y306640D01*
X2252857D01*
X2254523Y308306D01*
X2244526Y314971D02*
X2242860Y316637D01*
X2239528D01*
X2237862Y314971D01*
Y308306D01*
X2239528Y306640D01*
X2242860D01*
X2244526Y308306D01*
Y314971D01*
X1904520Y385637D02*
Y375640D01*
X1897856D01*
X1894523Y383971D02*
X1892857Y385637D01*
X1889525D01*
X1887859Y383971D01*
Y382304D01*
X1889525Y380638D01*
X1891191D01*
X1889525D01*
X1887859Y378972D01*
Y377306D01*
X1889525Y375640D01*
X1892857D01*
X1894523Y377306D01*
X2066520Y359640D02*
X2056523D01*
Y354642D01*
X2058189Y352976D01*
X2061522D01*
X2063188Y354642D01*
Y359640D01*
Y356308D02*
X2066520Y352976D01*
X2058189Y349643D02*
X2056523Y347977D01*
Y344645D01*
X2058189Y342979D01*
X2059855D01*
X2061522Y344645D01*
Y346311D01*
Y344645D01*
X2063188Y342979D01*
X2064854D01*
X2066520Y344645D01*
Y347977D01*
X2064854Y349643D01*
X2066520Y334648D02*
X2056523D01*
X2061522Y339646D01*
Y332982D01*
X2104520Y359640D02*
X2094523D01*
Y354642D01*
X2096189Y352976D01*
X2099522D01*
X2101188Y354642D01*
Y359640D01*
Y356308D02*
X2104520Y352976D01*
X2096189Y349643D02*
X2094523Y347977D01*
Y344645D01*
X2096189Y342979D01*
X2097856D01*
X2099522Y344645D01*
Y346311D01*
Y344645D01*
X2101188Y342979D01*
X2102854D01*
X2104520Y344645D01*
Y347977D01*
X2102854Y349643D01*
X2094523Y332982D02*
Y339646D01*
X2099522D01*
X2097856Y336314D01*
Y334648D01*
X2099522Y332982D01*
X2102854D01*
X2104520Y334648D01*
Y337980D01*
X2102854Y339646D01*
X2026520Y624640D02*
X2016523D01*
Y619642D01*
X2018189Y617976D01*
X2021522D01*
X2023188Y619642D01*
Y624640D01*
Y621308D02*
X2026520Y617976D01*
Y614643D02*
Y611311D01*
Y612977D01*
X2016523D01*
X2018189Y614643D01*
X2016523Y599648D02*
X2018189Y602980D01*
X2021522Y606313D01*
X2024854D01*
X2026520Y604646D01*
Y601314D01*
X2024854Y599648D01*
X2023188D01*
X2021522Y601314D01*
Y606313D01*
X1895795Y317957D02*
X1897462Y319623D01*
X1900794D01*
X1902460Y317957D01*
Y311292D01*
X1900794Y309626D01*
X1897462D01*
X1895795Y311292D01*
X1892463Y309626D02*
X1889131D01*
X1890797D01*
Y319623D01*
X1892463Y317957D01*
X1884133D02*
X1882466Y319623D01*
X1879134D01*
X1877468Y317957D01*
Y311292D01*
X1879134Y309626D01*
X1882466D01*
X1884133Y311292D01*
Y317957D01*
D15*
X2199090Y558260D02*
X2205440D01*
X2199090Y543020D02*
X2205440D01*
X2218140Y544290D02*
Y556990D01*
X2186390Y544290D02*
Y556990D01*
X2053158Y545565D02*
Y555565D01*
X2082770Y545640D02*
Y555640D01*
X2065520Y544640D02*
X2070520D01*
X2065520Y556640D02*
X2070520D01*
X2061870Y542260D02*
X2068220D01*
X2061870Y527020D02*
X2068220D01*
X2080920Y528290D02*
Y540990D01*
X2049170Y528290D02*
Y540990D01*
X2065520Y569640D02*
X2070520D01*
X2065520Y557640D02*
X2070520D01*
X2082770Y558640D02*
Y568640D01*
X2053158Y558565D02*
Y568565D01*
X1925870Y569290D02*
Y581990D01*
X1894120Y569290D02*
Y581990D01*
X1906820Y583260D02*
X1913170D01*
X1906820Y568020D02*
X1913170D01*
X1943820D02*
X1950170D01*
X1943820Y583260D02*
X1950170D01*
X1931120Y569290D02*
Y581990D01*
X1962870Y569290D02*
Y581990D01*
X2016445Y657002D02*
X2026445D01*
X2016520Y627390D02*
X2026520D01*
X2015520Y639640D02*
Y644640D01*
X2027520Y639640D02*
Y644640D01*
X2047520Y606640D02*
Y611640D01*
X2059520Y606640D02*
Y611640D01*
X2048520Y623890D02*
X2058520D01*
X2048595Y594278D02*
X2058595D01*
X2062595D02*
X2072595D01*
X2062520Y623890D02*
X2072520D01*
X2073520Y606640D02*
Y611640D01*
X2061520Y606640D02*
Y611640D01*
X2075520Y606640D02*
Y611640D01*
X2087520Y606640D02*
Y611640D01*
X2076520Y623890D02*
X2086520D01*
X2076595Y594278D02*
X2086595D01*
X2103870Y625290D02*
Y637990D01*
X2072120Y625290D02*
Y637990D01*
X2084820Y639260D02*
X2091170D01*
X2084820Y624020D02*
X2091170D01*
X2106170Y625290D02*
Y637990D01*
X2137920Y625290D02*
Y637990D01*
X2118870Y624020D02*
X2125220D01*
X2118870Y639260D02*
X2125220D01*
X2086170Y679990D02*
X2098870D01*
X2086170Y648240D02*
X2098870D01*
X2084900Y660940D02*
Y667290D01*
X2100140Y660940D02*
Y667290D01*
X2115520Y588640D02*
X2120520D01*
X2115520Y576640D02*
X2120520D01*
X2132770Y577640D02*
Y587640D01*
X2103158Y577565D02*
Y587565D01*
Y563565D02*
Y573565D01*
X2132770Y563640D02*
Y573640D01*
X2115520Y562640D02*
X2120520D01*
X2115520Y574640D02*
X2120520D01*
X2066170Y515990D02*
X2078870D01*
X2066170Y484240D02*
X2078870D01*
X2064900Y496940D02*
Y503290D01*
X2080140Y496940D02*
Y503290D01*
X2147595Y435278D02*
X2157595D01*
X2147520Y464890D02*
X2157520D01*
X2158520Y447640D02*
Y452640D01*
X2146520Y447640D02*
Y452640D01*
X2096870Y420290D02*
Y432990D01*
X2065120Y420290D02*
Y432990D01*
X2077820Y434260D02*
X2084170D01*
X2077820Y419020D02*
X2084170D01*
X2108520Y466640D02*
X2113520D01*
X2108520Y454640D02*
X2113520D01*
X2125770Y455640D02*
Y465640D01*
X2096158Y455565D02*
Y465565D01*
X2117520Y480640D02*
X2122520D01*
X2117520Y468640D02*
X2122520D01*
X2134770Y469640D02*
Y479640D01*
X2105158Y469565D02*
Y479565D01*
X2219900Y447990D02*
Y454340D01*
X2235140Y447990D02*
Y454340D01*
X2221170Y467040D02*
X2233870D01*
X2221170Y435290D02*
X2233870D01*
X2204170Y466990D02*
X2216870D01*
X2204170Y435240D02*
X2216870D01*
X2202900Y447940D02*
Y454290D01*
X2218140Y447940D02*
Y454290D01*
X2177140Y447940D02*
Y454290D01*
X2161900Y447940D02*
Y454290D01*
X2163170Y435240D02*
X2175870D01*
X2163170Y466990D02*
X2175870D01*
X2180170Y435290D02*
X2192870D01*
X2180170Y467040D02*
X2192870D01*
X2194140Y447990D02*
Y454340D01*
X2178900Y447990D02*
Y454340D01*
X2163170Y472290D02*
X2175870D01*
X2163170Y504040D02*
X2175870D01*
X2177140Y484990D02*
Y491340D01*
X2161900Y484990D02*
Y491340D01*
X2193140Y484940D02*
Y491290D01*
X2177900Y484940D02*
Y491290D01*
X2179170Y472240D02*
X2191870D01*
X2179170Y503990D02*
X2191870D01*
X2202900Y484990D02*
Y491340D01*
X2218140Y484990D02*
Y491340D01*
X2204170Y504040D02*
X2216870D01*
X2204170Y472290D02*
X2216870D01*
X2221170Y503990D02*
X2233870D01*
X2221170Y472240D02*
X2233870D01*
X2219900Y484940D02*
Y491290D01*
X2235140Y484940D02*
Y491290D01*
X2289170Y551990D02*
X2301870D01*
X2289170Y520240D02*
X2301870D01*
X2287900Y532940D02*
Y539290D01*
X2303140Y532940D02*
Y539290D01*
X2319870Y551260D02*
X2326220D01*
X2319870Y536020D02*
X2326220D01*
X2338920Y537290D02*
Y549990D01*
X2307170Y537290D02*
Y549990D01*
X2306520Y508790D02*
Y513790D01*
X2318520Y508790D02*
Y513790D01*
X2307520Y526040D02*
X2317520D01*
X2307595Y496428D02*
X2317595D01*
X2293870Y443260D02*
X2300220D01*
X2293870Y428020D02*
X2300220D01*
X2312920Y429290D02*
Y441990D01*
X2281170Y429290D02*
Y441990D01*
X2312870Y412186D02*
Y424886D01*
X2281120Y412186D02*
Y424886D01*
X2293820Y426156D02*
X2300170D01*
X2293820Y410916D02*
X2300170D01*
X2293820Y393916D02*
X2300170D01*
X2293820Y409156D02*
X2300170D01*
X2281120Y395186D02*
Y407886D01*
X2312870Y395186D02*
Y407886D01*
X2281170Y378186D02*
Y390886D01*
X2312920Y378186D02*
Y390886D01*
X2293870Y376916D02*
X2300220D01*
X2293870Y392156D02*
X2300220D01*
X2299900Y353990D02*
Y360340D01*
X2315140Y353990D02*
Y360340D01*
X2301170Y373040D02*
X2313870D01*
X2301170Y341290D02*
X2313870D01*
X2243170Y373040D02*
X2255870D01*
X2243170Y341290D02*
X2255870D01*
X2241900Y353990D02*
Y360340D01*
X2257140Y353990D02*
Y360340D01*
X2246870Y337260D02*
X2253220D01*
X2246870Y322020D02*
X2253220D01*
X2265920Y323290D02*
Y335990D01*
X2234170Y323290D02*
Y335990D01*
X2218870Y356310D02*
X2225220D01*
X2218870Y341070D02*
X2225220D01*
X2237920Y342340D02*
Y355040D01*
X2206170Y342340D02*
Y355040D01*
X2203140Y353990D02*
Y360340D01*
X2187900Y353990D02*
Y360340D01*
X2189170Y341290D02*
X2201870D01*
X2189170Y373040D02*
X2201870D01*
X2172170D02*
X2184870D01*
X2172170Y341290D02*
X2184870D01*
X2170900Y353990D02*
Y360340D01*
X2186140Y353990D02*
Y360340D01*
X2012900Y244990D02*
Y251340D01*
X2028140Y244990D02*
Y251340D01*
X2014170Y264040D02*
X2026870D01*
X2014170Y232290D02*
X2026870D01*
X2094595Y365278D02*
X2104595D01*
X2094520Y394890D02*
X2104520D01*
X2105520Y377640D02*
Y382640D01*
X2093520Y377640D02*
Y382640D01*
X2071595Y335278D02*
X2081595D01*
X2071520Y364890D02*
X2081520D01*
X2082520Y347640D02*
Y352640D01*
X2070520Y347640D02*
Y352640D01*
X2063870Y382260D02*
X2070220D01*
X2063870Y367020D02*
X2070220D01*
X2082920Y368290D02*
Y380990D01*
X2051170Y368290D02*
Y380990D01*
X1893870Y425260D02*
X1900220D01*
X1893870Y410020D02*
X1900220D01*
X1912920Y411290D02*
Y423990D01*
X1881170Y411290D02*
Y423990D01*
X2245170Y466990D02*
X2257870D01*
X2245170Y435240D02*
X2257870D01*
X2243900Y447940D02*
Y454290D01*
X2259140Y447940D02*
Y454290D01*
X2243900Y484990D02*
Y491340D01*
X2259140Y484990D02*
Y491340D01*
X2245170Y504040D02*
X2257870D01*
X2245170Y472290D02*
X2257870D01*
X2260900Y447990D02*
Y454340D01*
X2276140Y447990D02*
Y454340D01*
X2262170Y467040D02*
X2274870D01*
X2262170Y435290D02*
X2274870D01*
X2262170Y503990D02*
X2274870D01*
X2262170Y472240D02*
X2274870D01*
X2260900Y484940D02*
Y491290D01*
X2276140Y484940D02*
Y491290D01*
X2009170Y561290D02*
Y573990D01*
X2040920Y561290D02*
Y573990D01*
X2021870Y560020D02*
X2028220D01*
X2021870Y575260D02*
X2028220D01*
X2326520Y508790D02*
Y513790D01*
X2338520Y508790D02*
Y513790D01*
X2327520Y526040D02*
X2337520D01*
X2327595Y496428D02*
X2337595D01*
X2164140Y269940D02*
Y276290D01*
X2148900Y269940D02*
Y276290D01*
X2150170Y257240D02*
X2162870D01*
X2150170Y288990D02*
X2162870D01*
X2130170D02*
X2142870D01*
X2130170Y257240D02*
X2142870D01*
X2128900Y269940D02*
Y276290D01*
X2144140Y269940D02*
Y276290D01*
X2041870Y302260D02*
X2048220D01*
X2041870Y287020D02*
X2048220D01*
X2060920Y288290D02*
Y300990D01*
X2029170Y288290D02*
Y300990D01*
Y266290D02*
Y278990D01*
X2060920Y266290D02*
Y278990D01*
X2041870Y265020D02*
X2048220D01*
X2041870Y280260D02*
X2048220D01*
X2026140Y469940D02*
Y476290D01*
X2010900Y469940D02*
Y476290D01*
X2012170Y457240D02*
X2024870D01*
X2012170Y488990D02*
X2024870D01*
X2218870Y374310D02*
X2225220D01*
X2218870Y359070D02*
X2225220D01*
X2237920Y360340D02*
Y373040D01*
X2206170Y360340D02*
Y373040D01*
X1985820Y514020D02*
X1992170D01*
X1985820Y529260D02*
X1992170D01*
X1973120Y515290D02*
Y527990D01*
X2004870Y515290D02*
Y527990D01*
X1881170Y392290D02*
Y404990D01*
X1912920Y392290D02*
Y404990D01*
X1893870Y391020D02*
X1900220D01*
X1893870Y406260D02*
X1900220D01*
D176*
X2259270Y340690D02*
X2298270D01*
X2259270D02*
Y374690D01*
X2298270D01*
Y340690D02*
Y374690D01*
X1864310Y674534D02*
X1869644D01*
X1864564Y674788D02*
X1869390D01*
X1865072Y675042D02*
X1868882D01*
X1865580Y675296D02*
X1868374D01*
X1866850Y675550D02*
X1867104D01*
X1863802Y674026D02*
X1870152D01*
X1864056Y674280D02*
X1869898D01*
X1863040Y669962D02*
X1865834D01*
X1863040Y670216D02*
X1865580D01*
X1863040Y670470D02*
X1865326D01*
X1863040Y670724D02*
X1865326D01*
X1862786Y670978D02*
X1865072D01*
X1862786Y671232D02*
X1865072D01*
X1862786Y671486D02*
X1865072D01*
X1862786Y671740D02*
X1865072D01*
X1862786Y671994D02*
X1865072D01*
X1863040Y672248D02*
X1865326D01*
X1863040Y672502D02*
X1865326D01*
X1863040Y672756D02*
X1865580D01*
X1864056Y668438D02*
X1869898D01*
X1863802Y668692D02*
X1870152D01*
X1863294Y669708D02*
X1866088D01*
X1863294Y673010D02*
X1865834D01*
X1866088Y667422D02*
X1867866D01*
X1865326Y667676D02*
X1868628D01*
X1864818Y667930D02*
X1869136D01*
X1864564Y668184D02*
X1869390D01*
X1863294Y673264D02*
X1866596D01*
X1863548Y673772D02*
X1870406D01*
X1863802Y668946D02*
X1870406D01*
X1863548Y669200D02*
X1870406D01*
X1863294Y669454D02*
X1870660D01*
X1867866Y669708D02*
X1870660D01*
X1868120Y669962D02*
X1870914D01*
X1868374Y670216D02*
X1870914D01*
X1868374Y672756D02*
X1870914D01*
X1868120Y673010D02*
X1870914D01*
X1867358Y673264D02*
X1870660D01*
X1863548Y673518D02*
X1870660D01*
X1930604Y666152D02*
X1933906D01*
X1930350Y665898D02*
X1933398D01*
X1930858Y666406D02*
X1934160D01*
X1942288Y674534D02*
X1948384D01*
X1942796Y674788D02*
X1949146D01*
X1943304Y675042D02*
X1950162D01*
X1944066Y675296D02*
X1951178D01*
X1940764Y673772D02*
X1946352D01*
X1941272Y674026D02*
X1946860D01*
X1941780Y674280D02*
X1947622D01*
X1939494Y673010D02*
X1944320D01*
X1940002Y673264D02*
X1945082D01*
X1934922Y669962D02*
X1938732D01*
X1935176Y670216D02*
X1939240D01*
X1938986Y672756D02*
X1943812D01*
X1944574Y675550D02*
X1952194D01*
X1945336Y675804D02*
X1953464D01*
X1940256Y673518D02*
X1945590D01*
X1955496Y678344D02*
X1965656D01*
X1958290Y678598D02*
X1962608D01*
X1963116Y676312D02*
X1974292D01*
X1965656Y676058D02*
X1974800D01*
X1987246Y665898D02*
X1990294D01*
X1986992Y666152D02*
X1990040D01*
X1984960Y667930D02*
X1988262D01*
X1984706Y668184D02*
X1988008D01*
X1984452Y668438D02*
X1987754D01*
X1983944Y668692D02*
X1987500D01*
X1983690Y668946D02*
X1986992D01*
X1983436Y669200D02*
X1986738D01*
X1982928Y669454D02*
X1986484D01*
X1982674Y669708D02*
X1986230D01*
X1982166Y669962D02*
X1985722D01*
X1981912Y670216D02*
X1985468D01*
X1981404Y670470D02*
X1985214D01*
X1981150Y670724D02*
X1984706D01*
X1976832Y673010D02*
X1981150D01*
X1976070Y673264D02*
X1980896D01*
X1980642Y670978D02*
X1984452D01*
X1980134Y671232D02*
X1984198D01*
X1979880Y671486D02*
X1983690D01*
X1977848Y672502D02*
X1982166D01*
X1977340Y672756D02*
X1981658D01*
X1979372Y671740D02*
X1983436D01*
X1978864Y671994D02*
X1982928D01*
X1978356Y672248D02*
X1982420D01*
X1986738Y666406D02*
X1989786D01*
X1986484Y666660D02*
X1989532D01*
X1986230Y666914D02*
X1989278D01*
X1985976Y667168D02*
X1989024D01*
X1985722Y667422D02*
X1988770D01*
X1985468Y667676D02*
X1988516D01*
X1975562Y673518D02*
X1980388D01*
X1866342Y645578D02*
X1867612D01*
X1866342Y645832D02*
X1867358D01*
X1863040Y651166D02*
X1864056D01*
X1863040Y651420D02*
X1864056D01*
X1865072Y647864D02*
X1866088D01*
X1866342D02*
X1867358D01*
X1864818Y648118D02*
X1866088D01*
X1866596D02*
X1867612D01*
X1864818Y648372D02*
X1865834D01*
X1866596D02*
X1867612D01*
X1864564Y648626D02*
X1865580D01*
X1866850D02*
X1867866D01*
X1864564Y648880D02*
X1865580D01*
X1866850D02*
X1868120D01*
X1864310Y649134D02*
X1865326D01*
X1867104D02*
X1868120D01*
X1864056Y649388D02*
X1865326D01*
X1867358D02*
X1868374D01*
X1864056Y649642D02*
X1865072D01*
X1867358D02*
X1868374D01*
X1866088Y646086D02*
X1867104D01*
X1866088Y646340D02*
X1867104D01*
X1865834Y646594D02*
X1866850D01*
X1865580Y646848D02*
X1866850D01*
X1865580Y647102D02*
X1867104D01*
X1865326Y647356D02*
X1867104D01*
X1865326Y647610D02*
X1867358D01*
X1863802Y649896D02*
X1864818D01*
X1867612D02*
X1868628D01*
X1863802Y650150D02*
X1864818D01*
X1867612D02*
X1868882D01*
X1863548Y650404D02*
X1864564D01*
X1867866D02*
X1868882D01*
X1863294Y650658D02*
X1864564D01*
X1868120D02*
X1869136D01*
X1863294Y650912D02*
X1864310D01*
X1868120D02*
X1869136D01*
X1868374Y651166D02*
X1869390D01*
X1868374Y651420D02*
X1869644D01*
X1891234Y656246D02*
X1893520D01*
X1891234Y656500D02*
X1893520D01*
X1891234Y656754D02*
X1893520D01*
X1891234Y657008D02*
X1893520D01*
X1891234Y657262D02*
X1893520D01*
X1891234Y657516D02*
X1893520D01*
X1882344Y645578D02*
X1883106D01*
X1882344Y645832D02*
X1883106D01*
X1874216Y645578D02*
X1875232D01*
X1874216Y645832D02*
X1875232D01*
X1877518Y645578D02*
X1878534D01*
X1877518Y645832D02*
X1878534D01*
X1882344Y646086D02*
X1883106D01*
X1882344Y646340D02*
X1883106D01*
X1882344Y646594D02*
X1883106D01*
X1882344Y646848D02*
X1883106D01*
X1882344Y647102D02*
X1883106D01*
X1882344Y647356D02*
X1883106D01*
X1882344Y648372D02*
X1883106D01*
X1882344Y648626D02*
X1883106D01*
X1882344Y648880D02*
X1883106D01*
X1882344Y649134D02*
X1883106D01*
X1882344Y649388D02*
X1883106D01*
X1882344Y649642D02*
X1883106D01*
X1882344Y649896D02*
X1883106D01*
X1882344Y650150D02*
X1883106D01*
X1882344Y650404D02*
X1883106D01*
X1882344Y650658D02*
X1883106D01*
X1882344Y650912D02*
X1883106D01*
X1882344Y651166D02*
X1883106D01*
X1882344Y651420D02*
X1883106D01*
X1877518Y647610D02*
X1883106D01*
X1877518Y647864D02*
X1883106D01*
X1877518Y648118D02*
X1883106D01*
X1874216Y647610D02*
X1875232D01*
X1874216Y647864D02*
X1875232D01*
X1874216Y648118D02*
X1875232D01*
X1874216Y648372D02*
X1875232D01*
X1874216Y648626D02*
X1875232D01*
X1874216Y648880D02*
X1875232D01*
X1874216Y649134D02*
X1875232D01*
X1874216Y649388D02*
X1875232D01*
X1874216Y649642D02*
X1875232D01*
X1874216Y646086D02*
X1875232D01*
X1874216Y646340D02*
X1875232D01*
X1874216Y646594D02*
X1875232D01*
X1874216Y646848D02*
X1875232D01*
X1874216Y647102D02*
X1875232D01*
X1874216Y647356D02*
X1875232D01*
X1874216Y649896D02*
X1875232D01*
X1874216Y650150D02*
X1875232D01*
X1874216Y650404D02*
X1875232D01*
X1874216Y650658D02*
X1875232D01*
X1877518Y646848D02*
X1878534D01*
X1877518Y647102D02*
X1878534D01*
X1877518Y647356D02*
X1878534D01*
X1877518Y648372D02*
X1878534D01*
X1877518Y648626D02*
X1878534D01*
X1877518Y648880D02*
X1878534D01*
X1877518Y649134D02*
X1878534D01*
X1877518Y649388D02*
X1878534D01*
X1877518Y649642D02*
X1878534D01*
X1877518Y649896D02*
X1878534D01*
X1877518Y650150D02*
X1878534D01*
X1877518Y650404D02*
X1878534D01*
X1877518Y650658D02*
X1878534D01*
X1877518Y650912D02*
X1878534D01*
X1877518Y651166D02*
X1878534D01*
X1877518Y651420D02*
X1878534D01*
X1877518Y646086D02*
X1878534D01*
X1877518Y646340D02*
X1878534D01*
X1877518Y646594D02*
X1878534D01*
X1894282Y660818D02*
X1896568D01*
X1896822Y658024D02*
X1899362D01*
X1896568Y658278D02*
X1899108D01*
X1896314Y658532D02*
X1899108D01*
X1896314Y655230D02*
X1899108D01*
X1896568Y655484D02*
X1899108D01*
X1922222Y654214D02*
X1924762D01*
X1922476Y654468D02*
X1925016D01*
X1922476Y654722D02*
X1925016D01*
X1922730Y654976D02*
X1925270D01*
X1922730Y655230D02*
X1925270D01*
X1922984Y655484D02*
X1925524D01*
X1921968Y653452D02*
X1924508D01*
X1921968Y653706D02*
X1924508D01*
X1922222Y653960D02*
X1924762D01*
X1926540Y661326D02*
X1929334D01*
X1926540Y661580D02*
X1929588D01*
X1926794Y661834D02*
X1929588D01*
X1927048Y662088D02*
X1929842D01*
X1927302Y662342D02*
X1930096D01*
X1927302Y662596D02*
X1930350D01*
X1927556Y662850D02*
X1930604D01*
X1927810Y663104D02*
X1930858D01*
X1928064Y663358D02*
X1930858D01*
X1928318Y663612D02*
X1931112D01*
X1926032Y660818D02*
X1928826D01*
X1926286Y661072D02*
X1929080D01*
X1924254Y658024D02*
X1926794D01*
X1924508Y658278D02*
X1927048D01*
X1924508Y658532D02*
X1927302D01*
X1924762Y658786D02*
X1927302D01*
X1925016Y659040D02*
X1927556D01*
X1925016Y659294D02*
X1927810D01*
X1925270Y659548D02*
X1928064D01*
X1925270Y659802D02*
X1928064D01*
X1925524Y660056D02*
X1928318D01*
X1925778Y660310D02*
X1928572D01*
X1926032Y660564D02*
X1928572D01*
X1919428Y645578D02*
X1921714D01*
X1919428Y645832D02*
X1921714D01*
X1921206Y651674D02*
X1923746D01*
X1921206Y651928D02*
X1923746D01*
X1921460Y652182D02*
X1923746D01*
X1921460Y652436D02*
X1924000D01*
X1921714Y652690D02*
X1924000D01*
X1921714Y652944D02*
X1924254D01*
X1919428Y646086D02*
X1921714D01*
X1919428Y646340D02*
X1921968D01*
X1919682Y646594D02*
X1921968D01*
X1919682Y646848D02*
X1921968D01*
X1919682Y647102D02*
X1921968D01*
X1919682Y647356D02*
X1922222D01*
X1919936Y647610D02*
X1922222D01*
X1919936Y647864D02*
X1922222D01*
X1919936Y648118D02*
X1922476D01*
X1920190Y648372D02*
X1922476D01*
X1920190Y648626D02*
X1922476D01*
X1920190Y648880D02*
X1922476D01*
X1920444Y649134D02*
X1922730D01*
X1920444Y649388D02*
X1922730D01*
X1920444Y649642D02*
X1922984D01*
X1920444Y649896D02*
X1922984D01*
X1920698Y650150D02*
X1922984D01*
X1920698Y650404D02*
X1923238D01*
X1920952Y650658D02*
X1923238D01*
X1920952Y650912D02*
X1923238D01*
X1920952Y651166D02*
X1923492D01*
X1921206Y651420D02*
X1923492D01*
X1928572Y663866D02*
X1931366D01*
X1928572Y664120D02*
X1931620D01*
X1928826Y664374D02*
X1931874D01*
X1929080Y664628D02*
X1932128D01*
X1929334Y664882D02*
X1932382D01*
X1929588Y665136D02*
X1932636D01*
X1921714Y653198D02*
X1924254D01*
X1940764Y657770D02*
X1944066D01*
X1941018Y658024D02*
X1944574D01*
X1941272Y658278D02*
X1944828D01*
X1941526Y658532D02*
X1945082D01*
X1941780Y658786D02*
X1945590D01*
X1942034Y659040D02*
X1945844D01*
X1942542Y659294D02*
X1946352D01*
X1942796Y659548D02*
X1946860D01*
X1943050Y659802D02*
X1947114D01*
X1943558Y660056D02*
X1947622D01*
X1943812Y660310D02*
X1948130D01*
X1944066Y660564D02*
X1948638D01*
X1939240Y656246D02*
X1942288D01*
X1939494Y656500D02*
X1942542D01*
X1939748Y656754D02*
X1942796D01*
X1940002Y657008D02*
X1943304D01*
X1940256Y657262D02*
X1943558D01*
X1940510Y657516D02*
X1943812D01*
X1936954Y653452D02*
X1939748D01*
X1936954Y653706D02*
X1940002D01*
X1937208Y653960D02*
X1940256D01*
X1937462Y654214D02*
X1940256D01*
X1937716Y654468D02*
X1940510D01*
X1937970Y654722D02*
X1940764D01*
X1937970Y654976D02*
X1941018D01*
X1938224Y655230D02*
X1941272D01*
X1938478Y655484D02*
X1941526D01*
X1938732Y655738D02*
X1941780D01*
X1938986Y655992D02*
X1942034D01*
X1945336Y661326D02*
X1948892D01*
X1945844Y661580D02*
X1948892D01*
X1950416D02*
X1950924D01*
X1946352Y661834D02*
X1948638D01*
X1946606Y662088D02*
X1948638D01*
X1947114Y662342D02*
X1948384D01*
X1947622Y662596D02*
X1948384D01*
X1944574Y660818D02*
X1949146D01*
X1945082Y661072D02*
X1948892D01*
X1946352Y645578D02*
X1949146D01*
X1946606Y645832D02*
X1949400D01*
X1934922Y650150D02*
X1937462D01*
X1934922Y650404D02*
X1937462D01*
X1935176Y650658D02*
X1937716D01*
X1935176Y650912D02*
X1937970D01*
X1935430Y651166D02*
X1937970D01*
X1935430Y651420D02*
X1938224D01*
X1935684Y651674D02*
X1938478D01*
X1935938Y651928D02*
X1938478D01*
X1935938Y652182D02*
X1938732D01*
X1936192Y652436D02*
X1938986D01*
X1936446Y652690D02*
X1938986D01*
X1936446Y652944D02*
X1939240D01*
X1946606Y646086D02*
X1949400D01*
X1946860Y646340D02*
X1949654D01*
X1947114Y646594D02*
X1949908D01*
X1947368Y646848D02*
X1950162D01*
X1947368Y647102D02*
X1950416D01*
X1947622Y647356D02*
X1950670D01*
X1947876Y647610D02*
X1950924D01*
X1948130Y647864D02*
X1951432D01*
X1950416Y661834D02*
X1951686D01*
X1950162Y662088D02*
X1952448D01*
X1950162Y662342D02*
X1952448D01*
X1950162Y662596D02*
X1952448D01*
X1949908Y662850D02*
X1952448D01*
X1949908Y663104D02*
X1952194D01*
X1949654Y663358D02*
X1952194D01*
X1949908Y663612D02*
X1952194D01*
X1950416Y663866D02*
X1951940D01*
X1951178Y664120D02*
X1951940D01*
X1949908Y649642D02*
X1954226D01*
X1948384Y648118D02*
X1951686D01*
X1948638Y648372D02*
X1951940D01*
X1948892Y648626D02*
X1952448D01*
X1949146Y648880D02*
X1952702D01*
X1949400Y649134D02*
X1953210D01*
X1949654Y649388D02*
X1953718D01*
X1936700Y653198D02*
X1939494D01*
X1964132Y663104D02*
X1964894D01*
X1962862Y663358D02*
X1964894D01*
X1962862Y663612D02*
X1965148D01*
X1962862Y663866D02*
X1965148D01*
X1962862Y664120D02*
X1965148D01*
X1962862Y664374D02*
X1965148D01*
X1962862Y664628D02*
X1965148D01*
X1962862Y664882D02*
X1965148D01*
X1962862Y665136D02*
X1965402D01*
X1958544Y663358D02*
X1960576D01*
X1958544Y663612D02*
X1960830D01*
X1958544Y663866D02*
X1960830D01*
X1958544Y664120D02*
X1960830D01*
X1958544Y664374D02*
X1960830D01*
X1958544Y664628D02*
X1960830D01*
X1958544Y664882D02*
X1960830D01*
X1958544Y665136D02*
X1960830D01*
X1968704Y662088D02*
X1968958D01*
X1967942Y662342D02*
X1969212D01*
X1966926Y662596D02*
X1969212D01*
X1966926Y662850D02*
X1969212D01*
X1966926Y663104D02*
X1969466D01*
X1966926Y663358D02*
X1969466D01*
X1967180Y663612D02*
X1969466D01*
X1967180Y663866D02*
X1969466D01*
X1967180Y664120D02*
X1969720D01*
X1967180Y664374D02*
X1968958D01*
X1967434Y664628D02*
X1968196D01*
X1972514Y660564D02*
X1973022D01*
X1955750Y652690D02*
X1965148D01*
X1964132Y650658D02*
X1969466D01*
X1962862Y650912D02*
X1969212D01*
X1956766Y652944D02*
X1964132D01*
X1968196Y648880D02*
X1971752D01*
X1967688Y649134D02*
X1971498D01*
X1967434Y649388D02*
X1971244D01*
X1966926Y649642D02*
X1970990D01*
X1966418Y649896D02*
X1970736D01*
X1965656Y650150D02*
X1970228D01*
X1964894Y650404D02*
X1969974D01*
X1970736Y661326D02*
X1973276D01*
X1970990Y661580D02*
X1973530D01*
X1970990Y661834D02*
X1973530D01*
X1971244Y662088D02*
X1973784D01*
X1971244Y662342D02*
X1973784D01*
X1971244Y662596D02*
X1973530D01*
X1971498Y662850D02*
X1973022D01*
X1971498Y663104D02*
X1972514D01*
X1971498Y661072D02*
X1973276D01*
X1972006Y660818D02*
X1973022D01*
X1972006Y645578D02*
X1974546D01*
X1971752Y645832D02*
X1974546D01*
X1971498Y646086D02*
X1974292D01*
X1971244Y646340D02*
X1974038D01*
X1970990Y646594D02*
X1974038D01*
X1970736Y646848D02*
X1973784D01*
X1970482Y647102D02*
X1973530D01*
X1970228Y647356D02*
X1973276D01*
X1969974Y647610D02*
X1973022D01*
X1969720Y647864D02*
X1972768D01*
X1969212Y648118D02*
X1972768D01*
X1968958Y648372D02*
X1972514D01*
X1968704Y648626D02*
X1972260D01*
X1958290Y653198D02*
X1962862D01*
X1983690Y656246D02*
X1985976D01*
X1983690Y656500D02*
X1985976D01*
X1983690Y656754D02*
X1985976D01*
X1983436Y657008D02*
X1985722D01*
X1983436Y657262D02*
X1985722D01*
X1983182Y657516D02*
X1985722D01*
X1982928Y657770D02*
X1985468D01*
X1982420Y658024D02*
X1985468D01*
X1977594Y658278D02*
X1985214D01*
X1977848Y658532D02*
X1985214D01*
X1977848Y658786D02*
X1984960D01*
X1978102Y659040D02*
X1984706D01*
X1982928Y654214D02*
X1985468D01*
X1983182Y654468D02*
X1985722D01*
X1983436Y654722D02*
X1985722D01*
X1983436Y654976D02*
X1985722D01*
X1983690Y655230D02*
X1985976D01*
X1983690Y655484D02*
X1985976D01*
X1983690Y655738D02*
X1985976D01*
X1983690Y655992D02*
X1985976D01*
X1982420Y653960D02*
X1985468D01*
X1977848Y653452D02*
X1985214D01*
X1977594Y653706D02*
X1985214D01*
X1977086Y656246D02*
X1979118D01*
X1977086Y656500D02*
X1979372D01*
X1975562Y661326D02*
X1975816D01*
Y658532D02*
X1976578D01*
X1975562Y658786D02*
X1976832D01*
X1980134Y660310D02*
X1982674D01*
X1977086Y656754D02*
X1979372D01*
X1977086Y657008D02*
X1979372D01*
X1977086Y657262D02*
X1979626D01*
X1977340Y657516D02*
X1979880D01*
X1977340Y657770D02*
X1980134D01*
X1977340Y658024D02*
X1980388D01*
X1978356Y659294D02*
X1984452D01*
X1978610Y659548D02*
X1984198D01*
X1979118Y659802D02*
X1983944D01*
X1979626Y660056D02*
X1983436D01*
X1975562Y661072D02*
X1976070D01*
X1977086Y654976D02*
X1979372D01*
X1977086Y655230D02*
X1979372D01*
X1977086Y655484D02*
X1979372D01*
X1977086Y655738D02*
X1979118D01*
X1977086Y655992D02*
X1979118D01*
X1977340Y654214D02*
X1980134D01*
X1977340Y654468D02*
X1979880D01*
X1977086Y654722D02*
X1979626D01*
X1977340Y653960D02*
X1980642D01*
X1989024Y664120D02*
X1992072D01*
X1988770Y664374D02*
X1991818D01*
X1988516Y664628D02*
X1991564D01*
X1988516Y664882D02*
X1991310D01*
X1988262Y665136D02*
X1991056D01*
X1993596Y658278D02*
X1994612D01*
X1993596Y658532D02*
X1995120D01*
X1993850Y658024D02*
X1994358D01*
X1985722Y645578D02*
X1987754D01*
X1985722Y645832D02*
X1988008D01*
X1984198Y649134D02*
X1984960D01*
X1983944Y649388D02*
X1985468D01*
X1983944Y649642D02*
X1985976D01*
X1983690Y649896D02*
X1986484D01*
X1983690Y650150D02*
X1986230D01*
X1983436Y650404D02*
X1985976D01*
X1983436Y650658D02*
X1985976D01*
X1983690Y650912D02*
X1985722D01*
X1983944Y651166D02*
X1985722D01*
X1984452Y651420D02*
X1985468D01*
X1984960Y651674D02*
X1985468D01*
X1978102Y652944D02*
X1984706D01*
X1980388Y651674D02*
X1982674D01*
X1979626Y651928D02*
X1983436D01*
X1979118Y652182D02*
X1983690D01*
X1978864Y652436D02*
X1984198D01*
X1978356Y652690D02*
X1984452D01*
X1985468Y646086D02*
X1988008D01*
X1985468Y646340D02*
X1988008D01*
X1985468Y646594D02*
X1987754D01*
X1985214Y646848D02*
X1987754D01*
X1985468Y647102D02*
X1987754D01*
X1985976Y647356D02*
X1987500D01*
X1986738Y647610D02*
X1987500D01*
X1992326Y660310D02*
X1995120D01*
X1992072Y660564D02*
X1994866D01*
X1991818Y660818D02*
X1994612D01*
X1991818Y661072D02*
X1994612D01*
X1991564Y661326D02*
X1994358D01*
X1991310Y661580D02*
X1994104D01*
X1990548Y662596D02*
X1993342D01*
X1990294Y662850D02*
X1993088D01*
X1990040Y663104D02*
X1992834D01*
X1989786Y663358D02*
X1992834D01*
X1989532Y663612D02*
X1992580D01*
X1989278Y663866D02*
X1992326D01*
X1991056Y661834D02*
X1993850D01*
X1990802Y662088D02*
X1993850D01*
X1990802Y662342D02*
X1993596D01*
X1977848Y653198D02*
X1984960D01*
X1996136Y656754D02*
X1997152D01*
X1996644Y657008D02*
X1997152D01*
X1995882Y654214D02*
X1996136D01*
X1995882Y654468D02*
X1996644D01*
X1997152Y651420D02*
X1999692D01*
X1997152Y651674D02*
X1999692D01*
X1997152Y651928D02*
X1999438D01*
X1996898Y652182D02*
X1999438D01*
X1997152Y652436D02*
X1999184D01*
X1997660Y652690D02*
X1999184D01*
X1997660Y650404D02*
X1998168D01*
X1997660Y650658D02*
X1998676D01*
X1997406Y650912D02*
X1999438D01*
X1997406Y651166D02*
X1999692D01*
X1998930Y646340D02*
X1999438D01*
X1998422Y652944D02*
X1999184D01*
X1998930Y646594D02*
X2000454D01*
X1998676Y646848D02*
X2001216D01*
X1998676Y647102D02*
X2000962D01*
X1998676Y647356D02*
X2000962D01*
X1998676Y647610D02*
X2000962D01*
X1998422Y647864D02*
X2000962D01*
X1998422Y648118D02*
X2000708D01*
X1998422Y648372D02*
X2000708D01*
X1999184Y648626D02*
X2000708D01*
X1999946Y648880D02*
X2000454D01*
X1867358Y644054D02*
X1868374D01*
X1867104Y644308D02*
X1868120D01*
X1867104Y644562D02*
X1868120D01*
X1866850Y644816D02*
X1867866D01*
X1882344Y644054D02*
X1883106D01*
X1882344Y644308D02*
X1883106D01*
X1882344Y644562D02*
X1883106D01*
X1882344Y644816D02*
X1883106D01*
X1874216Y644054D02*
X1875232D01*
X1874216Y644308D02*
X1875232D01*
X1874216Y644562D02*
X1875232D01*
X1874216Y644816D02*
X1875232D01*
X1877518Y644054D02*
X1878534D01*
X1877518Y644308D02*
X1878534D01*
X1877518Y644562D02*
X1878534D01*
X1877518Y644816D02*
X1878534D01*
X1887424Y637704D02*
X1887678D01*
X1887170Y637958D02*
X1887932D01*
X1886916Y638212D02*
X1888186D01*
X1886662Y638466D02*
X1888694D01*
X1886408Y638720D02*
X1888948D01*
X1886662Y638974D02*
X1889710D01*
X1886662Y631100D02*
X1889456D01*
X1886662Y631354D02*
X1888948D01*
X1886662Y631608D02*
X1888440D01*
X1886916Y631862D02*
X1888186D01*
X1887170Y632116D02*
X1887932D01*
X1887424Y632370D02*
X1887678D01*
X1888948Y640498D02*
X1893266D01*
X1889710Y640752D02*
X1892250D01*
X1888694Y629576D02*
X1893266D01*
X1889456Y629322D02*
X1892504D01*
X1901648Y639736D02*
X1908506D01*
X1901902Y639990D02*
X1908252D01*
X1902410Y640244D02*
X1907744D01*
X1902918Y640498D02*
X1907236D01*
X1903680Y640752D02*
X1906474D01*
X1900632Y638974D02*
X1903680D01*
X1900886Y639228D02*
X1909268D01*
X1901394Y639482D02*
X1908760D01*
X1895044Y635926D02*
X1896822D01*
X1895044Y636180D02*
X1896822D01*
X1899362Y635926D02*
X1901140D01*
X1899362Y636180D02*
X1901140D01*
X1909014Y635926D02*
X1910792D01*
X1909014Y636180D02*
X1910792D01*
X1894282Y637450D02*
X1896314D01*
X1894282Y637704D02*
X1896314D01*
X1894790Y636434D02*
X1896822D01*
X1894790Y636688D02*
X1896568D01*
X1894536Y636942D02*
X1896568D01*
X1894536Y637196D02*
X1896568D01*
X1899362Y636434D02*
X1901140D01*
X1899362Y636688D02*
X1901394D01*
X1899616Y636942D02*
X1901394D01*
X1899616Y637196D02*
X1901648D01*
X1899616Y637450D02*
X1901648D01*
X1899870Y637704D02*
X1901902D01*
X1899870Y637958D02*
X1902156D01*
X1900124Y638212D02*
X1902410D01*
X1900378Y638466D02*
X1902664D01*
X1900632Y638720D02*
X1903172D01*
X1894790Y633132D02*
X1896568D01*
X1894790Y633386D02*
X1896568D01*
X1894790Y633640D02*
X1896822D01*
X1895044Y633894D02*
X1896822D01*
X1895044Y634148D02*
X1896822D01*
X1895044Y634402D02*
X1896822D01*
X1895044Y634656D02*
X1896822D01*
X1895044Y634910D02*
X1896822D01*
X1895044Y635164D02*
X1896822D01*
X1895044Y635418D02*
X1896822D01*
X1895044Y635672D02*
X1896822D01*
X1899108Y634910D02*
X1900886D01*
X1899108Y635164D02*
X1900886D01*
X1899108Y635418D02*
X1900886D01*
X1899108Y635672D02*
X1901140D01*
X1899362Y633894D02*
X1901140D01*
X1899362Y634148D02*
X1901140D01*
X1899108Y634402D02*
X1901140D01*
X1899108Y634656D02*
X1900886D01*
X1899362Y633132D02*
X1901394D01*
X1899362Y633386D02*
X1901394D01*
X1899362Y633640D02*
X1901140D01*
X1909014Y636434D02*
X1910792D01*
X1908760Y636688D02*
X1910792D01*
X1908760Y636942D02*
X1910538D01*
X1908506Y637196D02*
X1910538D01*
X1908506Y637450D02*
X1910538D01*
X1908252Y637704D02*
X1910284D01*
X1907998Y637958D02*
X1910030D01*
X1907744Y638212D02*
X1910030D01*
X1907490Y638466D02*
X1909776D01*
X1906982Y638720D02*
X1909522D01*
X1906474Y638974D02*
X1909268D01*
Y635418D02*
X1910792D01*
X1909014Y635672D02*
X1910792D01*
X1909014Y633894D02*
X1910792D01*
X1909014Y634148D02*
X1910792D01*
X1909014Y634402D02*
X1910792D01*
X1909268Y634656D02*
X1910792D01*
X1908760Y633132D02*
X1910538D01*
X1909014Y633386D02*
X1910792D01*
X1909014Y633640D02*
X1910792D01*
X1903680Y629322D02*
X1906474D01*
X1902664Y629576D02*
X1907490D01*
X1902410Y629830D02*
X1907744D01*
X1901902Y630084D02*
X1908252D01*
X1901648Y630338D02*
X1908506D01*
X1901140Y630592D02*
X1909014D01*
X1900886Y630846D02*
X1904950D01*
X1900632Y631100D02*
X1903680D01*
X1894282Y632370D02*
X1896314D01*
X1894536Y632624D02*
X1896314D01*
X1900378Y631354D02*
X1903172D01*
X1900378Y631608D02*
X1902664D01*
X1900124Y631862D02*
X1902410D01*
X1899870Y632116D02*
X1902156D01*
X1899870Y632370D02*
X1901902D01*
X1899616Y632624D02*
X1901648D01*
X1905204Y630846D02*
X1909268D01*
X1906474Y631100D02*
X1909522D01*
X1906982Y631354D02*
X1909522D01*
X1907490Y631608D02*
X1909776D01*
X1907744Y631862D02*
X1910030D01*
X1907998Y632116D02*
X1910284D01*
X1908252Y632370D02*
X1910284D01*
X1908506Y632624D02*
X1910538D01*
X1909268Y634910D02*
X1911046D01*
X1909268Y635164D02*
X1911046D01*
X1894536Y632878D02*
X1896568D01*
X1899616D02*
X1901648D01*
X1908760D02*
X1910538D01*
X1924000Y635926D02*
X1925778D01*
X1924000Y636180D02*
X1925778D01*
X1924000Y636942D02*
X1925778D01*
X1924000Y637196D02*
X1925778D01*
X1921714Y637450D02*
X1923746D01*
X1924000D02*
X1925778D01*
X1921968Y637704D02*
X1923746D01*
X1924000D02*
X1925778D01*
X1922222Y637958D02*
X1925778D01*
X1922476Y638212D02*
X1925778D01*
X1922730Y638466D02*
X1925778D01*
X1922984Y638720D02*
X1925778D01*
X1922984Y638974D02*
X1925778D01*
X1923238Y639228D02*
X1925778D01*
X1923492Y639482D02*
X1925778D01*
X1923746Y639736D02*
X1925778D01*
X1924000Y639990D02*
X1925778D01*
X1924000Y636434D02*
X1925778D01*
X1924000Y636688D02*
X1925778D01*
X1924000Y633894D02*
X1925778D01*
X1924000Y634148D02*
X1925778D01*
X1924000Y634402D02*
X1925778D01*
X1924000Y634656D02*
X1925778D01*
X1924000Y634910D02*
X1925778D01*
X1924000Y635164D02*
X1925778D01*
X1924000Y635418D02*
X1925778D01*
X1924000Y635672D02*
X1925778D01*
X1924000Y633132D02*
X1925778D01*
X1924000Y633386D02*
X1925778D01*
X1924000Y633640D02*
X1925778D01*
X1920444Y635926D02*
X1922222D01*
X1920698Y636180D02*
X1922476D01*
X1917396Y635926D02*
X1919174D01*
X1917142Y636180D02*
X1918920D01*
X1915872Y637450D02*
X1917904D01*
X1915872Y637704D02*
X1917650D01*
X1918920Y643038D02*
X1921206D01*
X1918920Y643292D02*
X1921206D01*
X1918920Y643546D02*
X1921206D01*
X1918920Y643800D02*
X1921206D01*
X1919174Y644054D02*
X1921460D01*
X1919174Y644308D02*
X1921460D01*
X1919174Y644562D02*
X1921460D01*
X1919174Y644816D02*
X1921460D01*
X1921206Y636942D02*
X1923238D01*
X1921460Y637196D02*
X1923492D01*
X1920952Y636434D02*
X1922730D01*
X1920952Y636688D02*
X1922984D01*
X1916380Y636942D02*
X1918412D01*
X1916126Y637196D02*
X1918158D01*
X1916888Y636434D02*
X1918666D01*
X1916634Y636688D02*
X1918666D01*
X1919174Y633894D02*
X1920444D01*
X1918920Y634148D02*
X1920698D01*
X1919936Y635418D02*
X1921968D01*
X1920190Y635672D02*
X1921968D01*
X1919682Y633132D02*
X1919936D01*
X1919428Y633386D02*
X1920190D01*
X1919428Y633640D02*
X1920190D01*
X1918666Y634402D02*
X1920952D01*
X1918412Y634656D02*
X1921206D01*
X1918158Y634910D02*
X1921460D01*
X1917904Y635164D02*
X1921714D01*
X1917650Y635418D02*
X1919682D01*
X1917650Y635672D02*
X1919428D01*
X1929588Y637704D02*
X1929842D01*
X1929334Y637958D02*
X1930096D01*
X1929080Y638212D02*
X1930350D01*
X1928826Y638466D02*
X1930604D01*
X1928572Y638720D02*
X1931112D01*
X1924254Y640244D02*
X1925778D01*
X1924508Y640498D02*
X1925778D01*
X1919936Y625258D02*
X1922222D01*
X1919936Y625512D02*
X1922222D01*
X1924000Y629322D02*
X1925778D01*
X1924000Y629576D02*
X1925778D01*
X1924000Y629830D02*
X1925778D01*
X1924000Y630084D02*
X1925778D01*
X1924000Y630338D02*
X1925778D01*
X1924000Y630592D02*
X1925778D01*
X1924000Y630846D02*
X1925778D01*
X1924000Y631100D02*
X1925778D01*
X1924000Y631354D02*
X1925778D01*
X1924000Y631608D02*
X1925778D01*
X1924000Y631862D02*
X1925778D01*
X1924000Y632116D02*
X1925778D01*
X1924000Y632370D02*
X1925778D01*
X1924000Y632624D02*
X1925778D01*
X1919682Y625766D02*
X1922222D01*
X1919682Y626020D02*
X1921968D01*
X1919682Y626274D02*
X1921968D01*
X1919682Y626528D02*
X1921968D01*
X1919428Y626782D02*
X1921968D01*
X1928572Y631354D02*
X1931112D01*
X1928826Y631608D02*
X1930604D01*
X1929080Y631862D02*
X1930350D01*
X1929334Y632116D02*
X1929842D01*
X1928826Y638974D02*
X1931874D01*
X1928826Y631100D02*
X1931620D01*
X1924000Y632878D02*
X1925778D01*
X1941526Y638212D02*
X1951432D01*
X1941780Y638466D02*
X1951178D01*
X1942034Y638720D02*
X1951178D01*
X1942288Y638974D02*
X1950924D01*
X1942542Y639228D02*
X1950670D01*
X1942796Y639482D02*
X1950416D01*
X1943050Y639736D02*
X1949908D01*
X1943304Y639990D02*
X1949654D01*
X1943812Y640244D02*
X1949146D01*
X1944320Y640498D02*
X1948638D01*
X1937208Y635926D02*
X1938986D01*
X1936954Y636180D02*
X1938986D01*
X1936192Y637704D02*
X1938224D01*
X1936192Y637958D02*
X1938224D01*
X1935684Y638212D02*
X1937970D01*
X1935430Y638466D02*
X1937970D01*
X1934922Y638720D02*
X1937716D01*
X1936954Y636434D02*
X1938732D01*
X1936954Y636688D02*
X1938732D01*
X1936700Y636942D02*
X1938732D01*
X1936700Y637196D02*
X1938478D01*
X1936446Y637450D02*
X1938478D01*
X1936700Y633132D02*
X1938732D01*
X1936954Y633386D02*
X1938732D01*
X1936954Y633640D02*
X1938732D01*
X1936954Y633894D02*
X1938986D01*
X1937208Y634148D02*
X1938986D01*
X1937208Y634402D02*
X1938986D01*
X1937208Y634656D02*
X1938986D01*
X1937208Y634910D02*
X1938986D01*
X1937208Y635164D02*
X1938986D01*
X1937208Y635418D02*
X1938986D01*
X1937208Y635672D02*
X1938986D01*
X1945082Y643038D02*
X1947368D01*
X1945082Y643292D02*
X1947622D01*
X1945336Y643546D02*
X1947876D01*
X1945336Y643800D02*
X1947876D01*
X1945590Y644054D02*
X1948130D01*
X1945590Y644308D02*
X1948130D01*
X1945844Y644562D02*
X1948384D01*
X1945844Y644816D02*
X1948638D01*
X1945336Y640752D02*
X1947876D01*
X1948130Y625258D02*
X1951432D01*
X1947876Y625512D02*
X1950924D01*
X1944320Y629576D02*
X1948892D01*
X1943812Y629830D02*
X1949400D01*
X1943304Y630084D02*
X1949908D01*
X1943050Y630338D02*
X1950162D01*
X1942796Y630592D02*
X1950416D01*
X1942288Y630846D02*
X1950670D01*
X1942288Y631100D02*
X1950924D01*
X1942034Y631354D02*
X1951178D01*
X1941780Y631608D02*
X1951432D01*
X1941526Y631862D02*
X1951432D01*
X1935176Y631354D02*
X1937716D01*
X1935430Y631608D02*
X1937970D01*
X1935938Y631862D02*
X1937970D01*
X1936192Y632116D02*
X1938224D01*
X1936446Y632370D02*
X1938478D01*
X1936446Y632624D02*
X1938478D01*
X1947622Y625766D02*
X1950670D01*
X1947368Y626020D02*
X1950416D01*
X1947368Y626274D02*
X1950162D01*
X1947114Y626528D02*
X1949908D01*
X1946860Y626782D02*
X1949654D01*
X1945082Y629322D02*
X1948130D01*
X1940764Y635926D02*
X1952448D01*
X1940764Y636180D02*
X1952448D01*
X1940764Y636434D02*
X1952194D01*
X1941018Y636688D02*
X1952194D01*
X1941018Y636942D02*
X1952194D01*
X1941018Y637196D02*
X1951940D01*
X1941272Y637450D02*
X1951940D01*
X1941272Y637704D02*
X1951686D01*
X1941526Y637958D02*
X1951686D01*
X1940764Y633894D02*
X1952448D01*
X1940764Y634148D02*
X1952448D01*
X1940764Y634402D02*
X1952448D01*
X1940764Y634656D02*
X1952448D01*
X1940764Y634910D02*
X1952448D01*
X1940764Y635164D02*
X1952448D01*
X1940764Y635418D02*
X1952448D01*
X1940764Y635672D02*
X1952448D01*
X1941018Y633132D02*
X1952194D01*
X1941018Y633386D02*
X1952194D01*
X1940764Y633640D02*
X1952194D01*
X1941526Y632116D02*
X1951686D01*
X1941272Y632370D02*
X1951686D01*
X1941272Y632624D02*
X1951940D01*
X1936700Y632878D02*
X1938732D01*
X1941018D02*
X1951940D01*
X1964386Y635926D02*
X1966418D01*
X1964386Y636180D02*
X1966418D01*
X1964386Y641006D02*
X1966418D01*
X1964386Y641260D02*
X1966418D01*
X1964386Y642276D02*
X1966418D01*
X1964386Y642530D02*
X1966418D01*
X1964386Y642784D02*
X1966418D01*
X1964386Y643038D02*
X1966418D01*
X1964386Y643292D02*
X1966418D01*
X1964386Y643546D02*
X1966418D01*
X1964386Y643800D02*
X1966418D01*
X1964386Y644054D02*
X1966418D01*
X1964386Y644308D02*
X1966418D01*
X1964386Y644562D02*
X1966418D01*
X1964386Y644816D02*
X1966418D01*
X1964386Y641514D02*
X1966418D01*
X1964386Y641768D02*
X1966418D01*
X1964386Y642022D02*
X1966418D01*
X1964386Y636434D02*
X1966418D01*
X1959560Y637450D02*
X1966418D01*
X1964386Y638466D02*
X1966418D01*
X1964386Y638720D02*
X1966418D01*
X1964386Y638974D02*
X1966418D01*
X1964386Y639228D02*
X1966418D01*
X1964386Y639482D02*
X1966418D01*
X1964386Y639736D02*
X1966418D01*
X1964386Y639990D02*
X1966418D01*
X1964386Y640244D02*
X1966418D01*
X1964386Y640498D02*
X1966418D01*
X1964386Y640752D02*
X1966418D01*
X1958290Y636688D02*
X1966418D01*
X1958798Y636942D02*
X1966418D01*
X1959052Y637196D02*
X1966418D01*
X1959052Y637704D02*
X1966418D01*
X1958798Y637958D02*
X1966418D01*
X1958544Y638212D02*
X1966418D01*
X1964386Y635164D02*
X1966418D01*
X1964386Y635418D02*
X1966418D01*
X1964386Y635672D02*
X1966418D01*
X1964386Y633894D02*
X1966418D01*
X1964386Y634148D02*
X1966418D01*
X1964386Y634402D02*
X1966418D01*
X1964386Y634656D02*
X1966418D01*
X1964386Y634910D02*
X1966418D01*
X1964386Y633132D02*
X1966418D01*
X1964386Y633386D02*
X1966418D01*
X1964386Y633640D02*
X1966418D01*
X1957782Y635926D02*
X1960068D01*
X1958036Y636180D02*
X1960322D01*
X1956512Y641260D02*
X1958544D01*
X1956766Y641006D02*
X1958798D01*
X1956258Y641514D02*
X1958544D01*
X1956258Y641768D02*
X1958290D01*
X1956004Y642022D02*
X1958036D01*
X1955750Y642276D02*
X1958036D01*
X1955750Y642530D02*
X1957782D01*
X1955496Y642784D02*
X1957528D01*
X1955242Y643038D02*
X1957528D01*
X1955242Y643292D02*
X1957274D01*
X1957020Y640498D02*
X1959052D01*
X1956766Y640752D02*
X1959052D01*
X1957528Y639736D02*
X1959560D01*
X1957274Y639990D02*
X1959560D01*
X1957274Y640244D02*
X1959306D01*
X1958290Y636434D02*
X1961084D01*
X1958544Y638466D02*
X1961084D01*
X1958290Y638720D02*
X1960576D01*
X1958036Y638974D02*
X1960322D01*
X1957782Y639228D02*
X1960068D01*
X1957782Y639482D02*
X1959814D01*
X1956004Y633132D02*
X1958036D01*
X1956258Y633386D02*
X1958290D01*
X1956258Y633640D02*
X1958544D01*
X1956512Y633894D02*
X1958544D01*
X1956512Y634148D02*
X1958798D01*
X1956766Y634402D02*
X1958798D01*
X1957020Y634656D02*
X1959052D01*
X1957020Y634910D02*
X1959306D01*
X1957274Y635164D02*
X1959560D01*
X1957528Y635418D02*
X1959560D01*
X1957528Y635672D02*
X1959814D01*
X1964386Y629322D02*
X1966418D01*
X1964386Y629576D02*
X1966418D01*
X1964386Y629830D02*
X1966418D01*
X1964386Y630084D02*
X1966418D01*
X1964386Y630338D02*
X1966418D01*
X1964386Y630592D02*
X1966418D01*
X1964386Y630846D02*
X1966418D01*
X1964386Y631100D02*
X1966418D01*
X1964386Y631354D02*
X1966418D01*
X1964386Y631608D02*
X1966418D01*
X1964386Y631862D02*
X1966418D01*
X1964386Y632116D02*
X1966418D01*
X1964386Y632370D02*
X1966418D01*
X1964386Y632624D02*
X1966418D01*
X1955242Y632116D02*
X1957528D01*
X1955496Y632370D02*
X1957528D01*
X1955242Y631862D02*
X1957274D01*
X1955750Y632624D02*
X1957782D01*
X1969720Y625258D02*
X1973022D01*
X1969974Y625512D02*
X1973022D01*
X1971498Y627036D02*
X1974292D01*
X1971752Y627290D02*
X1974546D01*
X1972006Y627544D02*
X1974546D01*
X1972006Y627798D02*
X1974800D01*
X1970228Y625766D02*
X1973276D01*
X1970482Y626020D02*
X1973530D01*
X1970736Y626274D02*
X1973784D01*
X1970990Y626528D02*
X1974038D01*
X1971244Y626782D02*
X1974038D01*
X1964386Y632878D02*
X1966418D01*
X1955750D02*
X1958036D01*
X1986992Y641006D02*
X1987500D01*
X1986992Y641260D02*
X1989024D01*
X1986738Y641514D02*
X1989278D01*
X1986738Y641768D02*
X1989024D01*
X1986738Y642022D02*
X1989024D01*
X1986738Y642276D02*
X1989024D01*
X1986738Y642530D02*
X1989024D01*
X1986484Y642784D02*
X1989024D01*
X1986484Y643038D02*
X1988770D01*
X1987500Y643292D02*
X1988770D01*
X1988516Y643546D02*
X1988770D01*
X1987246Y636942D02*
X1989532D01*
X1987246Y637196D02*
X1989532D01*
X1987246Y637450D02*
X1989532D01*
X1987246Y637704D02*
X1989532D01*
X1987246Y637958D02*
X1989532D01*
X1987246Y638212D02*
X1989532D01*
X1987246Y638466D02*
X1989532D01*
X1987246Y638720D02*
X1989532D01*
X1987246Y638974D02*
X1989532D01*
X1987246Y633894D02*
X1989532D01*
X1987246Y634148D02*
X1989532D01*
X1987246Y634402D02*
X1989532D01*
X1987246Y634656D02*
X1989532D01*
X1986992Y633386D02*
X1989532D01*
X1987246Y633640D02*
X1989532D01*
X1986992Y633132D02*
X1989278D01*
X1984706Y625258D02*
X1987246D01*
X1984960Y625512D02*
X1987500D01*
X1984960Y625766D02*
X1987500D01*
X1985214Y626020D02*
X1987246D01*
X1985214Y626274D02*
X1986484D01*
X1985468Y626528D02*
X1985976D01*
X1987754Y628052D02*
X1988262D01*
X1986992Y628306D02*
X1988262D01*
X1985976Y628560D02*
X1988516D01*
X1986230Y628814D02*
X1988516D01*
X1986230Y629068D02*
X1988516D01*
X1986230Y629322D02*
X1988770D01*
X1986484Y629576D02*
X1988770D01*
X1986484Y629830D02*
X1988770D01*
X1986484Y630084D02*
X1988770D01*
X1986484Y630338D02*
X1988262D01*
X1986738Y630592D02*
X1987246D01*
X1988770Y632370D02*
X1989278D01*
X1986992Y632624D02*
X1989278D01*
X1986992Y632878D02*
X1989278D01*
X2000708Y644562D02*
X2001724D01*
X1999692Y642276D02*
X2001216D01*
X1999692Y642530D02*
X2001978D01*
X1999692Y642784D02*
X2001978D01*
X1999692Y643038D02*
X2001978D01*
X1999438Y643292D02*
X2001978D01*
X1999438Y643546D02*
X2001724D01*
X1999438Y643800D02*
X2001724D01*
X1999438Y644054D02*
X2001724D01*
X1999438Y644308D02*
X2001724D01*
X2000200Y637958D02*
X2002486D01*
X1999946Y638212D02*
X2002486D01*
X1999946Y638466D02*
X2002232D01*
X1999946Y638720D02*
X2002232D01*
X1999946Y638974D02*
X2002232D01*
X1999946Y639228D02*
X2002232D01*
X1999946Y639482D02*
X2002232D01*
X1999946Y639736D02*
X2002232D01*
X1999946Y639990D02*
X2002232D01*
X2000200Y635418D02*
X2002486D01*
X2000200Y635672D02*
X2002486D01*
X2000200Y633640D02*
X2002232D01*
X1999946Y634148D02*
X2002232D01*
X1999946Y634402D02*
X2002232D01*
X1999946Y634656D02*
X2002232D01*
X1999946Y634910D02*
X2002232D01*
X1999946Y635164D02*
X2002486D01*
X1999946Y633894D02*
X2002232D01*
X1998930Y625258D02*
X2000962D01*
X1998422Y625512D02*
X2000962D01*
X2000454Y629322D02*
X2001724D01*
X1998676Y625766D02*
X2000962D01*
X1998676Y626020D02*
X2000962D01*
X1998676Y626274D02*
X2001216D01*
X1998930Y626528D02*
X2001216D01*
X1998930Y626782D02*
X2001216D01*
X1998930Y627036D02*
X2001216D01*
X1998930Y627290D02*
X2000200D01*
X1999438Y629576D02*
X2001724D01*
X1999438Y629830D02*
X2001724D01*
X1999438Y630084D02*
X2001978D01*
X1999692Y630338D02*
X2001978D01*
X1999692Y630592D02*
X2001978D01*
X1999692Y630846D02*
X2001978D01*
X1999692Y631100D02*
X2001978D01*
X1999692Y631354D02*
X2001978D01*
X1999692Y631608D02*
X2000454D01*
X1879042Y604938D02*
X1883360D01*
X1879550Y605192D02*
X1882852D01*
X1880312Y605446D02*
X1882090D01*
X1924000Y615606D02*
X1926540D01*
X1923746Y615860D02*
X1926540D01*
X1921460Y620686D02*
X1924000D01*
X1921460Y620940D02*
X1923746D01*
X1921206Y621194D02*
X1923746D01*
X1922984Y617638D02*
X1925524D01*
X1922730Y617892D02*
X1925270D01*
X1922730Y618146D02*
X1925016D01*
X1922476Y618400D02*
X1925016D01*
X1922476Y618654D02*
X1924762D01*
X1922222Y618908D02*
X1924762D01*
X1922222Y619162D02*
X1924508D01*
X1921968Y619416D02*
X1924508D01*
X1921968Y619670D02*
X1924508D01*
X1921714Y619924D02*
X1924254D01*
X1921714Y620178D02*
X1924254D01*
X1921714Y620432D02*
X1924000D01*
X1923746Y616114D02*
X1926286D01*
X1923492Y616368D02*
X1926032D01*
X1923492Y616622D02*
X1926032D01*
X1923238Y616876D02*
X1925778D01*
X1923238Y617130D02*
X1925778D01*
X1922984Y617384D02*
X1925524D01*
X1924000Y615352D02*
X1926794D01*
X1921206Y621448D02*
X1923492D01*
X1921206Y621702D02*
X1923492D01*
X1920952Y621956D02*
X1923492D01*
X1920952Y622210D02*
X1923238D01*
X1920698Y622464D02*
X1923238D01*
X1920698Y622718D02*
X1923238D01*
X1920698Y622972D02*
X1922984D01*
X1920444Y623226D02*
X1922984D01*
X1920444Y623480D02*
X1922730D01*
X1920444Y623734D02*
X1922730D01*
X1920190Y623988D02*
X1922730D01*
X1920190Y624242D02*
X1922476D01*
X1920190Y624496D02*
X1922476D01*
X1925270Y613574D02*
X1927810D01*
X1925016Y613828D02*
X1927810D01*
X1925016Y614082D02*
X1927556D01*
X1924762Y614336D02*
X1927302D01*
X1924508Y614590D02*
X1927302D01*
X1924508Y614844D02*
X1927048D01*
X1924254Y615098D02*
X1926794D01*
X1925778Y612812D02*
X1928572D01*
X1925524Y613066D02*
X1928318D01*
X1925270Y613320D02*
X1928064D01*
X1930350Y609510D02*
X1931112D01*
X1930604Y609764D02*
X1930858D01*
X1927556Y610272D02*
X1928064D01*
X1927302Y610526D02*
X1928318D01*
X1927302Y610780D02*
X1928572D01*
X1927048Y611034D02*
X1929080D01*
X1926794Y611288D02*
X1929334D01*
X1926540Y611542D02*
X1929334D01*
X1926540Y611796D02*
X1929334D01*
X1926286Y612050D02*
X1929080D01*
X1930604Y606970D02*
X1930858D01*
X1930350Y607224D02*
X1931112D01*
X1926032Y612304D02*
X1928826D01*
X1933652Y606716D02*
X1934160D01*
X1929334Y608240D02*
X1932128D01*
X1929334Y608494D02*
X1932128D01*
X1929588Y608748D02*
X1931874D01*
X1929842Y609002D02*
X1931620D01*
X1930096Y609256D02*
X1931366D01*
X1930096Y607478D02*
X1931366D01*
X1929842Y607732D02*
X1931620D01*
X1929588Y607986D02*
X1931874D01*
X1926032Y612558D02*
X1928572D01*
X1942796Y613574D02*
X1946606D01*
X1942288Y613828D02*
X1946352D01*
X1942034Y614082D02*
X1945844D01*
X1941780Y614336D02*
X1945590D01*
X1941526Y614590D02*
X1945082D01*
X1941272Y614844D02*
X1944828D01*
X1941018Y615098D02*
X1944320D01*
X1940764Y615352D02*
X1944066D01*
X1943812Y612812D02*
X1948130D01*
X1943304Y613066D02*
X1947622D01*
X1943050Y613320D02*
X1947114D01*
X1940256Y615606D02*
X1943812D01*
X1940002Y615860D02*
X1943558D01*
X1935938Y620940D02*
X1938732D01*
X1936192Y620686D02*
X1938986D01*
X1935938Y621194D02*
X1938478D01*
X1935684Y621448D02*
X1938224D01*
X1935430Y621702D02*
X1938224D01*
X1935430Y621956D02*
X1937970D01*
X1935176Y622210D02*
X1937970D01*
X1935176Y622464D02*
X1937716D01*
X1934922Y622718D02*
X1937462D01*
X1934922Y622972D02*
X1937462D01*
X1939748Y616114D02*
X1943050D01*
X1939494Y616368D02*
X1942796D01*
X1939494Y616622D02*
X1942542D01*
X1939240Y616876D02*
X1942288D01*
X1937208Y619162D02*
X1940002D01*
X1936954Y619416D02*
X1939748D01*
X1936954Y619670D02*
X1939748D01*
X1936700Y619924D02*
X1939494D01*
X1936446Y620178D02*
X1939240D01*
X1936446Y620432D02*
X1938986D01*
Y617130D02*
X1942034D01*
X1938732Y617384D02*
X1941780D01*
X1938478Y617638D02*
X1941526D01*
X1938224Y617892D02*
X1941272D01*
X1937970Y618146D02*
X1941018D01*
X1937716Y618400D02*
X1940764D01*
X1937716Y618654D02*
X1940510D01*
X1937462Y618908D02*
X1940256D01*
X1946098Y611288D02*
X1951432D01*
X1945590Y611542D02*
X1950924D01*
X1945336Y611796D02*
X1950162D01*
X1944828Y612050D02*
X1949654D01*
X1944574Y612304D02*
X1949146D01*
X1949908Y623480D02*
X1954226D01*
X1949654Y623734D02*
X1953718D01*
X1949400Y623988D02*
X1953210D01*
X1949146Y624242D02*
X1952702D01*
X1948892Y624496D02*
X1952448D01*
X1947622Y610526D02*
X1953972D01*
X1947114Y610780D02*
X1953210D01*
X1946606Y611034D02*
X1952448D01*
X1944066Y612558D02*
X1948638D01*
X1955750Y620432D02*
X1965148D01*
X1962862Y622210D02*
X1969212D01*
X1964132Y622464D02*
X1969720D01*
X1958036Y619924D02*
X1962862D01*
X1956766Y620178D02*
X1964132D01*
X1964894Y622718D02*
X1969974D01*
X1965656Y622972D02*
X1970482D01*
X1966418Y623226D02*
X1970736D01*
X1966926Y623480D02*
X1970990D01*
X1967434Y623734D02*
X1971244D01*
X1967942Y623988D02*
X1971498D01*
X1955242Y607986D02*
X1965910D01*
X1961846Y609764D02*
X1971752D01*
X1956766Y607732D02*
X1964386D01*
X1974038Y611034D02*
X1974292D01*
X1974038Y611288D02*
X1974800D01*
X1968196Y624242D02*
X1972006D01*
X1968704Y624496D02*
X1972260D01*
X1964386Y610018D02*
X1972260D01*
X1965910Y610272D02*
X1973022D01*
X1966926Y610526D02*
X1972768D01*
X1967942Y610780D02*
X1972768D01*
X1968704Y611034D02*
X1972514D01*
X1969466Y611288D02*
X1972514D01*
X1970228Y611542D02*
X1972260D01*
X1970736Y611796D02*
X1972260D01*
X1971498Y612050D02*
X1972006D01*
X1983182Y620686D02*
X1984960D01*
X1982674Y620940D02*
X1984960D01*
X1982420Y621194D02*
X1985214D01*
X1982674Y621448D02*
X1985214D01*
X1982674Y621702D02*
X1985468D01*
X1982928Y621956D02*
X1985214D01*
X1983182Y622210D02*
X1984960D01*
Y624496D02*
X1986992D01*
X1983436Y620432D02*
X1984706D01*
X1977086Y615606D02*
X1979118D01*
X1977594Y615860D02*
X1978864D01*
X1983182Y622464D02*
X1984452D01*
X1983436Y622718D02*
X1983944D01*
X1984198Y619924D02*
X1984452D01*
X1983690Y620178D02*
X1984452D01*
X1981150Y616622D02*
X1981658D01*
X1980896Y616876D02*
X1981912D01*
X1980642Y617130D02*
X1982166D01*
X1980388Y617384D02*
X1982420D01*
X1980134Y617638D02*
X1982420D01*
X1979880Y617892D02*
X1982674D01*
X1979880Y618146D02*
X1982928D01*
X1980134Y618400D02*
X1982674D01*
X1980388Y618654D02*
X1982420D01*
X1980642Y618908D02*
X1981912D01*
X1980896Y619162D02*
X1981658D01*
X1981150Y619416D02*
X1981404D01*
X1977848Y616114D02*
X1978610D01*
X1978102Y616368D02*
X1978610D01*
X1976832Y615352D02*
X1979372D01*
X1976832Y614844D02*
X1979880D01*
X1976832Y615098D02*
X1979626D01*
X1977848Y613574D02*
X1978356D01*
X1977594Y613828D02*
X1978610D01*
X1977594Y614082D02*
X1978864D01*
X1977340Y614336D02*
X1979118D01*
X1977086Y614590D02*
X1979372D01*
X1986484Y623734D02*
X1986738D01*
X1985976Y623988D02*
X1986738D01*
X1985468Y624242D02*
X1986738D01*
X1994104Y615606D02*
X1994612D01*
X1993850Y615352D02*
X1995120D01*
X1994866Y612812D02*
X1995120D01*
X1994358Y613066D02*
X1995120D01*
X1984452Y604938D02*
X1987246D01*
X1984706Y605192D02*
X1986992D01*
X1984960Y605446D02*
X1986738D01*
X1985468Y605700D02*
X1986484D01*
X1985722Y605954D02*
X1986484D01*
X1985976Y606208D02*
X1986230D01*
X1989024D02*
X1989278D01*
X1988770Y606462D02*
X1989532D01*
X1988516Y606716D02*
X1989786D01*
X1988262Y606970D02*
X1990040D01*
X1988008Y607224D02*
X1990294D01*
X1987754Y607478D02*
X1990548D01*
X1987754Y607732D02*
X1990548D01*
X1988008Y607986D02*
X1990294D01*
X1988262Y608240D02*
X1990040D01*
X1988516Y608494D02*
X1989786D01*
X1988770Y608748D02*
X1989532D01*
X1989024Y609002D02*
X1989278D01*
X1991818Y612304D02*
X1992072D01*
X1991818Y609510D02*
X1992580D01*
X1991564Y609764D02*
X1992580D01*
X1991310Y610018D02*
X1992834D01*
X1991056Y610272D02*
X1993088D01*
X1990548Y610526D02*
X1993342D01*
X1990548Y610780D02*
X1993596D01*
X1990802Y611034D02*
X1993596D01*
X1991056Y611288D02*
X1993342D01*
X1991310Y611542D02*
X1993088D01*
X1991310Y611796D02*
X1992580D01*
X1991564Y612050D02*
X1992326D01*
X1992072Y609256D02*
X1992326D01*
X1998168Y620940D02*
X1999438D01*
X1998930Y620686D02*
X1999184D01*
X1997152Y621448D02*
X1999692D01*
X1997152Y621702D02*
X1999692D01*
X1995882Y618654D02*
X1998168D01*
X1997152Y616622D02*
X1997406D01*
X1996644Y616876D02*
X1997406D01*
X1996136Y617130D02*
X1997660D01*
X1995882Y618908D02*
X1997660D01*
X1996136Y619162D02*
X1997152D01*
X1997660Y621194D02*
X1999438D01*
X1997406Y621956D02*
X1999692D01*
X1997660Y622972D02*
X1999438D01*
X1997914Y623226D02*
X1998676D01*
X1997660Y622718D02*
X1999946D01*
X1997406Y622210D02*
X1999946D01*
X1997406Y622464D02*
X1999946D01*
X1996136Y619416D02*
X1996644D01*
X1882852Y600366D02*
X1887170D01*
X1882852Y600620D02*
X1887170D01*
X1882852Y602144D02*
X1887170D01*
X1882852Y602398D02*
X1887170D01*
X1882598Y602652D02*
X1885138D01*
X1882344Y602906D02*
X1885138D01*
X1881836Y603160D02*
X1884884D01*
X1882852Y600874D02*
X1887170D01*
X1883106Y601128D02*
X1887170D01*
X1883106Y601382D02*
X1887170D01*
X1883106Y601636D02*
X1887170D01*
X1883106Y601890D02*
X1887170D01*
X1878026Y604176D02*
X1884122D01*
X1877518Y603414D02*
X1884884D01*
X1877772Y603668D02*
X1884630D01*
X1878026Y603922D02*
X1884376D01*
X1879042Y597826D02*
X1883106D01*
X1878788Y598080D02*
X1883614D01*
X1878534Y598334D02*
X1883868D01*
X1878280Y598588D02*
X1884122D01*
X1881582Y599604D02*
X1884884D01*
X1882344Y599858D02*
X1884884D01*
X1882598Y600112D02*
X1885138D01*
X1878026Y598842D02*
X1884376D01*
X1877772Y599096D02*
X1884630D01*
X1877518Y599350D02*
X1884630D01*
X1877264Y600366D02*
X1879550D01*
X1877010Y600620D02*
X1879550D01*
X1877010Y600874D02*
X1879296D01*
X1877010Y601128D02*
X1879296D01*
X1877010Y601382D02*
X1879296D01*
X1877010Y601636D02*
X1879296D01*
X1877010Y601890D02*
X1879296D01*
X1877010Y602144D02*
X1879296D01*
X1877264Y602398D02*
X1879550D01*
X1877264Y602652D02*
X1879804D01*
X1877264Y602906D02*
X1880058D01*
X1877518Y603160D02*
X1880566D01*
X1880820Y597318D02*
X1881582D01*
X1879550Y597572D02*
X1882598D01*
X1877518Y599604D02*
X1880566D01*
X1877264Y599858D02*
X1880058D01*
X1877264Y600112D02*
X1879804D01*
X1889202Y600366D02*
X1891488D01*
X1889202Y600620D02*
X1891488D01*
X1889202Y601890D02*
X1891488D01*
X1889202Y602144D02*
X1891488D01*
X1889202Y602398D02*
X1891488D01*
X1889202Y600874D02*
X1891488D01*
X1889202Y601128D02*
X1891488D01*
X1889202Y601382D02*
X1891488D01*
X1889202Y601636D02*
X1891488D01*
X1902156Y600366D02*
X1904442D01*
X1902156Y600620D02*
X1904442D01*
X1902156Y600874D02*
X1904442D01*
X1902156Y601128D02*
X1904442D01*
X1902156Y601382D02*
X1904442D01*
X1902156Y601636D02*
X1904442D01*
X1902156Y601890D02*
X1904442D01*
X1902156Y602144D02*
X1904442D01*
X1902156Y602398D02*
X1904442D01*
X1897838Y600366D02*
X1900124D01*
X1897838Y600620D02*
X1900124D01*
X1897838Y600874D02*
X1900124D01*
X1897838Y601128D02*
X1900124D01*
X1897838Y601382D02*
X1900124D01*
X1897838Y601636D02*
X1900124D01*
X1897838Y601890D02*
X1900124D01*
X1897838Y602144D02*
X1900124D01*
X1897838Y602398D02*
X1900124D01*
X1906220Y600366D02*
X1908506D01*
X1906220Y600620D02*
X1908506D01*
X1906220Y600874D02*
X1908506D01*
X1906220Y601128D02*
X1908506D01*
X1906220Y601382D02*
X1908506D01*
X1906220Y601636D02*
X1908506D01*
X1906220Y601890D02*
X1908506D01*
X1906220Y602144D02*
X1908506D01*
X1906220Y602398D02*
X1908506D01*
X1910538Y600620D02*
X1912824D01*
X1910538Y600366D02*
X1912824D01*
X1910538Y600874D02*
X1912824D01*
X1910538Y601128D02*
X1912824D01*
X1910538Y601382D02*
X1912824D01*
X1910538Y601636D02*
X1912824D01*
X1910538Y601890D02*
X1912824D01*
X1910538Y602144D02*
X1912824D01*
X1910538Y602398D02*
X1912824D01*
X1923492Y600620D02*
X1925524D01*
X1923492Y600366D02*
X1925524D01*
X1923492Y600874D02*
X1925524D01*
X1923492Y601128D02*
X1925524D01*
X1923492Y601382D02*
X1925524D01*
X1923492Y601636D02*
X1925524D01*
X1923492Y601890D02*
X1925524D01*
X1923492Y602144D02*
X1925524D01*
X1923492Y602398D02*
X1925524D01*
X1914856Y600366D02*
X1917142D01*
X1914856Y600620D02*
X1917142D01*
X1919174D02*
X1921460D01*
X1919174Y600366D02*
X1921460D01*
X1914856Y600874D02*
X1917142D01*
X1914856Y601128D02*
X1917142D01*
X1914856Y601382D02*
X1917142D01*
X1914856Y601636D02*
X1917142D01*
X1914856Y601890D02*
X1917142D01*
X1914856Y602144D02*
X1917142D01*
X1914856Y602398D02*
X1917142D01*
X1919174Y600874D02*
X1921460D01*
X1919174Y601128D02*
X1921460D01*
X1919174Y601382D02*
X1921460D01*
X1919174Y601636D02*
X1921460D01*
X1919174Y601890D02*
X1921460D01*
X1919174Y602144D02*
X1921460D01*
X1919174Y602398D02*
X1921460D01*
X1927556Y600620D02*
X1929842D01*
X1927556Y600366D02*
X1929842D01*
X1927556Y600874D02*
X1929842D01*
X1927556Y601128D02*
X1929842D01*
X1927556Y601382D02*
X1929842D01*
X1927556Y601636D02*
X1929842D01*
X1927556Y601890D02*
X1929842D01*
X1927556Y602144D02*
X1929842D01*
X1927556Y602398D02*
X1929842D01*
X1931874Y600366D02*
X1934160D01*
X1931874Y600620D02*
X1934160D01*
X1931874Y600874D02*
X1934160D01*
X1931874Y601128D02*
X1934160D01*
X1931874Y601382D02*
X1934160D01*
X1931874Y601636D02*
X1934160D01*
X1931874Y601890D02*
X1934160D01*
X1931874Y602144D02*
X1934160D01*
X1931874Y602398D02*
X1934160D01*
X1933906Y603922D02*
X1934160D01*
X1944066Y597826D02*
X1945844D01*
X1944320Y600112D02*
X1944574D01*
X1943558Y598080D02*
X1946098D01*
X1943558Y598334D02*
X1946098D01*
X1943812Y598588D02*
X1946098D01*
X1943812Y598842D02*
X1946352D01*
X1943812Y599096D02*
X1946352D01*
X1944066Y599350D02*
X1946352D01*
X1944066Y599604D02*
X1945844D01*
X1944320Y599858D02*
X1945082D01*
X1939748Y600366D02*
X1942288D01*
X1939748Y600620D02*
X1942288D01*
X1936192Y602144D02*
X1938224D01*
X1935938Y602398D02*
X1938478D01*
X1935938Y602652D02*
X1938732D01*
X1936192Y602906D02*
X1938732D01*
X1936192Y603160D02*
X1938732D01*
X1940002Y600874D02*
X1942542D01*
X1940002Y601128D02*
X1942288D01*
X1940256Y601382D02*
X1941780D01*
X1940510Y601636D02*
X1941272D01*
X1940510Y601890D02*
X1941018D01*
X1936954Y601636D02*
X1937970D01*
X1936700Y601890D02*
X1938224D01*
X1936446Y603414D02*
X1938478D01*
X1936700Y603668D02*
X1937970D01*
X1936700Y603922D02*
X1937716D01*
X1936954Y604176D02*
X1937208D01*
X1937462Y601382D02*
X1937716D01*
X1941272Y599096D02*
X1941526D01*
X1940764Y599350D02*
X1941780D01*
X1940256Y599604D02*
X1941780D01*
X1939748Y599858D02*
X1942034D01*
X1939494Y600112D02*
X1942034D01*
X1949146Y596048D02*
X1949908D01*
X1948384Y596302D02*
X1950162D01*
X1947622Y596556D02*
X1950162D01*
X1947876Y596810D02*
X1950162D01*
X1947876Y597064D02*
X1950162D01*
X1945336Y597318D02*
X1945590D01*
X1947876D02*
X1950416D01*
X1944574Y597572D02*
X1945844D01*
X1947876D02*
X1950416D01*
X1948130Y597826D02*
X1950416D01*
X1948130Y598080D02*
X1950416D01*
X1948130Y598334D02*
X1949400D01*
X1948384Y598588D02*
X1948638D01*
X1951432Y597826D02*
X1953972D01*
X1951432Y598080D02*
X1953972D01*
X1951686Y598334D02*
X1954226D01*
X1951686Y598588D02*
X1954226D01*
X1951940Y598842D02*
X1954480D01*
X1951178Y595540D02*
X1953464D01*
X1951178Y595794D02*
X1953464D01*
X1951178Y596048D02*
X1953464D01*
X1951178Y596302D02*
X1953464D01*
X1951178Y596556D02*
X1953464D01*
X1951178Y596810D02*
X1953464D01*
X1951178Y597064D02*
X1953464D01*
X1951432Y597318D02*
X1953718D01*
X1951432Y597572D02*
X1953718D01*
X1962100Y595540D02*
X1964386D01*
X1962100Y595794D02*
X1964386D01*
X1962100Y596048D02*
X1964386D01*
X1962100Y596302D02*
X1964386D01*
X1962100Y596556D02*
X1964386D01*
X1962100Y596810D02*
X1964386D01*
X1965148Y595540D02*
X1967434D01*
X1955496Y602144D02*
X1960068D01*
X1956258Y602398D02*
X1959306D01*
X1961846Y597064D02*
X1964132D01*
X1961846Y597318D02*
X1964132D01*
X1961846Y597572D02*
X1964132D01*
X1961592Y597826D02*
X1964132D01*
X1961592Y598080D02*
X1963878D01*
X1961338Y598334D02*
X1963878D01*
X1961338Y598588D02*
X1963878D01*
X1961084Y598842D02*
X1963624D01*
X1960830Y599096D02*
X1963624D01*
X1960576Y599350D02*
X1963370D01*
X1960068Y599604D02*
X1963116D01*
X1959814Y599858D02*
X1963116D01*
X1959052Y600112D02*
X1962862D01*
X1965148Y595794D02*
X1967434D01*
X1969720D02*
X1970482D01*
X1965148Y596048D02*
X1967434D01*
X1969466D02*
X1971498D01*
X1965148Y596302D02*
X1967434D01*
X1965148Y596556D02*
X1967434D01*
X1969466D02*
X1971752D01*
X1965148Y596810D02*
X1967434D01*
X1969466D02*
X1971752D01*
X1964894Y597064D02*
X1967180D01*
X1969466D02*
X1971752D01*
X1966418Y597318D02*
X1967180D01*
X1969212D02*
X1971752D01*
X1969212Y597572D02*
X1971498D01*
X1969212Y597826D02*
X1971498D01*
X1970228Y598080D02*
X1971498D01*
X1973784Y597064D02*
X1974800D01*
X1969466Y596302D02*
X1972006D01*
X1984960Y604176D02*
X1986992D01*
X1981912Y600620D02*
X1982166D01*
X1977340Y600366D02*
X1979880D01*
X1977340Y600620D02*
X1979626D01*
X1981912Y600874D02*
X1982420D01*
X1981658Y601128D02*
X1982928D01*
X1981658Y601382D02*
X1983182D01*
X1981404Y601636D02*
X1983690D01*
X1981150Y601890D02*
X1983944D01*
X1981150Y602144D02*
X1983690D01*
X1980896Y602398D02*
X1983690D01*
X1981150Y602652D02*
X1983436D01*
X1981404Y602906D02*
X1983182D01*
X1981912Y603160D02*
X1983182D01*
X1982166Y603414D02*
X1982928D01*
X1977848Y600874D02*
X1979372D01*
X1978356Y601128D02*
X1979372D01*
X1978864Y601382D02*
X1979118D01*
X1977848Y598842D02*
X1978864D01*
X1977848Y599096D02*
X1979372D01*
X1978102Y598588D02*
X1978356D01*
X1977594Y599350D02*
X1979880D01*
X1977594Y599604D02*
X1980134D01*
X1977340Y599858D02*
X1980134D01*
X1977340Y600112D02*
X1979880D01*
X1985468Y603414D02*
X1986230D01*
X1985214Y603668D02*
X1986484D01*
X1985214Y603922D02*
X1986738D01*
X1933652Y668946D02*
X1937208D01*
X1933906Y669200D02*
X1937716D01*
X1932382Y667930D02*
X1935938D01*
X1932636Y668184D02*
X1936192D01*
X1933144Y668438D02*
X1936700D01*
X1933398Y668692D02*
X1936954D01*
X1931874Y667422D02*
X1935176D01*
X1932128Y667676D02*
X1935684D01*
X1934160Y669454D02*
X1937970D01*
X1934668Y669708D02*
X1938478D01*
X1946606Y676312D02*
X1957782D01*
X1945844Y676058D02*
X1955242D01*
X1931112Y666660D02*
X1934414D01*
X1931366Y666914D02*
X1934668D01*
X1931620Y667168D02*
X1934922D01*
X1972768Y674534D02*
X1978356D01*
X1974038Y674026D02*
X1979372D01*
X1973530Y674280D02*
X1978864D01*
X1974800Y673772D02*
X1979880D01*
X1971752Y674788D02*
X1977848D01*
X1970990Y675042D02*
X1977340D01*
X1969720Y675296D02*
X1976832D01*
X1968704Y675550D02*
X1976070D01*
X1967434Y675804D02*
X1975562D01*
X1870406Y650912D02*
X1875232D01*
X1870406Y651166D02*
X1875232D01*
X1870406Y651420D02*
X1875232D01*
X1892758Y660056D02*
X1897838D01*
X1893012Y660310D02*
X1897584D01*
X1891742Y658786D02*
X1899108D01*
X1891742Y659040D02*
X1898854D01*
X1891996Y659294D02*
X1898600D01*
X1892250Y659548D02*
X1898346D01*
X1892504Y659802D02*
X1898346D01*
X1891234Y657770D02*
X1893774D01*
X1891488Y658024D02*
X1893774D01*
X1891488Y658278D02*
X1894028D01*
X1891488Y658532D02*
X1894536D01*
X1893012Y653452D02*
X1897584D01*
X1892758Y653706D02*
X1898092D01*
X1892504Y653960D02*
X1898346D01*
X1892250Y654214D02*
X1898600D01*
X1891996Y654468D02*
X1898600D01*
X1891742Y654722D02*
X1898854D01*
X1891742Y654976D02*
X1899108D01*
X1891488Y655230D02*
X1894282D01*
X1891488Y655484D02*
X1894028D01*
X1891488Y655738D02*
X1893774D01*
X1891234Y655992D02*
X1893774D01*
X1893520Y660564D02*
X1897076D01*
X1954226Y663358D02*
X1956512D01*
X1954226Y663612D02*
X1956512D01*
X1954226Y663866D02*
X1956512D01*
X1954226Y664120D02*
X1956512D01*
X1953972Y664374D02*
X1956512D01*
X1953972Y664628D02*
X1956512D01*
X1953972Y664882D02*
X1956512D01*
X1954480Y663104D02*
X1956766D01*
X1954988Y665136D02*
X1956258D01*
X1954480Y662850D02*
X1955242D01*
X1894028Y652944D02*
X1896568D01*
X1932890Y645578D02*
X1935176D01*
X1932890Y645832D02*
X1935430D01*
X1933398Y647102D02*
X1935938D01*
X1933652Y647356D02*
X1935938D01*
X1933652Y647610D02*
X1936192D01*
X1933652Y647864D02*
X1936192D01*
X1933906Y648118D02*
X1936446D01*
X1933906Y648372D02*
X1936446D01*
X1933144Y646086D02*
X1935430D01*
X1933144Y646340D02*
X1935684D01*
X1933144Y646594D02*
X1935684D01*
X1933398Y646848D02*
X1935684D01*
X1934668Y649642D02*
X1937208D01*
X1934668Y649896D02*
X1937208D01*
X1934160Y648626D02*
X1936700D01*
X1934160Y648880D02*
X1936700D01*
X1934414Y649134D02*
X1936954D01*
X1934414Y649388D02*
X1936954D01*
X1951940Y650912D02*
X1958290D01*
X1951432Y650658D02*
X1957020D01*
X1950416Y649896D02*
X1954734D01*
X1950670Y650150D02*
X1955242D01*
X1950924Y650404D02*
X1956004D01*
X1897076Y656246D02*
X1925778D01*
X1897076Y656500D02*
X1926032D01*
X1897330Y656754D02*
X1926032D01*
X1897330Y657008D02*
X1926286D01*
X1897076Y657262D02*
X1926540D01*
X1897076Y657516D02*
X1926540D01*
X1897076Y657770D02*
X1926794D01*
X1896822Y655738D02*
X1925524D01*
X1897076Y655992D02*
X1925778D01*
X1893520Y653198D02*
X1897330D01*
X1974546Y659548D02*
X1977340D01*
X1975308Y660818D02*
X1976578D01*
X1975054Y659040D02*
X1976832D01*
X1974800Y659294D02*
X1977086D01*
X1974800Y659802D02*
X1977594D01*
X1974800Y660056D02*
X1977594D01*
X1975054Y660310D02*
X1977340D01*
X1975308Y660564D02*
X1977086D01*
X1993342Y658786D02*
X1995628D01*
X1993088Y659040D02*
X1995882D01*
X1993088Y659294D02*
X1995628D01*
X1992834Y659548D02*
X1995628D01*
X1995374Y656246D02*
X1997660D01*
X1995628Y656500D02*
X1997406D01*
X1995374Y655230D02*
X1998168D01*
X1995628Y654722D02*
X1997152D01*
X1995628Y654976D02*
X1997660D01*
X1995374Y655484D02*
X1997914D01*
X1995120Y655738D02*
X1997914D01*
X1995120Y655992D02*
X1997660D01*
X1992580Y659802D02*
X1995374D01*
X1992580Y660056D02*
X1995374D01*
X1862786Y641006D02*
X1883106D01*
X1862786Y641260D02*
X1883106D01*
X1862786Y641514D02*
X1883106D01*
X1862786Y641768D02*
X1883106D01*
X1893266Y638466D02*
X1895806D01*
X1893012Y638720D02*
X1895552D01*
X1892250Y638974D02*
X1895298D01*
X1894028Y637958D02*
X1896060D01*
X1893774Y638212D02*
X1896060D01*
X1913840Y635926D02*
X1915618D01*
X1913840Y636180D02*
X1915618D01*
X1913840Y636434D02*
X1915618D01*
X1913840Y636688D02*
X1915618D01*
X1913840Y637958D02*
X1917396D01*
X1913840Y638212D02*
X1917142D01*
X1913840Y638466D02*
X1916888D01*
X1913840Y638720D02*
X1916888D01*
X1913840Y639482D02*
X1916126D01*
X1913840Y639736D02*
X1915872D01*
X1913840Y639990D02*
X1915618D01*
X1913840Y636942D02*
X1915618D01*
X1913840Y637196D02*
X1915618D01*
X1913840Y637450D02*
X1915618D01*
X1913840Y637704D02*
X1915618D01*
X1913840Y638974D02*
X1916634D01*
X1913840Y639228D02*
X1916380D01*
X1913840Y640244D02*
X1915364D01*
X1913840Y640498D02*
X1915110D01*
X1913840Y634910D02*
X1915618D01*
X1913840Y635164D02*
X1915618D01*
X1913840Y635418D02*
X1915618D01*
X1913840Y635672D02*
X1915618D01*
X1913840Y633894D02*
X1915618D01*
X1913840Y634148D02*
X1915618D01*
X1913840Y634402D02*
X1915618D01*
X1913840Y634656D02*
X1915618D01*
X1913840Y633132D02*
X1915618D01*
X1913840Y633386D02*
X1915618D01*
X1913840Y633640D02*
X1915618D01*
X1932128Y643038D02*
X1934414D01*
X1932128Y643292D02*
X1934668D01*
X1932382Y643546D02*
X1934668D01*
X1932382Y643800D02*
X1934668D01*
X1932382Y644054D02*
X1934668D01*
X1932636Y644308D02*
X1934922D01*
X1932636Y644562D02*
X1934922D01*
X1932636Y644816D02*
X1934922D01*
X1934414Y638974D02*
X1937462D01*
X1954226Y644816D02*
X1956258D01*
X1954988Y643546D02*
X1957274D01*
X1954734Y643800D02*
X1957020D01*
X1954734Y644054D02*
X1956766D01*
X1954480Y644308D02*
X1956766D01*
X1954480Y644562D02*
X1956512D01*
X1892504Y631100D02*
X1895298D01*
X1893012Y631354D02*
X1895552D01*
X1893520Y631608D02*
X1895806D01*
X1893774Y631862D02*
X1896060D01*
X1894028Y632116D02*
X1896060D01*
X1913840Y629322D02*
X1915618D01*
X1913840Y629576D02*
X1915618D01*
X1913840Y629830D02*
X1915618D01*
X1913840Y630084D02*
X1915618D01*
X1913840Y630338D02*
X1915618D01*
X1913840Y630592D02*
X1915618D01*
X1913840Y630846D02*
X1915618D01*
X1913840Y631100D02*
X1915618D01*
X1913840Y631354D02*
X1915618D01*
X1913840Y631608D02*
X1915618D01*
X1913840Y631862D02*
X1915618D01*
X1913840Y632116D02*
X1915618D01*
X1913840Y632370D02*
X1915618D01*
X1913840Y632624D02*
X1915618D01*
X1933652Y625258D02*
X1936192D01*
X1933652Y625512D02*
X1936192D01*
X1933652Y625766D02*
X1935938D01*
X1933398Y626020D02*
X1935938D01*
X1933398Y626274D02*
X1935684D01*
X1933144Y626528D02*
X1935684D01*
X1933144Y626782D02*
X1935430D01*
X1934668Y631100D02*
X1937462D01*
X1953972Y630084D02*
X1956258D01*
X1954226Y630338D02*
X1956258D01*
X1954226Y630592D02*
X1956512D01*
X1953464Y629322D02*
X1955750D01*
X1953718Y629576D02*
X1955750D01*
X1953972Y629830D02*
X1956004D01*
X1954480Y630846D02*
X1956766D01*
X1954734Y631100D02*
X1956766D01*
X1954734Y631354D02*
X1957020D01*
X1954988Y631608D02*
X1957020D01*
X1886916Y639228D02*
X1895044D01*
X1887170Y639482D02*
X1894790D01*
X1887424Y639736D02*
X1894536D01*
X1887932Y639990D02*
X1894028D01*
X1888186Y640244D02*
X1893774D01*
X1929080Y639228D02*
X1937208D01*
X1929334Y639482D02*
X1936954D01*
X1929588Y639736D02*
X1936700D01*
X1929842Y639990D02*
X1936192D01*
X1930350Y640244D02*
X1935684D01*
X1930858Y640498D02*
X1935176D01*
X1931620Y640752D02*
X1934414D01*
X1888186Y629830D02*
X1893774D01*
X1887678Y630084D02*
X1894282D01*
X1887424Y630338D02*
X1894536D01*
X1887170Y630592D02*
X1894790D01*
X1886916Y630846D02*
X1895044D01*
X1929080D02*
X1937208D01*
X1930350Y629830D02*
X1935938D01*
X1929842Y630084D02*
X1936446D01*
X1929588Y630338D02*
X1936700D01*
X1929334Y630592D02*
X1936954D01*
X1931620Y629322D02*
X1934668D01*
X1930858Y629576D02*
X1935430D01*
X1913840Y632878D02*
X1915618D01*
X1974292Y641006D02*
X1976578D01*
X1974292Y641260D02*
X1976578D01*
X1974292Y641514D02*
X1976578D01*
X1974038Y641768D02*
X1976578D01*
X1974546Y639990D02*
X1976832D01*
X1974546Y640244D02*
X1976832D01*
X1974546Y640498D02*
X1976832D01*
X1974546Y640752D02*
X1976832D01*
X1973784Y642276D02*
X1976324D01*
X1973784Y642530D02*
X1976070D01*
X1973530Y642784D02*
X1976070D01*
X1973530Y643038D02*
X1976070D01*
X1973530Y643292D02*
X1975816D01*
X1973276Y643546D02*
X1975816D01*
X1973022Y643800D02*
X1975562D01*
X1973022Y644054D02*
X1975562D01*
X1972768Y644308D02*
X1975308D01*
X1972768Y644562D02*
X1975308D01*
X1972514Y644816D02*
X1975054D01*
X1974038Y642022D02*
X1976324D01*
X1974546Y633132D02*
X1976832D01*
X1975054Y635926D02*
X1977340D01*
X1975054Y636180D02*
X1977340D01*
X1975054Y636434D02*
X1977340D01*
X1975054Y636688D02*
X1977340D01*
X1975054Y636942D02*
X1977340D01*
X1975054Y637196D02*
X1977340D01*
X1975054Y637450D02*
X1977340D01*
X1975054Y637704D02*
X1977340D01*
X1975054Y637958D02*
X1977340D01*
X1975054Y638212D02*
X1977086D01*
X1974800Y638466D02*
X1977086D01*
X1974800Y638720D02*
X1977086D01*
X1974800Y638974D02*
X1977086D01*
X1974800Y639228D02*
X1977086D01*
X1974800Y639482D02*
X1977086D01*
X1974800Y639736D02*
X1977086D01*
X1975054Y635164D02*
X1977340D01*
X1975054Y635418D02*
X1977340D01*
X1975054Y635672D02*
X1977340D01*
X1974800Y633894D02*
X1977086D01*
X1974800Y634148D02*
X1977086D01*
X1974800Y634402D02*
X1977086D01*
X1974800Y634656D02*
X1977086D01*
X1975054Y634910D02*
X1977340D01*
X1974800Y633386D02*
X1977086D01*
X1974800Y633640D02*
X1977086D01*
X1974038Y631354D02*
X1976578D01*
X1974292Y631608D02*
X1976578D01*
X1974292Y631862D02*
X1976578D01*
X1974292Y632116D02*
X1976578D01*
X1974546Y632370D02*
X1976832D01*
X1974546Y632624D02*
X1976832D01*
X1972514Y628306D02*
X1975054D01*
X1972768Y628560D02*
X1975308D01*
X1972768Y628814D02*
X1975308D01*
X1973022Y629068D02*
X1975562D01*
X1973022Y629322D02*
X1975562D01*
X1973276Y629576D02*
X1975816D01*
X1973276Y629830D02*
X1975816D01*
X1973530Y630084D02*
X1976070D01*
X1973530Y630338D02*
X1976070D01*
X1973784Y630592D02*
X1976070D01*
X1973784Y630846D02*
X1976324D01*
X1974038Y631100D02*
X1976324D01*
X1972260Y628052D02*
X1975054D01*
X1974546Y632878D02*
X1976832D01*
X1934668Y623226D02*
X1937208D01*
X1934668Y623480D02*
X1937208D01*
X1934414Y623734D02*
X1936954D01*
X1934414Y623988D02*
X1936700D01*
X1934160Y624242D02*
X1936700D01*
X1934160Y624496D02*
X1936446D01*
X1932636Y604938D02*
X1934922D01*
X1932382Y605192D02*
X1935176D01*
X1932382Y605446D02*
X1935430D01*
X1932636Y605700D02*
X1935176D01*
X1932890Y605954D02*
X1934922D01*
X1933144Y606208D02*
X1934668D01*
X1933398Y606462D02*
X1934414D01*
X1951686Y622210D02*
X1958036D01*
X1951432Y622464D02*
X1956766D01*
X1950924Y622718D02*
X1956004D01*
X1950670Y622972D02*
X1955242D01*
X1950416Y623226D02*
X1954734D01*
X1948638Y610018D02*
X1956766D01*
X1949146Y609764D02*
X1960322D01*
X1948130Y610272D02*
X1955242D01*
X1974292Y613574D02*
X1975308D01*
X1974546Y613828D02*
X1975054D01*
X1973276Y612812D02*
X1975816D01*
X1973276Y613066D02*
X1975562D01*
X1973784Y613320D02*
X1975562D01*
X1993596Y613574D02*
X1995628D01*
X1993342Y613828D02*
X1995628D01*
X1993088Y614082D02*
X1995882D01*
X1993342Y614336D02*
X1995882D01*
X1993342Y614590D02*
X1996136D01*
X1993596Y614844D02*
X1995882D01*
X1993850Y615098D02*
X1995628D01*
X1994104Y613320D02*
X1995374D01*
X1995628Y618146D02*
X1998168D01*
X1995628Y618400D02*
X1998168D01*
X1995628Y617384D02*
X1997660D01*
X1995374Y617638D02*
X1997914D01*
X1995374Y617892D02*
X1997914D01*
X1973784Y611542D02*
X1975308D01*
X1973784Y611796D02*
X1975562D01*
X1973530Y612050D02*
X1976070D01*
X1973530Y612304D02*
X1976070D01*
X1973276Y612558D02*
X1976070D01*
X1893520Y600366D02*
X1895806D01*
X1893520Y600620D02*
X1895806D01*
X1893520Y601890D02*
X1895806D01*
X1893520Y602144D02*
X1895806D01*
X1893520Y602398D02*
X1895806D01*
X1893520Y600874D02*
X1895806D01*
X1893520Y601128D02*
X1895806D01*
X1893520Y601382D02*
X1895806D01*
X1893520Y601636D02*
X1895806D01*
X1933652Y604176D02*
X1934414D01*
X1952956Y600366D02*
X1962608D01*
X1953210Y600620D02*
X1962354D01*
X1953464Y600874D02*
X1962100D01*
X1953718Y601128D02*
X1961846D01*
X1953972Y601382D02*
X1961592D01*
X1952702Y600112D02*
X1956512D01*
X1952194Y599350D02*
X1954988D01*
X1952194Y599604D02*
X1955496D01*
X1952448Y599858D02*
X1955750D01*
X1954480Y601636D02*
X1961084D01*
X1954734Y601890D02*
X1960576D01*
X1951940Y599096D02*
X1954734D01*
X1973784Y597318D02*
X1975308D01*
X1973784Y597572D02*
X1976070D01*
X1973530Y597826D02*
X1976070D01*
X1973530Y598080D02*
X1976070D01*
X1973530Y598334D02*
X1975816D01*
X1973276Y598588D02*
X1975816D01*
X1973276Y598842D02*
X1975562D01*
X1973530Y599096D02*
X1975562D01*
X1974292Y599350D02*
X1975562D01*
X1975054Y599604D02*
X1975308D01*
X1952194Y677836D02*
X1968704D01*
X1953718Y678090D02*
X1967434D01*
X1947368Y676566D02*
X1973530D01*
X1948130Y676820D02*
X1972768D01*
X1949908Y677328D02*
X1970990D01*
X1950924Y677582D02*
X1969974D01*
X1949146Y677074D02*
X1971752D01*
X1868628Y670470D02*
X1939494D01*
X1868628Y670724D02*
X1940002D01*
X1868882Y670978D02*
X1940510D01*
X1868882Y671232D02*
X1940764D01*
X1868882Y671486D02*
X1941272D01*
X1868882Y671740D02*
X1941780D01*
X1868882Y671994D02*
X1942288D01*
X1868628Y672248D02*
X1942796D01*
X1868628Y672502D02*
X1943304D01*
X1952194Y651166D02*
X1968704D01*
X1952702Y651420D02*
X1968196D01*
X1953210Y651674D02*
X1967688D01*
X1953718Y651928D02*
X1967180D01*
X1954226Y652182D02*
X1966672D01*
X1954988Y652436D02*
X1965910D01*
X1954226Y620940D02*
X1966672D01*
X1953718Y621194D02*
X1967180D01*
X1953210Y621448D02*
X1967942D01*
X1952702Y621702D02*
X1968450D01*
X1952194Y621956D02*
X1968704D01*
X1954988Y620686D02*
X1965910D01*
X1953972Y608240D02*
X1967180D01*
X1952956Y608494D02*
X1968196D01*
X1951940Y608748D02*
X1968958D01*
X1951178Y609002D02*
X1969720D01*
X1950416Y609256D02*
X1970482D01*
X1949908Y609510D02*
X1971244D01*
X1929842Y665390D02*
X1932890D01*
X1930096Y665644D02*
X1933144D01*
X1962862Y665390D02*
X1964386D01*
X1959814Y665644D02*
X1960830D01*
X1958544Y665390D02*
X1960830D01*
X1988008D02*
X1990802D01*
X1987754Y665644D02*
X1990548D01*
X1866850Y645070D02*
X1867866D01*
X1866596Y645324D02*
X1867612D01*
X1882344Y645070D02*
X1883106D01*
X1882344Y645324D02*
X1883106D01*
X1874216Y645070D02*
X1875232D01*
X1874216Y645324D02*
X1875232D01*
X1877518Y645070D02*
X1878534D01*
X1877518Y645324D02*
X1878534D01*
X1878280Y604430D02*
X1883868D01*
X1878788Y604684D02*
X1883614D01*
X1919174Y645070D02*
X1921460D01*
X1919428Y645324D02*
X1921714D01*
X1920190Y624750D02*
X1922476D01*
X1919936Y625004D02*
X1922222D01*
X1946098Y645324D02*
X1948892D01*
X1946098Y645070D02*
X1948638D01*
Y624750D02*
X1951940D01*
X1948384Y625004D02*
X1951686D01*
X1964386Y645070D02*
X1966418D01*
X1972006Y645324D02*
X1974800D01*
X1968958Y624750D02*
X1972514D01*
X1969466Y625004D02*
X1972768D01*
X1985976Y645070D02*
X1986230D01*
X1985976Y645324D02*
X1986992D01*
X1984452Y624750D02*
X1986992D01*
X1984706Y625004D02*
X1987246D01*
X1984706Y604430D02*
X1987500D01*
X1984452Y604684D02*
X1987500D01*
X1999692Y625004D02*
X2000708D01*
X1932890Y645324D02*
X1935176D01*
X1932636Y645070D02*
X1935176D01*
X1953972D02*
X1956258D01*
X1933906Y624750D02*
X1936446D01*
X1933906Y625004D02*
X1936192D01*
X1933144Y604430D02*
X1934668D01*
X1932890Y604684D02*
X1934922D01*
X1972260Y645070D02*
X1975054D01*
X1951686Y593254D02*
X1954480D01*
X1951686Y593508D02*
X1954226D01*
X1951686Y593762D02*
X1953972D01*
X1951432Y594016D02*
X1953972D01*
X1951178Y595286D02*
X1953464D01*
X1951432Y594270D02*
X1953718D01*
X1951432Y594524D02*
X1953718D01*
X1951178Y594778D02*
X1953718D01*
X1951178Y595032D02*
X1953464D01*
X1962100Y595286D02*
X1964386D01*
X1961846Y595032D02*
X1964386D01*
X1965148Y595286D02*
X1967688D01*
X1961084Y593254D02*
X1963624D01*
X1961338Y593508D02*
X1963878D01*
X1961592Y593762D02*
X1963878D01*
X1961592Y594016D02*
X1964132D01*
X1961846Y594270D02*
X1964132D01*
X1961846Y594524D02*
X1964132D01*
X1961846Y594778D02*
X1964132D01*
X1960322Y592492D02*
X1963370D01*
X1960576Y592746D02*
X1963370D01*
X1960830Y593000D02*
X1963624D01*
X1965148Y595032D02*
X1966672D01*
X1955242Y589952D02*
X1960322D01*
X1959306Y591984D02*
X1962862D01*
X1958544Y591730D02*
X1962862D01*
X1957020Y589444D02*
X1958544D01*
X1955750Y589698D02*
X1959814D01*
Y592238D02*
X1963116D01*
X1952194Y592492D02*
X1955242D01*
X1954734Y590206D02*
X1960830D01*
X1952448Y591984D02*
X1956258D01*
X1952956Y591476D02*
X1962608D01*
X1953210Y591222D02*
X1962354D01*
X1953464Y590968D02*
X1962100D01*
X1953972Y590714D02*
X1961592D01*
X1954226Y590460D02*
X1961338D01*
X1952702Y591730D02*
X1957020D01*
X1951940Y592746D02*
X1954988D01*
X1951940Y593000D02*
X1954734D01*
X1952448Y592238D02*
X1955496D01*
M02*
