G04*
G04 #@! TF.GenerationSoftware,Altium Limited,Altium Designer,20.0.2 (26)*
G04*
G04 Layer_Color=32896*
%FSLAX44Y44*%
%MOMM*%
G71*
G01*
G75*
%ADD10C,0.2500*%
%ADD13C,0.1500*%
%ADD14C,0.2000*%
%ADD15C,0.2540*%
%ADD122C,0.0500*%
D10*
X1100250Y417570D02*
G03*
X1100250Y417570I-1250J0D01*
G01*
D13*
X731350Y318140D02*
X737700D01*
X731350Y302900D02*
X737700D01*
X750400Y304170D02*
Y316870D01*
X718650Y304170D02*
Y316870D01*
X1079350Y415140D02*
X1085700D01*
X1079350Y399900D02*
X1085700D01*
X1098400Y401170D02*
Y413870D01*
X1066650Y401170D02*
Y413870D01*
X1126300Y471796D02*
X1132650D01*
X1126300Y487036D02*
X1132650D01*
X1113600Y473066D02*
Y485766D01*
X1145350Y473066D02*
Y485766D01*
X918650Y757870D02*
X931350D01*
X918650Y726120D02*
X931350D01*
X917380Y738820D02*
Y745170D01*
X932620Y738820D02*
Y745170D01*
X854350Y653140D02*
X860700D01*
X854350Y637900D02*
X860700D01*
X873400Y639170D02*
Y651870D01*
X841650Y639170D02*
Y651870D01*
X948000Y666520D02*
X953000D01*
X948000Y654520D02*
X953000D01*
X965250Y655520D02*
Y665520D01*
X935638Y655445D02*
Y665445D01*
X898650Y593870D02*
X911350D01*
X898650Y562120D02*
X911350D01*
X897380Y574820D02*
Y581170D01*
X912620Y574820D02*
Y581170D01*
X929350Y498170D02*
Y510870D01*
X897600Y498170D02*
Y510870D01*
X910300Y512140D02*
X916650D01*
X910300Y496900D02*
X916650D01*
X1025620Y562820D02*
Y569170D01*
X1010380Y562820D02*
Y569170D01*
X1011650Y550120D02*
X1024350D01*
X1011650Y581870D02*
X1024350D01*
X1091620Y525820D02*
Y532170D01*
X1076380Y525820D02*
Y532170D01*
X1077650Y513120D02*
X1090350D01*
X1077650Y544870D02*
X1090350D01*
X1077650Y550170D02*
X1090350D01*
X1077650Y581920D02*
X1090350D01*
X1091620Y562870D02*
Y569220D01*
X1076380Y562870D02*
Y569220D01*
X1145350Y490066D02*
Y502766D01*
X1113600Y490066D02*
Y502766D01*
X1126300Y504036D02*
X1132650D01*
X1126300Y488796D02*
X1132650D01*
X1009620Y525820D02*
Y532170D01*
X994380Y525820D02*
Y532170D01*
X995650Y513120D02*
X1008350D01*
X995650Y544870D02*
X1008350D01*
X995650Y550170D02*
X1008350D01*
X995650Y581920D02*
X1008350D01*
X1009620Y562870D02*
Y569220D01*
X994380Y562870D02*
Y569220D01*
X1035380Y562870D02*
Y569220D01*
X1050620Y562870D02*
Y569220D01*
X1036650Y581920D02*
X1049350D01*
X1036650Y550170D02*
X1049350D01*
X1036650Y544870D02*
X1049350D01*
X1036650Y513120D02*
X1049350D01*
X1035380Y525820D02*
Y532170D01*
X1050620Y525820D02*
Y532170D01*
X1031570Y636140D02*
X1037920D01*
X1031570Y620900D02*
X1037920D01*
X1050620Y622170D02*
Y634870D01*
X1018870Y622170D02*
Y634870D01*
X894350Y620140D02*
X900700D01*
X894350Y604900D02*
X900700D01*
X913400Y606170D02*
Y618870D01*
X881650Y606170D02*
Y618870D01*
X1094650Y513170D02*
X1107350D01*
X1094650Y544920D02*
X1107350D01*
X1108620Y525870D02*
Y532220D01*
X1093380Y525870D02*
Y532220D01*
X1108620Y562820D02*
Y569170D01*
X1093380Y562820D02*
Y569170D01*
X1094650Y550120D02*
X1107350D01*
X1094650Y581870D02*
X1107350D01*
X1113650Y456066D02*
Y468766D01*
X1145400Y456066D02*
Y468766D01*
X1126350Y454796D02*
X1132700D01*
X1126350Y470036D02*
X1132700D01*
X1126350Y521140D02*
X1132700D01*
X1126350Y505900D02*
X1132700D01*
X1145400Y507170D02*
Y519870D01*
X1113650Y507170D02*
Y519870D01*
X1012650Y513170D02*
X1025350D01*
X1012650Y544920D02*
X1025350D01*
X1026620Y525870D02*
Y532220D01*
X1011380Y525870D02*
Y532220D01*
X1053650Y581870D02*
X1066350D01*
X1053650Y550120D02*
X1066350D01*
X1052380Y562820D02*
Y569170D01*
X1067620Y562820D02*
Y569170D01*
X1052380Y525870D02*
Y532220D01*
X1067620Y525870D02*
Y532220D01*
X1053650Y544920D02*
X1066350D01*
X1053650Y513170D02*
X1066350D01*
X938650Y703170D02*
Y715870D01*
X970400Y703170D02*
Y715870D01*
X951350Y701900D02*
X957700D01*
X951350Y717140D02*
X957700D01*
X936350Y703170D02*
Y715870D01*
X904600Y703170D02*
Y715870D01*
X917300Y717140D02*
X923650D01*
X917300Y701900D02*
X923650D01*
X982650Y366870D02*
X995350D01*
X982650Y335120D02*
X995350D01*
X981380Y347820D02*
Y354170D01*
X996620Y347820D02*
Y354170D01*
X976620Y347820D02*
Y354170D01*
X961380Y347820D02*
Y354170D01*
X962650Y335120D02*
X975350D01*
X962650Y366870D02*
X975350D01*
X861650Y366170D02*
Y378870D01*
X893400Y366170D02*
Y378870D01*
X874350Y364900D02*
X880700D01*
X874350Y380140D02*
X880700D01*
X874350Y358140D02*
X880700D01*
X874350Y342900D02*
X880700D01*
X893400Y344170D02*
Y356870D01*
X861650Y344170D02*
Y356870D01*
X844650Y566870D02*
X857350D01*
X844650Y535120D02*
X857350D01*
X843380Y547820D02*
Y554170D01*
X858620Y547820D02*
Y554170D01*
X1038650Y438220D02*
Y450920D01*
X1070400Y438220D02*
Y450920D01*
X1051350Y436950D02*
X1057700D01*
X1051350Y452190D02*
X1057700D01*
X1051350Y434190D02*
X1057700D01*
X1051350Y418950D02*
X1057700D01*
X1070400Y420220D02*
Y432920D01*
X1038650Y420220D02*
Y432920D01*
X1121650Y629870D02*
X1134350D01*
X1121650Y598120D02*
X1134350D01*
X1120380Y610820D02*
Y617170D01*
X1135620Y610820D02*
Y617170D01*
X1152350Y629140D02*
X1158700D01*
X1152350Y613900D02*
X1158700D01*
X1171400Y615170D02*
Y627870D01*
X1139650Y615170D02*
Y627870D01*
X798350Y318140D02*
X804700D01*
X798350Y302900D02*
X804700D01*
X817400Y304170D02*
Y316870D01*
X785650Y304170D02*
Y316870D01*
X898350Y448140D02*
X904700D01*
X898350Y432900D02*
X904700D01*
X917400Y434170D02*
Y446870D01*
X885650Y434170D02*
Y446870D01*
X1004650Y450920D02*
X1017350D01*
X1004650Y419170D02*
X1017350D01*
X1003380Y431870D02*
Y438220D01*
X1018620Y431870D02*
Y438220D01*
X1035620Y431870D02*
Y438220D01*
X1020380Y431870D02*
Y438220D01*
X1021650Y419170D02*
X1034350D01*
X1021650Y450920D02*
X1034350D01*
X1075650D02*
X1088350D01*
X1075650Y419170D02*
X1088350D01*
X1074380Y431870D02*
Y438220D01*
X1089620Y431870D02*
Y438220D01*
X1132380Y431870D02*
Y438220D01*
X1147620Y431870D02*
Y438220D01*
X1133650Y450920D02*
X1146350D01*
X1133650Y419170D02*
X1146350D01*
X837350Y593170D02*
Y605870D01*
X805600Y593170D02*
Y605870D01*
X818300Y607140D02*
X824650D01*
X818300Y591900D02*
X824650D01*
X776300Y645900D02*
X782650D01*
X776300Y661140D02*
X782650D01*
X763600Y647170D02*
Y659870D01*
X795350Y647170D02*
Y659870D01*
X758350Y647170D02*
Y659870D01*
X726600Y647170D02*
Y659870D01*
X739300Y661140D02*
X745650D01*
X739300Y645900D02*
X745650D01*
X725350Y378140D02*
X731700D01*
X725350Y362900D02*
X731700D01*
X744400Y364170D02*
Y376870D01*
X712650Y364170D02*
Y376870D01*
X908000Y684520D02*
Y689520D01*
X920000Y684520D02*
Y689520D01*
X909000Y701770D02*
X919000D01*
X909075Y672158D02*
X919075D01*
X895075D02*
X905075D01*
X895000Y701770D02*
X905000D01*
X906000Y684520D02*
Y689520D01*
X894000Y684520D02*
Y689520D01*
X880000Y684520D02*
Y689520D01*
X892000Y684520D02*
Y689520D01*
X881000Y701770D02*
X891000D01*
X881075Y672158D02*
X891075D01*
X980075Y513158D02*
X990075D01*
X980000Y542770D02*
X990000D01*
X991000Y525520D02*
Y530520D01*
X979000Y525520D02*
Y530520D01*
X950000Y558520D02*
X955000D01*
X950000Y546520D02*
X955000D01*
X967250Y547520D02*
Y557520D01*
X937638Y547445D02*
Y557445D01*
X941000Y544520D02*
X946000D01*
X941000Y532520D02*
X946000D01*
X958250Y533520D02*
Y543520D01*
X928638Y533445D02*
Y543445D01*
X935638Y641445D02*
Y651445D01*
X965250Y641520D02*
Y651520D01*
X948000Y640520D02*
X953000D01*
X948000Y652520D02*
X953000D01*
X898000Y647520D02*
X903000D01*
X898000Y635520D02*
X903000D01*
X915250Y636520D02*
Y646520D01*
X885638Y636445D02*
Y646445D01*
Y623445D02*
Y633445D01*
X915250Y623520D02*
Y633520D01*
X898000Y622520D02*
X903000D01*
X898000Y634520D02*
X903000D01*
X1139000Y586670D02*
Y591670D01*
X1151000Y586670D02*
Y591670D01*
X1140000Y603920D02*
X1150000D01*
X1140075Y574308D02*
X1150075D01*
X1160075D02*
X1170075D01*
X1160000Y603920D02*
X1170000D01*
X1171000Y586670D02*
Y591670D01*
X1159000Y586670D02*
Y591670D01*
D14*
X702300Y321520D02*
X716270D01*
X702300Y355520D02*
X716270D01*
X702300Y321520D02*
Y355520D01*
X750560D02*
X764530D01*
X750560Y321520D02*
X764530D01*
Y355520D01*
X770470Y320520D02*
X784440D01*
X770470Y354520D02*
X784440D01*
X770470Y320520D02*
Y354520D01*
X818730D02*
X832700D01*
X818730Y320520D02*
X832700D01*
Y354520D01*
X1107750Y421070D02*
X1114750D01*
X1107750Y450070D02*
X1114750D01*
X1107750Y421070D02*
Y450070D01*
X1114750Y421070D02*
Y450070D01*
X1087820Y431201D02*
X1089486Y432867D01*
X1092818D01*
X1094484Y431201D01*
Y424536D01*
X1092818Y422870D01*
X1089486D01*
X1087820Y424536D01*
X1077823Y422870D02*
X1084487D01*
X1077823Y429534D01*
Y431201D01*
X1079489Y432867D01*
X1082821D01*
X1084487Y431201D01*
X1074490Y424536D02*
X1072824Y422870D01*
X1069492D01*
X1067826Y424536D01*
Y431201D01*
X1069492Y432867D01*
X1072824D01*
X1074490Y431201D01*
Y429534D01*
X1072824Y427868D01*
X1067826D01*
D15*
X928721Y598770D02*
G03*
X928721Y598770I-1521J0D01*
G01*
X983300Y787520D02*
X1130300D01*
X983300Y649520D02*
Y787520D01*
X1130300Y649520D02*
Y787520D01*
X983300Y649520D02*
X1130300D01*
X739130Y325820D02*
Y351220D01*
X807300Y324820D02*
Y350220D01*
X917950Y580020D02*
Y606270D01*
X993450Y580020D02*
Y606270D01*
X942450Y620770D02*
X968700D01*
X942450Y566270D02*
X968700D01*
D122*
X1091750Y418570D02*
X1130750D01*
X1091750D02*
Y452570D01*
X1130750D01*
Y418570D02*
Y452570D01*
M02*
