G04*
G04 #@! TF.GenerationSoftware,Altium Limited,Altium Designer,20.0.2 (26)*
G04*
G04 Layer_Color=439754*
%FSLAX44Y44*%
%MOMM*%
G71*
G01*
G75*
%ADD10C,0.2500*%
%ADD11C,0.6000*%
%ADD12C,0.1000*%
%ADD13C,0.1500*%
%ADD14C,0.2000*%
%ADD15C,0.2540*%
%ADD16C,0.1270*%
D10*
X917250Y496770D02*
G03*
X917250Y496770I-1250J0D01*
G01*
X885250Y418520D02*
G03*
X885250Y418520I-1250J0D01*
G01*
X955250Y462520D02*
G03*
X955250Y462520I-1250J0D01*
G01*
X893750Y401820D02*
G03*
X893750Y401820I-1250J0D01*
G01*
D11*
X928250Y517520D02*
G03*
X928250Y517520I-3000J0D01*
G01*
X921000Y391370D02*
G03*
X921000Y391370I-3000J0D01*
G01*
D12*
X805500Y583680D02*
G03*
X805500Y583680I-500J0D01*
G01*
D13*
X976300Y458140D02*
X982650D01*
X976300Y442900D02*
X982650D01*
X963600Y444170D02*
Y456870D01*
X995350Y444170D02*
Y456870D01*
X1153257Y291776D02*
X1230707D01*
X1153257Y483196D02*
X1153415Y483354D01*
X1230729Y483499D02*
X1230750Y483520D01*
X1153250Y483520D02*
X1153415Y483354D01*
X1153500Y483770D02*
X1230500D01*
X1153250Y483520D02*
X1153500Y483770D01*
X1153257Y291776D02*
Y483196D01*
X1230729Y291798D02*
Y483499D01*
X1110380Y719820D02*
Y726170D01*
X1125620Y719820D02*
Y726170D01*
X1111650Y707120D02*
X1124350D01*
X1111650Y738870D02*
X1124350D01*
X1128962Y371520D02*
X1133962D01*
X1128962Y383520D02*
X1133962D01*
X1146212Y372520D02*
Y382520D01*
X1116600Y372595D02*
Y382595D01*
X1128962Y351520D02*
X1133962D01*
X1128962Y363520D02*
X1133962D01*
X1146212Y352520D02*
Y362520D01*
X1116600Y352595D02*
Y362595D01*
X1128962Y331520D02*
X1133962D01*
X1128962Y343520D02*
X1133962D01*
X1146212Y332520D02*
Y342520D01*
X1116600Y332595D02*
Y342595D01*
X1128962Y311520D02*
X1133962D01*
X1128962Y323520D02*
X1133962D01*
X1146212Y312520D02*
Y322520D01*
X1116600Y312595D02*
Y322595D01*
X1081638Y372595D02*
Y382595D01*
X1111250Y372520D02*
Y382520D01*
X1094000Y383520D02*
X1099000D01*
X1094000Y371520D02*
X1099000D01*
X1081638Y352595D02*
Y362595D01*
X1111250Y352520D02*
Y362520D01*
X1094000Y363520D02*
X1099000D01*
X1094000Y351520D02*
X1099000D01*
X1082638Y332595D02*
Y342595D01*
X1112250Y332520D02*
Y342520D01*
X1095000Y343520D02*
X1100000D01*
X1095000Y331520D02*
X1100000D01*
X1081638Y312595D02*
Y322595D01*
X1111250Y312520D02*
Y322520D01*
X1094000Y323520D02*
X1099000D01*
X1094000Y311520D02*
X1099000D01*
X1126380Y719820D02*
Y726170D01*
X1141620Y719820D02*
Y726170D01*
X1127650Y707120D02*
X1140350D01*
X1127650Y738870D02*
X1140350D01*
X1021650Y450870D02*
X1034350D01*
X1021650Y419120D02*
X1034350D01*
X1035620Y431820D02*
Y438170D01*
X1020380Y431820D02*
Y438170D01*
X1151620Y584870D02*
Y591220D01*
X1136380Y584870D02*
Y591220D01*
X1137650Y603920D02*
X1150350D01*
X1137650Y572170D02*
X1150350D01*
X1126350Y488900D02*
X1132700D01*
X1126350Y504140D02*
X1132700D01*
X1145400Y490170D02*
Y502870D01*
X1113650Y490170D02*
Y502870D01*
X1010350Y765900D02*
X1016700D01*
X1010350Y781140D02*
X1016700D01*
X1029400Y767170D02*
Y779870D01*
X997650Y767170D02*
Y779870D01*
X865650Y474170D02*
Y486870D01*
X897400Y474170D02*
Y486870D01*
X878350Y488140D02*
X884700D01*
X878350Y472900D02*
X884700D01*
X860380Y412820D02*
Y419170D01*
X875620Y412820D02*
Y419170D01*
X861650Y400120D02*
X874350D01*
X861650Y431870D02*
X874350D01*
X844650Y602870D02*
X857350D01*
X844650Y571120D02*
X857350D01*
X858620Y583820D02*
Y590170D01*
X843380Y583820D02*
Y590170D01*
Y547820D02*
Y554170D01*
X858620Y547820D02*
Y554170D01*
X844650Y535120D02*
X857350D01*
X844650Y566870D02*
X857350D01*
X818350Y591900D02*
X824700D01*
X818350Y607140D02*
X824700D01*
X837400Y593170D02*
Y605870D01*
X805650Y593170D02*
Y605870D01*
X955650Y411170D02*
Y423870D01*
X987400Y411170D02*
Y423870D01*
X968350Y425140D02*
X974700D01*
X968350Y409900D02*
X974700D01*
X721350Y709900D02*
X727700D01*
X721350Y725140D02*
X727700D01*
X740400Y711170D02*
Y723870D01*
X708650Y711170D02*
Y723870D01*
X858650Y298170D02*
X871350D01*
X858650Y329920D02*
X871350D01*
X857380Y310870D02*
Y317220D01*
X872620Y310870D02*
Y317220D01*
X1042650Y298170D02*
X1055350D01*
X1042650Y329920D02*
X1055350D01*
X1041380Y310870D02*
Y317220D01*
X1056620Y310870D02*
Y317220D01*
X858620Y502870D02*
Y509220D01*
X843380Y502870D02*
Y509220D01*
X844650Y521920D02*
X857350D01*
X844650Y490170D02*
X857350D01*
X843638Y640595D02*
Y650595D01*
X873250Y640520D02*
Y650520D01*
X856000Y651520D02*
X861000D01*
X856000Y639520D02*
X861000D01*
X856000Y675520D02*
X861000D01*
X856000Y687520D02*
X861000D01*
X873250Y676520D02*
Y686520D01*
X843638Y676595D02*
Y686595D01*
Y658595D02*
Y668595D01*
X873250Y658520D02*
Y668520D01*
X856000Y669520D02*
X861000D01*
X856000Y657520D02*
X861000D01*
X957638Y740595D02*
Y750595D01*
X987250Y740520D02*
Y750520D01*
X970000Y751520D02*
X975000D01*
X970000Y739520D02*
X975000D01*
X970000Y725520D02*
X975000D01*
X970000Y737520D02*
X975000D01*
X987250Y726520D02*
Y736520D01*
X957638Y726595D02*
Y736595D01*
X1004638Y407595D02*
Y417595D01*
X1034250Y407520D02*
Y417520D01*
X1017000Y418520D02*
X1022000D01*
X1017000Y406520D02*
X1022000D01*
X987362Y754445D02*
Y764445D01*
X957750Y754520D02*
Y764520D01*
X970000Y753520D02*
X975000D01*
X970000Y765520D02*
X975000D01*
X970000Y779520D02*
X975000D01*
X970000Y767520D02*
X975000D01*
X957750Y768520D02*
Y778520D01*
X987362Y768445D02*
Y778445D01*
X1109638Y742595D02*
Y752595D01*
X1139250Y742520D02*
Y752520D01*
X1122000Y753520D02*
X1127000D01*
X1122000Y741520D02*
X1127000D01*
X1122000Y755520D02*
X1127000D01*
X1122000Y767520D02*
X1127000D01*
X1139250Y756520D02*
Y766520D01*
X1109638Y756595D02*
Y766595D01*
Y770595D02*
Y780595D01*
X1139250Y770520D02*
Y780520D01*
X1122000Y781520D02*
X1127000D01*
X1122000Y769520D02*
X1127000D01*
X2078000Y686920D02*
X2083000D01*
X2078000Y698920D02*
X2083000D01*
X2095250Y687920D02*
Y697920D01*
X2065638Y687995D02*
Y697995D01*
Y662595D02*
Y672595D01*
X2095250Y662520D02*
Y672520D01*
X2078000Y673520D02*
X2083000D01*
X2078000Y661520D02*
X2083000D01*
X2078000Y737720D02*
X2083000D01*
X2078000Y749720D02*
X2083000D01*
X2095250Y738720D02*
Y748720D01*
X2065638Y738795D02*
Y748795D01*
Y713395D02*
Y723395D01*
X2095250Y713320D02*
Y723320D01*
X2078000Y724320D02*
X2083000D01*
X2078000Y712320D02*
X2083000D01*
X1951000Y585320D02*
X1956000D01*
X1951000Y597320D02*
X1956000D01*
X1968250Y586320D02*
Y596320D01*
X1938638Y586395D02*
Y596395D01*
Y560995D02*
Y570995D01*
X1968250Y560920D02*
Y570920D01*
X1951000Y571920D02*
X1956000D01*
X1951000Y559920D02*
X1956000D01*
X1951000Y636120D02*
X1956000D01*
X1951000Y648120D02*
X1956000D01*
X1968250Y637120D02*
Y647120D01*
X1938638Y637195D02*
Y647195D01*
Y611795D02*
Y621795D01*
X1968250Y611720D02*
Y621720D01*
X1951000Y622720D02*
X1956000D01*
X1951000Y610720D02*
X1956000D01*
X1951000Y686920D02*
X1956000D01*
X1951000Y698920D02*
X1956000D01*
X1968250Y687920D02*
Y697920D01*
X1938638Y687995D02*
Y697995D01*
Y662595D02*
Y672595D01*
X1968250Y662520D02*
Y672520D01*
X1951000Y673520D02*
X1956000D01*
X1951000Y661520D02*
X1956000D01*
X1951000Y737720D02*
X1956000D01*
X1951000Y749720D02*
X1956000D01*
X1968250Y738720D02*
Y748720D01*
X1938638Y738795D02*
Y748795D01*
Y713395D02*
Y723395D01*
X1968250Y713320D02*
Y723320D01*
X1951000Y724320D02*
X1956000D01*
X1951000Y712320D02*
X1956000D01*
X1824000Y585320D02*
X1829000D01*
X1824000Y597320D02*
X1829000D01*
X1841250Y586320D02*
Y596320D01*
X1811638Y586395D02*
Y596395D01*
Y560995D02*
Y570995D01*
X1841250Y560920D02*
Y570920D01*
X1824000Y571920D02*
X1829000D01*
X1824000Y559920D02*
X1829000D01*
X1824000Y636120D02*
X1829000D01*
X1824000Y648120D02*
X1829000D01*
X1841250Y637120D02*
Y647120D01*
X1811638Y637195D02*
Y647195D01*
Y611795D02*
Y621795D01*
X1841250Y611720D02*
Y621720D01*
X1824000Y622720D02*
X1829000D01*
X1824000Y610720D02*
X1829000D01*
X1824000Y686920D02*
X1829000D01*
X1824000Y698920D02*
X1829000D01*
X1841250Y687920D02*
Y697920D01*
X1811638Y687995D02*
Y697995D01*
Y662595D02*
Y672595D01*
X1841250Y662520D02*
Y672520D01*
X1824000Y673520D02*
X1829000D01*
X1824000Y661520D02*
X1829000D01*
X1824000Y737720D02*
X1829000D01*
X1824000Y749720D02*
X1829000D01*
X1841250Y738720D02*
Y748720D01*
X1811638Y738795D02*
Y748795D01*
Y713395D02*
Y723395D01*
X1841250Y713320D02*
Y723320D01*
X1824000Y724320D02*
X1829000D01*
X1824000Y712320D02*
X1829000D01*
X1697000Y585320D02*
X1702000D01*
X1697000Y597320D02*
X1702000D01*
X1714250Y586320D02*
Y596320D01*
X1684638Y586395D02*
Y596395D01*
Y560995D02*
Y570995D01*
X1714250Y560920D02*
Y570920D01*
X1697000Y571920D02*
X1702000D01*
X1697000Y559920D02*
X1702000D01*
X1697000Y636120D02*
X1702000D01*
X1697000Y648120D02*
X1702000D01*
X1714250Y637120D02*
Y647120D01*
X1684638Y637195D02*
Y647195D01*
Y611795D02*
Y621795D01*
X1714250Y611720D02*
Y621720D01*
X1697000Y622720D02*
X1702000D01*
X1697000Y610720D02*
X1702000D01*
X1697000Y686920D02*
X1702000D01*
X1697000Y698920D02*
X1702000D01*
X1714250Y687920D02*
Y697920D01*
X1684638Y687995D02*
Y697995D01*
Y662595D02*
Y672595D01*
X1714250Y662520D02*
Y672520D01*
X1697000Y673520D02*
X1702000D01*
X1697000Y661520D02*
X1702000D01*
X1697000Y737720D02*
X1702000D01*
X1697000Y749720D02*
X1702000D01*
X1714250Y738720D02*
Y748720D01*
X1684638Y738795D02*
Y748795D01*
Y713395D02*
Y723395D01*
X1714250Y713320D02*
Y723320D01*
X1697000Y724320D02*
X1702000D01*
X1697000Y712320D02*
X1702000D01*
X1570000Y585320D02*
X1575000D01*
X1570000Y597320D02*
X1575000D01*
X1587250Y586320D02*
Y596320D01*
X1557638Y586395D02*
Y596395D01*
Y560995D02*
Y570995D01*
X1587250Y560920D02*
Y570920D01*
X1570000Y571920D02*
X1575000D01*
X1570000Y559920D02*
X1575000D01*
X1570000Y636120D02*
X1575000D01*
X1570000Y648120D02*
X1575000D01*
X1587250Y637120D02*
Y647120D01*
X1557638Y637195D02*
Y647195D01*
Y611795D02*
Y621795D01*
X1587250Y611720D02*
Y621720D01*
X1570000Y622720D02*
X1575000D01*
X1570000Y610720D02*
X1575000D01*
X1570000Y686920D02*
X1575000D01*
X1570000Y698920D02*
X1575000D01*
X1587250Y687920D02*
Y697920D01*
X1557638Y687995D02*
Y697995D01*
Y662595D02*
Y672595D01*
X1587250Y662520D02*
Y672520D01*
X1570000Y673520D02*
X1575000D01*
X1570000Y661520D02*
X1575000D01*
X1570000Y737720D02*
X1575000D01*
X1570000Y749720D02*
X1575000D01*
X1587250Y738720D02*
Y748720D01*
X1557638Y738795D02*
Y748795D01*
Y713395D02*
Y723395D01*
X1587250Y713320D02*
Y723320D01*
X1570000Y724320D02*
X1575000D01*
X1570000Y712320D02*
X1575000D01*
X1443000Y585320D02*
X1448000D01*
X1443000Y597320D02*
X1448000D01*
X1460250Y586320D02*
Y596320D01*
X1430638Y586395D02*
Y596395D01*
Y560995D02*
Y570995D01*
X1460250Y560920D02*
Y570920D01*
X1443000Y571920D02*
X1448000D01*
X1443000Y559920D02*
X1448000D01*
X1443000Y636120D02*
X1448000D01*
X1443000Y648120D02*
X1448000D01*
X1460250Y637120D02*
Y647120D01*
X1430638Y637195D02*
Y647195D01*
Y611795D02*
Y621795D01*
X1460250Y611720D02*
Y621720D01*
X1443000Y622720D02*
X1448000D01*
X1443000Y610720D02*
X1448000D01*
X1443000Y686920D02*
X1448000D01*
X1443000Y698920D02*
X1448000D01*
X1460250Y687920D02*
Y697920D01*
X1430638Y687995D02*
Y697995D01*
Y662595D02*
Y672595D01*
X1460250Y662520D02*
Y672520D01*
X1443000Y673520D02*
X1448000D01*
X1443000Y661520D02*
X1448000D01*
X1443000Y737720D02*
X1448000D01*
X1443000Y749720D02*
X1448000D01*
X1460250Y738720D02*
Y748720D01*
X1430638Y738795D02*
Y748795D01*
Y713395D02*
Y723395D01*
X1460250Y713320D02*
Y723320D01*
X1443000Y724320D02*
X1448000D01*
X1443000Y712320D02*
X1448000D01*
X1316000Y585320D02*
X1321000D01*
X1316000Y597320D02*
X1321000D01*
X1333250Y586320D02*
Y596320D01*
X1303638Y586395D02*
Y596395D01*
Y560995D02*
Y570995D01*
X1333250Y560920D02*
Y570920D01*
X1316000Y571920D02*
X1321000D01*
X1316000Y559920D02*
X1321000D01*
X1316000Y636120D02*
X1321000D01*
X1316000Y648120D02*
X1321000D01*
X1333250Y637120D02*
Y647120D01*
X1303638Y637195D02*
Y647195D01*
Y611795D02*
Y621795D01*
X1333250Y611720D02*
Y621720D01*
X1316000Y622720D02*
X1321000D01*
X1316000Y610720D02*
X1321000D01*
X1316000Y686920D02*
X1321000D01*
X1316000Y698920D02*
X1321000D01*
X1333250Y687920D02*
Y697920D01*
X1303638Y687995D02*
Y697995D01*
Y662595D02*
Y672595D01*
X1333250Y662520D02*
Y672520D01*
X1316000Y673520D02*
X1321000D01*
X1316000Y661520D02*
X1321000D01*
X1316000Y737720D02*
X1321000D01*
X1316000Y749720D02*
X1321000D01*
X1333250Y738720D02*
Y748720D01*
X1303638Y738795D02*
Y748795D01*
Y713395D02*
Y723395D01*
X1333250Y713320D02*
Y723320D01*
X1316000Y724320D02*
X1321000D01*
X1316000Y712320D02*
X1321000D01*
X834000Y717520D02*
Y722520D01*
X846000Y717520D02*
Y722520D01*
X835000Y705270D02*
X845000D01*
X835075Y734882D02*
X845075D01*
X849075Y734882D02*
X859075D01*
X849000Y705270D02*
X859000D01*
X860000Y717520D02*
Y722520D01*
X848000Y717520D02*
Y722520D01*
X863000Y717520D02*
Y722520D01*
X875000Y717520D02*
Y722520D01*
X864000Y705270D02*
X874000D01*
X864075Y734882D02*
X874075D01*
X878075D02*
X888075D01*
X878000Y705270D02*
X888000D01*
X889000Y717520D02*
Y722520D01*
X877000Y717520D02*
Y722520D01*
X705094Y373523D02*
X705110Y373539D01*
X705100Y373550D02*
X705110Y373539D01*
X705138Y392177D02*
X710169D01*
X854100Y301170D02*
Y397208D01*
Y437170D01*
X705094Y301165D02*
Y373523D01*
X705100Y373550D02*
Y377170D01*
X710169Y392177D02*
X853543D01*
X705100Y377170D02*
Y397170D01*
Y301170D02*
X854100D01*
X705315Y437118D02*
X853529D01*
X705100Y397170D02*
Y437170D01*
X829000Y442520D02*
Y482520D01*
X808928Y442559D02*
X821545D01*
X821596Y442520D02*
X829000D01*
X821590Y442514D02*
X821596Y442520D01*
X821545Y442559D02*
X821590Y442514D01*
X808928Y482520D02*
X829000D01*
X808928Y482519D02*
X808928Y482520D01*
X808928Y442559D02*
Y482519D01*
X855000Y442520D02*
Y482520D01*
X834928Y442559D02*
X847545D01*
X847596Y442520D02*
X855000D01*
X847590Y442514D02*
X847596Y442520D01*
X847545Y442559D02*
X847590Y442514D01*
X834928Y482520D02*
X855000D01*
X834928Y482519D02*
X834928Y482520D01*
X834928Y442559D02*
Y482519D01*
X1153493Y583770D02*
X1230493D01*
X1153250Y491286D02*
X1230728D01*
X1230743Y491270D02*
Y583520D01*
X1230728Y491286D02*
X1230743Y491270D01*
X1153250Y491286D02*
Y583526D01*
X1390300Y292920D02*
Y392920D01*
X1290565Y292796D02*
X1390176D01*
X1290080Y292920D02*
Y392920D01*
X1290051Y392770D02*
X1390150D01*
X1290139Y438320D02*
X1307702D01*
X1290080Y392920D02*
Y438320D01*
X1390300Y392920D02*
Y438320D01*
X1307800D02*
X1390300D01*
X1390150Y392770D02*
X1390300Y392920D01*
X1390176Y292796D02*
X1390300Y292920D01*
X2124980Y292796D02*
X2177576D01*
X2124980Y438320D02*
X2177700D01*
X2124980Y392770D02*
X2177550D01*
X2177700Y292920D02*
Y392920D01*
X2124980Y292920D02*
Y392920D01*
Y438320D01*
X2177700Y392920D02*
Y438320D01*
X2177550Y392770D02*
X2177700Y392920D01*
X2177576Y292796D02*
X2177700Y292920D01*
X1153257Y591776D02*
X1230707D01*
X1153257Y783196D02*
X1153415Y783354D01*
X1230729Y783499D02*
X1230750Y783520D01*
X1153250Y783520D02*
X1153415Y783354D01*
X1153500Y783770D02*
X1230500D01*
X1153250Y783520D02*
X1153500Y783770D01*
X1153257Y591776D02*
Y783196D01*
X1230729Y591797D02*
Y783499D01*
D14*
X915250Y507520D02*
X1106250D01*
X915250Y698520D02*
X1106250D01*
X915250Y507520D02*
Y698520D01*
X1106250Y507520D02*
Y698520D01*
X749000Y689080D02*
Y703050D01*
X715000Y689080D02*
Y703050D01*
X749000D01*
X715000Y640820D02*
Y654790D01*
X749000Y640820D02*
Y654790D01*
X715000Y640820D02*
X749000D01*
X773000D02*
Y654790D01*
X807000Y640820D02*
Y654790D01*
X773000Y640820D02*
X807000D01*
Y689080D02*
Y703050D01*
X773000Y689080D02*
Y703050D01*
X807000D01*
X805000Y489820D02*
Y503790D01*
X839000Y489820D02*
Y503790D01*
X805000Y489820D02*
X839000D01*
Y538080D02*
Y552050D01*
X805000Y538080D02*
Y552050D01*
X839000D01*
X1004000Y295820D02*
Y309790D01*
X1038000Y295820D02*
Y309790D01*
X1004000Y295820D02*
X1038000D01*
Y344080D02*
Y358050D01*
X1004000Y344080D02*
Y358050D01*
X1038000D01*
X808000Y589270D02*
X836000D01*
X808000Y557770D02*
X836000D01*
X916500Y429020D02*
Y452020D01*
X885500Y429020D02*
Y452020D01*
X916500D01*
X885500Y429020D02*
X916500D01*
X921500Y429020D02*
Y452020D01*
X952500Y429020D02*
Y452020D01*
X921500Y429020D02*
X952500D01*
X921500Y452020D02*
X952500D01*
X908000Y296370D02*
Y401370D01*
X968500Y296370D02*
Y401370D01*
X908000D02*
X968500D01*
X908000Y296370D02*
X968500D01*
D15*
X719300Y666220D02*
X744700D01*
X777300Y677650D02*
X802700D01*
X809300Y526650D02*
X834700D01*
X1008300Y332650D02*
X1033700D01*
X706000Y472520D02*
Y633520D01*
X788000D01*
X797000Y624520D02*
Y633520D01*
X788000D02*
X797000D01*
X706000Y472520D02*
X788680D01*
X797000Y480840D02*
Y624520D01*
X788680Y472520D02*
X797000Y480840D01*
X828030Y677710D02*
Y681520D01*
X824220D02*
X828030Y685330D01*
X824220Y681520D02*
X828030Y677710D01*
Y681520D02*
Y685330D01*
X822950Y677710D02*
Y685330D01*
X825456Y681464D02*
X827996D01*
X827710Y641710D02*
Y645520D01*
X823900D02*
X827710Y649330D01*
X823900Y645520D02*
X827710Y641710D01*
Y645520D02*
Y649330D01*
X822630Y641710D02*
Y649330D01*
X825136Y645464D02*
X827676D01*
X828030Y659710D02*
Y663520D01*
X824220D02*
X828030Y667330D01*
X824220Y663520D02*
X828030Y659710D01*
Y663520D02*
Y667330D01*
X822950Y659710D02*
Y667330D01*
X825456Y663464D02*
X827996D01*
D16*
X809920Y673900D02*
Y689140D01*
X840400Y673900D02*
Y689140D01*
X830240D02*
X840400D01*
X809920Y673900D02*
X820080D01*
X830240D02*
X840400D01*
X809920Y689140D02*
X820080D01*
X809600Y637900D02*
Y653140D01*
X840080Y637900D02*
Y653140D01*
X829920D02*
X840080D01*
X809600Y637900D02*
X819760D01*
X829920D02*
X840080D01*
X809600Y653140D02*
X819760D01*
X809920Y655900D02*
Y671140D01*
X840400Y655900D02*
Y671140D01*
X830240D02*
X840400D01*
X809920Y655900D02*
X820080D01*
X830240D02*
X840400D01*
X809920Y671140D02*
X820080D01*
M02*
