G04*
G04 #@! TF.GenerationSoftware,Altium Limited,Altium Designer,20.0.2 (26)*
G04*
G04 Layer_Physical_Order=1*
G04 Layer_Color=5064179*
%FSLAX44Y44*%
%MOMM*%
G71*
G01*
G75*
%ADD11C,0.6000*%
%ADD14C,0.2000*%
G04:AMPARAMS|DCode=17|XSize=0.8mm|YSize=1.3mm|CornerRadius=0.2mm|HoleSize=0mm|Usage=FLASHONLY|Rotation=180.000|XOffset=0mm|YOffset=0mm|HoleType=Round|Shape=RoundedRectangle|*
%AMROUNDEDRECTD17*
21,1,0.8000,0.9000,0,0,180.0*
21,1,0.4000,1.3000,0,0,180.0*
1,1,0.4000,-0.2000,0.4500*
1,1,0.4000,0.2000,0.4500*
1,1,0.4000,0.2000,-0.4500*
1,1,0.4000,-0.2000,-0.4500*
%
%ADD17ROUNDEDRECTD17*%
%ADD18R,2.1000X0.8900*%
%ADD19R,0.3500X1.6000*%
%ADD20O,0.3500X1.6000*%
%ADD21R,1.6000X0.3500*%
G04:AMPARAMS|DCode=22|XSize=0.8mm|YSize=1.3mm|CornerRadius=0.2mm|HoleSize=0mm|Usage=FLASHONLY|Rotation=270.000|XOffset=0mm|YOffset=0mm|HoleType=Round|Shape=RoundedRectangle|*
%AMROUNDEDRECTD22*
21,1,0.8000,0.9000,0,0,270.0*
21,1,0.4000,1.3000,0,0,270.0*
1,1,0.4000,-0.4500,-0.2000*
1,1,0.4000,-0.4500,0.2000*
1,1,0.4000,0.4500,0.2000*
1,1,0.4000,0.4500,-0.2000*
%
%ADD22ROUNDEDRECTD22*%
G04:AMPARAMS|DCode=23|XSize=0.8mm|YSize=1mm|CornerRadius=0.2mm|HoleSize=0mm|Usage=FLASHONLY|Rotation=0.000|XOffset=0mm|YOffset=0mm|HoleType=Round|Shape=RoundedRectangle|*
%AMROUNDEDRECTD23*
21,1,0.8000,0.6000,0,0,0.0*
21,1,0.4000,1.0000,0,0,0.0*
1,1,0.4000,0.2000,-0.3000*
1,1,0.4000,-0.2000,-0.3000*
1,1,0.4000,-0.2000,0.3000*
1,1,0.4000,0.2000,0.3000*
%
%ADD23ROUNDEDRECTD23*%
G04:AMPARAMS|DCode=24|XSize=0.8mm|YSize=1mm|CornerRadius=0.2mm|HoleSize=0mm|Usage=FLASHONLY|Rotation=270.000|XOffset=0mm|YOffset=0mm|HoleType=Round|Shape=RoundedRectangle|*
%AMROUNDEDRECTD24*
21,1,0.8000,0.6000,0,0,270.0*
21,1,0.4000,1.0000,0,0,270.0*
1,1,0.4000,-0.3000,-0.2000*
1,1,0.4000,-0.3000,0.2000*
1,1,0.4000,0.3000,0.2000*
1,1,0.4000,0.3000,-0.2000*
%
%ADD24ROUNDEDRECTD24*%
%ADD25R,2.8000X2.0000*%
%ADD26R,1.2000X6.0000*%
G04:AMPARAMS|DCode=27|XSize=6mm|YSize=1.2mm|CornerRadius=0.3mm|HoleSize=0mm|Usage=FLASHONLY|Rotation=270.000|XOffset=0mm|YOffset=0mm|HoleType=Round|Shape=RoundedRectangle|*
%AMROUNDEDRECTD27*
21,1,6.0000,0.6000,0,0,270.0*
21,1,5.4000,1.2000,0,0,270.0*
1,1,0.6000,-0.3000,-2.7000*
1,1,0.6000,-0.3000,2.7000*
1,1,0.6000,0.3000,2.7000*
1,1,0.6000,0.3000,-2.7000*
%
%ADD27ROUNDEDRECTD27*%
G04:AMPARAMS|DCode=28|XSize=0.4mm|YSize=0.5mm|CornerRadius=0.1mm|HoleSize=0mm|Usage=FLASHONLY|Rotation=90.000|XOffset=0mm|YOffset=0mm|HoleType=Round|Shape=RoundedRectangle|*
%AMROUNDEDRECTD28*
21,1,0.4000,0.3000,0,0,90.0*
21,1,0.2000,0.5000,0,0,90.0*
1,1,0.2000,0.1500,0.1000*
1,1,0.2000,0.1500,-0.1000*
1,1,0.2000,-0.1500,-0.1000*
1,1,0.2000,-0.1500,0.1000*
%
%ADD28ROUNDEDRECTD28*%
%ADD29R,0.5000X0.4000*%
%ADD30R,1.1000X1.9000*%
%ADD31R,2.4000X3.0000*%
%ADD32R,0.4000X1.7500*%
%ADD33R,0.8890X1.2700*%
G04:AMPARAMS|DCode=34|XSize=2.54mm|YSize=0.9144mm|CornerRadius=0mm|HoleSize=0mm|Usage=FLASHONLY|Rotation=90.000|XOffset=0mm|YOffset=0mm|HoleType=Round|Shape=Octagon|*
%AMOCTAGOND34*
4,1,8,0.2286,1.2700,-0.2286,1.2700,-0.4572,1.0414,-0.4572,-1.0414,-0.2286,-1.2700,0.2286,-1.2700,0.4572,-1.0414,0.4572,1.0414,0.2286,1.2700,0.0*
%
%ADD34OCTAGOND34*%

%ADD35R,0.3000X1.4500*%
G04:AMPARAMS|DCode=36|XSize=0.3mm|YSize=1.45mm|CornerRadius=0.075mm|HoleSize=0mm|Usage=FLASHONLY|Rotation=180.000|XOffset=0mm|YOffset=0mm|HoleType=Round|Shape=RoundedRectangle|*
%AMROUNDEDRECTD36*
21,1,0.3000,1.3000,0,0,180.0*
21,1,0.1500,1.4500,0,0,180.0*
1,1,0.1500,-0.0750,0.6500*
1,1,0.1500,0.0750,0.6500*
1,1,0.1500,0.0750,-0.6500*
1,1,0.1500,-0.0750,-0.6500*
%
%ADD36ROUNDEDRECTD36*%
%ADD37O,2.3000X0.6000*%
%ADD72C,0.5000*%
%ADD73C,0.4000*%
%ADD74C,1.0000*%
%ADD75C,0.3000*%
%ADD76C,0.8000*%
%ADD77C,0.2200*%
%ADD78C,0.3810*%
G04:AMPARAMS|DCode=79|XSize=1.778mm|YSize=1.778mm|CornerRadius=0.4445mm|HoleSize=0mm|Usage=FLASHONLY|Rotation=180.000|XOffset=0mm|YOffset=0mm|HoleType=Round|Shape=RoundedRectangle|*
%AMROUNDEDRECTD79*
21,1,1.7780,0.8890,0,0,180.0*
21,1,0.8890,1.7780,0,0,180.0*
1,1,0.8890,-0.4445,0.4445*
1,1,0.8890,0.4445,0.4445*
1,1,0.8890,0.4445,-0.4445*
1,1,0.8890,-0.4445,-0.4445*
%
%ADD79ROUNDEDRECTD79*%
G04:AMPARAMS|DCode=80|XSize=1.778mm|YSize=1.778mm|CornerRadius=0.4445mm|HoleSize=0mm|Usage=FLASHONLY|Rotation=270.000|XOffset=0mm|YOffset=0mm|HoleType=Round|Shape=RoundedRectangle|*
%AMROUNDEDRECTD80*
21,1,1.7780,0.8890,0,0,270.0*
21,1,0.8890,1.7780,0,0,270.0*
1,1,0.8890,-0.4445,-0.4445*
1,1,0.8890,-0.4445,0.4445*
1,1,0.8890,0.4445,0.4445*
1,1,0.8890,0.4445,-0.4445*
%
%ADD80ROUNDEDRECTD80*%
%ADD81C,2.0000*%
%ADD82C,1.3716*%
%ADD83R,1.3716X1.3716*%
%ADD84C,0.6000*%
%ADD85C,1.5000*%
%ADD86C,1.2000*%
%ADD87C,0.5000*%
%ADD88C,1.1000*%
G36*
X712000Y729520D02*
Y749520D01*
X732000D01*
Y729520D01*
X712000D01*
D02*
G37*
G36*
X768000D02*
Y749520D01*
X788000D01*
Y729520D01*
X768000D01*
D02*
G37*
G36*
X773000Y759520D02*
D01*
D02*
G37*
D11*
X795000Y522520D02*
X800515D01*
X811000Y512035D01*
X818000Y502520D02*
X822000D01*
X811000Y509520D02*
Y512035D01*
Y509520D02*
X818000Y502520D01*
X1165500Y757520D02*
X1165500Y757520D01*
X1149000Y757520D02*
X1165500D01*
X1165500Y457520D02*
X1181000D01*
X1203000D02*
X1218500D01*
D14*
X734000Y715020D02*
Y716194D01*
Y717520D01*
Y716194D02*
X736924Y713270D01*
X745250D01*
X746000Y712520D01*
X981038Y731520D02*
Y745481D01*
Y725520D02*
Y731520D01*
X1139000Y510520D02*
Y518520D01*
Y496520D02*
Y510520D01*
X1181000Y457520D02*
Y458602D01*
X1182000Y459602D01*
Y470035D01*
X1187000Y475035D01*
Y495520D01*
X1139000Y510520D02*
X1139450Y510070D01*
X1172450D01*
X1187000Y495520D01*
X1107000Y489520D02*
Y490520D01*
Y488520D02*
Y489520D01*
X1102000Y495520D02*
X1107000Y490520D01*
X1098250Y496270D02*
Y496770D01*
Y496270D02*
X1099000Y495520D01*
X1102000D01*
X1047843Y694677D02*
X1048125Y694959D01*
X1240000Y517520D02*
Y517521D01*
X1113774Y503865D02*
Y514770D01*
X1113000Y503091D02*
X1113774Y503865D01*
X1113000Y502918D02*
Y503091D01*
X1111000Y500918D02*
X1113000Y502918D01*
X901000Y462520D02*
Y468270D01*
X897750Y471520D02*
X901000Y468270D01*
X897250Y471520D02*
X897750D01*
X896000Y472770D02*
X897250Y471520D01*
X896000Y462520D02*
Y472770D01*
X891000Y477770D02*
X896000Y472770D01*
X891000Y477770D02*
Y480520D01*
X2059000Y744520D02*
X2071200D01*
X2072000Y743720D01*
X1300000Y566520D02*
X1309400D01*
X1547300Y603835D02*
X1644000D01*
X1650000Y609835D02*
Y714520D01*
X1644000Y603835D02*
X1650000Y609835D01*
Y714520D02*
X1654000Y718520D01*
X1669700D02*
X1669900Y718320D01*
X1654000Y718520D02*
X1669700D01*
X1658000Y679420D02*
Y712520D01*
Y679420D02*
X1669900Y667520D01*
X1524000Y627135D02*
X1547300Y603835D01*
X1581000Y616720D02*
X1602100D01*
X1530000Y629620D02*
X1542900Y616720D01*
X1564000D01*
X1530000Y629620D02*
Y752727D01*
X1581000Y642120D02*
X1602100D01*
X1581000Y591320D02*
X1602100D01*
X1517910Y755610D02*
X1524000Y749520D01*
Y627135D02*
Y749520D01*
X1519712Y763015D02*
X1530000Y752727D01*
X1267090Y755610D02*
X1517910D01*
X1259495Y763015D02*
X1519712D01*
X1238000Y726520D02*
X1267090Y755610D01*
X1238000Y696520D02*
Y726520D01*
X1248000Y702035D02*
X1288900Y742935D01*
X1248000Y525521D02*
Y702035D01*
X1240000Y517521D02*
X1248000Y525521D01*
X1241999Y745519D02*
X1241999D01*
X1944800Y591520D02*
X1945000Y591320D01*
X1932000Y591520D02*
X1944800D01*
X1945000Y555520D02*
Y565920D01*
X1907000Y642520D02*
X1944600D01*
X1945000Y642120D01*
X1901000Y543520D02*
Y720820D01*
X1807000Y449520D02*
X1901000Y543520D01*
Y720820D02*
X1923900Y743720D01*
X1907000Y615520D02*
X1943800D01*
X1945000Y616720D01*
X1035000Y594520D02*
X1050201D01*
X864000Y553520D02*
X864583D01*
X882583Y535520D02*
X904500D01*
X864583Y553520D02*
X882583Y535520D01*
X865000Y565520D02*
X865156Y565364D01*
X885826Y540520D02*
X904500D01*
X865156Y561190D02*
Y565364D01*
Y561190D02*
X885826Y540520D01*
X1074097Y595520D02*
X1117000D01*
X1071097Y592520D02*
X1074097Y595520D01*
X1052201Y592520D02*
X1071097D01*
X1050201Y594520D02*
X1052201Y592520D01*
X1046224Y588520D02*
X1077799D01*
X1086000Y580319D01*
Y580177D02*
X1090657Y575520D01*
X1086000Y580177D02*
Y580319D01*
X1046224Y588520D02*
X1046224Y588520D01*
X1090657Y575520D02*
X1117000D01*
X1071983Y605520D02*
X1117000D01*
X1070983Y604520D02*
X1071983Y605520D01*
X1070952Y604520D02*
X1070983D01*
X1041000Y605520D02*
X1050515D01*
X1067283Y600851D02*
X1070952Y604520D01*
X1050515Y605520D02*
X1055184Y600851D01*
X1067283D01*
X1265979Y517055D02*
X1266000Y517035D01*
Y484520D02*
Y517035D01*
X1252999Y522034D02*
Y688519D01*
X1283000Y718520D01*
X1256999Y500519D02*
Y612054D01*
X1252000Y495520D02*
X1256999Y500519D01*
Y612054D02*
X1275324Y630379D01*
X1260999Y492519D02*
Y607034D01*
X1260000Y491520D02*
X1260999Y492519D01*
Y607034D02*
X1280535Y626570D01*
X1250000Y519035D02*
X1252999Y522034D01*
X1250000Y511520D02*
Y519035D01*
X1775000Y587820D02*
X1796900Y565920D01*
X1775000Y587820D02*
Y756520D01*
X1255868Y772388D02*
X1759132D01*
X1775000Y756520D01*
X1241999Y758519D02*
X1255868Y772388D01*
X1280000Y472202D02*
Y607820D01*
X1276000Y468202D02*
X1280000Y472202D01*
Y607820D02*
X1288900Y616720D01*
X1265979Y517055D02*
Y602285D01*
X1288999Y625304D01*
X1288900Y478620D02*
Y591320D01*
Y478620D02*
X1289000Y478520D01*
X1309400Y566520D02*
X1310000Y565920D01*
X1276000Y467520D02*
Y468202D01*
X1201710Y617520D02*
X1218500D01*
X1398000Y660520D02*
Y692520D01*
X1296000Y712520D02*
X1303729D01*
X1311439Y704810D01*
X1385710D01*
X1398000Y692520D01*
X1283000Y718520D02*
Y718520D01*
X1309800D01*
X1310000Y718320D01*
X1555000Y744520D02*
X1563200D01*
X1564000Y743720D01*
X1555000Y718520D02*
X1563800D01*
X1564000Y718320D01*
X1288900Y742935D02*
Y743720D01*
X1241999Y745519D02*
X1259495Y763015D01*
X1407000Y692520D02*
X1436600D01*
X1437000Y692920D01*
X1404000Y667520D02*
X1437000D01*
X1439000Y603520D02*
X1445172Y609692D01*
Y735348D01*
X1441000Y739520D02*
X1445172Y735348D01*
X1416000Y603520D02*
X1439000D01*
X1075071Y688449D02*
X1083000Y680520D01*
X1075071Y688449D02*
X1075071D01*
X1075000Y688520D02*
X1075071Y688449D01*
X1097396Y670520D02*
X1117000D01*
X1083000Y680520D02*
X1087396D01*
X1075071Y688449D02*
X1075142Y688520D01*
X1087396Y680520D02*
X1097396Y670520D01*
X1075000Y676520D02*
X1085739D01*
X1096739Y665520D01*
X1117000D01*
X1086000Y665520D02*
X1091082D01*
X1096082Y660520D01*
X1117000D01*
X1101257Y628520D02*
X1104257Y625520D01*
X1117000D01*
X1091000Y628520D02*
X1101257D01*
X1085000Y622520D02*
X1091000Y628520D01*
X1105082Y645520D02*
X1117000D01*
X1103082Y643520D02*
X1105082Y645520D01*
X1102000Y643520D02*
X1103082D01*
X1095485Y650520D02*
X1117000D01*
X1091485Y646520D02*
X1095485Y650520D01*
X1091000Y646520D02*
X1091485D01*
X1117000Y655520D02*
X1117000Y655520D01*
X1091000Y655520D02*
X1117000D01*
X1288999Y640519D02*
X1308399D01*
X1310000Y642120D01*
X1288999Y625304D02*
Y640519D01*
X1147137Y637165D02*
X1165145D01*
X1218855D02*
X1235000D01*
X1275324Y679826D02*
X1288418Y692920D01*
X1310000D01*
X1275324Y630379D02*
Y679826D01*
X1280535Y626570D02*
Y659155D01*
X1288900Y667520D01*
X1803200Y743720D02*
X1818000D01*
X1803000Y743520D02*
X1803200Y743720D01*
X1809000Y718520D02*
X1816200D01*
X1817200Y717520D01*
X1818000Y718320D01*
X2037000Y653620D02*
X2050900Y667520D01*
X2037000Y557520D02*
Y653620D01*
X2032000Y558177D02*
Y674020D01*
X1283000Y440520D02*
X1920000D01*
X2037000Y557520D01*
X1919171Y445348D02*
X2032000Y558177D01*
X1148171Y445348D02*
X1919171D01*
X1271000Y428520D02*
X1283000Y440520D01*
X2032000Y674020D02*
X2050900Y692920D01*
X1149657Y449520D02*
X1807000D01*
X990000Y451520D02*
X1011000D01*
X1137000Y652520D02*
Y668520D01*
Y637520D02*
Y652520D01*
X1126243Y640770D02*
X1128763Y643290D01*
Y669277D01*
X1130030Y670543D01*
X1117000Y640520D02*
X1117250Y640770D01*
X1126243D01*
X1135999Y651519D02*
X1135999D01*
X1137000Y652520D01*
X1130030Y670543D02*
X1139000Y677520D01*
X828000Y496520D02*
X851000D01*
X822000Y502520D02*
X828000Y496520D01*
X768900Y367520D02*
X772000D01*
X884141Y563379D02*
Y564518D01*
X895142Y575520D01*
X864750Y590270D02*
X904250D01*
X864000Y589519D02*
X864750Y590270D01*
X868485Y602520D02*
X877142D01*
X866000Y598520D02*
X875485D01*
X865000Y597520D02*
X866000Y598520D01*
X862485Y608520D02*
X868485Y602520D01*
X851142Y625520D02*
X870142Y606520D01*
X877142Y602520D02*
X879142Y600520D01*
X875485Y598520D02*
X878485Y595520D01*
X879799Y605520D02*
X904500D01*
X878799Y606520D02*
X879799Y605520D01*
X870142Y606520D02*
X878799D01*
X879142Y600520D02*
X904500D01*
X853000Y608520D02*
X862485D01*
X847000Y625520D02*
X851142D01*
X878485Y595520D02*
X904500D01*
X1050884Y582425D02*
X1051407D01*
X1051413Y582432D01*
X1024857Y576519D02*
X1030999D01*
X1013250Y564912D02*
X1024857Y576519D01*
X1013250Y496770D02*
Y564912D01*
X1024514Y570519D02*
X1038978D01*
X1018250Y564255D02*
X1024514Y570519D01*
X1018250Y496770D02*
Y564255D01*
X1038978Y570519D02*
X1050884Y582425D01*
X1026999Y562521D02*
X1031000Y558520D01*
X1026999Y562521D02*
Y564519D01*
X1031000Y548520D02*
Y558520D01*
X1090000Y457199D02*
Y463020D01*
Y457199D02*
X1112000Y435199D01*
X1090000Y463020D02*
X1096000Y469020D01*
X1112000Y434520D02*
Y435199D01*
X1083500Y487020D02*
X1096000Y474520D01*
Y469020D02*
Y474520D01*
X932000Y434520D02*
X980657D01*
X999000Y431520D02*
X999097Y431617D01*
X1089212Y337733D02*
Y346732D01*
X1089425Y346945D01*
X932000Y408005D02*
Y418520D01*
Y408005D02*
X936000Y404005D01*
Y403520D02*
Y404005D01*
X922000Y399520D02*
X926000Y403520D01*
X908000Y399520D02*
X922000D01*
X942000Y450005D02*
Y462520D01*
Y450005D02*
X946000Y446005D01*
Y445520D02*
Y446005D01*
X947000Y447602D02*
Y462520D01*
X946000Y430520D02*
X979000D01*
X983657Y431520D02*
X999000D01*
X980657Y434520D02*
X983657Y431520D01*
X927000Y429520D02*
X932000Y434520D01*
X927000Y418520D02*
Y429520D01*
X938671Y439409D02*
X957828D01*
X911000Y418520D02*
X911000Y418520D01*
X920000D01*
X901000Y406520D02*
X908000Y399520D01*
X920000Y449770D02*
X927000Y456770D01*
X920000Y449520D02*
Y449770D01*
X989000Y450520D02*
X990000Y451520D01*
X906500Y427020D02*
X932000Y452520D01*
Y462520D01*
X927000Y456770D02*
Y462520D01*
X906000Y418520D02*
X906500Y419020D01*
Y427020D01*
X940000Y430520D02*
X946000D01*
X937000Y418520D02*
X937500Y419020D01*
Y428020D01*
X940000Y430520D01*
X981000Y417520D02*
Y428520D01*
X979000Y430520D02*
X981000Y428520D01*
X942000Y418520D02*
X942500Y419020D01*
Y427020D01*
X946000Y430520D01*
X947000Y418020D02*
Y418520D01*
Y418020D02*
X947500Y417520D01*
X962000D01*
X964000Y478520D02*
Y479520D01*
X959000Y473520D02*
X964000Y478520D01*
X937000Y462520D02*
X937500Y462020D01*
Y440580D02*
X938671Y439409D01*
X957828D02*
X959000Y440580D01*
X937500D02*
Y462020D01*
X959000Y440580D02*
Y473520D01*
X1082130Y359897D02*
X1085623D01*
X1081753Y360274D02*
X1082130Y359897D01*
X1011000Y412520D02*
Y419520D01*
X999000Y431520D02*
X1011000Y419520D01*
X943250Y709270D02*
X943500Y709020D01*
Y682505D02*
Y709020D01*
X950250Y528770D02*
Y675755D01*
X943500Y682505D02*
X950250Y675755D01*
X946000Y524520D02*
X950250Y528770D01*
X954750Y528770D02*
X959000Y524520D01*
X948000Y700027D02*
X948000Y700027D01*
X948000Y684369D02*
Y700027D01*
X948000Y700027D02*
Y709020D01*
X948250Y709270D01*
X948000Y684369D02*
X954750Y677619D01*
Y528770D02*
Y677619D01*
X914000Y499520D02*
X914557D01*
X921557Y492520D01*
X938250Y484270D02*
X947343Y475177D01*
Y474863D02*
Y475177D01*
X938250Y484270D02*
Y496770D01*
X933125Y483645D02*
Y496645D01*
X932000Y482520D02*
X933125Y483645D01*
X923515Y482520D02*
X928250Y487255D01*
X922000Y482520D02*
X923515D01*
X928250Y487255D02*
Y496770D01*
X1059000Y510520D02*
Y511520D01*
X1063000Y671520D02*
X1066000Y674520D01*
X1063000Y649520D02*
Y671520D01*
X1023485Y759520D02*
X1030000Y753005D01*
Y747005D02*
Y753005D01*
X1028000Y745005D02*
X1030000Y747005D01*
X1022000Y759520D02*
X1023485D01*
X1036000Y744520D02*
Y746520D01*
X1033500Y742020D02*
X1036000Y744520D01*
X1033500Y709520D02*
Y742020D01*
X1024000Y726513D02*
Y750520D01*
X1063250Y709270D02*
Y743270D01*
X1050000Y756520D02*
X1063250Y743270D01*
X994133Y732387D02*
X995000Y731520D01*
X991670Y732387D02*
X994133D01*
X991000Y745005D02*
X1001000Y735005D01*
X991000Y745005D02*
Y746520D01*
X1001000Y731520D02*
X1008250Y724270D01*
X1001000Y731520D02*
Y735005D01*
X1003250Y709270D02*
Y721755D01*
X992383Y732622D02*
X1003250Y721755D01*
X991898Y732622D02*
X992383D01*
X1008250Y709270D02*
Y724270D01*
X953000Y479520D02*
X954000D01*
X946750Y485770D02*
X953000Y479520D01*
X957750Y485770D02*
X964000Y479520D01*
X868000Y406520D02*
X901000D01*
X901000Y406520D01*
X867000Y638520D02*
Y645520D01*
X880931Y649551D02*
X882341D01*
X890715Y635520D02*
X904500D01*
X885715Y640520D02*
X890715Y635520D01*
X888573Y630520D02*
X904500D01*
X884640Y634453D02*
X888573Y630520D01*
X871067Y634453D02*
X878410D01*
X878000Y640520D02*
X885715D01*
X878515Y634453D02*
X884640D01*
X882341Y649551D02*
X891122Y640770D01*
X904250D01*
X874029Y663520D02*
X892029Y645520D01*
X867000Y663520D02*
X874029D01*
X892029Y645520D02*
X904500D01*
X867000Y638520D02*
X871067Y634453D01*
X861655Y623865D02*
X875000Y610520D01*
X1099000Y392520D02*
Y419520D01*
X1091000Y392520D02*
Y419514D01*
X1083872Y388648D02*
Y420506D01*
X1048250Y449057D02*
X1079000Y418307D01*
Y379520D02*
Y418307D01*
X1043000Y428520D02*
Y496520D01*
X1040000Y425520D02*
X1043000Y428520D01*
X1028000Y425520D02*
X1040000D01*
X1053250Y451128D02*
X1083872Y420506D01*
X1068424Y456357D02*
Y496596D01*
X1105000Y407520D02*
Y419781D01*
X1073250Y483270D02*
X1079000Y477520D01*
X1073250Y483270D02*
Y496770D01*
X1068424Y456357D02*
X1105000Y419781D01*
X1068250Y496770D02*
X1068424Y496596D01*
X1104000Y632520D02*
X1106000Y630520D01*
X1086000Y632520D02*
X1104000D01*
X1076000Y622520D02*
X1086000Y632520D01*
X1072999Y735034D02*
Y756521D01*
X1067000Y762520D02*
X1072999Y756521D01*
X1059000Y755520D02*
X1068250Y746270D01*
X1059000Y755520D02*
Y762520D01*
X1010000Y731005D02*
Y731520D01*
Y731005D02*
X1013250Y727755D01*
Y709270D02*
Y727755D01*
X1028000Y717520D02*
Y745005D01*
X1028000Y717520D02*
X1028000Y717520D01*
X875000Y610520D02*
X904500D01*
X882000Y615520D02*
X904500D01*
X873000Y624520D02*
X882000Y615520D01*
X988250Y697592D02*
Y709270D01*
Y697592D02*
X990000Y695842D01*
Y694760D02*
Y695842D01*
X993250Y709270D02*
X993500Y709020D01*
Y700027D02*
Y709020D01*
Y700027D02*
X998002Y695525D01*
X999235D01*
X1000000Y694760D01*
X873000Y534520D02*
X876660D01*
X880410Y530770D01*
X904250D01*
X937000Y517520D02*
Y517644D01*
X1059000Y511520D02*
X1059999Y510521D01*
X1059000Y511520D02*
X1064000Y516520D01*
X1051000Y511120D02*
Y515520D01*
X1051000Y515520D02*
X1051000Y515520D01*
X1129263Y428520D02*
X1271000D01*
X1099000Y458783D02*
Y463520D01*
Y458783D02*
X1129263Y428520D01*
X1136000Y457520D02*
X1148171Y445348D01*
X1137657Y461520D02*
X1149657Y449520D01*
X1108819Y457520D02*
X1136000D01*
X1125000Y461520D02*
X1137657D01*
X1116000Y470520D02*
X1125000Y461520D01*
X1107000Y470520D02*
X1116000D01*
X1220095Y755925D02*
X1221690Y757520D01*
X1218500D02*
X1218500Y757520D01*
X1204080Y757520D02*
X1218500D01*
X1199999Y760519D02*
X1201081D01*
X1204080Y757520D01*
X1110999Y500919D02*
Y502519D01*
Y500919D02*
X1111000Y500918D01*
X1111000Y500918D02*
X1111000Y500918D01*
X998500Y480020D02*
X999000Y479520D01*
X983250Y486270D02*
X1002000Y467520D01*
X1019850Y479520D02*
X1026100Y485770D01*
X1003250Y485270D02*
X1009000Y479520D01*
X1002000Y467520D02*
Y467520D01*
X978250Y482785D02*
X1002000Y459035D01*
X1187068Y557451D02*
X1190999Y553519D01*
X1201000Y577520D02*
X1218493D01*
X1165494D02*
X1183000D01*
X1182000Y520520D02*
Y537520D01*
X1189137Y534383D02*
X1206000Y517520D01*
X1201355Y617165D02*
X1201710Y617520D01*
X1073000Y513904D02*
X1076915Y509990D01*
X1073000Y513904D02*
Y518520D01*
X1089000Y337520D02*
X1089212Y337733D01*
X1115000Y337520D02*
X1122962D01*
X895142Y575520D02*
X904500D01*
X893999Y580520D02*
X904500D01*
X893999Y580034D02*
Y580520D01*
X890485Y576519D02*
X893999Y580034D01*
X885514Y576519D02*
X890485D01*
X884514Y577520D02*
X885514Y576519D01*
X877000Y577520D02*
X884514D01*
X887999Y582519D02*
Y583437D01*
X1043250Y496770D02*
Y536270D01*
X1031000Y548520D02*
X1043250Y536270D01*
X1051000Y515520D02*
X1059000Y523520D01*
X1043000Y496520D02*
X1043250Y496770D01*
X1038250Y482852D02*
Y496770D01*
X1037000Y481602D02*
X1038250Y482852D01*
X1037000Y480520D02*
Y481602D01*
X1033250Y484255D02*
Y496770D01*
X1029515Y480520D02*
X1033250Y484255D01*
X1028250Y486942D02*
Y496770D01*
X1027078Y485770D02*
X1028250Y486942D01*
X1026100Y485770D02*
X1027078D01*
X1028000Y412520D02*
Y425520D01*
X1061000Y584520D02*
X1076142D01*
X1065172Y580520D02*
X1074485D01*
X1064000Y579348D02*
X1065172Y580520D01*
X1064000Y516520D02*
Y579348D01*
X1059000Y523520D02*
Y582520D01*
X1104343Y550520D02*
X1117000D01*
X1078000Y576863D02*
X1104343Y550520D01*
X1078000Y576863D02*
Y577005D01*
X1074485Y580520D02*
X1078000Y577005D01*
X1082000Y578520D02*
X1105000Y555520D01*
X1082000Y578520D02*
Y578662D01*
X1076142Y584520D02*
X1082000Y578662D01*
X1105000Y555520D02*
X1117000D01*
X1059000Y582520D02*
X1061000Y584520D01*
X1072000Y528520D02*
Y574520D01*
Y528520D02*
X1093250Y507270D01*
X1068609Y596520D02*
X1072609Y600520D01*
X1053858Y596520D02*
X1068609D01*
X1051858Y598520D02*
X1053858Y596520D01*
X1058000Y606851D02*
X1058331Y606520D01*
X1065920Y613600D02*
X1067162D01*
X1071576Y610770D02*
X1116750D01*
X1069326Y608520D02*
X1071576Y610770D01*
X1069295Y608520D02*
X1069326D01*
X1067295Y606520D02*
X1069295Y608520D01*
X1195999Y537519D02*
X1218493D01*
X1218493Y537520D01*
X1147999Y549519D02*
Y551519D01*
X1142000Y555520D02*
X1148000Y561520D01*
X1131731Y568102D02*
X1131999Y567834D01*
X1133000Y590520D02*
X1133959D01*
X1117000D02*
X1133000D01*
X1141999Y547034D02*
X1142000Y547033D01*
Y544520D02*
Y547033D01*
Y544520D02*
X1149000Y537520D01*
X1142000Y552006D02*
Y555520D01*
X1141999Y552005D02*
X1142000Y552006D01*
X1141999Y547034D02*
Y552005D01*
X1147999Y551519D02*
X1148000Y551520D01*
X1139999Y567020D02*
Y568102D01*
X1137061Y564082D02*
X1139999Y567020D01*
X1146000Y609520D02*
Y609520D01*
X1217771Y678248D02*
X1218500Y677520D01*
X1039000Y694760D02*
X1039240D01*
X1098000Y688520D02*
X1106000Y680520D01*
X1086000Y688520D02*
X1099000Y675520D01*
X1076000Y656520D02*
Y666520D01*
X921757Y650277D02*
X922000Y650035D01*
X1039240Y694760D02*
X1043250Y698770D01*
X1040999Y731437D02*
Y732519D01*
X1046999Y727512D02*
Y735004D01*
X1046000Y736004D02*
X1046999Y735004D01*
X1046000Y736004D02*
Y748593D01*
X1052000Y742005D02*
X1059000Y735005D01*
Y728035D02*
Y735005D01*
X1068250Y709270D02*
Y746270D01*
X1058250Y727284D02*
X1059000Y728035D01*
X1052000Y742005D02*
Y744520D01*
X1043250Y723763D02*
X1046999Y727512D01*
X1043250Y698770D02*
Y709270D01*
X1058250D02*
Y727284D01*
X1072999Y735034D02*
X1073250Y734783D01*
Y709270D02*
Y734783D01*
X1078250Y709270D02*
Y736519D01*
X1079250Y737519D01*
X1078999D02*
X1079250D01*
X882149Y628453D02*
X885082Y625520D01*
X1018000Y733520D02*
X1018125Y733395D01*
X1218500Y757520D02*
X1220095Y755925D01*
X981000Y773520D02*
X991768D01*
X986000Y759520D02*
X992000Y765520D01*
X981000Y759520D02*
X986000D01*
X1073250Y709270D02*
X1073250Y709270D01*
X1038250Y728688D02*
X1040999Y731437D01*
X1026573Y768020D02*
X1046000Y748593D01*
X988000Y709520D02*
Y718558D01*
X981038Y725520D02*
X988000Y718558D01*
X878156Y556676D02*
X879061Y555770D01*
X1288900Y743720D02*
X1310000D01*
X1288900Y667520D02*
X1310000D01*
X1288900Y591320D02*
X1310000D01*
X1288900Y616720D02*
X1310000D01*
X1072609Y600520D02*
X1117000D01*
X1058331Y606520D02*
X1067295D01*
X1128164Y530520D02*
X1137061Y539417D01*
X1099000Y675520D02*
X1117000D01*
X973250Y664976D02*
Y709270D01*
X982000Y662477D02*
Y667447D01*
X979250Y659727D02*
X982000Y662477D01*
X979250Y540770D02*
Y659727D01*
X986000Y660820D02*
Y669104D01*
X983250Y658070D02*
X986000Y660820D01*
X983250Y533702D02*
Y658070D01*
X967000Y528520D02*
X979250Y540770D01*
X978250Y671197D02*
Y709270D01*
Y671197D02*
X982000Y667447D01*
X983250Y671854D02*
Y709270D01*
Y671854D02*
X986000Y669104D01*
X954421Y485770D02*
X957750D01*
X1039515Y598520D02*
X1051858D01*
X1032515Y605520D02*
X1039515Y598520D01*
X1146000Y609520D02*
X1154000Y617520D01*
X1019000Y582840D02*
Y612715D01*
X1144000Y692520D02*
X1149000Y697520D01*
X1144000Y675520D02*
Y692520D01*
X1202457Y678248D02*
X1217771D01*
X1201728Y677520D02*
X1202457Y678248D01*
X1165500Y677520D02*
X1165500Y677520D01*
X1151000Y677520D02*
X1165500D01*
X1048125Y694959D02*
Y709145D01*
X966558Y670760D02*
Y671842D01*
X1218500Y637520D02*
X1218855Y637165D01*
X1327000Y743720D02*
X1348100D01*
X1327000Y718320D02*
X1348100D01*
X1327000Y692920D02*
X1348100D01*
X1327000Y667520D02*
X1348100D01*
X1327000Y642120D02*
X1348100D01*
X1327000Y591320D02*
X1348100D01*
X1327000Y616720D02*
X1348100D01*
X1327000Y565920D02*
X1348100D01*
X1454000Y743720D02*
X1475100D01*
X1454000Y718320D02*
X1475100D01*
X1454000Y692920D02*
X1475100D01*
X1454000Y667520D02*
X1475100D01*
X1454000Y642120D02*
X1475100D01*
X1454000Y591320D02*
X1475100D01*
X1454000Y616720D02*
X1475100D01*
X1454000Y565920D02*
X1475100D01*
X1581000Y743720D02*
X1602100D01*
X1581000Y718320D02*
X1602100D01*
X1581000Y692920D02*
X1602100D01*
X1581000Y667520D02*
X1602100D01*
X1581000Y565920D02*
X1602100D01*
X1708000Y743720D02*
X1729100D01*
X1708000Y718320D02*
X1729100D01*
X1708000Y692920D02*
X1729100D01*
X1708000Y667520D02*
X1729100D01*
X1708000Y642120D02*
X1729100D01*
X1708000Y591320D02*
X1729100D01*
X1708000Y616720D02*
X1729100D01*
X1708000Y565920D02*
X1729100D01*
X2089000Y743720D02*
X2110100D01*
X2089000Y718320D02*
X2110100D01*
X2089000Y692920D02*
X2110100D01*
X2089000Y667520D02*
X2110100D01*
X1835000Y743720D02*
X1856100D01*
X1835000Y718320D02*
X1856100D01*
X1835000Y692920D02*
X1856100D01*
X1835000Y667520D02*
X1856100D01*
X1835000Y642120D02*
X1856100D01*
X1835000Y591320D02*
X1856100D01*
X1835000Y616720D02*
X1856100D01*
X1835000Y565920D02*
X1856100D01*
X1962000Y743720D02*
X1983100D01*
X1962000Y718320D02*
X1983100D01*
X1962000Y692920D02*
X1983100D01*
X1962000Y667520D02*
X1983100D01*
X1962000Y642120D02*
X1983100D01*
X1962000Y591320D02*
X1983100D01*
X1962000Y616720D02*
X1983100D01*
X1962000Y565920D02*
X1983100D01*
X2050900Y718320D02*
X2072000D01*
X2050900Y692920D02*
X2072000D01*
X2050900Y667520D02*
X2072000D01*
X1923900Y743720D02*
X1945000D01*
X1923900Y718320D02*
X1945000D01*
X1923900Y692920D02*
X1945000D01*
X1923900Y667520D02*
X1945000D01*
X1796900Y692920D02*
X1818000D01*
X1796900Y667520D02*
X1818000D01*
X1796900Y642120D02*
X1818000D01*
X1796900Y591320D02*
X1818000D01*
X1796900Y616720D02*
X1818000D01*
X1796900Y565920D02*
X1818000D01*
X1669900Y743720D02*
X1691000D01*
X1669900Y718320D02*
X1691000D01*
X1669900Y692920D02*
X1691000D01*
X1669900Y667520D02*
X1691000D01*
X1669900Y642120D02*
X1691000D01*
X1669900Y591320D02*
X1691000D01*
X1669900Y616720D02*
X1691000D01*
X1669900Y565920D02*
X1691000D01*
X1542900Y692920D02*
X1564000D01*
X1542900Y667520D02*
X1564000D01*
X1542900Y642120D02*
X1564000D01*
X1542900Y591320D02*
X1564000D01*
X1542900Y565920D02*
X1564000D01*
X1415900Y718320D02*
X1437000D01*
X1415900Y642120D02*
X1437000D01*
X1415900Y591320D02*
X1437000D01*
X1415900Y616720D02*
X1437000D01*
X1415900Y565920D02*
X1437000D01*
X936760Y694520D02*
X937000Y694760D01*
X920000Y680520D02*
X928000Y688520D01*
X932000Y694520D02*
X936760D01*
X928250Y698270D02*
X932000Y694520D01*
X928250Y698270D02*
Y709270D01*
X1218500Y617520D02*
X1218500Y617520D01*
X1165500Y617520D02*
X1165500Y617520D01*
X1154000Y617520D02*
X1165500D01*
X1218493Y577520D02*
X1218493Y577520D01*
X1165493D02*
X1165494Y577520D01*
X1179000Y517520D02*
X1182000Y520520D01*
X1165493Y517520D02*
X1179000D01*
X1149000Y537520D02*
X1165493D01*
X1137061Y539417D02*
Y564082D01*
X1206000Y517520D02*
X1218493D01*
X1183958Y547520D02*
X1189137Y542341D01*
Y534383D02*
Y542341D01*
X1148000Y551520D02*
X1152171Y547348D01*
X1153828D01*
X1154000Y547520D01*
X1183958D01*
X1114000Y317520D02*
X1122962D01*
X1078000D02*
X1088000D01*
X1165500Y457520D02*
X1165500Y457520D01*
X1117000Y525520D02*
X1132000D01*
X1139000Y518520D01*
X1120000Y496520D02*
Y499020D01*
X1128000Y507020D01*
X1165493Y557520D02*
X1165563Y557451D01*
X1126248Y535770D02*
X1131999Y541521D01*
X1117250Y535770D02*
X1126248D01*
X1131999Y541521D02*
Y567834D01*
X1117000Y530520D02*
X1128164D01*
X1218493Y557520D02*
X1218493Y557520D01*
X1202000Y557520D02*
X1218493D01*
X1165563Y557451D02*
X1187068D01*
X967917Y518368D02*
X983250Y533702D01*
X988459Y527636D02*
Y558004D01*
X968250Y507427D02*
X988459Y527636D01*
X968250Y496770D02*
Y507427D01*
X992459Y525979D02*
Y556299D01*
X973250Y506770D02*
X992459Y525979D01*
X973250Y496770D02*
Y506770D01*
Y709270D02*
Y721270D01*
X968250Y673534D02*
Y720270D01*
X973236Y664962D02*
X973250Y664976D01*
X998250Y496770D02*
X998500Y496520D01*
Y480020D02*
Y496520D01*
X1003250Y485270D02*
Y496770D01*
X1002000Y457520D02*
Y459035D01*
X978250Y482785D02*
Y496770D01*
X983250Y486270D02*
Y496770D01*
X1137000Y668520D02*
X1144000Y675520D01*
X1139000Y677520D02*
Y697520D01*
X1133000Y687520D02*
Y712520D01*
X1131000Y685520D02*
X1133000Y687520D01*
X1135000Y635520D02*
X1137000Y637520D01*
X1117000Y635520D02*
X1135000D01*
X1147478Y657520D02*
X1165500D01*
X1042852Y629372D02*
X1063000Y649520D01*
X1030000Y629372D02*
X1042852D01*
X1046852Y627715D02*
X1047195D01*
X1044509Y625372D02*
X1046852Y627715D01*
X1031657Y625372D02*
X1044509D01*
X1019000Y612715D02*
X1031657Y625372D01*
X1047195Y627715D02*
X1076000Y656520D01*
X928000Y675520D02*
X934762Y682282D01*
X1014888Y614259D02*
X1030000Y629372D01*
X1218500Y737520D02*
X1218500Y737520D01*
X1235000D01*
X1218500Y657520D02*
X1218500Y657520D01*
X1236000D01*
X1165500D02*
X1165500Y657520D01*
X1053112Y709407D02*
Y732532D01*
X1043250Y709270D02*
Y723763D01*
X1023250Y725763D02*
X1024000Y726513D01*
X1023250Y709270D02*
Y725763D01*
X991768Y773520D02*
X991913Y773665D01*
X1095000Y580520D02*
X1117000D01*
X1087000Y588520D02*
X1095000Y580520D01*
X1093250Y496770D02*
Y507270D01*
X1088000Y497020D02*
Y506013D01*
X1084023Y509990D02*
X1088000Y506013D01*
X1076915Y509990D02*
X1084023D01*
X1088000Y497020D02*
X1088250Y496770D01*
X1023250D02*
Y509770D01*
X1031000Y517520D01*
X1006765Y510755D02*
X1008250Y509270D01*
Y496770D02*
Y509270D01*
X1002000Y511934D02*
X1003171Y510762D01*
Y510755D02*
X1006765D01*
X1003171D02*
Y510762D01*
X1025000Y605520D02*
X1032515D01*
X933000Y709520D02*
X933250Y709270D01*
X933000Y709520D02*
Y718520D01*
X928000Y723520D02*
X933000Y718520D01*
X849234Y719754D02*
X889234D01*
X891987Y722507D01*
X840000Y711520D02*
X841000D01*
X891987Y732507D02*
X901996Y742516D01*
X841000Y711520D02*
X849234Y719754D01*
X746000Y721520D02*
Y722005D01*
X756750Y721770D02*
X757000Y721520D01*
X756500Y739520D02*
X756750Y739270D01*
Y721770D02*
Y739270D01*
X750000Y726005D02*
Y739520D01*
X746000Y722005D02*
X750000Y726005D01*
X736000Y717520D02*
X737000Y718520D01*
Y739520D01*
X911000Y462520D02*
X911000Y462520D01*
X911000Y443520D02*
Y462520D01*
X896000Y418520D02*
Y428520D01*
X911000Y443520D01*
X906000Y410520D02*
X911000Y405520D01*
X906000Y410520D02*
Y411520D01*
X901000Y406520D02*
X901000Y406520D01*
Y418520D01*
X891082Y550520D02*
X904500D01*
X889082Y548520D02*
X891082Y550520D01*
X888000Y548520D02*
X889082D01*
X879061Y555770D02*
X904250D01*
X904500Y555520D01*
X953250Y486942D02*
Y496770D01*
Y486942D02*
X954421Y485770D01*
X1107041Y723520D02*
X1109041Y725520D01*
X1093250Y719113D02*
X1108500Y734363D01*
Y746348D01*
X1093250Y709270D02*
Y719113D01*
X1088250Y720270D02*
X1104294Y736314D01*
Y758687D01*
X1088250Y709270D02*
Y720270D01*
X1118000Y691270D02*
Y698816D01*
X1117000Y690520D02*
X1117250D01*
X1118000Y691270D01*
X1116041Y732520D02*
X1118000D01*
X1133000Y747520D02*
X1133147Y747667D01*
X1165500Y717520D02*
X1165500Y717520D01*
X1180000D01*
X1183000Y720520D02*
Y746496D01*
X1181828Y747667D02*
X1183000Y746496D01*
X1133147Y747667D02*
X1181828D01*
X1180000Y717520D02*
X1183000Y720520D01*
X1206654Y720866D02*
X1215154D01*
X1188000Y732942D02*
Y754213D01*
X1212450Y697520D02*
X1218500D01*
X1203354Y706616D02*
Y717588D01*
Y706616D02*
X1212450Y697520D01*
X1177243Y764970D02*
X1188000Y754213D01*
Y732942D02*
X1203354Y717588D01*
X1192000Y735520D02*
X1199275Y728245D01*
X1192000Y735520D02*
Y755870D01*
X1181846Y766023D02*
X1192000Y755870D01*
X1141000Y761520D02*
X1144450Y764970D01*
X1177243D01*
X1178899Y768970D02*
X1181846Y766023D01*
X1178787Y768970D02*
X1178899D01*
X1178501Y769256D02*
X1178787Y768970D01*
X1144264Y769256D02*
X1178501D01*
X1140000Y773520D02*
X1144264Y769256D01*
X1133000Y761520D02*
X1141000D01*
X1199275Y728245D02*
X1199275D01*
X1215154Y720866D02*
X1218500Y717520D01*
X1199275Y728245D02*
X1206654Y720866D01*
X1133000Y775520D02*
X1135000Y773520D01*
X1140000D01*
X1004000D02*
X1005500Y772020D01*
Y753020D02*
Y772020D01*
Y753020D02*
X1007000Y751520D01*
X948250Y496770D02*
Y506270D01*
X937000Y517520D02*
X948250Y506270D01*
X933235Y553285D02*
X934000Y552520D01*
X932719Y552770D02*
X933235Y553285D01*
X922015Y545520D02*
X929265Y552770D01*
X904500Y545520D02*
X922015D01*
X929265Y552770D02*
X932719D01*
X924843Y538363D02*
X925000Y538520D01*
X924843Y531625D02*
Y538363D01*
X904500Y520520D02*
X904750Y520770D01*
X943250Y486942D02*
Y496770D01*
Y486942D02*
X944421Y485770D01*
X946750D01*
X933125Y496645D02*
X933250Y496770D01*
X921557Y492520D02*
X923250Y494213D01*
Y496770D01*
X1014888Y584432D02*
Y614259D01*
X988459Y558004D02*
X1014888Y584432D01*
X992459Y556299D02*
X1019000Y582840D01*
X904500Y515520D02*
X904500Y515520D01*
X896000Y515520D02*
X904500D01*
X891000Y504520D02*
Y510520D01*
X896000Y515520D01*
X1140959Y597520D02*
X1144000D01*
X1133959Y590520D02*
X1140959Y597520D01*
X1136000Y578520D02*
X1144000D01*
X1117000Y585520D02*
X1129000D01*
X1136000Y578520D01*
X1117000Y590520D02*
X1117000Y590520D01*
X1098000Y588520D02*
X1101082D01*
X1104082Y585520D01*
X1116750Y610770D02*
X1117000Y610520D01*
X1069082Y615520D02*
X1117000D01*
X1067162Y613600D02*
X1069082Y615520D01*
X1117000Y630520D02*
X1117000Y630520D01*
X1106000Y630520D02*
X1117000D01*
X1101082Y620520D02*
X1117000D01*
X1099082Y622520D02*
X1101082Y620520D01*
X1098000Y622520D02*
X1099082D01*
X1104082Y585520D02*
X1117000D01*
X1165145Y637165D02*
X1165500Y637520D01*
X1117000Y535520D02*
X1117250Y535770D01*
X1128000Y507020D02*
Y518513D01*
X1126243Y520270D02*
X1128000Y518513D01*
X1117000Y520520D02*
X1117250Y520270D01*
X1126243D01*
X1113774Y514770D02*
X1114524Y515520D01*
X1117000D01*
X885082Y625520D02*
X904500D01*
X881000Y628453D02*
X882149D01*
X904250Y640770D02*
X904500Y640520D01*
X890082Y585520D02*
X904500D01*
X887999Y583437D02*
X890082Y585520D01*
X904250Y590270D02*
X904500Y590520D01*
Y660520D02*
X920000D01*
X934000Y646520D01*
Y646520D02*
Y646520D01*
X922000Y575520D02*
Y650035D01*
X917000Y570520D02*
X922000Y575520D01*
X904500Y570520D02*
X917000D01*
X880000Y663206D02*
X892686Y650520D01*
X880000Y663206D02*
Y676521D01*
X875056Y681465D02*
X880000Y676521D01*
X913988Y520770D02*
X924843Y531625D01*
X904750Y520770D02*
X913988D01*
X904250Y530770D02*
X904500Y530520D01*
X904250Y525270D02*
X904500Y525520D01*
X888750Y525270D02*
X904250D01*
X888000Y524520D02*
X888750Y525270D01*
X934762Y682282D02*
X935000D01*
X904500Y675520D02*
X928000D01*
X1117000Y685520D02*
X1131000D01*
X1106000Y680520D02*
X1117000D01*
X941000Y670520D02*
X944000Y673520D01*
X904500Y670520D02*
X941000D01*
X938250Y709270D02*
Y737663D01*
X891987Y722507D02*
Y732507D01*
X901996Y742516D02*
X933397D01*
X938250Y737663D01*
X869000Y700520D02*
Y711520D01*
X928179Y665520D02*
X933179Y660520D01*
X904500Y665520D02*
X928179D01*
X886000Y665027D02*
X895257Y655770D01*
X886000Y665027D02*
Y666707D01*
X904250Y655770D02*
X904500Y655520D01*
X895257Y655770D02*
X904250D01*
X867000Y681520D02*
X867055Y681465D01*
X875056D01*
X846157Y598363D02*
X848000Y596520D01*
X840157Y598363D02*
X846157D01*
X840000Y598520D02*
X840157Y598363D01*
X933179Y660520D02*
X934000D01*
X881000Y462520D02*
X891000D01*
X872000Y471520D02*
X881000Y462520D01*
X872000Y471520D02*
Y480520D01*
X966200Y317320D02*
X983800D01*
X984000Y317120D01*
X966000Y317520D02*
X966200Y317320D01*
X983850Y329670D02*
X984000Y329820D01*
X966150Y329670D02*
X983850D01*
X966000Y329520D02*
X966150Y329670D01*
X904500Y680520D02*
X920000D01*
X848000Y596520D02*
X851000D01*
X840235Y587755D02*
X841000Y588520D01*
X837485Y587755D02*
X840235D01*
X833000Y583270D02*
X837485Y587755D01*
X832500Y583270D02*
X833000D01*
X1029000Y480520D02*
X1029515D01*
X1029000D02*
Y481005D01*
X1028000Y496154D02*
X1028250Y496770D01*
X1098250D02*
X1098500Y496520D01*
X1023151Y771410D02*
X1026541Y768020D01*
X1026573D01*
X1038250Y709270D02*
Y728688D01*
X1100088Y738608D02*
Y746608D01*
X1083250Y721770D02*
X1100088Y738608D01*
X1107128Y761520D02*
X1119000D01*
X1108500Y746348D02*
X1109671Y747520D01*
X1053112Y709407D02*
X1053250Y709270D01*
X1114000Y357520D02*
X1122962D01*
X1085623Y359897D02*
X1088000Y357520D01*
X1063250Y455270D02*
X1099000Y419520D01*
X1058250Y452264D02*
X1091000Y419514D01*
X1122962Y377520D02*
Y377979D01*
X1120038Y380903D02*
X1122962Y377979D01*
X1119579Y380903D02*
X1120038D01*
X1113962Y386520D02*
X1119579Y380903D01*
X1086000Y386520D02*
X1113962D01*
X1083872Y388648D02*
X1086000Y386520D01*
X1081000Y377520D02*
X1088000D01*
X1079000Y379520D02*
X1081000Y377520D01*
X1139962Y317520D02*
X1165500D01*
X1165500Y317520D01*
X1139962Y337520D02*
X1165500D01*
X1165500Y337520D01*
X1139962Y357520D02*
X1165500D01*
X1165500Y357520D01*
X1139962Y377520D02*
X1165500D01*
X1165500Y377520D01*
X1203465Y363986D02*
Y375905D01*
X1218057Y377077D02*
X1218500Y377520D01*
X1204637Y377077D02*
X1218057D01*
X1203465Y375905D02*
X1204637Y377077D01*
X1196000Y356520D02*
X1203465Y363986D01*
X1177000Y367520D02*
X1188000Y356520D01*
X1196000D01*
X1115000Y367520D02*
X1177000D01*
X1206108Y357520D02*
X1218500D01*
X1196108Y347520D02*
X1206108Y357520D01*
X1105000Y377061D02*
Y377520D01*
Y377061D02*
X1107924Y374137D01*
X1108383D01*
X1115000Y367520D01*
X1115000Y347520D02*
X1196108D01*
X1105000Y357061D02*
Y357520D01*
Y357061D02*
X1107924Y354137D01*
X1108383D01*
X1115000Y347520D01*
X1193771Y327520D02*
X1203771Y337520D01*
X1116000Y327520D02*
X1193771D01*
X1106000Y337061D02*
Y337520D01*
Y337061D02*
X1108924Y334137D01*
X1109383D01*
X1116000Y327520D01*
X1203771Y337520D02*
X1218500D01*
X1187000Y317520D02*
X1218500D01*
X1179000Y309520D02*
X1187000Y317520D01*
X1105000Y316520D02*
Y317520D01*
Y316520D02*
X1112000Y309520D01*
X1179000D01*
X1083250Y496770D02*
X1083500Y496520D01*
Y487020D02*
Y496520D01*
X1085117Y477023D02*
Y478403D01*
X1078250Y485270D02*
X1085117Y478403D01*
X1089000Y472421D02*
Y473140D01*
X1085117Y477023D02*
X1089000Y473140D01*
X1078250Y485270D02*
Y496770D01*
X1079000Y472421D02*
Y477520D01*
X1063250Y455270D02*
Y496770D01*
X1048250Y449057D02*
Y496770D01*
X1053250Y451128D02*
Y496770D01*
X1058250Y452264D02*
Y496770D01*
X952000Y753342D02*
X958171Y759513D01*
X963993D02*
X964000Y759520D01*
X963000Y774520D02*
X964000Y773520D01*
X957000Y774520D02*
X963000D01*
X948000Y765520D02*
X957000Y774520D01*
X947993Y747513D02*
X948000Y747520D01*
Y765520D01*
X947993Y723520D02*
Y747513D01*
X956552Y744072D02*
X958104Y745624D01*
X956552Y728270D02*
Y744072D01*
X953000Y709520D02*
X953250Y709270D01*
X953000Y709520D02*
Y718513D01*
X947993Y723520D02*
X953000Y718513D01*
X953522Y724270D02*
X957250Y720542D01*
X956564Y728270D02*
X957000Y727834D01*
Y726449D02*
Y727834D01*
Y726449D02*
X959929Y723520D01*
X956552Y728270D02*
X956564D01*
X959929Y723520D02*
X965000D01*
X957250Y720542D02*
X958000Y719792D01*
X952000Y725792D02*
X953522Y724270D01*
X964000Y730520D02*
Y731520D01*
Y730520D02*
X973250Y721270D01*
X958171Y759513D02*
X963993D01*
X958104Y745624D02*
X963895D01*
X952000Y725792D02*
Y753342D01*
X958000Y709520D02*
X958250Y709270D01*
X958000Y709520D02*
Y719792D01*
X966558Y671842D02*
X968250Y673534D01*
X965000Y723520D02*
X968250Y720270D01*
X963895Y745624D02*
X964000Y745520D01*
X1110007Y775520D02*
X1119000D01*
X1100096Y746616D02*
Y765609D01*
X1110007Y775520D01*
X1104294Y758687D02*
X1107128Y761520D01*
X1083250Y709270D02*
Y721770D01*
X1100088Y746608D02*
X1100096Y746616D01*
X1109671Y747520D02*
X1119000D01*
X1048125Y709145D02*
X1048250Y709270D01*
X1033250D02*
X1033500Y709520D01*
X1018125Y709395D02*
X1018250Y709270D01*
X1018125Y709395D02*
Y733395D01*
X998000Y709520D02*
Y718513D01*
X993758Y722755D02*
X998000Y718513D01*
X981000Y745520D02*
X981038Y745481D01*
X988000Y709520D02*
X988250Y709270D01*
X991000Y723520D02*
X991765Y722755D01*
X998000Y709520D02*
X998250Y709270D01*
X991765Y722755D02*
X993758D01*
X1117000Y685520D02*
X1117250Y685770D01*
X916000Y685520D02*
X920000Y689520D01*
X904500Y685520D02*
X916000D01*
X892686Y650520D02*
X904500D01*
X883000Y706520D02*
Y711520D01*
Y706520D02*
X891000Y698520D01*
X916000D02*
X920000Y694520D01*
X891000Y698520D02*
X916000D01*
X920000Y689520D02*
Y694520D01*
X866000Y690520D02*
X904500D01*
X854000Y702520D02*
Y711520D01*
Y702520D02*
X866000Y690520D01*
X800179Y604699D02*
X805000Y609520D01*
X800179Y574770D02*
Y604699D01*
X831000Y599520D02*
Y608348D01*
X829828Y609520D02*
X831000Y608348D01*
X805000Y609520D02*
X829828D01*
X811500Y583270D02*
Y599020D01*
X812000Y599520D01*
D17*
X989000Y450520D02*
D03*
X970000D02*
D03*
X1120000Y496520D02*
D03*
X1139000D02*
D03*
X1004000Y773520D02*
D03*
X1023000D02*
D03*
X891000Y480520D02*
D03*
X872000D02*
D03*
X812000Y599520D02*
D03*
X831000D02*
D03*
X981000Y417520D02*
D03*
X962000D02*
D03*
X715000Y717520D02*
D03*
X734000D02*
D03*
D18*
X1218500Y317520D02*
D03*
Y297520D02*
D03*
Y337520D02*
D03*
Y357520D02*
D03*
Y437520D02*
D03*
Y417520D02*
D03*
Y377520D02*
D03*
Y397520D02*
D03*
Y477520D02*
D03*
Y457520D02*
D03*
X1165500D02*
D03*
Y477520D02*
D03*
Y417520D02*
D03*
Y377520D02*
D03*
Y397520D02*
D03*
Y437520D02*
D03*
Y357520D02*
D03*
Y317520D02*
D03*
Y297520D02*
D03*
Y337520D02*
D03*
X1218493Y537520D02*
D03*
Y517520D02*
D03*
Y497520D02*
D03*
Y577520D02*
D03*
Y557520D02*
D03*
X1165493D02*
D03*
Y577520D02*
D03*
Y517520D02*
D03*
Y497520D02*
D03*
Y537520D02*
D03*
X1218500Y617520D02*
D03*
Y597520D02*
D03*
Y637520D02*
D03*
Y657520D02*
D03*
Y737520D02*
D03*
Y717520D02*
D03*
Y677520D02*
D03*
Y697520D02*
D03*
Y777520D02*
D03*
Y757520D02*
D03*
X1165500D02*
D03*
Y777520D02*
D03*
Y717520D02*
D03*
Y677520D02*
D03*
Y697520D02*
D03*
Y737520D02*
D03*
Y657520D02*
D03*
Y617520D02*
D03*
Y597520D02*
D03*
Y637520D02*
D03*
D19*
X943250Y709270D02*
D03*
X948250D02*
D03*
X928250Y496770D02*
D03*
X933250D02*
D03*
X938250D02*
D03*
X943250D02*
D03*
X948250D02*
D03*
X953250D02*
D03*
X958250D02*
D03*
X963250D02*
D03*
X968250D02*
D03*
X973250D02*
D03*
X978250D02*
D03*
X983250D02*
D03*
X988250D02*
D03*
X993250D02*
D03*
X998250D02*
D03*
X1003250D02*
D03*
X1008250D02*
D03*
X1013250D02*
D03*
X1018250D02*
D03*
X1023250D02*
D03*
X1028250D02*
D03*
X1033250D02*
D03*
X1038250D02*
D03*
X1043250D02*
D03*
X1048250D02*
D03*
X1053250D02*
D03*
X1058250D02*
D03*
X1063250D02*
D03*
X1068250D02*
D03*
X1073250D02*
D03*
X1078250D02*
D03*
X1083250D02*
D03*
X1088250D02*
D03*
X1093250D02*
D03*
X1098250D02*
D03*
Y709270D02*
D03*
X1093250D02*
D03*
X1088250D02*
D03*
X1083250D02*
D03*
X1078250D02*
D03*
X1073250D02*
D03*
X1068250D02*
D03*
X1063250D02*
D03*
X1058250D02*
D03*
X1053250D02*
D03*
X1048250D02*
D03*
X1043250D02*
D03*
X1038250D02*
D03*
X1033250D02*
D03*
X1028250D02*
D03*
X1023250D02*
D03*
X1018250D02*
D03*
X1013250D02*
D03*
X1008250D02*
D03*
X1003250D02*
D03*
X998250D02*
D03*
X993250D02*
D03*
X988250D02*
D03*
X983250D02*
D03*
X978250D02*
D03*
X973250D02*
D03*
X968250D02*
D03*
X963250D02*
D03*
X958250D02*
D03*
X953250D02*
D03*
X938250D02*
D03*
X933250D02*
D03*
X928250D02*
D03*
X923250D02*
D03*
D20*
Y496770D02*
D03*
D21*
X1117000Y515520D02*
D03*
Y520520D02*
D03*
Y525520D02*
D03*
Y530520D02*
D03*
Y535520D02*
D03*
Y540520D02*
D03*
Y545520D02*
D03*
Y550520D02*
D03*
Y555520D02*
D03*
Y560520D02*
D03*
Y565520D02*
D03*
Y570520D02*
D03*
Y575520D02*
D03*
Y580520D02*
D03*
Y585520D02*
D03*
Y590520D02*
D03*
Y595520D02*
D03*
Y600520D02*
D03*
Y605520D02*
D03*
Y610520D02*
D03*
Y615520D02*
D03*
Y620520D02*
D03*
Y625520D02*
D03*
Y630520D02*
D03*
Y635520D02*
D03*
Y640520D02*
D03*
Y645520D02*
D03*
Y650520D02*
D03*
Y655520D02*
D03*
Y660520D02*
D03*
Y665520D02*
D03*
Y670520D02*
D03*
Y675520D02*
D03*
Y680520D02*
D03*
Y685520D02*
D03*
Y690520D02*
D03*
X904500D02*
D03*
Y685520D02*
D03*
Y680520D02*
D03*
Y675520D02*
D03*
Y670520D02*
D03*
Y665520D02*
D03*
Y660520D02*
D03*
Y655520D02*
D03*
Y650520D02*
D03*
Y645520D02*
D03*
Y640520D02*
D03*
Y635520D02*
D03*
Y630520D02*
D03*
Y625520D02*
D03*
Y620520D02*
D03*
Y615520D02*
D03*
Y610520D02*
D03*
Y605520D02*
D03*
Y600520D02*
D03*
Y595520D02*
D03*
Y590520D02*
D03*
Y585520D02*
D03*
Y580520D02*
D03*
Y575520D02*
D03*
Y570520D02*
D03*
Y565520D02*
D03*
Y560520D02*
D03*
Y555520D02*
D03*
Y550520D02*
D03*
Y545520D02*
D03*
Y540520D02*
D03*
Y535520D02*
D03*
Y530520D02*
D03*
Y525520D02*
D03*
Y520520D02*
D03*
Y515520D02*
D03*
D22*
X1118000Y732520D02*
D03*
Y713520D02*
D03*
X1134000Y732520D02*
D03*
Y713520D02*
D03*
X1028000Y425520D02*
D03*
Y444520D02*
D03*
X1144000Y578520D02*
D03*
Y597520D02*
D03*
X868000Y425520D02*
D03*
Y406520D02*
D03*
X851000Y577520D02*
D03*
Y596520D02*
D03*
Y560520D02*
D03*
Y541520D02*
D03*
X865000Y323520D02*
D03*
Y304520D02*
D03*
X1049000Y323520D02*
D03*
Y304520D02*
D03*
X851000Y496520D02*
D03*
Y515520D02*
D03*
D23*
X1139962Y377520D02*
D03*
X1122962D02*
D03*
X1139962Y357520D02*
D03*
X1122962D02*
D03*
X1139962Y337520D02*
D03*
X1122962D02*
D03*
X1139962Y317520D02*
D03*
X1122962D02*
D03*
X1088000Y377520D02*
D03*
X1105000D02*
D03*
X1088000Y357520D02*
D03*
X1105000D02*
D03*
X1089000Y337520D02*
D03*
X1106000D02*
D03*
X1088000Y317520D02*
D03*
X1105000D02*
D03*
X850000Y645520D02*
D03*
X867000D02*
D03*
Y681520D02*
D03*
X850000D02*
D03*
Y663520D02*
D03*
X867000D02*
D03*
X964000Y745520D02*
D03*
X981000D02*
D03*
Y731520D02*
D03*
X964000D02*
D03*
X1011000Y412520D02*
D03*
X1028000D02*
D03*
X981000Y759520D02*
D03*
X964000D02*
D03*
Y773520D02*
D03*
X981000D02*
D03*
X1116000Y747520D02*
D03*
X1133000D02*
D03*
Y761520D02*
D03*
X1116000D02*
D03*
Y775520D02*
D03*
X1133000D02*
D03*
X2089000Y692920D02*
D03*
X2072000D02*
D03*
Y667520D02*
D03*
X2089000D02*
D03*
Y743720D02*
D03*
X2072000D02*
D03*
Y718320D02*
D03*
X2089000D02*
D03*
X1962000Y591320D02*
D03*
X1945000D02*
D03*
Y565920D02*
D03*
X1962000D02*
D03*
Y642120D02*
D03*
X1945000D02*
D03*
Y616720D02*
D03*
X1962000D02*
D03*
Y692920D02*
D03*
X1945000D02*
D03*
Y667520D02*
D03*
X1962000D02*
D03*
Y743720D02*
D03*
X1945000D02*
D03*
Y718320D02*
D03*
X1962000D02*
D03*
X1835000Y591320D02*
D03*
X1818000D02*
D03*
Y565920D02*
D03*
X1835000D02*
D03*
Y642120D02*
D03*
X1818000D02*
D03*
Y616720D02*
D03*
X1835000D02*
D03*
Y692920D02*
D03*
X1818000D02*
D03*
Y667520D02*
D03*
X1835000D02*
D03*
Y743720D02*
D03*
X1818000D02*
D03*
Y718320D02*
D03*
X1835000D02*
D03*
X1708000Y591320D02*
D03*
X1691000D02*
D03*
Y565920D02*
D03*
X1708000D02*
D03*
Y642120D02*
D03*
X1691000D02*
D03*
Y616720D02*
D03*
X1708000D02*
D03*
Y692920D02*
D03*
X1691000D02*
D03*
Y667520D02*
D03*
X1708000D02*
D03*
Y743720D02*
D03*
X1691000D02*
D03*
Y718320D02*
D03*
X1708000D02*
D03*
X1581000Y591320D02*
D03*
X1564000D02*
D03*
Y565920D02*
D03*
X1581000D02*
D03*
Y642120D02*
D03*
X1564000D02*
D03*
Y616720D02*
D03*
X1581000D02*
D03*
Y692920D02*
D03*
X1564000D02*
D03*
Y667520D02*
D03*
X1581000D02*
D03*
Y743720D02*
D03*
X1564000D02*
D03*
Y718320D02*
D03*
X1581000D02*
D03*
X1454000Y591320D02*
D03*
X1437000D02*
D03*
Y565920D02*
D03*
X1454000D02*
D03*
Y642120D02*
D03*
X1437000D02*
D03*
Y616720D02*
D03*
X1454000D02*
D03*
Y692920D02*
D03*
X1437000D02*
D03*
Y667520D02*
D03*
X1454000D02*
D03*
Y743720D02*
D03*
X1437000D02*
D03*
Y718320D02*
D03*
X1454000D02*
D03*
X1327000Y591320D02*
D03*
X1310000D02*
D03*
Y565920D02*
D03*
X1327000D02*
D03*
Y642120D02*
D03*
X1310000D02*
D03*
Y616720D02*
D03*
X1327000D02*
D03*
Y692920D02*
D03*
X1310000D02*
D03*
Y667520D02*
D03*
X1327000D02*
D03*
Y743720D02*
D03*
X1310000D02*
D03*
Y718320D02*
D03*
X1327000D02*
D03*
D24*
X840000Y711520D02*
D03*
Y728520D02*
D03*
X854000Y728520D02*
D03*
Y711520D02*
D03*
X869000Y711520D02*
D03*
Y728520D02*
D03*
X883000D02*
D03*
Y711520D02*
D03*
D25*
X732000Y690350D02*
D03*
Y653520D02*
D03*
X790000D02*
D03*
Y690350D02*
D03*
X822000Y502520D02*
D03*
Y539350D02*
D03*
X1021000Y308520D02*
D03*
Y345350D02*
D03*
D26*
X721000Y600520D02*
D03*
X741000D02*
D03*
X721000Y505520D02*
D03*
X761000Y600520D02*
D03*
X741000Y505520D02*
D03*
X781000D02*
D03*
X761000D02*
D03*
D27*
X781000Y600520D02*
D03*
D28*
X811500Y583270D02*
D03*
D29*
Y576770D02*
D03*
Y570270D02*
D03*
X832500Y583270D02*
D03*
Y570270D02*
D03*
Y576770D02*
D03*
X811500Y563770D02*
D03*
X832500D02*
D03*
D30*
X822000Y573520D02*
D03*
D31*
X779750Y770770D02*
D03*
X720250D02*
D03*
X750000D02*
D03*
D32*
X743500Y739520D02*
D03*
X750000D02*
D03*
X756500D02*
D03*
X763000D02*
D03*
X737000D02*
D03*
D33*
X835320Y681520D02*
D03*
X815000D02*
D03*
X835000Y645520D02*
D03*
X814680D02*
D03*
X835320Y663520D02*
D03*
X815000D02*
D03*
D34*
X842560Y758580D02*
D03*
X855260D02*
D03*
X867960D02*
D03*
X880660D02*
D03*
D35*
X911000Y462520D02*
D03*
X906000D02*
D03*
X901000D02*
D03*
X896000D02*
D03*
X891000D02*
D03*
X911000Y418520D02*
D03*
X906000D02*
D03*
X901000D02*
D03*
X896000D02*
D03*
X927000D02*
D03*
X932000D02*
D03*
X937000D02*
D03*
X942000D02*
D03*
X947000D02*
D03*
X927000Y462520D02*
D03*
X932000D02*
D03*
X937000D02*
D03*
X942000D02*
D03*
D36*
X891000Y418520D02*
D03*
X947000Y462520D02*
D03*
D37*
X892500Y393320D02*
D03*
Y380620D02*
D03*
Y367920D02*
D03*
Y355220D02*
D03*
Y342520D02*
D03*
Y329820D02*
D03*
Y317120D02*
D03*
Y304420D02*
D03*
X984000Y393320D02*
D03*
Y380620D02*
D03*
Y367920D02*
D03*
Y355220D02*
D03*
Y342520D02*
D03*
Y329820D02*
D03*
Y317120D02*
D03*
Y304420D02*
D03*
D72*
X990500Y693653D02*
Y693989D01*
X1119000Y297520D02*
X1165500D01*
X1119000Y297520D02*
X1119000Y297520D01*
X1009784Y674369D02*
X1033700D01*
X990000Y694489D02*
Y694760D01*
X990500Y693653D02*
X1009784Y674369D01*
X990000Y694489D02*
X990500Y693989D01*
X1352400Y428320D02*
X1377800D01*
X1301600D02*
X1327400D01*
X1301600Y402920D02*
Y428320D01*
X1327400Y402920D02*
Y428320D01*
X1377800Y402920D02*
Y428320D01*
X1352400Y402920D02*
Y428320D01*
X1235728Y779017D02*
X1235999D01*
X772000Y367520D02*
X862000D01*
X768900Y350620D02*
Y367520D01*
Y401770D01*
X1028000Y444520D02*
Y451520D01*
X1149495Y735570D02*
X1163550D01*
X1165500Y777520D02*
X1218500D01*
X1163550Y779470D02*
X1165500Y777520D01*
X1234231D02*
X1235728Y779017D01*
X1218500Y777520D02*
X1234231D01*
X1149270Y735346D02*
X1149495Y735570D01*
X1149000Y697520D02*
X1165500D01*
X1203000Y499520D02*
X1203191Y499329D01*
X1216684D01*
X1218493Y497520D01*
X1033700Y674369D02*
X1045550Y662520D01*
X1165500Y697520D02*
X1165500Y697520D01*
X1163550Y735570D02*
X1165500Y737520D01*
X1149000Y735346D02*
X1149270D01*
X963100Y304420D02*
X984000D01*
X951000Y316520D02*
X963100Y304420D01*
X953900Y380620D02*
X984000D01*
X950971Y377691D02*
X953900Y380620D01*
X950971Y373549D02*
Y377691D01*
Y373549D02*
X951000Y373520D01*
Y316520D02*
Y373520D01*
X1012200Y393320D02*
X1020000Y385520D01*
Y364520D02*
Y385520D01*
X984000Y393320D02*
X1012200D01*
X1020000Y346350D02*
X1021000Y345350D01*
X1020000Y346350D02*
Y364520D01*
X1016600Y367920D02*
X1020000Y364520D01*
X984000Y367920D02*
X1016600D01*
X1007130Y355220D02*
X1017000Y345350D01*
X984000Y355220D02*
X1007130D01*
X1017000Y345350D02*
X1021000D01*
X1046071D02*
X1049000Y342421D01*
X1021000Y345350D02*
X1046071D01*
X1049000Y323520D02*
Y342421D01*
X984000Y342520D02*
X1018170D01*
X1021000Y345350D01*
X1025000Y304520D02*
X1049000D01*
X1021000Y308520D02*
X1025000Y304520D01*
X984000Y304420D02*
X1016900D01*
X1021000Y308520D01*
X851000Y528520D02*
Y541520D01*
Y515520D02*
Y528520D01*
X832500Y546850D02*
Y562770D01*
X825000Y539350D02*
X832500Y546850D01*
X819000Y539350D02*
X822000D01*
X811500Y546850D02*
X819000Y539350D01*
X811500Y545850D02*
Y562770D01*
X1165500Y297520D02*
X1218500D01*
X835000Y645520D02*
X850000D01*
X835320Y663520D02*
X850000D01*
X850000Y663520D01*
X835320Y681520D02*
X850000D01*
X814840Y645680D02*
Y681360D01*
X815000Y681520D02*
Y699520D01*
X815000Y699520D02*
X815000Y699520D01*
X814840Y681360D02*
X815000Y681520D01*
X814680Y645520D02*
X814840Y645680D01*
X865000Y346020D02*
Y357520D01*
Y334520D02*
Y346020D01*
X874200Y355220D02*
X892500D01*
X865000Y346020D02*
X874200Y355220D01*
X865000Y357520D02*
X875400Y367920D01*
X892500D01*
X862000Y367520D02*
X875100Y380620D01*
X857000Y377520D02*
X872800Y393320D01*
X801000Y377520D02*
X857000D01*
X794300Y384220D02*
X801000Y377520D01*
X875100Y380620D02*
X892500D01*
X794300Y384220D02*
Y401770D01*
X872800Y393320D02*
X892500D01*
X815000Y304520D02*
X865000D01*
X768900Y350620D02*
X815000Y304520D01*
X873000Y342520D02*
X892500D01*
X865000Y323520D02*
Y334520D01*
X873000Y342520D01*
X892450Y304470D02*
X892500Y304420D01*
X865050Y304470D02*
X892450D01*
X865000Y304520D02*
X865050Y304470D01*
D73*
X1120000Y488520D02*
Y496520D01*
X1131000Y477520D02*
X1165500D01*
X1120000Y488520D02*
X1131000Y477520D01*
X807843Y570270D02*
X811500D01*
X802000Y564427D02*
X807843Y570270D01*
X802000Y561520D02*
Y564427D01*
X855000Y635553D02*
X864033D01*
X867000Y638520D01*
X1201000Y597520D02*
X1201000Y597520D01*
X1182000D02*
X1182000Y597520D01*
X1165500Y597520D02*
X1182000D01*
X1201000D02*
X1218500D01*
X1218500Y597520D01*
X1165500D02*
X1165500Y597520D01*
X1165500Y457520D02*
X1165500Y457520D01*
X1218500D02*
X1218500Y457520D01*
X1203000Y457520D02*
X1203000Y457520D01*
X1203000Y477520D02*
X1218500D01*
X1165500D02*
X1181000D01*
X1159444Y497520D02*
X1165493D01*
X1150826Y488903D02*
X1159444Y497520D01*
X1148383Y488903D02*
X1150826D01*
X1148000Y488520D02*
X1148383Y488903D01*
X842560Y730520D02*
Y758580D01*
X840560Y728520D02*
X842560Y730520D01*
X840000Y728520D02*
X840560D01*
X880660Y730860D02*
Y758580D01*
Y730860D02*
X883000Y728520D01*
X884000D01*
X867960Y758580D02*
X868480Y758060D01*
Y729040D02*
Y758060D01*
Y729040D02*
X869000Y728520D01*
X855130Y758450D02*
X855260Y758580D01*
X855130Y728650D02*
Y758450D01*
X855000Y728520D02*
X855130Y728650D01*
X710343Y725520D02*
X710343D01*
X715000Y722020D02*
X717000Y720020D01*
X720250Y767770D02*
Y770770D01*
X705000Y752520D02*
X720250Y767770D01*
X705000Y730863D02*
Y752520D01*
X717000Y717520D02*
Y720020D01*
X713843Y722020D02*
X715000D01*
X710343Y725520D02*
X713843Y722020D01*
X705000Y730863D02*
X710343Y725520D01*
X750000Y770770D02*
X779750D01*
X720250D02*
X750000D01*
X802250Y576770D02*
X811500D01*
X800214Y574734D02*
X802250Y576770D01*
D74*
X741000Y600520D02*
Y637520D01*
Y649275D01*
Y565520D02*
Y600520D01*
X891000Y480520D02*
X907000D01*
X981000Y417020D02*
Y417520D01*
Y417020D02*
X989500Y408520D01*
X997000D01*
X962000Y398520D02*
X962000Y398520D01*
Y417520D01*
X741000Y557520D02*
Y565520D01*
Y548520D02*
Y557520D01*
X782000Y625520D02*
Y648520D01*
Y601520D02*
Y625520D01*
X781000Y600520D02*
Y624520D01*
X782000Y625520D01*
X800000D01*
X781000Y600520D02*
X782000Y601520D01*
Y648520D02*
X787000Y653520D01*
X790000D01*
X761000Y560520D02*
Y600520D01*
X858801Y528520D02*
X872111Y515210D01*
Y487703D02*
Y515210D01*
X851000Y528520D02*
X858801D01*
X825000Y539350D02*
X826000D01*
X822000D02*
X825000D01*
X826000D02*
X836830Y528520D01*
X851000D01*
X761000Y690350D02*
X790000D01*
X732000D02*
X761000D01*
X761000Y671520D02*
Y690350D01*
X761000Y690350D01*
X732000Y691350D02*
X732996Y690354D01*
X736000Y654275D02*
X741000Y649275D01*
X761000Y600520D02*
Y671520D01*
Y600520D02*
X761000Y600520D01*
X794300Y401770D02*
Y427170D01*
X768900Y401770D02*
Y427170D01*
X751000Y446520D02*
X766767D01*
X780883Y460636D01*
Y495404D01*
X761000Y467378D02*
Y505520D01*
X718100Y427170D02*
Y455662D01*
X723958Y461520D01*
X718100Y427170D02*
X718100Y427170D01*
X755142Y461520D02*
X761000Y467378D01*
X723958Y461520D02*
X755142D01*
X744000Y439520D02*
X751000Y446520D01*
X744000Y427670D02*
Y439520D01*
X743500Y427170D02*
X744000Y427670D01*
X718100Y401770D02*
Y427170D01*
X743500Y401770D02*
Y427170D01*
D75*
X713000Y367520D02*
X768900D01*
X705828Y374692D02*
Y702348D01*
X710000Y706520D01*
X705828Y374692D02*
X713000Y367520D01*
X710000Y706520D02*
X725500D01*
X734000Y715020D01*
X871000Y428520D02*
Y436520D01*
X868000Y425520D02*
X871000Y428520D01*
X1118000Y698816D02*
Y713520D01*
X763000Y727520D02*
Y739520D01*
Y727520D02*
X769000Y721520D01*
X906000Y445520D02*
Y462520D01*
X891000Y430520D02*
X906000Y445520D01*
X851000Y569020D02*
Y577520D01*
X849750Y570270D02*
X851000Y569020D01*
X1109041Y725520D02*
X1116041Y732520D01*
X1218114Y737906D02*
X1218500Y737520D01*
X1117000Y732520D02*
X1134000D01*
X900000Y709520D02*
X921000D01*
X891000Y418520D02*
Y430520D01*
X911000Y462520D02*
X919000D01*
X891000Y418520D02*
Y418520D01*
X884000Y418520D02*
X891000D01*
X851000Y560520D02*
Y569020D01*
X832500Y570270D02*
X849750D01*
D76*
X1134000Y397520D02*
X1165500D01*
X1134000Y397520D02*
X1134000Y397520D01*
X1128000Y412520D02*
X1146000D01*
X1150550Y417070D01*
X1165050D01*
X1165500Y417520D01*
X772500Y547020D02*
X800214Y574734D01*
X742500Y547020D02*
X772500D01*
X741000Y548520D02*
X742500Y547020D01*
X1165500Y437520D02*
X1218500D01*
X1218250Y417770D02*
X1218500Y417520D01*
X1165750Y417770D02*
X1218250D01*
X1165500Y417520D02*
X1165750Y417770D01*
X1165500Y397520D02*
X1165750Y397270D01*
X1218250D01*
X1218500Y397520D01*
D77*
X970000Y435520D02*
Y450520D01*
D78*
X819700Y427170D02*
X819903Y427374D01*
X903095Y326675D02*
Y327132D01*
X907606Y320365D02*
X908032Y319939D01*
X909581D01*
X907606Y326675D02*
X908032Y327101D01*
X903095Y326675D02*
X907606D01*
X903095Y320365D02*
X907606D01*
X909581Y319939D02*
X910000Y319520D01*
X903095Y319808D02*
Y320365D01*
X909581Y327101D02*
X910000Y327520D01*
X892500Y317120D02*
X900407D01*
X903095Y319808D01*
X900407Y329820D02*
X903095Y327132D01*
X908032Y327101D02*
X909581D01*
X892500Y329820D02*
X900407D01*
D79*
X1377800Y718320D02*
D03*
Y743720D02*
D03*
Y692920D02*
D03*
Y667520D02*
D03*
Y642120D02*
D03*
Y616720D02*
D03*
Y591320D02*
D03*
Y565920D02*
D03*
X1504800Y743720D02*
D03*
Y718320D02*
D03*
Y591320D02*
D03*
X1631800Y692920D02*
D03*
X1504800Y565920D02*
D03*
X1631800D02*
D03*
Y591320D02*
D03*
X1758800Y692920D02*
D03*
Y616720D02*
D03*
X1885800Y591320D02*
D03*
X2012800Y565920D02*
D03*
Y642120D02*
D03*
X1758800Y565920D02*
D03*
X1504800Y667520D02*
D03*
X2139800Y743720D02*
D03*
X1352400Y718320D02*
D03*
Y743720D02*
D03*
Y667520D02*
D03*
Y692920D02*
D03*
Y616720D02*
D03*
Y642120D02*
D03*
Y565920D02*
D03*
Y591320D02*
D03*
X1479400Y743720D02*
D03*
Y692920D02*
D03*
X1606400Y642120D02*
D03*
X1733400Y667520D02*
D03*
Y692920D02*
D03*
Y616720D02*
D03*
Y642120D02*
D03*
Y565920D02*
D03*
X1987400Y743720D02*
D03*
X2114400Y692920D02*
D03*
D80*
X2012800Y591320D02*
D03*
Y692920D02*
D03*
Y743720D02*
D03*
X2139800Y692920D02*
D03*
X1631800Y718320D02*
D03*
Y743720D02*
D03*
Y667520D02*
D03*
Y642120D02*
D03*
Y616720D02*
D03*
X1758800Y667520D02*
D03*
X1885800Y565920D02*
D03*
Y642120D02*
D03*
Y616720D02*
D03*
X2012800Y667520D02*
D03*
Y718320D02*
D03*
X2139800Y667520D02*
D03*
X1504800Y692920D02*
D03*
Y616720D02*
D03*
Y642120D02*
D03*
X1758800Y743720D02*
D03*
Y718320D02*
D03*
Y642120D02*
D03*
Y591320D02*
D03*
X1885800Y667520D02*
D03*
Y692920D02*
D03*
Y718320D02*
D03*
Y743720D02*
D03*
X2012800Y616720D02*
D03*
X2139800Y718320D02*
D03*
X1479400D02*
D03*
Y667520D02*
D03*
Y616720D02*
D03*
Y642120D02*
D03*
Y565920D02*
D03*
Y591320D02*
D03*
X1606400Y718320D02*
D03*
Y743720D02*
D03*
Y667520D02*
D03*
Y692920D02*
D03*
Y616720D02*
D03*
Y565920D02*
D03*
Y591320D02*
D03*
X1733400Y718320D02*
D03*
Y743720D02*
D03*
Y591320D02*
D03*
X1860400Y718320D02*
D03*
Y743720D02*
D03*
Y667520D02*
D03*
Y692920D02*
D03*
Y616720D02*
D03*
Y642120D02*
D03*
Y565920D02*
D03*
Y591320D02*
D03*
X1987400Y718320D02*
D03*
Y667520D02*
D03*
Y692920D02*
D03*
Y616720D02*
D03*
Y642120D02*
D03*
Y565920D02*
D03*
Y591320D02*
D03*
X2114400Y718320D02*
D03*
Y743720D02*
D03*
Y667520D02*
D03*
D81*
X1007000Y751520D02*
D03*
X1086800D02*
D03*
D82*
X743500Y401770D02*
D03*
Y427170D02*
D03*
X768900Y401770D02*
D03*
Y427170D02*
D03*
X794300Y401770D02*
D03*
Y427170D02*
D03*
X819700Y401770D02*
D03*
Y427170D02*
D03*
X845100Y401770D02*
D03*
X718100D02*
D03*
Y427170D02*
D03*
X819000Y452520D02*
D03*
X845000D02*
D03*
X1377800Y402920D02*
D03*
X1352400Y428320D02*
D03*
Y402920D02*
D03*
X1327400Y428320D02*
D03*
Y402920D02*
D03*
X1301600Y428320D02*
D03*
Y402920D02*
D03*
X2165200D02*
D03*
X2139800Y428320D02*
D03*
Y402920D02*
D03*
D83*
X845100Y427170D02*
D03*
X819000Y472520D02*
D03*
X845000D02*
D03*
X1377800Y428320D02*
D03*
X2165200D02*
D03*
D84*
X746000Y712520D02*
D03*
X1133000Y590520D02*
D03*
X1146000Y609520D02*
D03*
X1024000Y661520D02*
D03*
X1142250Y297520D02*
D03*
X1119000Y297520D02*
D03*
X1107000Y489520D02*
D03*
X1047843Y694677D02*
D03*
X1240000Y517520D02*
D03*
X802000Y561520D02*
D03*
X1149000Y435520D02*
D03*
X1082999Y451520D02*
D03*
X2059000Y744520D02*
D03*
X1300000Y566520D02*
D03*
X1658000Y712520D02*
D03*
X1542900Y616720D02*
D03*
X1242000Y682520D02*
D03*
X1262000Y688520D02*
D03*
X1238000Y696520D02*
D03*
X1241999Y745519D02*
D03*
X1945000Y555520D02*
D03*
X1907000Y642520D02*
D03*
Y615520D02*
D03*
X864000Y553520D02*
D03*
X865000Y565520D02*
D03*
X1035000Y594520D02*
D03*
X1046224Y588520D02*
D03*
X1041000Y605520D02*
D03*
X1313000Y545520D02*
D03*
X1266000Y484520D02*
D03*
X1273000Y524520D02*
D03*
X1289000Y478520D02*
D03*
X1250000Y511520D02*
D03*
X1319000Y627520D02*
D03*
X1201355Y617165D02*
D03*
X1403000Y628520D02*
D03*
X1262000Y635520D02*
D03*
X1398000Y660520D02*
D03*
X1669900Y743720D02*
D03*
X1555000Y744520D02*
D03*
X1296000Y712520D02*
D03*
X1274000Y719520D02*
D03*
X1283000Y718520D02*
D03*
X1555000D02*
D03*
X1260999Y723519D02*
D03*
X1241999Y758519D02*
D03*
X1295000Y609520D02*
D03*
X1235999Y779017D02*
D03*
X1407000Y692520D02*
D03*
X1404000Y667520D02*
D03*
X1416000Y603520D02*
D03*
X1075142Y688520D02*
D03*
X1075000Y676520D02*
D03*
X1086000Y665520D02*
D03*
X1085000Y622520D02*
D03*
X1102000Y643520D02*
D03*
X1091000Y646520D02*
D03*
Y655520D02*
D03*
X1288999Y640519D02*
D03*
X1235000Y637165D02*
D03*
X1147137D02*
D03*
X1415900Y642120D02*
D03*
X1203000Y499520D02*
D03*
X1252000Y495520D02*
D03*
X1260000Y491520D02*
D03*
X1276000Y467520D02*
D03*
X1803000Y743520D02*
D03*
X1809000Y718520D02*
D03*
X1011000Y451520D02*
D03*
X1002000Y304520D02*
D03*
X957000Y310520D02*
D03*
X955000Y383520D02*
D03*
X1135999Y651519D02*
D03*
X1147478Y657520D02*
D03*
X795000Y522520D02*
D03*
X770000Y690520D02*
D03*
X761000D02*
D03*
X752000D02*
D03*
X884141Y563379D02*
D03*
X864000Y589519D02*
D03*
X865000Y597520D02*
D03*
X1051413Y582432D02*
D03*
X1030999Y576519D02*
D03*
X1026999Y564519D02*
D03*
X1112000Y434520D02*
D03*
X1134000Y397520D02*
D03*
X1140000D02*
D03*
X1147000D02*
D03*
X1128000Y412520D02*
D03*
X1140000D02*
D03*
X1134000D02*
D03*
X958000Y400520D02*
D03*
X965000D02*
D03*
Y407520D02*
D03*
X996000Y405520D02*
D03*
Y411520D02*
D03*
X1081753Y360274D02*
D03*
X999097Y431617D02*
D03*
X1089425Y346945D02*
D03*
X990000Y405520D02*
D03*
Y411520D02*
D03*
X958000Y407520D02*
D03*
X936000Y403520D02*
D03*
X926000D02*
D03*
X946000Y445520D02*
D03*
X908000Y477520D02*
D03*
X920000Y418520D02*
D03*
Y449520D02*
D03*
X911000Y405520D02*
D03*
X741000Y548520D02*
D03*
X741000Y557520D02*
D03*
Y565520D02*
D03*
X946000Y524520D02*
D03*
X959000D02*
D03*
X1203000Y437520D02*
D03*
X1182000D02*
D03*
X798000Y628520D02*
D03*
Y621520D02*
D03*
X791000D02*
D03*
Y628520D02*
D03*
X914000Y499520D02*
D03*
X947343Y474863D02*
D03*
X932000Y482520D02*
D03*
X922000D02*
D03*
X1002000Y511934D02*
D03*
X1059000Y510520D02*
D03*
X967800Y652619D02*
D03*
X853000Y608520D02*
D03*
X1056000Y683520D02*
D03*
X1066000Y684520D02*
D03*
Y674520D02*
D03*
X1036000Y746520D02*
D03*
X1024000Y750520D02*
D03*
X1050000Y756520D02*
D03*
X1149000Y735346D02*
D03*
X995000Y731520D02*
D03*
X993000Y723520D02*
D03*
X954000Y479520D02*
D03*
X965000D02*
D03*
X1028000Y451520D02*
D03*
X871000Y436520D02*
D03*
X973236Y664962D02*
D03*
X841000Y633520D02*
D03*
X855000Y635553D02*
D03*
X878000Y640520D02*
D03*
X881000Y628453D02*
D03*
X879000Y649520D02*
D03*
X861655Y623865D02*
D03*
X847000Y625520D02*
D03*
X1064000Y407520D02*
D03*
X1105000D02*
D03*
X1183000Y577520D02*
D03*
X1139999Y568102D02*
D03*
X1131731D02*
D03*
X1076000Y622520D02*
D03*
X1067000Y762520D02*
D03*
X1059000D02*
D03*
X1010000Y731520D02*
D03*
X991000Y746520D02*
D03*
X1022000Y759520D02*
D03*
X873000Y624520D02*
D03*
X990000Y694760D02*
D03*
X873000Y534520D02*
D03*
X1149000Y757520D02*
D03*
X1051000Y511120D02*
D03*
X925000Y517644D02*
D03*
X937000D02*
D03*
X1108819Y457520D02*
D03*
X1099000Y463520D02*
D03*
X1079000Y472421D02*
D03*
X1089000D02*
D03*
X1107000Y470520D02*
D03*
X1199999Y760519D02*
D03*
X1110999Y502519D02*
D03*
X999000Y479520D02*
D03*
X1029000D02*
D03*
X1019850D02*
D03*
X1009000D02*
D03*
X1002000Y467520D02*
D03*
X1190999Y553519D02*
D03*
X1201000Y577520D02*
D03*
Y597520D02*
D03*
X1182000D02*
D03*
Y537520D02*
D03*
X1115000Y337520D02*
D03*
X834000Y622520D02*
D03*
X887999Y582519D02*
D03*
X1072000Y574520D02*
D03*
X1058000Y606851D02*
D03*
X1065920Y613600D02*
D03*
X1195999Y537519D02*
D03*
X1147999Y549519D02*
D03*
X1148000Y561520D02*
D03*
X1138000Y623520D02*
D03*
X1201728Y678248D02*
D03*
X1039000Y694760D02*
D03*
X1045550Y662520D02*
D03*
X1098000Y688520D02*
D03*
X1086000D02*
D03*
X1076000Y666520D02*
D03*
X921757Y650277D02*
D03*
X1040999Y732519D02*
D03*
X1053000Y732520D02*
D03*
X1052000Y744520D02*
D03*
X1118000Y698816D02*
D03*
X1078999Y737519D02*
D03*
X1000000Y694760D02*
D03*
X1018000Y733520D02*
D03*
X991913Y773665D02*
D03*
X992000Y765520D02*
D03*
X878156Y556676D02*
D03*
X968000Y518520D02*
D03*
X967000Y528520D02*
D03*
X1149000Y697520D02*
D03*
X1151000Y677520D02*
D03*
X966558Y670760D02*
D03*
X967000Y643520D02*
D03*
X2050900Y718320D02*
D03*
Y692920D02*
D03*
Y667520D02*
D03*
X1923900Y743720D02*
D03*
Y718320D02*
D03*
Y692920D02*
D03*
Y667520D02*
D03*
X1932000Y591520D02*
D03*
X1796900Y692920D02*
D03*
Y667520D02*
D03*
Y642120D02*
D03*
Y616720D02*
D03*
Y591320D02*
D03*
Y565920D02*
D03*
X1669900Y718320D02*
D03*
Y692920D02*
D03*
Y667520D02*
D03*
Y642120D02*
D03*
Y616720D02*
D03*
Y591320D02*
D03*
Y565920D02*
D03*
X1542900Y692920D02*
D03*
Y667520D02*
D03*
Y642120D02*
D03*
Y591320D02*
D03*
Y565920D02*
D03*
X1415900Y718320D02*
D03*
Y616720D02*
D03*
Y591320D02*
D03*
Y565920D02*
D03*
X1288900Y591320D02*
D03*
Y616720D02*
D03*
Y667520D02*
D03*
Y692920D02*
D03*
Y743720D02*
D03*
X937000Y694760D02*
D03*
X928000Y688520D02*
D03*
X1114000Y317520D02*
D03*
X1078000D02*
D03*
X1203000Y477520D02*
D03*
X1181000D02*
D03*
X1203000Y457520D02*
D03*
X998000Y614520D02*
D03*
X1002000Y457520D02*
D03*
X1139000Y697520D02*
D03*
X935000Y682282D02*
D03*
X970000Y552520D02*
D03*
X962000Y538520D02*
D03*
X944000Y673520D02*
D03*
X1202000Y557520D02*
D03*
X1236000Y657520D02*
D03*
X1235000Y737520D02*
D03*
X1148000Y488520D02*
D03*
X1087000Y588520D02*
D03*
X1073000Y518520D02*
D03*
X1025000Y605520D02*
D03*
X824000Y728520D02*
D03*
X900000Y729520D02*
D03*
X938000Y751520D02*
D03*
X928000Y723520D02*
D03*
X900000Y719520D02*
D03*
X746000Y721520D02*
D03*
X757000D02*
D03*
X769000D02*
D03*
X781000Y637520D02*
D03*
X851000Y528520D02*
D03*
Y570520D02*
D03*
X888000Y548520D02*
D03*
X900000Y477520D02*
D03*
X908000Y483520D02*
D03*
X900000D02*
D03*
X1107041Y723520D02*
D03*
X891000Y504520D02*
D03*
X1098000Y588520D02*
D03*
Y622520D02*
D03*
X877000Y577520D02*
D03*
X886000Y666707D02*
D03*
X869000Y700520D02*
D03*
X932000Y646520D02*
D03*
Y660520D02*
D03*
X900000Y709520D02*
D03*
X840000Y598520D02*
D03*
X919000Y462520D02*
D03*
X884000Y418520D02*
D03*
X966000Y329520D02*
D03*
Y317520D02*
D03*
X888000Y524520D02*
D03*
X841000Y588520D02*
D03*
X1084000Y546520D02*
D03*
X1031000Y517520D02*
D03*
X1037000Y479520D02*
D03*
X934000Y552520D02*
D03*
X925000Y538520D02*
D03*
X1043000Y547520D02*
D03*
X1002000D02*
D03*
X1114000Y357520D02*
D03*
X1091000Y392520D02*
D03*
X1099000D02*
D03*
X741000Y637520D02*
D03*
X815000Y699520D02*
D03*
X910000Y319520D02*
D03*
Y327520D02*
D03*
D85*
X761000Y560520D02*
D03*
D86*
Y671520D02*
D03*
D87*
X822000Y581770D02*
D03*
Y565270D02*
D03*
D88*
Y573520D02*
D03*
M02*
