G04*
G04 #@! TF.GenerationSoftware,Altium Limited,Altium Designer,20.0.2 (26)*
G04*
G04 Layer_Physical_Order=2*
G04 Layer_Color=3707366*
%FSLAX44Y44*%
%MOMM*%
G71*
G01*
G75*
%ADD13C,0.2000*%
%ADD14C,0.6000*%
%ADD126C,1.3720*%
%ADD129C,1.3716*%
%ADD130R,1.3716X1.3716*%
%ADD131R,1.3716X1.3716*%
%ADD133C,1.5240*%
%ADD135C,0.6000*%
%ADD139R,1.5240X1.5240*%
G36*
X3133912Y686162D02*
X3134672Y687299D01*
X3135138Y689640D01*
X3135548Y690140D01*
X3188720D01*
X3188810Y689689D01*
X3189915Y688035D01*
X3191569Y686930D01*
X3193520Y686542D01*
X3257520D01*
Y676850D01*
X3230915Y650245D01*
X3229810Y648591D01*
X3229422Y646640D01*
X3229810Y644689D01*
X3230915Y643035D01*
X3232569Y641930D01*
X3234520Y641542D01*
X3236471Y641930D01*
X3238125Y643035D01*
X3256347Y661257D01*
X3257520Y660771D01*
X3257520Y360298D01*
X3257520D01*
Y350440D01*
Y340582D01*
X3257520D01*
Y335815D01*
X3257520Y335814D01*
Y325040D01*
Y314266D01*
X3257520Y314265D01*
X3257520Y223390D01*
X2571770D01*
X2571770Y286890D01*
X2627693D01*
X2627945Y285620D01*
X2626334Y284953D01*
X2624275Y283372D01*
X2622694Y281313D01*
X2621700Y278914D01*
X2621493Y277340D01*
X2641120D01*
X2640913Y278914D01*
X2639919Y281313D01*
X2638339Y283372D01*
X2636279Y284953D01*
X2634668Y285620D01*
X2634921Y286890D01*
X2664359D01*
X2664612Y285620D01*
X2663001Y284953D01*
X2660941Y283372D01*
X2659361Y281313D01*
X2658367Y278914D01*
X2658160Y277340D01*
X2677787D01*
X2677580Y278914D01*
X2676586Y281313D01*
X2675005Y283372D01*
X2672946Y284953D01*
X2671335Y285620D01*
X2671588Y286890D01*
X2701026D01*
X2701278Y285620D01*
X2699667Y284953D01*
X2697608Y283372D01*
X2696027Y281313D01*
X2695034Y278914D01*
X2694827Y277340D01*
X2714453D01*
X2714246Y278914D01*
X2713253Y281313D01*
X2711672Y283372D01*
X2709612Y284953D01*
X2708002Y285620D01*
X2708254Y286890D01*
X2737692D01*
X2737945Y285620D01*
X2736334Y284953D01*
X2734274Y283372D01*
X2732694Y281313D01*
X2731700Y278914D01*
X2731493Y277340D01*
X2751120D01*
X2750913Y278914D01*
X2749919Y281313D01*
X2748339Y283372D01*
X2746279Y284953D01*
X2744668Y285620D01*
X2744921Y286890D01*
X2774359D01*
X2774612Y285620D01*
X2773001Y284953D01*
X2770941Y283372D01*
X2769361Y281313D01*
X2768367Y278914D01*
X2768160Y277340D01*
X2787787D01*
X2787579Y278914D01*
X2786586Y281313D01*
X2785005Y283372D01*
X2782946Y284953D01*
X2781335Y285620D01*
X2781588Y286890D01*
X2811026D01*
X2811278Y285620D01*
X2809667Y284953D01*
X2807608Y283372D01*
X2806027Y281313D01*
X2805034Y278914D01*
X2804826Y277340D01*
X2824453D01*
X2824246Y278914D01*
X2823253Y281313D01*
X2821672Y283372D01*
X2819612Y284953D01*
X2818001Y285620D01*
X2818254Y286890D01*
X2847692D01*
X2847945Y285620D01*
X2846334Y284953D01*
X2844274Y283372D01*
X2842694Y281313D01*
X2841700Y278914D01*
X2841493Y277340D01*
X2861120D01*
X2860913Y278914D01*
X2859919Y281313D01*
X2858339Y283372D01*
X2856279Y284953D01*
X2854668Y285620D01*
X2854921Y286890D01*
X2884359D01*
X2884612Y285620D01*
X2883000Y284953D01*
X2880941Y283372D01*
X2879360Y281313D01*
X2878367Y278914D01*
X2878160Y277340D01*
X2897787D01*
X2897579Y278914D01*
X2896586Y281313D01*
X2895005Y283372D01*
X2892946Y284953D01*
X2891335Y285620D01*
X2891587Y286890D01*
X2921026D01*
X2921278Y285620D01*
X2919667Y284953D01*
X2917607Y283372D01*
X2916027Y281313D01*
X2915034Y278914D01*
X2914826Y277340D01*
X2934453D01*
X2934246Y278914D01*
X2933252Y281313D01*
X2931672Y283372D01*
X2929612Y284953D01*
X2928001Y285620D01*
X2928254Y286890D01*
X2957692D01*
X2957945Y285620D01*
X2956334Y284953D01*
X2954274Y283372D01*
X2952694Y281313D01*
X2951700Y278914D01*
X2951493Y277340D01*
X2971120D01*
X2970912Y278914D01*
X2969919Y281313D01*
X2968339Y283372D01*
X2966279Y284953D01*
X2964668Y285620D01*
X2964921Y286890D01*
X3099466D01*
X3099963Y285620D01*
X3098868Y283981D01*
X3098402Y281640D01*
X3098868Y279299D01*
X3099628Y278162D01*
X3103813Y282347D01*
X3104520Y281640D01*
X3105227Y282347D01*
X3109412Y278162D01*
X3110172Y279299D01*
X3110638Y281640D01*
X3110172Y283981D01*
X3109077Y285620D01*
X3109575Y286890D01*
X3156020D01*
X3185520Y316390D01*
Y633140D01*
X3086066D01*
X3085412Y634118D01*
X3081227Y629933D01*
X3080520Y630640D01*
X3079813Y629933D01*
X3075628Y634118D01*
X3074974Y633140D01*
X3014770D01*
Y306799D01*
X3013597Y306313D01*
X3013520Y306390D01*
X2970601D01*
X2970040Y307660D01*
X2970912Y309766D01*
X2971120Y311340D01*
X2951493D01*
X2951700Y309766D01*
X2952573Y307660D01*
X2952012Y306390D01*
X2933934D01*
X2933374Y307660D01*
X2934246Y309766D01*
X2934453Y311340D01*
X2914826D01*
X2915034Y309766D01*
X2915906Y307660D01*
X2915345Y306390D01*
X2897267D01*
X2896707Y307660D01*
X2897579Y309766D01*
X2897787Y311340D01*
X2878160D01*
X2878367Y309766D01*
X2879239Y307660D01*
X2878679Y306390D01*
X2860601D01*
X2860040Y307660D01*
X2860913Y309766D01*
X2861120Y311340D01*
X2841493D01*
X2841700Y309766D01*
X2842573Y307660D01*
X2842012Y306390D01*
X2823934D01*
X2823374Y307660D01*
X2824246Y309766D01*
X2824453Y311340D01*
X2804826D01*
X2805034Y309766D01*
X2805906Y307660D01*
X2805345Y306390D01*
X2787268D01*
X2786707Y307660D01*
X2787579Y309766D01*
X2787787Y311340D01*
X2768160D01*
X2768367Y309766D01*
X2769240Y307660D01*
X2768679Y306390D01*
X2750601D01*
X2750040Y307660D01*
X2750913Y309766D01*
X2751120Y311340D01*
X2731493D01*
X2731700Y309766D01*
X2732573Y307660D01*
X2732012Y306390D01*
X2713935D01*
X2713374Y307660D01*
X2714246Y309766D01*
X2714453Y311340D01*
X2694827D01*
X2695034Y309766D01*
X2695906Y307660D01*
X2695345Y306390D01*
X2677268D01*
X2676707Y307660D01*
X2677580Y309766D01*
X2677787Y311340D01*
X2658160D01*
X2658367Y309766D01*
X2659240Y307660D01*
X2658679Y306390D01*
X2640601D01*
X2640041Y307660D01*
X2640913Y309766D01*
X2641120Y311340D01*
X2631307D01*
Y313340D01*
X2641120D01*
X2640913Y314914D01*
X2639919Y317313D01*
X2638339Y319372D01*
X2636279Y320953D01*
X2633881Y321946D01*
X2631307Y322285D01*
X2630520Y322975D01*
Y337705D01*
X2631307Y338395D01*
X2633881Y338734D01*
X2636279Y339727D01*
X2638339Y341308D01*
X2639919Y343368D01*
X2640913Y345766D01*
X2641120Y347340D01*
X2631307D01*
Y349340D01*
X2641120D01*
X2640913Y350914D01*
X2639919Y353312D01*
X2638339Y355372D01*
X2636279Y356953D01*
X2633881Y357946D01*
X2631307Y358285D01*
X2630520Y358975D01*
Y373705D01*
X2631307Y374395D01*
X2633881Y374734D01*
X2636279Y375727D01*
X2638339Y377308D01*
X2639919Y379367D01*
X2640913Y381766D01*
X2641120Y383340D01*
X2631307D01*
Y385340D01*
X2641120D01*
X2640913Y386914D01*
X2639919Y389313D01*
X2638339Y391372D01*
X2636279Y392953D01*
X2633881Y393946D01*
X2631307Y394285D01*
X2630520Y394975D01*
Y409705D01*
X2631307Y410395D01*
X2633881Y410734D01*
X2636279Y411727D01*
X2638339Y413308D01*
X2639919Y415367D01*
X2640913Y417766D01*
X2641120Y419340D01*
X2631307D01*
Y421340D01*
X2641120D01*
X2640913Y422914D01*
X2639919Y425312D01*
X2638339Y427372D01*
X2636279Y428953D01*
X2633881Y429946D01*
X2631307Y430285D01*
X2630520Y430975D01*
Y459520D01*
X2630797Y459763D01*
Y470260D01*
Y480757D01*
X2630520Y481000D01*
Y495520D01*
X2630797Y495763D01*
Y506260D01*
Y516757D01*
X2630520Y517000D01*
Y531520D01*
X2630797Y531763D01*
Y542260D01*
Y552757D01*
X2630520Y553000D01*
Y567520D01*
X2630797Y567763D01*
Y578260D01*
Y588757D01*
X2630520Y589000D01*
Y603520D01*
X2630797Y603763D01*
Y614260D01*
Y624757D01*
X2630520Y625000D01*
Y639520D01*
X2630797Y639762D01*
Y650260D01*
Y660757D01*
X2630520Y661000D01*
Y690140D01*
X3098992Y690140D01*
X3099402Y689640D01*
X3099868Y687299D01*
X3100628Y686162D01*
X3104813Y690347D01*
X3105520Y689640D01*
X3106227Y690347D01*
X3110412Y686162D01*
X3111172Y687299D01*
X3111638Y689640D01*
X3112048Y690140D01*
X3122492D01*
X3122903Y689640D01*
X3123368Y687299D01*
X3124128Y686162D01*
X3128313Y690347D01*
X3129020Y689640D01*
X3129727Y690347D01*
X3133912Y686162D01*
D02*
G37*
G36*
X2323770Y687125D02*
X2323770Y680457D01*
X2322500Y680332D01*
X2322172Y681981D01*
X2321412Y683118D01*
X2317227Y678933D01*
X2316520Y679640D01*
X2315813Y678933D01*
X2311628Y683118D01*
X2310868Y681981D01*
X2310403Y679640D01*
X2310868Y677299D01*
X2311592Y676215D01*
X2311008Y674804D01*
X2310859Y674774D01*
X2310485Y674524D01*
X2272346D01*
X2271175Y674292D01*
X2270183Y673628D01*
X2270183Y673628D01*
X2267327Y670773D01*
X2266124Y671366D01*
X2266424Y673640D01*
X2266011Y676773D01*
X2264802Y679692D01*
X2262879Y682198D01*
X2260372Y684122D01*
X2257453Y685331D01*
X2254320Y685744D01*
X2251187Y685331D01*
X2248268Y684122D01*
X2245762Y682198D01*
X2243838Y679692D01*
X2242629Y676773D01*
X2242216Y673640D01*
X2242629Y670507D01*
X2243838Y667588D01*
X2245229Y665775D01*
X2244702Y664376D01*
X2244568Y664349D01*
X2242914Y663244D01*
X2241809Y661590D01*
X2241421Y659639D01*
X2241809Y657688D01*
X2242914Y656034D01*
X2244568Y654929D01*
X2246519Y654541D01*
X2248470Y654929D01*
X2250124Y656034D01*
X2251229Y657688D01*
X2251617Y659639D01*
X2251419Y660638D01*
X2252487Y661778D01*
X2254320Y661536D01*
X2256594Y661836D01*
X2257187Y660633D01*
X2247691Y651137D01*
X2225720D01*
X2225042Y652407D01*
X2225230Y652689D01*
X2225618Y654640D01*
X2225230Y656591D01*
X2224125Y658245D01*
X2222471Y659350D01*
X2220520Y659738D01*
X2218569Y659350D01*
X2216915Y658245D01*
X2215810Y656591D01*
X2215422Y654640D01*
X2215810Y652689D01*
X2216122Y652222D01*
X2215524Y651102D01*
X2213516D01*
X2212918Y652222D01*
X2213229Y652688D01*
X2213617Y654639D01*
X2213229Y656590D01*
X2212124Y658244D01*
X2210470Y659349D01*
X2208519Y659737D01*
X2206568Y659349D01*
X2204915Y658244D01*
X2203809Y656590D01*
X2203421Y654639D01*
X2203809Y652688D01*
X2204121Y652222D01*
X2203522Y651102D01*
X2194384D01*
X2190490Y654996D01*
X2190618Y655640D01*
X2190230Y657591D01*
X2189125Y659245D01*
X2187471Y660350D01*
X2185520Y660738D01*
X2183569Y660350D01*
X2181915Y659245D01*
X2181436Y658527D01*
X2179730Y658177D01*
X2179471Y658350D01*
X2177520Y658738D01*
X2175569Y658350D01*
X2173915Y657245D01*
X2172810Y655591D01*
X2172624Y654657D01*
X2171246Y654239D01*
X2169683Y655803D01*
X2168690Y656466D01*
X2167520Y656699D01*
X2167520Y656699D01*
X2166490D01*
X2166125Y657245D01*
X2164471Y658350D01*
X2162520Y658738D01*
X2160569Y658350D01*
X2158915Y657245D01*
X2157810Y655591D01*
X2157422Y653640D01*
X2157810Y651689D01*
X2158064Y651309D01*
X2157846Y649867D01*
X2156915Y649245D01*
X2155810Y647591D01*
X2155422Y645640D01*
X2155755Y643965D01*
X2146489Y634699D01*
X2087848D01*
X2087327Y634595D01*
X2086803Y634515D01*
X2086744Y634479D01*
X2086677Y634466D01*
X2086236Y634171D01*
X2085782Y633896D01*
X2038280Y590393D01*
X2038239Y590338D01*
X2038182Y590300D01*
X2037887Y589859D01*
X2037574Y589431D01*
X2037557Y589365D01*
X2037519Y589308D01*
X2037416Y588787D01*
X2037289Y588272D01*
X2037300Y588204D01*
X2037287Y588137D01*
Y570908D01*
X2029182Y562803D01*
X2028519Y561811D01*
X2028514Y561788D01*
X2027933Y561672D01*
X2023227Y556966D01*
X2019042Y552781D01*
X2020179Y552021D01*
X2020443Y551969D01*
X2020318Y550699D01*
X2018490D01*
X2018125Y551245D01*
X2016471Y552350D01*
X2014520Y552738D01*
X2014061Y552647D01*
X2013230Y553689D01*
X2013618Y555640D01*
X2013230Y557591D01*
X2012125Y559245D01*
X2010471Y560350D01*
X2008520Y560738D01*
X2006569Y560350D01*
X2004915Y559245D01*
X2003810Y557591D01*
X2003422Y555640D01*
X2003810Y553689D01*
X2004915Y552035D01*
X2006569Y550930D01*
X2008520Y550542D01*
X2008979Y550633D01*
X2009810Y549591D01*
X2009422Y547640D01*
X2009810Y545689D01*
X2010915Y544035D01*
X2012569Y542930D01*
X2014520Y542542D01*
X2016471Y542930D01*
X2018125Y544035D01*
X2018490Y544581D01*
X2022344D01*
X2022344Y544581D01*
X2023034Y544718D01*
X2024464Y544037D01*
X2024465Y544034D01*
X2025570Y542380D01*
X2027224Y541275D01*
X2029175Y540887D01*
X2031126Y541275D01*
X2032780Y542380D01*
X2033885Y544034D01*
X2035052Y544721D01*
X2035968Y544452D01*
X2036915Y543035D01*
X2038569Y541930D01*
X2040520Y541542D01*
X2042471Y541930D01*
X2042736Y542107D01*
X2043872Y542411D01*
X2044864Y541748D01*
X2046035Y541515D01*
X2046035Y541515D01*
X2055453D01*
X2055453Y541515D01*
X2056624Y541748D01*
X2057616Y542411D01*
X2077368Y562162D01*
X2078031Y563154D01*
X2078263Y564325D01*
X2078263Y564325D01*
Y580935D01*
X2098196Y600868D01*
X2098915Y600797D01*
X2100569Y599692D01*
X2102520Y599304D01*
X2104471Y599692D01*
X2106125Y600797D01*
X2107230Y602451D01*
X2107618Y604402D01*
X2107230Y606353D01*
X2106125Y608007D01*
X2106054Y608726D01*
X2117228Y619900D01*
X2150911D01*
X2151750Y618630D01*
X2151402Y616880D01*
X2151868Y614538D01*
X2152628Y613402D01*
X2156813Y617587D01*
X2157520Y616880D01*
X2158227Y617587D01*
X2162412Y613402D01*
X2162486Y613513D01*
X2163756Y613513D01*
X2163915Y613275D01*
X2165569Y612170D01*
X2167520Y611782D01*
X2169471Y612170D01*
X2171125Y613275D01*
X2172230Y614929D01*
X2172618Y616880D01*
X2172270Y618630D01*
X2172869Y619900D01*
X2199911D01*
X2200751Y618630D01*
X2200403Y616880D01*
X2200868Y614538D01*
X2201628Y613402D01*
X2205813Y617587D01*
X2206520Y616880D01*
X2207227Y617587D01*
X2211678Y613136D01*
X2211758Y613192D01*
X2213412Y612087D01*
X2215363Y611699D01*
X2217314Y612087D01*
X2218968Y613192D01*
X2220073Y614846D01*
X2220461Y616797D01*
X2220096Y618630D01*
X2220148Y618961D01*
X2220650Y619900D01*
X2267495D01*
X2267495Y619900D01*
X2267686Y619938D01*
X2272044D01*
X2272044Y619938D01*
X2273214Y620171D01*
X2274207Y620834D01*
X2281773Y628400D01*
X2295520D01*
Y613968D01*
X2287753D01*
X2287628Y615238D01*
X2287861Y615284D01*
X2288998Y616044D01*
X2285520Y619521D01*
X2282042Y616044D01*
X2283179Y615284D01*
X2283412Y615238D01*
X2283287Y613968D01*
X2269411D01*
X2269125Y614396D01*
X2267471Y615501D01*
X2265520Y615889D01*
X2263569Y615501D01*
X2261915Y614396D01*
X2260810Y612742D01*
X2260422Y610791D01*
X2259761Y609971D01*
X2248881Y609767D01*
X2247760Y610640D01*
X2247372Y612591D01*
X2246267Y614245D01*
X2244613Y615350D01*
X2242662Y615738D01*
X2240711Y615350D01*
X2239057Y614245D01*
X2237952Y612591D01*
X2237711Y611380D01*
X2236342Y610768D01*
X2235471Y611350D01*
X2233520Y611738D01*
X2231569Y611350D01*
X2229915Y610245D01*
X2229352Y609402D01*
X2226957Y609357D01*
X2225471Y610350D01*
X2223520Y610738D01*
X2221569Y610350D01*
X2219915Y609245D01*
X2218810Y607591D01*
X2218422Y605640D01*
X2217287Y604837D01*
X2190236D01*
X2190236Y604837D01*
X2189066Y604604D01*
X2188073Y603941D01*
X2161677Y577545D01*
X2139459D01*
X2138925Y578344D01*
X2137271Y579449D01*
X2135320Y579837D01*
X2133369Y579449D01*
X2131715Y578344D01*
X2130610Y576690D01*
X2130222Y574739D01*
X2130610Y572789D01*
X2131715Y571135D01*
X2131724Y571044D01*
X2123379Y562699D01*
X2118923D01*
X2117752Y562466D01*
X2116760Y561803D01*
X2116760Y561803D01*
X2088656Y533699D01*
X2024490D01*
X2024125Y534245D01*
X2022471Y535350D01*
X2020520Y535738D01*
X2018569Y535350D01*
X2016915Y534245D01*
X2015810Y532591D01*
X2015701Y532043D01*
X2014486Y531674D01*
X2005125Y541035D01*
X2006230Y542689D01*
X2006618Y544640D01*
X2006230Y546591D01*
X2005125Y548245D01*
X2003471Y549350D01*
X2001520Y549738D01*
X1999569Y549350D01*
X1997915Y548245D01*
X1996810Y546591D01*
X1996422Y544640D01*
X1996810Y542689D01*
X1997915Y541035D01*
X1998461Y540670D01*
Y537640D01*
X1998461Y537640D01*
X1998694Y536469D01*
X1999357Y535477D01*
X2007871Y526963D01*
X2007680Y526296D01*
X2007337Y525701D01*
X2005569Y525350D01*
X2003916Y524245D01*
X2002810Y522591D01*
X2002422Y520640D01*
X2002810Y518689D01*
X2003916Y517035D01*
X2005361Y516070D01*
X2005538Y515180D01*
X2005516Y514646D01*
X2004915Y514245D01*
X2003810Y512591D01*
X2003422Y510640D01*
X2003810Y508689D01*
X2004915Y507035D01*
X2006569Y505930D01*
X2008520Y505542D01*
X2010471Y505930D01*
X2012125Y507035D01*
X2013230Y508689D01*
X2013618Y510640D01*
X2013230Y512591D01*
X2012125Y514245D01*
X2010680Y515210D01*
X2010502Y516100D01*
X2010525Y516634D01*
X2011125Y517035D01*
X2012230Y518689D01*
X2012582Y520456D01*
X2013177Y520800D01*
X2013843Y520991D01*
X2016461Y518373D01*
Y515154D01*
X2016461Y515154D01*
X2016694Y513983D01*
X2017357Y512991D01*
X2026871Y503477D01*
X2026871Y503476D01*
X2027864Y502813D01*
X2029034Y502581D01*
X2034005D01*
X2034005Y502581D01*
X2034008Y502581D01*
X2035114D01*
X2035114Y502581D01*
X2036284Y502814D01*
X2037277Y503477D01*
X2048616Y514816D01*
X2159861D01*
X2189765Y484912D01*
X2189809Y484688D01*
X2190914Y483035D01*
X2192568Y481930D01*
X2194519Y481541D01*
X2196470Y481930D01*
X2198124Y483035D01*
X2199197Y484640D01*
X2199520D01*
X2199269Y484891D01*
X2199617Y486639D01*
X2199229Y488590D01*
X2198124Y490244D01*
X2196470Y491349D01*
X2194519Y491737D01*
X2192771Y491390D01*
X2171520Y512640D01*
Y546640D01*
X2212600D01*
X2213405Y545658D01*
X2213402Y545639D01*
X2213867Y543298D01*
X2214627Y542161D01*
X2218812Y546346D01*
X2219519Y545639D01*
X2220226Y546346D01*
X2224411Y542161D01*
X2225171Y543298D01*
X2225637Y545639D01*
X2225633Y545658D01*
X2226439Y546640D01*
X2237525D01*
X2238567Y545370D01*
X2238422Y544640D01*
X2238810Y542689D01*
X2239915Y541035D01*
X2241569Y539930D01*
X2243520Y539542D01*
X2244164Y539670D01*
X2251778Y532056D01*
X2252771Y531393D01*
X2253941Y531160D01*
X2253941Y531160D01*
X2286093D01*
X2297834Y519420D01*
X2297571Y517886D01*
X2297042Y517532D01*
X2301227Y513347D01*
X2299813Y511933D01*
X2295628Y516118D01*
X2294868Y514981D01*
X2294402Y512640D01*
X2294868Y510299D01*
X2296036Y508551D01*
X2295628Y507281D01*
X2292204D01*
X2279683Y519803D01*
X2278690Y520466D01*
X2277520Y520699D01*
X2277520Y520699D01*
X2252787D01*
X2238410Y535076D01*
X2238538Y535720D01*
X2238150Y537671D01*
X2237045Y539324D01*
X2235391Y540430D01*
X2233440Y540818D01*
X2231489Y540430D01*
X2229836Y539324D01*
X2228730Y537671D01*
X2228342Y535720D01*
X2228593Y534458D01*
X2227471Y533681D01*
X2225520Y534069D01*
X2223569Y533681D01*
X2221915Y532576D01*
X2220810Y530922D01*
X2219600Y530489D01*
X2219429Y530487D01*
X2218366Y530699D01*
X2218366Y530699D01*
X2212490D01*
X2212125Y531245D01*
X2210471Y532350D01*
X2208520Y532738D01*
X2206569Y532350D01*
X2204915Y531245D01*
X2203957Y529810D01*
X2202575Y529396D01*
X2202168Y529803D01*
X2201176Y530466D01*
X2200005Y530699D01*
X2200005Y530699D01*
X2196490D01*
X2196125Y531245D01*
X2194471Y532350D01*
X2192520Y532738D01*
X2190569Y532350D01*
X2188915Y531245D01*
X2187810Y529591D01*
X2187422Y527640D01*
X2187810Y525689D01*
X2188915Y524035D01*
X2190569Y522930D01*
X2192520Y522542D01*
Y516498D01*
X2204685Y504333D01*
Y501599D01*
X2204685Y501599D01*
X2204918Y500429D01*
X2205581Y499436D01*
X2216855Y488163D01*
X2216839Y486893D01*
X2196369Y467431D01*
X2166997Y496803D01*
X2166004Y497466D01*
X2165799Y497507D01*
X2165503Y497803D01*
X2164511Y498466D01*
X2163340Y498699D01*
X2163340Y498699D01*
X2057953D01*
X2057512Y499874D01*
X2057529Y499969D01*
X2059124Y501035D01*
X2060229Y502688D01*
X2060618Y504639D01*
X2060229Y506590D01*
X2059124Y508244D01*
X2057471Y509349D01*
X2055520Y509737D01*
X2053569Y509349D01*
X2051915Y508244D01*
X2050810Y506590D01*
X2050422Y504639D01*
X2050633Y503577D01*
X2049437Y503081D01*
X2049412Y503118D01*
X2045227Y498933D01*
X2041042Y494748D01*
X2042179Y493988D01*
X2044520Y493522D01*
X2045215Y493661D01*
X2045841Y492490D01*
X2044049Y490699D01*
X2036490D01*
X2036125Y491245D01*
X2034471Y492350D01*
X2032520Y492738D01*
X2030569Y492350D01*
X2028915Y491245D01*
X2027810Y489591D01*
X2027422Y487640D01*
X2027810Y485689D01*
X2028915Y484035D01*
X2030569Y482930D01*
X2032074Y482631D01*
X2032184Y481714D01*
X2031520Y480738D01*
X2029569Y480350D01*
X2027915Y479245D01*
X2026810Y477591D01*
X2026422Y475640D01*
X2026810Y473689D01*
X2027915Y472035D01*
X2029569Y470930D01*
X2031520Y470542D01*
X2032164Y470670D01*
X2034357Y468477D01*
X2035349Y467814D01*
X2036520Y467581D01*
X2036520Y467581D01*
X2039579D01*
X2040520Y466640D01*
Y461738D01*
X2038569Y461350D01*
X2036915Y460245D01*
X2035810Y458591D01*
X2035422Y456640D01*
X2035810Y454689D01*
X2036915Y453035D01*
X2038569Y451930D01*
X2040520Y451542D01*
X2042471Y451930D01*
X2044125Y453035D01*
X2045230Y454689D01*
X2045618Y456640D01*
X2045490Y457284D01*
X2047628Y459423D01*
X2059479D01*
X2059479Y459423D01*
X2060650Y459655D01*
X2061642Y460319D01*
X2065905Y464581D01*
X2087613D01*
X2088291Y463311D01*
X2087810Y462591D01*
X2087422Y460640D01*
X2087810Y458689D01*
X2088915Y457035D01*
X2090569Y455930D01*
X2092520Y455542D01*
X2094471Y455930D01*
X2096125Y457035D01*
X2097230Y458689D01*
X2097618Y460640D01*
X2097230Y462591D01*
X2096749Y463311D01*
X2097427Y464581D01*
X2123590D01*
X2124189Y463461D01*
X2123868Y462981D01*
X2123403Y460640D01*
X2123868Y458299D01*
X2124628Y457162D01*
X2128813Y461347D01*
X2130227Y459933D01*
X2126042Y455748D01*
X2127179Y454988D01*
X2129520Y454523D01*
X2129581Y454535D01*
X2130345Y453392D01*
X2129810Y452591D01*
X2129658Y451827D01*
X2128485Y451341D01*
X2128471Y451350D01*
X2126520Y451738D01*
X2124569Y451350D01*
X2122915Y450245D01*
X2121810Y448591D01*
X2121422Y446640D01*
X2121810Y444689D01*
X2122915Y443035D01*
X2124569Y441930D01*
X2126520Y441542D01*
X2128471Y441930D01*
X2129524Y442634D01*
X2130667Y441870D01*
X2130422Y440640D01*
X2130810Y438689D01*
X2131209Y438092D01*
X2130530Y436823D01*
X2111182D01*
X2110305Y438092D01*
X2110638Y439764D01*
X2110348Y441218D01*
X2111491Y441982D01*
X2111569Y441930D01*
X2113520Y441542D01*
X2115471Y441930D01*
X2117125Y443035D01*
X2118230Y444689D01*
X2118618Y446640D01*
X2118230Y448591D01*
X2117125Y450245D01*
X2115471Y451350D01*
X2113520Y451738D01*
X2111569Y451350D01*
X2109915Y450245D01*
X2108810Y448591D01*
X2108422Y446640D01*
X2108592Y445787D01*
X2107449Y445023D01*
X2106861Y445416D01*
X2104520Y445881D01*
X2102179Y445416D01*
X2101042Y444656D01*
X2105227Y440471D01*
X2103813Y439057D01*
X2099628Y443242D01*
X2098868Y442105D01*
X2098658Y441047D01*
X2097363D01*
X2097230Y441715D01*
X2096125Y443368D01*
X2094471Y444474D01*
X2092520Y444862D01*
X2090569Y444474D01*
X2088915Y443368D01*
X2087810Y441715D01*
X2087469Y440000D01*
X2086304Y439369D01*
X2076870Y448803D01*
X2075878Y449466D01*
X2074707Y449699D01*
X2074707Y449699D01*
X2059490D01*
X2059125Y450245D01*
X2057471Y451350D01*
X2055520Y451738D01*
X2053569Y451350D01*
X2051915Y450245D01*
X2050810Y448591D01*
X2050422Y446640D01*
X2050810Y444689D01*
X2051915Y443035D01*
X2051520Y442640D01*
X2060799Y433599D01*
X2060182Y432427D01*
X2058520Y432757D01*
X2056179Y432292D01*
X2055042Y431532D01*
X2059227Y427347D01*
X2063412Y423162D01*
X2064172Y424299D01*
X2064638Y426640D01*
X2064281Y428433D01*
X2065450Y429067D01*
X2085990Y409054D01*
X2085915Y408245D01*
X2084810Y406591D01*
X2084422Y404640D01*
X2084810Y402689D01*
X2085915Y401035D01*
X2087569Y399930D01*
X2089520Y399542D01*
X2091471Y399930D01*
X2093125Y401035D01*
X2093756Y401980D01*
X2095284D01*
X2095915Y401035D01*
X2097569Y399930D01*
X2099520Y399542D01*
X2101471Y399930D01*
X2103125Y401035D01*
X2104230Y402689D01*
X2104618Y404640D01*
X2104490Y405284D01*
X2111787Y412581D01*
X2180319D01*
X2185208Y407692D01*
X2185311Y407623D01*
X2185352Y407148D01*
X2185175Y406186D01*
X2183766Y405245D01*
X2183266Y404496D01*
X2181783Y404563D01*
X2181412Y405118D01*
X2177934Y401640D01*
X2181412Y398162D01*
X2181783Y398717D01*
X2183266Y398783D01*
X2183766Y398035D01*
X2185420Y396930D01*
X2187370Y396542D01*
Y394217D01*
X2185915Y393245D01*
X2184810Y391591D01*
X2184422Y389640D01*
X2154704D01*
X2148541Y395803D01*
X2147548Y396466D01*
X2146378Y396699D01*
X2146378Y396699D01*
X2136411D01*
X2136025Y397969D01*
X2136125Y398035D01*
X2137230Y399689D01*
X2137618Y401640D01*
X2137230Y403591D01*
X2136125Y405245D01*
X2134471Y406350D01*
X2132520Y406738D01*
X2130569Y406350D01*
X2128915Y405245D01*
X2127810Y403591D01*
X2127667Y402874D01*
X2126373D01*
X2126230Y403591D01*
X2125125Y405245D01*
X2123471Y406350D01*
X2121520Y406738D01*
X2119569Y406350D01*
X2117915Y405245D01*
X2116810Y403591D01*
X2116447Y401766D01*
X2114863Y402081D01*
X2112912Y401693D01*
X2111258Y400588D01*
X2110153Y398934D01*
X2109765Y396983D01*
X2110153Y395032D01*
X2111258Y393378D01*
X2112912Y392273D01*
X2114863Y391885D01*
X2115769Y392065D01*
X2118340Y389494D01*
X2118340Y389494D01*
X2119333Y388831D01*
X2120503Y388598D01*
X2124236D01*
X2125357Y387477D01*
X2125357Y387477D01*
X2126349Y386814D01*
X2127520Y386581D01*
X2127520Y386581D01*
X2143454D01*
X2169134Y360901D01*
X2169091Y360648D01*
X2167649Y359649D01*
X2166617Y359854D01*
X2164276Y359389D01*
X2163139Y358629D01*
X2167324Y354444D01*
X2171509Y350259D01*
X2172269Y351396D01*
X2172734Y353737D01*
X2172295Y355944D01*
X2172354Y356013D01*
X2173556Y356477D01*
X2173558Y356477D01*
X2174550Y355814D01*
X2175721Y355581D01*
X2175721Y355581D01*
X2265834D01*
X2265834Y355581D01*
X2267004Y355814D01*
X2267997Y356477D01*
X2270107Y358588D01*
X2274061D01*
X2274754Y357318D01*
X2274422Y355647D01*
X2274810Y353696D01*
X2275915Y352042D01*
X2277569Y350937D01*
X2279520Y350549D01*
X2281471Y350937D01*
X2283125Y352042D01*
X2284230Y353696D01*
X2284618Y355647D01*
X2284230Y357598D01*
X2283640Y358481D01*
X2283125Y359252D01*
X2283765Y360351D01*
X2309996Y386581D01*
X2319520D01*
X2320690Y386814D01*
X2321683Y387477D01*
X2322346Y388470D01*
X2322579Y389640D01*
X2347005D01*
X2349859Y386786D01*
X2349234Y385616D01*
X2348520Y385757D01*
X2346179Y385292D01*
X2345042Y384532D01*
X2349227Y380347D01*
X2353412Y376162D01*
X2354172Y377299D01*
X2354638Y379640D01*
X2354343Y381120D01*
X2355310Y382390D01*
X2363730D01*
X2364697Y381120D01*
X2364402Y379640D01*
X2364868Y377299D01*
X2365628Y376162D01*
X2369813Y380347D01*
X2371227Y378933D01*
X2367042Y374748D01*
X2368179Y373988D01*
X2370520Y373522D01*
X2372861Y373988D01*
X2373250Y374248D01*
X2374520Y373672D01*
X2374520Y369640D01*
X2316520D01*
X2279520Y332640D01*
Y331714D01*
X2278250Y331589D01*
X2278172Y331981D01*
X2277412Y333118D01*
X2273227Y328933D01*
X2269042Y324748D01*
X2270179Y323988D01*
X2270572Y323910D01*
X2270447Y322640D01*
X2216520D01*
X2194520Y344640D01*
X2164520D01*
X2161631Y347529D01*
X2140738Y370640D01*
X2117529D01*
X2117125Y371245D01*
X2115471Y372350D01*
X2113520Y372738D01*
X2111569Y372350D01*
X2109915Y371245D01*
X2109511Y370640D01*
X2093420D01*
X2092614Y371622D01*
X2092618Y371640D01*
X2092230Y373591D01*
X2091125Y375245D01*
X2089471Y376350D01*
X2087520Y376738D01*
X2085569Y376350D01*
X2083915Y375245D01*
X2083406Y374483D01*
X2081771Y374322D01*
X2007520Y448640D01*
X2007520Y497640D01*
X1981520Y523640D01*
Y583640D01*
X2066520Y668640D01*
X2103147Y669212D01*
X2103569Y668930D01*
X2105520Y668542D01*
X2107471Y668930D01*
X2108007Y669288D01*
X2152682Y669986D01*
X2153496Y669011D01*
X2153422Y668640D01*
X2153810Y666689D01*
X2154915Y665035D01*
X2156569Y663930D01*
X2158520Y663542D01*
X2160471Y663930D01*
X2162125Y665035D01*
X2163182Y666618D01*
X2163251Y666692D01*
X2164567Y666899D01*
X2165961Y665081D01*
X2168468Y663158D01*
X2171387Y661949D01*
X2174520Y661536D01*
X2177653Y661949D01*
X2180572Y663158D01*
X2183078Y665081D01*
X2185002Y667588D01*
X2185902Y669762D01*
X2187335Y669903D01*
X2187915Y669035D01*
X2189569Y667930D01*
X2191520Y667542D01*
X2193471Y667930D01*
X2195125Y669035D01*
X2196230Y670689D01*
X2196575Y672423D01*
X2199764Y675190D01*
X2200725Y674343D01*
X2200694Y674296D01*
X2200461Y673125D01*
X2200461Y673125D01*
Y672610D01*
X2199915Y672245D01*
X2198810Y670591D01*
X2198422Y668640D01*
X2198810Y666689D01*
X2199915Y665035D01*
X2201569Y663930D01*
X2203520Y663542D01*
X2205471Y663930D01*
X2207125Y665035D01*
X2208230Y666689D01*
X2208618Y668640D01*
X2208230Y670591D01*
X2207125Y672245D01*
X2207110Y672390D01*
X2211580Y676859D01*
X2212968Y676452D01*
X2213915Y675035D01*
X2215569Y673930D01*
X2217520Y673542D01*
X2219471Y673930D01*
X2221125Y675035D01*
X2222230Y676689D01*
X2222618Y678640D01*
X2222373Y679870D01*
X2223516Y680634D01*
X2224569Y679930D01*
X2226520Y679542D01*
X2228471Y679930D01*
X2229615Y680695D01*
X2230520Y680932D01*
X2231425Y680695D01*
X2232569Y679930D01*
X2234520Y679542D01*
X2236471Y679930D01*
X2238125Y681035D01*
X2239230Y682689D01*
X2239618Y684640D01*
X2239376Y685855D01*
X2240284Y687125D01*
X2323770Y687125D01*
D02*
G37*
G36*
X3181020Y323640D02*
X3180520D01*
X3155020Y298140D01*
X3020270D01*
Y312451D01*
X3021390Y313050D01*
X3021569Y312930D01*
X3023520Y312542D01*
X3025471Y312930D01*
X3027125Y314035D01*
X3028230Y315689D01*
X3028618Y317640D01*
X3028230Y319591D01*
X3027125Y321245D01*
X3025471Y322350D01*
X3023520Y322738D01*
X3021569Y322350D01*
X3021390Y322230D01*
X3020270Y322829D01*
Y498208D01*
X3021540Y499076D01*
X3022840Y498817D01*
X3024791Y499205D01*
X3026445Y500310D01*
X3027550Y501964D01*
X3027938Y503915D01*
X3027550Y505866D01*
X3026445Y507520D01*
X3024791Y508625D01*
X3022840Y509013D01*
X3021540Y508754D01*
X3020270Y509622D01*
Y538719D01*
X3021540Y539737D01*
X3022520Y539542D01*
X3024471Y539930D01*
X3026125Y541035D01*
X3027230Y542689D01*
X3027618Y544640D01*
X3027230Y546591D01*
X3026125Y548245D01*
X3024471Y549350D01*
X3022520Y549738D01*
X3021540Y549543D01*
X3020270Y550561D01*
Y628140D01*
X3020684Y629140D01*
X3075721D01*
X3075810Y628689D01*
X3076915Y627035D01*
X3078569Y625930D01*
X3080520Y625542D01*
X3082471Y625930D01*
X3084125Y627035D01*
X3085230Y628689D01*
X3085320Y629140D01*
X3181020D01*
Y323640D01*
D02*
G37*
G36*
X2164257Y340906D02*
X2163631Y339735D01*
X2163520Y339757D01*
X2161179Y339292D01*
X2160520Y338852D01*
X2159861Y339292D01*
X2157520Y339757D01*
X2155179Y339292D01*
X2154042Y338532D01*
X2158227Y334347D01*
X2156813Y332933D01*
X2152628Y337118D01*
X2151868Y335981D01*
X2151402Y333640D01*
X2151868Y331299D01*
X2152308Y330640D01*
X2151868Y329981D01*
X2151402Y327640D01*
X2151868Y325299D01*
X2152628Y324162D01*
X2156813Y328347D01*
X2158227Y326933D01*
X2154042Y322748D01*
X2155179Y321988D01*
X2157520Y321522D01*
X2159861Y321988D01*
X2160520Y322428D01*
X2161179Y321988D01*
X2163520Y321522D01*
X2165861Y321988D01*
X2166998Y322748D01*
X2162813Y326933D01*
X2164227Y328347D01*
X2168412Y324162D01*
X2169172Y325299D01*
X2169637Y327640D01*
X2169172Y329981D01*
X2168732Y330640D01*
X2169172Y331299D01*
X2169637Y333640D01*
X2169615Y333751D01*
X2170786Y334377D01*
X2181635Y323528D01*
X2190800Y314362D01*
X2253299Y314789D01*
X2253422Y314640D01*
X2253810Y312689D01*
X2254915Y311035D01*
X2256569Y309930D01*
X2258520Y309542D01*
X2260471Y309930D01*
X2261615Y310695D01*
X2262520Y310932D01*
X2263425Y310695D01*
X2264569Y309930D01*
X2266520Y309542D01*
X2268471Y309930D01*
X2270125Y311035D01*
X2271230Y312689D01*
X2271618Y314640D01*
X2271842Y314915D01*
X2275623Y314941D01*
X2286866Y327714D01*
X2286866Y337103D01*
X2292404Y342640D01*
X2309758Y342640D01*
X2312024Y340374D01*
X2311214Y339388D01*
X2309861Y340292D01*
X2307520Y340757D01*
X2305179Y340292D01*
X2304520Y339852D01*
X2303861Y340292D01*
X2301520Y340757D01*
X2299179Y340292D01*
X2298520Y339852D01*
X2297861Y340292D01*
X2295520Y340757D01*
X2293179Y340292D01*
X2292042Y339532D01*
X2296227Y335347D01*
X2295520Y334640D01*
X2296227Y333933D01*
X2292042Y329748D01*
X2293179Y328988D01*
X2295520Y328522D01*
X2297861Y328988D01*
X2297927Y329032D01*
X2298241Y328843D01*
X2298265Y327349D01*
X2294992Y323752D01*
X2294949Y323759D01*
X2294685Y323831D01*
X2294559Y323816D01*
X2294433Y323834D01*
X2294168Y323767D01*
X2293896Y323733D01*
X2293785Y323671D01*
X2293662Y323640D01*
X2293442Y323476D01*
X2293204Y323341D01*
X2293125Y323241D01*
X2293024Y323165D01*
X2275385Y303640D01*
X2169520Y303640D01*
X2145867Y327294D01*
X2145867Y336531D01*
X2153638Y344303D01*
X2160860D01*
X2164257Y340906D01*
D02*
G37*
G36*
X1920520Y486737D02*
X1920265Y486120D01*
X1919938Y483640D01*
X1920265Y481160D01*
X1920520Y480543D01*
Y472640D01*
X1975520D01*
X2003520Y444640D01*
X2087520Y360640D01*
X2121520Y360640D01*
X2139520Y342640D01*
Y331713D01*
X2138250Y331588D01*
X2138172Y331981D01*
X2137412Y333118D01*
X2133227Y328933D01*
X2131813Y330347D01*
X2135998Y334532D01*
X2134861Y335292D01*
X2132520Y335757D01*
X2130179Y335292D01*
X2129020Y334518D01*
X2127861Y335292D01*
X2125520Y335757D01*
X2123179Y335292D01*
X2122042Y334532D01*
X2126227Y330347D01*
X2124813Y328933D01*
X2120628Y333118D01*
X2119868Y331981D01*
X2119402Y329640D01*
X2119868Y327299D01*
X2120643Y326140D01*
X2119868Y324981D01*
X2119402Y322640D01*
X2119868Y320299D01*
X2120628Y319162D01*
X2124813Y323347D01*
X2126227Y321933D01*
X2122042Y317748D01*
X2123179Y316988D01*
X2125520Y316523D01*
X2127861Y316988D01*
X2129020Y317763D01*
X2130179Y316988D01*
X2132520Y316523D01*
X2134861Y316988D01*
X2135998Y317748D01*
X2131813Y321933D01*
X2133227Y323347D01*
X2137412Y319162D01*
X2138172Y320299D01*
X2138250Y320692D01*
X2139520Y320567D01*
Y312640D01*
X2118520D01*
X2107520Y331640D01*
X2089520D01*
X2086762Y334398D01*
X2087388Y335568D01*
X2087520Y335542D01*
X2089471Y335930D01*
X2091125Y337035D01*
X2092230Y338689D01*
X2092618Y340640D01*
X2092230Y342591D01*
X2091125Y344245D01*
X2089471Y345350D01*
X2087520Y345738D01*
X2085569Y345350D01*
X2083915Y344245D01*
X2082810Y342591D01*
X2082422Y340640D01*
X2082448Y340508D01*
X2081278Y339882D01*
X2021378Y399782D01*
Y403498D01*
X2017662D01*
X1965943Y455217D01*
X1904943D01*
X1895520Y464640D01*
Y495640D01*
X1920520D01*
Y486737D01*
D02*
G37*
G36*
X2618520Y621761D02*
X2567520D01*
X2567520Y443590D01*
X2618520D01*
Y413920D01*
X2558020Y353420D01*
Y303890D01*
X2509238Y303890D01*
X2508342Y304790D01*
X2508342Y639738D01*
X2534958Y666355D01*
X2618520Y666355D01*
X2618520Y621761D01*
D02*
G37*
G36*
X1976520Y528640D02*
X1940520D01*
X1915520Y503640D01*
X1892520D01*
Y463640D01*
X1914520Y441640D01*
X1945520D01*
X1982489Y404671D01*
X1982003Y403498D01*
X1977662D01*
Y385782D01*
X1995378D01*
Y390123D01*
X1996551Y390609D01*
X2006202Y380958D01*
X2004783Y379107D01*
X2003890Y376952D01*
X2003586Y374640D01*
X2003890Y372328D01*
X2004783Y370173D01*
X2006202Y368322D01*
X2008053Y366903D01*
X2010208Y366010D01*
X2012520Y365706D01*
X2014832Y366010D01*
X2016987Y366903D01*
X2018838Y368322D01*
X2087520Y299640D01*
X2274520D01*
X2294537Y321798D01*
X2295714Y321206D01*
X2295403Y319640D01*
X2295868Y317299D01*
X2296628Y316162D01*
X2300813Y320347D01*
X2302227Y318933D01*
X2298042Y314748D01*
X2299179Y313988D01*
X2301520Y313522D01*
X2303861Y313988D01*
X2304520Y314428D01*
X2305179Y313988D01*
X2307520Y313522D01*
X2309861Y313988D01*
X2311020Y314762D01*
X2312179Y313988D01*
X2314520Y313522D01*
X2316861Y313988D01*
X2317998Y314748D01*
X2313813Y318933D01*
X2315227Y320347D01*
X2319412Y316162D01*
X2320172Y317299D01*
X2320638Y319640D01*
X2320172Y321981D01*
X2319812Y322520D01*
X2320410Y323640D01*
X2325520D01*
X2325520Y268640D01*
X2262392D01*
X2262043Y269065D01*
X2261655Y271016D01*
X2260550Y272670D01*
X2258896Y273775D01*
X2256945Y274163D01*
X2254994Y273775D01*
X2253340Y272670D01*
X2252235Y271016D01*
X2251847Y269065D01*
X2251498Y268640D01*
X2045520D01*
X1994862Y319298D01*
X1994957Y319423D01*
X1995850Y321578D01*
X1996154Y323890D01*
X1995850Y326202D01*
X1994957Y328357D01*
X1993538Y330208D01*
X1991687Y331628D01*
X1989532Y332520D01*
X1987220Y332824D01*
X1984908Y332520D01*
X1982753Y331628D01*
X1982628Y331532D01*
X1969462Y344698D01*
X1969557Y344823D01*
X1970450Y346978D01*
X1970754Y349290D01*
X1970450Y351602D01*
X1969557Y353757D01*
X1968138Y355608D01*
X1966287Y357028D01*
X1964132Y357920D01*
X1961820Y358224D01*
X1959508Y357920D01*
X1957353Y357028D01*
X1957228Y356932D01*
X1868520Y445640D01*
X1868520Y508640D01*
X1927520Y567640D01*
X1976520D01*
Y528640D01*
D02*
G37*
G36*
X1898890Y298810D02*
X1935720Y261980D01*
X2276659D01*
X2277635Y260710D01*
X2277422Y259640D01*
X2277810Y257689D01*
X2278915Y256035D01*
X2280569Y254930D01*
X2282520Y254542D01*
X2284471Y254930D01*
X2286125Y256035D01*
X2287230Y257689D01*
X2287618Y259640D01*
X2287405Y260710D01*
X2288381Y261980D01*
X2297670D01*
X2323070Y236580D01*
Y218800D01*
X2316577D01*
X2315888Y219640D01*
X2315422Y221981D01*
X2314662Y223118D01*
X2310477Y218933D01*
X2309770Y219640D01*
X2309063Y218933D01*
X2304878Y223118D01*
X2304118Y221981D01*
X2303652Y219640D01*
X2302963Y218800D01*
X2293327D01*
X2292638Y219640D01*
X2292172Y221981D01*
X2291412Y223118D01*
X2287227Y218933D01*
X2286520Y219640D01*
X2285813Y218933D01*
X2281628Y223118D01*
X2280868Y221981D01*
X2280403Y219640D01*
X2279713Y218800D01*
X1869680D01*
Y361040D01*
X1898890D01*
Y298810D01*
D02*
G37*
%LPC*%
G36*
X3129020Y688226D02*
X3125542Y684748D01*
X3126679Y683988D01*
X3129020Y683522D01*
X3131361Y683988D01*
X3132498Y684748D01*
X3129020Y688226D01*
D02*
G37*
G36*
X3105520D02*
X3102042Y684748D01*
X3103179Y683988D01*
X3105520Y683522D01*
X3107861Y683988D01*
X3108998Y684748D01*
X3105520Y688226D01*
D02*
G37*
G36*
X2816463Y660073D02*
Y651260D01*
X2825277D01*
X2825070Y652834D01*
X2824076Y655232D01*
X2822496Y657292D01*
X2820436Y658873D01*
X2818037Y659866D01*
X2816463Y660073D01*
D02*
G37*
G36*
X2814464D02*
X2812889Y659866D01*
X2810491Y658873D01*
X2808431Y657292D01*
X2806851Y655232D01*
X2805857Y652834D01*
X2805650Y651260D01*
X2814464D01*
Y660073D01*
D02*
G37*
G36*
X2962797Y660073D02*
Y651260D01*
X2971610D01*
X2971403Y652834D01*
X2970409Y655232D01*
X2968829Y657292D01*
X2966769Y658873D01*
X2964370Y659866D01*
X2962797Y660073D01*
D02*
G37*
G36*
X2960797D02*
X2959222Y659866D01*
X2956824Y658873D01*
X2954764Y657292D01*
X2953184Y655232D01*
X2952190Y652834D01*
X2951983Y651260D01*
X2960797D01*
Y660073D01*
D02*
G37*
G36*
X2926130D02*
Y651260D01*
X2934943D01*
X2934736Y652834D01*
X2933742Y655232D01*
X2932162Y657292D01*
X2930103Y658873D01*
X2927704Y659866D01*
X2926130Y660073D01*
D02*
G37*
G36*
X2924130D02*
X2922556Y659866D01*
X2920157Y658873D01*
X2918098Y657292D01*
X2916517Y655232D01*
X2915524Y652834D01*
X2915316Y651260D01*
X2924130D01*
Y660073D01*
D02*
G37*
G36*
X2779464D02*
Y651260D01*
X2788277D01*
X2788069Y652834D01*
X2787076Y655232D01*
X2785496Y657292D01*
X2783436Y658873D01*
X2781037Y659866D01*
X2779464Y660073D01*
D02*
G37*
G36*
X2777463D02*
X2775889Y659866D01*
X2773491Y658873D01*
X2771431Y657292D01*
X2769851Y655232D01*
X2768857Y652834D01*
X2768650Y651260D01*
X2777463D01*
Y660073D01*
D02*
G37*
G36*
X2742797D02*
Y651260D01*
X2751610D01*
X2751403Y652834D01*
X2750410Y655232D01*
X2748829Y657292D01*
X2746769Y658873D01*
X2744371Y659866D01*
X2742797Y660073D01*
D02*
G37*
G36*
X2740797D02*
X2739223Y659866D01*
X2736824Y658873D01*
X2734764Y657292D01*
X2733184Y655232D01*
X2732191Y652834D01*
X2731983Y651260D01*
X2740797D01*
Y660073D01*
D02*
G37*
G36*
X2706130D02*
Y651260D01*
X2714944D01*
X2714736Y652834D01*
X2713743Y655232D01*
X2712162Y657292D01*
X2710103Y658873D01*
X2707704Y659866D01*
X2706130Y660073D01*
D02*
G37*
G36*
X2704130D02*
X2702556Y659866D01*
X2700157Y658873D01*
X2698098Y657292D01*
X2696517Y655232D01*
X2695524Y652834D01*
X2695317Y651260D01*
X2704130D01*
Y660073D01*
D02*
G37*
G36*
X2669464D02*
Y651260D01*
X2678277D01*
X2678070Y652834D01*
X2677076Y655232D01*
X2675496Y657292D01*
X2673436Y658873D01*
X2671037Y659866D01*
X2669464Y660073D01*
D02*
G37*
G36*
X2667463D02*
X2665890Y659866D01*
X2663491Y658873D01*
X2661431Y657292D01*
X2659851Y655232D01*
X2658857Y652834D01*
X2658650Y651260D01*
X2667463D01*
Y660073D01*
D02*
G37*
G36*
X2632797D02*
Y651260D01*
X2641610D01*
X2641403Y652834D01*
X2640410Y655232D01*
X2638829Y657292D01*
X2636769Y658873D01*
X2634371Y659866D01*
X2632797Y660073D01*
D02*
G37*
G36*
X2825277Y649260D02*
X2816463D01*
Y640446D01*
X2818037Y640654D01*
X2820436Y641647D01*
X2822496Y643228D01*
X2824076Y645287D01*
X2825070Y647686D01*
X2825277Y649260D01*
D02*
G37*
G36*
X2814464D02*
X2805650D01*
X2805857Y647686D01*
X2806851Y645287D01*
X2808431Y643228D01*
X2810491Y641647D01*
X2812889Y640654D01*
X2814464Y640446D01*
Y649260D01*
D02*
G37*
G36*
X2971610Y649260D02*
X2962797D01*
Y640446D01*
X2964370Y640654D01*
X2966769Y641647D01*
X2968829Y643228D01*
X2970409Y645287D01*
X2971403Y647686D01*
X2971610Y649260D01*
D02*
G37*
G36*
X2960797D02*
X2951983D01*
X2952190Y647686D01*
X2953184Y645287D01*
X2954764Y643228D01*
X2956824Y641647D01*
X2959222Y640654D01*
X2960797Y640446D01*
Y649260D01*
D02*
G37*
G36*
X2934943D02*
X2926130D01*
Y640446D01*
X2927704Y640654D01*
X2930103Y641647D01*
X2932162Y643228D01*
X2933742Y645287D01*
X2934736Y647686D01*
X2934943Y649260D01*
D02*
G37*
G36*
X2924130D02*
X2915316D01*
X2915524Y647686D01*
X2916517Y645287D01*
X2918098Y643228D01*
X2920157Y641647D01*
X2922556Y640654D01*
X2924130Y640446D01*
Y649260D01*
D02*
G37*
G36*
X2788277D02*
X2779464D01*
Y640446D01*
X2781037Y640654D01*
X2783436Y641647D01*
X2785496Y643228D01*
X2787076Y645287D01*
X2788069Y647686D01*
X2788277Y649260D01*
D02*
G37*
G36*
X2777463D02*
X2768650D01*
X2768857Y647686D01*
X2769851Y645287D01*
X2771431Y643228D01*
X2773491Y641647D01*
X2775889Y640654D01*
X2777463Y640446D01*
Y649260D01*
D02*
G37*
G36*
X2751610D02*
X2742797D01*
Y640446D01*
X2744371Y640654D01*
X2746769Y641647D01*
X2748829Y643228D01*
X2750410Y645287D01*
X2751403Y647686D01*
X2751610Y649260D01*
D02*
G37*
G36*
X2740797D02*
X2731983D01*
X2732191Y647686D01*
X2733184Y645287D01*
X2734764Y643228D01*
X2736824Y641647D01*
X2739223Y640654D01*
X2740797Y640446D01*
Y649260D01*
D02*
G37*
G36*
X2714944D02*
X2706130D01*
Y640446D01*
X2707704Y640654D01*
X2710103Y641647D01*
X2712162Y643228D01*
X2713743Y645287D01*
X2714736Y647686D01*
X2714944Y649260D01*
D02*
G37*
G36*
X2704130D02*
X2695317D01*
X2695524Y647686D01*
X2696517Y645287D01*
X2698098Y643228D01*
X2700157Y641647D01*
X2702556Y640654D01*
X2704130Y640446D01*
Y649260D01*
D02*
G37*
G36*
X2678277D02*
X2669464D01*
Y640446D01*
X2671037Y640654D01*
X2673436Y641647D01*
X2675496Y643228D01*
X2677076Y645287D01*
X2678070Y647686D01*
X2678277Y649260D01*
D02*
G37*
G36*
X2667463D02*
X2658650D01*
X2658857Y647686D01*
X2659851Y645287D01*
X2661431Y643228D01*
X2663491Y641647D01*
X2665890Y640654D01*
X2667463Y640446D01*
Y649260D01*
D02*
G37*
G36*
X2641610D02*
X2632797D01*
Y640446D01*
X2634371Y640654D01*
X2636769Y641647D01*
X2638829Y643228D01*
X2640410Y645287D01*
X2641403Y647686D01*
X2641610Y649260D01*
D02*
G37*
G36*
X2996797Y662364D02*
X2993664Y661951D01*
X2990745Y660742D01*
X2988238Y658819D01*
X2986315Y656312D01*
X2985106Y653393D01*
X2984693Y650260D01*
X2985106Y647127D01*
X2986315Y644208D01*
X2988238Y641702D01*
X2990745Y639778D01*
X2993664Y638569D01*
X2996797Y638156D01*
X2999930Y638569D01*
X3002849Y639778D01*
X3005355Y641702D01*
X3007279Y644208D01*
X3008488Y647127D01*
X3008900Y650260D01*
X3008488Y653393D01*
X3007279Y656312D01*
X3005355Y658819D01*
X3002849Y660742D01*
X2999930Y661951D01*
X2996797Y662364D01*
D02*
G37*
G36*
X2871797Y639963D02*
X2869285Y639632D01*
X2866945Y638663D01*
X2864936Y637121D01*
X2863394Y635112D01*
X2862424Y632771D01*
X2861169D01*
X2860200Y635112D01*
X2858658Y637121D01*
X2856648Y638663D01*
X2854308Y639632D01*
X2851797Y639963D01*
X2849285Y639632D01*
X2846945Y638663D01*
X2844936Y637121D01*
X2843394Y635112D01*
X2842424Y632771D01*
X2842094Y630260D01*
X2842424Y627749D01*
X2843394Y625409D01*
X2844936Y623399D01*
X2846945Y621857D01*
X2849285Y620888D01*
X2851797Y620557D01*
X2854308Y620888D01*
X2856648Y621857D01*
X2858658Y623399D01*
X2860200Y625409D01*
X2861169Y627749D01*
X2862424D01*
X2863394Y625409D01*
X2864936Y623399D01*
X2866945Y621857D01*
X2869285Y620888D01*
X2871797Y620557D01*
X2874308Y620888D01*
X2876648Y621857D01*
X2878658Y623399D01*
X2880200Y625409D01*
X2881169Y627749D01*
X2881500Y630260D01*
X2881169Y632771D01*
X2880200Y635112D01*
X2878658Y637121D01*
X2876648Y638663D01*
X2874308Y639632D01*
X2871797Y639963D01*
D02*
G37*
G36*
X3080520Y636758D02*
X3078179Y636292D01*
X3077042Y635532D01*
X3080520Y632054D01*
X3083998Y635532D01*
X3082861Y636292D01*
X3080520Y636758D01*
D02*
G37*
G36*
X2962797Y624073D02*
Y615260D01*
X2971610D01*
X2971403Y616834D01*
X2970409Y619232D01*
X2968829Y621292D01*
X2966769Y622873D01*
X2964370Y623866D01*
X2962797Y624073D01*
D02*
G37*
G36*
X2960797D02*
X2959222Y623866D01*
X2956824Y622873D01*
X2954764Y621292D01*
X2953184Y619232D01*
X2952190Y616834D01*
X2951983Y615260D01*
X2960797D01*
Y624073D01*
D02*
G37*
G36*
X2926130D02*
Y615260D01*
X2934943D01*
X2934736Y616834D01*
X2933742Y619232D01*
X2932162Y621292D01*
X2930103Y622873D01*
X2927704Y623866D01*
X2926130Y624073D01*
D02*
G37*
G36*
X2924130D02*
X2922556Y623866D01*
X2920157Y622873D01*
X2918098Y621292D01*
X2916517Y619232D01*
X2915524Y616834D01*
X2915316Y615260D01*
X2924130D01*
Y624073D01*
D02*
G37*
G36*
X2779464D02*
Y615260D01*
X2788277D01*
X2788069Y616834D01*
X2787076Y619232D01*
X2785496Y621292D01*
X2783436Y622873D01*
X2781037Y623866D01*
X2779464Y624073D01*
D02*
G37*
G36*
X2777463D02*
X2775889Y623866D01*
X2773491Y622873D01*
X2771431Y621292D01*
X2769851Y619232D01*
X2768857Y616834D01*
X2768650Y615260D01*
X2777463D01*
Y624073D01*
D02*
G37*
G36*
X2742797D02*
Y615260D01*
X2751610D01*
X2751403Y616834D01*
X2750410Y619232D01*
X2748829Y621292D01*
X2746769Y622873D01*
X2744371Y623866D01*
X2742797Y624073D01*
D02*
G37*
G36*
X2740797D02*
X2739223Y623866D01*
X2736824Y622873D01*
X2734764Y621292D01*
X2733184Y619232D01*
X2732191Y616834D01*
X2731983Y615260D01*
X2740797D01*
Y624073D01*
D02*
G37*
G36*
X2706130D02*
Y615260D01*
X2714944D01*
X2714736Y616834D01*
X2713743Y619232D01*
X2712162Y621292D01*
X2710103Y622873D01*
X2707704Y623866D01*
X2706130Y624073D01*
D02*
G37*
G36*
X2704130D02*
X2702556Y623866D01*
X2700157Y622873D01*
X2698098Y621292D01*
X2696517Y619232D01*
X2695524Y616834D01*
X2695317Y615260D01*
X2704130D01*
Y624073D01*
D02*
G37*
G36*
X2669464D02*
Y615260D01*
X2678277D01*
X2678070Y616834D01*
X2677076Y619232D01*
X2675496Y621292D01*
X2673436Y622873D01*
X2671037Y623866D01*
X2669464Y624073D01*
D02*
G37*
G36*
X2667463D02*
X2665890Y623866D01*
X2663491Y622873D01*
X2661431Y621292D01*
X2659851Y619232D01*
X2658857Y616834D01*
X2658650Y615260D01*
X2667463D01*
Y624073D01*
D02*
G37*
G36*
X2632797D02*
Y615260D01*
X2641610D01*
X2641403Y616834D01*
X2640410Y619232D01*
X2638829Y621292D01*
X2636769Y622873D01*
X2634371Y623866D01*
X2632797Y624073D01*
D02*
G37*
G36*
X2816463Y623073D02*
Y614260D01*
X2825277D01*
X2825070Y615834D01*
X2824076Y618232D01*
X2822496Y620292D01*
X2820436Y621873D01*
X2818037Y622866D01*
X2816463Y623073D01*
D02*
G37*
G36*
X2814464D02*
X2812889Y622866D01*
X2810491Y621873D01*
X2808431Y620292D01*
X2806851Y618232D01*
X2805857Y615834D01*
X2805650Y614260D01*
X2814464D01*
Y623073D01*
D02*
G37*
G36*
X2971610Y613260D02*
X2962797D01*
Y604446D01*
X2964370Y604654D01*
X2966769Y605647D01*
X2968829Y607228D01*
X2970409Y609287D01*
X2971403Y611686D01*
X2971610Y613260D01*
D02*
G37*
G36*
X2960797D02*
X2951983D01*
X2952190Y611686D01*
X2953184Y609287D01*
X2954764Y607228D01*
X2956824Y605647D01*
X2959222Y604654D01*
X2960797Y604446D01*
Y613260D01*
D02*
G37*
G36*
X2934943D02*
X2926130D01*
Y604446D01*
X2927704Y604654D01*
X2930103Y605647D01*
X2932162Y607228D01*
X2933742Y609287D01*
X2934736Y611686D01*
X2934943Y613260D01*
D02*
G37*
G36*
X2924130D02*
X2915316D01*
X2915524Y611686D01*
X2916517Y609287D01*
X2918098Y607228D01*
X2920157Y605647D01*
X2922556Y604654D01*
X2924130Y604446D01*
Y613260D01*
D02*
G37*
G36*
X2788277D02*
X2779464D01*
Y604446D01*
X2781037Y604654D01*
X2783436Y605647D01*
X2785496Y607228D01*
X2787076Y609287D01*
X2788069Y611686D01*
X2788277Y613260D01*
D02*
G37*
G36*
X2777463D02*
X2768650D01*
X2768857Y611686D01*
X2769851Y609287D01*
X2771431Y607228D01*
X2773491Y605647D01*
X2775889Y604654D01*
X2777463Y604446D01*
Y613260D01*
D02*
G37*
G36*
X2751610D02*
X2742797D01*
Y604446D01*
X2744371Y604654D01*
X2746769Y605647D01*
X2748829Y607228D01*
X2750410Y609287D01*
X2751403Y611686D01*
X2751610Y613260D01*
D02*
G37*
G36*
X2740797D02*
X2731983D01*
X2732191Y611686D01*
X2733184Y609287D01*
X2734764Y607228D01*
X2736824Y605647D01*
X2739223Y604654D01*
X2740797Y604446D01*
Y613260D01*
D02*
G37*
G36*
X2714944D02*
X2706130D01*
Y604446D01*
X2707704Y604654D01*
X2710103Y605647D01*
X2712162Y607228D01*
X2713743Y609287D01*
X2714736Y611686D01*
X2714944Y613260D01*
D02*
G37*
G36*
X2704130D02*
X2695317D01*
X2695524Y611686D01*
X2696517Y609287D01*
X2698098Y607228D01*
X2700157Y605647D01*
X2702556Y604654D01*
X2704130Y604446D01*
Y613260D01*
D02*
G37*
G36*
X2678277D02*
X2669464D01*
Y604446D01*
X2671037Y604654D01*
X2673436Y605647D01*
X2675496Y607228D01*
X2677076Y609287D01*
X2678070Y611686D01*
X2678277Y613260D01*
D02*
G37*
G36*
X2667463D02*
X2658650D01*
X2658857Y611686D01*
X2659851Y609287D01*
X2661431Y607228D01*
X2663491Y605647D01*
X2665890Y604654D01*
X2667463Y604446D01*
Y613260D01*
D02*
G37*
G36*
X2641610D02*
X2632797D01*
Y604446D01*
X2634371Y604654D01*
X2636769Y605647D01*
X2638829Y607228D01*
X2640410Y609287D01*
X2641403Y611686D01*
X2641610Y613260D01*
D02*
G37*
G36*
X2825277Y612260D02*
X2816463D01*
Y603447D01*
X2818037Y603654D01*
X2820436Y604647D01*
X2822496Y606228D01*
X2824076Y608287D01*
X2825070Y610686D01*
X2825277Y612260D01*
D02*
G37*
G36*
X2814464D02*
X2805650D01*
X2805857Y610686D01*
X2806851Y608287D01*
X2808431Y606228D01*
X2810491Y604647D01*
X2812889Y603654D01*
X2814464Y603447D01*
Y612260D01*
D02*
G37*
G36*
X2962797Y588073D02*
Y579260D01*
X2971610D01*
X2971403Y580834D01*
X2970409Y583232D01*
X2968829Y585292D01*
X2966769Y586873D01*
X2964370Y587866D01*
X2962797Y588073D01*
D02*
G37*
G36*
X2960797D02*
X2959222Y587866D01*
X2956824Y586873D01*
X2954764Y585292D01*
X2953184Y583232D01*
X2952190Y580834D01*
X2951983Y579260D01*
X2960797D01*
Y588073D01*
D02*
G37*
G36*
X2926130D02*
Y579260D01*
X2934943D01*
X2934736Y580834D01*
X2933742Y583232D01*
X2932162Y585292D01*
X2930103Y586873D01*
X2927704Y587866D01*
X2926130Y588073D01*
D02*
G37*
G36*
X2924130D02*
X2922556Y587866D01*
X2920157Y586873D01*
X2918098Y585292D01*
X2916517Y583232D01*
X2915524Y580834D01*
X2915316Y579260D01*
X2924130D01*
Y588073D01*
D02*
G37*
G36*
X2889463D02*
Y579260D01*
X2898277D01*
X2898069Y580834D01*
X2897076Y583232D01*
X2895496Y585292D01*
X2893436Y586873D01*
X2891037Y587866D01*
X2889463Y588073D01*
D02*
G37*
G36*
X2887463D02*
X2885889Y587866D01*
X2883491Y586873D01*
X2881431Y585292D01*
X2879850Y583232D01*
X2878857Y580834D01*
X2878650Y579260D01*
X2887463D01*
Y588073D01*
D02*
G37*
G36*
X2852797D02*
Y579260D01*
X2861610D01*
X2861403Y580834D01*
X2860409Y583232D01*
X2858829Y585292D01*
X2856769Y586873D01*
X2854371Y587866D01*
X2852797Y588073D01*
D02*
G37*
G36*
X2850797D02*
X2849223Y587866D01*
X2846824Y586873D01*
X2844764Y585292D01*
X2843184Y583232D01*
X2842191Y580834D01*
X2841983Y579260D01*
X2850797D01*
Y588073D01*
D02*
G37*
G36*
X2816130D02*
Y579260D01*
X2824944D01*
X2824736Y580834D01*
X2823743Y583232D01*
X2822162Y585292D01*
X2820103Y586873D01*
X2817704Y587866D01*
X2816130Y588073D01*
D02*
G37*
G36*
X2814130D02*
X2812556Y587866D01*
X2810157Y586873D01*
X2808098Y585292D01*
X2806517Y583232D01*
X2805524Y580834D01*
X2805316Y579260D01*
X2814130D01*
Y588073D01*
D02*
G37*
G36*
X2779464D02*
Y579260D01*
X2788277D01*
X2788069Y580834D01*
X2787076Y583232D01*
X2785496Y585292D01*
X2783436Y586873D01*
X2781037Y587866D01*
X2779464Y588073D01*
D02*
G37*
G36*
X2777463D02*
X2775889Y587866D01*
X2773491Y586873D01*
X2771431Y585292D01*
X2769851Y583232D01*
X2768857Y580834D01*
X2768650Y579260D01*
X2777463D01*
Y588073D01*
D02*
G37*
G36*
X2742797D02*
Y579260D01*
X2751610D01*
X2751403Y580834D01*
X2750410Y583232D01*
X2748829Y585292D01*
X2746769Y586873D01*
X2744371Y587866D01*
X2742797Y588073D01*
D02*
G37*
G36*
X2740797D02*
X2739223Y587866D01*
X2736824Y586873D01*
X2734764Y585292D01*
X2733184Y583232D01*
X2732191Y580834D01*
X2731983Y579260D01*
X2740797D01*
Y588073D01*
D02*
G37*
G36*
X2706130D02*
Y579260D01*
X2714944D01*
X2714736Y580834D01*
X2713743Y583232D01*
X2712162Y585292D01*
X2710103Y586873D01*
X2707704Y587866D01*
X2706130Y588073D01*
D02*
G37*
G36*
X2704130D02*
X2702556Y587866D01*
X2700157Y586873D01*
X2698098Y585292D01*
X2696517Y583232D01*
X2695524Y580834D01*
X2695317Y579260D01*
X2704130D01*
Y588073D01*
D02*
G37*
G36*
X2669464D02*
Y579260D01*
X2678277D01*
X2678070Y580834D01*
X2677076Y583232D01*
X2675496Y585292D01*
X2673436Y586873D01*
X2671037Y587866D01*
X2669464Y588073D01*
D02*
G37*
G36*
X2667463D02*
X2665890Y587866D01*
X2663491Y586873D01*
X2661431Y585292D01*
X2659851Y583232D01*
X2658857Y580834D01*
X2658650Y579260D01*
X2667463D01*
Y588073D01*
D02*
G37*
G36*
X2632797D02*
Y579260D01*
X2641610D01*
X2641403Y580834D01*
X2640410Y583232D01*
X2638829Y585292D01*
X2636769Y586873D01*
X2634371Y587866D01*
X2632797Y588073D01*
D02*
G37*
G36*
X3224770Y581758D02*
X3222429Y581292D01*
X3221292Y580532D01*
X3224770Y577054D01*
X3228248Y580532D01*
X3227111Y581292D01*
X3224770Y581758D01*
D02*
G37*
G36*
X3229662Y579118D02*
X3226184Y575640D01*
X3229662Y572162D01*
X3230422Y573299D01*
X3230887Y575640D01*
X3230422Y577981D01*
X3229662Y579118D01*
D02*
G37*
G36*
X3219878D02*
X3219118Y577981D01*
X3218653Y575640D01*
X3219118Y573299D01*
X3219878Y572162D01*
X3223356Y575640D01*
X3219878Y579118D01*
D02*
G37*
G36*
X3224770Y574226D02*
X3221292Y570748D01*
X3222429Y569988D01*
X3224770Y569523D01*
X3227111Y569988D01*
X3228248Y570748D01*
X3224770Y574226D01*
D02*
G37*
G36*
X2971610Y577260D02*
X2962797D01*
Y568447D01*
X2964370Y568654D01*
X2966769Y569647D01*
X2968829Y571228D01*
X2970409Y573287D01*
X2971403Y575686D01*
X2971610Y577260D01*
D02*
G37*
G36*
X2960797D02*
X2951983D01*
X2952190Y575686D01*
X2953184Y573287D01*
X2954764Y571228D01*
X2956824Y569647D01*
X2959222Y568654D01*
X2960797Y568447D01*
Y577260D01*
D02*
G37*
G36*
X2934943D02*
X2926130D01*
Y568447D01*
X2927704Y568654D01*
X2930103Y569647D01*
X2932162Y571228D01*
X2933742Y573287D01*
X2934736Y575686D01*
X2934943Y577260D01*
D02*
G37*
G36*
X2924130D02*
X2915316D01*
X2915524Y575686D01*
X2916517Y573287D01*
X2918098Y571228D01*
X2920157Y569647D01*
X2922556Y568654D01*
X2924130Y568447D01*
Y577260D01*
D02*
G37*
G36*
X2898277D02*
X2889463D01*
Y568447D01*
X2891037Y568654D01*
X2893436Y569647D01*
X2895496Y571228D01*
X2897076Y573287D01*
X2898069Y575686D01*
X2898277Y577260D01*
D02*
G37*
G36*
X2887463D02*
X2878650D01*
X2878857Y575686D01*
X2879850Y573287D01*
X2881431Y571228D01*
X2883491Y569647D01*
X2885889Y568654D01*
X2887463Y568447D01*
Y577260D01*
D02*
G37*
G36*
X2861610D02*
X2852797D01*
Y568447D01*
X2854371Y568654D01*
X2856769Y569647D01*
X2858829Y571228D01*
X2860409Y573287D01*
X2861403Y575686D01*
X2861610Y577260D01*
D02*
G37*
G36*
X2850797D02*
X2841983D01*
X2842191Y575686D01*
X2843184Y573287D01*
X2844764Y571228D01*
X2846824Y569647D01*
X2849223Y568654D01*
X2850797Y568447D01*
Y577260D01*
D02*
G37*
G36*
X2824944D02*
X2816130D01*
Y568447D01*
X2817704Y568654D01*
X2820103Y569647D01*
X2822162Y571228D01*
X2823743Y573287D01*
X2824736Y575686D01*
X2824944Y577260D01*
D02*
G37*
G36*
X2814130D02*
X2805316D01*
X2805524Y575686D01*
X2806517Y573287D01*
X2808098Y571228D01*
X2810157Y569647D01*
X2812556Y568654D01*
X2814130Y568447D01*
Y577260D01*
D02*
G37*
G36*
X2788277D02*
X2779464D01*
Y568447D01*
X2781037Y568654D01*
X2783436Y569647D01*
X2785496Y571228D01*
X2787076Y573287D01*
X2788069Y575686D01*
X2788277Y577260D01*
D02*
G37*
G36*
X2777463D02*
X2768650D01*
X2768857Y575686D01*
X2769851Y573287D01*
X2771431Y571228D01*
X2773491Y569647D01*
X2775889Y568654D01*
X2777463Y568447D01*
Y577260D01*
D02*
G37*
G36*
X2751610D02*
X2742797D01*
Y568447D01*
X2744371Y568654D01*
X2746769Y569647D01*
X2748829Y571228D01*
X2750410Y573287D01*
X2751403Y575686D01*
X2751610Y577260D01*
D02*
G37*
G36*
X2740797D02*
X2731983D01*
X2732191Y575686D01*
X2733184Y573287D01*
X2734764Y571228D01*
X2736824Y569647D01*
X2739223Y568654D01*
X2740797Y568447D01*
Y577260D01*
D02*
G37*
G36*
X2714944D02*
X2706130D01*
Y568447D01*
X2707704Y568654D01*
X2710103Y569647D01*
X2712162Y571228D01*
X2713743Y573287D01*
X2714736Y575686D01*
X2714944Y577260D01*
D02*
G37*
G36*
X2704130D02*
X2695317D01*
X2695524Y575686D01*
X2696517Y573287D01*
X2698098Y571228D01*
X2700157Y569647D01*
X2702556Y568654D01*
X2704130Y568447D01*
Y577260D01*
D02*
G37*
G36*
X2678277D02*
X2669464D01*
Y568447D01*
X2671037Y568654D01*
X2673436Y569647D01*
X2675496Y571228D01*
X2677076Y573287D01*
X2678070Y575686D01*
X2678277Y577260D01*
D02*
G37*
G36*
X2667463D02*
X2658650D01*
X2658857Y575686D01*
X2659851Y573287D01*
X2661431Y571228D01*
X2663491Y569647D01*
X2665890Y568654D01*
X2667463Y568447D01*
Y577260D01*
D02*
G37*
G36*
X2641610D02*
X2632797D01*
Y568447D01*
X2634371Y568654D01*
X2636769Y569647D01*
X2638829Y571228D01*
X2640410Y573287D01*
X2641403Y575686D01*
X2641610Y577260D01*
D02*
G37*
G36*
X2962797Y552073D02*
Y543260D01*
X2971610D01*
X2971403Y544834D01*
X2970409Y547233D01*
X2968829Y549292D01*
X2966769Y550873D01*
X2964370Y551866D01*
X2962797Y552073D01*
D02*
G37*
G36*
X2960797D02*
X2959222Y551866D01*
X2956824Y550873D01*
X2954764Y549292D01*
X2953184Y547233D01*
X2952190Y544834D01*
X2951983Y543260D01*
X2960797D01*
Y552073D01*
D02*
G37*
G36*
X2926130D02*
Y543260D01*
X2934943D01*
X2934736Y544834D01*
X2933742Y547233D01*
X2932162Y549292D01*
X2930103Y550873D01*
X2927704Y551866D01*
X2926130Y552073D01*
D02*
G37*
G36*
X2924130D02*
X2922556Y551866D01*
X2920157Y550873D01*
X2918098Y549292D01*
X2916517Y547233D01*
X2915524Y544834D01*
X2915316Y543260D01*
X2924130D01*
Y552073D01*
D02*
G37*
G36*
X2889463D02*
Y543260D01*
X2898277D01*
X2898069Y544834D01*
X2897076Y547233D01*
X2895496Y549292D01*
X2893436Y550873D01*
X2891037Y551866D01*
X2889463Y552073D01*
D02*
G37*
G36*
X2887463D02*
X2885889Y551866D01*
X2883491Y550873D01*
X2881431Y549292D01*
X2879850Y547233D01*
X2878857Y544834D01*
X2878650Y543260D01*
X2887463D01*
Y552073D01*
D02*
G37*
G36*
X2852797D02*
Y543260D01*
X2861610D01*
X2861403Y544834D01*
X2860409Y547233D01*
X2858829Y549292D01*
X2856769Y550873D01*
X2854371Y551866D01*
X2852797Y552073D01*
D02*
G37*
G36*
X2850797D02*
X2849223Y551866D01*
X2846824Y550873D01*
X2844764Y549292D01*
X2843184Y547233D01*
X2842191Y544834D01*
X2841983Y543260D01*
X2850797D01*
Y552073D01*
D02*
G37*
G36*
X2816130D02*
Y543260D01*
X2824944D01*
X2824736Y544834D01*
X2823743Y547233D01*
X2822162Y549292D01*
X2820103Y550873D01*
X2817704Y551866D01*
X2816130Y552073D01*
D02*
G37*
G36*
X2814130D02*
X2812556Y551866D01*
X2810157Y550873D01*
X2808098Y549292D01*
X2806517Y547233D01*
X2805524Y544834D01*
X2805316Y543260D01*
X2814130D01*
Y552073D01*
D02*
G37*
G36*
X2779464D02*
Y543260D01*
X2788277D01*
X2788069Y544834D01*
X2787076Y547233D01*
X2785496Y549292D01*
X2783436Y550873D01*
X2781037Y551866D01*
X2779464Y552073D01*
D02*
G37*
G36*
X2777463D02*
X2775889Y551866D01*
X2773491Y550873D01*
X2771431Y549292D01*
X2769851Y547233D01*
X2768857Y544834D01*
X2768650Y543260D01*
X2777463D01*
Y552073D01*
D02*
G37*
G36*
X2742797D02*
Y543260D01*
X2751610D01*
X2751403Y544834D01*
X2750410Y547233D01*
X2748829Y549292D01*
X2746769Y550873D01*
X2744371Y551866D01*
X2742797Y552073D01*
D02*
G37*
G36*
X2740797D02*
X2739223Y551866D01*
X2736824Y550873D01*
X2734764Y549292D01*
X2733184Y547233D01*
X2732191Y544834D01*
X2731983Y543260D01*
X2740797D01*
Y552073D01*
D02*
G37*
G36*
X2706130D02*
Y543260D01*
X2714944D01*
X2714736Y544834D01*
X2713743Y547233D01*
X2712162Y549292D01*
X2710103Y550873D01*
X2707704Y551866D01*
X2706130Y552073D01*
D02*
G37*
G36*
X2704130D02*
X2702556Y551866D01*
X2700157Y550873D01*
X2698098Y549292D01*
X2696517Y547233D01*
X2695524Y544834D01*
X2695317Y543260D01*
X2704130D01*
Y552073D01*
D02*
G37*
G36*
X2669464D02*
Y543260D01*
X2678277D01*
X2678070Y544834D01*
X2677076Y547233D01*
X2675496Y549292D01*
X2673436Y550873D01*
X2671037Y551866D01*
X2669464Y552073D01*
D02*
G37*
G36*
X2667463D02*
X2665890Y551866D01*
X2663491Y550873D01*
X2661431Y549292D01*
X2659851Y547233D01*
X2658857Y544834D01*
X2658650Y543260D01*
X2667463D01*
Y552073D01*
D02*
G37*
G36*
X2632797D02*
Y543260D01*
X2641610D01*
X2641403Y544834D01*
X2640410Y547233D01*
X2638829Y549292D01*
X2636769Y550873D01*
X2634371Y551866D01*
X2632797Y552073D01*
D02*
G37*
G36*
X2971610Y541260D02*
X2962797D01*
Y532447D01*
X2964370Y532654D01*
X2966769Y533647D01*
X2968829Y535228D01*
X2970409Y537287D01*
X2971403Y539686D01*
X2971610Y541260D01*
D02*
G37*
G36*
X2960797D02*
X2951983D01*
X2952190Y539686D01*
X2953184Y537287D01*
X2954764Y535228D01*
X2956824Y533647D01*
X2959222Y532654D01*
X2960797Y532447D01*
Y541260D01*
D02*
G37*
G36*
X2934943D02*
X2926130D01*
Y532447D01*
X2927704Y532654D01*
X2930103Y533647D01*
X2932162Y535228D01*
X2933742Y537287D01*
X2934736Y539686D01*
X2934943Y541260D01*
D02*
G37*
G36*
X2924130D02*
X2915316D01*
X2915524Y539686D01*
X2916517Y537287D01*
X2918098Y535228D01*
X2920157Y533647D01*
X2922556Y532654D01*
X2924130Y532447D01*
Y541260D01*
D02*
G37*
G36*
X2898277D02*
X2889463D01*
Y532447D01*
X2891037Y532654D01*
X2893436Y533647D01*
X2895496Y535228D01*
X2897076Y537287D01*
X2898069Y539686D01*
X2898277Y541260D01*
D02*
G37*
G36*
X2887463D02*
X2878650D01*
X2878857Y539686D01*
X2879850Y537287D01*
X2881431Y535228D01*
X2883491Y533647D01*
X2885889Y532654D01*
X2887463Y532447D01*
Y541260D01*
D02*
G37*
G36*
X2861610D02*
X2852797D01*
Y532447D01*
X2854371Y532654D01*
X2856769Y533647D01*
X2858829Y535228D01*
X2860409Y537287D01*
X2861403Y539686D01*
X2861610Y541260D01*
D02*
G37*
G36*
X2850797D02*
X2841983D01*
X2842191Y539686D01*
X2843184Y537287D01*
X2844764Y535228D01*
X2846824Y533647D01*
X2849223Y532654D01*
X2850797Y532447D01*
Y541260D01*
D02*
G37*
G36*
X2824944D02*
X2816130D01*
Y532447D01*
X2817704Y532654D01*
X2820103Y533647D01*
X2822162Y535228D01*
X2823743Y537287D01*
X2824736Y539686D01*
X2824944Y541260D01*
D02*
G37*
G36*
X2814130D02*
X2805316D01*
X2805524Y539686D01*
X2806517Y537287D01*
X2808098Y535228D01*
X2810157Y533647D01*
X2812556Y532654D01*
X2814130Y532447D01*
Y541260D01*
D02*
G37*
G36*
X2788277D02*
X2779464D01*
Y532447D01*
X2781037Y532654D01*
X2783436Y533647D01*
X2785496Y535228D01*
X2787076Y537287D01*
X2788069Y539686D01*
X2788277Y541260D01*
D02*
G37*
G36*
X2777463D02*
X2768650D01*
X2768857Y539686D01*
X2769851Y537287D01*
X2771431Y535228D01*
X2773491Y533647D01*
X2775889Y532654D01*
X2777463Y532447D01*
Y541260D01*
D02*
G37*
G36*
X2751610D02*
X2742797D01*
Y532447D01*
X2744371Y532654D01*
X2746769Y533647D01*
X2748829Y535228D01*
X2750410Y537287D01*
X2751403Y539686D01*
X2751610Y541260D01*
D02*
G37*
G36*
X2740797D02*
X2731983D01*
X2732191Y539686D01*
X2733184Y537287D01*
X2734764Y535228D01*
X2736824Y533647D01*
X2739223Y532654D01*
X2740797Y532447D01*
Y541260D01*
D02*
G37*
G36*
X2714944D02*
X2706130D01*
Y532447D01*
X2707704Y532654D01*
X2710103Y533647D01*
X2712162Y535228D01*
X2713743Y537287D01*
X2714736Y539686D01*
X2714944Y541260D01*
D02*
G37*
G36*
X2704130D02*
X2695317D01*
X2695524Y539686D01*
X2696517Y537287D01*
X2698098Y535228D01*
X2700157Y533647D01*
X2702556Y532654D01*
X2704130Y532447D01*
Y541260D01*
D02*
G37*
G36*
X2678277D02*
X2669464D01*
Y532447D01*
X2671037Y532654D01*
X2673436Y533647D01*
X2675496Y535228D01*
X2677076Y537287D01*
X2678070Y539686D01*
X2678277Y541260D01*
D02*
G37*
G36*
X2667463D02*
X2658650D01*
X2658857Y539686D01*
X2659851Y537287D01*
X2661431Y535228D01*
X2663491Y533647D01*
X2665890Y532654D01*
X2667463Y532447D01*
Y541260D01*
D02*
G37*
G36*
X2641610D02*
X2632797D01*
Y532447D01*
X2634371Y532654D01*
X2636769Y533647D01*
X2638829Y535228D01*
X2640410Y537287D01*
X2641403Y539686D01*
X2641610Y541260D01*
D02*
G37*
G36*
X3208560Y535048D02*
X3206609Y534660D01*
X3204955Y533555D01*
X3203850Y531901D01*
X3203462Y529950D01*
X3203850Y527999D01*
X3204955Y526345D01*
X3206609Y525240D01*
X3208560Y524852D01*
X3210511Y525240D01*
X3212165Y526345D01*
X3213270Y527999D01*
X3213658Y529950D01*
X3213270Y531901D01*
X3212165Y533555D01*
X3210511Y534660D01*
X3208560Y535048D01*
D02*
G37*
G36*
X3208520Y519738D02*
X3206569Y519350D01*
X3204915Y518245D01*
X3203810Y516591D01*
X3203422Y514640D01*
X3203810Y512689D01*
X3204915Y511035D01*
X3206569Y509930D01*
X3208520Y509542D01*
X3210471Y509930D01*
X3212125Y511035D01*
X3213230Y512689D01*
X3213618Y514640D01*
X3213230Y516591D01*
X3212125Y518245D01*
X3210471Y519350D01*
X3208520Y519738D01*
D02*
G37*
G36*
X2962797Y516073D02*
Y507260D01*
X2971610D01*
X2971403Y508834D01*
X2970409Y511232D01*
X2968829Y513292D01*
X2966769Y514873D01*
X2964370Y515866D01*
X2962797Y516073D01*
D02*
G37*
G36*
X2960797D02*
X2959222Y515866D01*
X2956824Y514873D01*
X2954764Y513292D01*
X2953184Y511232D01*
X2952190Y508834D01*
X2951983Y507260D01*
X2960797D01*
Y516073D01*
D02*
G37*
G36*
X2926130D02*
Y507260D01*
X2934943D01*
X2934736Y508834D01*
X2933742Y511232D01*
X2932162Y513292D01*
X2930103Y514873D01*
X2927704Y515866D01*
X2926130Y516073D01*
D02*
G37*
G36*
X2924130D02*
X2922556Y515866D01*
X2920157Y514873D01*
X2918098Y513292D01*
X2916517Y511232D01*
X2915524Y508834D01*
X2915316Y507260D01*
X2924130D01*
Y516073D01*
D02*
G37*
G36*
X2889463D02*
Y507260D01*
X2898277D01*
X2898069Y508834D01*
X2897076Y511232D01*
X2895496Y513292D01*
X2893436Y514873D01*
X2891037Y515866D01*
X2889463Y516073D01*
D02*
G37*
G36*
X2887463D02*
X2885889Y515866D01*
X2883491Y514873D01*
X2881431Y513292D01*
X2879850Y511232D01*
X2878857Y508834D01*
X2878650Y507260D01*
X2887463D01*
Y516073D01*
D02*
G37*
G36*
X2852797D02*
Y507260D01*
X2861610D01*
X2861403Y508834D01*
X2860409Y511232D01*
X2858829Y513292D01*
X2856769Y514873D01*
X2854371Y515866D01*
X2852797Y516073D01*
D02*
G37*
G36*
X2850797D02*
X2849223Y515866D01*
X2846824Y514873D01*
X2844764Y513292D01*
X2843184Y511232D01*
X2842191Y508834D01*
X2841983Y507260D01*
X2850797D01*
Y516073D01*
D02*
G37*
G36*
X2816130D02*
Y507260D01*
X2824944D01*
X2824736Y508834D01*
X2823743Y511232D01*
X2822162Y513292D01*
X2820103Y514873D01*
X2817704Y515866D01*
X2816130Y516073D01*
D02*
G37*
G36*
X2814130D02*
X2812556Y515866D01*
X2810157Y514873D01*
X2808098Y513292D01*
X2806517Y511232D01*
X2805524Y508834D01*
X2805316Y507260D01*
X2814130D01*
Y516073D01*
D02*
G37*
G36*
X2779464D02*
Y507260D01*
X2788277D01*
X2788069Y508834D01*
X2787076Y511232D01*
X2785496Y513292D01*
X2783436Y514873D01*
X2781037Y515866D01*
X2779464Y516073D01*
D02*
G37*
G36*
X2777463D02*
X2775889Y515866D01*
X2773491Y514873D01*
X2771431Y513292D01*
X2769851Y511232D01*
X2768857Y508834D01*
X2768650Y507260D01*
X2777463D01*
Y516073D01*
D02*
G37*
G36*
X2742797D02*
Y507260D01*
X2751610D01*
X2751403Y508834D01*
X2750410Y511232D01*
X2748829Y513292D01*
X2746769Y514873D01*
X2744371Y515866D01*
X2742797Y516073D01*
D02*
G37*
G36*
X2740797D02*
X2739223Y515866D01*
X2736824Y514873D01*
X2734764Y513292D01*
X2733184Y511232D01*
X2732191Y508834D01*
X2731983Y507260D01*
X2740797D01*
Y516073D01*
D02*
G37*
G36*
X2706130D02*
Y507260D01*
X2714944D01*
X2714736Y508834D01*
X2713743Y511232D01*
X2712162Y513292D01*
X2710103Y514873D01*
X2707704Y515866D01*
X2706130Y516073D01*
D02*
G37*
G36*
X2704130D02*
X2702556Y515866D01*
X2700157Y514873D01*
X2698098Y513292D01*
X2696517Y511232D01*
X2695524Y508834D01*
X2695317Y507260D01*
X2704130D01*
Y516073D01*
D02*
G37*
G36*
X2669464D02*
Y507260D01*
X2678277D01*
X2678070Y508834D01*
X2677076Y511232D01*
X2675496Y513292D01*
X2673436Y514873D01*
X2671037Y515866D01*
X2669464Y516073D01*
D02*
G37*
G36*
X2667463D02*
X2665890Y515866D01*
X2663491Y514873D01*
X2661431Y513292D01*
X2659851Y511232D01*
X2658857Y508834D01*
X2658650Y507260D01*
X2667463D01*
Y516073D01*
D02*
G37*
G36*
X2632797D02*
Y507260D01*
X2641610D01*
X2641403Y508834D01*
X2640410Y511232D01*
X2638829Y513292D01*
X2636769Y514873D01*
X2634371Y515866D01*
X2632797Y516073D01*
D02*
G37*
G36*
X2971610Y505260D02*
X2962797D01*
Y496447D01*
X2964370Y496654D01*
X2966769Y497647D01*
X2968829Y499228D01*
X2970409Y501287D01*
X2971403Y503686D01*
X2971610Y505260D01*
D02*
G37*
G36*
X2960797D02*
X2951983D01*
X2952190Y503686D01*
X2953184Y501287D01*
X2954764Y499228D01*
X2956824Y497647D01*
X2959222Y496654D01*
X2960797Y496447D01*
Y505260D01*
D02*
G37*
G36*
X2934943D02*
X2926130D01*
Y496447D01*
X2927704Y496654D01*
X2930103Y497647D01*
X2932162Y499228D01*
X2933742Y501287D01*
X2934736Y503686D01*
X2934943Y505260D01*
D02*
G37*
G36*
X2924130D02*
X2915316D01*
X2915524Y503686D01*
X2916517Y501287D01*
X2918098Y499228D01*
X2920157Y497647D01*
X2922556Y496654D01*
X2924130Y496447D01*
Y505260D01*
D02*
G37*
G36*
X2898277D02*
X2889463D01*
Y496447D01*
X2891037Y496654D01*
X2893436Y497647D01*
X2895496Y499228D01*
X2897076Y501287D01*
X2898069Y503686D01*
X2898277Y505260D01*
D02*
G37*
G36*
X2887463D02*
X2878650D01*
X2878857Y503686D01*
X2879850Y501287D01*
X2881431Y499228D01*
X2883491Y497647D01*
X2885889Y496654D01*
X2887463Y496447D01*
Y505260D01*
D02*
G37*
G36*
X2861610D02*
X2852797D01*
Y496447D01*
X2854371Y496654D01*
X2856769Y497647D01*
X2858829Y499228D01*
X2860409Y501287D01*
X2861403Y503686D01*
X2861610Y505260D01*
D02*
G37*
G36*
X2850797D02*
X2841983D01*
X2842191Y503686D01*
X2843184Y501287D01*
X2844764Y499228D01*
X2846824Y497647D01*
X2849223Y496654D01*
X2850797Y496447D01*
Y505260D01*
D02*
G37*
G36*
X2824944D02*
X2816130D01*
Y496447D01*
X2817704Y496654D01*
X2820103Y497647D01*
X2822162Y499228D01*
X2823743Y501287D01*
X2824736Y503686D01*
X2824944Y505260D01*
D02*
G37*
G36*
X2814130D02*
X2805316D01*
X2805524Y503686D01*
X2806517Y501287D01*
X2808098Y499228D01*
X2810157Y497647D01*
X2812556Y496654D01*
X2814130Y496447D01*
Y505260D01*
D02*
G37*
G36*
X2788277D02*
X2779464D01*
Y496447D01*
X2781037Y496654D01*
X2783436Y497647D01*
X2785496Y499228D01*
X2787076Y501287D01*
X2788069Y503686D01*
X2788277Y505260D01*
D02*
G37*
G36*
X2777463D02*
X2768650D01*
X2768857Y503686D01*
X2769851Y501287D01*
X2771431Y499228D01*
X2773491Y497647D01*
X2775889Y496654D01*
X2777463Y496447D01*
Y505260D01*
D02*
G37*
G36*
X2751610D02*
X2742797D01*
Y496447D01*
X2744371Y496654D01*
X2746769Y497647D01*
X2748829Y499228D01*
X2750410Y501287D01*
X2751403Y503686D01*
X2751610Y505260D01*
D02*
G37*
G36*
X2740797D02*
X2731983D01*
X2732191Y503686D01*
X2733184Y501287D01*
X2734764Y499228D01*
X2736824Y497647D01*
X2739223Y496654D01*
X2740797Y496447D01*
Y505260D01*
D02*
G37*
G36*
X2714944D02*
X2706130D01*
Y496447D01*
X2707704Y496654D01*
X2710103Y497647D01*
X2712162Y499228D01*
X2713743Y501287D01*
X2714736Y503686D01*
X2714944Y505260D01*
D02*
G37*
G36*
X2704130D02*
X2695317D01*
X2695524Y503686D01*
X2696517Y501287D01*
X2698098Y499228D01*
X2700157Y497647D01*
X2702556Y496654D01*
X2704130Y496447D01*
Y505260D01*
D02*
G37*
G36*
X2678277D02*
X2669464D01*
Y496447D01*
X2671037Y496654D01*
X2673436Y497647D01*
X2675496Y499228D01*
X2677076Y501287D01*
X2678070Y503686D01*
X2678277Y505260D01*
D02*
G37*
G36*
X2667463D02*
X2658650D01*
X2658857Y503686D01*
X2659851Y501287D01*
X2661431Y499228D01*
X2663491Y497647D01*
X2665890Y496654D01*
X2667463Y496447D01*
Y505260D01*
D02*
G37*
G36*
X2641610D02*
X2632797D01*
Y496447D01*
X2634371Y496654D01*
X2636769Y497647D01*
X2638829Y499228D01*
X2640410Y501287D01*
X2641403Y503686D01*
X2641610Y505260D01*
D02*
G37*
G36*
X2962797Y480073D02*
Y471260D01*
X2971610D01*
X2971403Y472834D01*
X2970409Y475233D01*
X2968829Y477292D01*
X2966769Y478873D01*
X2964370Y479866D01*
X2962797Y480073D01*
D02*
G37*
G36*
X2960797D02*
X2959222Y479866D01*
X2956824Y478873D01*
X2954764Y477292D01*
X2953184Y475233D01*
X2952190Y472834D01*
X2951983Y471260D01*
X2960797D01*
Y480073D01*
D02*
G37*
G36*
X2926130D02*
Y471260D01*
X2934943D01*
X2934736Y472834D01*
X2933742Y475233D01*
X2932162Y477292D01*
X2930103Y478873D01*
X2927704Y479866D01*
X2926130Y480073D01*
D02*
G37*
G36*
X2924130D02*
X2922556Y479866D01*
X2920157Y478873D01*
X2918098Y477292D01*
X2916517Y475233D01*
X2915524Y472834D01*
X2915316Y471260D01*
X2924130D01*
Y480073D01*
D02*
G37*
G36*
X2889463D02*
Y471260D01*
X2898277D01*
X2898069Y472834D01*
X2897076Y475233D01*
X2895496Y477292D01*
X2893436Y478873D01*
X2891037Y479866D01*
X2889463Y480073D01*
D02*
G37*
G36*
X2887463D02*
X2885889Y479866D01*
X2883491Y478873D01*
X2881431Y477292D01*
X2879850Y475233D01*
X2878857Y472834D01*
X2878650Y471260D01*
X2887463D01*
Y480073D01*
D02*
G37*
G36*
X2852797D02*
Y471260D01*
X2861610D01*
X2861403Y472834D01*
X2860409Y475233D01*
X2858829Y477292D01*
X2856769Y478873D01*
X2854371Y479866D01*
X2852797Y480073D01*
D02*
G37*
G36*
X2850797D02*
X2849223Y479866D01*
X2846824Y478873D01*
X2844764Y477292D01*
X2843184Y475233D01*
X2842191Y472834D01*
X2841983Y471260D01*
X2850797D01*
Y480073D01*
D02*
G37*
G36*
X2816130D02*
Y471260D01*
X2824944D01*
X2824736Y472834D01*
X2823743Y475233D01*
X2822162Y477292D01*
X2820103Y478873D01*
X2817704Y479866D01*
X2816130Y480073D01*
D02*
G37*
G36*
X2814130D02*
X2812556Y479866D01*
X2810157Y478873D01*
X2808098Y477292D01*
X2806517Y475233D01*
X2805524Y472834D01*
X2805316Y471260D01*
X2814130D01*
Y480073D01*
D02*
G37*
G36*
X2779464D02*
Y471260D01*
X2788277D01*
X2788069Y472834D01*
X2787076Y475233D01*
X2785496Y477292D01*
X2783436Y478873D01*
X2781037Y479866D01*
X2779464Y480073D01*
D02*
G37*
G36*
X2777463D02*
X2775889Y479866D01*
X2773491Y478873D01*
X2771431Y477292D01*
X2769851Y475233D01*
X2768857Y472834D01*
X2768650Y471260D01*
X2777463D01*
Y480073D01*
D02*
G37*
G36*
X2742797D02*
Y471260D01*
X2751610D01*
X2751403Y472834D01*
X2750410Y475233D01*
X2748829Y477292D01*
X2746769Y478873D01*
X2744371Y479866D01*
X2742797Y480073D01*
D02*
G37*
G36*
X2740797D02*
X2739223Y479866D01*
X2736824Y478873D01*
X2734764Y477292D01*
X2733184Y475233D01*
X2732191Y472834D01*
X2731983Y471260D01*
X2740797D01*
Y480073D01*
D02*
G37*
G36*
X2706130D02*
Y471260D01*
X2714944D01*
X2714736Y472834D01*
X2713743Y475233D01*
X2712162Y477292D01*
X2710103Y478873D01*
X2707704Y479866D01*
X2706130Y480073D01*
D02*
G37*
G36*
X2704130D02*
X2702556Y479866D01*
X2700157Y478873D01*
X2698098Y477292D01*
X2696517Y475233D01*
X2695524Y472834D01*
X2695317Y471260D01*
X2704130D01*
Y480073D01*
D02*
G37*
G36*
X2669464D02*
Y471260D01*
X2678277D01*
X2678070Y472834D01*
X2677076Y475233D01*
X2675496Y477292D01*
X2673436Y478873D01*
X2671037Y479866D01*
X2669464Y480073D01*
D02*
G37*
G36*
X2667463D02*
X2665890Y479866D01*
X2663491Y478873D01*
X2661431Y477292D01*
X2659851Y475233D01*
X2658857Y472834D01*
X2658650Y471260D01*
X2667463D01*
Y480073D01*
D02*
G37*
G36*
X2632797D02*
Y471260D01*
X2641610D01*
X2641403Y472834D01*
X2640410Y475233D01*
X2638829Y477292D01*
X2636769Y478873D01*
X2634371Y479866D01*
X2632797Y480073D01*
D02*
G37*
G36*
X2997797Y483241D02*
Y471260D01*
X3009777D01*
X3009462Y473654D01*
X3008152Y476816D01*
X3006068Y479532D01*
X3003353Y481615D01*
X3000190Y482925D01*
X2997797Y483241D01*
D02*
G37*
G36*
X2995797D02*
X2993403Y482925D01*
X2990241Y481615D01*
X2987525Y479532D01*
X2985441Y476816D01*
X2984131Y473654D01*
X2983816Y471260D01*
X2995797D01*
Y483241D01*
D02*
G37*
G36*
X2971610Y469260D02*
X2962797D01*
Y460447D01*
X2964370Y460654D01*
X2966769Y461647D01*
X2968829Y463228D01*
X2970409Y465288D01*
X2971403Y467686D01*
X2971610Y469260D01*
D02*
G37*
G36*
X2960797D02*
X2951983D01*
X2952190Y467686D01*
X2953184Y465288D01*
X2954764Y463228D01*
X2956824Y461647D01*
X2959222Y460654D01*
X2960797Y460447D01*
Y469260D01*
D02*
G37*
G36*
X2934943D02*
X2926130D01*
Y460447D01*
X2927704Y460654D01*
X2930103Y461647D01*
X2932162Y463228D01*
X2933742Y465288D01*
X2934736Y467686D01*
X2934943Y469260D01*
D02*
G37*
G36*
X2924130D02*
X2915316D01*
X2915524Y467686D01*
X2916517Y465288D01*
X2918098Y463228D01*
X2920157Y461647D01*
X2922556Y460654D01*
X2924130Y460447D01*
Y469260D01*
D02*
G37*
G36*
X2898277D02*
X2889463D01*
Y460447D01*
X2891037Y460654D01*
X2893436Y461647D01*
X2895496Y463228D01*
X2897076Y465288D01*
X2898069Y467686D01*
X2898277Y469260D01*
D02*
G37*
G36*
X2887463D02*
X2878650D01*
X2878857Y467686D01*
X2879850Y465288D01*
X2881431Y463228D01*
X2883491Y461647D01*
X2885889Y460654D01*
X2887463Y460447D01*
Y469260D01*
D02*
G37*
G36*
X2861610D02*
X2852797D01*
Y460447D01*
X2854371Y460654D01*
X2856769Y461647D01*
X2858829Y463228D01*
X2860409Y465288D01*
X2861403Y467686D01*
X2861610Y469260D01*
D02*
G37*
G36*
X2850797D02*
X2841983D01*
X2842191Y467686D01*
X2843184Y465288D01*
X2844764Y463228D01*
X2846824Y461647D01*
X2849223Y460654D01*
X2850797Y460447D01*
Y469260D01*
D02*
G37*
G36*
X2824944D02*
X2816130D01*
Y460447D01*
X2817704Y460654D01*
X2820103Y461647D01*
X2822162Y463228D01*
X2823743Y465288D01*
X2824736Y467686D01*
X2824944Y469260D01*
D02*
G37*
G36*
X2814130D02*
X2805316D01*
X2805524Y467686D01*
X2806517Y465288D01*
X2808098Y463228D01*
X2810157Y461647D01*
X2812556Y460654D01*
X2814130Y460447D01*
Y469260D01*
D02*
G37*
G36*
X2788277D02*
X2779464D01*
Y460447D01*
X2781037Y460654D01*
X2783436Y461647D01*
X2785496Y463228D01*
X2787076Y465288D01*
X2788069Y467686D01*
X2788277Y469260D01*
D02*
G37*
G36*
X2777463D02*
X2768650D01*
X2768857Y467686D01*
X2769851Y465288D01*
X2771431Y463228D01*
X2773491Y461647D01*
X2775889Y460654D01*
X2777463Y460447D01*
Y469260D01*
D02*
G37*
G36*
X2751610D02*
X2742797D01*
Y460447D01*
X2744371Y460654D01*
X2746769Y461647D01*
X2748829Y463228D01*
X2750410Y465288D01*
X2751403Y467686D01*
X2751610Y469260D01*
D02*
G37*
G36*
X2740797D02*
X2731983D01*
X2732191Y467686D01*
X2733184Y465288D01*
X2734764Y463228D01*
X2736824Y461647D01*
X2739223Y460654D01*
X2740797Y460447D01*
Y469260D01*
D02*
G37*
G36*
X2714944D02*
X2706130D01*
Y460447D01*
X2707704Y460654D01*
X2710103Y461647D01*
X2712162Y463228D01*
X2713743Y465288D01*
X2714736Y467686D01*
X2714944Y469260D01*
D02*
G37*
G36*
X2704130D02*
X2695317D01*
X2695524Y467686D01*
X2696517Y465288D01*
X2698098Y463228D01*
X2700157Y461647D01*
X2702556Y460654D01*
X2704130Y460447D01*
Y469260D01*
D02*
G37*
G36*
X2678277D02*
X2669464D01*
Y460447D01*
X2671037Y460654D01*
X2673436Y461647D01*
X2675496Y463228D01*
X2677076Y465288D01*
X2678070Y467686D01*
X2678277Y469260D01*
D02*
G37*
G36*
X2667463D02*
X2658650D01*
X2658857Y467686D01*
X2659851Y465288D01*
X2661431Y463228D01*
X2663491Y461647D01*
X2665890Y460654D01*
X2667463Y460447D01*
Y469260D01*
D02*
G37*
G36*
X2641610D02*
X2632797D01*
Y460447D01*
X2634371Y460654D01*
X2636769Y461647D01*
X2638829Y463228D01*
X2640410Y465288D01*
X2641403Y467686D01*
X2641610Y469260D01*
D02*
G37*
G36*
X3009777Y469260D02*
X2997797D01*
Y457280D01*
X3000190Y457595D01*
X3003353Y458904D01*
X3006068Y460988D01*
X3008152Y463704D01*
X3009462Y466866D01*
X3009777Y469260D01*
D02*
G37*
G36*
X2995797D02*
X2983816D01*
X2984131Y466866D01*
X2985441Y463704D01*
X2987525Y460988D01*
X2990241Y458904D01*
X2993403Y457595D01*
X2995797Y457280D01*
Y469260D01*
D02*
G37*
G36*
X3224520Y450738D02*
X3222569Y450350D01*
X3220915Y449245D01*
X3219810Y447591D01*
X3219422Y445640D01*
X3219810Y443689D01*
X3220915Y442035D01*
X3222569Y440930D01*
X3224520Y440542D01*
X3226471Y440930D01*
X3228125Y442035D01*
X3229230Y443689D01*
X3229618Y445640D01*
X3229230Y447591D01*
X3228125Y449245D01*
X3226471Y450350D01*
X3224520Y450738D01*
D02*
G37*
G36*
X2815973Y430153D02*
Y421340D01*
X2824787D01*
X2824579Y422914D01*
X2823586Y425312D01*
X2822006Y427372D01*
X2819946Y428953D01*
X2817547Y429946D01*
X2815973Y430153D01*
D02*
G37*
G36*
X2813973D02*
X2812399Y429946D01*
X2810001Y428953D01*
X2807941Y427372D01*
X2806360Y425312D01*
X2805367Y422914D01*
X2805160Y421340D01*
X2813973D01*
Y430153D01*
D02*
G37*
G36*
X2962307Y430153D02*
Y421340D01*
X2971120D01*
X2970912Y422914D01*
X2969919Y425312D01*
X2968339Y427372D01*
X2966279Y428953D01*
X2963880Y429946D01*
X2962307Y430153D01*
D02*
G37*
G36*
X2960306D02*
X2958732Y429946D01*
X2956334Y428953D01*
X2954274Y427372D01*
X2952694Y425312D01*
X2951700Y422914D01*
X2951493Y421340D01*
X2960306D01*
Y430153D01*
D02*
G37*
G36*
X2925640D02*
Y421340D01*
X2934453D01*
X2934246Y422914D01*
X2933252Y425312D01*
X2931672Y427372D01*
X2929612Y428953D01*
X2927214Y429946D01*
X2925640Y430153D01*
D02*
G37*
G36*
X2923640D02*
X2922066Y429946D01*
X2919667Y428953D01*
X2917607Y427372D01*
X2916027Y425312D01*
X2915034Y422914D01*
X2914826Y421340D01*
X2923640D01*
Y430153D01*
D02*
G37*
G36*
X2778973D02*
Y421340D01*
X2787787D01*
X2787579Y422914D01*
X2786586Y425312D01*
X2785005Y427372D01*
X2782946Y428953D01*
X2780547Y429946D01*
X2778973Y430153D01*
D02*
G37*
G36*
X2776973D02*
X2775399Y429946D01*
X2773001Y428953D01*
X2770941Y427372D01*
X2769361Y425312D01*
X2768367Y422914D01*
X2768160Y421340D01*
X2776973D01*
Y430153D01*
D02*
G37*
G36*
X2742307D02*
Y421340D01*
X2751120D01*
X2750913Y422914D01*
X2749919Y425312D01*
X2748339Y427372D01*
X2746279Y428953D01*
X2743881Y429946D01*
X2742307Y430153D01*
D02*
G37*
G36*
X2740307D02*
X2738733Y429946D01*
X2736334Y428953D01*
X2734274Y427372D01*
X2732694Y425312D01*
X2731700Y422914D01*
X2731493Y421340D01*
X2740307D01*
Y430153D01*
D02*
G37*
G36*
X2705640D02*
Y421340D01*
X2714453D01*
X2714246Y422914D01*
X2713253Y425312D01*
X2711672Y427372D01*
X2709612Y428953D01*
X2707214Y429946D01*
X2705640Y430153D01*
D02*
G37*
G36*
X2703640D02*
X2702066Y429946D01*
X2699667Y428953D01*
X2697608Y427372D01*
X2696027Y425312D01*
X2695034Y422914D01*
X2694827Y421340D01*
X2703640D01*
Y430153D01*
D02*
G37*
G36*
X2668973D02*
Y421340D01*
X2677787D01*
X2677580Y422914D01*
X2676586Y425312D01*
X2675005Y427372D01*
X2672946Y428953D01*
X2670547Y429946D01*
X2668973Y430153D01*
D02*
G37*
G36*
X2666973D02*
X2665399Y429946D01*
X2663001Y428953D01*
X2660941Y427372D01*
X2659361Y425312D01*
X2658367Y422914D01*
X2658160Y421340D01*
X2666973D01*
Y430153D01*
D02*
G37*
G36*
X3213520Y415757D02*
X3211179Y415292D01*
X3210042Y414532D01*
X3213520Y411054D01*
X3216998Y414532D01*
X3215861Y415292D01*
X3213520Y415757D01*
D02*
G37*
G36*
X2824787Y419340D02*
X2815973D01*
Y410527D01*
X2817547Y410734D01*
X2819946Y411727D01*
X2822006Y413308D01*
X2823586Y415367D01*
X2824579Y417766D01*
X2824787Y419340D01*
D02*
G37*
G36*
X2813973D02*
X2805160D01*
X2805367Y417766D01*
X2806360Y415367D01*
X2807941Y413308D01*
X2810001Y411727D01*
X2812399Y410734D01*
X2813973Y410527D01*
Y419340D01*
D02*
G37*
G36*
X2971120Y419340D02*
X2962307D01*
Y410527D01*
X2963880Y410734D01*
X2966279Y411727D01*
X2968339Y413308D01*
X2969919Y415367D01*
X2970912Y417766D01*
X2971120Y419340D01*
D02*
G37*
G36*
X2960306D02*
X2951493D01*
X2951700Y417766D01*
X2952694Y415367D01*
X2954274Y413308D01*
X2956334Y411727D01*
X2958732Y410734D01*
X2960306Y410527D01*
Y419340D01*
D02*
G37*
G36*
X2934453D02*
X2925640D01*
Y410527D01*
X2927214Y410734D01*
X2929612Y411727D01*
X2931672Y413308D01*
X2933252Y415367D01*
X2934246Y417766D01*
X2934453Y419340D01*
D02*
G37*
G36*
X2923640D02*
X2914826D01*
X2915034Y417766D01*
X2916027Y415367D01*
X2917607Y413308D01*
X2919667Y411727D01*
X2922066Y410734D01*
X2923640Y410527D01*
Y419340D01*
D02*
G37*
G36*
X2787787D02*
X2778973D01*
Y410527D01*
X2780547Y410734D01*
X2782946Y411727D01*
X2785005Y413308D01*
X2786586Y415367D01*
X2787579Y417766D01*
X2787787Y419340D01*
D02*
G37*
G36*
X2776973D02*
X2768160D01*
X2768367Y417766D01*
X2769361Y415367D01*
X2770941Y413308D01*
X2773001Y411727D01*
X2775399Y410734D01*
X2776973Y410527D01*
Y419340D01*
D02*
G37*
G36*
X2751120D02*
X2742307D01*
Y410527D01*
X2743881Y410734D01*
X2746279Y411727D01*
X2748339Y413308D01*
X2749919Y415367D01*
X2750913Y417766D01*
X2751120Y419340D01*
D02*
G37*
G36*
X2740307D02*
X2731493D01*
X2731700Y417766D01*
X2732694Y415367D01*
X2734274Y413308D01*
X2736334Y411727D01*
X2738733Y410734D01*
X2740307Y410527D01*
Y419340D01*
D02*
G37*
G36*
X2714453D02*
X2705640D01*
Y410527D01*
X2707214Y410734D01*
X2709612Y411727D01*
X2711672Y413308D01*
X2713253Y415367D01*
X2714246Y417766D01*
X2714453Y419340D01*
D02*
G37*
G36*
X2703640D02*
X2694827D01*
X2695034Y417766D01*
X2696027Y415367D01*
X2697608Y413308D01*
X2699667Y411727D01*
X2702066Y410734D01*
X2703640Y410527D01*
Y419340D01*
D02*
G37*
G36*
X2677787D02*
X2668973D01*
Y410527D01*
X2670547Y410734D01*
X2672946Y411727D01*
X2675005Y413308D01*
X2676586Y415367D01*
X2677580Y417766D01*
X2677787Y419340D01*
D02*
G37*
G36*
X2666973D02*
X2658160D01*
X2658367Y417766D01*
X2659361Y415367D01*
X2660941Y413308D01*
X2663001Y411727D01*
X2665399Y410734D01*
X2666973Y410527D01*
Y419340D01*
D02*
G37*
G36*
X2996307Y432444D02*
X2993174Y432031D01*
X2990255Y430822D01*
X2987748Y428899D01*
X2985825Y426392D01*
X2984615Y423473D01*
X2984203Y420340D01*
X2984615Y417207D01*
X2985825Y414288D01*
X2987748Y411782D01*
X2990255Y409858D01*
X2993174Y408649D01*
X2996307Y408237D01*
X2999439Y408649D01*
X3002358Y409858D01*
X3004865Y411782D01*
X3006789Y414288D01*
X3007998Y417207D01*
X3008410Y420340D01*
X3007998Y423473D01*
X3006789Y426392D01*
X3004865Y428899D01*
X3002358Y430822D01*
X2999439Y432031D01*
X2996307Y432444D01*
D02*
G37*
G36*
X3218412Y413118D02*
X3214934Y409640D01*
X3218412Y406162D01*
X3219172Y407299D01*
X3219637Y409640D01*
X3219172Y411981D01*
X3218412Y413118D01*
D02*
G37*
G36*
X3208628D02*
X3207868Y411981D01*
X3207403Y409640D01*
X3207868Y407299D01*
X3208628Y406162D01*
X3212106Y409640D01*
X3208628Y413118D01*
D02*
G37*
G36*
X3213520Y408226D02*
X3210042Y404748D01*
X3211179Y403988D01*
X3213520Y403522D01*
X3215861Y403988D01*
X3216998Y404748D01*
X3213520Y408226D01*
D02*
G37*
G36*
X2871306Y410043D02*
X2868795Y409712D01*
X2866455Y408743D01*
X2864445Y407201D01*
X2862903Y405191D01*
X2861934Y402851D01*
X2860679D01*
X2859709Y405191D01*
X2858167Y407201D01*
X2856158Y408743D01*
X2853818Y409712D01*
X2851306Y410043D01*
X2848795Y409712D01*
X2846455Y408743D01*
X2844445Y407201D01*
X2842903Y405191D01*
X2841934Y402851D01*
X2841603Y400340D01*
X2841934Y397829D01*
X2842903Y395489D01*
X2844445Y393479D01*
X2846455Y391937D01*
X2848795Y390968D01*
X2851306Y390637D01*
X2853818Y390968D01*
X2856158Y391937D01*
X2858167Y393479D01*
X2859709Y395489D01*
X2860679Y397829D01*
X2861934D01*
X2862903Y395489D01*
X2864445Y393479D01*
X2866455Y391937D01*
X2868795Y390968D01*
X2871306Y390637D01*
X2873818Y390968D01*
X2876158Y391937D01*
X2878167Y393479D01*
X2879709Y395489D01*
X2880679Y397829D01*
X2881010Y400340D01*
X2880679Y402851D01*
X2879709Y405191D01*
X2878167Y407201D01*
X2876158Y408743D01*
X2873818Y409712D01*
X2871306Y410043D01*
D02*
G37*
G36*
X2962307Y394153D02*
Y385340D01*
X2971120D01*
X2970912Y386914D01*
X2969919Y389313D01*
X2968339Y391372D01*
X2966279Y392953D01*
X2963880Y393946D01*
X2962307Y394153D01*
D02*
G37*
G36*
X2960306D02*
X2958732Y393946D01*
X2956334Y392953D01*
X2954274Y391372D01*
X2952694Y389313D01*
X2951700Y386914D01*
X2951493Y385340D01*
X2960306D01*
Y394153D01*
D02*
G37*
G36*
X2925640D02*
Y385340D01*
X2934453D01*
X2934246Y386914D01*
X2933252Y389313D01*
X2931672Y391372D01*
X2929612Y392953D01*
X2927214Y393946D01*
X2925640Y394153D01*
D02*
G37*
G36*
X2923640D02*
X2922066Y393946D01*
X2919667Y392953D01*
X2917607Y391372D01*
X2916027Y389313D01*
X2915034Y386914D01*
X2914826Y385340D01*
X2923640D01*
Y394153D01*
D02*
G37*
G36*
X2778973D02*
Y385340D01*
X2787787D01*
X2787579Y386914D01*
X2786586Y389313D01*
X2785005Y391372D01*
X2782946Y392953D01*
X2780547Y393946D01*
X2778973Y394153D01*
D02*
G37*
G36*
X2776973D02*
X2775399Y393946D01*
X2773001Y392953D01*
X2770941Y391372D01*
X2769361Y389313D01*
X2768367Y386914D01*
X2768160Y385340D01*
X2776973D01*
Y394153D01*
D02*
G37*
G36*
X2742307D02*
Y385340D01*
X2751120D01*
X2750913Y386914D01*
X2749919Y389313D01*
X2748339Y391372D01*
X2746279Y392953D01*
X2743881Y393946D01*
X2742307Y394153D01*
D02*
G37*
G36*
X2740307D02*
X2738733Y393946D01*
X2736334Y392953D01*
X2734274Y391372D01*
X2732694Y389313D01*
X2731700Y386914D01*
X2731493Y385340D01*
X2740307D01*
Y394153D01*
D02*
G37*
G36*
X2705640D02*
Y385340D01*
X2714453D01*
X2714246Y386914D01*
X2713253Y389313D01*
X2711672Y391372D01*
X2709612Y392953D01*
X2707214Y393946D01*
X2705640Y394153D01*
D02*
G37*
G36*
X2703640D02*
X2702066Y393946D01*
X2699667Y392953D01*
X2697608Y391372D01*
X2696027Y389313D01*
X2695034Y386914D01*
X2694827Y385340D01*
X2703640D01*
Y394153D01*
D02*
G37*
G36*
X2668973D02*
Y385340D01*
X2677787D01*
X2677580Y386914D01*
X2676586Y389313D01*
X2675005Y391372D01*
X2672946Y392953D01*
X2670547Y393946D01*
X2668973Y394153D01*
D02*
G37*
G36*
X2666973D02*
X2665399Y393946D01*
X2663001Y392953D01*
X2660941Y391372D01*
X2659361Y389313D01*
X2658367Y386914D01*
X2658160Y385340D01*
X2666973D01*
Y394153D01*
D02*
G37*
G36*
X2815973Y393153D02*
Y384340D01*
X2824787D01*
X2824579Y385914D01*
X2823586Y388312D01*
X2822006Y390372D01*
X2819946Y391953D01*
X2817547Y392946D01*
X2815973Y393153D01*
D02*
G37*
G36*
X2813973D02*
X2812399Y392946D01*
X2810001Y391953D01*
X2807941Y390372D01*
X2806360Y388312D01*
X2805367Y385914D01*
X2805160Y384340D01*
X2813973D01*
Y393153D01*
D02*
G37*
G36*
X2971120Y383340D02*
X2962307D01*
Y374527D01*
X2963880Y374734D01*
X2966279Y375727D01*
X2968339Y377308D01*
X2969919Y379367D01*
X2970912Y381766D01*
X2971120Y383340D01*
D02*
G37*
G36*
X2960306D02*
X2951493D01*
X2951700Y381766D01*
X2952694Y379367D01*
X2954274Y377308D01*
X2956334Y375727D01*
X2958732Y374734D01*
X2960306Y374527D01*
Y383340D01*
D02*
G37*
G36*
X2934453D02*
X2925640D01*
Y374527D01*
X2927214Y374734D01*
X2929612Y375727D01*
X2931672Y377308D01*
X2933252Y379367D01*
X2934246Y381766D01*
X2934453Y383340D01*
D02*
G37*
G36*
X2923640D02*
X2914826D01*
X2915034Y381766D01*
X2916027Y379367D01*
X2917607Y377308D01*
X2919667Y375727D01*
X2922066Y374734D01*
X2923640Y374527D01*
Y383340D01*
D02*
G37*
G36*
X2787787D02*
X2778973D01*
Y374527D01*
X2780547Y374734D01*
X2782946Y375727D01*
X2785005Y377308D01*
X2786586Y379367D01*
X2787579Y381766D01*
X2787787Y383340D01*
D02*
G37*
G36*
X2776973D02*
X2768160D01*
X2768367Y381766D01*
X2769361Y379367D01*
X2770941Y377308D01*
X2773001Y375727D01*
X2775399Y374734D01*
X2776973Y374527D01*
Y383340D01*
D02*
G37*
G36*
X2751120D02*
X2742307D01*
Y374527D01*
X2743881Y374734D01*
X2746279Y375727D01*
X2748339Y377308D01*
X2749919Y379367D01*
X2750913Y381766D01*
X2751120Y383340D01*
D02*
G37*
G36*
X2740307D02*
X2731493D01*
X2731700Y381766D01*
X2732694Y379367D01*
X2734274Y377308D01*
X2736334Y375727D01*
X2738733Y374734D01*
X2740307Y374527D01*
Y383340D01*
D02*
G37*
G36*
X2714453D02*
X2705640D01*
Y374527D01*
X2707214Y374734D01*
X2709612Y375727D01*
X2711672Y377308D01*
X2713253Y379367D01*
X2714246Y381766D01*
X2714453Y383340D01*
D02*
G37*
G36*
X2703640D02*
X2694827D01*
X2695034Y381766D01*
X2696027Y379367D01*
X2697608Y377308D01*
X2699667Y375727D01*
X2702066Y374734D01*
X2703640Y374527D01*
Y383340D01*
D02*
G37*
G36*
X2677787D02*
X2668973D01*
Y374527D01*
X2670547Y374734D01*
X2672946Y375727D01*
X2675005Y377308D01*
X2676586Y379367D01*
X2677580Y381766D01*
X2677787Y383340D01*
D02*
G37*
G36*
X2666973D02*
X2658160D01*
X2658367Y381766D01*
X2659361Y379367D01*
X2660941Y377308D01*
X2663001Y375727D01*
X2665399Y374734D01*
X2666973Y374527D01*
Y383340D01*
D02*
G37*
G36*
X2824787Y382340D02*
X2815973D01*
Y373527D01*
X2817547Y373734D01*
X2819946Y374727D01*
X2822006Y376308D01*
X2823586Y378367D01*
X2824579Y380766D01*
X2824787Y382340D01*
D02*
G37*
G36*
X2813973D02*
X2805160D01*
X2805367Y380766D01*
X2806360Y378367D01*
X2807941Y376308D01*
X2810001Y374727D01*
X2812399Y373734D01*
X2813973Y373527D01*
Y382340D01*
D02*
G37*
G36*
X3232120Y360251D02*
Y351440D01*
X3240931D01*
X3240724Y353013D01*
X3239731Y355411D01*
X3238151Y357471D01*
X3236092Y359051D01*
X3233694Y360044D01*
X3232120Y360251D01*
D02*
G37*
G36*
X3230120D02*
X3228546Y360044D01*
X3226148Y359051D01*
X3224089Y357471D01*
X3222509Y355411D01*
X3221516Y353013D01*
X3221309Y351440D01*
X3230120D01*
Y360251D01*
D02*
G37*
G36*
X3255520Y360298D02*
X3246662D01*
Y351440D01*
X3255520D01*
Y360298D01*
D02*
G37*
G36*
X2962307Y358153D02*
Y349340D01*
X2971120D01*
X2970912Y350914D01*
X2969919Y353312D01*
X2968339Y355372D01*
X2966279Y356953D01*
X2963880Y357946D01*
X2962307Y358153D01*
D02*
G37*
G36*
X2960306D02*
X2958732Y357946D01*
X2956334Y356953D01*
X2954274Y355372D01*
X2952694Y353312D01*
X2951700Y350914D01*
X2951493Y349340D01*
X2960306D01*
Y358153D01*
D02*
G37*
G36*
X2925640D02*
Y349340D01*
X2934453D01*
X2934246Y350914D01*
X2933252Y353312D01*
X2931672Y355372D01*
X2929612Y356953D01*
X2927214Y357946D01*
X2925640Y358153D01*
D02*
G37*
G36*
X2923640D02*
X2922066Y357946D01*
X2919667Y356953D01*
X2917607Y355372D01*
X2916027Y353312D01*
X2915034Y350914D01*
X2914826Y349340D01*
X2923640D01*
Y358153D01*
D02*
G37*
G36*
X2888973D02*
Y349340D01*
X2897787D01*
X2897579Y350914D01*
X2896586Y353312D01*
X2895005Y355372D01*
X2892946Y356953D01*
X2890547Y357946D01*
X2888973Y358153D01*
D02*
G37*
G36*
X2886973D02*
X2885399Y357946D01*
X2883000Y356953D01*
X2880941Y355372D01*
X2879360Y353312D01*
X2878367Y350914D01*
X2878160Y349340D01*
X2886973D01*
Y358153D01*
D02*
G37*
G36*
X2852307D02*
Y349340D01*
X2861120D01*
X2860913Y350914D01*
X2859919Y353312D01*
X2858339Y355372D01*
X2856279Y356953D01*
X2853880Y357946D01*
X2852307Y358153D01*
D02*
G37*
G36*
X2850306D02*
X2848733Y357946D01*
X2846334Y356953D01*
X2844274Y355372D01*
X2842694Y353312D01*
X2841700Y350914D01*
X2841493Y349340D01*
X2850306D01*
Y358153D01*
D02*
G37*
G36*
X2815640D02*
Y349340D01*
X2824453D01*
X2824246Y350914D01*
X2823253Y353312D01*
X2821672Y355372D01*
X2819612Y356953D01*
X2817214Y357946D01*
X2815640Y358153D01*
D02*
G37*
G36*
X2813640D02*
X2812066Y357946D01*
X2809667Y356953D01*
X2807608Y355372D01*
X2806027Y353312D01*
X2805034Y350914D01*
X2804826Y349340D01*
X2813640D01*
Y358153D01*
D02*
G37*
G36*
X2778973D02*
Y349340D01*
X2787787D01*
X2787579Y350914D01*
X2786586Y353312D01*
X2785005Y355372D01*
X2782946Y356953D01*
X2780547Y357946D01*
X2778973Y358153D01*
D02*
G37*
G36*
X2776973D02*
X2775399Y357946D01*
X2773001Y356953D01*
X2770941Y355372D01*
X2769361Y353312D01*
X2768367Y350914D01*
X2768160Y349340D01*
X2776973D01*
Y358153D01*
D02*
G37*
G36*
X2742307D02*
Y349340D01*
X2751120D01*
X2750913Y350914D01*
X2749919Y353312D01*
X2748339Y355372D01*
X2746279Y356953D01*
X2743881Y357946D01*
X2742307Y358153D01*
D02*
G37*
G36*
X2740307D02*
X2738733Y357946D01*
X2736334Y356953D01*
X2734274Y355372D01*
X2732694Y353312D01*
X2731700Y350914D01*
X2731493Y349340D01*
X2740307D01*
Y358153D01*
D02*
G37*
G36*
X2705640D02*
Y349340D01*
X2714453D01*
X2714246Y350914D01*
X2713253Y353312D01*
X2711672Y355372D01*
X2709612Y356953D01*
X2707214Y357946D01*
X2705640Y358153D01*
D02*
G37*
G36*
X2703640D02*
X2702066Y357946D01*
X2699667Y356953D01*
X2697608Y355372D01*
X2696027Y353312D01*
X2695034Y350914D01*
X2694827Y349340D01*
X2703640D01*
Y358153D01*
D02*
G37*
G36*
X2668973D02*
Y349340D01*
X2677787D01*
X2677580Y350914D01*
X2676586Y353312D01*
X2675005Y355372D01*
X2672946Y356953D01*
X2670547Y357946D01*
X2668973Y358153D01*
D02*
G37*
G36*
X2666973D02*
X2665399Y357946D01*
X2663001Y356953D01*
X2660941Y355372D01*
X2659361Y353312D01*
X2658367Y350914D01*
X2658160Y349340D01*
X2666973D01*
Y358153D01*
D02*
G37*
G36*
X3230120Y349440D02*
X3221309D01*
X3221516Y347867D01*
X3222509Y345468D01*
X3224089Y343409D01*
X3226148Y341829D01*
X3228546Y340836D01*
X3230120Y340629D01*
Y349440D01*
D02*
G37*
G36*
X3240931D02*
X3232120D01*
Y340629D01*
X3233694Y340836D01*
X3236092Y341829D01*
X3238151Y343409D01*
X3239731Y345468D01*
X3240724Y347867D01*
X3240931Y349440D01*
D02*
G37*
G36*
X3255520D02*
X3246662D01*
Y340582D01*
X3255520D01*
Y349440D01*
D02*
G37*
G36*
X2971120Y347340D02*
X2962307D01*
Y338527D01*
X2963880Y338734D01*
X2966279Y339727D01*
X2968339Y341308D01*
X2969919Y343368D01*
X2970912Y345766D01*
X2971120Y347340D01*
D02*
G37*
G36*
X2960306D02*
X2951493D01*
X2951700Y345766D01*
X2952694Y343368D01*
X2954274Y341308D01*
X2956334Y339727D01*
X2958732Y338734D01*
X2960306Y338527D01*
Y347340D01*
D02*
G37*
G36*
X2934453D02*
X2925640D01*
Y338527D01*
X2927214Y338734D01*
X2929612Y339727D01*
X2931672Y341308D01*
X2933252Y343368D01*
X2934246Y345766D01*
X2934453Y347340D01*
D02*
G37*
G36*
X2923640D02*
X2914826D01*
X2915034Y345766D01*
X2916027Y343368D01*
X2917607Y341308D01*
X2919667Y339727D01*
X2922066Y338734D01*
X2923640Y338527D01*
Y347340D01*
D02*
G37*
G36*
X2897787D02*
X2888973D01*
Y338527D01*
X2890547Y338734D01*
X2892946Y339727D01*
X2895005Y341308D01*
X2896586Y343368D01*
X2897579Y345766D01*
X2897787Y347340D01*
D02*
G37*
G36*
X2886973D02*
X2878160D01*
X2878367Y345766D01*
X2879360Y343368D01*
X2880941Y341308D01*
X2883000Y339727D01*
X2885399Y338734D01*
X2886973Y338527D01*
Y347340D01*
D02*
G37*
G36*
X2861120D02*
X2852307D01*
Y338527D01*
X2853880Y338734D01*
X2856279Y339727D01*
X2858339Y341308D01*
X2859919Y343368D01*
X2860913Y345766D01*
X2861120Y347340D01*
D02*
G37*
G36*
X2850306D02*
X2841493D01*
X2841700Y345766D01*
X2842694Y343368D01*
X2844274Y341308D01*
X2846334Y339727D01*
X2848733Y338734D01*
X2850306Y338527D01*
Y347340D01*
D02*
G37*
G36*
X2824453D02*
X2815640D01*
Y338527D01*
X2817214Y338734D01*
X2819612Y339727D01*
X2821672Y341308D01*
X2823253Y343368D01*
X2824246Y345766D01*
X2824453Y347340D01*
D02*
G37*
G36*
X2813640D02*
X2804826D01*
X2805034Y345766D01*
X2806027Y343368D01*
X2807608Y341308D01*
X2809667Y339727D01*
X2812066Y338734D01*
X2813640Y338527D01*
Y347340D01*
D02*
G37*
G36*
X2787787D02*
X2778973D01*
Y338527D01*
X2780547Y338734D01*
X2782946Y339727D01*
X2785005Y341308D01*
X2786586Y343368D01*
X2787579Y345766D01*
X2787787Y347340D01*
D02*
G37*
G36*
X2776973D02*
X2768160D01*
X2768367Y345766D01*
X2769361Y343368D01*
X2770941Y341308D01*
X2773001Y339727D01*
X2775399Y338734D01*
X2776973Y338527D01*
Y347340D01*
D02*
G37*
G36*
X2751120D02*
X2742307D01*
Y338527D01*
X2743881Y338734D01*
X2746279Y339727D01*
X2748339Y341308D01*
X2749919Y343368D01*
X2750913Y345766D01*
X2751120Y347340D01*
D02*
G37*
G36*
X2740307D02*
X2731493D01*
X2731700Y345766D01*
X2732694Y343368D01*
X2734274Y341308D01*
X2736334Y339727D01*
X2738733Y338734D01*
X2740307Y338527D01*
Y347340D01*
D02*
G37*
G36*
X2714453D02*
X2705640D01*
Y338527D01*
X2707214Y338734D01*
X2709612Y339727D01*
X2711672Y341308D01*
X2713253Y343368D01*
X2714246Y345766D01*
X2714453Y347340D01*
D02*
G37*
G36*
X2703640D02*
X2694827D01*
X2695034Y345766D01*
X2696027Y343368D01*
X2697608Y341308D01*
X2699667Y339727D01*
X2702066Y338734D01*
X2703640Y338527D01*
Y347340D01*
D02*
G37*
G36*
X2677787D02*
X2668973D01*
Y338527D01*
X2670547Y338734D01*
X2672946Y339727D01*
X2675005Y341308D01*
X2676586Y343368D01*
X2677580Y345766D01*
X2677787Y347340D01*
D02*
G37*
G36*
X2666973D02*
X2658160D01*
X2658367Y345766D01*
X2659361Y343368D01*
X2660941Y341308D01*
X2663001Y339727D01*
X2665399Y338734D01*
X2666973Y338527D01*
Y347340D01*
D02*
G37*
G36*
X3232120Y334851D02*
Y326040D01*
X3240931D01*
X3240724Y327613D01*
X3239731Y330011D01*
X3238151Y332071D01*
X3236092Y333651D01*
X3233694Y334644D01*
X3232120Y334851D01*
D02*
G37*
G36*
X3255520D02*
X3253947Y334644D01*
X3251548Y333651D01*
X3249489Y332071D01*
X3247909Y330011D01*
X3246916Y327613D01*
X3246709Y326040D01*
X3255520D01*
Y334851D01*
D02*
G37*
G36*
X3230120D02*
X3228546Y334644D01*
X3226148Y333651D01*
X3224089Y332071D01*
X3222509Y330011D01*
X3221516Y327613D01*
X3221309Y326040D01*
X3230120D01*
Y334851D01*
D02*
G37*
G36*
X3255520Y324040D02*
X3246709D01*
X3246916Y322467D01*
X3247909Y320069D01*
X3249489Y318009D01*
X3251548Y316429D01*
X3253947Y315436D01*
X3255520Y315229D01*
Y324040D01*
D02*
G37*
G36*
X3230120D02*
X3221309D01*
X3221516Y322467D01*
X3222509Y320069D01*
X3224089Y318009D01*
X3226148Y316429D01*
X3228546Y315436D01*
X3230120Y315229D01*
Y324040D01*
D02*
G37*
G36*
X3240931D02*
X3232120D01*
Y315229D01*
X3233694Y315436D01*
X3236092Y316429D01*
X3238151Y318009D01*
X3239731Y320069D01*
X3240724Y322467D01*
X3240931Y324040D01*
D02*
G37*
G36*
X2962307Y322153D02*
Y313340D01*
X2971120D01*
X2970912Y314914D01*
X2969919Y317313D01*
X2968339Y319372D01*
X2966279Y320953D01*
X2963880Y321946D01*
X2962307Y322153D01*
D02*
G37*
G36*
X2960306D02*
X2958732Y321946D01*
X2956334Y320953D01*
X2954274Y319372D01*
X2952694Y317313D01*
X2951700Y314914D01*
X2951493Y313340D01*
X2960306D01*
Y322153D01*
D02*
G37*
G36*
X2925640D02*
Y313340D01*
X2934453D01*
X2934246Y314914D01*
X2933252Y317313D01*
X2931672Y319372D01*
X2929612Y320953D01*
X2927214Y321946D01*
X2925640Y322153D01*
D02*
G37*
G36*
X2923640D02*
X2922066Y321946D01*
X2919667Y320953D01*
X2917607Y319372D01*
X2916027Y317313D01*
X2915034Y314914D01*
X2914826Y313340D01*
X2923640D01*
Y322153D01*
D02*
G37*
G36*
X2888973D02*
Y313340D01*
X2897787D01*
X2897579Y314914D01*
X2896586Y317313D01*
X2895005Y319372D01*
X2892946Y320953D01*
X2890547Y321946D01*
X2888973Y322153D01*
D02*
G37*
G36*
X2886973D02*
X2885399Y321946D01*
X2883000Y320953D01*
X2880941Y319372D01*
X2879360Y317313D01*
X2878367Y314914D01*
X2878160Y313340D01*
X2886973D01*
Y322153D01*
D02*
G37*
G36*
X2852307D02*
Y313340D01*
X2861120D01*
X2860913Y314914D01*
X2859919Y317313D01*
X2858339Y319372D01*
X2856279Y320953D01*
X2853880Y321946D01*
X2852307Y322153D01*
D02*
G37*
G36*
X2850306D02*
X2848733Y321946D01*
X2846334Y320953D01*
X2844274Y319372D01*
X2842694Y317313D01*
X2841700Y314914D01*
X2841493Y313340D01*
X2850306D01*
Y322153D01*
D02*
G37*
G36*
X2815640D02*
Y313340D01*
X2824453D01*
X2824246Y314914D01*
X2823253Y317313D01*
X2821672Y319372D01*
X2819612Y320953D01*
X2817214Y321946D01*
X2815640Y322153D01*
D02*
G37*
G36*
X2813640D02*
X2812066Y321946D01*
X2809667Y320953D01*
X2807608Y319372D01*
X2806027Y317313D01*
X2805034Y314914D01*
X2804826Y313340D01*
X2813640D01*
Y322153D01*
D02*
G37*
G36*
X2778973D02*
Y313340D01*
X2787787D01*
X2787579Y314914D01*
X2786586Y317313D01*
X2785005Y319372D01*
X2782946Y320953D01*
X2780547Y321946D01*
X2778973Y322153D01*
D02*
G37*
G36*
X2776973D02*
X2775399Y321946D01*
X2773001Y320953D01*
X2770941Y319372D01*
X2769361Y317313D01*
X2768367Y314914D01*
X2768160Y313340D01*
X2776973D01*
Y322153D01*
D02*
G37*
G36*
X2742307D02*
Y313340D01*
X2751120D01*
X2750913Y314914D01*
X2749919Y317313D01*
X2748339Y319372D01*
X2746279Y320953D01*
X2743881Y321946D01*
X2742307Y322153D01*
D02*
G37*
G36*
X2740307D02*
X2738733Y321946D01*
X2736334Y320953D01*
X2734274Y319372D01*
X2732694Y317313D01*
X2731700Y314914D01*
X2731493Y313340D01*
X2740307D01*
Y322153D01*
D02*
G37*
G36*
X2705640D02*
Y313340D01*
X2714453D01*
X2714246Y314914D01*
X2713253Y317313D01*
X2711672Y319372D01*
X2709612Y320953D01*
X2707214Y321946D01*
X2705640Y322153D01*
D02*
G37*
G36*
X2703640D02*
X2702066Y321946D01*
X2699667Y320953D01*
X2697608Y319372D01*
X2696027Y317313D01*
X2695034Y314914D01*
X2694827Y313340D01*
X2703640D01*
Y322153D01*
D02*
G37*
G36*
X2668973D02*
Y313340D01*
X2677787D01*
X2677580Y314914D01*
X2676586Y317313D01*
X2675005Y319372D01*
X2672946Y320953D01*
X2670547Y321946D01*
X2668973Y322153D01*
D02*
G37*
G36*
X2666973D02*
X2665399Y321946D01*
X2663001Y320953D01*
X2660941Y319372D01*
X2659361Y317313D01*
X2658367Y314914D01*
X2658160Y313340D01*
X2666973D01*
Y322153D01*
D02*
G37*
G36*
X3104520Y280226D02*
X3101042Y276748D01*
X3102179Y275988D01*
X3104520Y275522D01*
X3106861Y275988D01*
X3107998Y276748D01*
X3104520Y280226D01*
D02*
G37*
G36*
X2971120Y275340D02*
X2962307D01*
Y266527D01*
X2963880Y266734D01*
X2966279Y267727D01*
X2968339Y269308D01*
X2969919Y271367D01*
X2970912Y273766D01*
X2971120Y275340D01*
D02*
G37*
G36*
X2960306D02*
X2951493D01*
X2951700Y273766D01*
X2952694Y271367D01*
X2954274Y269308D01*
X2956334Y267727D01*
X2958732Y266734D01*
X2960306Y266527D01*
Y275340D01*
D02*
G37*
G36*
X2934453D02*
X2925640D01*
Y266527D01*
X2927214Y266734D01*
X2929612Y267727D01*
X2931672Y269308D01*
X2933252Y271367D01*
X2934246Y273766D01*
X2934453Y275340D01*
D02*
G37*
G36*
X2923640D02*
X2914826D01*
X2915034Y273766D01*
X2916027Y271367D01*
X2917607Y269308D01*
X2919667Y267727D01*
X2922066Y266734D01*
X2923640Y266527D01*
Y275340D01*
D02*
G37*
G36*
X2897787D02*
X2888973D01*
Y266527D01*
X2890547Y266734D01*
X2892946Y267727D01*
X2895005Y269308D01*
X2896586Y271367D01*
X2897579Y273766D01*
X2897787Y275340D01*
D02*
G37*
G36*
X2886973D02*
X2878160D01*
X2878367Y273766D01*
X2879360Y271367D01*
X2880941Y269308D01*
X2883000Y267727D01*
X2885399Y266734D01*
X2886973Y266527D01*
Y275340D01*
D02*
G37*
G36*
X2861120D02*
X2852307D01*
Y266527D01*
X2853880Y266734D01*
X2856279Y267727D01*
X2858339Y269308D01*
X2859919Y271367D01*
X2860913Y273766D01*
X2861120Y275340D01*
D02*
G37*
G36*
X2850306D02*
X2841493D01*
X2841700Y273766D01*
X2842694Y271367D01*
X2844274Y269308D01*
X2846334Y267727D01*
X2848733Y266734D01*
X2850306Y266527D01*
Y275340D01*
D02*
G37*
G36*
X2824453D02*
X2815640D01*
Y266527D01*
X2817214Y266734D01*
X2819612Y267727D01*
X2821672Y269308D01*
X2823253Y271367D01*
X2824246Y273766D01*
X2824453Y275340D01*
D02*
G37*
G36*
X2813640D02*
X2804826D01*
X2805034Y273766D01*
X2806027Y271367D01*
X2807608Y269308D01*
X2809667Y267727D01*
X2812066Y266734D01*
X2813640Y266527D01*
Y275340D01*
D02*
G37*
G36*
X2787787D02*
X2778973D01*
Y266527D01*
X2780547Y266734D01*
X2782946Y267727D01*
X2785005Y269308D01*
X2786586Y271367D01*
X2787579Y273766D01*
X2787787Y275340D01*
D02*
G37*
G36*
X2776973D02*
X2768160D01*
X2768367Y273766D01*
X2769361Y271367D01*
X2770941Y269308D01*
X2773001Y267727D01*
X2775399Y266734D01*
X2776973Y266527D01*
Y275340D01*
D02*
G37*
G36*
X2751120D02*
X2742307D01*
Y266527D01*
X2743881Y266734D01*
X2746279Y267727D01*
X2748339Y269308D01*
X2749919Y271367D01*
X2750913Y273766D01*
X2751120Y275340D01*
D02*
G37*
G36*
X2740307D02*
X2731493D01*
X2731700Y273766D01*
X2732694Y271367D01*
X2734274Y269308D01*
X2736334Y267727D01*
X2738733Y266734D01*
X2740307Y266527D01*
Y275340D01*
D02*
G37*
G36*
X2714453D02*
X2705640D01*
Y266527D01*
X2707214Y266734D01*
X2709612Y267727D01*
X2711672Y269308D01*
X2713253Y271367D01*
X2714246Y273766D01*
X2714453Y275340D01*
D02*
G37*
G36*
X2703640D02*
X2694827D01*
X2695034Y273766D01*
X2696027Y271367D01*
X2697608Y269308D01*
X2699667Y267727D01*
X2702066Y266734D01*
X2703640Y266527D01*
Y275340D01*
D02*
G37*
G36*
X2677787D02*
X2668973D01*
Y266527D01*
X2670547Y266734D01*
X2672946Y267727D01*
X2675005Y269308D01*
X2676586Y271367D01*
X2677580Y273766D01*
X2677787Y275340D01*
D02*
G37*
G36*
X2666973D02*
X2658160D01*
X2658367Y273766D01*
X2659361Y271367D01*
X2660941Y269308D01*
X2663001Y267727D01*
X2665399Y266734D01*
X2666973Y266527D01*
Y275340D01*
D02*
G37*
G36*
X2641120D02*
X2632307D01*
Y266527D01*
X2633881Y266734D01*
X2636279Y267727D01*
X2638339Y269308D01*
X2639919Y271367D01*
X2640913Y273766D01*
X2641120Y275340D01*
D02*
G37*
G36*
X2630307D02*
X2621493D01*
X2621700Y273766D01*
X2622694Y271367D01*
X2624275Y269308D01*
X2626334Y267727D01*
X2628733Y266734D01*
X2630307Y266527D01*
Y275340D01*
D02*
G37*
G36*
X2597307Y253321D02*
Y241340D01*
X2609287D01*
X2608972Y243734D01*
X2607662Y246896D01*
X2606927Y247855D01*
Y250960D01*
X2603821D01*
X2602863Y251695D01*
X2599700Y253005D01*
X2597307Y253321D01*
D02*
G37*
G36*
X2962307Y250154D02*
Y241340D01*
X2971120D01*
X2970912Y242914D01*
X2969919Y245313D01*
X2968339Y247372D01*
X2966279Y248953D01*
X2963880Y249946D01*
X2962307Y250154D01*
D02*
G37*
G36*
X2960306D02*
X2958732Y249946D01*
X2956334Y248953D01*
X2954274Y247372D01*
X2952694Y245313D01*
X2951700Y242914D01*
X2951493Y241340D01*
X2960306D01*
Y250154D01*
D02*
G37*
G36*
X2925640D02*
Y241340D01*
X2934453D01*
X2934246Y242914D01*
X2933252Y245313D01*
X2931672Y247372D01*
X2929612Y248953D01*
X2927214Y249946D01*
X2925640Y250154D01*
D02*
G37*
G36*
X2923640D02*
X2922066Y249946D01*
X2919667Y248953D01*
X2917607Y247372D01*
X2916027Y245313D01*
X2915034Y242914D01*
X2914826Y241340D01*
X2923640D01*
Y250154D01*
D02*
G37*
G36*
X2888973D02*
Y241340D01*
X2897787D01*
X2897579Y242914D01*
X2896586Y245313D01*
X2895005Y247372D01*
X2892946Y248953D01*
X2890547Y249946D01*
X2888973Y250154D01*
D02*
G37*
G36*
X2886973D02*
X2885399Y249946D01*
X2883000Y248953D01*
X2880941Y247372D01*
X2879360Y245313D01*
X2878367Y242914D01*
X2878160Y241340D01*
X2886973D01*
Y250154D01*
D02*
G37*
G36*
X2852307D02*
Y241340D01*
X2861120D01*
X2860913Y242914D01*
X2859919Y245313D01*
X2858339Y247372D01*
X2856279Y248953D01*
X2853880Y249946D01*
X2852307Y250154D01*
D02*
G37*
G36*
X2850306D02*
X2848733Y249946D01*
X2846334Y248953D01*
X2844274Y247372D01*
X2842694Y245313D01*
X2841700Y242914D01*
X2841493Y241340D01*
X2850306D01*
Y250154D01*
D02*
G37*
G36*
X2815640D02*
Y241340D01*
X2824453D01*
X2824246Y242914D01*
X2823253Y245313D01*
X2821672Y247372D01*
X2819612Y248953D01*
X2817214Y249946D01*
X2815640Y250154D01*
D02*
G37*
G36*
X2813640D02*
X2812066Y249946D01*
X2809667Y248953D01*
X2807608Y247372D01*
X2806027Y245313D01*
X2805034Y242914D01*
X2804826Y241340D01*
X2813640D01*
Y250154D01*
D02*
G37*
G36*
X2778973D02*
Y241340D01*
X2787787D01*
X2787579Y242914D01*
X2786586Y245313D01*
X2785005Y247372D01*
X2782946Y248953D01*
X2780547Y249946D01*
X2778973Y250154D01*
D02*
G37*
G36*
X2776973D02*
X2775399Y249946D01*
X2773001Y248953D01*
X2770941Y247372D01*
X2769361Y245313D01*
X2768367Y242914D01*
X2768160Y241340D01*
X2776973D01*
Y250154D01*
D02*
G37*
G36*
X2742307D02*
Y241340D01*
X2751120D01*
X2750913Y242914D01*
X2749919Y245313D01*
X2748339Y247372D01*
X2746279Y248953D01*
X2743881Y249946D01*
X2742307Y250154D01*
D02*
G37*
G36*
X2740307D02*
X2738733Y249946D01*
X2736334Y248953D01*
X2734274Y247372D01*
X2732694Y245313D01*
X2731700Y242914D01*
X2731493Y241340D01*
X2740307D01*
Y250154D01*
D02*
G37*
G36*
X2705640D02*
Y241340D01*
X2714453D01*
X2714246Y242914D01*
X2713253Y245313D01*
X2711672Y247372D01*
X2709612Y248953D01*
X2707214Y249946D01*
X2705640Y250154D01*
D02*
G37*
G36*
X2703640D02*
X2702066Y249946D01*
X2699667Y248953D01*
X2697608Y247372D01*
X2696027Y245313D01*
X2695034Y242914D01*
X2694827Y241340D01*
X2703640D01*
Y250154D01*
D02*
G37*
G36*
X2668973D02*
Y241340D01*
X2677787D01*
X2677580Y242914D01*
X2676586Y245313D01*
X2675005Y247372D01*
X2672946Y248953D01*
X2670547Y249946D01*
X2668973Y250154D01*
D02*
G37*
G36*
X2666973D02*
X2665399Y249946D01*
X2663001Y248953D01*
X2660941Y247372D01*
X2659361Y245313D01*
X2658367Y242914D01*
X2658160Y241340D01*
X2666973D01*
Y250154D01*
D02*
G37*
G36*
X2632307D02*
Y241340D01*
X2641120D01*
X2640913Y242914D01*
X2639919Y245313D01*
X2638339Y247372D01*
X2636279Y248953D01*
X2633881Y249946D01*
X2632307Y250154D01*
D02*
G37*
G36*
X2630307D02*
X2628733Y249946D01*
X2626334Y248953D01*
X2624275Y247372D01*
X2622694Y245313D01*
X2621700Y242914D01*
X2621493Y241340D01*
X2630307D01*
Y250154D01*
D02*
G37*
G36*
X2595307Y253321D02*
X2592913Y253005D01*
X2589751Y251695D01*
X2588792Y250960D01*
X2585687D01*
Y247855D01*
X2584951Y246896D01*
X2583641Y243734D01*
X2583326Y241340D01*
X2595307D01*
Y253321D01*
D02*
G37*
G36*
X2997307D02*
Y241340D01*
X3009287D01*
X3008972Y243734D01*
X3007662Y246896D01*
X3005578Y249612D01*
X3002863Y251695D01*
X2999700Y253005D01*
X2997307Y253321D01*
D02*
G37*
G36*
X2995307D02*
X2992913Y253005D01*
X2989751Y251695D01*
X2987035Y249612D01*
X2984951Y246896D01*
X2983641Y243734D01*
X2983326Y241340D01*
X2995307D01*
Y253321D01*
D02*
G37*
G36*
X2971120Y239340D02*
X2962307D01*
Y230527D01*
X2963880Y230734D01*
X2966279Y231727D01*
X2968339Y233308D01*
X2969919Y235368D01*
X2970912Y237766D01*
X2971120Y239340D01*
D02*
G37*
G36*
X2960306D02*
X2951493D01*
X2951700Y237766D01*
X2952694Y235368D01*
X2954274Y233308D01*
X2956334Y231727D01*
X2958732Y230734D01*
X2960306Y230527D01*
Y239340D01*
D02*
G37*
G36*
X2934453D02*
X2925640D01*
Y230527D01*
X2927214Y230734D01*
X2929612Y231727D01*
X2931672Y233308D01*
X2933252Y235368D01*
X2934246Y237766D01*
X2934453Y239340D01*
D02*
G37*
G36*
X2923640D02*
X2914826D01*
X2915034Y237766D01*
X2916027Y235368D01*
X2917607Y233308D01*
X2919667Y231727D01*
X2922066Y230734D01*
X2923640Y230527D01*
Y239340D01*
D02*
G37*
G36*
X2897787D02*
X2888973D01*
Y230527D01*
X2890547Y230734D01*
X2892946Y231727D01*
X2895005Y233308D01*
X2896586Y235368D01*
X2897579Y237766D01*
X2897787Y239340D01*
D02*
G37*
G36*
X2886973D02*
X2878160D01*
X2878367Y237766D01*
X2879360Y235368D01*
X2880941Y233308D01*
X2883000Y231727D01*
X2885399Y230734D01*
X2886973Y230527D01*
Y239340D01*
D02*
G37*
G36*
X2861120D02*
X2852307D01*
Y230527D01*
X2853880Y230734D01*
X2856279Y231727D01*
X2858339Y233308D01*
X2859919Y235368D01*
X2860913Y237766D01*
X2861120Y239340D01*
D02*
G37*
G36*
X2850306D02*
X2841493D01*
X2841700Y237766D01*
X2842694Y235368D01*
X2844274Y233308D01*
X2846334Y231727D01*
X2848733Y230734D01*
X2850306Y230527D01*
Y239340D01*
D02*
G37*
G36*
X2824453D02*
X2815640D01*
Y230527D01*
X2817214Y230734D01*
X2819612Y231727D01*
X2821672Y233308D01*
X2823253Y235368D01*
X2824246Y237766D01*
X2824453Y239340D01*
D02*
G37*
G36*
X2813640D02*
X2804826D01*
X2805034Y237766D01*
X2806027Y235368D01*
X2807608Y233308D01*
X2809667Y231727D01*
X2812066Y230734D01*
X2813640Y230527D01*
Y239340D01*
D02*
G37*
G36*
X2787787D02*
X2778973D01*
Y230527D01*
X2780547Y230734D01*
X2782946Y231727D01*
X2785005Y233308D01*
X2786586Y235368D01*
X2787579Y237766D01*
X2787787Y239340D01*
D02*
G37*
G36*
X2776973D02*
X2768160D01*
X2768367Y237766D01*
X2769361Y235368D01*
X2770941Y233308D01*
X2773001Y231727D01*
X2775399Y230734D01*
X2776973Y230527D01*
Y239340D01*
D02*
G37*
G36*
X2751120D02*
X2742307D01*
Y230527D01*
X2743881Y230734D01*
X2746279Y231727D01*
X2748339Y233308D01*
X2749919Y235368D01*
X2750913Y237766D01*
X2751120Y239340D01*
D02*
G37*
G36*
X2740307D02*
X2731493D01*
X2731700Y237766D01*
X2732694Y235368D01*
X2734274Y233308D01*
X2736334Y231727D01*
X2738733Y230734D01*
X2740307Y230527D01*
Y239340D01*
D02*
G37*
G36*
X2714453D02*
X2705640D01*
Y230527D01*
X2707214Y230734D01*
X2709612Y231727D01*
X2711672Y233308D01*
X2713253Y235368D01*
X2714246Y237766D01*
X2714453Y239340D01*
D02*
G37*
G36*
X2703640D02*
X2694827D01*
X2695034Y237766D01*
X2696027Y235368D01*
X2697608Y233308D01*
X2699667Y231727D01*
X2702066Y230734D01*
X2703640Y230527D01*
Y239340D01*
D02*
G37*
G36*
X2677787D02*
X2668973D01*
Y230527D01*
X2670547Y230734D01*
X2672946Y231727D01*
X2675005Y233308D01*
X2676586Y235368D01*
X2677580Y237766D01*
X2677787Y239340D01*
D02*
G37*
G36*
X2666973D02*
X2658160D01*
X2658367Y237766D01*
X2659361Y235368D01*
X2660941Y233308D01*
X2663001Y231727D01*
X2665399Y230734D01*
X2666973Y230527D01*
Y239340D01*
D02*
G37*
G36*
X2641120D02*
X2632307D01*
Y230527D01*
X2633881Y230734D01*
X2636279Y231727D01*
X2638339Y233308D01*
X2639919Y235368D01*
X2640913Y237766D01*
X2641120Y239340D01*
D02*
G37*
G36*
X2630307D02*
X2621493D01*
X2621700Y237766D01*
X2622694Y235368D01*
X2624275Y233308D01*
X2626334Y231727D01*
X2628733Y230734D01*
X2630307Y230527D01*
Y239340D01*
D02*
G37*
G36*
X3009287Y239340D02*
X2997307D01*
Y227360D01*
X2999700Y227675D01*
X3002863Y228985D01*
X3005578Y231068D01*
X3007662Y233784D01*
X3008972Y236946D01*
X3009287Y239340D01*
D02*
G37*
G36*
X2609287Y239340D02*
X2597307D01*
Y227360D01*
X2599700Y227675D01*
X2602863Y228985D01*
X2603821Y229720D01*
X2606927D01*
Y232826D01*
X2607662Y233784D01*
X2608972Y236946D01*
X2609287Y239340D01*
D02*
G37*
G36*
X2595307D02*
X2583326D01*
X2583641Y236946D01*
X2584951Y233784D01*
X2585687Y232826D01*
Y229720D01*
X2588792D01*
X2589751Y228985D01*
X2592913Y227675D01*
X2595307Y227360D01*
Y239340D01*
D02*
G37*
G36*
X2995307Y239340D02*
X2983326D01*
X2983641Y236946D01*
X2984951Y233784D01*
X2987035Y231068D01*
X2989751Y228985D01*
X2992913Y227675D01*
X2995307Y227360D01*
Y239340D01*
D02*
G37*
G36*
X2316520Y685758D02*
X2314179Y685292D01*
X2313042Y684532D01*
X2316520Y681054D01*
X2319998Y684532D01*
X2318861Y685292D01*
X2316520Y685758D01*
D02*
G37*
G36*
X2219520Y671738D02*
X2217569Y671350D01*
X2215915Y670245D01*
X2214810Y668591D01*
X2214422Y666640D01*
X2214810Y664689D01*
X2215915Y663035D01*
X2217569Y661930D01*
X2219520Y661542D01*
X2221471Y661930D01*
X2223125Y663035D01*
X2224230Y664689D01*
X2224618Y666640D01*
X2224230Y668591D01*
X2223125Y670245D01*
X2221471Y671350D01*
X2219520Y671738D01*
D02*
G37*
G36*
X2067520Y656738D02*
X2065569Y656350D01*
X2063915Y655245D01*
X2062810Y653591D01*
X2062422Y651640D01*
X2062810Y649689D01*
X2063915Y648035D01*
X2064153Y647876D01*
Y646606D01*
X2064042Y646532D01*
X2067520Y643054D01*
X2070998Y646532D01*
X2070887Y646606D01*
Y647876D01*
X2071125Y648035D01*
X2072230Y649689D01*
X2072618Y651640D01*
X2072230Y653591D01*
X2071125Y655245D01*
X2069471Y656350D01*
X2067520Y656738D01*
D02*
G37*
G36*
X2095520Y650738D02*
X2093569Y650350D01*
X2091915Y649245D01*
X2090810Y647591D01*
X2090422Y645640D01*
X2090810Y643689D01*
X2091915Y642035D01*
X2093569Y640930D01*
X2095520Y640542D01*
X2097471Y640930D01*
X2099125Y642035D01*
X2100230Y643689D01*
X2100618Y645640D01*
X2100230Y647591D01*
X2099125Y649245D01*
X2097471Y650350D01*
X2095520Y650738D01*
D02*
G37*
G36*
X2062628Y645118D02*
X2061868Y643981D01*
X2061402Y641640D01*
X2061868Y639299D01*
X2063112Y637438D01*
X2063253Y637002D01*
Y636278D01*
X2063112Y635842D01*
X2061868Y633981D01*
X2061402Y631640D01*
X2061868Y629299D01*
X2062628Y628162D01*
X2066813Y632347D01*
X2067520Y631640D01*
X2068227Y632347D01*
X2072412Y628162D01*
X2073172Y629299D01*
X2073638Y631640D01*
X2073172Y633981D01*
X2071928Y635842D01*
X2071787Y636278D01*
Y637002D01*
X2071928Y637438D01*
X2073172Y639299D01*
X2073638Y641640D01*
X2073172Y643981D01*
X2072412Y645118D01*
X2068227Y640933D01*
X2067520Y641640D01*
X2066813Y640933D01*
X2062628Y645118D01*
D02*
G37*
G36*
X2067520Y630226D02*
X2064042Y626748D01*
X2065179Y625988D01*
X2067520Y625522D01*
X2069861Y625988D01*
X2070998Y626748D01*
X2067520Y630226D01*
D02*
G37*
G36*
X2285520Y627053D02*
X2283179Y626588D01*
X2282042Y625828D01*
X2285520Y622350D01*
X2288998Y625828D01*
X2287861Y626588D01*
X2285520Y627053D01*
D02*
G37*
G36*
X2036520Y627738D02*
X2034569Y627350D01*
X2032915Y626245D01*
X2031810Y624591D01*
X2031422Y622640D01*
X2031810Y620689D01*
X2032915Y619035D01*
X2034569Y617930D01*
X2036520Y617542D01*
X2038471Y617930D01*
X2040125Y619035D01*
X2041230Y620689D01*
X2041618Y622640D01*
X2041230Y624591D01*
X2040125Y626245D01*
X2038471Y627350D01*
X2036520Y627738D01*
D02*
G37*
G36*
X2290412Y624414D02*
X2286934Y620936D01*
X2290412Y617458D01*
X2291172Y618595D01*
X2291638Y620936D01*
X2291172Y623277D01*
X2290412Y624414D01*
D02*
G37*
G36*
X2280628D02*
X2279868Y623277D01*
X2279402Y620936D01*
X2279868Y618595D01*
X2280628Y617458D01*
X2284106Y620936D01*
X2280628Y624414D01*
D02*
G37*
G36*
X2206520Y615465D02*
X2203042Y611987D01*
X2204179Y611228D01*
X2206520Y610762D01*
X2208861Y611228D01*
X2209998Y611987D01*
X2206520Y615465D01*
D02*
G37*
G36*
X2157520D02*
X2154042Y611987D01*
X2155179Y611228D01*
X2157520Y610762D01*
X2159861Y611228D01*
X2160998Y611987D01*
X2157520Y615465D01*
D02*
G37*
G36*
X2111520Y600738D02*
X2109569Y600350D01*
X2107915Y599245D01*
X2106810Y597591D01*
X2106422Y595640D01*
X2106810Y593689D01*
X2107915Y592035D01*
X2109569Y590930D01*
X2111520Y590542D01*
X2113471Y590930D01*
X2115125Y592035D01*
X2116230Y593689D01*
X2116618Y595640D01*
X2116230Y597591D01*
X2115125Y599245D01*
X2113471Y600350D01*
X2111520Y600738D01*
D02*
G37*
G36*
X2134078Y597978D02*
X2132127Y597590D01*
X2130473Y596484D01*
X2129368Y594831D01*
X2128980Y592880D01*
X2129368Y590929D01*
X2130473Y589275D01*
X2132127Y588170D01*
X2134078Y587782D01*
X2134812Y587928D01*
X2135712Y586812D01*
X2136046Y585131D01*
X2137151Y583477D01*
X2138805Y582372D01*
X2140756Y581984D01*
X2142707Y582372D01*
X2144361Y583477D01*
X2145466Y585131D01*
X2145854Y587082D01*
X2145466Y589033D01*
X2144361Y590687D01*
X2142707Y591792D01*
X2140756Y592180D01*
X2140022Y592034D01*
X2139176Y592880D01*
X2138788Y594831D01*
X2137683Y596484D01*
X2136029Y597590D01*
X2134078Y597978D01*
D02*
G37*
G36*
X2099520Y587738D02*
X2097569Y587350D01*
X2095915Y586245D01*
X2094810Y584591D01*
X2094422Y582640D01*
X2094810Y580689D01*
X2095915Y579035D01*
X2097569Y577930D01*
X2099520Y577542D01*
X2101471Y577930D01*
X2103125Y579035D01*
X2104230Y580689D01*
X2104618Y582640D01*
X2104230Y584591D01*
X2103125Y586245D01*
X2101471Y587350D01*
X2099520Y587738D01*
D02*
G37*
G36*
X2089277Y577495D02*
X2087327Y577107D01*
X2085673Y576002D01*
X2084568Y574348D01*
X2084179Y572397D01*
X2084568Y570447D01*
X2085673Y568793D01*
X2087327Y567687D01*
X2089277Y567299D01*
X2091228Y567687D01*
X2092882Y568793D01*
X2093274Y569379D01*
X2094471Y568884D01*
X2094422Y568640D01*
X2094810Y566689D01*
X2095915Y565035D01*
X2097569Y563930D01*
X2099520Y563542D01*
X2101471Y563930D01*
X2103125Y565035D01*
X2104230Y566689D01*
X2104618Y568640D01*
X2104230Y570591D01*
X2103125Y572245D01*
X2101471Y573350D01*
X2099520Y573738D01*
X2097569Y573350D01*
X2095915Y572245D01*
X2095523Y571658D01*
X2094327Y572154D01*
X2094375Y572397D01*
X2093987Y574348D01*
X2092882Y576002D01*
X2091228Y577107D01*
X2089277Y577495D01*
D02*
G37*
G36*
X2022520Y563791D02*
X2020179Y563325D01*
X2019042Y562565D01*
X2022520Y559087D01*
X2025998Y562565D01*
X2024861Y563325D01*
X2022520Y563791D01*
D02*
G37*
G36*
X2017628Y561151D02*
X2016868Y560014D01*
X2016402Y557673D01*
X2016868Y555332D01*
X2017628Y554195D01*
X2021106Y557673D01*
X2017628Y561151D01*
D02*
G37*
G36*
X2219519Y544225D02*
X2216041Y540747D01*
X2217178Y539987D01*
X2219519Y539522D01*
X2221860Y539987D01*
X2222997Y540747D01*
X2219519Y544225D01*
D02*
G37*
G36*
X2044520Y505757D02*
X2042179Y505292D01*
X2041042Y504532D01*
X2044520Y501054D01*
X2047998Y504532D01*
X2046861Y505292D01*
X2044520Y505757D01*
D02*
G37*
G36*
X2039628Y503118D02*
X2038868Y501981D01*
X2038403Y499640D01*
X2038868Y497299D01*
X2039628Y496162D01*
X2043106Y499640D01*
X2039628Y503118D01*
D02*
G37*
G36*
X2198519Y503737D02*
X2196568Y503349D01*
X2194915Y502244D01*
X2193809Y500590D01*
X2193421Y498639D01*
X2193809Y496688D01*
X2194915Y495035D01*
X2196568Y493929D01*
X2198519Y493541D01*
X2200470Y493929D01*
X2202124Y495035D01*
X2203229Y496688D01*
X2203617Y498639D01*
X2203229Y500590D01*
X2202124Y502244D01*
X2200470Y503349D01*
X2198519Y503737D01*
D02*
G37*
G36*
X2018520Y496738D02*
X2016569Y496350D01*
X2014915Y495245D01*
X2013810Y493591D01*
X2013422Y491640D01*
X2013810Y489689D01*
X2014915Y488035D01*
X2016569Y486930D01*
X2018520Y486542D01*
X2020471Y486930D01*
X2022125Y488035D01*
X2023230Y489689D01*
X2023618Y491640D01*
X2023230Y493591D01*
X2022125Y495245D01*
X2020471Y496350D01*
X2018520Y496738D01*
D02*
G37*
G36*
Y455738D02*
X2016569Y455350D01*
X2014915Y454245D01*
X2013810Y452591D01*
X2013422Y450640D01*
X2013810Y448689D01*
X2014915Y447035D01*
X2016569Y445930D01*
X2018520Y445542D01*
X2020471Y445930D01*
X2022125Y447035D01*
X2023230Y448689D01*
X2023618Y450640D01*
X2023230Y452591D01*
X2022125Y454245D01*
X2020471Y455350D01*
X2018520Y455738D01*
D02*
G37*
G36*
X2053628Y430118D02*
X2052868Y428981D01*
X2052402Y426640D01*
X2052868Y424299D01*
X2053628Y423162D01*
X2057106Y426640D01*
X2053628Y430118D01*
D02*
G37*
G36*
X2058520Y425226D02*
X2055042Y421748D01*
X2056179Y420988D01*
X2058520Y420522D01*
X2060861Y420988D01*
X2061998Y421748D01*
X2058520Y425226D01*
D02*
G37*
G36*
X2075520Y411758D02*
X2073179Y411292D01*
X2071520Y410183D01*
X2069861Y411292D01*
X2067520Y411758D01*
X2065179Y411292D01*
X2064042Y410532D01*
X2068227Y406347D01*
X2066813Y404933D01*
X2062628Y409118D01*
X2061868Y407981D01*
X2061402Y405640D01*
X2061868Y403299D01*
X2062308Y402640D01*
X2061868Y401981D01*
X2061402Y399640D01*
X2061868Y397299D01*
X2062628Y396162D01*
X2066813Y400347D01*
X2068227Y398933D01*
X2064042Y394748D01*
X2065179Y393988D01*
X2067520Y393522D01*
X2069861Y393988D01*
X2071520Y395097D01*
X2073179Y393988D01*
X2075520Y393522D01*
X2077861Y393988D01*
X2078998Y394748D01*
X2074813Y398933D01*
X2076227Y400347D01*
X2080412Y396162D01*
X2081172Y397299D01*
X2081638Y399640D01*
X2081172Y401981D01*
X2080732Y402640D01*
X2081172Y403299D01*
X2081638Y405640D01*
X2081172Y407981D01*
X2080412Y409118D01*
X2076227Y404933D01*
X2074813Y406347D01*
X2078998Y410532D01*
X2077861Y411292D01*
X2075520Y411758D01*
D02*
G37*
G36*
X2176520Y407757D02*
X2174179Y407292D01*
X2173042Y406532D01*
X2176520Y403054D01*
X2179998Y406532D01*
X2178861Y407292D01*
X2176520Y407757D01*
D02*
G37*
G36*
X2166520Y406738D02*
X2164569Y406350D01*
X2162915Y405245D01*
X2161810Y403591D01*
X2161422Y401640D01*
X2161810Y399689D01*
X2162915Y398035D01*
X2164569Y396930D01*
X2166520Y396542D01*
X2168471Y396930D01*
X2170125Y398035D01*
X2170284Y398273D01*
X2171554D01*
X2171628Y398162D01*
X2175106Y401640D01*
X2171628Y405118D01*
X2171554Y405007D01*
X2170284D01*
X2170125Y405245D01*
X2168471Y406350D01*
X2166520Y406738D01*
D02*
G37*
G36*
X2176520Y400226D02*
X2173042Y396748D01*
X2174179Y395988D01*
X2176520Y395522D01*
X2178861Y395988D01*
X2179998Y396748D01*
X2176520Y400226D01*
D02*
G37*
G36*
X2086520Y392508D02*
X2084179Y392042D01*
X2083042Y391282D01*
X2086520Y387804D01*
X2089998Y391282D01*
X2088861Y392042D01*
X2086520Y392508D01*
D02*
G37*
G36*
X2091412Y389868D02*
X2087934Y386390D01*
X2091412Y382912D01*
X2092172Y384049D01*
X2092637Y386390D01*
X2092172Y388731D01*
X2091412Y389868D01*
D02*
G37*
G36*
X2081628D02*
X2080868Y388731D01*
X2080402Y386390D01*
X2080868Y384049D01*
X2081628Y382912D01*
X2085106Y386390D01*
X2081628Y389868D01*
D02*
G37*
G36*
X2086520Y384976D02*
X2083042Y381498D01*
X2084179Y380738D01*
X2086520Y380272D01*
X2088861Y380738D01*
X2089998Y381498D01*
X2086520Y384976D01*
D02*
G37*
G36*
X2343628Y383118D02*
X2342868Y381981D01*
X2342402Y379640D01*
X2342868Y377299D01*
X2343628Y376162D01*
X2347106Y379640D01*
X2343628Y383118D01*
D02*
G37*
G36*
X2348520Y378226D02*
X2345042Y374748D01*
X2346179Y373988D01*
X2348520Y373522D01*
X2350861Y373988D01*
X2351998Y374748D01*
X2348520Y378226D01*
D02*
G37*
G36*
X2161725Y357215D02*
X2160965Y356078D01*
X2160499Y353737D01*
X2160965Y351396D01*
X2161725Y350259D01*
X2165202Y353737D01*
X2161725Y357215D01*
D02*
G37*
G36*
X2166617Y352323D02*
X2163139Y348844D01*
X2164276Y348085D01*
X2166617Y347619D01*
X2168958Y348085D01*
X2170095Y348844D01*
X2166617Y352323D01*
D02*
G37*
G36*
X2272520Y335757D02*
X2270179Y335292D01*
X2269042Y334532D01*
X2272520Y331054D01*
X2275998Y334532D01*
X2274861Y335292D01*
X2272520Y335757D01*
D02*
G37*
G36*
X2267628Y333118D02*
X2266868Y331981D01*
X2266402Y329640D01*
X2266868Y327299D01*
X2267628Y326162D01*
X2271106Y329640D01*
X2267628Y333118D01*
D02*
G37*
G36*
X2231520Y334738D02*
X2229569Y334350D01*
X2227915Y333245D01*
X2226810Y331591D01*
X2226422Y329640D01*
X2226810Y327689D01*
X2227915Y326035D01*
X2229569Y324930D01*
X2231520Y324542D01*
X2233471Y324930D01*
X2235125Y326035D01*
X2236230Y327689D01*
X2236618Y329640D01*
X2236230Y331591D01*
X2235125Y333245D01*
X2233471Y334350D01*
X2231520Y334738D01*
D02*
G37*
G36*
X3065395Y595738D02*
X3063444Y595350D01*
X3061790Y594245D01*
X3060685Y592591D01*
X3060297Y590640D01*
X3060685Y588689D01*
X3061790Y587035D01*
X3061992Y586900D01*
Y585630D01*
X3061415Y585245D01*
X3060310Y583591D01*
X3059922Y581640D01*
X3060310Y579689D01*
X3061415Y578035D01*
X3063069Y576930D01*
X3065020Y576542D01*
X3066971Y576930D01*
X3068625Y578035D01*
X3069730Y579689D01*
X3070118Y581640D01*
X3069730Y583591D01*
X3068625Y585245D01*
X3068423Y585380D01*
Y586650D01*
X3069000Y587035D01*
X3070105Y588689D01*
X3070493Y590640D01*
X3070105Y592591D01*
X3069000Y594245D01*
X3067346Y595350D01*
X3065395Y595738D01*
D02*
G37*
G36*
X3111520Y580488D02*
X3109569Y580100D01*
X3107915Y578995D01*
X3106810Y577341D01*
X3106422Y575390D01*
X3106810Y573439D01*
X3107915Y571785D01*
X3109569Y570680D01*
X3111520Y570292D01*
X3113471Y570680D01*
X3115125Y571785D01*
X3116230Y573439D01*
X3116618Y575390D01*
X3116230Y577341D01*
X3115125Y578995D01*
X3113471Y580100D01*
X3111520Y580488D01*
D02*
G37*
G36*
X3165270Y580238D02*
X3163319Y579850D01*
X3161665Y578745D01*
X3160560Y577091D01*
X3160172Y575140D01*
X3160560Y573189D01*
X3161665Y571535D01*
X3163319Y570430D01*
X3165270Y570042D01*
X3167221Y570430D01*
X3168875Y571535D01*
X3169980Y573189D01*
X3170368Y575140D01*
X3169980Y577091D01*
X3168875Y578745D01*
X3167221Y579850D01*
X3165270Y580238D01*
D02*
G37*
G36*
X3111520Y568738D02*
X3109569Y568350D01*
X3107915Y567245D01*
X3106810Y565591D01*
X3106422Y563640D01*
X3106810Y561689D01*
X3107915Y560035D01*
X3109569Y558930D01*
X3111520Y558542D01*
X3113471Y558930D01*
X3115125Y560035D01*
X3116230Y561689D01*
X3116618Y563640D01*
X3116230Y565591D01*
X3115125Y567245D01*
X3113471Y568350D01*
X3111520Y568738D01*
D02*
G37*
G36*
X3111770Y555488D02*
X3109819Y555100D01*
X3108165Y553995D01*
X3107060Y552341D01*
X3106672Y550390D01*
X3107060Y548439D01*
X3108165Y546785D01*
X3109819Y545680D01*
X3111770Y545292D01*
X3113721Y545680D01*
X3115375Y546785D01*
X3116480Y548439D01*
X3116868Y550390D01*
X3116480Y552341D01*
X3115375Y553995D01*
X3113721Y555100D01*
X3111770Y555488D01*
D02*
G37*
G36*
X3119319Y541832D02*
X3117369Y541444D01*
X3115715Y540339D01*
X3114610Y538685D01*
X3114221Y536734D01*
X3114610Y534783D01*
X3115715Y533129D01*
X3117369Y532024D01*
X3119319Y531636D01*
X3121270Y532024D01*
X3122924Y533129D01*
X3124030Y534783D01*
X3124417Y536734D01*
X3124030Y538685D01*
X3122924Y540339D01*
X3121270Y541444D01*
X3119319Y541832D01*
D02*
G37*
G36*
X3053520Y535738D02*
X3051569Y535350D01*
X3049915Y534245D01*
X3048810Y532591D01*
X3048422Y530640D01*
X3048810Y528689D01*
X3049915Y527035D01*
X3051569Y525930D01*
X3053520Y525542D01*
X3055471Y525930D01*
X3057125Y527035D01*
X3058230Y528689D01*
X3058618Y530640D01*
X3058230Y532591D01*
X3057125Y534245D01*
X3055471Y535350D01*
X3053520Y535738D01*
D02*
G37*
G36*
X3113520Y513738D02*
X3111569Y513350D01*
X3110763Y512811D01*
X3113520Y510054D01*
X3116277Y512811D01*
X3115471Y513350D01*
X3113520Y513738D01*
D02*
G37*
G36*
X3044520Y517738D02*
X3042569Y517350D01*
X3040915Y516245D01*
X3039810Y514591D01*
X3039422Y512640D01*
X3039810Y510689D01*
X3040915Y509035D01*
X3042569Y507930D01*
X3044520Y507542D01*
X3046471Y507930D01*
X3048125Y509035D01*
X3049230Y510689D01*
X3049618Y512640D01*
X3049230Y514591D01*
X3048125Y516245D01*
X3046471Y517350D01*
X3044520Y517738D01*
D02*
G37*
G36*
X3117691Y511397D02*
X3114934Y508640D01*
X3117691Y505883D01*
X3118230Y506689D01*
X3118618Y508640D01*
X3118230Y510591D01*
X3117691Y511397D01*
D02*
G37*
G36*
X3109349D02*
X3108810Y510591D01*
X3108422Y508640D01*
X3108810Y506689D01*
X3109349Y505883D01*
X3112106Y508640D01*
X3109349Y511397D01*
D02*
G37*
G36*
X3113520Y507226D02*
X3110763Y504469D01*
X3111569Y503930D01*
X3113520Y503542D01*
X3115471Y503930D01*
X3116277Y504469D01*
X3113520Y507226D01*
D02*
G37*
G36*
X3064270Y502488D02*
X3062319Y502100D01*
X3060665Y500995D01*
X3059560Y499341D01*
X3059172Y497390D01*
X3059560Y495439D01*
X3060665Y493785D01*
X3062319Y492680D01*
X3064270Y492292D01*
X3066221Y492680D01*
X3067875Y493785D01*
X3068980Y495439D01*
X3069368Y497390D01*
X3068980Y499341D01*
X3067875Y500995D01*
X3066221Y502100D01*
X3064270Y502488D01*
D02*
G37*
G36*
X3099270Y502238D02*
X3097319Y501850D01*
X3095665Y500745D01*
X3094560Y499091D01*
X3094172Y497140D01*
X3094560Y495189D01*
X3095665Y493535D01*
X3097319Y492430D01*
X3099270Y492042D01*
X3101221Y492430D01*
X3102875Y493535D01*
X3103980Y495189D01*
X3104368Y497140D01*
X3103980Y499091D01*
X3102875Y500745D01*
X3101221Y501850D01*
X3099270Y502238D01*
D02*
G37*
G36*
X3174520Y447738D02*
X3172569Y447350D01*
X3170915Y446245D01*
X3169810Y444591D01*
X3169422Y442640D01*
X3169810Y440689D01*
X3170915Y439035D01*
X3172569Y437930D01*
X3174520Y437542D01*
X3176471Y437930D01*
X3178125Y439035D01*
X3179230Y440689D01*
X3179618Y442640D01*
X3179230Y444591D01*
X3178125Y446245D01*
X3176471Y447350D01*
X3174520Y447738D01*
D02*
G37*
G36*
X3173520Y424738D02*
X3171569Y424350D01*
X3170763Y423811D01*
X3173520Y421054D01*
X3176277Y423811D01*
X3175471Y424350D01*
X3173520Y424738D01*
D02*
G37*
G36*
X3177691Y422397D02*
X3174934Y419640D01*
X3177691Y416883D01*
X3178230Y417689D01*
X3178618Y419640D01*
X3178230Y421591D01*
X3177691Y422397D01*
D02*
G37*
G36*
X3169349D02*
X3168810Y421591D01*
X3168422Y419640D01*
X3168810Y417689D01*
X3169349Y416883D01*
X3172106Y419640D01*
X3169349Y422397D01*
D02*
G37*
G36*
X3173520Y418226D02*
X3170763Y415469D01*
X3171569Y414930D01*
X3173520Y414542D01*
X3175471Y414930D01*
X3176277Y415469D01*
X3173520Y418226D01*
D02*
G37*
G36*
X3106518Y397738D02*
X3104567Y397350D01*
X3102913Y396244D01*
X3101808Y394590D01*
X3101420Y392640D01*
X3101808Y390689D01*
X3102913Y389035D01*
X3103303Y388774D01*
Y387504D01*
X3102915Y387245D01*
X3101810Y385591D01*
X3101422Y383640D01*
X3101810Y381689D01*
X3102915Y380035D01*
X3104569Y378930D01*
X3106520Y378542D01*
X3108471Y378930D01*
X3110125Y380035D01*
X3111230Y381689D01*
X3111618Y383640D01*
X3111230Y385591D01*
X3110125Y387245D01*
X3109734Y387506D01*
Y388776D01*
X3110122Y389035D01*
X3111227Y390689D01*
X3111616Y392640D01*
X3111227Y394590D01*
X3110122Y396244D01*
X3108468Y397350D01*
X3106518Y397738D01*
D02*
G37*
G36*
X3130520Y384738D02*
X3128569Y384350D01*
X3126915Y383245D01*
X3125810Y381591D01*
X3125422Y379640D01*
X3125810Y377689D01*
X3126915Y376035D01*
X3128569Y374930D01*
X3130520Y374542D01*
X3132471Y374930D01*
X3134125Y376035D01*
X3135230Y377689D01*
X3135618Y379640D01*
X3135230Y381591D01*
X3134125Y383245D01*
X3132471Y384350D01*
X3130520Y384738D01*
D02*
G37*
G36*
X3153520Y378818D02*
X3151569Y378430D01*
X3149915Y377325D01*
X3148810Y375671D01*
X3148422Y373720D01*
X3148810Y371769D01*
X3149915Y370115D01*
X3151569Y369010D01*
X3153520Y368622D01*
X3155471Y369010D01*
X3157125Y370115D01*
X3158230Y371769D01*
X3158618Y373720D01*
X3158230Y375671D01*
X3157125Y377325D01*
X3155471Y378430D01*
X3153520Y378818D01*
D02*
G37*
G36*
X3059520Y360738D02*
X3057569Y360350D01*
X3056763Y359811D01*
X3059520Y357054D01*
X3062277Y359811D01*
X3061471Y360350D01*
X3059520Y360738D01*
D02*
G37*
G36*
X3063691Y358397D02*
X3060934Y355640D01*
X3063691Y352883D01*
X3064230Y353689D01*
X3064618Y355640D01*
X3064230Y357591D01*
X3063691Y358397D01*
D02*
G37*
G36*
X3055349D02*
X3054810Y357591D01*
X3054422Y355640D01*
X3054810Y353689D01*
X3055349Y352883D01*
X3058106Y355640D01*
X3055349Y358397D01*
D02*
G37*
G36*
X3059520Y354226D02*
X3056763Y351469D01*
X3057569Y350930D01*
X3059520Y350542D01*
X3061471Y350930D01*
X3062277Y351469D01*
X3059520Y354226D01*
D02*
G37*
G36*
X2290628Y338118D02*
X2289868Y336981D01*
X2289402Y334640D01*
X2289868Y332299D01*
X2290628Y331162D01*
X2294106Y334640D01*
X2290628Y338118D01*
D02*
G37*
G36*
X1908520Y493758D02*
X1906179Y493292D01*
X1905042Y492532D01*
X1908520Y489054D01*
X1911998Y492532D01*
X1910861Y493292D01*
X1908520Y493758D01*
D02*
G37*
G36*
X1903628Y491118D02*
X1902868Y489981D01*
X1902402Y487640D01*
X1902868Y485299D01*
X1903977Y483640D01*
X1902868Y481981D01*
X1902402Y479640D01*
X1902868Y477299D01*
X1903650Y476129D01*
X1904113Y475140D01*
X1903650Y474151D01*
X1902868Y472981D01*
X1902402Y470640D01*
X1902868Y468299D01*
X1903628Y467162D01*
X1907813Y471347D01*
X1908520Y470640D01*
X1909227Y471347D01*
X1913412Y467162D01*
X1914172Y468299D01*
X1914638Y470640D01*
X1914172Y472981D01*
X1913390Y474151D01*
X1912927Y475140D01*
X1913390Y476129D01*
X1914172Y477299D01*
X1914637Y479640D01*
X1914172Y481981D01*
X1913063Y483640D01*
X1914172Y485299D01*
X1914637Y487640D01*
X1914172Y489981D01*
X1913412Y491118D01*
X1909227Y486933D01*
X1908520Y487640D01*
X1907813Y486933D01*
X1903628Y491118D01*
D02*
G37*
G36*
X1908520Y469226D02*
X1905042Y465748D01*
X1906179Y464988D01*
X1908520Y464522D01*
X1910861Y464988D01*
X1911998Y465748D01*
X1908520Y469226D01*
D02*
G37*
G36*
X2597797Y662232D02*
Y651260D01*
X2608769D01*
X2608488Y653393D01*
X2607279Y656312D01*
X2605355Y658819D01*
X2602849Y660742D01*
X2599930Y661951D01*
X2597797Y662232D01*
D02*
G37*
G36*
X2595797D02*
X2593664Y661951D01*
X2590745Y660742D01*
X2588238Y658819D01*
X2586315Y656312D01*
X2585106Y653393D01*
X2584825Y651260D01*
X2595797D01*
Y662232D01*
D02*
G37*
G36*
X2608769Y649260D02*
X2597797D01*
Y638288D01*
X2599930Y638569D01*
X2602849Y639778D01*
X2605355Y641702D01*
X2607279Y644208D01*
X2608488Y647127D01*
X2608769Y649260D01*
D02*
G37*
G36*
X2595797D02*
X2584825D01*
X2585106Y647127D01*
X2586315Y644208D01*
X2588238Y641702D01*
X2590745Y639778D01*
X2593664Y638569D01*
X2595797Y638288D01*
Y649260D01*
D02*
G37*
G36*
X2597307Y432312D02*
Y421340D01*
X2608279D01*
X2607998Y423473D01*
X2606789Y426392D01*
X2604865Y428899D01*
X2602358Y430822D01*
X2599439Y432031D01*
X2597307Y432312D01*
D02*
G37*
G36*
X2595307D02*
X2593174Y432031D01*
X2590255Y430822D01*
X2587748Y428899D01*
X2585825Y426392D01*
X2584615Y423473D01*
X2584335Y421340D01*
X2595307D01*
Y432312D01*
D02*
G37*
G36*
X2608279Y419340D02*
X2597307D01*
Y408368D01*
X2599439Y408649D01*
X2602358Y409858D01*
X2604865Y411782D01*
X2606789Y414288D01*
X2607998Y417207D01*
X2608279Y419340D01*
D02*
G37*
G36*
X2595307D02*
X2584335D01*
X2584615Y417207D01*
X2585825Y414288D01*
X2587748Y411782D01*
X2590255Y409858D01*
X2593174Y408649D01*
X2595307Y408368D01*
Y419340D01*
D02*
G37*
G36*
X2554178Y359298D02*
X2546320D01*
Y351440D01*
X2554178D01*
Y359298D01*
D02*
G37*
G36*
X2520920Y359243D02*
Y351440D01*
X2528723D01*
X2528550Y352752D01*
X2527657Y354907D01*
X2526238Y356758D01*
X2524387Y358177D01*
X2522232Y359070D01*
X2520920Y359243D01*
D02*
G37*
G36*
X2518920Y359243D02*
X2517608Y359070D01*
X2515453Y358177D01*
X2513602Y356758D01*
X2512183Y354907D01*
X2511290Y352752D01*
X2511117Y351440D01*
X2518920D01*
Y359243D01*
D02*
G37*
G36*
X2544320Y359298D02*
X2536462D01*
Y351440D01*
X2544320D01*
Y359298D01*
D02*
G37*
G36*
X2518920Y349440D02*
X2511117D01*
X2511290Y348128D01*
X2512183Y345973D01*
X2513602Y344122D01*
X2515453Y342703D01*
X2517608Y341810D01*
X2518920Y341637D01*
Y349440D01*
D02*
G37*
G36*
X2528723D02*
X2520920D01*
Y341637D01*
X2522232Y341810D01*
X2524387Y342703D01*
X2526238Y344122D01*
X2527657Y345973D01*
X2528550Y348128D01*
X2528723Y349440D01*
D02*
G37*
G36*
X2554178D02*
X2546320D01*
Y341582D01*
X2554178D01*
Y349440D01*
D02*
G37*
G36*
X2544320D02*
X2536462D01*
Y341582D01*
X2544320D01*
Y349440D01*
D02*
G37*
G36*
X2546320Y333843D02*
Y326040D01*
X2554123D01*
X2553950Y327352D01*
X2553058Y329507D01*
X2551638Y331358D01*
X2549787Y332777D01*
X2547632Y333670D01*
X2546320Y333843D01*
D02*
G37*
G36*
X2520920D02*
Y326040D01*
X2528723D01*
X2528550Y327352D01*
X2527657Y329507D01*
X2526238Y331358D01*
X2524387Y332777D01*
X2522232Y333670D01*
X2520920Y333843D01*
D02*
G37*
G36*
X2544320Y333843D02*
X2543008Y333670D01*
X2540853Y332777D01*
X2539002Y331358D01*
X2537583Y329507D01*
X2536690Y327352D01*
X2536517Y326040D01*
X2544320D01*
Y333843D01*
D02*
G37*
G36*
X2518920D02*
X2517608Y333670D01*
X2515453Y332777D01*
X2513602Y331358D01*
X2512183Y329507D01*
X2511290Y327352D01*
X2511117Y326040D01*
X2518920D01*
Y333843D01*
D02*
G37*
G36*
X2544320Y324040D02*
X2536517D01*
X2536690Y322728D01*
X2537583Y320573D01*
X2539002Y318722D01*
X2540853Y317303D01*
X2543008Y316410D01*
X2544320Y316237D01*
Y324040D01*
D02*
G37*
G36*
X2518920D02*
X2511117D01*
X2511290Y322728D01*
X2512183Y320573D01*
X2513602Y318722D01*
X2515453Y317303D01*
X2517608Y316410D01*
X2518920Y316237D01*
Y324040D01*
D02*
G37*
G36*
X2554123D02*
X2546320D01*
Y316237D01*
X2547632Y316410D01*
X2549787Y317303D01*
X2551638Y318722D01*
X2553058Y320573D01*
X2553950Y322728D01*
X2554123Y324040D01*
D02*
G37*
G36*
X2528723D02*
X2520920D01*
Y316237D01*
X2522232Y316410D01*
X2524387Y317303D01*
X2526238Y318722D01*
X2527657Y320573D01*
X2528550Y322728D01*
X2528723Y324040D01*
D02*
G37*
G36*
X1948520Y565757D02*
X1946179Y565292D01*
X1945042Y564532D01*
X1948520Y561054D01*
X1951998Y564532D01*
X1950861Y565292D01*
X1948520Y565757D01*
D02*
G37*
G36*
X1953412Y563118D02*
X1949934Y559640D01*
X1953412Y556162D01*
X1954172Y557299D01*
X1954637Y559640D01*
X1954172Y561981D01*
X1953412Y563118D01*
D02*
G37*
G36*
X1943628D02*
X1942868Y561981D01*
X1942402Y559640D01*
X1942868Y557299D01*
X1943628Y556162D01*
X1947106Y559640D01*
X1943628Y563118D01*
D02*
G37*
G36*
X1965520Y556758D02*
X1963179Y556292D01*
X1962020Y555518D01*
X1960861Y556292D01*
X1958520Y556758D01*
X1956179Y556292D01*
X1955042Y555532D01*
X1959227Y551347D01*
X1957813Y549933D01*
X1953628Y554118D01*
X1952868Y552981D01*
X1952402Y550640D01*
X1952868Y548299D01*
X1953642Y547140D01*
X1952868Y545981D01*
X1952402Y543640D01*
X1952868Y541299D01*
X1953628Y540162D01*
X1957813Y544347D01*
X1959227Y542933D01*
X1955042Y538748D01*
X1956179Y537988D01*
X1958520Y537522D01*
X1960861Y537988D01*
X1962020Y538763D01*
X1963179Y537988D01*
X1965520Y537522D01*
X1967861Y537988D01*
X1968998Y538748D01*
X1964813Y542933D01*
X1966227Y544347D01*
X1970412Y540162D01*
X1971172Y541299D01*
X1971638Y543640D01*
X1971172Y545981D01*
X1970397Y547140D01*
X1971172Y548299D01*
X1971638Y550640D01*
X1971172Y552981D01*
X1970412Y554118D01*
X1966227Y549933D01*
X1964813Y551347D01*
X1968998Y555532D01*
X1967861Y556292D01*
X1965520Y556758D01*
D02*
G37*
G36*
X1948520Y558226D02*
X1945042Y554748D01*
X1946179Y553988D01*
X1948520Y553522D01*
X1950861Y553988D01*
X1951998Y554748D01*
X1948520Y558226D01*
D02*
G37*
G36*
X1986520Y383574D02*
X1984208Y383270D01*
X1982053Y382377D01*
X1980202Y380958D01*
X1978783Y379107D01*
X1977890Y376952D01*
X1977586Y374640D01*
X1977890Y372328D01*
X1978783Y370173D01*
X1980202Y368322D01*
X1982053Y366903D01*
X1984208Y366010D01*
X1986520Y365706D01*
X1988832Y366010D01*
X1990987Y366903D01*
X1992838Y368322D01*
X1994258Y370173D01*
X1995150Y372328D01*
X1995454Y374640D01*
X1995150Y376952D01*
X1994258Y379107D01*
X1992838Y380958D01*
X1990987Y382377D01*
X1988832Y383270D01*
X1986520Y383574D01*
D02*
G37*
G36*
X2021478Y358148D02*
X2003762D01*
Y340432D01*
X2021478D01*
Y358148D01*
D02*
G37*
G36*
X1987220Y358224D02*
X1984908Y357920D01*
X1982753Y357028D01*
X1980902Y355608D01*
X1979483Y353757D01*
X1978590Y351602D01*
X1978286Y349290D01*
X1978590Y346978D01*
X1979483Y344823D01*
X1980902Y342972D01*
X1982753Y341553D01*
X1984908Y340660D01*
X1987220Y340356D01*
X1989532Y340660D01*
X1991687Y341553D01*
X1993538Y342972D01*
X1994957Y344823D01*
X1995850Y346978D01*
X1996154Y349290D01*
X1995850Y351602D01*
X1994957Y353757D01*
X1993538Y355608D01*
X1991687Y357028D01*
X1989532Y357920D01*
X1987220Y358224D01*
D02*
G37*
G36*
X2012620Y332824D02*
X2010308Y332520D01*
X2008153Y331628D01*
X2006302Y330208D01*
X2004883Y328357D01*
X2003990Y326202D01*
X2003686Y323890D01*
X2003990Y321578D01*
X2004883Y319423D01*
X2006302Y317572D01*
X2008153Y316153D01*
X2010308Y315260D01*
X2012620Y314956D01*
X2014932Y315260D01*
X2017087Y316153D01*
X2018938Y317572D01*
X2020358Y319423D01*
X2021250Y321578D01*
X2021554Y323890D01*
X2021250Y326202D01*
X2020358Y328357D01*
X2018938Y330208D01*
X2017087Y331628D01*
X2014932Y332520D01*
X2012620Y332824D01*
D02*
G37*
G36*
X2248520Y292738D02*
X2246569Y292350D01*
X2244915Y291245D01*
X2243810Y289591D01*
X2243422Y287640D01*
X2243810Y285689D01*
X2244915Y284035D01*
X2246569Y282930D01*
X2248520Y282542D01*
X2250471Y282930D01*
X2252125Y284035D01*
X2253230Y285689D01*
X2253618Y287640D01*
X2253230Y289591D01*
X2252125Y291245D01*
X2250471Y292350D01*
X2248520Y292738D01*
D02*
G37*
G36*
X2281520Y284738D02*
X2279569Y284350D01*
X2277915Y283245D01*
X2276810Y281591D01*
X2276422Y279640D01*
X2276810Y277689D01*
X2277915Y276035D01*
X2279569Y274930D01*
X2281520Y274542D01*
X2283471Y274930D01*
X2285125Y276035D01*
X2286230Y277689D01*
X2286618Y279640D01*
X2286230Y281591D01*
X2285125Y283245D01*
X2283471Y284350D01*
X2281520Y284738D01*
D02*
G37*
G36*
X1886620Y359101D02*
Y350290D01*
X1895431D01*
X1895224Y351864D01*
X1894231Y354262D01*
X1892651Y356321D01*
X1890591Y357901D01*
X1888194Y358894D01*
X1886620Y359101D01*
D02*
G37*
G36*
X1884620D02*
X1883047Y358894D01*
X1880648Y357901D01*
X1878589Y356321D01*
X1877009Y354262D01*
X1876016Y351864D01*
X1875809Y350290D01*
X1884620D01*
Y359101D01*
D02*
G37*
G36*
X1895431Y348290D02*
X1886620D01*
Y339479D01*
X1888194Y339686D01*
X1890591Y340679D01*
X1892651Y342259D01*
X1894231Y344319D01*
X1895224Y346717D01*
X1895431Y348290D01*
D02*
G37*
G36*
X1884620D02*
X1875809D01*
X1876016Y346717D01*
X1877009Y344319D01*
X1878589Y342259D01*
X1880648Y340679D01*
X1883047Y339686D01*
X1884620Y339479D01*
Y348290D01*
D02*
G37*
G36*
X1886620Y333701D02*
Y324890D01*
X1895431D01*
X1895224Y326464D01*
X1894231Y328862D01*
X1892651Y330921D01*
X1890591Y332501D01*
X1888194Y333494D01*
X1886620Y333701D01*
D02*
G37*
G36*
X1884620D02*
X1883047Y333494D01*
X1880648Y332501D01*
X1878589Y330921D01*
X1877009Y328862D01*
X1876016Y326464D01*
X1875809Y324890D01*
X1884620D01*
Y333701D01*
D02*
G37*
G36*
X1895431Y322890D02*
X1886620D01*
Y314079D01*
X1888194Y314286D01*
X1890591Y315279D01*
X1892651Y316859D01*
X1894231Y318918D01*
X1895224Y321317D01*
X1895431Y322890D01*
D02*
G37*
G36*
X1884620D02*
X1875809D01*
X1876016Y321317D01*
X1877009Y318918D01*
X1878589Y316859D01*
X1880648Y315279D01*
X1883047Y314286D01*
X1884620Y314079D01*
Y322890D01*
D02*
G37*
G36*
X2133520Y256738D02*
X2131569Y256350D01*
X2129915Y255245D01*
X2128810Y253591D01*
X2128422Y251640D01*
X2128810Y249689D01*
X2129915Y248035D01*
X2131569Y246930D01*
X2133520Y246542D01*
X2135471Y246930D01*
X2137125Y248035D01*
X2138230Y249689D01*
X2138618Y251640D01*
X2138230Y253591D01*
X2137125Y255245D01*
X2135471Y256350D01*
X2133520Y256738D01*
D02*
G37*
G36*
Y244738D02*
X2131569Y244350D01*
X2129915Y243245D01*
X2128810Y241591D01*
X2128422Y239640D01*
X2128620Y238644D01*
X2127477Y237880D01*
X2126861Y238292D01*
X2124520Y238757D01*
X2122179Y238292D01*
X2121042Y237532D01*
X2125227Y233347D01*
X2129412Y229162D01*
X2130172Y230299D01*
X2130638Y232640D01*
X2130320Y234237D01*
X2131463Y235001D01*
X2131569Y234930D01*
X2133520Y234542D01*
X2135471Y234930D01*
X2137125Y236035D01*
X2138230Y237689D01*
X2138618Y239640D01*
X2138230Y241591D01*
X2137125Y243245D01*
X2135471Y244350D01*
X2133520Y244738D01*
D02*
G37*
G36*
X2077520Y254738D02*
X2075569Y254350D01*
X2073915Y253245D01*
X2072810Y251591D01*
X2072422Y249640D01*
X2072810Y247689D01*
X2073915Y246035D01*
Y245245D01*
X2072810Y243591D01*
X2072422Y241640D01*
X2072810Y239689D01*
X2073915Y238035D01*
X2075569Y236930D01*
X2077520Y236542D01*
X2079471Y236930D01*
X2081125Y238035D01*
X2082230Y239689D01*
X2082618Y241640D01*
X2082230Y243591D01*
X2081125Y245245D01*
Y246035D01*
X2082230Y247689D01*
X2082618Y249640D01*
X2082230Y251591D01*
X2081125Y253245D01*
X2079471Y254350D01*
X2077520Y254738D01*
D02*
G37*
G36*
X2281520Y244738D02*
X2279569Y244350D01*
X2277915Y243245D01*
X2276810Y241591D01*
X2276422Y239640D01*
X2276810Y237689D01*
X2277915Y236035D01*
X2279569Y234930D01*
X2281520Y234542D01*
X2283471Y234930D01*
X2285125Y236035D01*
X2286230Y237689D01*
X2286618Y239640D01*
X2286230Y241591D01*
X2285125Y243245D01*
X2283471Y244350D01*
X2281520Y244738D01*
D02*
G37*
G36*
X2245520D02*
X2243569Y244350D01*
X2241915Y243245D01*
X2240810Y241591D01*
X2240422Y239640D01*
X2240810Y237689D01*
X2241915Y236035D01*
X2243569Y234930D01*
X2245520Y234542D01*
X2247471Y234930D01*
X2249125Y236035D01*
X2250230Y237689D01*
X2250618Y239640D01*
X2250230Y241591D01*
X2249125Y243245D01*
X2247471Y244350D01*
X2245520Y244738D01*
D02*
G37*
G36*
X2119628Y236118D02*
X2118868Y234981D01*
X2118403Y232640D01*
X2118868Y230299D01*
X2119628Y229162D01*
X2123106Y232640D01*
X2119628Y236118D01*
D02*
G37*
G36*
X2169520Y232757D02*
X2167179Y232292D01*
X2166042Y231532D01*
X2169520Y228054D01*
X2172998Y231532D01*
X2171861Y232292D01*
X2169520Y232757D01*
D02*
G37*
G36*
X2124520Y231226D02*
X2121042Y227748D01*
X2122179Y226988D01*
X2124520Y226523D01*
X2126861Y226988D01*
X2127998Y227748D01*
X2124520Y231226D01*
D02*
G37*
G36*
X2174412Y230118D02*
X2170934Y226640D01*
X2174412Y223162D01*
X2175172Y224299D01*
X2175638Y226640D01*
X2175172Y228981D01*
X2174412Y230118D01*
D02*
G37*
G36*
X2164628D02*
X2163868Y228981D01*
X2163403Y226640D01*
X2163868Y224299D01*
X2164628Y223162D01*
X2168106Y226640D01*
X2164628Y230118D01*
D02*
G37*
G36*
X2286520Y225758D02*
X2284179Y225292D01*
X2283042Y224532D01*
X2286520Y221054D01*
X2289998Y224532D01*
X2288861Y225292D01*
X2286520Y225758D01*
D02*
G37*
G36*
X2309770Y225757D02*
X2307429Y225292D01*
X2306292Y224532D01*
X2309770Y221054D01*
X2313248Y224532D01*
X2312111Y225292D01*
X2309770Y225757D01*
D02*
G37*
G36*
X2169520Y225226D02*
X2166042Y221748D01*
X2167179Y220988D01*
X2169520Y220522D01*
X2171861Y220988D01*
X2172998Y221748D01*
X2169520Y225226D01*
D02*
G37*
%LPD*%
D13*
X2306513Y579639D02*
X2312513Y573640D01*
X2262548Y579639D02*
X2306513D01*
X2313520Y593640D02*
X2319520D01*
X2311863Y589640D02*
X2319520D01*
X2309520D02*
X2311863D01*
X2189520Y681640D02*
X2206741Y698861D01*
X2158520Y676025D02*
X2185357Y702861D01*
X2052520Y556640D02*
X2070520Y574640D01*
X2267495Y622958D02*
X2267533Y622996D01*
X2075205Y564325D02*
Y603668D01*
X2070520Y574640D02*
Y604640D01*
X2075205Y603668D02*
X2094495Y622958D01*
X2070520Y604640D02*
X2092838Y626959D01*
X2208519Y652641D02*
Y654639D01*
X2267533Y622996D02*
X2272044D01*
X2185520Y655640D02*
X2193117Y648043D01*
X2094495Y622958D02*
X2267495D01*
X2282558Y636890D02*
X2319520D01*
X2280506Y631459D02*
X2319520D01*
X2272044Y622996D02*
X2280506Y631459D01*
X2265838Y626959D02*
X2274339Y635459D01*
X2278711Y639459D02*
X2280142Y640890D01*
X2263520Y631640D02*
X2271339Y639459D01*
X2274339Y635459D02*
X2281127D01*
X2280142Y640890D02*
X2319520D01*
X2281127Y635459D02*
X2282558Y636890D01*
X2271339Y639459D02*
X2278711D01*
X2089922Y530640D02*
X2118923Y559640D01*
X2087848Y631640D02*
X2263520D01*
X2092838Y626959D02*
X2265838D01*
X2193117Y648043D02*
X2224409D01*
X2224444Y648078D01*
X2248958D01*
X2181298Y639862D02*
X2253742D01*
X2177417Y635742D02*
X2255623D01*
X2252474Y559686D02*
X2252520Y559640D01*
X2148520D02*
X2148566Y559686D01*
X2252474D01*
X2124884Y551640D02*
X2287494D01*
X2251520Y517640D02*
X2277520D01*
X2290938Y504222D01*
X2254520Y510640D02*
X2264937Y500223D01*
X2265520Y544640D02*
X2288837D01*
X2233440Y535720D02*
X2251520Y517640D01*
X2217520Y520640D02*
X2232520Y505640D01*
X2225520Y528971D02*
X2258268Y496222D01*
X2265520Y471640D02*
Y474439D01*
X2232520Y494640D02*
Y505640D01*
X2257319Y482640D02*
X2265520Y474439D01*
X2254520Y482640D02*
X2257319D01*
X2246520Y490640D02*
X2254520Y482640D01*
X2236520Y490640D02*
X2246520D01*
X2232520Y494640D02*
X2236520Y490640D01*
X2161127Y517875D02*
X2194273Y484730D01*
X2047349Y517875D02*
X2161127D01*
X2318004Y465639D02*
X2318005Y465640D01*
X2319520D01*
X2313033D02*
X2313034Y465639D01*
X2318004D01*
X2270520Y466640D02*
X2311147D01*
X2312147Y465640D01*
X2313033D01*
X2035114Y505640D02*
X2047349Y517875D01*
X2051661Y485499D02*
Y485781D01*
X2265520Y471640D02*
X2270520Y466640D01*
X2163177Y490640D02*
X2203177Y450640D01*
X2303990D01*
X2055520Y446640D02*
X2074707D01*
X2301520Y432640D02*
X2319520D01*
X2305520Y419640D02*
X2319520D01*
X2299520Y427640D02*
X2319520D01*
X2125503Y391657D02*
X2127520Y389640D01*
X2248958Y648078D02*
X2272346Y671466D01*
X2206741Y698861D02*
X2319520D01*
X2187370Y401640D02*
X2193801Y395209D01*
X2265035Y392640D02*
X2274520D01*
X2074707Y446640D02*
X2087583Y433764D01*
X2127520Y389640D02*
X2144721D01*
X2064638Y467640D02*
X2154343D01*
X2059479Y462481D02*
X2064638Y467640D01*
X2041285Y545875D02*
X2044733D01*
X2042035Y556640D02*
X2052520D01*
X2055453Y544573D02*
X2075205Y564325D01*
X2044733Y545875D02*
X2046035Y544573D01*
X2189520Y681640D02*
X2189520D01*
X2185357Y702861D02*
X2319520D01*
X2158520Y668640D02*
Y676025D01*
X2177520Y653640D02*
X2187117Y644043D01*
X2252266D01*
X2243520Y544640D02*
X2253941Y534219D01*
X2032035Y546640D02*
X2042035Y556640D01*
X2029175Y545985D02*
X2029830Y546640D01*
X2032035D01*
X2040345Y588137D02*
X2087848Y631640D01*
X2014520Y547640D02*
X2022344D01*
X2040345Y569641D02*
Y588137D01*
X2046035Y544573D02*
X2055453D01*
X2040520Y546640D02*
X2041285Y545875D01*
X2031345Y560640D02*
X2040345Y569641D01*
X2031345Y556641D02*
Y560640D01*
X2022344Y547640D02*
X2031345Y556641D01*
X2121520Y401640D02*
X2129520Y393640D01*
X2146378D01*
X2167520Y645640D02*
X2177417Y635742D01*
X2160520Y645640D02*
X2167520D01*
X2167520Y653640D02*
X2181298Y639862D01*
X2162520Y653640D02*
X2167520D01*
X2191520Y672640D02*
Y674358D01*
X2212023Y694861D01*
X2203520Y668640D02*
Y673125D01*
X2221035Y690640D01*
X2233005Y606640D02*
X2233520D01*
X2118923Y559640D02*
X2148520D01*
X2020520Y530640D02*
X2089922D01*
X2044451Y522640D02*
X2095883D01*
X2124884Y551640D01*
X2092429Y526640D02*
X2121429Y555640D01*
X2162944Y574486D02*
X2190236Y601778D01*
X2087583Y433764D02*
X2160911D01*
X2046361Y462481D02*
X2059479D01*
X2096446Y429640D02*
X2158520D01*
X2263076Y418640D02*
X2275076Y430640D01*
X2259520Y426640D02*
X2273520Y440640D01*
X2154343Y467640D02*
X2195343Y426640D01*
X2259520D01*
X2193520Y422640D02*
X2261419D01*
X2188106Y428054D02*
X2193520Y422640D01*
X2186106Y424054D02*
X2191520Y418640D01*
X2263076D01*
X2089520Y404640D02*
Y405594D01*
X2108566Y424640D01*
X2157863D01*
X2099520Y404640D02*
X2110520Y415640D01*
X2157863Y424640D02*
X2162450Y420054D01*
X2158520Y429640D02*
X2164106Y424054D01*
X2160911Y433764D02*
X2166621Y428054D01*
X2188106D01*
X2164106Y424054D02*
X2186106D01*
X2162450Y420054D02*
X2184106D01*
X2181586Y415640D02*
X2187370Y409855D01*
X2110520Y415640D02*
X2181586D01*
X2120503Y391657D02*
X2125503D01*
X2115177Y396983D02*
X2120503Y391657D01*
X2114863Y396983D02*
X2115177D01*
X2081520Y421640D02*
X2088446D01*
X2096446Y429640D01*
X2207005Y520640D02*
X2217520D01*
X2192520Y527640D02*
X2200005D01*
X2207005Y520640D01*
X2032520Y519640D02*
X2039520Y526640D01*
X2092429D01*
X2032520Y519640D02*
X2032520D01*
X2001520Y537640D02*
Y544640D01*
Y537640D02*
X2019520Y519640D01*
X2032285Y512405D02*
X2034216D01*
X2034005Y505639D02*
X2034005Y505640D01*
X2035114D01*
X2034216Y512405D02*
X2044451Y522640D01*
X2019520Y515154D02*
Y519640D01*
Y515154D02*
X2029034Y505639D01*
X2034005D01*
X2031520Y511639D02*
X2032285Y512405D01*
X2056520Y490640D02*
X2163177D01*
X2051661Y485781D02*
X2056520Y490640D01*
X2040520Y456640D02*
X2046361Y462481D01*
X2221035Y690640D02*
X2319520D01*
X2212023Y694861D02*
X2319520D01*
X2258520Y568640D02*
X2259005Y569125D01*
X2264520D01*
X2267035Y571640D01*
X2269520Y565640D02*
X2270520Y564640D01*
X2255695Y543875D02*
X2260999Y538570D01*
X2253285Y543875D02*
X2255695D01*
X2252520Y544640D02*
X2253285Y543875D01*
X2303520Y595640D02*
X2309520Y589640D01*
X2259104Y600611D02*
X2306549D01*
X2218366Y527640D02*
X2268366Y477640D01*
X2208520Y527640D02*
X2218366D01*
X2268366Y477640D02*
X2319520D01*
X2244520Y486640D02*
X2252520Y478640D01*
X2255662D01*
X2211777Y503223D02*
X2228360Y486640D01*
X2244520D01*
X2255662Y478640D02*
X2261520Y472782D01*
Y469640D02*
X2268520Y462640D01*
X2211777Y509468D02*
X2212949Y510640D01*
X2211777Y503223D02*
Y509468D01*
X2212949Y510640D02*
X2213744D01*
X2268520Y462640D02*
X2309491D01*
X2310491Y461640D02*
X2319520D01*
X2309491Y462640D02*
X2310491Y461640D01*
X2261520Y469640D02*
Y472782D01*
X2229703Y479640D02*
X2245863D01*
X2250863Y474640D01*
X2207744Y501599D02*
Y511416D01*
Y501599D02*
X2229703Y479640D01*
X2257520Y465640D02*
Y471125D01*
Y465640D02*
X2261520Y461640D01*
X2250863Y474640D02*
X2254005D01*
X2257520Y471125D01*
X2202520Y516640D02*
X2207744Y511416D01*
X2261520Y461640D02*
X2264520Y458640D01*
X2307304D01*
X2261520Y461640D02*
X2261520D01*
X2032520Y487640D02*
X2045316D01*
X2163340Y495640D02*
X2164340Y494640D01*
X2045316Y487640D02*
X2053316Y495640D01*
X2163340D01*
X2204834Y454640D02*
X2305647D01*
X2164340Y494640D02*
X2164834D01*
X2204834Y454640D01*
X2031520Y475640D02*
X2036520Y470640D01*
X2046520D01*
X2062520Y486640D01*
X2161520D01*
X2302212Y446640D02*
X2307429Y441423D01*
X2161520Y486640D02*
X2201520Y446640D01*
X2302212D01*
X2265789Y610909D02*
X2319520D01*
X2193801Y395209D02*
X2235792D01*
X2261419Y422640D02*
X2275419Y436640D01*
X2275076Y430640D02*
X2296520D01*
X2299520Y427640D01*
X2275419Y436640D02*
X2297520D01*
X2301520Y432640D01*
X2273520Y440640D02*
X2299520D01*
X2302737Y437423D01*
X2307304Y458640D02*
X2312304Y453640D01*
X2303990Y450640D02*
X2308990Y445640D01*
X2305647Y454640D02*
X2310647Y449640D01*
X2291520Y405640D02*
X2305520Y419640D01*
X2187370Y409855D02*
X2266505D01*
X2184106Y420054D02*
X2189898Y414262D01*
X2294520Y417640D02*
X2300520Y423640D01*
X2189898Y414262D02*
X2266799D01*
X2270177Y417640D01*
X2294520D01*
X2266505Y409855D02*
X2270720Y405640D01*
X2291520D01*
X2134520Y565640D02*
X2160764D01*
X2190236Y601778D02*
X2219658D01*
X2137337Y574486D02*
X2162944D01*
X2219658Y601778D02*
X2223520Y605640D01*
X2160764Y565640D02*
X2192902Y597778D01*
X2224143D02*
X2233005Y606640D01*
X2192902Y597778D02*
X2224143D01*
X2260333Y577424D02*
X2262548Y579639D01*
X2258268Y496222D02*
X2319520D01*
X2264937Y500223D02*
X2319520D01*
X2290938Y504222D02*
X2319520D01*
X2253941Y534219D02*
X2287361D01*
X2302939Y518640D01*
X2303005D01*
X2308005Y513640D01*
X2260999Y538570D02*
X2288871D01*
X2305801Y521640D01*
X2288837Y544640D02*
X2307837Y525640D01*
X2287494Y551640D02*
X2299494Y539640D01*
X2309520D01*
X2315165Y545285D01*
X2121429Y555640D02*
X2296063D01*
X2296063Y555639D01*
X2304161D01*
X2310533Y549268D01*
X2313491D01*
X2313508Y549285D01*
X2252520Y559640D02*
X2297720D01*
X2297720Y559639D01*
X2305818D01*
X2312172Y553285D01*
X2270520Y564640D02*
X2298376D01*
X2299377Y563639D01*
X2310526D01*
X2312172Y565285D01*
X2267035Y571640D02*
X2297033D01*
X2301034Y567639D01*
X2306004D01*
X2307650Y569285D01*
X2257690Y595640D02*
X2303520D01*
X2306549Y600611D02*
X2313520Y593640D01*
X2250747Y602555D02*
X2257160D01*
X2255690Y597639D02*
X2257690Y595640D01*
X2242662Y610640D02*
X2250747Y602555D01*
X2257160D02*
X2259104Y600611D01*
X2246519Y597639D02*
X2255690D01*
X2277346Y663466D02*
X2314860D01*
X2275689Y667466D02*
X2313203D01*
X2272346Y671466D02*
X2274032D01*
X2311547D01*
X2252266Y644043D02*
X2275689Y667466D01*
X2253742Y639862D02*
X2277346Y663466D01*
X2255623Y635742D02*
X2271520Y651640D01*
X2319520D01*
X2311547Y671466D02*
X2312030Y671949D01*
X2319520D01*
X2313203Y667466D02*
X2313687Y667949D01*
X2319520D01*
X2314860Y663466D02*
X2315343Y663949D01*
X2319520D01*
X2312172Y565285D02*
X2319520D01*
X2307650Y569285D02*
X2319520D01*
X2312513Y573640D02*
X2319520D01*
X2265520Y610640D02*
X2265789Y610909D01*
X2265520Y610791D02*
X2265596Y610716D01*
X2204520Y387640D02*
X2217520D01*
X2235792Y395209D02*
X2242460Y388541D01*
X2260935D02*
X2265035Y392640D01*
X2267187Y365650D02*
X2278513D01*
X2268840Y361647D02*
X2280735D01*
X2265961Y370640D02*
X2276520D01*
X2305801Y521640D02*
X2319520D01*
X2280735Y361647D02*
X2308729Y389640D01*
X2278513Y365650D02*
X2306503Y393640D01*
X2308729Y389640D02*
X2319520D01*
X2306503Y393640D02*
X2319520D01*
X2307837Y525640D02*
X2319520D01*
X2312172Y553285D02*
X2319520D01*
X2313508Y549285D02*
X2319520D01*
X2315165Y545285D02*
X2319520D01*
X2308005Y513640D02*
X2319520D01*
X2312304Y453640D02*
X2319520D01*
X2310647Y449640D02*
X2319520D01*
X2308990Y445640D02*
X2319520D01*
X2300520Y423640D02*
X2319520D01*
X2304520Y398640D02*
X2319520D01*
X2276520Y370640D02*
X2304520Y398640D01*
X2307429Y441423D02*
X2319520D01*
X2302737Y437423D02*
X2319520D01*
X2312513Y585640D02*
X2319520D01*
X2312512Y585639D02*
X2312513Y585640D01*
X2258519Y585639D02*
X2312512D01*
X2265834Y358640D02*
X2268840Y361647D01*
X2144721Y389640D02*
X2175721Y358640D01*
X2265834D01*
X2264177Y362640D02*
X2267187Y365650D01*
X2146378Y393640D02*
X2177378Y362640D01*
X2264177D01*
X2261961Y366640D02*
X2265961Y370640D01*
X2189520Y386155D02*
Y389640D01*
Y386155D02*
X2209035Y366640D01*
X2261961D01*
X2204520Y379640D02*
X2276340D01*
X2217520Y387640D02*
X2220619Y384541D01*
X2265421D02*
X2266520Y385640D01*
X2220619Y384541D02*
X2265421D01*
X2242460Y388541D02*
X2260935D01*
D14*
X3294020Y658640D02*
X3313520D01*
X3284535D02*
X3294020D01*
X3292520Y345140D02*
Y657140D01*
X3294020Y658640D01*
X3272420Y325040D02*
X3292520Y345140D01*
X3256520Y325040D02*
X3272420D01*
X3279270Y356140D02*
Y653375D01*
X3284535Y658640D01*
X3273570Y350440D02*
X3279270Y356140D01*
X3256520Y350440D02*
X3273570D01*
X3313520Y658640D02*
X3333520D01*
Y678640D01*
X3027227Y297097D02*
X3030770Y300640D01*
X3294520Y698640D02*
X3313520D01*
X3287520Y691640D02*
X3294520Y698640D01*
X3193520Y691640D02*
X3287520D01*
X3313520Y698640D02*
X3333520D01*
X3266520Y678640D02*
X3313520D01*
X3234520Y646640D02*
X3266520Y678640D01*
X3313520D02*
Y698640D01*
X2576520Y650640D02*
X2612520D01*
X2519520Y308640D02*
Y380640D01*
X2518520D02*
X2519520Y381640D01*
X2545520Y310640D02*
Y374640D01*
X2541520Y377640D02*
X2544520Y374640D01*
X2597520Y401640D02*
Y437640D01*
X2370520Y379640D02*
X2389534D01*
X2400063Y297097D02*
X3027227D01*
X2370520Y379640D02*
X2370520Y379640D01*
X2389534D02*
X2393049Y376125D01*
Y304111D02*
X2400063Y297097D01*
X2393049Y304111D02*
Y376125D01*
D126*
X2815463Y650260D02*
D03*
Y613260D02*
D03*
X2961797Y614260D02*
D03*
Y578260D02*
D03*
Y542260D02*
D03*
Y506260D02*
D03*
X2925130Y614260D02*
D03*
Y578260D02*
D03*
Y542260D02*
D03*
Y506260D02*
D03*
X2888463Y578260D02*
D03*
Y542260D02*
D03*
Y506260D02*
D03*
X2851797Y578260D02*
D03*
Y542260D02*
D03*
Y506260D02*
D03*
X2815130Y578260D02*
D03*
Y542260D02*
D03*
Y506260D02*
D03*
X2778463Y614260D02*
D03*
Y578260D02*
D03*
Y542260D02*
D03*
Y506260D02*
D03*
X2741797Y614260D02*
D03*
Y578260D02*
D03*
Y542260D02*
D03*
Y506260D02*
D03*
X2705130Y614260D02*
D03*
Y578260D02*
D03*
Y542260D02*
D03*
Y506260D02*
D03*
X2668463Y614260D02*
D03*
Y578260D02*
D03*
Y542260D02*
D03*
Y506260D02*
D03*
X2631797D02*
D03*
Y542260D02*
D03*
Y578260D02*
D03*
Y614260D02*
D03*
Y470260D02*
D03*
X2705130D02*
D03*
X2741797D02*
D03*
X2778463D02*
D03*
X2815130D02*
D03*
X2851797D02*
D03*
X2888463D02*
D03*
X2925130D02*
D03*
X2961797D02*
D03*
X2668463D02*
D03*
Y650260D02*
D03*
X2961797D02*
D03*
X2925130D02*
D03*
X2778463D02*
D03*
X2741797D02*
D03*
X2705130D02*
D03*
X2631797D02*
D03*
X2631307Y420340D02*
D03*
X2704640D02*
D03*
X2741306D02*
D03*
X2777973D02*
D03*
X2924640D02*
D03*
X2961306D02*
D03*
X2667973D02*
D03*
Y240340D02*
D03*
X2961306D02*
D03*
X2924640D02*
D03*
X2887973D02*
D03*
X2851306D02*
D03*
X2814640D02*
D03*
X2777973D02*
D03*
X2741306D02*
D03*
X2704640D02*
D03*
X2631307D02*
D03*
Y384340D02*
D03*
Y348340D02*
D03*
Y312340D02*
D03*
Y276340D02*
D03*
X2667973D02*
D03*
Y312340D02*
D03*
Y348340D02*
D03*
Y384340D02*
D03*
X2704640Y276340D02*
D03*
Y312340D02*
D03*
Y348340D02*
D03*
Y384340D02*
D03*
X2741306Y276340D02*
D03*
Y312340D02*
D03*
Y348340D02*
D03*
Y384340D02*
D03*
X2777973Y276340D02*
D03*
Y312340D02*
D03*
Y348340D02*
D03*
Y384340D02*
D03*
X2814640Y276340D02*
D03*
Y312340D02*
D03*
Y348340D02*
D03*
X2851306Y276340D02*
D03*
Y312340D02*
D03*
Y348340D02*
D03*
X2887973Y276340D02*
D03*
Y312340D02*
D03*
Y348340D02*
D03*
X2924640Y276340D02*
D03*
Y312340D02*
D03*
Y348340D02*
D03*
Y384340D02*
D03*
X2961306Y276340D02*
D03*
Y312340D02*
D03*
Y348340D02*
D03*
Y384340D02*
D03*
X2814973Y383340D02*
D03*
Y420340D02*
D03*
D129*
X3313520Y658640D02*
D03*
X3333520D02*
D03*
Y678640D02*
D03*
X3313520D02*
D03*
X3333520Y698640D02*
D03*
X3231120Y325040D02*
D03*
Y350440D02*
D03*
X3256520Y325040D02*
D03*
X1885620Y349290D02*
D03*
Y323890D02*
D03*
X2545320Y325040D02*
D03*
X2519920Y350440D02*
D03*
Y325040D02*
D03*
D130*
X3313520Y698640D02*
D03*
D131*
X3256520Y350440D02*
D03*
X2545320D02*
D03*
D133*
X2596797Y650260D02*
D03*
X2996797Y470260D02*
D03*
X2996307Y240340D02*
D03*
X2596307Y420340D02*
D03*
D135*
X3224770Y575640D02*
D03*
X3259520Y691640D02*
D03*
X3233520D02*
D03*
X3210520D02*
D03*
X3193520D02*
D03*
X3129020Y689640D02*
D03*
X3105520D02*
D03*
X3080520Y630640D02*
D03*
X3173520Y419640D02*
D03*
X3104520Y281640D02*
D03*
X3059520Y355640D02*
D03*
X3213520Y409640D02*
D03*
X3113520Y508640D02*
D03*
X3234520Y646640D02*
D03*
X2055520Y446640D02*
D03*
X2086520Y386390D02*
D03*
X2067520Y631640D02*
D03*
X2044520Y499640D02*
D03*
X2265520Y544640D02*
D03*
X2058520Y426640D02*
D03*
X2067520Y405640D02*
D03*
X2075520D02*
D03*
X2067520Y399640D02*
D03*
X1948520Y559640D02*
D03*
X2067520Y641640D02*
D03*
X2192520Y527640D02*
D03*
X2254520Y510640D02*
D03*
X2129520Y460640D02*
D03*
X2134520Y565640D02*
D03*
X2185520Y655640D02*
D03*
X2285520Y620936D02*
D03*
X2208519Y654639D02*
D03*
X2206520Y616880D02*
D03*
X2233440Y535720D02*
D03*
X2225520Y528971D02*
D03*
X2001520Y544640D02*
D03*
X2187370Y401640D02*
D03*
X2274520Y392640D02*
D03*
X2266520Y385640D02*
D03*
X2276340Y379640D02*
D03*
X2104520Y439764D02*
D03*
X2316520Y679640D02*
D03*
X2040520Y456640D02*
D03*
X2157520Y616880D02*
D03*
X2040520Y546640D02*
D03*
X2189520Y681640D02*
D03*
X2158520Y668640D02*
D03*
X2177520Y653640D02*
D03*
X2243520Y544640D02*
D03*
X2272520Y329640D02*
D03*
X2014520Y547640D02*
D03*
X2029175Y545985D02*
D03*
X2022520Y557673D02*
D03*
X2121520Y401640D02*
D03*
X2160520Y645640D02*
D03*
X2162520Y653640D02*
D03*
X2191520Y672640D02*
D03*
X2203520Y668640D02*
D03*
X2233520Y606640D02*
D03*
X2223520Y605640D02*
D03*
X2020520Y530640D02*
D03*
X2135320Y574739D02*
D03*
X2089520Y404640D02*
D03*
X2099520D02*
D03*
X2114863Y396983D02*
D03*
X2081520Y421640D02*
D03*
X1958520Y550640D02*
D03*
Y543640D02*
D03*
X1965520Y550640D02*
D03*
X1908520Y487640D02*
D03*
X1908520Y470640D02*
D03*
X2075520Y399640D02*
D03*
X2125520Y329640D02*
D03*
X2157520Y333640D02*
D03*
Y327640D02*
D03*
X2166617Y353737D02*
D03*
X2163520Y327640D02*
D03*
X2132520Y329640D02*
D03*
Y322640D02*
D03*
X2125520D02*
D03*
X2295520Y334640D02*
D03*
X2314520Y319640D02*
D03*
X2301520D02*
D03*
X2194519Y486639D02*
D03*
X2032520Y519640D02*
D03*
X2031520Y511639D02*
D03*
X2051661Y485499D02*
D03*
X2124520Y232640D02*
D03*
X2169520Y226640D02*
D03*
X2258520Y568640D02*
D03*
X2269520Y565640D02*
D03*
X2252520Y544640D02*
D03*
X2242662Y610640D02*
D03*
X2208520Y527640D02*
D03*
X2213744Y510640D02*
D03*
X2202520Y516640D02*
D03*
X2032520Y487640D02*
D03*
X2031520Y475640D02*
D03*
X2286520Y219640D02*
D03*
X2309770Y219640D02*
D03*
X2260333Y577424D02*
D03*
X2300520Y512640D02*
D03*
X2258519Y585639D02*
D03*
X2246519Y597639D02*
D03*
X2219519Y545639D02*
D03*
X2265520Y610791D02*
D03*
X2204520Y387640D02*
D03*
Y379640D02*
D03*
X2189520Y389640D02*
D03*
X2176520Y401640D02*
D03*
X2348520Y379640D02*
D03*
X2370520D02*
D03*
X1965520Y543640D02*
D03*
D139*
X2596307Y240340D02*
D03*
M02*
