G04*
G04 #@! TF.GenerationSoftware,Altium Limited,Altium Designer,20.0.2 (26)*
G04*
G04 Layer_Color=128*
%FSLAX44Y44*%
%MOMM*%
G71*
G01*
G75*
G04:AMPARAMS|DCode=17|XSize=0.8mm|YSize=1.3mm|CornerRadius=0.2mm|HoleSize=0mm|Usage=FLASHONLY|Rotation=180.000|XOffset=0mm|YOffset=0mm|HoleType=Round|Shape=RoundedRectangle|*
%AMROUNDEDRECTD17*
21,1,0.8000,0.9000,0,0,180.0*
21,1,0.4000,1.3000,0,0,180.0*
1,1,0.4000,-0.2000,0.4500*
1,1,0.4000,0.2000,0.4500*
1,1,0.4000,0.2000,-0.4500*
1,1,0.4000,-0.2000,-0.4500*
%
%ADD17ROUNDEDRECTD17*%
G04:AMPARAMS|DCode=22|XSize=0.8mm|YSize=1.3mm|CornerRadius=0.2mm|HoleSize=0mm|Usage=FLASHONLY|Rotation=270.000|XOffset=0mm|YOffset=0mm|HoleType=Round|Shape=RoundedRectangle|*
%AMROUNDEDRECTD22*
21,1,0.8000,0.9000,0,0,270.0*
21,1,0.4000,1.3000,0,0,270.0*
1,1,0.4000,-0.4500,-0.2000*
1,1,0.4000,-0.4500,0.2000*
1,1,0.4000,0.4500,0.2000*
1,1,0.4000,0.4500,-0.2000*
%
%ADD22ROUNDEDRECTD22*%
G04:AMPARAMS|DCode=23|XSize=0.8mm|YSize=1mm|CornerRadius=0.2mm|HoleSize=0mm|Usage=FLASHONLY|Rotation=0.000|XOffset=0mm|YOffset=0mm|HoleType=Round|Shape=RoundedRectangle|*
%AMROUNDEDRECTD23*
21,1,0.8000,0.6000,0,0,0.0*
21,1,0.4000,1.0000,0,0,0.0*
1,1,0.4000,0.2000,-0.3000*
1,1,0.4000,-0.2000,-0.3000*
1,1,0.4000,-0.2000,0.3000*
1,1,0.4000,0.2000,0.3000*
%
%ADD23ROUNDEDRECTD23*%
G04:AMPARAMS|DCode=24|XSize=0.8mm|YSize=1mm|CornerRadius=0.2mm|HoleSize=0mm|Usage=FLASHONLY|Rotation=270.000|XOffset=0mm|YOffset=0mm|HoleType=Round|Shape=RoundedRectangle|*
%AMROUNDEDRECTD24*
21,1,0.8000,0.6000,0,0,270.0*
21,1,0.4000,1.0000,0,0,270.0*
1,1,0.4000,-0.3000,-0.2000*
1,1,0.4000,-0.3000,0.2000*
1,1,0.4000,0.3000,0.2000*
1,1,0.4000,0.3000,-0.2000*
%
%ADD24ROUNDEDRECTD24*%
G04:AMPARAMS|DCode=34|XSize=2.54mm|YSize=0.9144mm|CornerRadius=0mm|HoleSize=0mm|Usage=FLASHONLY|Rotation=90.000|XOffset=0mm|YOffset=0mm|HoleType=Round|Shape=Octagon|*
%AMOCTAGOND34*
4,1,8,0.2286,1.2700,-0.2286,1.2700,-0.4572,1.0414,-0.4572,-1.0414,-0.2286,-1.2700,0.2286,-1.2700,0.4572,-1.0414,0.4572,1.0414,0.2286,1.2700,0.0*
%
%ADD34OCTAGOND34*%

%ADD100R,0.8000X1.3000*%
%ADD101R,1.2000X2.0000*%
%ADD102R,1.6000X1.4000*%
%ADD103R,1.2000X1.4000*%
%ADD104R,0.7000X1.6000*%
%ADD105R,0.6000X0.9000*%
G04:AMPARAMS|DCode=106|XSize=0.9mm|YSize=0.6mm|CornerRadius=0.15mm|HoleSize=0mm|Usage=FLASHONLY|Rotation=90.000|XOffset=0mm|YOffset=0mm|HoleType=Round|Shape=RoundedRectangle|*
%AMROUNDEDRECTD106*
21,1,0.9000,0.3000,0,0,90.0*
21,1,0.6000,0.6000,0,0,90.0*
1,1,0.3000,0.1500,0.3000*
1,1,0.3000,0.1500,-0.3000*
1,1,0.3000,-0.1500,-0.3000*
1,1,0.3000,-0.1500,0.3000*
%
%ADD106ROUNDEDRECTD106*%
%ADD107R,2.0000X2.8000*%
%ADD108R,0.9500X0.6000*%
%ADD109R,2.0000X2.0000*%
G04:AMPARAMS|DCode=110|XSize=2mm|YSize=2mm|CornerRadius=0.5mm|HoleSize=0mm|Usage=FLASHONLY|Rotation=270.000|XOffset=0mm|YOffset=0mm|HoleType=Round|Shape=RoundedRectangle|*
%AMROUNDEDRECTD110*
21,1,2.0000,1.0000,0,0,270.0*
21,1,1.0000,2.0000,0,0,270.0*
1,1,1.0000,-0.5000,-0.5000*
1,1,1.0000,-0.5000,0.5000*
1,1,1.0000,0.5000,0.5000*
1,1,1.0000,0.5000,-0.5000*
%
%ADD110ROUNDEDRECTD110*%
D17*
X1139000Y479416D02*
D03*
X1120000D02*
D03*
X848000Y645520D02*
D03*
X867000D02*
D03*
X904000Y504520D02*
D03*
X923000D02*
D03*
X1120000Y496416D02*
D03*
X1139000D02*
D03*
X1025220Y628520D02*
D03*
X1044220D02*
D03*
X888000Y612520D02*
D03*
X907000D02*
D03*
X1139000Y462416D02*
D03*
X1120000D02*
D03*
Y513520D02*
D03*
X1139000D02*
D03*
X964000Y709520D02*
D03*
X945000D02*
D03*
X911000D02*
D03*
X930000D02*
D03*
X887000Y372520D02*
D03*
X868000D02*
D03*
Y350520D02*
D03*
X887000D02*
D03*
X1064000Y444570D02*
D03*
X1045000D02*
D03*
Y426570D02*
D03*
X1064000D02*
D03*
X1146000Y621520D02*
D03*
X1165000D02*
D03*
X792000Y310520D02*
D03*
X811000D02*
D03*
X892000Y440520D02*
D03*
X911000D02*
D03*
X812000Y599520D02*
D03*
X831000D02*
D03*
X789000Y653520D02*
D03*
X770000D02*
D03*
X733000D02*
D03*
X752000D02*
D03*
X719000Y370520D02*
D03*
X738000D02*
D03*
D22*
X925000Y732520D02*
D03*
Y751520D02*
D03*
X905000Y568520D02*
D03*
Y587520D02*
D03*
X1018000Y575520D02*
D03*
Y556520D02*
D03*
X1084000Y538520D02*
D03*
Y519520D02*
D03*
Y575520D02*
D03*
Y556520D02*
D03*
X1002000Y538520D02*
D03*
Y519520D02*
D03*
X1002000Y575520D02*
D03*
Y556520D02*
D03*
X1043000D02*
D03*
Y575520D02*
D03*
X1043000Y519520D02*
D03*
Y538520D02*
D03*
X1101000Y538520D02*
D03*
Y519520D02*
D03*
Y575520D02*
D03*
Y556520D02*
D03*
X1019000Y538520D02*
D03*
Y519520D02*
D03*
X1060000Y556520D02*
D03*
Y575520D02*
D03*
X1060000Y519520D02*
D03*
Y538520D02*
D03*
X989000Y341520D02*
D03*
Y360520D02*
D03*
X969000D02*
D03*
Y341520D02*
D03*
X851000Y541520D02*
D03*
Y560520D02*
D03*
X1128000Y604520D02*
D03*
Y623520D02*
D03*
X1011000Y425570D02*
D03*
Y444570D02*
D03*
X1028000D02*
D03*
Y425570D02*
D03*
X1082000D02*
D03*
Y444570D02*
D03*
X1140000Y425520D02*
D03*
Y444520D02*
D03*
D23*
X959000Y660520D02*
D03*
X942000D02*
D03*
X961000Y552520D02*
D03*
X944000D02*
D03*
X952000Y538520D02*
D03*
X935000D02*
D03*
X942000Y646520D02*
D03*
X959000D02*
D03*
X909000Y641520D02*
D03*
X892000D02*
D03*
Y628520D02*
D03*
X909000D02*
D03*
D24*
X914000Y695520D02*
D03*
Y678520D02*
D03*
X900000D02*
D03*
Y695520D02*
D03*
X886000D02*
D03*
Y678520D02*
D03*
X985000Y519520D02*
D03*
Y536520D02*
D03*
X1145000Y597670D02*
D03*
Y580670D02*
D03*
X1165000D02*
D03*
Y597670D02*
D03*
D34*
X842560Y758580D02*
D03*
X855260D02*
D03*
X867960D02*
D03*
X880660D02*
D03*
D100*
X725000Y310520D02*
D03*
X744000D02*
D03*
X1073000Y407520D02*
D03*
X1092000D02*
D03*
D101*
X978800Y747520D02*
D03*
X1133800D02*
D03*
D102*
X1124800Y651520D02*
D03*
D103*
X978800D02*
D03*
D104*
X990550Y646520D02*
D03*
X1012550D02*
D03*
X1001550D02*
D03*
X1056550D02*
D03*
X1078550D02*
D03*
X1067550D02*
D03*
X1023550D02*
D03*
X1045550D02*
D03*
X1034550D02*
D03*
D105*
X974000Y378520D02*
D03*
X919000Y333520D02*
D03*
Y350520D02*
D03*
X929000D02*
D03*
X984000Y395520D02*
D03*
X974000D02*
D03*
D106*
X984000Y378520D02*
D03*
X929000Y333520D02*
D03*
D107*
X715000Y338520D02*
D03*
X751830D02*
D03*
X783170Y337520D02*
D03*
X820000D02*
D03*
D108*
X1099000Y426070D02*
D03*
Y435570D02*
D03*
Y445070D02*
D03*
X1123500D02*
D03*
Y426070D02*
D03*
D109*
X981000Y573520D02*
D03*
Y613520D02*
D03*
X930200Y573520D02*
D03*
D110*
Y613520D02*
D03*
M02*
