G04*
G04 #@! TF.GenerationSoftware,Altium Limited,Altium Designer,20.0.2 (26)*
G04*
G04 Layer_Color=8388736*
%FSLAX44Y44*%
%MOMM*%
G71*
G01*
G75*
%ADD38C,0.8636*%
%ADD39R,1.3000X2.2000*%
G04:AMPARAMS|DCode=40|XSize=1.0032mm|YSize=1.5032mm|CornerRadius=0.3016mm|HoleSize=0mm|Usage=FLASHONLY|Rotation=180.000|XOffset=0mm|YOffset=0mm|HoleType=Round|Shape=RoundedRectangle|*
%AMROUNDEDRECTD40*
21,1,1.0032,0.9000,0,0,180.0*
21,1,0.4000,1.5032,0,0,180.0*
1,1,0.6032,-0.2000,0.4500*
1,1,0.6032,0.2000,0.4500*
1,1,0.6032,0.2000,-0.4500*
1,1,0.6032,-0.2000,-0.4500*
%
%ADD40ROUNDEDRECTD40*%
%ADD41R,2.3032X1.0932*%
%ADD42R,0.5532X1.8032*%
%ADD43O,0.5532X1.8032*%
%ADD44R,1.8032X0.5532*%
G04:AMPARAMS|DCode=45|XSize=1.0032mm|YSize=1.5032mm|CornerRadius=0.3016mm|HoleSize=0mm|Usage=FLASHONLY|Rotation=270.000|XOffset=0mm|YOffset=0mm|HoleType=Round|Shape=RoundedRectangle|*
%AMROUNDEDRECTD45*
21,1,1.0032,0.9000,0,0,270.0*
21,1,0.4000,1.5032,0,0,270.0*
1,1,0.6032,-0.4500,-0.2000*
1,1,0.6032,-0.4500,0.2000*
1,1,0.6032,0.4500,0.2000*
1,1,0.6032,0.4500,-0.2000*
%
%ADD45ROUNDEDRECTD45*%
G04:AMPARAMS|DCode=46|XSize=1.0032mm|YSize=1.2032mm|CornerRadius=0.3016mm|HoleSize=0mm|Usage=FLASHONLY|Rotation=0.000|XOffset=0mm|YOffset=0mm|HoleType=Round|Shape=RoundedRectangle|*
%AMROUNDEDRECTD46*
21,1,1.0032,0.6000,0,0,0.0*
21,1,0.4000,1.2032,0,0,0.0*
1,1,0.6032,0.2000,-0.3000*
1,1,0.6032,-0.2000,-0.3000*
1,1,0.6032,-0.2000,0.3000*
1,1,0.6032,0.2000,0.3000*
%
%ADD46ROUNDEDRECTD46*%
G04:AMPARAMS|DCode=47|XSize=1.0032mm|YSize=1.2032mm|CornerRadius=0.3016mm|HoleSize=0mm|Usage=FLASHONLY|Rotation=270.000|XOffset=0mm|YOffset=0mm|HoleType=Round|Shape=RoundedRectangle|*
%AMROUNDEDRECTD47*
21,1,1.0032,0.6000,0,0,270.0*
21,1,0.4000,1.2032,0,0,270.0*
1,1,0.6032,-0.3000,-0.2000*
1,1,0.6032,-0.3000,0.2000*
1,1,0.6032,0.3000,0.2000*
1,1,0.6032,0.3000,-0.2000*
%
%ADD47ROUNDEDRECTD47*%
%ADD48R,3.0032X2.2032*%
%ADD49R,1.4032X6.2032*%
G04:AMPARAMS|DCode=50|XSize=6.2032mm|YSize=1.4032mm|CornerRadius=0.4016mm|HoleSize=0mm|Usage=FLASHONLY|Rotation=270.000|XOffset=0mm|YOffset=0mm|HoleType=Round|Shape=RoundedRectangle|*
%AMROUNDEDRECTD50*
21,1,6.2032,0.6000,0,0,270.0*
21,1,5.4000,1.4032,0,0,270.0*
1,1,0.8032,-0.3000,-2.7000*
1,1,0.8032,-0.3000,2.7000*
1,1,0.8032,0.3000,2.7000*
1,1,0.8032,0.3000,-2.7000*
%
%ADD50ROUNDEDRECTD50*%
G04:AMPARAMS|DCode=51|XSize=0.6032mm|YSize=0.7032mm|CornerRadius=0.2016mm|HoleSize=0mm|Usage=FLASHONLY|Rotation=90.000|XOffset=0mm|YOffset=0mm|HoleType=Round|Shape=RoundedRectangle|*
%AMROUNDEDRECTD51*
21,1,0.6032,0.3000,0,0,90.0*
21,1,0.2000,0.7032,0,0,90.0*
1,1,0.4032,0.1500,0.1000*
1,1,0.4032,0.1500,-0.1000*
1,1,0.4032,-0.1500,-0.1000*
1,1,0.4032,-0.1500,0.1000*
%
%ADD51ROUNDEDRECTD51*%
%ADD52R,0.7032X0.6032*%
%ADD53R,1.3032X2.1032*%
%ADD54R,2.6032X3.2032*%
%ADD55R,0.6032X1.9532*%
%ADD56R,1.0922X1.4732*%
G04:AMPARAMS|DCode=57|XSize=2.7432mm|YSize=1.1176mm|CornerRadius=0mm|HoleSize=0mm|Usage=FLASHONLY|Rotation=90.000|XOffset=0mm|YOffset=0mm|HoleType=Round|Shape=Octagon|*
%AMOCTAGOND57*
4,1,8,0.2794,1.3716,-0.2794,1.3716,-0.5588,1.0922,-0.5588,-1.0922,-0.2794,-1.3716,0.2794,-1.3716,0.5588,-1.0922,0.5588,1.0922,0.2794,1.3716,0.0*
%
%ADD57OCTAGOND57*%

%ADD58R,0.5032X1.6532*%
G04:AMPARAMS|DCode=59|XSize=0.5032mm|YSize=1.6532mm|CornerRadius=0.1766mm|HoleSize=0mm|Usage=FLASHONLY|Rotation=180.000|XOffset=0mm|YOffset=0mm|HoleType=Round|Shape=RoundedRectangle|*
%AMROUNDEDRECTD59*
21,1,0.5032,1.3000,0,0,180.0*
21,1,0.1500,1.6532,0,0,180.0*
1,1,0.3532,-0.0750,0.6500*
1,1,0.3532,0.0750,0.6500*
1,1,0.3532,0.0750,-0.6500*
1,1,0.3532,-0.0750,-0.6500*
%
%ADD59ROUNDEDRECTD59*%
%ADD60O,2.5032X0.8032*%
G04:AMPARAMS|DCode=61|XSize=1.9812mm|YSize=1.9812mm|CornerRadius=0.5461mm|HoleSize=0mm|Usage=FLASHONLY|Rotation=180.000|XOffset=0mm|YOffset=0mm|HoleType=Round|Shape=RoundedRectangle|*
%AMROUNDEDRECTD61*
21,1,1.9812,0.8890,0,0,180.0*
21,1,0.8890,1.9812,0,0,180.0*
1,1,1.0922,-0.4445,0.4445*
1,1,1.0922,0.4445,0.4445*
1,1,1.0922,0.4445,-0.4445*
1,1,1.0922,-0.4445,-0.4445*
%
%ADD61ROUNDEDRECTD61*%
G04:AMPARAMS|DCode=62|XSize=1.9812mm|YSize=1.9812mm|CornerRadius=0.5461mm|HoleSize=0mm|Usage=FLASHONLY|Rotation=270.000|XOffset=0mm|YOffset=0mm|HoleType=Round|Shape=RoundedRectangle|*
%AMROUNDEDRECTD62*
21,1,1.9812,0.8890,0,0,270.0*
21,1,0.8890,1.9812,0,0,270.0*
1,1,1.0922,-0.4445,-0.4445*
1,1,1.0922,-0.4445,0.4445*
1,1,1.0922,0.4445,0.4445*
1,1,1.0922,0.4445,-0.4445*
%
%ADD62ROUNDEDRECTD62*%
%ADD63C,0.2032*%
%ADD64C,2.2032*%
%ADD65C,1.5748*%
%ADD66R,1.5748X1.5748*%
%ADD67C,0.8032*%
%ADD68C,1.7032*%
%ADD69C,1.4032*%
%ADD70C,0.7032*%
%ADD71C,1.3032*%
D38*
X829860Y773820D02*
X893360D01*
D39*
X773500Y739520D02*
D03*
X726500Y739520D02*
D03*
D40*
X989000Y450520D02*
D03*
X970000D02*
D03*
X1120000Y496520D02*
D03*
X1139000D02*
D03*
X1004000Y773520D02*
D03*
X1023000D02*
D03*
X891000Y480520D02*
D03*
X872000D02*
D03*
X812000Y599520D02*
D03*
X831000D02*
D03*
X981000Y417520D02*
D03*
X962000D02*
D03*
X715000Y717520D02*
D03*
X734000D02*
D03*
D41*
X1218500Y317520D02*
D03*
Y297520D02*
D03*
Y337520D02*
D03*
Y357520D02*
D03*
Y437520D02*
D03*
Y417520D02*
D03*
Y377520D02*
D03*
Y397520D02*
D03*
Y477520D02*
D03*
Y457520D02*
D03*
X1165500D02*
D03*
Y477520D02*
D03*
Y417520D02*
D03*
Y377520D02*
D03*
Y397520D02*
D03*
Y437520D02*
D03*
Y357520D02*
D03*
Y317520D02*
D03*
Y297520D02*
D03*
Y337520D02*
D03*
X1218493Y537520D02*
D03*
Y517520D02*
D03*
Y497520D02*
D03*
Y577520D02*
D03*
Y557520D02*
D03*
X1165493D02*
D03*
Y577520D02*
D03*
Y517520D02*
D03*
Y497520D02*
D03*
Y537520D02*
D03*
X1218500Y617520D02*
D03*
Y597520D02*
D03*
Y637520D02*
D03*
Y657520D02*
D03*
Y737520D02*
D03*
Y717520D02*
D03*
Y677520D02*
D03*
Y697520D02*
D03*
Y777520D02*
D03*
Y757520D02*
D03*
X1165500D02*
D03*
Y777520D02*
D03*
Y717520D02*
D03*
Y677520D02*
D03*
Y697520D02*
D03*
Y737520D02*
D03*
Y657520D02*
D03*
Y617520D02*
D03*
Y597520D02*
D03*
Y637520D02*
D03*
D42*
X943250Y709270D02*
D03*
X948250D02*
D03*
X928250Y496770D02*
D03*
X933250D02*
D03*
X938250D02*
D03*
X943250D02*
D03*
X948250D02*
D03*
X953250D02*
D03*
X958250D02*
D03*
X963250D02*
D03*
X968250D02*
D03*
X973250D02*
D03*
X978250D02*
D03*
X983250D02*
D03*
X988250D02*
D03*
X993250D02*
D03*
X998250D02*
D03*
X1003250D02*
D03*
X1008250D02*
D03*
X1013250D02*
D03*
X1018250D02*
D03*
X1023250D02*
D03*
X1028250D02*
D03*
X1033250D02*
D03*
X1038250D02*
D03*
X1043250D02*
D03*
X1048250D02*
D03*
X1053250D02*
D03*
X1058250D02*
D03*
X1063250D02*
D03*
X1068250D02*
D03*
X1073250D02*
D03*
X1078250D02*
D03*
X1083250D02*
D03*
X1088250D02*
D03*
X1093250D02*
D03*
X1098250D02*
D03*
Y709270D02*
D03*
X1093250D02*
D03*
X1088250D02*
D03*
X1083250D02*
D03*
X1078250D02*
D03*
X1073250D02*
D03*
X1068250D02*
D03*
X1063250D02*
D03*
X1058250D02*
D03*
X1053250D02*
D03*
X1048250D02*
D03*
X1043250D02*
D03*
X1038250D02*
D03*
X1033250D02*
D03*
X1028250D02*
D03*
X1023250D02*
D03*
X1018250D02*
D03*
X1013250D02*
D03*
X1008250D02*
D03*
X1003250D02*
D03*
X998250D02*
D03*
X993250D02*
D03*
X988250D02*
D03*
X983250D02*
D03*
X978250D02*
D03*
X973250D02*
D03*
X968250D02*
D03*
X963250D02*
D03*
X958250D02*
D03*
X953250D02*
D03*
X938250D02*
D03*
X933250D02*
D03*
X928250D02*
D03*
X923250D02*
D03*
D43*
Y496770D02*
D03*
D44*
X1117000Y515520D02*
D03*
Y520520D02*
D03*
Y525520D02*
D03*
Y530520D02*
D03*
Y535520D02*
D03*
Y540520D02*
D03*
Y545520D02*
D03*
Y550520D02*
D03*
Y555520D02*
D03*
Y560520D02*
D03*
Y565520D02*
D03*
Y570520D02*
D03*
Y575520D02*
D03*
Y580520D02*
D03*
Y585520D02*
D03*
Y590520D02*
D03*
Y595520D02*
D03*
Y600520D02*
D03*
Y605520D02*
D03*
Y610520D02*
D03*
Y615520D02*
D03*
Y620520D02*
D03*
Y625520D02*
D03*
Y630520D02*
D03*
Y635520D02*
D03*
Y640520D02*
D03*
Y645520D02*
D03*
Y650520D02*
D03*
Y655520D02*
D03*
Y660520D02*
D03*
Y665520D02*
D03*
Y670520D02*
D03*
Y675520D02*
D03*
Y680520D02*
D03*
Y685520D02*
D03*
Y690520D02*
D03*
X904500D02*
D03*
Y685520D02*
D03*
Y680520D02*
D03*
Y675520D02*
D03*
Y670520D02*
D03*
Y665520D02*
D03*
Y660520D02*
D03*
Y655520D02*
D03*
Y650520D02*
D03*
Y645520D02*
D03*
Y640520D02*
D03*
Y635520D02*
D03*
Y630520D02*
D03*
Y625520D02*
D03*
Y620520D02*
D03*
Y615520D02*
D03*
Y610520D02*
D03*
Y605520D02*
D03*
Y600520D02*
D03*
Y595520D02*
D03*
Y590520D02*
D03*
Y585520D02*
D03*
Y580520D02*
D03*
Y575520D02*
D03*
Y570520D02*
D03*
Y565520D02*
D03*
Y560520D02*
D03*
Y555520D02*
D03*
Y550520D02*
D03*
Y545520D02*
D03*
Y540520D02*
D03*
Y535520D02*
D03*
Y530520D02*
D03*
Y525520D02*
D03*
Y520520D02*
D03*
Y515520D02*
D03*
D45*
X1118000Y732520D02*
D03*
Y713520D02*
D03*
X1134000Y732520D02*
D03*
Y713520D02*
D03*
X1028000Y425520D02*
D03*
Y444520D02*
D03*
X1144000Y578520D02*
D03*
Y597520D02*
D03*
X868000Y425520D02*
D03*
Y406520D02*
D03*
X851000Y577520D02*
D03*
Y596520D02*
D03*
Y560520D02*
D03*
Y541520D02*
D03*
X865000Y323520D02*
D03*
Y304520D02*
D03*
X1049000Y323520D02*
D03*
Y304520D02*
D03*
X851000Y496520D02*
D03*
Y515520D02*
D03*
D46*
X1139962Y377520D02*
D03*
X1122962D02*
D03*
X1139962Y357520D02*
D03*
X1122962D02*
D03*
X1139962Y337520D02*
D03*
X1122962D02*
D03*
X1139962Y317520D02*
D03*
X1122962D02*
D03*
X1088000Y377520D02*
D03*
X1105000D02*
D03*
X1088000Y357520D02*
D03*
X1105000D02*
D03*
X1089000Y337520D02*
D03*
X1106000D02*
D03*
X1088000Y317520D02*
D03*
X1105000D02*
D03*
X850000Y645520D02*
D03*
X867000D02*
D03*
Y681520D02*
D03*
X850000D02*
D03*
Y663520D02*
D03*
X867000D02*
D03*
X964000Y745520D02*
D03*
X981000D02*
D03*
Y731520D02*
D03*
X964000D02*
D03*
X1011000Y412520D02*
D03*
X1028000D02*
D03*
X981000Y759520D02*
D03*
X964000D02*
D03*
Y773520D02*
D03*
X981000D02*
D03*
X1116000Y747520D02*
D03*
X1133000D02*
D03*
Y761520D02*
D03*
X1116000D02*
D03*
Y775520D02*
D03*
X1133000D02*
D03*
X2089000Y692920D02*
D03*
X2072000D02*
D03*
Y667520D02*
D03*
X2089000D02*
D03*
Y743720D02*
D03*
X2072000D02*
D03*
Y718320D02*
D03*
X2089000D02*
D03*
X1962000Y591320D02*
D03*
X1945000D02*
D03*
Y565920D02*
D03*
X1962000D02*
D03*
Y642120D02*
D03*
X1945000D02*
D03*
Y616720D02*
D03*
X1962000D02*
D03*
Y692920D02*
D03*
X1945000D02*
D03*
Y667520D02*
D03*
X1962000D02*
D03*
Y743720D02*
D03*
X1945000D02*
D03*
Y718320D02*
D03*
X1962000D02*
D03*
X1835000Y591320D02*
D03*
X1818000D02*
D03*
Y565920D02*
D03*
X1835000D02*
D03*
Y642120D02*
D03*
X1818000D02*
D03*
Y616720D02*
D03*
X1835000D02*
D03*
Y692920D02*
D03*
X1818000D02*
D03*
Y667520D02*
D03*
X1835000D02*
D03*
Y743720D02*
D03*
X1818000D02*
D03*
Y718320D02*
D03*
X1835000D02*
D03*
X1708000Y591320D02*
D03*
X1691000D02*
D03*
Y565920D02*
D03*
X1708000D02*
D03*
Y642120D02*
D03*
X1691000D02*
D03*
Y616720D02*
D03*
X1708000D02*
D03*
Y692920D02*
D03*
X1691000D02*
D03*
Y667520D02*
D03*
X1708000D02*
D03*
Y743720D02*
D03*
X1691000D02*
D03*
Y718320D02*
D03*
X1708000D02*
D03*
X1581000Y591320D02*
D03*
X1564000D02*
D03*
Y565920D02*
D03*
X1581000D02*
D03*
Y642120D02*
D03*
X1564000D02*
D03*
Y616720D02*
D03*
X1581000D02*
D03*
Y692920D02*
D03*
X1564000D02*
D03*
Y667520D02*
D03*
X1581000D02*
D03*
Y743720D02*
D03*
X1564000D02*
D03*
Y718320D02*
D03*
X1581000D02*
D03*
X1454000Y591320D02*
D03*
X1437000D02*
D03*
Y565920D02*
D03*
X1454000D02*
D03*
Y642120D02*
D03*
X1437000D02*
D03*
Y616720D02*
D03*
X1454000D02*
D03*
Y692920D02*
D03*
X1437000D02*
D03*
Y667520D02*
D03*
X1454000D02*
D03*
Y743720D02*
D03*
X1437000D02*
D03*
Y718320D02*
D03*
X1454000D02*
D03*
X1327000Y591320D02*
D03*
X1310000D02*
D03*
Y565920D02*
D03*
X1327000D02*
D03*
Y642120D02*
D03*
X1310000D02*
D03*
Y616720D02*
D03*
X1327000D02*
D03*
Y692920D02*
D03*
X1310000D02*
D03*
Y667520D02*
D03*
X1327000D02*
D03*
Y743720D02*
D03*
X1310000D02*
D03*
Y718320D02*
D03*
X1327000D02*
D03*
D47*
X840000Y711520D02*
D03*
Y728520D02*
D03*
X854000Y728520D02*
D03*
Y711520D02*
D03*
X869000Y711520D02*
D03*
Y728520D02*
D03*
X883000D02*
D03*
Y711520D02*
D03*
D48*
X732000Y690350D02*
D03*
Y653520D02*
D03*
X790000D02*
D03*
Y690350D02*
D03*
X822000Y502520D02*
D03*
Y539350D02*
D03*
X1021000Y308520D02*
D03*
Y345350D02*
D03*
D49*
X721000Y600520D02*
D03*
X741000D02*
D03*
X721000Y505520D02*
D03*
X761000Y600520D02*
D03*
X741000Y505520D02*
D03*
X781000D02*
D03*
X761000D02*
D03*
D50*
X781000Y600520D02*
D03*
D51*
X811500Y583270D02*
D03*
D52*
Y576770D02*
D03*
Y570270D02*
D03*
X832500Y583270D02*
D03*
Y570270D02*
D03*
Y576770D02*
D03*
X811500Y563770D02*
D03*
X832500D02*
D03*
D53*
X822000Y573520D02*
D03*
D54*
X779750Y770770D02*
D03*
X720250D02*
D03*
X750000D02*
D03*
D55*
X743500Y739520D02*
D03*
X750000D02*
D03*
X756500D02*
D03*
X763000D02*
D03*
X737000D02*
D03*
D56*
X835320Y681520D02*
D03*
X815000D02*
D03*
X835000Y645520D02*
D03*
X814680D02*
D03*
X835320Y663520D02*
D03*
X815000D02*
D03*
D57*
X842560Y758580D02*
D03*
X855260D02*
D03*
X867960D02*
D03*
X880660D02*
D03*
D58*
X911000Y462520D02*
D03*
X906000D02*
D03*
X901000D02*
D03*
X896000D02*
D03*
X891000D02*
D03*
X911000Y418520D02*
D03*
X906000D02*
D03*
X901000D02*
D03*
X896000D02*
D03*
X927000D02*
D03*
X932000D02*
D03*
X937000D02*
D03*
X942000D02*
D03*
X947000D02*
D03*
X927000Y462520D02*
D03*
X932000D02*
D03*
X937000D02*
D03*
X942000D02*
D03*
D59*
X891000Y418520D02*
D03*
X947000Y462520D02*
D03*
D60*
X892500Y393320D02*
D03*
Y380620D02*
D03*
Y367920D02*
D03*
Y355220D02*
D03*
Y342520D02*
D03*
Y329820D02*
D03*
Y317120D02*
D03*
Y304420D02*
D03*
X984000Y393320D02*
D03*
Y380620D02*
D03*
Y367920D02*
D03*
Y355220D02*
D03*
Y342520D02*
D03*
Y329820D02*
D03*
Y317120D02*
D03*
Y304420D02*
D03*
D61*
X1377800Y718320D02*
D03*
Y743720D02*
D03*
Y692920D02*
D03*
Y667520D02*
D03*
Y642120D02*
D03*
Y616720D02*
D03*
Y591320D02*
D03*
Y565920D02*
D03*
X1504800Y743720D02*
D03*
Y718320D02*
D03*
Y591320D02*
D03*
X1631800Y692920D02*
D03*
X1504800Y565920D02*
D03*
X1631800D02*
D03*
Y591320D02*
D03*
X1758800Y692920D02*
D03*
Y616720D02*
D03*
X1885800Y591320D02*
D03*
X2012800Y565920D02*
D03*
Y642120D02*
D03*
X1758800Y565920D02*
D03*
X1504800Y667520D02*
D03*
X2139800Y743720D02*
D03*
X1352400Y718320D02*
D03*
Y743720D02*
D03*
Y667520D02*
D03*
Y692920D02*
D03*
Y616720D02*
D03*
Y642120D02*
D03*
Y565920D02*
D03*
Y591320D02*
D03*
X1479400Y743720D02*
D03*
Y692920D02*
D03*
X1606400Y642120D02*
D03*
X1733400Y667520D02*
D03*
Y692920D02*
D03*
Y616720D02*
D03*
Y642120D02*
D03*
Y565920D02*
D03*
X1987400Y743720D02*
D03*
X2114400Y692920D02*
D03*
D62*
X2012800Y591320D02*
D03*
Y692920D02*
D03*
Y743720D02*
D03*
X2139800Y692920D02*
D03*
X1631800Y718320D02*
D03*
Y743720D02*
D03*
Y667520D02*
D03*
Y642120D02*
D03*
Y616720D02*
D03*
X1758800Y667520D02*
D03*
X1885800Y565920D02*
D03*
Y642120D02*
D03*
Y616720D02*
D03*
X2012800Y667520D02*
D03*
Y718320D02*
D03*
X2139800Y667520D02*
D03*
X1504800Y692920D02*
D03*
Y616720D02*
D03*
Y642120D02*
D03*
X1758800Y743720D02*
D03*
Y718320D02*
D03*
Y642120D02*
D03*
Y591320D02*
D03*
X1885800Y667520D02*
D03*
Y692920D02*
D03*
Y718320D02*
D03*
Y743720D02*
D03*
X2012800Y616720D02*
D03*
X2139800Y718320D02*
D03*
X1479400D02*
D03*
Y667520D02*
D03*
Y616720D02*
D03*
Y642120D02*
D03*
Y565920D02*
D03*
Y591320D02*
D03*
X1606400Y718320D02*
D03*
Y743720D02*
D03*
Y667520D02*
D03*
Y692920D02*
D03*
Y616720D02*
D03*
Y565920D02*
D03*
Y591320D02*
D03*
X1733400Y718320D02*
D03*
Y743720D02*
D03*
Y591320D02*
D03*
X1860400Y718320D02*
D03*
Y743720D02*
D03*
Y667520D02*
D03*
Y692920D02*
D03*
Y616720D02*
D03*
Y642120D02*
D03*
Y565920D02*
D03*
Y591320D02*
D03*
X1987400Y718320D02*
D03*
Y667520D02*
D03*
Y692920D02*
D03*
Y616720D02*
D03*
Y642120D02*
D03*
Y565920D02*
D03*
Y591320D02*
D03*
X2114400Y718320D02*
D03*
Y743720D02*
D03*
Y667520D02*
D03*
D63*
X1192000Y307520D02*
D03*
Y467520D02*
D03*
Y407520D02*
D03*
Y367520D02*
D03*
X1191993Y567520D02*
D03*
Y507520D02*
D03*
X1192000Y607520D02*
D03*
Y767520D02*
D03*
Y707520D02*
D03*
Y667520D02*
D03*
D64*
X1007000Y751520D02*
D03*
X1086800D02*
D03*
D65*
X743500Y401770D02*
D03*
Y427170D02*
D03*
X768900Y401770D02*
D03*
Y427170D02*
D03*
X794300Y401770D02*
D03*
Y427170D02*
D03*
X819700Y401770D02*
D03*
Y427170D02*
D03*
X845100Y401770D02*
D03*
X718100D02*
D03*
Y427170D02*
D03*
X819000Y452520D02*
D03*
X845000D02*
D03*
X1377800Y402920D02*
D03*
X1352400Y428320D02*
D03*
Y402920D02*
D03*
X1327400Y428320D02*
D03*
Y402920D02*
D03*
X1301600Y428320D02*
D03*
Y402920D02*
D03*
X2165200D02*
D03*
X2139800Y428320D02*
D03*
Y402920D02*
D03*
D66*
X845100Y427170D02*
D03*
X819000Y472520D02*
D03*
X845000D02*
D03*
X1377800Y428320D02*
D03*
X2165200D02*
D03*
D67*
X746000Y712520D02*
D03*
X1133000Y590520D02*
D03*
X1146000Y609520D02*
D03*
X1024000Y661520D02*
D03*
X1142250Y297520D02*
D03*
X1119000Y297520D02*
D03*
X1107000Y489520D02*
D03*
X1047843Y694677D02*
D03*
X1240000Y517520D02*
D03*
X802000Y561520D02*
D03*
X1149000Y435520D02*
D03*
X1082999Y451520D02*
D03*
X2059000Y744520D02*
D03*
X1300000Y566520D02*
D03*
X1658000Y712520D02*
D03*
X1542900Y616720D02*
D03*
X1242000Y682520D02*
D03*
X1262000Y688520D02*
D03*
X1238000Y696520D02*
D03*
X1241999Y745519D02*
D03*
X1945000Y555520D02*
D03*
X1907000Y642520D02*
D03*
Y615520D02*
D03*
X864000Y553520D02*
D03*
X865000Y565520D02*
D03*
X1035000Y594520D02*
D03*
X1046224Y588520D02*
D03*
X1041000Y605520D02*
D03*
X1313000Y545520D02*
D03*
X1266000Y484520D02*
D03*
X1273000Y524520D02*
D03*
X1289000Y478520D02*
D03*
X1250000Y511520D02*
D03*
X1319000Y627520D02*
D03*
X1201355Y617165D02*
D03*
X1403000Y628520D02*
D03*
X1262000Y635520D02*
D03*
X1398000Y660520D02*
D03*
X1669900Y743720D02*
D03*
X1555000Y744520D02*
D03*
X1296000Y712520D02*
D03*
X1274000Y719520D02*
D03*
X1283000Y718520D02*
D03*
X1555000D02*
D03*
X1260999Y723519D02*
D03*
X1241999Y758519D02*
D03*
X1295000Y609520D02*
D03*
X1235999Y779017D02*
D03*
X1407000Y692520D02*
D03*
X1404000Y667520D02*
D03*
X1416000Y603520D02*
D03*
X1075142Y688520D02*
D03*
X1075000Y676520D02*
D03*
X1086000Y665520D02*
D03*
X1085000Y622520D02*
D03*
X1102000Y643520D02*
D03*
X1091000Y646520D02*
D03*
Y655520D02*
D03*
X1288999Y640519D02*
D03*
X1235000Y637165D02*
D03*
X1147137D02*
D03*
X1415900Y642120D02*
D03*
X1203000Y499520D02*
D03*
X1252000Y495520D02*
D03*
X1260000Y491520D02*
D03*
X1276000Y467520D02*
D03*
X1803000Y743520D02*
D03*
X1809000Y718520D02*
D03*
X1011000Y451520D02*
D03*
X1002000Y304520D02*
D03*
X957000Y310520D02*
D03*
X955000Y383520D02*
D03*
X1135999Y651519D02*
D03*
X1147478Y657520D02*
D03*
X795000Y522520D02*
D03*
X770000Y690520D02*
D03*
X761000D02*
D03*
X752000D02*
D03*
X884141Y563379D02*
D03*
X864000Y589519D02*
D03*
X865000Y597520D02*
D03*
X1051413Y582432D02*
D03*
X1030999Y576519D02*
D03*
X1026999Y564519D02*
D03*
X1112000Y434520D02*
D03*
X1134000Y397520D02*
D03*
X1140000D02*
D03*
X1147000D02*
D03*
X1128000Y412520D02*
D03*
X1140000D02*
D03*
X1134000D02*
D03*
X958000Y400520D02*
D03*
X965000D02*
D03*
Y407520D02*
D03*
X996000Y405520D02*
D03*
Y411520D02*
D03*
X1081753Y360274D02*
D03*
X999097Y431617D02*
D03*
X1089425Y346945D02*
D03*
X990000Y405520D02*
D03*
Y411520D02*
D03*
X958000Y407520D02*
D03*
X936000Y403520D02*
D03*
X926000D02*
D03*
X946000Y445520D02*
D03*
X908000Y477520D02*
D03*
X920000Y418520D02*
D03*
Y449520D02*
D03*
X911000Y405520D02*
D03*
X741000Y548520D02*
D03*
X741000Y557520D02*
D03*
Y565520D02*
D03*
X946000Y524520D02*
D03*
X959000D02*
D03*
X1203000Y437520D02*
D03*
X1182000D02*
D03*
X798000Y628520D02*
D03*
Y621520D02*
D03*
X791000D02*
D03*
Y628520D02*
D03*
X914000Y499520D02*
D03*
X947343Y474863D02*
D03*
X932000Y482520D02*
D03*
X922000D02*
D03*
X1002000Y511934D02*
D03*
X1059000Y510520D02*
D03*
X967800Y652619D02*
D03*
X853000Y608520D02*
D03*
X1056000Y683520D02*
D03*
X1066000Y684520D02*
D03*
Y674520D02*
D03*
X1036000Y746520D02*
D03*
X1024000Y750520D02*
D03*
X1050000Y756520D02*
D03*
X1149000Y735346D02*
D03*
X995000Y731520D02*
D03*
X993000Y723520D02*
D03*
X954000Y479520D02*
D03*
X965000D02*
D03*
X1028000Y451520D02*
D03*
X871000Y436520D02*
D03*
X973236Y664962D02*
D03*
X841000Y633520D02*
D03*
X855000Y635553D02*
D03*
X878000Y640520D02*
D03*
X881000Y628453D02*
D03*
X879000Y649520D02*
D03*
X861655Y623865D02*
D03*
X847000Y625520D02*
D03*
X1064000Y407520D02*
D03*
X1105000D02*
D03*
X1183000Y577520D02*
D03*
X1139999Y568102D02*
D03*
X1131731D02*
D03*
X1076000Y622520D02*
D03*
X1067000Y762520D02*
D03*
X1059000D02*
D03*
X1010000Y731520D02*
D03*
X991000Y746520D02*
D03*
X1022000Y759520D02*
D03*
X873000Y624520D02*
D03*
X990000Y694760D02*
D03*
X873000Y534520D02*
D03*
X1149000Y757520D02*
D03*
X1051000Y511120D02*
D03*
X925000Y517644D02*
D03*
X937000D02*
D03*
X1108819Y457520D02*
D03*
X1099000Y463520D02*
D03*
X1079000Y472421D02*
D03*
X1089000D02*
D03*
X1107000Y470520D02*
D03*
X1199999Y760519D02*
D03*
X1110999Y502519D02*
D03*
X999000Y479520D02*
D03*
X1029000D02*
D03*
X1019850D02*
D03*
X1009000D02*
D03*
X1002000Y467520D02*
D03*
X1190999Y553519D02*
D03*
X1201000Y577520D02*
D03*
Y597520D02*
D03*
X1182000D02*
D03*
Y537520D02*
D03*
X1115000Y337520D02*
D03*
X834000Y622520D02*
D03*
X887999Y582519D02*
D03*
X1072000Y574520D02*
D03*
X1058000Y606851D02*
D03*
X1065920Y613600D02*
D03*
X1195999Y537519D02*
D03*
X1147999Y549519D02*
D03*
X1148000Y561520D02*
D03*
X1138000Y623520D02*
D03*
X1201728Y678248D02*
D03*
X1039000Y694760D02*
D03*
X1045550Y662520D02*
D03*
X1098000Y688520D02*
D03*
X1086000D02*
D03*
X1076000Y666520D02*
D03*
X921757Y650277D02*
D03*
X1040999Y732519D02*
D03*
X1053000Y732520D02*
D03*
X1052000Y744520D02*
D03*
X1118000Y698816D02*
D03*
X1078999Y737519D02*
D03*
X1000000Y694760D02*
D03*
X1018000Y733520D02*
D03*
X991913Y773665D02*
D03*
X992000Y765520D02*
D03*
X878156Y556676D02*
D03*
X968000Y518520D02*
D03*
X967000Y528520D02*
D03*
X1149000Y697520D02*
D03*
X1151000Y677520D02*
D03*
X966558Y670760D02*
D03*
X967000Y643520D02*
D03*
X2050900Y718320D02*
D03*
Y692920D02*
D03*
Y667520D02*
D03*
X1923900Y743720D02*
D03*
Y718320D02*
D03*
Y692920D02*
D03*
Y667520D02*
D03*
X1932000Y591520D02*
D03*
X1796900Y692920D02*
D03*
Y667520D02*
D03*
Y642120D02*
D03*
Y616720D02*
D03*
Y591320D02*
D03*
Y565920D02*
D03*
X1669900Y718320D02*
D03*
Y692920D02*
D03*
Y667520D02*
D03*
Y642120D02*
D03*
Y616720D02*
D03*
Y591320D02*
D03*
Y565920D02*
D03*
X1542900Y692920D02*
D03*
Y667520D02*
D03*
Y642120D02*
D03*
Y591320D02*
D03*
Y565920D02*
D03*
X1415900Y718320D02*
D03*
Y616720D02*
D03*
Y591320D02*
D03*
Y565920D02*
D03*
X1288900Y591320D02*
D03*
Y616720D02*
D03*
Y667520D02*
D03*
Y692920D02*
D03*
Y743720D02*
D03*
X937000Y694760D02*
D03*
X928000Y688520D02*
D03*
X1114000Y317520D02*
D03*
X1078000D02*
D03*
X1203000Y477520D02*
D03*
X1181000D02*
D03*
X1203000Y457520D02*
D03*
X998000Y614520D02*
D03*
X1002000Y457520D02*
D03*
X1139000Y697520D02*
D03*
X935000Y682282D02*
D03*
X970000Y552520D02*
D03*
X962000Y538520D02*
D03*
X944000Y673520D02*
D03*
X1202000Y557520D02*
D03*
X1236000Y657520D02*
D03*
X1235000Y737520D02*
D03*
X1148000Y488520D02*
D03*
X1087000Y588520D02*
D03*
X1073000Y518520D02*
D03*
X1025000Y605520D02*
D03*
X824000Y728520D02*
D03*
X900000Y729520D02*
D03*
X938000Y751520D02*
D03*
X928000Y723520D02*
D03*
X900000Y719520D02*
D03*
X746000Y721520D02*
D03*
X757000D02*
D03*
X769000D02*
D03*
X781000Y637520D02*
D03*
X851000Y528520D02*
D03*
Y570520D02*
D03*
X888000Y548520D02*
D03*
X900000Y477520D02*
D03*
X908000Y483520D02*
D03*
X900000D02*
D03*
X1107041Y723520D02*
D03*
X891000Y504520D02*
D03*
X1098000Y588520D02*
D03*
Y622520D02*
D03*
X877000Y577520D02*
D03*
X886000Y666707D02*
D03*
X869000Y700520D02*
D03*
X932000Y646520D02*
D03*
Y660520D02*
D03*
X900000Y709520D02*
D03*
X840000Y598520D02*
D03*
X919000Y462520D02*
D03*
X884000Y418520D02*
D03*
X966000Y329520D02*
D03*
Y317520D02*
D03*
X888000Y524520D02*
D03*
X841000Y588520D02*
D03*
X1084000Y546520D02*
D03*
X1031000Y517520D02*
D03*
X1037000Y479520D02*
D03*
X934000Y552520D02*
D03*
X925000Y538520D02*
D03*
X1043000Y547520D02*
D03*
X1002000D02*
D03*
X1114000Y357520D02*
D03*
X1091000Y392520D02*
D03*
X1099000D02*
D03*
X741000Y637520D02*
D03*
X815000Y699520D02*
D03*
X910000Y319520D02*
D03*
Y327520D02*
D03*
D68*
X761000Y560520D02*
D03*
D69*
Y671520D02*
D03*
D70*
X822000Y581770D02*
D03*
Y565270D02*
D03*
D71*
Y573520D02*
D03*
M02*
