M48
;Layer_Color=9474304
;FILE_FORMAT=4:4
METRIC,LZ
;TYPE=PLATED
T1F00S00C0.2000
T2F00S00C0.3000
T3F00S00C0.6000
T4F00S00C0.8000
T5F00S00C0.8500
T6F00S00C0.8636
T7F00S00C1.0000
%
T01
X00822Y0056527
Y0058177
T02
X0091Y0031952
Y0032752
X00966Y0032952
Y0031752
X00957Y0031052
X01002Y0030452
X01078Y0031752
X01114
X01115Y0033752
X01114Y0035752
X01081753Y00360274
X01089425Y00346945
X01091Y0039252
X01099
X01119Y0029752
X0114225Y0029752
X00955Y0038352
X020509Y0066752
Y0069292
Y0071832
X02059Y0074452
X019239Y0074372
Y0071832
Y0069292
Y0066752
X01907Y0064252
Y0061552
X01932Y0059152
X01945Y0055552
X017969Y0056592
Y0059132
Y0061672
Y0064212
Y0066752
Y0069292
X01809Y0071852
X01803Y0074352
X016699Y0074372
Y0071832
X01658Y0071252
X016699Y0069292
Y0066752
Y0064212
Y0061672
Y0059132
Y0056592
X015429
Y0059132
Y0061672
Y0064212
Y0066752
Y0069292
X01555Y0071852
Y0074452
X014159Y0071832
X01407Y0069252
X01404Y0066752
X01398Y0066052
X014159Y0064212
Y0061672
X01416Y0060352
X014159Y0059132
Y0056592
X01403Y0062852
X01319Y0062752
X012889Y0061672
X01295Y0060952
X012889Y0059132
X013Y0056652
X01313Y0054552
X01273Y0052452
X0125Y0051152
X0124Y0051752
X01252Y0049552
X0126Y0049152
X01266Y0048452
X01276Y0046752
X01289Y0047852
X01203Y0047752
Y0045752
Y0043752
Y0049952
X01195999Y00537519
X01190999Y00553519
X01202Y0055752
X01201Y0057752
Y0059752
X01201355Y00617165
X01235Y00637165
X01236Y0065752
X01242Y0068252
X01238Y0069652
X01262Y0068852
X012889Y0069292
Y0066752
X01288999Y00640519
X01262Y0063552
X01260999Y00723519
X01274Y0071952
X01283Y0071852
X01296Y0071252
X012889Y0074372
X01241999Y00745519
Y00758519
X01235999Y00779017
X01235Y0073752
X01199999Y00760519
X01201728Y00678248
X01151Y0067752
X01149Y0069752
X01139
X01118Y00698816
X01098Y0068852
X01086
X01075142Y0068852
X01075Y0067652
X01066Y0067452
Y0068452
X01056Y0068352
X01047843Y00694677
X01039Y0069476
X0104555Y0066252
X01024Y0066152
X00973236Y00664962
X00966558Y0067076
X009678Y00652619
X00967Y0064352
X00932Y0064652
Y0066052
X00921757Y00650277
X00879Y0064952
X00878Y0064052
X00881Y00628453
X00873Y0062452
X00861655Y00623865
X00847Y0062552
X00841Y0063352
X00855Y00635553
X00853Y0060852
X0084Y0059852
X00841Y0058852
X00864Y00589519
X00865Y0059752
Y0056552
X00864Y0055352
X00878156Y00556676
X00884141Y00563379
X00888Y0054852
Y0052452
X00891Y0050452
X00914Y0049952
X00908Y0048352
Y0047752
X009
Y0048352
X00922Y0048252
X00932
X00947343Y00474863
X00954Y0047952
X00965
X00999
X01009
X0101985
X01029
X01037
X01028Y0045152
X01011
X01002Y0045752
Y0046752
X00999097Y00431617
X00996Y0041152
Y0040552
X0099
Y0041152
X00965Y0040752
X00958
Y0040052
X00965
X00936Y0040352
X00926
X00911Y0040552
X0092Y0041852
Y0044952
X00919Y0046252
X00946Y0044552
Y0052452
X00959
X00967Y0052852
X00968Y0051852
X00962Y0053852
X0097Y0055252
X00934
X00925Y0053852
Y00517644
X00937
X01002Y00511934
X01031Y0051752
X01051Y0051112
X01059Y0051052
X01073Y0051852
X01084Y0054652
X01072Y0057452
X01051413Y00582432
X01046224Y0058852
X01035Y0059452
X01041Y0060552
X01025
X01058Y00606851
X0106592Y006136
X01076Y0062252
X01085
X01098
X01102Y0064352
X01091Y0064652
Y0065552
X01086Y0066552
X01076Y0066652
X01078999Y00737519
X01053Y0073252
X01040999Y00732519
X01036Y0074652
X01024Y0075052
X01022Y0075952
X01018Y0073352
X0101Y0073152
X00995
X00993Y0072352
X00991Y0074652
X00992Y0076552
X00991913Y00773665
X0105Y0075652
X01052Y0074452
X01059Y0076252
X01067
X01107041Y0072352
X01149Y00735346
Y0075752
X01147478Y0065752
X01135999Y00651519
X01147137Y00637165
X01138Y0062352
X01146Y0060952
X01133Y0059052
X01131731Y00568102
X01139999
X01148Y0056152
X01147999Y00549519
X01182Y0053752
X01183Y0057752
X01182Y0059752
X01098Y0058852
X01087
X01030999Y00576519
X01026999Y00564519
X01043Y0054752
X01002
X00998Y0061452
X01Y0069476
X0099
X00937
X00935Y00682282
X00928Y0068852
X00944Y0067352
X00886Y00666707
X00869Y0070052
X009Y0070952
Y0071952
Y0072952
X00928Y0072352
X00938Y0075152
X00824Y0072852
X00815Y0069952
X00798Y0062852
Y0062152
X00834Y0062252
X00851Y0057052
X00877Y0057752
X00887999Y00582519
X00873Y0053452
X00851Y0052852
X00795Y0052252
X00802Y0056152
X00871Y0043652
X00884Y0041852
X01064Y0040752
X01105
X01128Y0041252
X01134
X0114
Y0039752
X01134
X01147
X01149Y0043552
X01182Y0043752
X01181Y0047752
X01148Y0048852
X01107Y0048952
X01110999Y00502519
X01107Y0047052
X01108819Y0045752
X01099Y0046352
X01089Y00472421
X01079
X01082999Y0045152
X01112Y0043452
X00741Y0054852
X00741Y0055752
Y0056552
Y0063752
X00781
X00791Y0062852
Y0062152
X0077Y0069052
X00761
X00752
X00746Y0071252
Y0072152
X00757
X00769
T03
X00761Y0067152
T04
X00822Y0057352
X00761Y0056052
T05
X01192Y0030752
Y0036752
Y0040752
Y0046752
X01191993Y0050752
Y0056752
X01192Y0060752
Y0066752
Y0070752
Y0076752
T06
X021398Y0040292
X021652
Y0042832
X021398
X013778
Y0040292
X013524
X013274
Y0042832
X013524
X013016
Y0040292
X008451Y0040177
X008197
X007943
Y0042717
X008197
X008451
X00845Y0045252
Y0047252
X00819
Y0045252
X007689Y0042717
X007435
Y0040177
X007689
X007181
Y0042717
T07
X019874Y0056592
X020128
Y0059132
Y0061672
Y0064212
Y0066752
Y0069292
Y0071832
Y0074372
X019874
Y0071832
Y0069292
Y0066752
Y0064212
Y0061672
Y0059132
X021144Y0066752
X021398
Y0069292
Y0071832
Y0074372
X021144
Y0071832
Y0069292
X018858
Y0066752
Y0064212
Y0061672
Y0059132
Y0056592
X018604
Y0059132
Y0061672
Y0064212
Y0066752
Y0069292
Y0071832
X018858
Y0074372
X018604
X017588
Y0071832
Y0069292
Y0066752
Y0064212
Y0061672
Y0059132
Y0056592
X017334
Y0059132
Y0061672
Y0064212
Y0066752
Y0069292
Y0071832
Y0074372
X016318
Y0071832
Y0069292
Y0066752
Y0064212
Y0061672
Y0059132
Y0056592
X016064
Y0059132
Y0061672
Y0064212
Y0066752
Y0069292
Y0071832
Y0074372
X015048
Y0071832
Y0069292
Y0066752
Y0064212
Y0061672
Y0059132
Y0056592
X014794
Y0059132
Y0061672
Y0064212
Y0066752
Y0069292
Y0071832
Y0074372
X013778
Y0071832
Y0069292
Y0066752
Y0064212
Y0061672
Y0059132
Y0056592
X013524
Y0059132
Y0061672
Y0064212
Y0066752
Y0069292
Y0071832
Y0074372
X010868Y0075152
X01007
M30
